<svg width="323" height="213" viewBox="0 0 323 213" fill="none" xmlns="http://www.w3.org/2000/svg">
<path d="M0 146.764V0H252.083L322.148 68.4815V212.888H69.4414L0 146.764Z" fill="#295CF3"/>
<path d="M17.8245 28.0603C17.8245 22.0443 21.7285 17.9163 26.9765 17.9163C31.6165 17.9163 34.4645 20.6363 35.2005 24.5723H31.1365C30.4645 22.7803 29.2485 21.5643 26.9765 21.5643C23.8405 21.5643 21.9845 24.3163 21.9845 28.0603C21.9845 31.7723 23.8405 34.5563 26.9765 34.5563C29.2485 34.5563 30.4645 33.3403 31.1365 31.5163H35.2005C34.4645 35.4843 31.6165 38.2043 26.9765 38.2043C21.7285 38.2043 17.8245 34.0763 17.8245 28.0603ZM49.5247 37.8843H45.7167V37.1163C45.2367 37.5963 43.7967 38.1403 42.2287 38.1403C39.3487 38.1403 36.9167 36.4763 36.9167 33.5003C36.9167 30.7803 39.3487 28.9243 42.4527 28.9243C43.7007 28.9243 45.1407 29.3403 45.7167 29.7563V28.7003C45.7167 27.4843 44.9807 26.4923 43.3807 26.4923C42.2607 26.4923 41.5887 27.0043 41.2687 27.8363H37.4927C37.9087 25.2443 40.2447 23.2603 43.5087 23.2603C47.3167 23.2603 49.5247 25.3403 49.5247 28.7643V37.8843ZM45.7167 33.9803V32.9563C45.3647 32.1883 44.2767 31.7083 43.1247 31.7083C41.8767 31.7083 40.5967 32.2523 40.5967 33.4683C40.5967 34.7163 41.8767 35.2283 43.1247 35.2283C44.2767 35.2283 45.3647 34.7483 45.7167 33.9803ZM64.1735 25.0843C65.1015 24.0603 66.4775 23.2603 68.4935 23.2603C71.4375 23.2603 73.1975 25.3083 73.1975 28.5403V37.8843H69.2295V29.3723C69.2295 27.8363 68.5575 26.8123 67.1815 26.8123C66.1575 26.8123 65.2295 27.4523 64.9735 28.6683V37.8843H60.9735V29.3723C60.9735 27.8363 60.3335 26.8123 58.9575 26.8123C57.9335 26.8123 56.9735 27.4523 56.7175 28.6683V37.8843H52.7495V23.5803H56.7175V24.7643C57.4215 23.8683 58.7335 23.2603 60.3335 23.2603C62.0295 23.2603 63.3735 24.0283 64.1735 25.0843ZM80.4675 36.7003V43.1643H76.4995V23.5803H80.4675V24.7643C81.1075 23.9963 82.5155 23.2603 84.0515 23.2603C88.2115 23.2603 90.5795 26.7163 90.5795 30.7483C90.5795 34.7803 88.2115 38.2043 84.0515 38.2043C82.5155 38.2043 81.1075 37.4683 80.4675 36.7003ZM80.4675 28.3803V33.0843C80.9475 34.0763 82.0035 34.7483 83.1555 34.7483C85.2995 34.7483 86.5795 33.0203 86.5795 30.7483C86.5795 28.4443 85.2995 26.7163 83.1555 26.7163C81.9715 26.7163 80.9475 27.4203 80.4675 28.3803ZM105.765 23.5803V37.8843H101.797V36.5723C100.997 37.4683 99.6212 38.2043 97.9572 38.2043C94.7572 38.2043 92.9332 36.0923 92.9332 32.9243V23.5803H96.9012V32.1243C96.9012 33.6283 97.6372 34.6523 99.2052 34.6523C100.421 34.6523 101.477 33.9163 101.765 32.6683V23.5803H105.765ZM108.259 33.6283H112.195C112.515 34.6523 113.411 35.1963 114.595 35.1963C115.811 35.1963 116.611 34.7163 116.611 33.7883C116.611 33.1483 116.163 32.8283 115.171 32.5723L112.291 31.9323C110.115 31.4203 108.579 30.3003 108.579 27.9003C108.579 25.1163 111.075 23.2603 114.275 23.2603C117.891 23.2603 119.875 24.9883 120.355 27.6763H116.579C116.323 26.8763 115.651 26.2683 114.339 26.2683C113.379 26.2683 112.451 26.7163 112.451 27.6123C112.451 28.1883 112.835 28.5083 113.731 28.7323L116.675 29.4043C119.171 30.0123 120.483 31.3883 120.483 33.5643C120.483 36.4763 117.955 38.2043 114.627 38.2043C111.139 38.2043 108.675 36.5403 108.259 33.6283Z" fill="#F1F1F4"/>
<path d="M27.0085 47.3526V50.7126C26.5925 50.4246 26.0805 50.3286 25.6005 50.3286C24.3845 50.3286 23.6485 51.0006 23.6485 52.3126V53.7526H26.6245V56.9526H23.6485V68.0566H19.7445V56.9526H17.4085V53.7526H19.7445V52.0566C19.7445 48.8246 21.7605 46.9686 24.8005 46.9686C25.7285 46.9686 26.4325 47.0966 27.0085 47.3526ZM41.9632 60.9206C41.9632 65.3046 39.1152 68.3766 34.9552 68.3766C30.7952 68.3766 27.9472 65.3046 27.9472 60.9206C27.9472 56.5046 30.7952 53.4326 34.9552 53.4326C39.1152 53.4326 41.9632 56.5046 41.9632 60.9206ZM38.0272 60.9206C38.0272 58.5206 36.9392 56.7926 34.9552 56.7926C32.9712 56.7926 31.8832 58.5206 31.8832 60.9206C31.8832 63.2886 32.9712 65.0166 34.9552 65.0166C36.9392 65.0166 38.0272 63.2886 38.0272 60.9206ZM53.1715 53.6886V57.6566C52.6275 57.3366 51.9235 57.1766 51.1875 57.1766C49.8435 57.1766 48.7555 57.8806 48.4675 59.1926V68.0566H44.4995V53.7526H48.4675V55.1606C49.0755 54.1366 50.2595 53.4326 51.6675 53.4326C52.3395 53.4326 52.9475 53.5606 53.1715 53.6886Z" fill="#F1F1F4"/>
<path d="M278.311 174.277H282.375L289.895 193.925H285.735L283.975 189.189H276.615L274.887 193.925H270.791L278.311 174.277ZM280.295 179.205L277.895 185.733H282.695L280.295 179.205ZM296.069 173.125V193.925H292.101V173.125H296.069ZM303.507 173.125V193.925H299.539V173.125H303.507Z" fill="#F1F1F4"/>
</svg>
