<?xml version="1.0" encoding="utf-8"?>
<!-- Generator: Adobe Illustrator 27.5.0, SVG Export Plug-In . SVG Version: 6.00 Build 0)  -->
<svg version="1.1" id="Layer_1" xmlns="http://www.w3.org/2000/svg" xmlns:xlink="http://www.w3.org/1999/xlink" x="0px" y="0px"
	 viewBox="0 0 17.1 14" style="enable-background:new 0 0 17.1 14;" xml:space="preserve">
<style type="text/css">
	.st0{fill:#565CBA;stroke:#565CBA;}
</style>
<g id="icons_Q2" transform="translate(1.052 11.001)">
	<path id="Trazado_93" class="st0" d="M4.5,0.3L1.1-3.4C1-3.5,0.8-3.6,0.6-3.6c-0.2,0-0.4,0.1-0.5,0.3C-0.1-3,0-2.6,0.2-2.4l3.9,4.2
		C4.3,2,4.7,2.1,4.9,1.9c0,0,0.1-0.1,0.1-0.1l9.8-10.5C15-9,15.1-9.4,14.9-9.7c-0.1-0.2-0.3-0.3-0.5-0.3c-0.2,0-0.4,0.1-0.5,0.2
		L4.5,0.3z"/>
</g>
</svg>
