<?xml version="1.0" encoding="utf-8"?>
<!-- Generator: Adobe Illustrator 27.9.0, SVG Export Plug-In . SVG Version: 6.00 Build 0)  -->
<svg version="1.1" id="icon" xmlns="http://www.w3.org/2000/svg" xmlns:xlink="http://www.w3.org/1999/xlink" x="0px" y="0px"
	 viewBox="0 0 1920 1080" style="enable-background:new 0 0 1920 1080;" xml:space="preserve">
<style type="text/css">
	.st0{opacity:5.000000e-02;}
	.st1{opacity:9.000000e-02;}
	.st2{fill:none;}
</style>
<rect class="st0" width="1920" height="1080"/>
<g class="st1">
	<path d="M1117.3,398.6l-15.9-15.9L802.7,681.4l15.9,15.9l22.5-22.5h231.3c12.4,0,22.5-10.1,22.5-22.5V421L1117.3,398.6z
		 M1072.4,652.4H863.5l87.6-87.6l26.7,26.7c8.8,8.8,23,8.8,31.8,0l17.8-17.8l44.9,44.9L1072.4,652.4L1072.4,652.4z M1072.4,586.8
		l-29.1-29.1c-8.8-8.8-23-8.8-31.8,0l-17.8,17.8L967,548.9l105.4-105.4V586.8z"/>
	<path d="M847.6,607.4v-33.7l56.2-56.1l15.4,15.4l15.9-15.9l-15.5-15.5c-8.8-8.8-23-8.8-31.8,0l-40.3,40.3V427.6h179.8v-22.5H847.6
		c-12.4,0-22.5,10.1-22.5,22.5v179.8H847.6z"/>
</g>
<rect id="_Transparent_Rectangle_" class="st2" width="800" height="800"/>
</svg>
