<?xml version="1.0" standalone="no"?>
<!DOCTYPE svg PUBLIC "-//W3C//DTD SVG 1.1//EN" "http://www.w3.org/Graphics/SVG/1.1/DTD/svg11.dtd" >
<svg xmlns="http://www.w3.org/2000/svg" xmlns:xlink="http://www.w3.org/1999/xlink" version="1.1">
<metadata>
Created by FontForge 20201107 at Tue Apr 16 22:13:53 2024
 By 
Copyright (c) 2021 by Martin Va'cha. All rights reserved.
</metadata>
<defs>
<font id="TobiasTRIAL-SemiBoldItalic" horiz-adv-x="1748" >
  <font-face 
    font-family="Tobias TRIAL SemiBold Italic"
    font-weight="600"
    font-style="italic"
    font-stretch="normal"
    units-per-em="2048"
    panose-1="0 0 0 0 0 0 0 0 0 0"
    ascent="1638"
    descent="-410"
    x-height="1038"
    cap-height="1450"
    bbox="-369 -573 2637.41 2370"
    underline-thickness="102"
    underline-position="-255"
    slope="-12"
    unicode-range="U+000D-F8FF"
  />
<missing-glyph horiz-adv-x="2314" 
d="M158 633q0 202 78 388.5t210 323.5t314.5 222t384.5 92v-2048q-202 7 -385 90.5t-315 220t-209.5 322.5t-77.5 389zM1219 -383v2034q83 -28 153 -172t111 -368.5t41 -477.5t-41 -477t-111 -367t-153 -172zM1374 -350q103 134 164 398t61 585t-61 585.5t-164 401.5
q146 -62 262 -207.5t181 -349.5t65 -430q0 -344 -142 -617t-366 -366zM1583 -307q172 150 273.5 400t101.5 540q0 289 -101.5 541t-273.5 401q281 -119 452 -376t171 -566q0 -310 -171 -566t-452 -374z" />
    <glyph glyph-name="f_f" unicode="ff" horiz-adv-x="1804" 
d="M672 29q77 14 113 40.5t49 86.5l176 825h-428l-176 -825q-13 -62 18 -87.5t135 -39.5l-6 -29h-582l6 29q77 14 113 40.5t49 86.5l176 825h-172l13 57h172q21 94 65.5 172.5t103 133t130 92.5t145.5 55.5t150 17.5q100 0 186 -34t123 -95q166 129 373 129q100 0 184 -25.5
t133 -80t33 -127.5q-7 -39 -33.5 -69t-62.5 -42q-41 -14 -80 -3t-56 44q-16 29 -28 78.5l-20 82.5t-35 59t-74 26q-78 0 -156 -103.5t-109 -250.5l-12 -60h285l-12 -57h-285l-176 -825q-13 -62 18 -87.5t135 -39.5l-6 -29h-581zM592 1038h430q26 128 100 232
q-9 86 -59.5 134t-134.5 48q-124 0 -207.5 -101t-116.5 -259z" />
    <glyph glyph-name="f_f_i" unicode="ffi" horiz-adv-x="2127" 
d="M723 29q77 14 113 40.5t49 86.5l176 825h-479l-176 -825q-13 -62 18 -87.5t135 -39.5l-6 -29h-582l6 29q77 14 113 40.5t49 86.5l176 825h-172l13 57h172q21 94 65.5 172.5t103 133t130 92.5t145.5 55.5t150 17.5q112 0 206 -43.5t119 -117.5q89 81 208.5 121t250.5 40
q178 0 286 -61.5t97 -149.5q-6 -46 -34 -76.5t-70 -41.5q-39 -13 -79 0t-55 47q-9 21 -17.5 57.5t-16.5 62t-23.5 52t-47 40t-79.5 13.5q-113 0 -198 -100t-117 -254l-13 -60h562l143 31h29l-193 -909q-13 -61 5.5 -90t80.5 -41l-6 -29h-498l6 29q69 12 101.5 41t44.5 90
l145 690q17 73 -7 102t-89 29h-336l-176 -825q-13 -62 18.5 -87.5t135.5 -39.5l-7 -29h-581zM592 1038h481q13 68 49 146q12 123 -39.5 195.5t-154.5 72.5q-124 0 -207.5 -101t-116.5 -259z" />
    <glyph glyph-name="f_f_l" unicode="ffl" horiz-adv-x="2127" 
d="M-23 29q77 14 113 40.5t49 86.5l176 825h-172l13 57h172q21 94 65.5 172.5t103 133t130 92.5t145.5 55.5t150 17.5q112 0 205 -42.5t120 -116.5q85 79 195 119t225 40q88 0 160.5 -25.5t111.5 -72.5l191 68h29l-279 -1319q-13 -61 5.5 -90t80.5 -41l-6 -29h-498l6 29
q69 12 101.5 41t44.5 90l215 1018q48 274 -156 274q-124 0 -207 -101t-116 -259l-13 -54h301l-12 -57h-299l-176 -825q-13 -62 18.5 -87.5t135.5 -39.5l-7 -29h-581l6 29q77 14 113 40.5t49 86.5l176 825h-479l-176 -825q-13 -62 18 -87.5t135 -39.5l-6 -29h-582zM592 1038
h481q12 65 49 144q14 124 -38 197t-156 73q-124 0 -207.5 -101t-116.5 -259z" />
    <glyph glyph-name="f_i" unicode="fi" horiz-adv-x="1382" 
d="M-23 29q77 14 113 40.5t49 86.5l176 825h-172l13 57h172q25 118 87.5 210.5t149 148t187 84t209.5 28.5q178 0 285.5 -61.5t96.5 -149.5q-6 -46 -34 -76.5t-70 -41.5q-41 -13 -79.5 0t-53.5 47q-9 21 -17.5 57.5t-16.5 62t-23.5 52t-47 40t-79.5 13.5q-113 0 -198.5 -100
t-119.5 -254l-12 -60h555l151 31h29l-192 -909q-13 -61 5.5 -90t80.5 -41l-7 -29h-497l6 29q69 12 100 40.5t45 90.5l146 690q17 73 -7 102t-89 29h-338l-174 -825q-13 -62 18 -87.5t135 -39.5l-6 -29h-582z" />
    <glyph glyph-name="f_l" unicode="fl" horiz-adv-x="1386" 
d="M143 981l13 57h174l2 9q25 118 86 209t142.5 145t172 81t185.5 27q94 0 166.5 -25t109.5 -71l192 66h29l-278 -1319q-14 -62 5.5 -90.5t82.5 -40.5l-6 -29h-500l6 29q69 12 101 41t44 90l215 1011q28 128 -9 204.5t-150 76.5q-127 0 -205 -96t-111 -248l-14 -70h297
l-12 -57h-297l-176 -825q-13 -62 18 -87.5t135 -39.5l-6 -29h-582l7 29q78 14 114 40.5t47 86.5l176 825h-174z" />
    <glyph glyph-name=".notdef" horiz-adv-x="2314" 
d="M158 633q0 202 78 388.5t210 323.5t314.5 222t384.5 92v-2048q-202 7 -385 90.5t-315 220t-209.5 322.5t-77.5 389zM1219 -383v2034q83 -28 153 -172t111 -368.5t41 -477.5t-41 -477t-111 -367t-153 -172zM1374 -350q103 134 164 398t61 585t-61 585.5t-164 401.5
q146 -62 262 -207.5t181 -349.5t65 -430q0 -344 -142 -617t-366 -366zM1583 -307q172 150 273.5 400t101.5 540q0 289 -101.5 541t-273.5 401q281 -119 452 -376t171 -566q0 -310 -171 -566t-452 -374z" />
    <glyph glyph-name=".null" horiz-adv-x="0" 
 />
    <glyph glyph-name="nonmarkingreturn" horiz-adv-x="682" 
 />
    <glyph glyph-name="CR" unicode="&#xd;" horiz-adv-x="1228" 
 />
    <glyph glyph-name="space" unicode=" " horiz-adv-x="419" 
 />
    <glyph glyph-name="exclam" unicode="!" horiz-adv-x="509" 
d="M459 1481q72 0 92.5 -55.5t-16.5 -153.5l-289 -873h-29l78 873q4 98 48 153.5t116 55.5zM27 127q6 65 56 110.5t116 45.5q68 0 108.5 -45.5t32.5 -110.5q-7 -66 -58 -111t-116 -45q-66 0 -107 45t-32 111z" />
    <glyph glyph-name="quotedbl" unicode="&#x22;" horiz-adv-x="778" 
d="M635 1399q-11 82 28.5 138t114.5 56q76 0 102.5 -57.5t-16.5 -136.5l-182 -385h-29zM287 1399q-11 82 28.5 138t114.5 56q76 0 102.5 -57.5t-16.5 -136.5l-182 -385h-29z" />
    <glyph glyph-name="numbersign" unicode="#" horiz-adv-x="1284" 
d="M1133 535l-13 -58h-303l-235 -477h-64l236 477h-381l-236 -477h-63l235 477h-243l12 58h260l188 385h-284l12 57h301l233 473h64l-234 -473h381l234 473h63l-233 -473h246l-13 -57h-262l-188 -385h287zM401 535h381l189 385h-381z" />
    <glyph glyph-name="dollar" unicode="$" horiz-adv-x="1249" 
d="M836 1665h57l-41 -188q64 -7 121 -25.5t83.5 -32.5t52 -18t43 14t40.5 66h29l-25 -449h-29q-29 164 -115 263.5t-212 121.5l-111 -528q149 -72 169 -83q150 -83 202 -190q55 -112 20 -274q-35 -167 -189.5 -270t-369.5 -103h-29l-57 -274h-57l59 278q-63 7 -118.5 24.5
t-85.5 34t-57 28.5t-43.5 9t-35 -26t-41.5 -74h-28l28 500h29q47 -202 136 -308t228 -128l123 579q-144 71 -159 79q-140 78 -188 178q-51 109 -17 268q31 151 175 247.5t349 96.5h25zM506 1212q-6 -40 -7.5 -71t10 -60t25.5 -50.5t38 -43t48 -38t56 -34.5l108 508h-12
q-101 0 -172.5 -57.5t-93.5 -153.5zM547 29h14q103 0 180.5 62t100.5 167q7 46 8.5 81.5t-10.5 68t-27 56.5t-40 47t-50.5 40t-58.5 35z" />
    <glyph glyph-name="percent" unicode="%" horiz-adv-x="1869" 
d="M633 1481q89 0 151.5 -37t91 -99.5t36 -145t-14.5 -173.5q-19 -92 -59 -172.5t-96.5 -144t-134.5 -100t-167 -36.5q-90 0 -153.5 37t-92.5 99.5t-36.5 144.5t14.5 172q20 92 59.5 172.5t96.5 144.5t136 101t169 37zM395 1094q-41 -186 -23 -336t93 -150q57 0 118 105
t91 248q41 187 24 336t-92 149q-58 0 -118.5 -104t-92.5 -248zM410 0l1063 1450h67l-1063 -1450h-67zM1057 422q19 92 59.5 173t97.5 144.5t136 100.5t168 37t151.5 -37t91 -99t36 -144.5t-14.5 -174.5q-25 -124 -85 -224.5t-157.5 -164.5t-214.5 -64q-72 0 -127 24.5
t-87.5 66.5t-51 99.5t-17 124t14.5 138.5zM1282 492q-42 -188 -23.5 -338t93.5 -150q57 0 117 104.5t92 249.5q41 186 23 336t-93 150q-58 0 -118.5 -104.5t-90.5 -247.5z" />
    <glyph glyph-name="ampersand" unicode="&#x26;" horiz-adv-x="1671" 
d="M1245 -23q-92 0 -163 31.5t-164 134.5q-120 -94 -221 -134t-222 -40q-220 0 -334.5 124.5t-70.5 326.5q27 132 139.5 224t284.5 128q-51 103 -65 188t5 185q28 142 163.5 239t315.5 97q164 0 246 -82t53 -217q-10 -45 -42 -96t-83 -101t-129 -90t-167 -57
q61 -102 151 -234q104 -151 166 -229q116 137 170 332q18 70 -8.5 98t-110.5 37l6 28h549l-6 -28q-99 -9 -169 -48.5t-122 -121.5q-87 -161 -276 -338q173 -213 260 -213q93 0 153 117l25 -9q-115 -252 -334 -252zM354 487q-36 -166 41.5 -283.5t235.5 -117.5q117 0 254 94
q-97 120 -199 273q-113 169 -170 278q-132 -99 -162 -244zM690 1229q-18 -84 0.5 -164t77.5 -188q108 45 176 128.5t88 176.5q23 106 -12.5 173.5t-116.5 67.5q-74 0 -134 -53.5t-79 -140.5z" />
    <glyph glyph-name="quotesingle" unicode="'" horiz-adv-x="430" 
d="M287 1399q-11 82 28.5 138t114.5 56q76 0 102.5 -57.5t-16.5 -136.5l-182 -385h-29z" />
    <glyph glyph-name="parenleft" unicode="(" horiz-adv-x="753" 
d="M532 -338q-243 122 -357 372.5t-46 577.5q60 285 278.5 527.5t512.5 347.5l8 -23q-177 -100 -326.5 -343t-210.5 -533q-60 -293 -16 -539t174 -364z" />
    <glyph glyph-name="parenright" unicode=")" horiz-adv-x="755" 
d="M246 1487q243 -122 357 -372.5t46 -577.5q-40 -188 -152 -362.5t-278 -308.5t-360 -204l-9 23q177 100 326.5 343t210.5 533q60 293 16 539t-174 364z" />
    <glyph glyph-name="asterisk" unicode="*" horiz-adv-x="899" 
d="M735 819q-41 -23 -76 0.5t-45 83.5l-43 187l-139 -220q-29 -46 -69 -59.5t-68 12.5q-30 26 -18 66t59 69l215 148l-201 24q-57 5 -83.5 38t-4.5 75q19 38 60.5 44t76.5 -25l168 -132l-10 228q-3 50 21.5 83.5t68.5 33.5q46 0 62 -33.5t-9 -87.5l-104 -224l197 117
q41 28 74.5 34t53 -7.5t23.5 -44.5q6 -36 -24.5 -66t-83.5 -33l-238 -24l135 -139q44 -38 44 -80.5t-42 -67.5z" />
    <glyph glyph-name="plus" unicode="+" horiz-adv-x="1228" 
d="M209 627l12 53h402l86 403h55l-86 -403h403l-12 -53h-403l-86 -404h-56l86 404h-401z" />
    <glyph glyph-name="comma" unicode="," horiz-adv-x="475" 
d="M164 283q86 0 126 -58.5t19 -158.5q-30 -143 -139 -238.5t-266 -128.5l-2 22q91 41 163.5 109t92.5 150q-75 -26 -130 26t-38 135q11 60 58 101t116 41z" />
    <glyph glyph-name="hyphen" unicode="-" horiz-adv-x="716" 
d="M627 573l-13 -55h-512l13 55h512z" />
    <glyph glyph-name="period" unicode="." horiz-adv-x="454" 
d="M127 -29q-66 0 -107 45t-32 111q6 65 56 110.5t116 45.5q68 0 108.5 -45.5t32.5 -110.5q-7 -66 -58 -111t-116 -45z" />
    <glyph glyph-name="slash" unicode="/" horiz-adv-x="845" 
d="M-29 0h-71l1063 1450h71z" />
    <glyph glyph-name="zero" unicode="0" horiz-adv-x="1378" 
d="M881 1481q112 0 200 -40t142 -110.5t85 -167t29 -211t-26 -241.5q-45 -207 -143 -372.5t-248.5 -267.5t-327.5 -102q-95 0 -172.5 28t-132 78.5t-91 121t-52 156.5t-12.5 184t26 204q33 152 98 285t156 235t212.5 161t256.5 59zM469 829q-47 -240 -46.5 -418t51 -281
t142.5 -103q113 0 219.5 166t161.5 430q48 240 48 417.5t-51 280t-144 102.5q-111 0 -217.5 -166t-163.5 -428z" />
    <glyph glyph-name="one" unicode="1" horiz-adv-x="800" 
d="M-55 29q134 10 185.5 42t66.5 109l219 1028h-219l6 29q169 44 290 98t230 133h29l-275 -1288q-17 -77 16 -108.5t130 -42.5l-7 -29h-677z" />
    <glyph glyph-name="two" unicode="2" horiz-adv-x="1187" 
d="M717 1423q-146 0 -232 -86t-69 -215q7 -65 -24.5 -107.5t-86.5 -51.5q-71 -12 -107.5 31t-17.5 122q28 156 185 260.5t358 104.5q252 0 377 -116t86 -304q-21 -100 -77 -181.5t-132.5 -138t-166 -103.5t-186 -87.5t-184 -80t-168 -92t-129.5 -112.5h586q112 0 199.5 51
t148.5 185l29 -2l-168 -500h-969l15 49q36 131 101.5 237.5t143 177t164.5 131.5t170.5 115t155 111.5t125 137.5t74.5 178q26 124 -29.5 205t-171.5 81z" />
    <glyph glyph-name="three" unicode="3" horiz-adv-x="1185" 
d="M440 -31q-171 0 -293 82t-139 215q-10 63 20.5 122t92.5 75q54 13 90.5 -1t47 -58.5t-25.5 -124.5q-8 -32 -9.5 -66t13.5 -67.5t39 -60t67 -42.5t97 -16q115 0 209.5 86t126.5 241q36 175 -61 266.5t-305 88.5l8 49q190 33 319 136t162 259q26 121 -19 195.5t-145 74.5
q-131 0 -212 -89.5t-79 -209.5q4 -65 -28.5 -105t-87.5 -46q-69 -9 -103.5 31.5t-19.5 109.5q14 68 64 135t121 118t162.5 82.5t182.5 31.5q229 0 343.5 -95.5t86.5 -250.5q-24 -132 -161.5 -233t-348.5 -134q212 -5 332 -123.5t80 -300.5q-23 -110 -112.5 -195.5
t-224.5 -132.5t-290 -47z" />
    <glyph glyph-name="four" unicode="4" horiz-adv-x="1277" 
d="M299 29q122 14 183 61.5t85 159.5l31 143h-584l6 29l861 1057h227l-209 -983h19q93 0 182 86.5t155 234.5h29l-143 -424h-262l-31 -143q-26 -118 1.5 -163.5t129.5 -57.5l-6 -29h-680zM147 496h474l165 784z" />
    <glyph glyph-name="five" unicode="5" horiz-adv-x="1157" 
d="M1196 1552l-31 -344h-737l-164 -479q183 180 383 180q102 0 186 -39t135.5 -107.5t72 -162t-4.5 -203.5q-42 -194 -206 -311t-408 -117q-144 0 -263 50.5t-147 140.5q-18 51 -0.5 98.5t60.5 71.5q55 29 106 -1t58 -110q13 -189 188 -192q116 -1 203 93.5t121 254.5
q35 167 -25 276t-191 109q-160 0 -305 -123l-45 27l269 786h553q116 0 163 102h29z" />
    <glyph glyph-name="six" unicode="6" horiz-adv-x="1263" 
d="M592 -31q-142 0 -244.5 54t-156.5 153.5t-65 241t30 315.5q79 345 293 546.5t487 201.5q176 0 290.5 -84.5t92.5 -220.5q-10 -48 -44.5 -79.5t-92.5 -31.5q-61 0 -96.5 41t-22.5 113q14 94 -23.5 150t-113.5 56q-83 0 -176.5 -88.5t-173.5 -244.5t-123 -340l-7 -25
q69 85 159 133.5t194 48.5q203 0 306 -137.5t60 -345.5q-43 -197 -198.5 -327t-374.5 -130zM436 664q-14 -88 -20 -173t0 -170.5t25.5 -149.5t60.5 -104t100 -40q89 0 170.5 103t112.5 251q35 168 -25.5 277.5t-189.5 109.5q-133 0 -234 -104z" />
    <glyph glyph-name="seven" unicode="7" horiz-adv-x="1107" 
d="M1278 1421q-374 -386 -554 -713.5t-230 -707.5h-312q51 312 245.5 589t600.5 619h-545q-101 0 -165.5 -48.5t-129.5 -164.5h-28l155 455h969z" />
    <glyph glyph-name="eight" unicode="8" horiz-adv-x="1292" 
d="M553 -31q-257 0 -397.5 108t-106.5 271q26 122 129.5 206t304.5 153q-35 21 -62.5 40t-56.5 44t-49.5 50t-37.5 56.5t-25 65t-8 75t10 86.5q32 151 183.5 254t369.5 103q116 0 210.5 -28t152 -74.5t82.5 -108.5t10 -129q-24 -112 -132 -191t-268 -116q38 -20 61 -32.5
t58 -34t56 -38t48 -41.5t42 -48t30 -54.5t20 -64t4.5 -72.5t-10.5 -84q-35 -169 -201 -282.5t-417 -113.5zM307 360q-32 -148 39 -240.5t207 -92.5q116 0 200.5 68t106.5 169q16 74 1.5 132t-71.5 109.5t-93.5 76t-128.5 75.5q-27 15 -40 23q-173 -93 -221 -320zM567 1223
q-8 -36 -8.5 -68t7 -59.5t19 -51t31 -45.5t39 -39.5t48 -36t52 -32t56.5 -31.5q163 73 203 266q28 135 -32.5 216t-174.5 81q-90 0 -155.5 -57t-84.5 -143z" />
    <glyph glyph-name="nine" unicode="9" horiz-adv-x="1265" 
d="M762 1481q142 0 244.5 -54t156.5 -153.5t65 -241t-30 -315.5q-79 -345 -293 -546.5t-487 -201.5q-176 0 -290.5 84.5t-92.5 220.5q10 48 44.5 79.5t92.5 31.5q61 0 96.5 -41t22.5 -113q-14 -94 23.5 -150t113.5 -56q83 0 176.5 88.5t173.5 244.5t123 340l6 25
q-147 -182 -352 -182q-203 0 -306.5 137.5t-60.5 345.5q43 197 199 327t375 130zM469 1069q-35 -168 25.5 -277.5t189.5 -109.5q133 0 234 104q14 88 20 173t0 170.5t-25.5 149.5t-60.5 104t-100 40q-89 0 -170.5 -103t-112.5 -251z" />
    <glyph glyph-name="colon" unicode=":" horiz-adv-x="454" 
d="M295 758q-67 0 -107.5 44.5t-31.5 110.5q6 65 56 110.5t116 45.5q68 0 108.5 -45.5t32.5 -110.5q-7 -66 -58 -110.5t-116 -44.5zM-12 127q6 65 56 110.5t116 45.5q68 0 108.5 -45.5t32.5 -110.5q-7 -66 -58 -111t-116 -45q-66 0 -107 45t-32 111z" />
    <glyph glyph-name="semicolon" unicode=";" horiz-adv-x="475" 
d="M164 283q86 0 126 -58.5t19 -158.5q-30 -143 -139 -238.5t-266 -128.5l-2 22q91 41 163.5 109t92.5 150q-75 -26 -130 26t-38 135q11 60 58 101t116 41zM160 911q6 65 56 110.5t116 45.5q68 0 108.5 -45.5t32.5 -110.5q-7 -66 -58 -110.5t-116 -44.5q-67 0 -107.5 44.5
t-31.5 110.5z" />
    <glyph glyph-name="less" unicode="&#x3c;" horiz-adv-x="1161" 
d="M1073 1081l14 -53l-825 -379l662 -379l-33 -45l-684 396l14 67z" />
    <glyph glyph-name="equal" unicode="=" horiz-adv-x="1228" 
d="M244 797l10 53h860l-10 -53h-860zM174 467l10 53h860l-10 -53h-860z" />
    <glyph glyph-name="greater" unicode="&#x3e;" horiz-adv-x="1161" 
d="M295 1036l33 45l684 -395l-15 -68l-852 -393l-14 54l825 378z" />
    <glyph glyph-name="question" unicode="?" horiz-adv-x="1085" 
d="M457 383q6 83 28.5 153t54 120t69.5 94t77.5 86.5t74.5 87t64.5 105.5t44.5 132q25 113 -28.5 187.5t-159.5 74.5q-62 0 -116.5 -28.5t-89 -73t-53.5 -95.5t-17 -98q4 -64 -30 -103.5t-85 -47.5q-63 -11 -98 23t-23 104q15 91 92.5 178t196.5 143t243 56q237 0 347 -96
t75 -267q-15 -72 -55 -135.5t-92.5 -111.5t-113 -93t-121 -88t-112.5 -87.5t-91 -101t-54 -118.5h-28zM281 127q6 65 56 110.5t116 45.5q68 0 108.5 -45.5t32.5 -110.5q-7 -66 -58 -111t-116 -45q-66 0 -107 45t-32 111z" />
    <glyph glyph-name="at" unicode="@" horiz-adv-x="1851" 
d="M909 -324q-232 0 -414.5 88t-286.5 252.5t-104 378.5q0 176 67.5 330.5t184.5 264t282.5 172.5t354.5 63q178 0 322.5 -49.5t237 -135t142.5 -197.5t50 -239q0 -232 -139 -387.5t-338 -155.5q-116 0 -183 49t-67 138q-34 -83 -100.5 -135t-141.5 -52q-152 0 -221 116.5
t-31 307.5q35 171 163.5 281.5t295.5 110.5q56 0 105 -21.5t75 -58.5l148 80h28l-122 -603q-16 -78 2.5 -123t72.5 -45q106 0 189.5 147.5t83.5 350.5q0 255 -147.5 409t-424.5 154q-201 0 -363.5 -100t-254.5 -277t-92 -395q0 -146 48.5 -269.5t134 -207.5t203.5 -131
t255 -47q280 0 510 149l18 -26q-113 -86 -254 -136.5t-289 -50.5zM743 514q-34 -146 -3 -245t126 -99q43 0 83 29.5t63 76.5l73 355q13 85 -13.5 142.5t-90.5 57.5q-77 0 -143.5 -90.5t-94.5 -226.5z" />
    <glyph glyph-name="A" unicode="A" horiz-adv-x="1581" 
d="M1266 260q28 -123 74 -176t126 -55l-6 -29h-651l6 29q118 1 157.5 50t14.5 165l-47 223h-559l-143 -223q-72 -116 -51.5 -164.5t139.5 -50.5l-7 -29h-419l6 29q73 1 137.5 54.5t142.5 176.5l781 1221h28zM418 524h510l-129 606z" />
    <glyph glyph-name="B" unicode="B" horiz-adv-x="1449" 
d="M-33 29q108 12 154 44.5t61 106.5l232 1090q17 74 -15 106.5t-135 44.5l6 29l670 2q234 0 358.5 -108.5t87.5 -280.5q-26 -119 -137 -197.5t-272 -95.5q197 -19 295 -128.5t63 -274.5q-36 -166 -186 -266.5t-379 -100.5l-809 -2zM463 172q-11 -53 20 -84t109 -31h78
q139 0 242 91.5t135 242.5q32 152 -41 244t-224 92h-200zM594 784h164q126 0 218 80t124 223q28 137 -36 222.5t-196 85.5h-145z" />
    <glyph glyph-name="C" unicode="C" horiz-adv-x="1447" 
d="M1468 1481l-38 -445h-29q-19 181 -118 284t-259 103q-192 0 -347.5 -164.5t-211.5 -441.5q-21 -116 -19 -218.5t33 -188.5t81.5 -148t126 -96.5t167.5 -34.5q152 0 272 93.5t201 267.5l31 -7q-77 -238 -254 -377t-408 -139q-140 0 -256.5 60t-188 164.5t-100 246.5
t6.5 305q32 154 111 289.5t191 234t259 155.5t307 57q63 0 120.5 -11.5t91.5 -25.5t66 -24.5t52.5 -11.5t41.5 16t42 57h28z" />
    <glyph glyph-name="D" unicode="D" horiz-adv-x="1603" 
d="M899 1450q182 0 317.5 -48t219 -142.5t109 -235.5t-12.5 -328q-67 -316 -303 -506t-586 -190h-682l6 29q108 12 154 44.5t61 106.5l232 1090q17 74 -15 106.5t-135 44.5l6 29h629zM463 182q-24 -125 96 -125h72q205 0 377 185t235 471q65 313 -45 496.5t-346 183.5h-131z
" />
    <glyph glyph-name="E" unicode="E" horiz-adv-x="1292" 
d="M1178 397h28l-135 -397h-1110l6 29q108 12 154 44.5t61 106.5l232 1090q17 74 -15 106.5t-135 44.5l6 29h914q113 0 135 31h29l-23 -428h-29q-6 182 -80.5 261t-240.5 79h-254l-133 -621h211q183 0 213 217h28l-43 -489h-28q3 215 -168 215h-226l-112 -535
q-14 -67 6.5 -95t87.5 -28h162q161 0 270.5 81t188.5 259z" />
    <glyph glyph-name="F" unicode="F" horiz-adv-x="1261" 
d="M1348 1481l-23 -428h-29q-8 182 -82 261t-239 79h-254l-133 -621h211q183 0 213 217h28l-43 -489h-28q3 215 -168 215h-226l-112 -535q-18 -75 24.5 -107t186.5 -44l-6 -29h-707l6 29q108 12 154 44.5t61 106.5l232 1090q17 74 -15 106.5t-135 44.5l6 29h914
q111 0 135 31h29z" />
    <glyph glyph-name="G" unicode="G" horiz-adv-x="1546" 
d="M707 -31q-195 0 -336 103.5t-197.5 285t-11.5 400.5q30 148 113 281t199 230.5t264 154.5t302 57q61 0 118 -11.5t91 -25.5t66 -25t53 -12t42.5 16.5t41.5 57.5h27l-39 -445h-29q-63 387 -385 387q-181 0 -343.5 -175.5t-217.5 -442.5q-43 -233 -18.5 -404t112 -268.5
t217.5 -97.5q129 0 203 69l88 404q19 89 -17.5 138.5t-125.5 53.5l6 31h641l-8 -31q-179 -12 -217 -192l-58 -258q-106 -127 -260 -204t-321 -77z" />
    <glyph glyph-name="H" unicode="H" horiz-adv-x="1693" 
d="M1167 1421l7 29h645l-7 -29q-107 -12 -153.5 -44.5t-61.5 -106.5l-231 -1090q-17 -73 15.5 -106t134.5 -45l-7 -29h-645l6 29q108 12 154 44.5t61 106.5l115 535h-625l-112 -535q-17 -73 15.5 -106t133.5 -45l-6 -29h-645l6 29q108 12 154 44.5t61 106.5l232 1090
q17 74 -15 106.5t-135 44.5l6 29h645l-6 -29q-107 -12 -153.5 -44.5t-61.5 -106.5l-106 -498h624l105 498q17 74 -15 106.5t-135 44.5z" />
    <glyph glyph-name="I" unicode="I" horiz-adv-x="790" 
d="M463 180q-17 -73 15.5 -106t133.5 -45l-6 -29h-645l6 29q108 12 154 44.5t61 106.5l232 1090q17 74 -15 106.5t-135 44.5l6 29h645l-6 -29q-107 -12 -153.5 -44.5t-61.5 -106.5z" />
    <glyph glyph-name="J" unicode="J" horiz-adv-x="1163" 
d="M356 -31q-78 0 -149 21t-125 59t-79.5 99.5t-10.5 136.5q14 62 54 99.5t97 37.5q62 0 92 -37.5t17 -101.5q-3 -18 -15.5 -51.5t-15.5 -49.5q-13 -67 32.5 -110t125.5 -43q176 0 237 284l201 957q17 74 -15 106.5t-134 44.5l6 29h645l-6 -29q-107 -12 -153.5 -44.5
t-61.5 -106.5l-183 -862q-45 -212 -192 -325.5t-367 -113.5z" />
    <glyph glyph-name="K" unicode="K" horiz-adv-x="1566" 
d="M-33 29q108 12 154 44.5t61 106.5l232 1090q17 74 -15 106.5t-135 44.5l6 29h645l-6 -29q-107 -12 -153.5 -44.5t-61.5 -106.5l-119 -563l695 583q66 54 50 89.5t-118 39.5l6 31h443l-6 -31q-68 -5 -152 -44t-162 -105l-348 -295l264 -768q24 -74 81.5 -122t125.5 -54
l-8 -31h-459q13 56 -18 166l-209 629l-203 -174l-94 -441q-17 -73 15.5 -106t133.5 -45l-6 -29h-645z" />
    <glyph glyph-name="L" unicode="L" horiz-adv-x="1265" 
d="M1171 397h29l-137 -397h-1102l6 29q108 12 154 44.5t61 106.5l232 1090q17 74 -15 106.5t-135 44.5l6 29h645l-6 -29q-107 -12 -153.5 -44.5t-61.5 -106.5l-231 -1090q-14 -67 6.5 -95t87.5 -28h154q162 0 270 80.5t190 259.5z" />
    <glyph glyph-name="M" unicode="M" horiz-adv-x="1955" 
d="M938 342l741 1108l404 -2l-6 -29q-109 -12 -155.5 -44t-61.5 -107l-232 -1090q-15 -74 16.5 -106t135.5 -45l-6 -29h-648l7 29q108 13 154 45t63 106l213 1004l-793 -1182h-27l-290 1184l-213 -1004q-15 -74 16 -106.5t133 -44.5l-6 -29h-422l6 29q108 12 154 44.5
t61 106.5l232 1090q17 75 -15 108t-133 43l6 29h398z" />
    <glyph glyph-name="N" unicode="N" horiz-adv-x="1517" 
d="M1217 1421l6 29h422l-7 -29q-107 -12 -153.5 -44.5t-61.5 -106.5l-270 -1270h-39l-653 1217l-221 -1037q-15 -74 16 -106.5t133 -44.5l-6 -29h-422l6 29q108 12 154 44.5t61 106.5l232 1090q17 75 -14.5 108t-133.5 43l6 29h375l539 -1028l180 848q15 74 -16 106.5
t-133 44.5z" />
    <glyph glyph-name="O" unicode="O" horiz-adv-x="1671" 
d="M768 -31q-163 0 -293.5 57t-210 159.5t-111 244.5t4.5 311q41 208 163.5 377.5t298 266t369.5 96.5q163 0 294 -57t211 -159t112 -243.5t-4 -310.5q-41 -208 -163.5 -378t-299.5 -267t-371 -97zM473 764q-22 -117 -23.5 -226.5t19.5 -202t60.5 -162t103 -108.5t143.5 -38
q177 3 315.5 184.5t194.5 474.5q22 116 23.5 225.5t-19.5 202t-61 162t-103.5 109t-144.5 38.5q-177 0 -314.5 -181.5t-193.5 -477.5z" />
    <glyph glyph-name="P" unicode="P" horiz-adv-x="1347" 
d="M889 1450q275 0 409.5 -112.5t90.5 -317.5q-37 -180 -211 -286.5t-443 -106.5h-178l-92 -437q-18 -86 14 -118t133 -43l-6 -29h-645l6 29q108 11 154 43.5t63 117.5l230 1072q17 83 -15 115.5t-135 43.5l6 29h619zM569 684h113q164 0 274.5 100.5t141.5 247.5
q33 158 -42 259.5t-247 101.5h-88z" />
    <glyph glyph-name="Q" unicode="Q" horiz-adv-x="1671" 
d="M1223 -352q-98 -39 -202 -47.5t-197 15t-167 73.5t-117 134.5t-42 190.5h6q-208 77 -303 272t-43 455q41 208 163.5 377.5t298 266t369.5 96.5q163 0 294 -57t211 -159t112 -243.5t-4 -310.5q-41 -208 -163.5 -378t-299.5 -267t-371 -97h-4q7 -75 37 -131.5t73.5 -89
t102.5 -51t117.5 -23t126.5 -0.5zM473 764q-22 -117 -23.5 -226.5t19.5 -202t60.5 -162t103 -108.5t143.5 -38q177 3 315.5 184.5t194.5 474.5q22 116 23.5 225.5t-19.5 202t-61 162t-103.5 109t-144.5 38.5q-177 0 -314.5 -181.5t-193.5 -477.5z" />
    <glyph glyph-name="R" unicode="R" horiz-adv-x="1527" 
d="M-33 29q108 11 154 43.5t63 117.5l230 1072q17 83 -15 115.5t-135 43.5l6 29h627q273 0 405 -113.5t89 -316.5q-30 -139 -137.5 -231.5t-278.5 -131.5l225 -483q25 -56 74 -90.5t137 -54.5l-6 -29h-473q12 63 -12 121l-220 506h-143l-92 -437q-18 -86 14 -118t133 -43
l-6 -29h-645zM569 684h105q168 0 279 96.5t145 251.5q32 158 -39.5 259.5t-241.5 101.5h-96z" />
    <glyph glyph-name="S" unicode="S" horiz-adv-x="1249" 
d="M561 -31q-82 0 -152 15.5t-108 34.5t-70 34.5t-51 16t-39 -22t-45 -78.5h-28l28 500h29q54 -226 160.5 -333t275.5 -107q103 0 180.5 62t100.5 167q10 56 7 100t-21.5 79.5t-44.5 63.5t-62.5 51.5t-74.5 43.5t-81 40q-42 19 -63.5 30t-59.5 32t-58 36.5t-50 42
t-44.5 50.5t-30.5 58.5t-20.5 70.5t-3 82.5t12.5 98.5q31 151 175 247.5t349 96.5q74 0 137 -12.5t97.5 -27.5t64 -27.5t47 -12.5t35.5 18t39 62h29l-25 -449h-29q-33 186 -138 288.5t-257 102.5q-101 0 -172.5 -57.5t-93.5 -153.5q-14 -62 -2.5 -112.5t42.5 -85t75.5 -66
t97 -54.5t107.5 -51.5t106.5 -57t94 -70.5t70 -92t35 -121.5t-11.5 -159.5q-35 -167 -189.5 -270t-369.5 -103z" />
    <glyph glyph-name="T" unicode="T" horiz-adv-x="1308" 
d="M1395 1481h28l-22 -428h-29q-3 340 -299 340h-94l-256 -1213q-15 -69 13 -103.5t134 -45.5l-8 -31h-639l8 31q75 8 119.5 28t63 47.5t28.5 73.5l258 1213h-94q-146 0 -254 -82.5t-190 -257.5h-29l160 428h29q13 -31 122 -31h816q113 0 135 31z" />
    <glyph glyph-name="U" unicode="U" horiz-adv-x="1536" 
d="M1264 1421l6 29h424l-6 -29q-108 -12 -154 -44.5t-61 -106.5l-164 -766q-51 -245 -206 -390t-372 -145q-292 0 -428.5 140.5t-81.5 394.5l162 766q17 74 -15 106.5t-135 44.5l7 29h645l-6 -29q-107 -12 -153.5 -44.5t-61.5 -106.5l-162 -766q-44 -205 34 -331t248 -126
q171 0 297.5 125t169.5 332l164 766q15 74 -17 106.5t-134 44.5z" />
    <glyph glyph-name="V" unicode="V" horiz-adv-x="1581" 
d="M1343 1421l7 29h419l-6 -29q-72 -1 -136 -54.5t-144 -176.5l-781 -1221h-28l-271 1221q-28 123 -74 176t-126 55l6 29h649l-6 -29q-119 -2 -157.5 -51t-12.5 -164l188 -884l562 884q73 116 52.5 164.5t-141.5 50.5z" />
    <glyph glyph-name="W" unicode="W" horiz-adv-x="2252" 
d="M383 1190q-22 115 -62 172t-118 57l6 31h629l-7 -31q-105 0 -137.5 -51t-11.5 -162l137 -833l400 686l-31 153q-22 101 -62.5 154t-113.5 53l6 31h631l-7 -31q-107 0 -139 -51t-14 -162l139 -833l496 833q68 110 53 161.5t-123 51.5l6 31h381l-6 -31q-65 0 -126 -53.5
t-134 -175.5l-733 -1221h-27l-180 1010l-602 -1010h-27z" />
    <glyph glyph-name="X" unicode="X" horiz-adv-x="1519" 
d="M268 180q-60 -60 -40.5 -99.5t120.5 -51.5l-6 -29h-444l6 29q100 11 158 46.5t133 112.5l491 512l-229 551q-34 87 -74 123t-137 47l6 29h682l-6 -29q-112 -12 -161.5 -50t-23.5 -101l160 -385l365 385q121 128 -78 151l6 29h442l-6 -29q-70 -8 -122.5 -30t-85.5 -49.5
t-83 -79.5l-415 -433l262 -630q19 -44 32.5 -67.5t37 -47.5t57.5 -36.5t84 -18.5l-6 -29h-680l6 29q110 12 159 51t23 100l-192 463z" />
    <glyph glyph-name="Y" unicode="Y" horiz-adv-x="1480" 
d="M1227 1450h436l-6 -29q-108 -12 -175 -48.5t-118 -110.5l-440 -623l-97 -457q-15 -69 13.5 -103.5t132.5 -47.5l-6 -31h-639l8 31q75 9 119.5 29.5t63 48t28.5 73.5l86 406l-232 663q-15 45 -27 70t-33.5 48t-54.5 34.5t-85 17.5l6 29h659l-6 -29q-110 -12 -153.5 -49
t-20.5 -102l201 -590l416 590q51 67 34 103t-116 48z" />
    <glyph glyph-name="Z" unicode="Z" horiz-adv-x="1275" 
d="M1407 1450l-6 -31l-1088 -1362h373q165 0 273.5 79t193.5 261h29l-160 -428h-29q-11 31 -123 31h-929l6 31l1085 1362h-309q-165 0 -273.5 -79t-193.5 -261h-29l160 428h29q11 -31 123 -31h868z" />
    <glyph glyph-name="bracketleft" unicode="[" horiz-adv-x="559" 
d="M-113 -348l389 1825h447l-6 -27h-203l-377 -1772h203l-4 -26h-449z" />
    <glyph glyph-name="backslash" unicode="\" horiz-adv-x="833" 
d="M653 0l-444 1450h59l445 -1450h-60z" />
    <glyph glyph-name="bracketright" unicode="]" horiz-adv-x="559" 
d="M305 -348h-448l6 26h203l376 1772h-202l6 27h446z" />
    <glyph glyph-name="asciicircum" unicode="^" horiz-adv-x="1116" 
d="M268 903l453 508h63l232 -508h-72l-199 451l-391 -451h-86z" />
    <glyph glyph-name="underscore" unicode="_" horiz-adv-x="907" 
d="M682 -66l-12 -57h-703l10 57h705z" />
    <glyph glyph-name="grave" unicode="`" horiz-adv-x="847" 
d="M750 1157l-334 352h305l57 -352h-28z" />
    <glyph glyph-name="a" unicode="a" horiz-adv-x="1161" 
d="M291 -31q-128 0 -198 85.5t-44 213.5q62 284 522 328l144 14l22 109q28 134 -7.5 213.5t-133.5 79.5q-103 0 -155.5 -62t-49.5 -143q3 -70 -28.5 -110.5t-86.5 -49.5q-62 -12 -98 26t-18 109q11 50 47 99t94 92t146.5 69.5t191.5 26.5q200 0 296.5 -102.5t61.5 -272.5
l-108 -510q-9 -43 2.5 -67.5t40.5 -24.5q46 0 100 74l25 -10q-36 -58 -76 -98t-77 -57.5t-64.5 -24.5t-53.5 -7q-66 0 -119 46.5t-49 127.5l13 62q-129 -236 -340 -236zM324 307q-15 -79 18.5 -129.5t103.5 -50.5q105 0 193 129l63 295l-120 -14q-214 -30 -258 -230z" />
    <glyph glyph-name="b" unicode="b" horiz-adv-x="1214" 
d="M825 1069q198 0 283.5 -162.5t28.5 -423.5q-50 -235 -212.5 -374.5t-389.5 -139.5q-84 0 -160.5 30.5t-114.5 80.5l-199 -111h-28l264 1248q16 73 -8 98.5t-88 19.5l6 29l385 117h29l-138 -645q49 101 142.5 167t199.5 66zM371 307q-22 -117 15.5 -198.5t129.5 -81.5
q110 0 205 124.5t137 317.5q19 96 19 177t-20 144t-66 98.5t-115 35.5q-61 0 -117.5 -42t-87.5 -108z" />
    <glyph glyph-name="c" unicode="c" horiz-adv-x="1060" 
d="M985 700q-17 148 -88 230t-176 82q-123 0 -225.5 -114t-139.5 -292q-22 -94 -11.5 -179.5t43.5 -149.5t96 -102t145 -38q97 0 178 53.5t133 153.5l27 -6q-61 -169 -181 -268t-292 -99q-147 0 -254 75t-151.5 213t-8.5 312q45 208 221.5 353t392.5 145q67 0 124 -13.5
t84 -27.5t50 -20.5t36.5 6.5t29.5 55h29l-33 -369h-29z" />
    <glyph glyph-name="d" unicode="d" horiz-adv-x="1267" 
d="M389 -31q-195 0 -281 164t-30 422q50 229 222 371.5t402 142.5q59 0 112 -19.5t87 -52.5l47 220q14 74 -9.5 99t-88.5 19l6 29l385 117h29l-275 -1297q-10 -42 1.5 -67t39.5 -25q49 0 103 74l24 -10q-36 -58 -76 -98t-77 -57.5t-64 -24.5t-53 -7q-69 0 -120.5 48
t-47.5 135l10 57q-47 -103 -142 -171.5t-204 -68.5zM358 571q-21 -93 -19 -176t21.5 -145t65.5 -98.5t113 -36.5q61 0 117 40.5t89 104.5l101 467q12 76 4 139.5t-47.5 104.5t-102.5 41q-111 0 -206.5 -124.5t-135.5 -316.5z" />
    <glyph glyph-name="e" unicode="e" horiz-adv-x="1083" 
d="M494 -31q-153 0 -261 78.5t-148.5 216.5t-4.5 309q45 209 219 351.5t395 142.5q214 0 297.5 -119.5t26.5 -324.5h-658q-21 -101 -11.5 -189.5t40.5 -154.5t93 -104t147 -38q89 0 172 55t133 146l27 -6q-63 -171 -179 -267t-288 -96zM373 674h399q20 82 18.5 156.5
t-36.5 127t-95 52.5q-100 0 -176 -94.5t-110 -241.5z" />
    <glyph glyph-name="f" unicode="f" horiz-adv-x="1030" 
d="M860 1507q83 0 155.5 -16.5t124.5 -58.5t48 -103q-1 -65 -43.5 -102t-104.5 -35q-52 1 -79 27.5t-33.5 64.5t-12 75.5t-25 64t-61.5 26.5q-52 0 -98.5 -50.5t-76.5 -124t-46 -159.5l-14 -78h285l-13 -57h-284l-176 -825q-14 -66 19.5 -90t133.5 -37l-6 -29h-582l6 29
q77 14 113 40.5t49 86.5l176 825h-172l13 57h172l16 72q27 102 81 180.5t124.5 124.5t149 69t161.5 23z" />
    <glyph glyph-name="g" unicode="g" horiz-adv-x="1134" 
d="M354 -434q-199 0 -306 52.5t-107 143.5q0 163 221 220q-70 24 -95.5 81.5t-11.5 131.5q14 70 70 127.5t147 93.5q-74 47 -107 123t-11 178q32 149 174 250.5t338 101.5q52 0 112 -2t98 -3.5t80.5 -2t68.5 1.5t52.5 7.5t42.5 16t28 27.5t19 41h25l-21 -186q-80 0 -294 47
q105 -44 143.5 -127t15.5 -187q-33 -150 -173.5 -250t-336.5 -100q-125 0 -221 45q-70 -39 -84 -98q-13 -69 47 -95t170 -1l82 18q163 32 273 10t159 -102t23 -203q-32 -158 -206 -259t-415 -101zM127 -219q14 -73 89 -115.5t196 -42.5q147 0 251.5 60t124.5 159
q22 99 -60.5 143t-229.5 15l-82 -18q-147 -26 -211 -11q-92 -95 -78 -190zM430 778q-21 -106 -14.5 -189.5t43.5 -134.5t96 -51q70 0 124.5 66.5t78.5 175.5q34 157 0.5 265t-119.5 108q-70 0 -128 -67t-81 -173z" />
    <glyph glyph-name="h" unicode="h" horiz-adv-x="1249" 
d="M-55 29q73 12 106 40.5t45 90.5l223 1057q17 73 -7 98.5t-89 19.5l6 29l385 117h29l-137 -645q109 113 202.5 172t188.5 59q146 0 208 -94.5t28 -253.5l-117 -559q-14 -62 6.5 -90.5t87.5 -40.5l-6 -29h-514l6 29q75 12 108.5 40.5t45.5 90.5l114 536q21 96 -16.5 148.5
t-112.5 52.5q-60 0 -113 -29t-130 -92l-130 -616q-14 -62 7 -90.5t88 -40.5l-6 -29h-512z" />
    <glyph glyph-name="i" unicode="i" horiz-adv-x="618" 
d="M362 160q-14 -62 7 -90.5t88 -40.5l-6 -29h-512l6 29q73 12 106 40.5t45 90.5l137 643q16 74 -8 100t-90 21l6 28l385 117h29zM293 1356q8 69 62.5 116.5t129.5 47.5t119.5 -47.5t36.5 -116.5q-9 -71 -64 -118.5t-128 -47.5q-75 0 -119.5 47.5t-36.5 118.5z" />
    <glyph glyph-name="j" unicode="j" horiz-adv-x="630" 
d="M571 1069h29l-203 -954q-23 -107 -59.5 -186.5t-102 -151.5t-169.5 -124.5t-250 -86.5l-4 24q56 22 94.5 46.5t79.5 70.5t71.5 123t53.5 188l168 785q16 74 -8.5 100t-90.5 21l6 28zM326 1356q8 69 62.5 116.5t129.5 47.5t119.5 -47.5t36.5 -116.5q-9 -71 -64.5 -118.5
t-128.5 -47.5q-75 0 -119 47.5t-36 118.5z" />
    <glyph glyph-name="k" unicode="k" horiz-adv-x="1220" 
d="M1288 1010q-84 -10 -151.5 -42.5t-173.5 -109.5l-154 -119l166 -579q20 -63 48.5 -93.5t82.5 -37.5l-6 -29h-406q15 48 -12 139l-121 420l-137 -106l-62 -293q-14 -62 7 -90.5t88 -40.5l-6 -29h-512l6 29q73 12 106 40.5t45 90.5l223 1057q17 73 -7 98.5t-89 19.5l6 29
l385 117h29l-203 -953l457 346q69 47 64 88.5t-87 47.5l7 28h413z" />
    <glyph glyph-name="l" unicode="l" horiz-adv-x="618" 
d="M362 160q-14 -62 7 -90.5t88 -40.5l-6 -29h-512l6 29q73 12 106 40.5t45 90.5l223 1057q17 73 -7 98.5t-89 19.5l6 29l385 117h29z" />
    <glyph glyph-name="m" unicode="m" horiz-adv-x="1906" 
d="M1671 160q-12 -62 8.5 -90.5t87.5 -40.5l-6 -29h-514l6 29q73 12 106.5 40.5t45.5 90.5l117 542q19 89 -17 142t-114 53q-60 0 -116 -29t-130 -92q-2 -16 -10 -57l-119 -559q-12 -62 8.5 -90.5t87.5 -40.5l-6 -29h-514l6 29q74 12 107 40.5t47 90.5l114 542
q19 89 -16 142t-113 53q-60 0 -115 -28.5t-128 -90.5l-132 -618q-14 -62 7 -90.5t88 -40.5l-6 -29h-512l6 29q73 12 106 40.5t45 90.5l137 643q16 74 -8 100t-90 21l6 28l385 117h29l-49 -233q220 231 391 231q124 0 189.5 -64.5t62.5 -179.5q233 244 403 244q149 0 210 -94
t28 -254z" />
    <glyph glyph-name="n" unicode="n" horiz-adv-x="1249" 
d="M-55 29q73 12 106 40.5t45 90.5l137 643q16 74 -8 100t-90 21l6 28l385 117h29l-49 -231q112 115 203 172t186 57q148 0 210 -95t28 -253l-117 -559q-14 -62 6.5 -90.5t87.5 -40.5l-6 -29h-514l6 29q75 12 108.5 40.5t45.5 90.5l114 536q20 93 -16 147t-115 54
q-58 0 -112 -28.5t-127 -90.5l-132 -618q-14 -62 7 -90.5t88 -40.5l-6 -29h-512z" />
    <glyph glyph-name="o" unicode="o" horiz-adv-x="1185" 
d="M506 -31q-110 0 -200.5 41t-149.5 115t-81.5 182t-0.5 236q40 226 210.5 376t393.5 150q111 0 201.5 -41t150 -114.5t82 -181.5t0.5 -236q-40 -226 -211.5 -376.5t-394.5 -150.5zM362 616q-21 -89 -24 -190t12.5 -191t60.5 -149t113 -59q100 0 177 100.5t120 286.5
q21 92 24 194.5t-12.5 193.5t-60.5 150.5t-113 59.5q-98 0 -176 -104t-121 -292z" />
    <glyph glyph-name="p" unicode="p" horiz-adv-x="1257" 
d="M-152 -375q77 14 113 40.5t47 86.5l225 1051q14 75 -10 100.5t-90 20.5l6 28l387 117h29l-49 -231q49 100 142.5 165.5t199.5 65.5q129 0 214 -75t109 -204t-10 -303q-51 -239 -213 -378.5t-391 -139.5q-62 0 -124 20t-95 52l-64 -289q-13 -62 19 -87.5t137 -39.5l-6 -28
h-582zM393 309q-25 -116 13.5 -199t132.5 -83q110 0 205 124t135 316q24 128 17.5 229.5t-58 164.5t-140.5 63q-60 0 -116.5 -41.5t-89.5 -106.5z" />
    <glyph glyph-name="q" unicode="q" horiz-adv-x="1196" 
d="M426 -375q110 14 153 39.5t56 87.5l94 451q-49 -102 -142 -168t-200 -66q-192 0 -278 166t-29 430q45 219 217.5 361.5t400.5 142.5q81 0 148 -29t106 -79l199 108h29l-281 -1317q-12 -61 13 -87t96 -40l-7 -28h-581zM358 580q-25 -131 -19 -234.5t57.5 -167t140.5 -63.5
q60 0 116.5 41.5t87.5 105.5l101 471q12 75 3.5 137t-48 102t-101.5 40q-109 0 -204 -123t-134 -309z" />
    <glyph glyph-name="r" unicode="r" horiz-adv-x="942" 
d="M862 1069q78 0 120.5 -39t25.5 -104q-13 -58 -51.5 -90.5t-86.5 -30.5q-29 1 -49 13.5t-29 26t-27.5 25t-45.5 11.5q-77 0 -153 -86t-103 -211l-92 -428q-12 -62 19.5 -87.5t135.5 -39.5l-6 -29h-581l6 29q76 14 112 40.5t49 86.5l138 647q16 74 -8.5 100t-90.5 21l7 28
l385 117h28l-65 -311q61 147 163.5 229t198.5 82z" />
    <glyph glyph-name="s" unicode="s" horiz-adv-x="950" 
d="M414 -31q-73 0 -135 17t-92 34.5t-56.5 25.5t-44 -8.5t-37.5 -68.5h-29l23 381h29q32 -152 120 -237.5t211 -85.5q78 0 133 39.5t70 105.5q12 56 -4 99.5t-52 71.5t-83.5 54.5t-99 48.5t-98.5 54t-80.5 70t-46.5 97t3 136q26 124 132 195t255 71q61 0 118 -17t88 -34
t58 -25t43.5 8.5t28.5 67.5h29l-20 -348h-29q-34 136 -114 213.5t-189 77.5q-69 0 -117.5 -36t-60.5 -95q-10 -45 2.5 -82t41.5 -61.5t68.5 -48t84 -42.5t88.5 -45t82 -55.5t63.5 -73.5t33.5 -99t-8 -132q-27 -129 -138.5 -201t-270.5 -72z" />
    <glyph glyph-name="t" unicode="t" horiz-adv-x="788" 
d="M827 981h-278l-146 -684q-20 -90 7 -146.5t102 -52.5q72 5 141 64l13 -15q-53 -69 -132.5 -123.5t-164.5 -54.5q-138 0 -201 87.5t-33 230.5l150 694h-162l6 29q155 45 275.5 127t189.5 192h29l-62 -291h279z" />
    <glyph glyph-name="u" unicode="u" horiz-adv-x="1286" 
d="M360 -29q-147 0 -208.5 95t-28.5 253l102 484q16 74 -8 100t-90 21l6 28l387 117h29l-156 -729q-20 -93 15 -146t114 -53q59 0 114.5 28.5t125.5 88.5l117 545q14 75 -10.5 100.5t-90.5 20.5l6 28l387 117h29l-188 -885q-9 -42 3 -67t40 -25q46 0 100 74l25 -10
q-35 -58 -75 -98t-77.5 -57.5t-64.5 -24.5t-52 -7q-70 0 -122 47.5t-46 135.5l9 51q-111 -116 -203.5 -174t-188.5 -58z" />
    <glyph glyph-name="v" unicode="v" horiz-adv-x="1110" 
d="M907 1010l6 28h299l-6 -28q-83 -15 -172 -150l-573 -891h-29l-201 891q-29 135 -116 150l6 28h524l-6 -28q-165 -18 -135 -150l112 -559l355 559q86 135 -64 150z" />
    <glyph glyph-name="w" unicode="w" horiz-adv-x="1738" 
d="M1540 1010l6 28h295l-6 -28q-46 -9 -84.5 -42.5t-81.5 -101.5l-571 -897h-29l-158 723l-465 -723h-24l-193 887q-32 139 -114 154l6 28h518l-6 -28q-77 -10 -111.5 -46.5t-25.5 -86.5l110 -572l291 457l-23 104q-27 128 -110 144l6 28h518l-6 -28q-77 -10 -111.5 -50.5
t-23.5 -93.5l108 -563l359 563q34 54 14.5 93t-88.5 51z" />
    <glyph glyph-name="x" unicode="x" horiz-adv-x="1173" 
d="M526 29q73 11 92.5 38t-4.5 66l-133 301l-270 -262q-38 -38 -53 -67t-1.5 -50t60.5 -26l-6 -29h-303l6 29q50 9 101.5 42.5t129.5 106.5l316 303l-185 416q-24 53 -54.5 79.5t-80.5 33.5l6 28h500l-6 -28q-49 -4 -73 -17.5t-25 -33.5t10 -46l117 -262l215 207
q32 30 50.5 56t22.5 46.5t-11.5 33.5t-49.5 16l6 28h301l-6 -28q-52 -7 -105 -42.5t-139 -115.5l-262 -252l203 -461q23 -53 54.5 -78.5t82.5 -31.5l-4 -29h-508z" />
    <glyph glyph-name="y" unicode="y" horiz-adv-x="1150" 
d="M16 -434q-91 0 -140 39.5t-36 105.5q12 59 58 100.5t104 41.5q35 0 98 -35t115 -35q54 0 99.5 34.5t91.5 108.5l32 49l-207 883q-34 137 -110 152l6 28h520l-6 -28q-165 -18 -135 -152l121 -588l379 588q85 134 -56 152l6 28h297l-6 -28q-90 -15 -178 -152l-614 -954
q-26 -43 -53.5 -81t-72 -87.5t-89.5 -85t-104.5 -60t-119.5 -24.5z" />
    <glyph glyph-name="z" unicode="z" horiz-adv-x="1044" 
d="M1090 1038l-7 -28l-780 -953h275q87 0 173.5 76t155.5 229h29l-113 -362h-880l6 29l780 952h-242q-188 0 -329 -272h-29l98 329h863z" />
    <glyph glyph-name="braceleft" unicode="{" horiz-adv-x="763" 
d="M102 575q97 18 141.5 70t67.5 158l82 385q60 289 527 289l-7 -27q-225 -21 -276 -254l-80 -383q-23 -110 -95.5 -160.5t-225.5 -85.5q139 -36 189.5 -87.5t25.5 -160.5l-82 -385q-48 -230 168 -251l-5 -27q-232 -2 -333.5 69t-69.5 218l80 385q25 102 2 155.5t-115 71.5z
" />
    <glyph glyph-name="bar" unicode="|" horiz-adv-x="225" 
d="M-121 -438l436 2056h62l-436 -2056h-62z" />
    <glyph glyph-name="braceright" unicode="}" horiz-adv-x="763" 
d="M682 555q-98 -18 -142 -69t-67 -158l-82 -385q-60 -290 -524 -287l4 27q225 21 276 251l80 385q25 110 97 161t227 87q-140 34 -190.5 85t-26.5 161l82 383q48 233 -168 254l6 27q231 0 332 -71.5t69 -217.5l-80 -385q-25 -101 -1 -155.5t114 -72.5z" />
    <glyph glyph-name="asciitilde" unicode="~" horiz-adv-x="1306" 
d="M229 731q144 125 281 125q56 0 112.5 -21.5t95 -47t90.5 -47t101 -21.5q61 0 116 25t122 81l33 -34q-144 -125 -281 -125q-56 0 -111.5 21.5t-94 47t-90.5 47t-101 21.5q-114 0 -238 -107z" />
    <glyph glyph-name="uni00A0" unicode="&#xa0;" horiz-adv-x="419" 
 />
    <glyph glyph-name="exclamdown" unicode="&#xa1;" horiz-adv-x="509" 
d="M45 -465q-72 0 -92.5 55.5t16.5 153.5l289 872h29l-78 -872q-4 -98 -48 -153.5t-116 -55.5zM164 889q7 66 58 110.5t116 44.5q67 0 107.5 -44.5t31.5 -110.5q-6 -65 -56 -110.5t-116 -45.5q-68 0 -108.5 45.5t-32.5 110.5z" />
    <glyph glyph-name="cent" unicode="&#xa2;" horiz-adv-x="1060" 
d="M985 700q-17 148 -88 230t-176 82q-123 0 -225.5 -114t-139.5 -292q-22 -94 -11.5 -179.5t43.5 -149.5t96 -102t145 -38q97 0 178 53.5t133 153.5l27 -6q-61 -169 -181 -268t-292 -99l-60 -276h-57l59 280q-201 22 -304 187t-52 409q43 201 211 344.5t377 153.5l51 238
h57l-51 -238q59 -3 110 -17.5t75 -27t45.5 -18t34 8.5t28.5 54h29l-33 -369h-29z" />
    <glyph glyph-name="sterling" unicode="&#xa3;" horiz-adv-x="1267" 
d="M752 -29q-76 0 -142.5 14.5t-109.5 34t-85 40t-79.5 32t-81.5 10t-102.5 -27t-133.5 -76.5l-18 31q101 86 170.5 167t104 147.5t52 133t15 123.5t-7.5 119h-240l12 57h220q-8 66 -11.5 100.5t-2 93.5t13.5 111q37 175 180 286.5t342 111.5q87 0 164 -16t137 -46.5t89 -82
t15 -117.5q-6 -33 -31 -62.5t-63 -40.5q-41 -12 -79.5 0t-55.5 41q-10 23 -16 56.5t-8.5 60t-12 55.5t-25 49t-48 32.5t-80.5 12.5q-116 0 -191 -76.5t-84 -193.5q-5 -51 23.5 -176t29.5 -199h398l-13 -57h-389q-28 -255 -356 -504q97 50 181.5 64t148 -1t116 -36.5
t111.5 -42.5t109 -21q67 0 130.5 35t102.5 104l18 -6q-54 -158 -162 -249t-255 -91z" />
    <glyph glyph-name="currency" unicode="&#xa4;" horiz-adv-x="1300" 
d="M561 20q-202 0 -315 132l-197 -166l-31 41l199 163q-83 135 -43 328q40 187 178 322l-125 159l41 37l123 -162q162 130 354 130q199 0 310 -127l194 163l31 -41l-197 -161q90 -137 47 -330q-40 -193 -184 -330l123 -155l-41 -37l-123 157q-155 -123 -344 -123zM229 512
q-38 -189 56 -313.5t276 -124.5t328 124.5t184 313.5q41 189 -52 313.5t-276 124.5q-182 0 -329 -124.5t-187 -313.5z" />
    <glyph glyph-name="yen" unicode="&#xa5;" horiz-adv-x="1480" 
d="M1210 606h-292l-37 -176h290l-10 -57h-293l-41 -191q-15 -69 13.5 -103.5t132.5 -47.5l-6 -31h-639l8 31q75 9 119.5 29.5t63 48t28.5 73.5l41 191h-289l12 57h289l33 158l-6 18h-279l12 58h246l-205 587q-15 45 -27 70t-33.5 48t-54.5 34.5t-85 17.5l6 29h659l-6 -29
q-110 -12 -153.5 -49t-20.5 -102l201 -590l416 590q51 67 34 103t-116 48l6 29h436l-6 -29q-108 -12 -175 -48.5t-118 -110.5l-424 -598h283z" />
    <glyph glyph-name="brokenbar" unicode="&#xa6;" horiz-adv-x="225" 
d="M113 369l-172 -807h-62l172 807h62zM143 811l172 807h62l-172 -807h-62z" />
    <glyph glyph-name="section" unicode="&#xa7;" horiz-adv-x="1067" 
d="M848 164q153 -88 153 -262q0 -154 -123.5 -247t-330.5 -93q-177 0 -307 97t-174 261l67 21q44 -143 156 -228.5t258 -85.5q169 0 272 75.5t103 199.5q0 32 -7.5 60.5t-18 51t-31.5 43.5t-38.5 36t-49.5 31t-53.5 25.5t-61 22.5t-61.5 19.5l-66 19.5q-58 17 -88 26.5
t-81.5 28.5t-80 35.5t-64.5 43.5t-54.5 56t-32 69t-13.5 87q0 75 45.5 144t128.5 120q-174 85 -174 258q0 140 118.5 231t301.5 91q164 0 279.5 -72.5t146.5 -195.5l-62 -23q-37 107 -133 166t-231 59q-153 0 -247.5 -70.5t-94.5 -185.5q0 -40 11.5 -73.5t28 -58.5t47.5 -47
t58 -36.5t72 -30.5t76 -24.5t83 -22.5q83 -23 126.5 -36.5t110.5 -44.5t101 -65t61 -90t27 -126q0 -153 -153 -260zM199 557q0 -40 11.5 -73.5t28.5 -58.5t49 -47.5t58 -36.5t72.5 -30.5t76 -25t83.5 -23.5q138 -37 198 -63q146 76 146 225q0 36 -8 67t-25.5 56t-36 45
t-51 38.5t-57 31t-67 27t-69 22.5t-73.5 22q-104 30 -162 53q-82 -31 -128 -91t-46 -138z" />
    <glyph glyph-name="dieresis" unicode="&#xa8;" horiz-adv-x="1142" 
d="M506 1188q-69 0 -104 42t-23 107q14 62 67.5 105t120.5 43t102 -43t23 -105q-13 -64 -66.5 -106.5t-119.5 -42.5zM801 1337q12 62 66.5 105t121.5 43q65 0 100 -43t23 -105q-13 -64 -66.5 -106.5t-119.5 -42.5q-68 0 -103 42.5t-22 106.5z" />
    <glyph glyph-name="copyright" unicode="&#xa9;" 
d="M926 322q-169 0 -274 111t-105 292t105 292t274 111q122 0 208 -63.5t117 -175.5l-69 -12q-23 91 -89.5 139.5t-166.5 48.5q-142 0 -225 -91.5t-83 -248.5t83 -248.5t225 -91.5q200 0 256 186l67 -10q-34 -113 -119.5 -176t-203.5 -63zM164 725q0 204 101.5 378
t275.5 276t377 102q153 0 293 -60.5t241.5 -162t162 -241.5t60.5 -292t-60.5 -292t-162 -241.5t-241.5 -162t-293 -60.5q-203 0 -377 102t-275.5 276t-101.5 378zM231 723q0 -187 92.5 -346t251.5 -251.5t345 -92.5q187 0 346.5 92.5t252.5 251.5t93 346q0 188 -93 348
t-252.5 253t-346.5 93q-186 0 -345 -93t-251.5 -253t-92.5 -348z" />
    <glyph glyph-name="ordfeminine" unicode="&#xaa;" horiz-adv-x="657" 
d="M301 874q-71 0 -109.5 47t-23.5 117q32 157 293 183l71 6l15 63q14 74 -3.5 116t-68.5 42q-53 0 -79.5 -33t-26.5 -78q1 -42 -18 -65.5t-52 -28.5q-39 -8 -59.5 15t-10.5 65q13 61 86.5 109.5t186.5 48.5q116 0 170.5 -56t34.5 -151l-58 -277q-5 -22 1.5 -36.5
t21.5 -14.5q29 0 57 43l12 -6q-64 -109 -157 -109q-38 0 -72 26t-31 71l4 28q-67 -125 -184 -125zM338 1063q-9 -41 8.5 -67.5t52.5 -26.5q50 0 93 59l34 166l-59 -6q-108 -15 -129 -125z" />
    <glyph glyph-name="guillemotleft" unicode="&#xab;" horiz-adv-x="1183" 
d="M457 78l-416 420l14 67l596 418l25 -29l-440 -424l260 -424zM547 498l16 67l594 418l25 -29l-441 -424l260 -424l-38 -28z" />
    <glyph glyph-name="logicalnot" unicode="&#xac;" horiz-adv-x="1228" 
d="M1085 719l-129 -610h-57l121 557h-805l10 53h860z" />
    <glyph glyph-name="uni00AD" unicode="&#xad;" horiz-adv-x="716" 
d="M627 573l-13 -55h-512l13 55h512z" />
    <glyph glyph-name="registered" unicode="&#xae;" horiz-adv-x="1079" 
d="M862 836h-55l-143 225h-113v-225h-45v473h160q67 0 106 -34.5t39 -90.5q0 -45 -26.5 -78t-71.5 -43zM225 1053q0 177 125.5 302.5t302.5 125.5t302.5 -125.5t125.5 -302.5q0 -175 -125.5 -300.5t-302.5 -125.5t-302.5 125.5t-125.5 300.5zM264 1053q0 -163 114 -278.5
t275 -115.5t276 115.5t115 278.5t-115 279t-276 116t-275 -116t-114 -279zM551 1104h108q105 0 105 80q0 38 -27 59t-78 21h-108v-160z" />
    <glyph glyph-name="macron" unicode="&#xaf;" horiz-adv-x="1013" 
d="M354 1219l13 57h602l-13 -57h-602z" />
    <glyph glyph-name="degree" unicode="&#xb0;" horiz-adv-x="567" 
d="M401 969q-92 0 -148 63t-44 152q12 92 79 154t158 63q94 1 151.5 -62.5t45.5 -154.5q-12 -93 -80.5 -154t-161.5 -61zM274 1184q-9 -63 28.5 -109.5t98.5 -46.5q66 0 117 45t60 111q9 63 -30 109t-102 46q-64 0 -113.5 -44.5t-58.5 -110.5z" />
    <glyph glyph-name="plusminus" unicode="&#xb1;" horiz-adv-x="1228" 
d="M231 741l13 54h403l86 403h53l-86 -403h404l-12 -54h-404l-86 -403h-53l86 403h-404zM74 -4l10 53h860l-10 -53h-860z" />
    <glyph glyph-name="uni00B2" unicode="&#xb2;" horiz-adv-x="743" 
d="M586 1688q-87 0 -138.5 -56.5t-46.5 -128.5q4 -43 -18 -71.5t-57 -36.5q-46 -11 -72.5 13t-17.5 75q15 96 120.5 167.5t231.5 71.5q159 0 238.5 -70t54.5 -186q-18 -83 -73.5 -141.5t-131 -92t-153 -60t-158 -63t-127.5 -83.5h364q62 0 121 32t94 109h17l-107 -333h-606
l6 30q24 87 64.5 155.5t87.5 111.5t99 78.5t102 65.5t92.5 62t74.5 79.5t45 107.5q15 73 -14.5 118.5t-91.5 45.5z" />
    <glyph glyph-name="uni00B3" unicode="&#xb3;" horiz-adv-x="741" 
d="M406 815q-100 0 -177 47.5t-90 128.5q-7 45 14 88t68 54q34 9 59.5 -2t33 -43t-20.5 -91q-17 -48 14.5 -97.5t102.5 -49.5q64 0 115.5 51.5t72.5 147.5q22 99 -33.5 152.5t-177.5 53.5l4 31q113 24 189 87.5t96 158.5q18 69 -7.5 112.5t-86.5 43.5q-78 0 -120 -53.5
t-40 -123.5q4 -47 -20.5 -76t-61.5 -34q-47 -9 -71 15t-15 75q18 93 116.5 162t225.5 69q144 0 216 -56.5t54 -147.5q-14 -82 -102 -144.5t-227 -79.5q143 -2 217.5 -66t50.5 -179q-14 -69 -71 -122.5t-142.5 -82.5t-185.5 -29z" />
    <glyph glyph-name="acute" unicode="&#xb4;" horiz-adv-x="847" 
d="M369 1157h-29l209 352h305z" />
    <glyph glyph-name="uni00B5" unicode="&#xb5;" horiz-adv-x="1091" 
d="M1012 1038h61l-223 -1038h-62l60 281q-79 -144 -204 -227t-261 -83q-105 0 -178 48.5t-90 132.5l-119 -558h-62l308 1444h61l-151 -714q-26 -124 44 -208t201 -83q114 1 219.5 65.5t180 173.5t102.5 240z" />
    <glyph glyph-name="paragraph" unicode="&#xb6;" horiz-adv-x="1048" 
d="M385 788q-134 2 -226.5 87t-92.5 206q0 122 94 206.5t229 84.5h594v-61h-141v-1749h-74v1749h-311v-1749h-72v1226z" />
    <glyph glyph-name="periodcentered" unicode="&#xb7;" horiz-adv-x="454" 
d="M258 584q-67 0 -107.5 44.5t-31.5 110.5q6 65 56 110.5t116 45.5q68 0 108.5 -45.5t32.5 -110.5q-7 -66 -58 -110.5t-116 -44.5z" />
    <glyph glyph-name="cedilla" unicode="&#xb8;" horiz-adv-x="759" 
d="M8 -410q89 -6 145 20.5t68 82.5q8 37 -23 64.5t-98 39.5l164 203h45l-96 -121q95 4 142.5 -36.5t33.5 -110.5q-23 -106 -129 -149.5t-258 -18.5z" />
    <glyph glyph-name="uni00B9" unicode="&#xb9;" horiz-adv-x="509" 
d="M100 850q59 6 91.5 18.5t42.5 27t16 40.5l129 614h-129l4 17q209 53 346 149h18l-165 -780q-8 -38 9.5 -57.5t76.5 -28.5l-4 -16h-439z" />
    <glyph glyph-name="ordmasculine" unicode="&#xba;" horiz-adv-x="665" 
d="M426 874q-129 0 -200.5 87.5t-45.5 230.5q21 123 116 206t224 83q130 0 201 -89t45 -235q-22 -121 -118.5 -202t-221.5 -81zM358 1241q-12 -51 -14.5 -108t4.5 -108.5t29.5 -85.5t58.5 -34q49 0 88 53.5t62 153.5q17 66 18 141.5t-22.5 135t-71.5 59.5q-49 0 -88 -54.5
t-64 -152.5z" />
    <glyph glyph-name="guillemotright" unicode="&#xbb;" horiz-adv-x="1183" 
d="M502 78l-29 28l442 424l-262 424l35 29l420 -418l-16 -67zM-33 106l443 424l-265 424l37 29l420 -418l-16 -67l-592 -420z" />
    <glyph glyph-name="onequarter" unicode="&#xbc;" horiz-adv-x="1615" 
d="M47 596q59 6 91.5 18.5t42.5 27t16 40.5l129 614h-129l4 17q209 53 346 149h18l-166 -780q-8 -38 9.5 -57.5t76.5 -28.5l-4 -16h-438zM256 0l1063 1450h67l-1062 -1450h-68zM791 236l4 18l503 633h172l-124 -586h14q46 0 103.5 57.5t97.5 143.5h18l-88 -266h-158l-18 -78
q-17 -66 -1 -99.5t79 -42.5l-4 -16h-433l5 16q69 11 104.5 42.5t48.5 99.5l16 78h-339zM872 301h273l98 467z" />
    <glyph glyph-name="onehalf" unicode="&#xbd;" horiz-adv-x="1673" 
d="M47 596q59 6 91.5 18.5t42.5 27t16 40.5l129 614h-129l4 17q209 53 346 149h18l-166 -780q-8 -38 9.5 -57.5t76.5 -28.5l-4 -16h-438zM256 0l1063 1450h67l-1062 -1450h-68zM872 0l7 31q24 87 64.5 155.5t87.5 111.5t99 78t102 65t92.5 62t74.5 79.5t45 107.5
q15 73 -15 118.5t-92 45.5q-87 0 -138 -56t-46 -128q4 -43 -18.5 -72t-57.5 -37q-46 -11 -72.5 13t-17.5 75q15 97 120.5 168.5t231.5 71.5q159 0 238.5 -70t54.5 -186q-18 -83 -73.5 -141.5t-131 -92t-153 -60t-158 -63t-127.5 -83.5h365q62 0 121 32t94 109h16l-106 -334
h-607z" />
    <glyph glyph-name="threequarters" unicode="&#xbe;" horiz-adv-x="1744" 
d="M352 561q-100 0 -176.5 47.5t-89.5 128.5q-7 45 14 88t68 54q34 9 59.5 -2t33 -43t-20.5 -91q-17 -49 14 -98t102 -49q64 0 116 51.5t73 147.5q22 99 -33.5 152.5t-177.5 53.5l4 31q113 24 189 87.5t96 158.5q17 68 -8.5 112t-86.5 44q-78 0 -119.5 -53.5t-39.5 -123.5
q4 -47 -20.5 -76t-61.5 -34q-47 -9 -71 15t-15 75q18 93 116.5 162t225.5 69q144 0 216 -56.5t54 -147.5q-14 -82 -102.5 -144.5t-227.5 -79.5q143 -2 218 -66t51 -179q-21 -104 -134 -169t-266 -65zM385 0l1063 1450h68l-1063 -1450h-68zM920 236l4 18l503 633h172
l-124 -586h14q46 0 103.5 57.5t97.5 143.5h18l-88 -266h-158l-18 -78q-17 -66 -1 -99.5t79 -42.5l-4 -16h-433l5 16q69 11 104.5 42.5t48.5 99.5l17 78h-340zM1001 301h273l98 467z" />
    <glyph glyph-name="questiondown" unicode="&#xbf;" horiz-adv-x="1085" 
d="M625 633q-6 -83 -28.5 -153t-54.5 -120t-69.5 -94t-77.5 -86.5t-75 -87t-64.5 -105.5t-44.5 -132q-25 -113 28.5 -188t159.5 -75q62 0 116.5 28.5t89 73t54 95.5t17.5 98q-4 64 30 104t85 48q63 11 97.5 -23t22.5 -104q-15 -91 -92.5 -178t-196.5 -143t-243 -56
q-237 0 -347 96t-75 267q15 72 55 135.5t92.5 111.5t113 93t121 88t112.5 87.5t91 101t54 118.5h29zM487 889q7 65 58.5 110t116.5 45q67 0 107.5 -44.5t31.5 -110.5q-6 -65 -56 -110.5t-116 -45.5q-68 0 -109 45.5t-33 110.5z" />
    <glyph glyph-name="Agrave" unicode="&#xc0;" horiz-adv-x="1581" 
d="M1266 260q28 -123 74 -176t126 -55l-6 -29h-651l6 29q118 1 157.5 50t14.5 165l-47 223h-559l-143 -223q-72 -116 -51.5 -164.5t139.5 -50.5l-7 -29h-419l6 29q73 1 137.5 54.5t142.5 176.5l781 1221h28zM418 524h510l-129 606zM688 1921h305l58 -352h-29z" />
    <glyph glyph-name="Aacute" unicode="&#xc1;" horiz-adv-x="1581" 
d="M1266 260q28 -123 74 -176t126 -55l-6 -29h-651l6 29q118 1 157.5 50t14.5 165l-47 223h-559l-143 -223q-72 -116 -51.5 -164.5t139.5 -50.5l-7 -29h-419l6 29q73 1 137.5 54.5t142.5 176.5l781 1221h28zM418 524h510l-129 606zM979 1569l209 352h305l-485 -352h-29z" />
    <glyph glyph-name="Acircumflex" unicode="&#xc2;" horiz-adv-x="1581" 
d="M1266 260q28 -123 74 -176t126 -55l-6 -29h-651l6 29q118 1 157.5 50t14.5 165l-47 223h-559l-143 -223q-72 -116 -51.5 -164.5t139.5 -50.5l-7 -29h-419l6 29q73 1 137.5 54.5t142.5 176.5l781 1221h28zM418 524h510l-129 606zM694 1585l269 338h217l137 -338l-23 -16
l-245 235l-338 -235z" />
    <glyph glyph-name="Atilde" unicode="&#xc3;" horiz-adv-x="1581" 
d="M1266 260q28 -123 74 -176t126 -55l-6 -29h-651l6 29q118 1 157.5 50t14.5 165l-47 223h-559l-143 -223q-72 -116 -51.5 -164.5t139.5 -50.5l-7 -29h-419l6 29q73 1 137.5 54.5t142.5 176.5l781 1221h28zM418 524h510l-129 606zM672 1577q32 143 86 220t145 77
q35 0 78.5 -17.5t78.5 -39t76 -39t72 -17.5q80 0 129 123l31 -4q-32 -142 -86 -218.5t-145 -76.5q-42 0 -100.5 28.5t-114.5 56.5t-91 28q-81 0 -129 -125z" />
    <glyph glyph-name="Adieresis" unicode="&#xc4;" horiz-adv-x="1581" 
d="M1266 260q28 -123 74 -176t126 -55l-6 -29h-651l6 29q118 1 157.5 50t14.5 165l-47 223h-559l-143 -223q-72 -116 -51.5 -164.5t139.5 -50.5l-7 -29h-419l6 29q73 1 137.5 54.5t142.5 176.5l781 1221h28zM418 524h510l-129 606zM664 1749q8 62 57.5 104.5t116.5 42.5
t106 -42.5t31 -104.5q-6 -64 -55 -107t-117 -43q-67 0 -107 42.5t-32 107.5zM1085 1749q8 62 56.5 104.5t115.5 42.5t107.5 -42.5t32.5 -104.5q-7 -64 -56.5 -107t-115.5 -43q-68 0 -107.5 43t-32.5 107z" />
    <glyph glyph-name="Aring" unicode="&#xc5;" horiz-adv-x="1581" 
d="M1266 260q28 -123 74 -176t126 -55l-6 -29h-651l6 29q118 1 157.5 50t14.5 165l-47 223h-559l-143 -223q-72 -116 -51.5 -164.5t139.5 -50.5l-7 -29h-419l6 29q73 1 137.5 54.5t142.5 176.5l781 1221h28zM418 524h510l-129 606zM809 1753q9 89 79 149t167 60
q96 0 153.5 -59.5t48.5 -149.5q-12 -89 -82 -148t-165 -59q-98 0 -155 59t-46 148zM905 1755q-9 -59 22.5 -96t86.5 -37q56 0 98 37t49 96q8 57 -23.5 94t-86.5 37q-56 0 -97.5 -37t-48.5 -94z" />
    <glyph glyph-name="AE" unicode="&#xc6;" horiz-adv-x="2074" 
d="M2103 1481h29l-23 -428h-28q-8 182 -83 261t-241 79h-254l-131 -621h211q91 0 143.5 53.5t69.5 163.5h29l-45 -489h-29q6 215 -166 215h-225l-115 -535q-14 -67 6.5 -95t87.5 -28h164q161 0 269 80.5t190 259.5h29l-136 -397h-1112l7 29q109 12 154.5 44t62.5 107l61 287
h-543l-190 -223q-93 -106 -86 -160t123 -55l-6 -29h-426l6 29q72 1 151.5 58t178.5 173l948 1114q-33 35 -137 47l6 29h915q111 0 135 31zM535 524h505l158 746l6 43z" />
    <glyph glyph-name="Ccedilla" unicode="&#xc7;" horiz-adv-x="1447" 
d="M1468 1481l-38 -445h-29q-19 181 -118 284t-259 103q-192 0 -347.5 -164.5t-211.5 -441.5q-21 -116 -19 -218.5t33 -188.5t81.5 -148t126 -96.5t167.5 -34.5q152 0 272 93.5t201 267.5l31 -7q-77 -238 -254 -377t-408 -139l-71 -90q95 4 142.5 -36.5t33.5 -110.5
q-23 -106 -129 -149.5t-258 -18.5l6 26q89 -6 145 20.5t68 82.5q8 37 -23 64.5t-98 39.5l139 174q-130 9 -237 72.5t-173 166.5t-91 240.5t8 294.5q32 154 111 289.5t191 234t259 155.5t307 57q63 0 120.5 -11.5t91.5 -25.5t66 -24.5t52.5 -11.5t41.5 16t42 57h28z" />
    <glyph glyph-name="Egrave" unicode="&#xc8;" horiz-adv-x="1292" 
d="M1178 397h28l-135 -397h-1110l6 29q108 12 154 44.5t61 106.5l232 1090q17 74 -15 106.5t-135 44.5l6 29h914q113 0 135 31h29l-23 -428h-29q-6 182 -80.5 261t-240.5 79h-254l-133 -621h211q183 0 213 217h28l-43 -489h-28q3 215 -168 215h-226l-112 -535
q-14 -67 6.5 -95t87.5 -28h162q161 0 270.5 81t188.5 259zM582 1921h305l57 -352h-29z" />
    <glyph glyph-name="Eacute" unicode="&#xc9;" horiz-adv-x="1292" 
d="M1178 397h28l-135 -397h-1110l6 29q108 12 154 44.5t61 106.5l232 1090q17 74 -15 106.5t-135 44.5l6 29h914q113 0 135 31h29l-23 -428h-29q-6 182 -80.5 261t-240.5 79h-254l-133 -621h211q183 0 213 217h28l-43 -489h-28q3 215 -168 215h-226l-112 -535
q-14 -67 6.5 -95t87.5 -28h162q161 0 270.5 81t188.5 259zM872 1569l209 352h305l-485 -352h-29z" />
    <glyph glyph-name="Ecircumflex" unicode="&#xca;" horiz-adv-x="1292" 
d="M1178 397h28l-135 -397h-1110l6 29q108 12 154 44.5t61 106.5l232 1090q17 74 -15 106.5t-135 44.5l6 29h914q113 0 135 31h29l-23 -428h-29q-6 182 -80.5 261t-240.5 79h-254l-133 -621h211q183 0 213 217h28l-43 -489h-28q3 215 -168 215h-226l-112 -535
q-14 -67 6.5 -95t87.5 -28h162q161 0 270.5 81t188.5 259zM588 1585l268 338h217l137 -338l-22 -16l-246 235l-338 -235z" />
    <glyph glyph-name="Edieresis" unicode="&#xcb;" horiz-adv-x="1292" 
d="M1178 397h28l-135 -397h-1110l6 29q108 12 154 44.5t61 106.5l232 1090q17 74 -15 106.5t-135 44.5l6 29h914q113 0 135 31h29l-23 -428h-29q-6 182 -80.5 261t-240.5 79h-254l-133 -621h211q183 0 213 217h28l-43 -489h-28q3 215 -168 215h-226l-112 -535
q-14 -67 6.5 -95t87.5 -28h162q161 0 270.5 81t188.5 259zM557 1749q8 62 57.5 104.5t116.5 42.5t106 -42.5t31 -104.5q-6 -64 -55 -107t-117 -43q-67 0 -107 42.5t-32 107.5zM979 1749q8 62 56.5 104.5t115.5 42.5t107 -42.5t32 -104.5q-7 -64 -56.5 -107t-115.5 -43
q-67 0 -107 42.5t-32 107.5z" />
    <glyph glyph-name="Igrave" unicode="&#xcc;" horiz-adv-x="790" 
d="M463 180q-17 -73 15.5 -106t133.5 -45l-6 -29h-645l6 29q108 12 154 44.5t61 106.5l232 1090q17 74 -15 106.5t-135 44.5l6 29h645l-6 -29q-107 -12 -153.5 -44.5t-61.5 -106.5zM315 1921h306l57 -352h-29z" />
    <glyph glyph-name="Iacute" unicode="&#xcd;" horiz-adv-x="790" 
d="M463 180q-17 -73 15.5 -106t133.5 -45l-6 -29h-645l6 29q108 12 154 44.5t61 106.5l232 1090q17 74 -15 106.5t-135 44.5l6 29h645l-6 -29q-107 -12 -153.5 -44.5t-61.5 -106.5zM606 1569l209 352h305l-485 -352h-29z" />
    <glyph glyph-name="Icircumflex" unicode="&#xce;" horiz-adv-x="790" 
d="M463 180q-17 -73 15.5 -106t133.5 -45l-6 -29h-645l6 29q108 12 154 44.5t61 106.5l232 1090q17 74 -15 106.5t-135 44.5l6 29h645l-6 -29q-107 -12 -153.5 -44.5t-61.5 -106.5zM322 1585l268 338h217l137 -338l-22 -16l-246 235l-338 -235z" />
    <glyph glyph-name="Idieresis" unicode="&#xcf;" horiz-adv-x="790" 
d="M463 180q-17 -73 15.5 -106t133.5 -45l-6 -29h-645l6 29q108 12 154 44.5t61 106.5l232 1090q17 74 -15 106.5t-135 44.5l6 29h645l-6 -29q-107 -12 -153.5 -44.5t-61.5 -106.5zM291 1749q8 62 57.5 104.5t116.5 42.5t106 -42.5t31 -104.5q-6 -64 -55 -107t-117 -43
q-67 0 -107 42.5t-32 107.5zM713 1749q8 62 56.5 104.5t115.5 42.5t107 -42.5t32 -104.5q-7 -64 -56.5 -107t-115.5 -43q-67 0 -107 42.5t-32 107.5z" />
    <glyph glyph-name="Eth" unicode="&#xd0;" horiz-adv-x="1603" 
d="M899 1450q182 0 317.5 -48t219 -142.5t109 -235.5t-12.5 -328q-67 -316 -303 -506t-586 -190h-682l6 29q108 12 154 44.5t61 106.5l111 516h-195l13 58h192l111 516q17 74 -15 106.5t-135 44.5l6 29h629zM463 182q-24 -125 96 -125h72q205 0 377 185t235 471
q65 313 -45 496.5t-346 183.5h-131l-137 -639h250l-13 -58h-248z" />
    <glyph glyph-name="Ntilde" unicode="&#xd1;" horiz-adv-x="1517" 
d="M1217 1421l6 29h422l-7 -29q-107 -12 -153.5 -44.5t-61.5 -106.5l-270 -1270h-39l-653 1217l-221 -1037q-15 -74 16 -106.5t133 -44.5l-6 -29h-422l6 29q108 12 154 44.5t61 106.5l232 1090q17 75 -14.5 108t-133.5 43l6 29h375l539 -1028l180 848q15 74 -16 106.5
t-133 44.5zM686 1577q32 142 86.5 219.5t145.5 77.5q53 0 156.5 -56.5t148.5 -56.5q80 0 129 123l30 -4q-32 -142 -86 -218.5t-145 -76.5q-42 0 -100.5 28.5t-114 56.5t-90.5 28q-81 0 -129 -125z" />
    <glyph glyph-name="Ograve" unicode="&#xd2;" horiz-adv-x="1671" 
d="M768 -31q-163 0 -293.5 57t-210 159.5t-111 244.5t4.5 311q41 208 163.5 377.5t298 266t369.5 96.5q163 0 294 -57t211 -159t112 -243.5t-4 -310.5q-41 -208 -163.5 -378t-299.5 -267t-371 -97zM473 764q-22 -117 -23.5 -226.5t19.5 -202t60.5 -162t103 -108.5t143.5 -38
q177 3 315.5 184.5t194.5 474.5q22 116 23.5 225.5t-19.5 202t-61 162t-103.5 109t-144.5 38.5q-177 0 -314.5 -181.5t-193.5 -477.5zM741 1921h306l57 -352h-29z" />
    <glyph glyph-name="Oacute" unicode="&#xd3;" horiz-adv-x="1671" 
d="M768 -31q-163 0 -293.5 57t-210 159.5t-111 244.5t4.5 311q41 208 163.5 377.5t298 266t369.5 96.5q163 0 294 -57t211 -159t112 -243.5t-4 -310.5q-41 -208 -163.5 -378t-299.5 -267t-371 -97zM473 764q-22 -117 -23.5 -226.5t19.5 -202t60.5 -162t103 -108.5t143.5 -38
q177 3 315.5 184.5t194.5 474.5q22 116 23.5 225.5t-19.5 202t-61 162t-103.5 109t-144.5 38.5q-177 0 -314.5 -181.5t-193.5 -477.5zM1032 1569l209 352h305l-485 -352h-29z" />
    <glyph glyph-name="Ocircumflex" unicode="&#xd4;" horiz-adv-x="1671" 
d="M768 -31q-163 0 -293.5 57t-210 159.5t-111 244.5t4.5 311q41 208 163.5 377.5t298 266t369.5 96.5q163 0 294 -57t211 -159t112 -243.5t-4 -310.5q-41 -208 -163.5 -378t-299.5 -267t-371 -97zM473 764q-22 -117 -23.5 -226.5t19.5 -202t60.5 -162t103 -108.5t143.5 -38
q177 3 315.5 184.5t194.5 474.5q22 116 23.5 225.5t-19.5 202t-61 162t-103.5 109t-144.5 38.5q-177 0 -314.5 -181.5t-193.5 -477.5zM748 1585l268 338h217l137 -338l-22 -16l-246 235l-338 -235z" />
    <glyph glyph-name="Otilde" unicode="&#xd5;" horiz-adv-x="1671" 
d="M768 -31q-163 0 -293.5 57t-210 159.5t-111 244.5t4.5 311q41 208 163.5 377.5t298 266t369.5 96.5q163 0 294 -57t211 -159t112 -243.5t-4 -310.5q-41 -208 -163.5 -378t-299.5 -267t-371 -97zM473 764q-22 -117 -23.5 -226.5t19.5 -202t60.5 -162t103 -108.5t143.5 -38
q177 3 315.5 184.5t194.5 474.5q22 116 23.5 225.5t-19.5 202t-61 162t-103.5 109t-144.5 38.5q-177 0 -314.5 -181.5t-193.5 -477.5zM725 1577q32 143 86 220t145 77q44 0 101 -28t112 -56.5t93 -28.5q80 0 129 123l30 -4q-32 -142 -86 -218.5t-145 -76.5
q-42 0 -100.5 28.5t-114 56.5t-90.5 28q-81 0 -129 -125z" />
    <glyph glyph-name="Odieresis" unicode="&#xd6;" horiz-adv-x="1671" 
d="M768 -31q-163 0 -293.5 57t-210 159.5t-111 244.5t4.5 311q41 208 163.5 377.5t298 266t369.5 96.5q163 0 294 -57t211 -159t112 -243.5t-4 -310.5q-41 -208 -163.5 -378t-299.5 -267t-371 -97zM473 764q-22 -117 -23.5 -226.5t19.5 -202t60.5 -162t103 -108.5t143.5 -38
q177 3 315.5 184.5t194.5 474.5q22 116 23.5 225.5t-19.5 202t-61 162t-103.5 109t-144.5 38.5q-177 0 -314.5 -181.5t-193.5 -477.5zM717 1749q8 62 57.5 104.5t116.5 42.5t106 -42.5t31 -104.5q-6 -64 -55 -107t-117 -43q-67 0 -107 42.5t-32 107.5zM1139 1749
q8 62 56.5 104.5t115.5 42.5t107 -42.5t32 -104.5q-7 -64 -56.5 -107t-115.5 -43q-67 0 -107 42.5t-32 107.5z" />
    <glyph glyph-name="multiply" unicode="&#xd7;" horiz-adv-x="1075" 
d="M182 289l-37 41l377 311l-246 309l43 35l244 -311l383 315l37 -41l-385 -317l240 -307l-39 -33l-242 305z" />
    <glyph glyph-name="Oslash" unicode="&#xd8;" horiz-adv-x="1671" 
d="M768 -31q-157 0 -283 53t-209 150l-239 -205l-33 35l242 209q-151 217 -88 530q41 208 163.5 377.5t298 266t369.5 96.5q158 0 285 -53.5t211 -151.5l237 205l35 -35l-241 -209q72 -102 94.5 -234t-8.5 -292q-41 -208 -163.5 -378t-299.5 -267t-371 -97zM459 393l831 717
q-31 146 -109 230t-200 83q-177 0 -314.5 -181.5t-193.5 -477.5q-38 -203 -14 -371zM469 338q30 -145 108.5 -228.5t198.5 -82.5q177 3 315.5 184.5t194.5 474.5q38 201 14 367z" />
    <glyph glyph-name="Ugrave" unicode="&#xd9;" horiz-adv-x="1536" 
d="M1264 1421l6 29h424l-6 -29q-108 -12 -154 -44.5t-61 -106.5l-164 -766q-51 -245 -206 -390t-372 -145q-292 0 -428.5 140.5t-81.5 394.5l162 766q17 74 -15 106.5t-135 44.5l7 29h645l-6 -29q-107 -12 -153.5 -44.5t-61.5 -106.5l-162 -766q-44 -205 34 -331t248 -126
q171 0 297.5 125t169.5 332l164 766q15 74 -17 106.5t-134 44.5zM735 1921h305l58 -352h-29z" />
    <glyph glyph-name="Uacute" unicode="&#xda;" horiz-adv-x="1536" 
d="M1264 1421l6 29h424l-6 -29q-108 -12 -154 -44.5t-61 -106.5l-164 -766q-51 -245 -206 -390t-372 -145q-292 0 -428.5 140.5t-81.5 394.5l162 766q17 74 -15 106.5t-135 44.5l7 29h645l-6 -29q-107 -12 -153.5 -44.5t-61.5 -106.5l-162 -766q-44 -205 34 -331t248 -126
q171 0 297.5 125t169.5 332l164 766q15 74 -17 106.5t-134 44.5zM1028 1569l209 352h305l-485 -352h-29z" />
    <glyph glyph-name="Ucircumflex" unicode="&#xdb;" horiz-adv-x="1536" 
d="M1264 1421l6 29h424l-6 -29q-108 -12 -154 -44.5t-61 -106.5l-164 -766q-51 -245 -206 -390t-372 -145q-292 0 -428.5 140.5t-81.5 394.5l162 766q17 74 -15 106.5t-135 44.5l7 29h645l-6 -29q-107 -12 -153.5 -44.5t-61.5 -106.5l-162 -766q-44 -205 34 -331t248 -126
q171 0 297.5 125t169.5 332l164 766q15 74 -17 106.5t-134 44.5zM741 1585l269 338h217l137 -338l-23 -16l-245 235l-338 -235z" />
    <glyph glyph-name="Udieresis" unicode="&#xdc;" horiz-adv-x="1536" 
d="M1264 1421l6 29h424l-6 -29q-108 -12 -154 -44.5t-61 -106.5l-164 -766q-51 -245 -206 -390t-372 -145q-292 0 -428.5 140.5t-81.5 394.5l162 766q17 74 -15 106.5t-135 44.5l7 29h645l-6 -29q-107 -12 -153.5 -44.5t-61.5 -106.5l-162 -766q-44 -205 34 -331t248 -126
q171 0 297.5 125t169.5 332l164 766q15 74 -17 106.5t-134 44.5zM713 1749q8 62 57.5 104.5t116.5 42.5t106 -42.5t31 -104.5q-6 -64 -55 -107t-117 -43q-67 0 -107 42.5t-32 107.5zM1135 1749q8 62 56.5 104.5t115.5 42.5t107 -42.5t32 -104.5q-7 -64 -56.5 -107
t-115.5 -43q-67 0 -107 42.5t-32 107.5z" />
    <glyph glyph-name="Yacute" unicode="&#xdd;" horiz-adv-x="1480" 
d="M1227 1450h436l-6 -29q-108 -12 -175 -48.5t-118 -110.5l-440 -623l-97 -457q-15 -69 13.5 -103.5t132.5 -47.5l-6 -31h-639l8 31q75 9 119.5 29.5t63 48t28.5 73.5l86 406l-232 663q-15 45 -27 70t-33.5 48t-54.5 34.5t-85 17.5l6 29h659l-6 -29q-110 -12 -153.5 -49
t-20.5 -102l201 -590l416 590q51 67 34 103t-116 48zM999 1569l209 352h305l-485 -352h-29z" />
    <glyph glyph-name="Thorn" unicode="&#xde;" horiz-adv-x="1392" 
d="M821 1137q277 0 411.5 -112.5t90.5 -317.5q-37 -181 -210.5 -287.5t-442.5 -106.5h-178l-29 -131q-17 -80 15 -109.5t134 -43.5l-6 -29h-645l6 29q109 14 154.5 44.5t62.5 108.5l230 1086q17 78 -15 109.5t-135 43.5l6 29h645l-6 -29q-107 -13 -153 -43t-64 -110
l-26 -131h155zM504 371h110q84 0 156.5 28.5t124 77t86.5 110.5t51 132q32 158 -43.5 259t-245.5 101h-90z" />
    <glyph glyph-name="germandbls" unicode="&#xdf;" horiz-adv-x="1398" 
d="M143 981l13 57h172l10 45q31 129 126.5 227.5t226.5 148.5t278 50q243 0 360.5 -73.5t89.5 -204.5q-14 -65 -49 -113.5t-79.5 -76t-95.5 -47.5t-101 -35t-92 -31.5t-71.5 -44t-37.5 -66.5t8 -70.5t49.5 -52.5t76.5 -43.5t89 -43t87.5 -50.5t70.5 -66.5t39 -91.5t-6 -125
q-35 -137 -146.5 -220t-275.5 -83q-135 0 -225.5 66.5t-122.5 191.5l43 19q26 -96 106.5 -151.5t181.5 -55.5q87 0 149 45.5t77 116.5q11 53 -10 92t-62.5 63.5t-93.5 45t-103.5 44.5t-91.5 54t-58.5 80.5t-4.5 117.5q13 60 44.5 106t72 74t87 52t92.5 48t86.5 53t72 76
t44.5 110q25 116 -30.5 178t-184.5 61q-95 -1 -169 -51.5t-115.5 -127t-63.5 -175.5l-233 -1104h-402l6 29q77 14 113 40.5t49 86.5l176 825h-172z" />
    <glyph glyph-name="agrave" unicode="&#xe0;" horiz-adv-x="1161" 
d="M291 -31q-128 0 -198 85.5t-44 213.5q62 284 522 328l144 14l22 109q28 134 -7.5 213.5t-133.5 79.5q-103 0 -155.5 -62t-49.5 -143q3 -70 -28.5 -110.5t-86.5 -49.5q-62 -12 -98 26t-18 109q11 50 47 99t94 92t146.5 69.5t191.5 26.5q200 0 296.5 -102.5t61.5 -272.5
l-108 -510q-9 -43 2.5 -67.5t40.5 -24.5q46 0 100 74l25 -10q-36 -58 -76 -98t-77 -57.5t-64.5 -24.5t-53.5 -7q-66 0 -119 46.5t-49 127.5l13 62q-129 -236 -340 -236zM324 307q-15 -79 18.5 -129.5t103.5 -50.5q105 0 193 129l63 295l-120 -14q-214 -30 -258 -230z
M340 1509h305l57 -352h-28z" />
    <glyph glyph-name="aacute" unicode="&#xe1;" horiz-adv-x="1161" 
d="M291 -31q-128 0 -198 85.5t-44 213.5q62 284 522 328l144 14l22 109q28 134 -7.5 213.5t-133.5 79.5q-103 0 -155.5 -62t-49.5 -143q3 -70 -28.5 -110.5t-86.5 -49.5q-62 -12 -98 26t-18 109q11 50 47 99t94 92t146.5 69.5t191.5 26.5q200 0 296.5 -102.5t61.5 -272.5
l-108 -510q-9 -43 2.5 -67.5t40.5 -24.5q46 0 100 74l25 -10q-36 -58 -76 -98t-77 -57.5t-64.5 -24.5t-53.5 -7q-66 0 -119 46.5t-49 127.5l13 62q-129 -236 -340 -236zM324 307q-15 -79 18.5 -129.5t103.5 -50.5q105 0 193 129l63 295l-120 -14q-214 -30 -258 -230z
M633 1157l209 352h305l-485 -352h-29z" />
    <glyph glyph-name="acircumflex" unicode="&#xe2;" horiz-adv-x="1161" 
d="M291 -31q-128 0 -198 85.5t-44 213.5q62 284 522 328l144 14l22 109q28 134 -7.5 213.5t-133.5 79.5q-103 0 -155.5 -62t-49.5 -143q3 -70 -28.5 -110.5t-86.5 -49.5q-62 -12 -98 26t-18 109q11 50 47 99t94 92t146.5 69.5t191.5 26.5q200 0 296.5 -102.5t61.5 -272.5
l-108 -510q-9 -43 2.5 -67.5t40.5 -24.5q46 0 100 74l25 -10q-36 -58 -76 -98t-77 -57.5t-64.5 -24.5t-53.5 -7q-66 0 -119 46.5t-49 127.5l13 62q-129 -236 -340 -236zM324 307q-15 -79 18.5 -129.5t103.5 -50.5q105 0 193 129l63 295l-120 -14q-214 -30 -258 -230z
M346 1174l268 337h217l138 -337l-23 -17l-246 236l-338 -236z" />
    <glyph glyph-name="atilde" unicode="&#xe3;" horiz-adv-x="1161" 
d="M291 -31q-128 0 -198 85.5t-44 213.5q62 284 522 328l144 14l22 109q28 134 -7.5 213.5t-133.5 79.5q-103 0 -155.5 -62t-49.5 -143q3 -70 -28.5 -110.5t-86.5 -49.5q-62 -12 -98 26t-18 109q11 50 47 99t94 92t146.5 69.5t191.5 26.5q200 0 296.5 -102.5t61.5 -272.5
l-108 -510q-9 -43 2.5 -67.5t40.5 -24.5q46 0 100 74l25 -10q-36 -58 -76 -98t-77 -57.5t-64.5 -24.5t-53.5 -7q-66 0 -119 46.5t-49 127.5l13 62q-129 -236 -340 -236zM324 307q-15 -79 18.5 -129.5t103.5 -50.5q105 0 193 129l63 295l-120 -14q-214 -30 -258 -230z
M326 1165q32 143 86 220t145 77q44 0 101 -28t111.5 -56t92.5 -28q80 0 129 123l31 -5q-32 -142 -86 -218t-145 -76q-42 0 -100.5 28t-114.5 56t-91 28q-81 0 -129 -125z" />
    <glyph glyph-name="adieresis" unicode="&#xe4;" horiz-adv-x="1161" 
d="M291 -31q-128 0 -198 85.5t-44 213.5q62 284 522 328l144 14l22 109q28 134 -7.5 213.5t-133.5 79.5q-103 0 -155.5 -62t-49.5 -143q3 -70 -28.5 -110.5t-86.5 -49.5q-62 -12 -98 26t-18 109q11 50 47 99t94 92t146.5 69.5t191.5 26.5q200 0 296.5 -102.5t61.5 -272.5
l-108 -510q-9 -43 2.5 -67.5t40.5 -24.5q46 0 100 74l25 -10q-36 -58 -76 -98t-77 -57.5t-64.5 -24.5t-53.5 -7q-66 0 -119 46.5t-49 127.5l13 62q-129 -236 -340 -236zM315 1337q8 62 57.5 105t116.5 43t106.5 -43t31.5 -105q-6 -64 -55 -106.5t-117 -42.5t-107.5 42.5
t-32.5 106.5zM324 307q-15 -79 18.5 -129.5t103.5 -50.5q105 0 193 129l63 295l-120 -14q-214 -30 -258 -230zM737 1337q8 62 56.5 105t115.5 43t107.5 -43t32.5 -105q-7 -64 -56.5 -106.5t-115.5 -42.5q-68 0 -107.5 42.5t-32.5 106.5z" />
    <glyph glyph-name="aring" unicode="&#xe5;" horiz-adv-x="1161" 
d="M291 -31q-128 0 -198 85.5t-44 213.5q62 284 522 328l144 14l22 109q28 134 -7.5 213.5t-133.5 79.5q-103 0 -155.5 -62t-49.5 -143q3 -70 -28.5 -110.5t-86.5 -49.5q-62 -12 -98 26t-18 109q11 50 47 99t94 92t146.5 69.5t191.5 26.5q200 0 296.5 -102.5t61.5 -272.5
l-108 -510q-9 -43 2.5 -67.5t40.5 -24.5q46 0 100 74l25 -10q-36 -58 -76 -98t-77 -57.5t-64.5 -24.5t-53.5 -7q-66 0 -119 46.5t-49 127.5l13 62q-129 -236 -340 -236zM324 307q-15 -79 18.5 -129.5t103.5 -50.5q105 0 193 129l63 295l-120 -14q-214 -30 -258 -230z
M461 1341q9 89 79 149t167 60q96 0 153.5 -59.5t48.5 -149.5q-12 -89 -82 -147.5t-165 -58.5q-98 0 -155 58.5t-46 147.5zM557 1343q-9 -59 22.5 -96t86.5 -37q56 0 98 37t49 96q8 57 -24 94.5t-87 37.5t-96 -37.5t-49 -94.5z" />
    <glyph glyph-name="ae" unicode="&#xe6;" horiz-adv-x="1705" 
d="M1116 -31q-156 0 -264 81.5t-145 221.5q-169 -303 -404 -303q-129 0 -204.5 86t-49.5 213q62 281 522 328l142 14q4 8 4 15l20 94q28 134 -7.5 213.5t-133.5 79.5q-103 0 -155.5 -62t-49.5 -143q3 -70 -29 -110t-88 -50q-62 -12 -97 26t-17 109q11 50 47 99t94 92
t146.5 69.5t191.5 26.5q221 0 311 -123q166 121 367 121q214 0 297 -119.5t26 -324.5h-657q-21 -101 -12 -189.5t40 -154.5t93 -104t147 -38q89 0 172 55t133 146l27 -6q-63 -171 -179 -267t-288 -96zM324 307q-15 -79 18.5 -129.5t103.5 -50.5t138 57.5t110 141.5
q-16 114 6 225l-118 -14q-213 -27 -258 -230zM995 674h400q20 82 18.5 156.5t-36.5 127t-95 52.5q-100 0 -176.5 -95t-110.5 -241z" />
    <glyph glyph-name="ccedilla" unicode="&#xe7;" horiz-adv-x="1060" 
d="M985 700q-17 148 -88 230t-176 82q-123 0 -225.5 -114t-139.5 -292q-22 -94 -11.5 -179.5t43.5 -149.5t96 -102t145 -38q97 0 178 53.5t133 153.5l27 -6q-61 -169 -181 -268t-292 -99h-17l-74 -92q96 4 143.5 -36.5t33.5 -110.5q-23 -106 -129 -149.5t-258 -18.5l6 26
q89 -6 145 20.5t68 82.5q8 37 -23 64.5t-98 39.5l143 178q-200 24 -302.5 188.5t-51.5 407.5q45 208 221.5 353t392.5 145q67 0 124 -13.5t84 -27.5t50 -20.5t36.5 6.5t29.5 55h29l-33 -369h-29z" />
    <glyph glyph-name="egrave" unicode="&#xe8;" horiz-adv-x="1083" 
d="M494 -31q-153 0 -261 78.5t-148.5 216.5t-4.5 309q45 209 219 351.5t395 142.5q214 0 297.5 -119.5t26.5 -324.5h-658q-21 -101 -11.5 -189.5t40.5 -154.5t93 -104t147 -38q89 0 172 55t133 146l27 -6q-63 -171 -179 -267t-288 -96zM373 674h399q20 82 18.5 156.5
t-36.5 127t-95 52.5q-100 0 -176 -94.5t-110 -241.5zM399 1509h306l57 -352h-29z" />
    <glyph glyph-name="eacute" unicode="&#xe9;" horiz-adv-x="1083" 
d="M494 -31q-153 0 -261 78.5t-148.5 216.5t-4.5 309q45 209 219 351.5t395 142.5q214 0 297.5 -119.5t26.5 -324.5h-658q-21 -101 -11.5 -189.5t40.5 -154.5t93 -104t147 -38q89 0 172 55t133 146l27 -6q-63 -171 -179 -267t-288 -96zM373 674h399q20 82 18.5 156.5
t-36.5 127t-95 52.5q-100 0 -176 -94.5t-110 -241.5zM690 1157l209 352h305l-485 -352h-29z" />
    <glyph glyph-name="ecircumflex" unicode="&#xea;" horiz-adv-x="1083" 
d="M494 -31q-153 0 -261 78.5t-148.5 216.5t-4.5 309q45 209 219 351.5t395 142.5q214 0 297.5 -119.5t26.5 -324.5h-658q-21 -101 -11.5 -189.5t40.5 -154.5t93 -104t147 -38q89 0 172 55t133 146l27 -6q-63 -171 -179 -267t-288 -96zM373 674h399q20 82 18.5 156.5
t-36.5 127t-95 52.5q-100 0 -176 -94.5t-110 -241.5zM403 1174l269 337h217l137 -337l-22 -17l-246 236l-338 -236z" />
    <glyph glyph-name="edieresis" unicode="&#xeb;" horiz-adv-x="1083" 
d="M494 -31q-153 0 -261 78.5t-148.5 216.5t-4.5 309q45 209 219 351.5t395 142.5q214 0 297.5 -119.5t26.5 -324.5h-658q-21 -101 -11.5 -189.5t40.5 -154.5t93 -104t147 -38q89 0 172 55t133 146l27 -6q-63 -171 -179 -267t-288 -96zM373 674h399q20 82 18.5 156.5
t-36.5 127t-95 52.5q-100 0 -176 -94.5t-110 -241.5zM375 1337q8 62 57.5 105t116.5 43t106 -43t31 -105q-6 -64 -55 -106.5t-117 -42.5t-107 42.5t-32 106.5zM797 1337q8 62 56.5 105t115.5 43t107 -43t32 -105q-7 -64 -56.5 -106.5t-115.5 -42.5q-68 0 -107 42.5
t-32 106.5z" />
    <glyph glyph-name="igrave" unicode="&#xec;" horiz-adv-x="618" 
d="M362 160q-14 -62 7 -90.5t88 -40.5l-6 -29h-512l6 29q73 12 106 40.5t45 90.5l137 643q16 74 -8 100t-90 21l6 28l385 117h29zM137 1509h305l58 -352h-29z" />
    <glyph glyph-name="iacute" unicode="&#xed;" horiz-adv-x="618" 
d="M362 160q-14 -62 7 -90.5t88 -40.5l-6 -29h-512l6 29q73 12 106 40.5t45 90.5l137 643q16 74 -8 100t-90 21l6 28l385 117h29zM428 1157l209 352h305l-485 -352h-29z" />
    <glyph glyph-name="icircumflex" unicode="&#xee;" horiz-adv-x="618" 
d="M362 160q-14 -62 7 -90.5t88 -40.5l-6 -29h-512l6 29q73 12 106 40.5t45 90.5l137 643q16 74 -8 100t-90 21l6 28l385 117h29zM143 1174l269 337h217l137 -337l-23 -17l-245 236l-338 -236z" />
    <glyph glyph-name="idieresis" unicode="&#xef;" horiz-adv-x="618" 
d="M362 160q-14 -62 7 -90.5t88 -40.5l-6 -29h-512l6 29q73 12 106 40.5t45 90.5l137 643q16 74 -8 100t-90 21l6 28l385 117h29zM113 1337q8 62 57.5 105t116.5 43t106 -43t31 -105q-6 -64 -55 -106.5t-117 -42.5t-107 42.5t-32 106.5zM535 1337q8 62 56.5 105t115.5 43
t107 -43t32 -105q-7 -64 -56.5 -106.5t-115.5 -42.5q-68 0 -107 42.5t-32 106.5z" />
    <glyph glyph-name="eth" unicode="&#xf0;" horiz-adv-x="1187" 
d="M494 -31q-222 0 -344.5 152t-81.5 383q41 241 216.5 403t395.5 162q64 0 123.5 -34.5t93.5 -90.5q-26 201 -168 356l-305 -139l-16 51l280 129q-87 81 -201 138l11 26q165 -28 309 -110l303 137l12 -49l-266 -123q180 -128 251.5 -340.5t12.5 -489.5
q-46 -244 -221.5 -402.5t-404.5 -158.5zM367 657q-20 -104 -21 -213.5t17.5 -203t65 -153.5t114.5 -60q97 0 171 94.5t105 251.5q20 107 21 218t-17.5 206t-65 155t-114.5 60q-96 0 -169.5 -97.5t-106.5 -257.5z" />
    <glyph glyph-name="ntilde" unicode="&#xf1;" horiz-adv-x="1249" 
d="M-55 29q73 12 106 40.5t45 90.5l137 643q16 74 -8 100t-90 21l6 28l385 117h29l-49 -231q112 115 203 172t186 57q148 0 210 -95t28 -253l-117 -559q-14 -62 6.5 -90.5t87.5 -40.5l-6 -29h-514l6 29q75 12 108.5 40.5t45.5 90.5l114 536q20 93 -16 147t-115 54
q-58 0 -112 -28.5t-127 -90.5l-132 -618q-14 -62 7 -90.5t88 -40.5l-6 -29h-512zM449 1165q32 143 86 220t145 77q54 0 157 -56t148 -56q80 0 129 123l31 -5q-32 -142 -86.5 -218t-145.5 -76q-42 0 -100.5 28t-114 56t-90.5 28q-81 0 -129 -125z" />
    <glyph glyph-name="ograve" unicode="&#xf2;" horiz-adv-x="1185" 
d="M506 -31q-110 0 -200.5 41t-149.5 115t-81.5 182t-0.5 236q40 226 210.5 376t393.5 150q111 0 201.5 -41t150 -114.5t82 -181.5t0.5 -236q-40 -226 -211.5 -376.5t-394.5 -150.5zM362 616q-21 -89 -24 -190t12.5 -191t60.5 -149t113 -59q100 0 177 100.5t120 286.5
q21 92 24 194.5t-12.5 193.5t-60.5 150.5t-113 59.5q-98 0 -176 -104t-121 -292zM424 1509h305l57 -352h-28z" />
    <glyph glyph-name="oacute" unicode="&#xf3;" horiz-adv-x="1185" 
d="M506 -31q-110 0 -200.5 41t-149.5 115t-81.5 182t-0.5 236q40 226 210.5 376t393.5 150q111 0 201.5 -41t150 -114.5t82 -181.5t0.5 -236q-40 -226 -211.5 -376.5t-394.5 -150.5zM362 616q-21 -89 -24 -190t12.5 -191t60.5 -149t113 -59q100 0 177 100.5t120 286.5
q21 92 24 194.5t-12.5 193.5t-60.5 150.5t-113 59.5q-98 0 -176 -104t-121 -292zM715 1157l209 352h305l-486 -352h-28z" />
    <glyph glyph-name="ocircumflex" unicode="&#xf4;" horiz-adv-x="1185" 
d="M506 -31q-110 0 -200.5 41t-149.5 115t-81.5 182t-0.5 236q40 226 210.5 376t393.5 150q111 0 201.5 -41t150 -114.5t82 -181.5t0.5 -236q-40 -226 -211.5 -376.5t-394.5 -150.5zM362 616q-21 -89 -24 -190t12.5 -191t60.5 -149t113 -59q100 0 177 100.5t120 286.5
q21 92 24 194.5t-12.5 193.5t-60.5 150.5t-113 59.5q-98 0 -176 -104t-121 -292zM430 1174l268 337h217l138 -337l-23 -17l-246 236l-338 -236z" />
    <glyph glyph-name="otilde" unicode="&#xf5;" horiz-adv-x="1185" 
d="M506 -31q-110 0 -200.5 41t-149.5 115t-81.5 182t-0.5 236q40 226 210.5 376t393.5 150q111 0 201.5 -41t150 -114.5t82 -181.5t0.5 -236q-40 -226 -211.5 -376.5t-394.5 -150.5zM362 616q-21 -89 -24 -190t12.5 -191t60.5 -149t113 -59q100 0 177 100.5t120 286.5
q21 92 24 194.5t-12.5 193.5t-60.5 150.5t-113 59.5q-98 0 -176 -104t-121 -292zM408 1165q32 143 86 220t145 77q44 0 101 -28t111.5 -56t92.5 -28q80 0 129 123l31 -5q-32 -142 -86.5 -218t-145.5 -76q-42 0 -100.5 28t-114 56t-90.5 28q-81 0 -129 -125z" />
    <glyph glyph-name="odieresis" unicode="&#xf6;" horiz-adv-x="1185" 
d="M506 -31q-110 0 -200.5 41t-149.5 115t-81.5 182t-0.5 236q40 226 210.5 376t393.5 150q111 0 201.5 -41t150 -114.5t82 -181.5t0.5 -236q-40 -226 -211.5 -376.5t-394.5 -150.5zM362 616q-21 -89 -24 -190t12.5 -191t60.5 -149t113 -59q100 0 177 100.5t120 286.5
q21 92 24 194.5t-12.5 193.5t-60.5 150.5t-113 59.5q-98 0 -176 -104t-121 -292zM399 1337q8 62 57.5 105t116.5 43t106.5 -43t31.5 -105q-6 -64 -55 -106.5t-117 -42.5t-107.5 42.5t-32.5 106.5zM821 1337q8 62 56.5 105t115.5 43t107.5 -43t32.5 -105q-7 -64 -56.5 -106.5
t-115.5 -42.5q-68 0 -107.5 42.5t-32.5 106.5z" />
    <glyph glyph-name="divide" unicode="&#xf7;" horiz-adv-x="1228" 
d="M207 610l12 54h860l-12 -54h-860zM442 281q5 53 44.5 89t93.5 36q55 0 86.5 -36t25.5 -89t-46.5 -89t-92.5 -36q-53 0 -85.5 36.5t-25.5 88.5zM590 995q5 51 45 87t92 36q55 0 87 -35.5t26 -87.5q-6 -54 -46.5 -89.5t-93.5 -35.5t-85 36t-25 89z" />
    <glyph glyph-name="oslash" unicode="&#xf8;" horiz-adv-x="1187" 
d="M-43 0l178 154q-103 160 -61 389q40 226 210.5 376t393.5 150q222 0 344 -147l172 147l33 -33l-176 -151q103 -160 61 -389q-40 -226 -211.5 -376.5t-394.5 -150.5q-219 0 -344 150l-174 -152zM340 330l500 432q-16 112 -61.5 181t-119.5 69q-98 0 -176 -104t-121 -292
q-34 -145 -22 -286zM344 274q15 -111 60 -179t120 -68q100 0 177 100.5t120 286.5q35 152 23 293z" />
    <glyph glyph-name="ugrave" unicode="&#xf9;" horiz-adv-x="1286" 
d="M360 -29q-147 0 -208.5 95t-28.5 253l102 484q16 74 -8 100t-90 21l6 28l387 117h29l-156 -729q-20 -93 15 -146t114 -53q59 0 114.5 28.5t125.5 88.5l117 545q14 75 -10.5 100.5t-90.5 20.5l6 28l387 117h29l-188 -885q-9 -42 3 -67t40 -25q46 0 100 74l25 -10
q-35 -58 -75 -98t-77.5 -57.5t-64.5 -24.5t-52 -7q-70 0 -122 47.5t-46 135.5l9 51q-111 -116 -203.5 -174t-188.5 -58zM475 1509h305l58 -352h-29z" />
    <glyph glyph-name="uacute" unicode="&#xfa;" horiz-adv-x="1286" 
d="M360 -29q-147 0 -208.5 95t-28.5 253l102 484q16 74 -8 100t-90 21l6 28l387 117h29l-156 -729q-20 -93 15 -146t114 -53q59 0 114.5 28.5t125.5 88.5l117 545q14 75 -10.5 100.5t-90.5 20.5l6 28l387 117h29l-188 -885q-9 -42 3 -67t40 -25q46 0 100 74l25 -10
q-35 -58 -75 -98t-77.5 -57.5t-64.5 -24.5t-52 -7q-70 0 -122 47.5t-46 135.5l9 51q-111 -116 -203.5 -174t-188.5 -58zM766 1157l209 352h305l-485 -352h-29z" />
    <glyph glyph-name="ucircumflex" unicode="&#xfb;" horiz-adv-x="1286" 
d="M360 -29q-147 0 -208.5 95t-28.5 253l102 484q16 74 -8 100t-90 21l6 28l387 117h29l-156 -729q-20 -93 15 -146t114 -53q59 0 114.5 28.5t125.5 88.5l117 545q14 75 -10.5 100.5t-90.5 20.5l6 28l387 117h29l-188 -885q-9 -42 3 -67t40 -25q46 0 100 74l25 -10
q-35 -58 -75 -98t-77.5 -57.5t-64.5 -24.5t-52 -7q-70 0 -122 47.5t-46 135.5l9 51q-111 -116 -203.5 -174t-188.5 -58zM481 1174l269 337h217l137 -337l-23 -17l-245 236l-338 -236z" />
    <glyph glyph-name="udieresis" unicode="&#xfc;" horiz-adv-x="1286" 
d="M360 -29q-147 0 -208.5 95t-28.5 253l102 484q16 74 -8 100t-90 21l6 28l387 117h29l-156 -729q-20 -93 15 -146t114 -53q59 0 114.5 28.5t125.5 88.5l117 545q14 75 -10.5 100.5t-90.5 20.5l6 28l387 117h29l-188 -885q-9 -42 3 -67t40 -25q46 0 100 74l25 -10
q-35 -58 -75 -98t-77.5 -57.5t-64.5 -24.5t-52 -7q-70 0 -122 47.5t-46 135.5l9 51q-111 -116 -203.5 -174t-188.5 -58zM451 1337q8 62 57.5 105t116.5 43t106 -43t31 -105q-6 -64 -55 -106.5t-117 -42.5t-107 42.5t-32 106.5zM872 1337q8 62 56.5 105t115.5 43t107.5 -43
t32.5 -105q-7 -64 -56.5 -106.5t-115.5 -42.5q-68 0 -107.5 42.5t-32.5 106.5z" />
    <glyph glyph-name="yacute" unicode="&#xfd;" horiz-adv-x="1150" 
d="M16 -434q-91 0 -140 39.5t-36 105.5q12 59 58 100.5t104 41.5q35 0 98 -35t115 -35q54 0 99.5 34.5t91.5 108.5l32 49l-207 883q-34 137 -110 152l6 28h520l-6 -28q-165 -18 -135 -152l121 -588l379 588q85 134 -56 152l6 28h297l-6 -28q-90 -15 -178 -152l-614 -954
q-26 -43 -53.5 -81t-72 -87.5t-89.5 -85t-104.5 -60t-119.5 -24.5zM750 1157l208 352h306l-486 -352h-28z" />
    <glyph glyph-name="thorn" unicode="&#xfe;" horiz-adv-x="1247" 
d="M-141 -375q76 14 112 40.5t49 86.5l304 1434q17 73 -8 99t-91 20l6 28l387 117h29l-131 -612q49 100 143 165.5t201 65.5q194 0 280.5 -162.5t30.5 -419.5q-51 -239 -213 -378.5t-391 -139.5q-62 0 -124 20t-95 52l-63 -289q-12 -62 19.5 -87.5t135.5 -39.5l-6 -28h-581z
M406 309q-26 -116 11.5 -199t131.5 -83q109 0 204.5 124t137.5 316q23 128 16.5 229.5t-57.5 164.5t-139 63q-62 0 -119 -42t-88 -106z" />
    <glyph glyph-name="ydieresis" unicode="&#xff;" horiz-adv-x="1150" 
d="M16 -434q-91 0 -140 39.5t-36 105.5q12 59 58 100.5t104 41.5q35 0 98 -35t115 -35q54 0 99.5 34.5t91.5 108.5l32 49l-207 883q-34 137 -110 152l6 28h520l-6 -28q-165 -18 -135 -152l121 -588l379 588q85 134 -56 152l6 28h297l-6 -28q-90 -15 -178 -152l-614 -954
q-26 -43 -53.5 -81t-72 -87.5t-89.5 -85t-104.5 -60t-119.5 -24.5zM434 1337q8 62 57.5 105t116.5 43t106 -43t31 -105q-6 -64 -55 -106.5t-117 -42.5t-107 42.5t-32 106.5zM856 1337q8 62 56.5 105t115.5 43t107 -43t32 -105q-7 -64 -56.5 -106.5t-115.5 -42.5
q-68 0 -107 42.5t-32 106.5z" />
    <glyph glyph-name="Amacron" unicode="&#x100;" horiz-adv-x="1581" 
d="M1266 260q28 -123 74 -176t126 -55l-6 -29h-651l6 29q118 1 157.5 50t14.5 165l-47 223h-559l-143 -223q-72 -116 -51.5 -164.5t139.5 -50.5l-7 -29h-419l6 29q73 1 137.5 54.5t142.5 176.5l781 1221h28zM418 524h510l-129 606zM702 1630l13 58h602l-12 -58h-603z" />
    <glyph glyph-name="amacron" unicode="&#x101;" horiz-adv-x="1161" 
d="M291 -31q-128 0 -198 85.5t-44 213.5q62 284 522 328l144 14l22 109q28 134 -7.5 213.5t-133.5 79.5q-103 0 -155.5 -62t-49.5 -143q3 -70 -28.5 -110.5t-86.5 -49.5q-62 -12 -98 26t-18 109q11 50 47 99t94 92t146.5 69.5t191.5 26.5q200 0 296.5 -102.5t61.5 -272.5
l-108 -510q-9 -43 2.5 -67.5t40.5 -24.5q46 0 100 74l25 -10q-36 -58 -76 -98t-77 -57.5t-64.5 -24.5t-53.5 -7q-66 0 -119 46.5t-49 127.5l13 62q-129 -236 -340 -236zM324 307q-15 -79 18.5 -129.5t103.5 -50.5q105 0 193 129l63 295l-120 -14q-214 -30 -258 -230z
M354 1219l13 57h602l-13 -57h-602z" />
    <glyph glyph-name="Abreve" unicode="&#x102;" horiz-adv-x="1581" 
d="M1266 260q28 -123 74 -176t126 -55l-6 -29h-651l6 29q118 1 157.5 50t14.5 165l-47 223h-559l-143 -223q-72 -116 -51.5 -164.5t139.5 -50.5l-7 -29h-419l6 29q73 1 137.5 54.5t142.5 176.5l781 1221h28zM418 524h510l-129 606zM803 1948h31q-2 -92 51 -145.5t147 -53.5
q95 0 171.5 53.5t111.5 145.5h31q-31 -168 -122 -264.5t-220 -96.5q-131 0 -185 97t-16 264z" />
    <glyph glyph-name="abreve" unicode="&#x103;" horiz-adv-x="1161" 
d="M291 -31q-128 0 -198 85.5t-44 213.5q62 284 522 328l144 14l22 109q28 134 -7.5 213.5t-133.5 79.5q-103 0 -155.5 -62t-49.5 -143q3 -70 -28.5 -110.5t-86.5 -49.5q-62 -12 -98 26t-18 109q11 50 47 99t94 92t146.5 69.5t191.5 26.5q200 0 296.5 -102.5t61.5 -272.5
l-108 -510q-9 -43 2.5 -67.5t40.5 -24.5q46 0 100 74l25 -10q-36 -58 -76 -98t-77 -57.5t-64.5 -24.5t-53.5 -7q-66 0 -119 46.5t-49 127.5l13 62q-129 -236 -340 -236zM324 307q-15 -79 18.5 -129.5t103.5 -50.5q105 0 193 129l63 295l-120 -14q-214 -30 -258 -230z
M455 1536h30q-1 -92 52 -145.5t147 -53.5q95 0 171.5 53.5t111.5 145.5h30q-31 -168 -122 -264t-220 -96q-131 0 -184.5 96.5t-15.5 263.5z" />
    <glyph glyph-name="Aogonek" unicode="&#x104;" horiz-adv-x="1581" 
d="M1266 260q28 -123 74 -176t126 -55l-6 -29h-258q-103 -78 -168.5 -155t-77.5 -138q-12 -53 13 -83t80 -26t122 46l15 -25q-49 -48 -118.5 -77t-127.5 -29q-100 0 -148.5 43t-31.5 116q35 161 358 328h-309l6 29q118 1 157.5 50t14.5 165l-47 223h-559l-143 -223
q-72 -116 -51.5 -164.5t139.5 -50.5l-7 -29h-419l6 29q73 1 137.5 54.5t142.5 176.5l781 1221h28zM418 524h510l-129 606z" />
    <glyph glyph-name="aogonek" unicode="&#x105;" horiz-adv-x="1161" 
d="M291 -31q-128 0 -198 85.5t-44 213.5q62 284 522 328l144 14l22 109q28 134 -7.5 213.5t-133.5 79.5q-103 0 -155.5 -62t-49.5 -143q3 -70 -28.5 -110.5t-86.5 -49.5q-62 -12 -98 26t-18 109q11 50 47 99t94 92t146.5 69.5t191.5 26.5q200 0 296.5 -102.5t61.5 -272.5
l-108 -510q-9 -43 2.5 -67.5t40.5 -24.5q46 0 100 74l25 -10q-76 -121 -168 -162q-180 -149 -201 -258q-12 -53 13 -83.5t80 -26.5t122 46l15 -24q-50 -48 -119.5 -77.5t-126.5 -29.5q-100 0 -148.5 43.5t-31.5 116.5q28 133 260 272q-58 12 -98 56t-36 114l13 62
q-129 -236 -340 -236zM324 307q-15 -79 18.5 -129.5t103.5 -50.5q105 0 193 129l63 295l-120 -14q-214 -30 -258 -230z" />
    <glyph glyph-name="Cacute" unicode="&#x106;" horiz-adv-x="1447" 
d="M1468 1481l-38 -445h-29q-19 181 -118 284t-259 103q-192 0 -347.5 -164.5t-211.5 -441.5q-21 -116 -19 -218.5t33 -188.5t81.5 -148t126 -96.5t167.5 -34.5q152 0 272 93.5t201 267.5l31 -7q-77 -238 -254 -377t-408 -139q-140 0 -256.5 60t-188 164.5t-100 246.5
t6.5 305q32 154 111 289.5t191 234t259 155.5t307 57q63 0 120.5 -11.5t91.5 -25.5t66 -24.5t52.5 -11.5t41.5 16t42 57h28zM1024 1569l209 352h305l-485 -352h-29z" />
    <glyph glyph-name="cacute" unicode="&#x107;" horiz-adv-x="1060" 
d="M985 700q-17 148 -88 230t-176 82q-123 0 -225.5 -114t-139.5 -292q-22 -94 -11.5 -179.5t43.5 -149.5t96 -102t145 -38q97 0 178 53.5t133 153.5l27 -6q-61 -169 -181 -268t-292 -99q-147 0 -254 75t-151.5 213t-8.5 312q45 208 221.5 353t392.5 145q67 0 124 -13.5
t84 -27.5t50 -20.5t36.5 6.5t29.5 55h29l-33 -369h-29zM700 1157l209 352h305l-485 -352h-29z" />
    <glyph glyph-name="Ccircumflex" unicode="&#x108;" horiz-adv-x="1447" 
d="M1468 1481l-38 -445h-29q-19 181 -118 284t-259 103q-192 0 -347.5 -164.5t-211.5 -441.5q-21 -116 -19 -218.5t33 -188.5t81.5 -148t126 -96.5t167.5 -34.5q152 0 272 93.5t201 267.5l31 -7q-77 -238 -254 -377t-408 -139q-140 0 -256.5 60t-188 164.5t-100 246.5
t6.5 305q32 154 111 289.5t191 234t259 155.5t307 57q63 0 120.5 -11.5t91.5 -25.5t66 -24.5t52.5 -11.5t41.5 16t42 57h28zM739 1585l269 338h217l137 -338l-23 -16l-245 235l-338 -235z" />
    <glyph glyph-name="ccircumflex" unicode="&#x109;" horiz-adv-x="1060" 
d="M985 700q-17 148 -88 230t-176 82q-123 0 -225.5 -114t-139.5 -292q-22 -94 -11.5 -179.5t43.5 -149.5t96 -102t145 -38q97 0 178 53.5t133 153.5l27 -6q-61 -169 -181 -268t-292 -99q-147 0 -254 75t-151.5 213t-8.5 312q45 208 221.5 353t392.5 145q67 0 124 -13.5
t84 -27.5t50 -20.5t36.5 6.5t29.5 55h29l-33 -369h-29zM414 1174l268 337h217l137 -337l-22 -17l-246 236l-338 -236z" />
    <glyph glyph-name="Cdotaccent" unicode="&#x10a;" horiz-adv-x="1447" 
d="M1468 1481l-38 -445h-29q-19 181 -118 284t-259 103q-192 0 -347.5 -164.5t-211.5 -441.5q-21 -116 -19 -218.5t33 -188.5t81.5 -148t126 -96.5t167.5 -34.5q152 0 272 93.5t201 267.5l31 -7q-77 -238 -254 -377t-408 -139q-140 0 -256.5 60t-188 164.5t-100 246.5
t6.5 305q32 154 111 289.5t191 234t259 155.5t307 57q63 0 120.5 -11.5t91.5 -25.5t66 -24.5t52.5 -11.5t41.5 16t42 57h28zM889 1767q8 69 62.5 116.5t129.5 47.5t119.5 -47.5t36.5 -116.5q-9 -71 -64.5 -118t-128.5 -47q-75 0 -119 47t-36 118z" />
    <glyph glyph-name="cdotaccent" unicode="&#x10b;" horiz-adv-x="1060" 
d="M985 700q-17 148 -88 230t-176 82q-123 0 -225.5 -114t-139.5 -292q-22 -94 -11.5 -179.5t43.5 -149.5t96 -102t145 -38q97 0 178 53.5t133 153.5l27 -6q-61 -169 -181 -268t-292 -99q-147 0 -254 75t-151.5 213t-8.5 312q45 208 221.5 353t392.5 145q67 0 124 -13.5
t84 -27.5t50 -20.5t36.5 6.5t29.5 55h29l-33 -369h-29zM565 1356q8 69 63 116.5t130 47.5q74 0 118.5 -47t36.5 -117q-9 -71 -64 -118.5t-128 -47.5q-75 0 -119.5 47.5t-36.5 118.5z" />
    <glyph glyph-name="Ccaron" unicode="&#x10c;" horiz-adv-x="1447" 
d="M1468 1481l-38 -445h-29q-19 181 -118 284t-259 103q-192 0 -347.5 -164.5t-211.5 -441.5q-21 -116 -19 -218.5t33 -188.5t81.5 -148t126 -96.5t167.5 -34.5q152 0 272 93.5t201 267.5l31 -7q-77 -238 -254 -377t-408 -139q-140 0 -256.5 60t-188 164.5t-100 246.5
t6.5 305q32 154 111 289.5t191 234t259 155.5t307 57q63 0 120.5 -11.5t91.5 -25.5t66 -24.5t52.5 -11.5t41.5 16t42 57h28zM797 1909l22 14l240 -233l344 233l16 -14l-278 -340h-217z" />
    <glyph glyph-name="ccaron" unicode="&#x10d;" horiz-adv-x="1060" 
d="M985 700q-17 148 -88 230t-176 82q-123 0 -225.5 -114t-139.5 -292q-22 -94 -11.5 -179.5t43.5 -149.5t96 -102t145 -38q97 0 178 53.5t133 153.5l27 -6q-61 -169 -181 -268t-292 -99q-147 0 -254 75t-151.5 213t-8.5 312q45 208 221.5 353t392.5 145q67 0 124 -13.5
t84 -27.5t50 -20.5t36.5 6.5t29.5 55h29l-33 -369h-29zM473 1497l23 14l239 -233l344 233l17 -14l-279 -340h-217z" />
    <glyph glyph-name="Dcaron" unicode="&#x10e;" horiz-adv-x="1603" 
d="M899 1450q182 0 317.5 -48t219 -142.5t109 -235.5t-12.5 -328q-67 -316 -303 -506t-586 -190h-682l6 29q108 12 154 44.5t61 106.5l232 1090q17 74 -15 106.5t-135 44.5l6 29h629zM463 182q-24 -125 96 -125h72q205 0 377 185t235 471q65 313 -45 496.5t-346 183.5h-131z
M748 1909l22 14l240 -233l344 233l16 -14l-278 -340h-218z" />
    <glyph glyph-name="dcaron" unicode="&#x10f;" horiz-adv-x="1267" 
d="M389 -31q-195 0 -281 164t-30 422q50 229 222 371.5t402 142.5q59 0 112 -19.5t87 -52.5l47 220q14 74 -9.5 99t-88.5 19l6 29l385 117h29l-275 -1297q-10 -42 1.5 -67t39.5 -25q49 0 103 74l24 -10q-36 -58 -76 -98t-77 -57.5t-64 -24.5t-53 -7q-69 0 -120.5 48
t-47.5 135l10 57q-47 -103 -142 -171.5t-204 -68.5zM358 571q-21 -93 -19 -176t21.5 -145t65.5 -98.5t113 -36.5q61 0 117 40.5t89 104.5l101 467q12 76 4 139.5t-47.5 104.5t-102.5 41q-111 0 -206.5 -124.5t-135.5 -316.5zM1311 1157l127 412h237l-336 -412h-28z" />
    <glyph glyph-name="Dcroat" unicode="&#x110;" horiz-adv-x="1603" 
d="M899 1450q182 0 317.5 -48t219 -142.5t109 -235.5t-12.5 -328q-67 -316 -303 -506t-586 -190h-682l6 29q108 12 154 44.5t61 106.5l111 516h-195l13 58h192l111 516q17 74 -15 106.5t-135 44.5l6 29h629zM463 182q-24 -125 96 -125h72q205 0 377 185t235 471
q65 313 -45 496.5t-346 183.5h-131l-137 -639h250l-13 -58h-248z" />
    <glyph glyph-name="dcroat" unicode="&#x111;" horiz-adv-x="1267" 
d="M389 -31q-195 0 -281 164t-30 422q50 229 222 371.5t402 142.5q59 0 112 -19.5t87 -52.5l37 168h-231l12 58h231q12 69 -12.5 93.5t-87.5 18.5l6 29l385 117h29l-56 -258h228l-12 -58h-228l-207 -981q-10 -42 1.5 -67t39.5 -25q49 0 103 74l24 -10q-36 -58 -76 -98
t-77 -57.5t-64 -24.5t-53 -7q-69 0 -120.5 48t-47.5 135l10 57q-47 -103 -142 -171.5t-204 -68.5zM358 571q-21 -93 -19 -176t21.5 -145t65.5 -98.5t113 -36.5q61 0 117 40.5t89 104.5l101 467q12 76 4 139.5t-47.5 104.5t-102.5 41q-111 0 -206.5 -124.5t-135.5 -316.5z
" />
    <glyph glyph-name="Emacron" unicode="&#x112;" horiz-adv-x="1292" 
d="M1178 397h28l-135 -397h-1110l6 29q108 12 154 44.5t61 106.5l232 1090q17 74 -15 106.5t-135 44.5l6 29h914q113 0 135 31h29l-23 -428h-29q-6 182 -80.5 261t-240.5 79h-254l-133 -621h211q183 0 213 217h28l-43 -489h-28q3 215 -168 215h-226l-112 -535
q-14 -67 6.5 -95t87.5 -28h162q161 0 270.5 81t188.5 259zM596 1630l12 58h602l-12 -58h-602z" />
    <glyph glyph-name="emacron" unicode="&#x113;" horiz-adv-x="1083" 
d="M494 -31q-153 0 -261 78.5t-148.5 216.5t-4.5 309q45 209 219 351.5t395 142.5q214 0 297.5 -119.5t26.5 -324.5h-658q-21 -101 -11.5 -189.5t40.5 -154.5t93 -104t147 -38q89 0 172 55t133 146l27 -6q-63 -171 -179 -267t-288 -96zM373 674h399q20 82 18.5 156.5
t-36.5 127t-95 52.5q-100 0 -176 -94.5t-110 -241.5zM414 1219l12 57h602l-12 -57h-602z" />
    <glyph glyph-name="Ebreve" unicode="&#x114;" horiz-adv-x="1292" 
d="M1178 397h28l-135 -397h-1110l6 29q108 12 154 44.5t61 106.5l232 1090q17 74 -15 106.5t-135 44.5l6 29h914q113 0 135 31h29l-23 -428h-29q-6 182 -80.5 261t-240.5 79h-254l-133 -621h211q183 0 213 217h28l-43 -489h-28q3 215 -168 215h-226l-112 -535
q-14 -67 6.5 -95t87.5 -28h162q161 0 270.5 81t188.5 259zM696 1948h31q-1 -92 52 -145.5t147 -53.5q95 0 171 53.5t111 145.5h31q-31 -168 -122 -264.5t-220 -96.5q-131 0 -185 97t-16 264z" />
    <glyph glyph-name="ebreve" unicode="&#x115;" horiz-adv-x="1083" 
d="M494 -31q-153 0 -261 78.5t-148.5 216.5t-4.5 309q45 209 219 351.5t395 142.5q214 0 297.5 -119.5t26.5 -324.5h-658q-21 -101 -11.5 -189.5t40.5 -154.5t93 -104t147 -38q89 0 172 55t133 146l27 -6q-63 -171 -179 -267t-288 -96zM373 674h399q20 82 18.5 156.5
t-36.5 127t-95 52.5q-100 0 -176 -94.5t-110 -241.5zM512 1536h31q-2 -92 51 -145.5t147 -53.5q95 0 171.5 53.5t111.5 145.5h31q-31 -168 -122 -264t-220 -96q-131 0 -185 96.5t-16 263.5z" />
    <glyph glyph-name="Edotaccent" unicode="&#x116;" horiz-adv-x="1292" 
d="M1178 397h28l-135 -397h-1110l6 29q108 12 154 44.5t61 106.5l232 1090q17 74 -15 106.5t-135 44.5l6 29h914q113 0 135 31h29l-23 -428h-29q-6 182 -80.5 261t-240.5 79h-254l-133 -621h211q183 0 213 217h28l-43 -489h-28q3 215 -168 215h-226l-112 -535
q-14 -67 6.5 -95t87.5 -28h162q161 0 270.5 81t188.5 259zM737 1767q8 69 63 116.5t130 47.5q74 0 118.5 -47t36.5 -117q-9 -71 -64 -118t-128 -47q-75 0 -119.5 47t-36.5 118z" />
    <glyph glyph-name="edotaccent" unicode="&#x117;" horiz-adv-x="1083" 
d="M494 -31q-153 0 -261 78.5t-148.5 216.5t-4.5 309q45 209 219 351.5t395 142.5q214 0 297.5 -119.5t26.5 -324.5h-658q-21 -101 -11.5 -189.5t40.5 -154.5t93 -104t147 -38q89 0 172 55t133 146l27 -6q-63 -171 -179 -267t-288 -96zM373 674h399q20 82 18.5 156.5
t-36.5 127t-95 52.5q-100 0 -176 -94.5t-110 -241.5zM555 1356q8 69 63 116.5t130 47.5q74 0 118.5 -47t36.5 -117q-9 -71 -64 -118.5t-128 -47.5q-75 0 -119.5 47.5t-36.5 118.5z" />
    <glyph glyph-name="Eogonek" unicode="&#x118;" horiz-adv-x="1292" 
d="M1178 397h28l-135 -397h-119q-103 -78 -168 -155t-77 -138q-12 -53 13 -83t80 -26t122 46l14 -25q-49 -48 -118.5 -77t-127.5 -29q-100 0 -148.5 43t-31.5 116q35 161 358 328h-907l6 29q108 12 154 44.5t61 106.5l232 1090q17 74 -15 106.5t-135 44.5l6 29h914
q113 0 135 31h29l-23 -428h-29q-6 182 -80.5 261t-240.5 79h-254l-133 -621h211q183 0 213 217h28l-43 -489h-28q3 215 -168 215h-226l-112 -535q-14 -67 6.5 -95t87.5 -28h162q161 0 270.5 81t188.5 259z" />
    <glyph glyph-name="eogonek" unicode="&#x119;" horiz-adv-x="1083" 
d="M494 -31q-153 0 -261 78.5t-148.5 216.5t-4.5 309q45 209 219 351.5t395 142.5q214 0 297.5 -119.5t26.5 -324.5h-658q-21 -101 -11.5 -189.5t40.5 -154.5t93 -104t147 -38q89 0 172 55t133 146l27 -6q-95 -258 -297 -334q-87 -70 -142 -138.5t-65 -123.5
q-12 -53 13 -83.5t80 -26.5t122 46l14 -24q-50 -48 -119.5 -77.5t-126.5 -29.5q-100 0 -148.5 43.5t-31.5 116.5q29 134 254 268h-20zM373 674h399q20 82 18.5 156.5t-36.5 127t-95 52.5q-100 0 -176 -94.5t-110 -241.5z" />
    <glyph glyph-name="Ecaron" unicode="&#x11a;" horiz-adv-x="1292" 
d="M1178 397h28l-135 -397h-1110l6 29q108 12 154 44.5t61 106.5l232 1090q17 74 -15 106.5t-135 44.5l6 29h914q113 0 135 31h29l-23 -428h-29q-6 182 -80.5 261t-240.5 79h-254l-133 -621h211q183 0 213 217h28l-43 -489h-28q3 215 -168 215h-226l-112 -535
q-14 -67 6.5 -95t87.5 -28h162q161 0 270.5 81t188.5 259zM645 1909l23 14l239 -233l344 233l17 -14l-279 -340h-217z" />
    <glyph glyph-name="ecaron" unicode="&#x11b;" horiz-adv-x="1083" 
d="M494 -31q-153 0 -261 78.5t-148.5 216.5t-4.5 309q45 209 219 351.5t395 142.5q214 0 297.5 -119.5t26.5 -324.5h-658q-21 -101 -11.5 -189.5t40.5 -154.5t93 -104t147 -38q89 0 172 55t133 146l27 -6q-63 -171 -179 -267t-288 -96zM373 674h399q20 82 18.5 156.5
t-36.5 127t-95 52.5q-100 0 -176 -94.5t-110 -241.5zM463 1497l22 14l240 -233l344 233l16 -14l-278 -340h-217z" />
    <glyph glyph-name="Gcircumflex" unicode="&#x11c;" horiz-adv-x="1546" 
d="M707 -31q-195 0 -336 103.5t-197.5 285t-11.5 400.5q30 148 113 281t199 230.5t264 154.5t302 57q61 0 118 -11.5t91 -25.5t66 -25t53 -12t42.5 16.5t41.5 57.5h27l-39 -445h-29q-63 387 -385 387q-181 0 -343.5 -175.5t-217.5 -442.5q-43 -233 -18.5 -404t112 -268.5
t217.5 -97.5q129 0 203 69l88 404q19 89 -17.5 138.5t-125.5 53.5l6 31h641l-8 -31q-179 -12 -217 -192l-58 -258q-106 -127 -260 -204t-321 -77zM733 1585l268 338h218l137 -338l-23 -16l-246 235l-337 -235z" />
    <glyph glyph-name="gcircumflex" unicode="&#x11d;" horiz-adv-x="1134" 
d="M354 -434q-199 0 -306 52.5t-107 143.5q0 163 221 220q-70 24 -95.5 81.5t-11.5 131.5q14 70 70 127.5t147 93.5q-74 47 -107 123t-11 178q32 149 174 250.5t338 101.5q52 0 112 -2t98 -3.5t80.5 -2t68.5 1.5t52.5 7.5t42.5 16t28 27.5t19 41h25l-21 -186q-80 0 -294 47
q105 -44 143.5 -127t15.5 -187q-33 -150 -173.5 -250t-336.5 -100q-125 0 -221 45q-70 -39 -84 -98q-13 -69 47 -95t170 -1l82 18q163 32 273 10t159 -102t23 -203q-32 -158 -206 -259t-415 -101zM127 -219q14 -73 89 -115.5t196 -42.5q147 0 251.5 60t124.5 159
q22 99 -60.5 143t-229.5 15l-82 -18q-147 -26 -211 -11q-92 -95 -78 -190zM416 1174l268 337h217l137 -337l-22 -17l-246 236l-338 -236zM430 778q-21 -106 -14.5 -189.5t43.5 -134.5t96 -51q70 0 124.5 66.5t78.5 175.5q34 157 0.5 265t-119.5 108q-70 0 -128 -67t-81 -173
z" />
    <glyph glyph-name="Gbreve" unicode="&#x11e;" horiz-adv-x="1546" 
d="M707 -31q-195 0 -336 103.5t-197.5 285t-11.5 400.5q30 148 113 281t199 230.5t264 154.5t302 57q61 0 118 -11.5t91 -25.5t66 -25t53 -12t42.5 16.5t41.5 57.5h27l-39 -445h-29q-63 387 -385 387q-181 0 -343.5 -175.5t-217.5 -442.5q-43 -233 -18.5 -404t112 -268.5
t217.5 -97.5q129 0 203 69l88 404q19 89 -17.5 138.5t-125.5 53.5l6 31h641l-8 -31q-179 -12 -217 -192l-58 -258q-106 -127 -260 -204t-321 -77zM842 1948h30q-2 -92 51.5 -145.5t147.5 -53.5q95 0 171.5 53.5t111.5 145.5h30q-31 -168 -122 -264.5t-220 -96.5
q-131 0 -184.5 97t-15.5 264z" />
    <glyph glyph-name="gbreve" unicode="&#x11f;" horiz-adv-x="1134" 
d="M354 -434q-199 0 -306 52.5t-107 143.5q0 163 221 220q-70 24 -95.5 81.5t-11.5 131.5q14 70 70 127.5t147 93.5q-74 47 -107 123t-11 178q32 149 174 250.5t338 101.5q52 0 112 -2t98 -3.5t80.5 -2t68.5 1.5t52.5 7.5t42.5 16t28 27.5t19 41h25l-21 -186q-80 0 -294 47
q105 -44 143.5 -127t15.5 -187q-33 -150 -173.5 -250t-336.5 -100q-125 0 -221 45q-70 -39 -84 -98q-13 -69 47 -95t170 -1l82 18q163 32 273 10t159 -102t23 -203q-32 -158 -206 -259t-415 -101zM127 -219q14 -73 89 -115.5t196 -42.5q147 0 251.5 60t124.5 159
q22 99 -60.5 143t-229.5 15l-82 -18q-147 -26 -211 -11q-92 -95 -78 -190zM430 778q-21 -106 -14.5 -189.5t43.5 -134.5t96 -51q70 0 124.5 66.5t78.5 175.5q34 157 0.5 265t-119.5 108q-70 0 -128 -67t-81 -173zM524 1536h31q-1 -92 52 -145.5t147 -53.5q95 0 171 53.5
t111 145.5h31q-31 -168 -122 -264t-220 -96q-131 0 -185 96.5t-16 263.5z" />
    <glyph glyph-name="Gdotaccent" unicode="&#x120;" horiz-adv-x="1546" 
d="M707 -31q-195 0 -336 103.5t-197.5 285t-11.5 400.5q30 148 113 281t199 230.5t264 154.5t302 57q61 0 118 -11.5t91 -25.5t66 -25t53 -12t42.5 16.5t41.5 57.5h27l-39 -445h-29q-63 387 -385 387q-181 0 -343.5 -175.5t-217.5 -442.5q-43 -233 -18.5 -404t112 -268.5
t217.5 -97.5q129 0 203 69l88 404q19 89 -17.5 138.5t-125.5 53.5l6 31h641l-8 -31q-179 -12 -217 -192l-58 -258q-106 -127 -260 -204t-321 -77zM885 1767q8 69 62.5 116.5t129.5 47.5t119.5 -47.5t36.5 -116.5q-9 -71 -64.5 -118t-128.5 -47q-75 0 -119 47t-36 118z" />
    <glyph glyph-name="gdotaccent" unicode="&#x121;" horiz-adv-x="1134" 
d="M354 -434q-199 0 -306 52.5t-107 143.5q0 163 221 220q-70 24 -95.5 81.5t-11.5 131.5q14 70 70 127.5t147 93.5q-74 47 -107 123t-11 178q32 149 174 250.5t338 101.5q52 0 112 -2t98 -3.5t80.5 -2t68.5 1.5t52.5 7.5t42.5 16t28 27.5t19 41h25l-21 -186q-80 0 -294 47
q105 -44 143.5 -127t15.5 -187q-33 -150 -173.5 -250t-336.5 -100q-125 0 -221 45q-70 -39 -84 -98q-13 -69 47 -95t170 -1l82 18q163 32 273 10t159 -102t23 -203q-32 -158 -206 -259t-415 -101zM127 -219q14 -73 89 -115.5t196 -42.5q147 0 251.5 60t124.5 159
q22 99 -60.5 143t-229.5 15l-82 -18q-147 -26 -211 -11q-92 -95 -78 -190zM430 778q-21 -106 -14.5 -189.5t43.5 -134.5t96 -51q70 0 124.5 66.5t78.5 175.5q34 157 0.5 265t-119.5 108q-70 0 -128 -67t-81 -173zM567 1356q8 69 63 116.5t130 47.5q74 0 118.5 -47t36.5 -117
q-9 -71 -64 -118.5t-128 -47.5q-75 0 -119.5 47.5t-36.5 118.5z" />
    <glyph glyph-name="uni0122" unicode="&#x122;" horiz-adv-x="1546" 
d="M707 -31q-195 0 -336 103.5t-197.5 285t-11.5 400.5q30 148 113 281t199 230.5t264 154.5t302 57q61 0 118 -11.5t91 -25.5t66 -25t53 -12t42.5 16.5t41.5 57.5h27l-39 -445h-29q-63 387 -385 387q-181 0 -343.5 -175.5t-217.5 -442.5q-43 -233 -18.5 -404t112 -268.5
t217.5 -97.5q129 0 203 69l88 404q19 89 -17.5 138.5t-125.5 53.5l6 31h641l-8 -31q-179 -12 -217 -192l-58 -258q-106 -127 -260 -204t-321 -77zM424 -573v16q69 30 126.5 74t82.5 92q-8 -2 -23 -2q-59 0 -97.5 41.5t-25.5 107.5q11 57 57 94t109 37q80 0 119.5 -46.5
t20.5 -125.5q-24 -116 -124.5 -191.5t-244.5 -96.5z" />
    <glyph glyph-name="uni0123" unicode="&#x123;" horiz-adv-x="1134" 
d="M354 -434q-199 0 -306 52.5t-107 143.5q0 163 221 220q-70 24 -95.5 81.5t-11.5 131.5q14 70 70 127.5t147 93.5q-74 47 -107 123t-11 178q32 149 174 250.5t338 101.5q52 0 112 -2t98 -3.5t80.5 -2t68.5 1.5t52.5 7.5t42.5 16t28 27.5t19 41h25l-21 -186q-80 0 -294 47
q105 -44 143.5 -127t15.5 -187q-33 -150 -173.5 -250t-336.5 -100q-125 0 -221 45q-70 -39 -84 -98q-13 -69 47 -95t170 -1l82 18q163 32 273 10t159 -102t23 -203q-32 -158 -206 -259t-415 -101zM127 -219q14 -73 89 -115.5t196 -42.5q147 0 251.5 60t124.5 159
q22 99 -60.5 143t-229.5 15l-82 -18q-147 -26 -211 -11q-92 -95 -78 -190zM430 778q-21 -106 -14.5 -189.5t43.5 -134.5t96 -51q70 0 124.5 66.5t78.5 175.5q34 157 0.5 265t-119.5 108q-70 0 -128 -67t-81 -173zM588 1378q21 103 122.5 176.5t243.5 94.5v-17
q-71 -30 -129 -75t-82 -95q18 6 39 6q58 0 91 -40.5t20 -104.5q-14 -60 -58.5 -97.5t-107.5 -37.5q-78 0 -118.5 50t-20.5 140z" />
    <glyph glyph-name="Hcircumflex" unicode="&#x124;" horiz-adv-x="1693" 
d="M1167 1421l7 29h645l-7 -29q-107 -12 -153.5 -44.5t-61.5 -106.5l-231 -1090q-17 -73 15.5 -106t134.5 -45l-7 -29h-645l6 29q108 12 154 44.5t61 106.5l115 535h-625l-112 -535q-17 -73 15.5 -106t133.5 -45l-6 -29h-645l6 29q108 12 154 44.5t61 106.5l232 1090
q17 74 -15 106.5t-135 44.5l6 29h645l-6 -29q-107 -12 -153.5 -44.5t-61.5 -106.5l-106 -498h624l105 498q17 74 -15 106.5t-135 44.5zM764 1585l268 338h217l137 -338l-22 -16l-246 235l-338 -235z" />
    <glyph glyph-name="hcircumflex" unicode="&#x125;" horiz-adv-x="1249" 
d="M-55 29q73 12 106 40.5t45 90.5l223 1057q17 73 -7 98.5t-89 19.5l6 29l385 117h29l-137 -645q109 113 202.5 172t188.5 59q146 0 208 -94.5t28 -253.5l-117 -559q-14 -62 6.5 -90.5t87.5 -40.5l-6 -29h-514l6 29q75 12 108.5 40.5t45.5 90.5l114 536q21 96 -16.5 148.5
t-112.5 52.5q-60 0 -113 -29t-130 -92l-130 -616q-14 -62 7 -90.5t88 -40.5l-6 -29h-512zM231 1516l269 337h217l137 -337l-23 -17l-245 236l-338 -236z" />
    <glyph glyph-name="Hbar" unicode="&#x126;" horiz-adv-x="1693" 
d="M1167 1421l7 29h645l-7 -29q-107 -12 -153.5 -44.5t-61.5 -106.5l-41 -191h218l-13 -57h-217l-178 -842q-17 -73 15.5 -106t134.5 -45l-7 -29h-645l6 29q108 12 154 44.5t61 106.5l115 535h-625l-112 -535q-17 -73 15.5 -106t133.5 -45l-6 -29h-645l6 29q108 12 154 44.5
t61 106.5l178 842h-229l12 57h230l41 191q17 74 -15 106.5t-135 44.5l6 29h645l-6 -29q-107 -12 -153.5 -44.5t-61.5 -106.5l-41 -191h623l41 191q17 74 -15 106.5t-135 44.5zM588 772h624l54 250h-625z" />
    <glyph glyph-name="hbar" unicode="&#x127;" horiz-adv-x="1249" 
d="M-55 29q73 12 106 40.5t45 90.5l213 1005h-217l12 58h218q13 69 -11.5 93.5t-87.5 18.5l6 29l385 117h29l-55 -258h239l-12 -58h-240l-69 -329q109 113 202.5 172t188.5 59q146 0 208 -94.5t28 -253.5l-117 -559q-14 -62 6.5 -90.5t87.5 -40.5l-6 -29h-514l6 29
q75 12 108.5 40.5t45.5 90.5l114 536q21 96 -16.5 148.5t-112.5 52.5q-60 0 -113 -29t-130 -92l-130 -616q-14 -62 7 -90.5t88 -40.5l-6 -29h-512z" />
    <glyph glyph-name="Itilde" unicode="&#x128;" horiz-adv-x="790" 
d="M463 180q-17 -73 15.5 -106t133.5 -45l-6 -29h-645l6 29q108 12 154 44.5t61 106.5l232 1090q17 74 -15 106.5t-135 44.5l6 29h645l-6 -29q-107 -12 -153.5 -44.5t-61.5 -106.5zM299 1577q32 143 86 220t145 77q44 0 101 -28t112 -56.5t93 -28.5q80 0 129 123l30 -4
q-32 -142 -86 -218.5t-145 -76.5q-42 0 -100.5 28.5t-114 56.5t-90.5 28q-81 0 -129 -125z" />
    <glyph glyph-name="itilde" unicode="&#x129;" horiz-adv-x="618" 
d="M362 160q-14 -62 7 -90.5t88 -40.5l-6 -29h-512l6 29q73 12 106 40.5t45 90.5l137 643q16 74 -8 100t-90 21l6 28l385 117h29zM121 1165q32 143 86 220t145 77q53 0 156.5 -56t148.5 -56q80 0 129 123l31 -5q-32 -142 -86 -218t-145 -76q-42 0 -100.5 28t-114 56
t-90.5 28q-81 0 -129 -125z" />
    <glyph glyph-name="Imacron" unicode="&#x12a;" horiz-adv-x="790" 
d="M463 180q-17 -73 15.5 -106t133.5 -45l-6 -29h-645l6 29q108 12 154 44.5t61 106.5l232 1090q17 74 -15 106.5t-135 44.5l6 29h645l-6 -29q-107 -12 -153.5 -44.5t-61.5 -106.5zM330 1630l12 58h602l-12 -58h-602z" />
    <glyph glyph-name="imacron" unicode="&#x12b;" horiz-adv-x="618" 
d="M362 160q-14 -62 7 -90.5t88 -40.5l-6 -29h-512l6 29q73 12 106 40.5t45 90.5l137 643q16 74 -8 100t-90 21l6 28l385 117h29zM152 1219l12 57h602l-12 -57h-602z" />
    <glyph glyph-name="Ibreve" unicode="&#x12c;" horiz-adv-x="790" 
d="M463 180q-17 -73 15.5 -106t133.5 -45l-6 -29h-645l6 29q108 12 154 44.5t61 106.5l232 1090q17 74 -15 106.5t-135 44.5l6 29h645l-6 -29q-107 -12 -153.5 -44.5t-61.5 -106.5zM428 1948h31q-2 -92 51 -145.5t147 -53.5q95 0 171.5 53.5t111.5 145.5h31
q-31 -168 -122 -264.5t-220 -96.5q-131 0 -185 97t-16 264z" />
    <glyph glyph-name="ibreve" unicode="&#x12d;" horiz-adv-x="618" 
d="M362 160q-14 -62 7 -90.5t88 -40.5l-6 -29h-512l6 29q73 12 106 40.5t45 90.5l137 643q16 74 -8 100t-90 21l6 28l385 117h29zM250 1536h31q-2 -92 51 -145.5t147 -53.5q95 0 171.5 53.5t111.5 145.5h31q-31 -168 -122 -264t-220 -96q-131 0 -185 96.5t-16 263.5z" />
    <glyph glyph-name="Iogonek" unicode="&#x12e;" horiz-adv-x="790" 
d="M463 180q-17 -73 15.5 -106t133.5 -45l-6 -29h-194q-103 -78 -168.5 -155t-77.5 -138q-12 -53 13 -83t80 -26t122 46l14 -25q-50 -48 -119 -77t-126 -29q-100 0 -149 43t-32 116q35 160 359 328h-367l6 29q108 12 154 44.5t61 106.5l232 1090q17 74 -15 106.5t-135 44.5
l6 29h645l-6 -29q-107 -12 -153.5 -44.5t-61.5 -106.5z" />
    <glyph glyph-name="iogonek" unicode="&#x12f;" horiz-adv-x="618" 
d="M362 160q-14 -62 7 -90.5t88 -40.5l-6 -29h-179q-89 -71 -144 -140t-65 -124q-12 -53 13 -83.5t80.5 -26.5t122.5 46l14 -24q-50 -48 -119.5 -77.5t-126.5 -29.5q-100 0 -148.5 43.5t-31.5 116.5q32 145 305 299h-233l6 29q73 12 106 40.5t45 90.5l137 643q16 74 -8 100
t-90 21l6 28l385 117h29zM293 1356q8 69 62.5 116.5t129.5 47.5t119.5 -47.5t36.5 -116.5q-9 -71 -64 -118.5t-128 -47.5q-75 0 -119.5 47.5t-36.5 118.5z" />
    <glyph glyph-name="Idotaccent" unicode="&#x130;" horiz-adv-x="790" 
d="M463 180q-17 -73 15.5 -106t133.5 -45l-6 -29h-645l6 29q108 12 154 44.5t61 106.5l232 1090q17 74 -15 106.5t-135 44.5l6 29h645l-6 -29q-107 -12 -153.5 -44.5t-61.5 -106.5zM471 1767q8 69 63 116.5t130 47.5q74 0 118.5 -47t36.5 -117q-9 -71 -64 -118t-128 -47
q-75 0 -119.5 47t-36.5 118z" />
    <glyph glyph-name="dotlessi" unicode="&#x131;" horiz-adv-x="618" 
d="M362 160q-14 -62 7 -90.5t88 -40.5l-6 -29h-512l6 29q73 12 106 40.5t45 90.5l137 643q16 74 -8 100t-90 21l6 28l385 117h29z" />
    <glyph glyph-name="IJ" unicode="&#x132;" horiz-adv-x="1943" 
d="M463 180q-17 -73 15.5 -106t133.5 -45l-6 -29h-645l6 29q108 12 154 44.5t61 106.5l232 1090q17 74 -15 106.5t-135 44.5l6 29h645l-6 -29q-107 -12 -153.5 -44.5t-61.5 -106.5zM774 285q14 62 54.5 99.5t97.5 37.5q62 0 91.5 -37.5t16.5 -101.5q-3 -18 -15 -51.5
t-15 -49.5q-13 -67 32 -110t125 -43q177 0 238 284l200 957q17 74 -15 106.5t-134 44.5l6 29h645l-6 -29q-107 -12 -153.5 -44.5t-61.5 -106.5l-182 -862q-45 -212 -192 -325.5t-367 -113.5q-78 0 -149 21t-125.5 59t-80 99.5t-10.5 136.5z" />
    <glyph glyph-name="ij" unicode="&#x133;" horiz-adv-x="1218" 
d="M362 160q-14 -62 7 -90.5t88 -40.5l-6 -29h-512l6 29q73 12 106 40.5t45 90.5l137 643q16 74 -8 100t-90 21l6 28l385 117h29zM293 1356q8 69 62.5 116.5t129.5 47.5t119.5 -47.5t36.5 -116.5q-9 -71 -64 -118.5t-128 -47.5q-75 0 -119.5 47.5t-36.5 118.5zM399 -410
q56 22 94.5 46.5t79.5 70.5t71.5 123t53.5 188l168 785q16 74 -8 100t-90 21l6 28l385 117h29l-203 -954q-18 -84 -44 -150.5t-70.5 -130t-106.5 -111.5t-152.5 -88.5t-208.5 -68.5zM913 1356q8 69 63 116.5t130 47.5t119.5 -47.5t36.5 -116.5q-9 -71 -64.5 -118.5
t-128.5 -47.5q-75 0 -119.5 47.5t-36.5 118.5z" />
    <glyph glyph-name="Jcircumflex" unicode="&#x134;" horiz-adv-x="1163" 
d="M356 -31q-78 0 -149 21t-125 59t-79.5 99.5t-10.5 136.5q14 62 54 99.5t97 37.5q62 0 92 -37.5t17 -101.5q-3 -18 -15.5 -51.5t-15.5 -49.5q-13 -67 32.5 -110t125.5 -43q176 0 237 284l201 957q17 74 -15 106.5t-134 44.5l6 29h645l-6 -29q-107 -12 -153.5 -44.5
t-61.5 -106.5l-183 -862q-45 -212 -192 -325.5t-367 -113.5zM715 1585l268 338h217l137 -338l-22 -16l-246 235l-338 -235z" />
    <glyph glyph-name="jcircumflex" unicode="&#x135;" horiz-adv-x="630" 
d="M571 1069h29l-203 -954q-23 -107 -59.5 -186.5t-102 -151.5t-169.5 -124.5t-250 -86.5l-4 24q56 22 94.5 46.5t79.5 70.5t71.5 123t53.5 188l168 785q16 74 -8.5 100t-90.5 21l6 28zM176 1174l268 337h218l137 -337l-23 -17l-246 236l-337 -236z" />
    <glyph glyph-name="uni0136" unicode="&#x136;" horiz-adv-x="1566" 
d="M-33 29q108 12 154 44.5t61 106.5l232 1090q17 74 -15 106.5t-135 44.5l6 29h645l-6 -29q-107 -12 -153.5 -44.5t-61.5 -106.5l-119 -563l695 583q66 54 50 89.5t-118 39.5l6 31h443l-6 -31q-68 -5 -152 -44t-162 -105l-348 -295l264 -768q24 -74 81.5 -122t125.5 -54
l-8 -31h-459q13 56 -18 166l-209 629l-203 -174l-94 -441q-17 -73 15.5 -106t133.5 -45l-6 -29h-645zM418 -573v16q69 30 126.5 74t82.5 92q-8 -2 -23 -2q-59 0 -97.5 41.5t-25.5 107.5q11 57 57 94t109 37q80 0 119 -46.5t20 -125.5q-24 -116 -124.5 -191.5t-243.5 -96.5z
" />
    <glyph glyph-name="uni0137" unicode="&#x137;" horiz-adv-x="1220" 
d="M1288 1010q-84 -10 -151.5 -42.5t-173.5 -109.5l-154 -119l166 -579q20 -63 48.5 -93.5t82.5 -37.5l-6 -29h-406q15 48 -12 139l-121 420l-137 -106l-62 -293q-14 -62 7 -90.5t88 -40.5l-6 -29h-512l6 29q73 12 106 40.5t45 90.5l223 1057q17 73 -7 98.5t-89 19.5l6 29
l385 117h29l-203 -953l457 346q69 47 64 88.5t-87 47.5l7 28h413zM248 -573v16q69 30 126.5 74t82.5 92q-8 -2 -23 -2q-59 0 -97.5 41.5t-25.5 107.5q11 57 57 94t109 37q80 0 119 -46.5t20 -125.5q-24 -116 -124.5 -191.5t-243.5 -96.5z" />
    <glyph glyph-name="kgreenlandic" unicode="&#x138;" horiz-adv-x="1220" 
d="M1288 1010q-84 -10 -151.5 -42.5t-173.5 -109.5l-154 -119l166 -579q22 -63 49.5 -93.5t81.5 -37.5l-6 -29h-406q15 48 -12 139l-121 420l-137 -106l-62 -293q-14 -62 7 -90.5t88 -40.5l-6 -29h-512l6 29q73 12 106 40.5t45 90.5l137 643q16 74 -8 100t-90 21l6 28
l385 117h29l-115 -541l457 346q69 49 64 89.5t-87 46.5l7 28h413z" />
    <glyph glyph-name="Lacute" unicode="&#x139;" horiz-adv-x="1265" 
d="M1171 397h29l-137 -397h-1102l6 29q108 12 154 44.5t61 106.5l232 1090q17 74 -15 106.5t-135 44.5l6 29h645l-6 -29q-107 -12 -153.5 -44.5t-61.5 -106.5l-231 -1090q-14 -67 6.5 -95t87.5 -28h154q162 0 270 80.5t190 259.5zM606 1569l209 352h305l-485 -352h-29z" />
    <glyph glyph-name="lacute" unicode="&#x13a;" horiz-adv-x="618" 
d="M362 160q-14 -62 7 -90.5t88 -40.5l-6 -29h-512l6 29q73 12 106 40.5t45 90.5l223 1057q17 73 -7 98.5t-89 19.5l6 29l385 117h29zM469 1538l209 352h305l-485 -352h-29z" />
    <glyph glyph-name="uni013B" unicode="&#x13b;" horiz-adv-x="1265" 
d="M1171 397h29l-137 -397h-1102l6 29q108 12 154 44.5t61 106.5l232 1090q17 74 -15 106.5t-135 44.5l6 29h645l-6 -29q-107 -12 -153.5 -44.5t-61.5 -106.5l-231 -1090q-14 -67 6.5 -95t87.5 -28h154q162 0 270 80.5t190 259.5zM238 -573v16q69 30 126 73.5t82 92.5
q-8 -2 -22 -2q-59 0 -97.5 41.5t-25.5 107.5q11 57 57 94t109 37q80 0 119 -46.5t20 -125.5q-24 -116 -124.5 -191.5t-243.5 -96.5z" />
    <glyph glyph-name="uni013C" unicode="&#x13c;" horiz-adv-x="618" 
d="M362 160q-14 -62 7 -90.5t88 -40.5l-6 -29h-512l6 29q73 12 106 40.5t45 90.5l223 1057q17 73 -7 98.5t-89 19.5l6 29l385 117h29zM-78 -573v16q69 30 126.5 74t82.5 92q-8 -2 -22 -2q-59 0 -97.5 41.5t-25.5 107.5q11 57 57 94t109 37q80 0 119 -46.5t20 -125.5
q-24 -116 -124.5 -191.5t-244.5 -96.5z" />
    <glyph glyph-name="Lcaron" unicode="&#x13d;" horiz-adv-x="1265" 
d="M1171 397h29l-137 -397h-1102l6 29q108 12 154 44.5t61 106.5l232 1090q17 74 -15 106.5t-135 44.5l6 29h645l-6 -29q-107 -12 -153.5 -44.5t-61.5 -106.5l-231 -1090q-14 -67 6.5 -95t87.5 -28h154q162 0 270 80.5t190 259.5zM979 1219l127 411h237l-335 -411h-29z" />
    <glyph glyph-name="lcaron" unicode="&#x13e;" horiz-adv-x="618" 
d="M362 160q-14 -62 7 -90.5t88 -40.5l-6 -29h-512l6 29q73 12 106 40.5t45 90.5l223 1057q17 73 -7 98.5t-89 19.5l6 29l385 117h29zM684 1157l127 412h238l-336 -412h-29z" />
    <glyph glyph-name="Ldot" unicode="&#x13f;" horiz-adv-x="1265" 
d="M1171 397h29l-137 -397h-1102l6 29q108 12 154 44.5t61 106.5l232 1090q17 74 -15 106.5t-135 44.5l6 29h645l-6 -29q-107 -12 -153.5 -44.5t-61.5 -106.5l-231 -1090q-14 -67 6.5 -95t87.5 -28h154q162 0 270 80.5t190 259.5zM879 739q6 65 56 110.5t116 45.5
q68 0 108.5 -45.5t32.5 -110.5q-7 -66 -58 -110.5t-116 -44.5q-67 0 -107.5 44.5t-31.5 110.5z" />
    <glyph glyph-name="ldot" unicode="&#x140;" horiz-adv-x="671" 
d="M362 160q-14 -62 7 -90.5t88 -40.5l-6 -29h-512l6 29q73 12 106 40.5t45 90.5l223 1057q17 73 -7 98.5t-89 19.5l6 29l385 117h29zM625 739q6 65 56 110.5t116 45.5q68 0 108.5 -45.5t32.5 -110.5q-7 -66 -58 -110.5t-116 -44.5q-67 0 -107.5 44.5t-31.5 110.5z" />
    <glyph glyph-name="Lslash" unicode="&#x141;" horiz-adv-x="1265" 
d="M82 571l203 91l129 608q17 74 -15 106.5t-135 44.5l6 29h645l-6 -29q-107 -12 -153.5 -44.5t-61.5 -106.5l-100 -471l379 168l-15 -62l-376 -166l-119 -559q-14 -67 6.5 -95t87.5 -28h154q162 0 270 80.5t190 259.5h29l-137 -397h-1102l6 29q108 12 154 44.5t61 106.5
l90 422l-202 -90z" />
    <glyph glyph-name="lslash" unicode="&#x142;" horiz-adv-x="618" 
d="M61 578l15 59l133 59l110 521q17 73 -7 98.5t-89 19.5l6 29l385 117h29l-139 -654l162 72l-15 -59l-159 -72l-130 -608q-14 -62 7 -90.5t88 -40.5l-6 -29h-512l6 29q73 12 106 40.5t45 90.5l101 477z" />
    <glyph glyph-name="Nacute" unicode="&#x143;" horiz-adv-x="1517" 
d="M1217 1421l6 29h422l-7 -29q-107 -12 -153.5 -44.5t-61.5 -106.5l-270 -1270h-39l-653 1217l-221 -1037q-15 -74 16 -106.5t133 -44.5l-6 -29h-422l6 29q108 12 154 44.5t61 106.5l232 1090q17 75 -14.5 108t-133.5 43l6 29h375l539 -1028l180 848q15 74 -16 106.5
t-133 44.5zM993 1569l209 352h305l-485 -352h-29z" />
    <glyph glyph-name="nacute" unicode="&#x144;" horiz-adv-x="1249" 
d="M-55 29q73 12 106 40.5t45 90.5l137 643q16 74 -8 100t-90 21l6 28l385 117h29l-49 -231q112 115 203 172t186 57q148 0 210 -95t28 -253l-117 -559q-14 -62 6.5 -90.5t87.5 -40.5l-6 -29h-514l6 29q75 12 108.5 40.5t45.5 90.5l114 536q20 93 -16 147t-115 54
q-58 0 -112 -28.5t-127 -90.5l-132 -618q-14 -62 7 -90.5t88 -40.5l-6 -29h-512zM756 1157l209 352h305l-486 -352h-28z" />
    <glyph glyph-name="uni0145" unicode="&#x145;" horiz-adv-x="1517" 
d="M1217 1421l6 29h422l-7 -29q-107 -12 -153.5 -44.5t-61.5 -106.5l-270 -1270h-39l-653 1217l-221 -1037q-15 -74 16 -106.5t133 -44.5l-6 -29h-422l6 29q108 12 154 44.5t61 106.5l232 1090q17 75 -14.5 108t-133.5 43l6 29h375l539 -1028l180 848q15 74 -16 106.5
t-133 44.5zM428 -573v16q69 30 126.5 74t82.5 92q-8 -2 -23 -2q-59 0 -97 41.5t-25 107.5q11 57 56.5 94t108.5 37q80 0 119.5 -46.5t20.5 -125.5q-24 -116 -124.5 -191.5t-244.5 -96.5z" />
    <glyph glyph-name="uni0146" unicode="&#x146;" horiz-adv-x="1249" 
d="M-55 29q73 12 106 40.5t45 90.5l137 643q16 74 -8 100t-90 21l6 28l385 117h29l-49 -231q112 115 203 172t186 57q148 0 210 -95t28 -253l-117 -559q-14 -62 6.5 -90.5t87.5 -40.5l-6 -29h-514l6 29q75 12 108.5 40.5t45.5 90.5l114 536q20 93 -16 147t-115 54
q-58 0 -112 -28.5t-127 -90.5l-132 -618q-14 -62 7 -90.5t88 -40.5l-6 -29h-512zM248 -573v16q69 30 126.5 74t82.5 92q-8 -2 -23 -2q-59 0 -97.5 41.5t-25.5 107.5q11 57 57 94t109 37q80 0 119 -46.5t20 -125.5q-24 -116 -124.5 -191.5t-243.5 -96.5z" />
    <glyph glyph-name="Ncaron" unicode="&#x147;" horiz-adv-x="1517" 
d="M1217 1421l6 29h422l-7 -29q-107 -12 -153.5 -44.5t-61.5 -106.5l-270 -1270h-39l-653 1217l-221 -1037q-15 -74 16 -106.5t133 -44.5l-6 -29h-422l6 29q108 12 154 44.5t61 106.5l232 1090q17 75 -14.5 108t-133.5 43l6 29h375l539 -1028l180 848q15 74 -16 106.5
t-133 44.5zM766 1909l22 14l240 -233l344 233l17 -14l-279 -340h-217z" />
    <glyph glyph-name="ncaron" unicode="&#x148;" horiz-adv-x="1249" 
d="M-55 29q73 12 106 40.5t45 90.5l137 643q16 74 -8 100t-90 21l6 28l385 117h29l-49 -231q112 115 203 172t186 57q148 0 210 -95t28 -253l-117 -559q-14 -62 6.5 -90.5t87.5 -40.5l-6 -29h-514l6 29q75 12 108.5 40.5t45.5 90.5l114 536q20 93 -16 147t-115 54
q-58 0 -112 -28.5t-127 -90.5l-132 -618q-14 -62 7 -90.5t88 -40.5l-6 -29h-512zM528 1497l23 14l240 -233l344 233l16 -14l-279 -340h-217z" />
    <glyph glyph-name="napostrophe" unicode="&#x149;" horiz-adv-x="1249" 
d="M864 696q20 92 -16 143.5t-115 51.5q-60 0 -115.5 -26t-123.5 -83l-45 -219l-87 -403q-14 -62 7 -90.5t88 -40.5l-6 -29h-512l6 29q73 12 106 40.5t45 90.5l68 317l69 326q16 74 -8 100t-90 21l6 28l385 117h29l-49 -231q109 110 205 169.5t192 59.5q149 0 207 -93.5
t23 -254.5l-31 -156l-12 -61l-3 -6l-71 -336q-14 -62 6.5 -90.5t87.5 -40.5l-6 -29h-514l6 29q75 12 108.5 40.5t45.5 90.5l86 403zM641 1196q90 40 159 99.5t85 127.5q-78 -20 -131.5 23.5t-38.5 114.5q12 59 68.5 100t125.5 41q79 0 116 -49.5t22 -128.5
q-30 -140 -138.5 -228.5t-265.5 -119.5z" />
    <glyph glyph-name="Eng" unicode="&#x14a;" horiz-adv-x="1517" 
d="M1217 1421l6 29h422l-7 -29q-108 -12 -154 -44t-61 -107l-235 -1110l-39 -176q-42 -200 -177.5 -324.5t-295.5 -124.5q-100 0 -158 45t-43 115q12 56 54.5 91.5t99.5 35.5q39 0 103.5 -37.5t115.5 -36.5q92 0 156.5 58t87.5 169l10 48l-641 1194l-221 -1037
q-15 -74 16 -106.5t133 -44.5l-6 -29h-422l6 29q108 12 154 44.5t61 106.5l232 1090q17 75 -14.5 108t-133.5 43l6 29h375l539 -1028l180 848q15 75 -16 107t-133 44z" />
    <glyph glyph-name="eng" unicode="&#x14b;" horiz-adv-x="1236" 
d="M416 -401q57 35 90.5 59t71.5 61.5t62 81t47 109t42 153.5l135 633q20 93 -16 147t-115 54q-58 0 -112 -28.5t-127 -90.5l-132 -618q-14 -62 7 -90.5t88 -40.5l-6 -29h-512l6 29q73 12 106 40.5t45 90.5l137 643q16 74 -8 100t-90 21l6 28l385 117h29l-49 -231
q112 115 203 172t186 57q148 0 210 -95t28 -253l-119 -567q-20 -95 -58.5 -174t-106 -154.5t-175.5 -137.5t-254 -106z" />
    <glyph glyph-name="Omacron" unicode="&#x14c;" horiz-adv-x="1671" 
d="M768 -31q-163 0 -293.5 57t-210 159.5t-111 244.5t4.5 311q41 208 163.5 377.5t298 266t369.5 96.5q163 0 294 -57t211 -159t112 -243.5t-4 -310.5q-41 -208 -163.5 -378t-299.5 -267t-371 -97zM473 764q-22 -117 -23.5 -226.5t19.5 -202t60.5 -162t103 -108.5t143.5 -38
q177 3 315.5 184.5t194.5 474.5q22 116 23.5 225.5t-19.5 202t-61 162t-103.5 109t-144.5 38.5q-177 0 -314.5 -181.5t-193.5 -477.5zM756 1630l12 58h602l-12 -58h-602z" />
    <glyph glyph-name="omacron" unicode="&#x14d;" horiz-adv-x="1185" 
d="M506 -31q-110 0 -200.5 41t-149.5 115t-81.5 182t-0.5 236q40 226 210.5 376t393.5 150q111 0 201.5 -41t150 -114.5t82 -181.5t0.5 -236q-40 -226 -211.5 -376.5t-394.5 -150.5zM362 616q-21 -89 -24 -190t12.5 -191t60.5 -149t113 -59q100 0 177 100.5t120 286.5
q21 92 24 194.5t-12.5 193.5t-60.5 150.5t-113 59.5q-98 0 -176 -104t-121 -292zM438 1219l13 57h602l-13 -57h-602z" />
    <glyph glyph-name="Obreve" unicode="&#x14e;" horiz-adv-x="1671" 
d="M768 -31q-163 0 -293.5 57t-210 159.5t-111 244.5t4.5 311q41 208 163.5 377.5t298 266t369.5 96.5q163 0 294 -57t211 -159t112 -243.5t-4 -310.5q-41 -208 -163.5 -378t-299.5 -267t-371 -97zM473 764q-22 -117 -23.5 -226.5t19.5 -202t60.5 -162t103 -108.5t143.5 -38
q177 3 315.5 184.5t194.5 474.5q22 116 23.5 225.5t-19.5 202t-61 162t-103.5 109t-144.5 38.5q-177 0 -314.5 -181.5t-193.5 -477.5zM854 1948h31q-2 -92 51 -145.5t147 -53.5q95 0 171.5 53.5t111.5 145.5h31q-31 -168 -122 -264.5t-220 -96.5q-131 0 -185 97t-16 264z
" />
    <glyph glyph-name="obreve" unicode="&#x14f;" horiz-adv-x="1185" 
d="M506 -31q-110 0 -200.5 41t-149.5 115t-81.5 182t-0.5 236q40 226 210.5 376t393.5 150q111 0 201.5 -41t150 -114.5t82 -181.5t0.5 -236q-40 -226 -211.5 -376.5t-394.5 -150.5zM362 616q-21 -89 -24 -190t12.5 -191t60.5 -149t113 -59q100 0 177 100.5t120 286.5
q21 92 24 194.5t-12.5 193.5t-60.5 150.5t-113 59.5q-98 0 -176 -104t-121 -292zM539 1536h30q-1 -92 52 -145.5t147 -53.5q95 0 171.5 53.5t111.5 145.5h30q-31 -168 -122 -264t-220 -96q-131 0 -184.5 96.5t-15.5 263.5z" />
    <glyph glyph-name="Ohungarumlaut" unicode="&#x150;" horiz-adv-x="1671" 
d="M768 -31q-163 0 -293.5 57t-210 159.5t-111 244.5t4.5 311q41 208 163.5 377.5t298 266t369.5 96.5q163 0 294 -57t211 -159t112 -243.5t-4 -310.5q-41 -208 -163.5 -378t-299.5 -267t-371 -97zM473 764q-22 -117 -23.5 -226.5t19.5 -202t60.5 -162t103 -108.5t143.5 -38
q177 3 315.5 184.5t194.5 474.5q22 116 23.5 225.5t-19.5 202t-61 162t-103.5 109t-144.5 38.5q-177 0 -314.5 -181.5t-193.5 -477.5zM836 1569l190 329h238l-400 -329h-28zM1161 1569l191 329h237l-397 -329h-31z" />
    <glyph glyph-name="ohungarumlaut" unicode="&#x151;" horiz-adv-x="1185" 
d="M506 -31q-110 0 -200.5 41t-149.5 115t-81.5 182t-0.5 236q40 226 210.5 376t393.5 150q111 0 201.5 -41t150 -114.5t82 -181.5t0.5 -236q-40 -226 -211.5 -376.5t-394.5 -150.5zM362 616q-21 -89 -24 -190t12.5 -191t60.5 -149t113 -59q100 0 177 100.5t120 286.5
q21 92 24 194.5t-12.5 193.5t-60.5 150.5t-113 59.5q-98 0 -176 -104t-121 -292zM518 1157l191 330h237l-399 -330h-29zM844 1157l190 330h238l-398 -330h-30z" />
    <glyph glyph-name="OE" unicode="&#x152;" horiz-adv-x="2160" 
d="M770 -31q-164 0 -295 57t-210.5 159.5t-111 244.5t4.5 311q31 156 109.5 293t187.5 235.5t247 155t283 56.5q124 0 236 -31h831q113 0 135 31h29l-23 -428h-28q-6 181 -81 260.5t-241 79.5h-254l-131 -621h211q181 0 211 217h29l-43 -489h-29q3 215 -168 215h-223
l-115 -535q-14 -67 6.5 -95t87.5 -28h162q161 0 270.5 81t188.5 259h29l-136 -397h-958q-118 -31 -211 -31zM473 764q-22 -117 -23.5 -226.5t19.5 -202t60.5 -161.5t103 -107.5t143.5 -37.5q204 6 291 221l193 907q8 104 -73.5 185t-193.5 81q-124 0 -229.5 -84t-179.5 -232
t-111 -343z" />
    <glyph glyph-name="oe" unicode="&#x153;" horiz-adv-x="1857" 
d="M506 -31q-110 0 -200.5 41t-149.5 115t-81.5 182t-0.5 236q40 226 210.5 376t393.5 150q117 0 210 -44.5t152 -127.5q87 80 197.5 125t230.5 45q214 0 297.5 -119.5t26.5 -324.5h-657q-21 -101 -12 -189.5t40 -154.5t93 -104t147 -38q89 0 172 55t133 146l27 -6
q-63 -171 -179 -267t-288 -96q-113 0 -202 44t-146 124q-85 -80 -191.5 -124t-222.5 -44zM362 616q-21 -89 -24 -190t12.5 -191t60.5 -149t113 -59q100 0 177 100.5t120 286.5q21 92 24 194.5t-12.5 193.5t-60.5 150.5t-113 59.5q-98 0 -176 -104t-121 -292zM1147 674h399
q17 59 19 118.5t-11 108t-44 79t-76 30.5q-100 0 -176.5 -95t-110.5 -241z" />
    <glyph glyph-name="Racute" unicode="&#x154;" horiz-adv-x="1527" 
d="M-33 29q108 11 154 43.5t63 117.5l230 1072q17 83 -15 115.5t-135 43.5l6 29h627q273 0 405 -113.5t89 -316.5q-30 -139 -137.5 -231.5t-278.5 -131.5l225 -483q25 -56 74 -90.5t137 -54.5l-6 -29h-473q12 63 -12 121l-220 506h-143l-92 -437q-18 -86 14 -118t133 -43
l-6 -29h-645zM569 684h105q168 0 279 96.5t145 251.5q32 158 -39.5 259.5t-241.5 101.5h-96zM926 1569l209 352h305l-486 -352h-28z" />
    <glyph glyph-name="racute" unicode="&#x155;" horiz-adv-x="942" 
d="M862 1069q78 0 120.5 -39t25.5 -104q-13 -58 -51.5 -90.5t-86.5 -30.5q-29 1 -49 13.5t-29 26t-27.5 25t-45.5 11.5q-77 0 -153 -86t-103 -211l-92 -428q-12 -62 19.5 -87.5t135.5 -39.5l-6 -29h-581l6 29q76 14 112 40.5t49 86.5l138 647q16 74 -8.5 100t-90.5 21l7 28
l385 117h28l-65 -311q61 147 163.5 229t198.5 82zM635 1157l209 352h305l-485 -352h-29z" />
    <glyph glyph-name="uni0156" unicode="&#x156;" horiz-adv-x="1527" 
d="M-33 29q108 11 154 43.5t63 117.5l230 1072q17 83 -15 115.5t-135 43.5l6 29h627q273 0 405 -113.5t89 -316.5q-30 -139 -137.5 -231.5t-278.5 -131.5l225 -483q25 -56 74 -90.5t137 -54.5l-6 -29h-473q12 63 -12 121l-220 506h-143l-92 -437q-18 -86 14 -118t133 -43
l-6 -29h-645zM451 -573v16q69 30 126 73.5t82 92.5q-8 -2 -22 -2q-59 0 -97.5 41.5t-25.5 107.5q11 57 57 94t109 37q80 0 119 -46.5t20 -125.5q-24 -116 -124.5 -191.5t-243.5 -96.5zM569 684h105q168 0 279 96.5t145 251.5q32 158 -39.5 259.5t-241.5 101.5h-96z" />
    <glyph glyph-name="uni0157" unicode="&#x157;" horiz-adv-x="942" 
d="M862 1069q78 0 120.5 -39t25.5 -104q-13 -58 -51.5 -90.5t-86.5 -30.5q-29 1 -49 13.5t-29 26t-27.5 25t-45.5 11.5q-77 0 -153 -86t-103 -211l-92 -428q-12 -62 19.5 -87.5t135.5 -39.5l-6 -29h-581l6 29q76 14 112 40.5t49 86.5l138 647q16 74 -8.5 100t-90.5 21l7 28
l385 117h28l-65 -311q61 147 163.5 229t198.5 82zM-61 -573v16q69 30 126 73.5t82 92.5q-8 -2 -22 -2q-59 0 -97.5 41.5t-25.5 107.5q11 57 57 94t109 37q80 0 119 -46.5t20 -125.5q-24 -116 -124.5 -191.5t-243.5 -96.5z" />
    <glyph glyph-name="Rcaron" unicode="&#x158;" horiz-adv-x="1527" 
d="M-33 29q108 11 154 43.5t63 117.5l230 1072q17 83 -15 115.5t-135 43.5l6 29h627q273 0 405 -113.5t89 -316.5q-30 -139 -137.5 -231.5t-278.5 -131.5l225 -483q25 -56 74 -90.5t137 -54.5l-6 -29h-473q12 63 -12 121l-220 506h-143l-92 -437q-18 -86 14 -118t133 -43
l-6 -29h-645zM569 684h105q168 0 279 96.5t145 251.5q32 158 -39.5 259.5t-241.5 101.5h-96zM698 1909l23 14l240 -233l344 233l16 -14l-279 -340h-217z" />
    <glyph glyph-name="rcaron" unicode="&#x159;" horiz-adv-x="942" 
d="M862 1069q78 0 120.5 -39t25.5 -104q-13 -58 -51.5 -90.5t-86.5 -30.5q-29 1 -49 13.5t-29 26t-27.5 25t-45.5 11.5q-77 0 -153 -86t-103 -211l-92 -428q-12 -62 19.5 -87.5t135.5 -39.5l-6 -29h-581l6 29q76 14 112 40.5t49 86.5l138 647q16 74 -8.5 100t-90.5 21l7 28
l385 117h28l-65 -311q61 147 163.5 229t198.5 82zM408 1497l22 14l240 -233l344 233l16 -14l-278 -340h-217z" />
    <glyph glyph-name="Sacute" unicode="&#x15a;" horiz-adv-x="1249" 
d="M561 -31q-82 0 -152 15.5t-108 34.5t-70 34.5t-51 16t-39 -22t-45 -78.5h-28l28 500h29q54 -226 160.5 -333t275.5 -107q103 0 180.5 62t100.5 167q10 56 7 100t-21.5 79.5t-44.5 63.5t-62.5 51.5t-74.5 43.5t-81 40q-42 19 -63.5 30t-59.5 32t-58 36.5t-50 42
t-44.5 50.5t-30.5 58.5t-20.5 70.5t-3 82.5t12.5 98.5q31 151 175 247.5t349 96.5q74 0 137 -12.5t97.5 -27.5t64 -27.5t47 -12.5t35.5 18t39 62h29l-25 -449h-29q-33 186 -138 288.5t-257 102.5q-101 0 -172.5 -57.5t-93.5 -153.5q-14 -62 -2.5 -112.5t42.5 -85t75.5 -66
t97 -54.5t107.5 -51.5t106.5 -57t94 -70.5t70 -92t35 -121.5t-11.5 -159.5q-35 -167 -189.5 -270t-369.5 -103zM827 1569l209 352h305l-485 -352h-29z" />
    <glyph glyph-name="sacute" unicode="&#x15b;" horiz-adv-x="950" 
d="M414 -31q-73 0 -135 17t-92 34.5t-56.5 25.5t-44 -8.5t-37.5 -68.5h-29l23 381h29q32 -152 120 -237.5t211 -85.5q78 0 133 39.5t70 105.5q12 56 -4 99.5t-52 71.5t-83.5 54.5t-99 48.5t-98.5 54t-80.5 70t-46.5 97t3 136q26 124 132 195t255 71q61 0 118 -17t88 -34
t58 -25t43.5 8.5t28.5 67.5h29l-20 -348h-29q-34 136 -114 213.5t-189 77.5q-69 0 -117.5 -36t-60.5 -95q-10 -45 2.5 -82t41.5 -61.5t68.5 -48t84 -42.5t88.5 -45t82 -55.5t63.5 -73.5t33.5 -99t-8 -132q-27 -129 -138.5 -201t-270.5 -72zM606 1157l209 352h305l-485 -352
h-29z" />
    <glyph glyph-name="Scircumflex" unicode="&#x15c;" horiz-adv-x="1249" 
d="M561 -31q-82 0 -152 15.5t-108 34.5t-70 34.5t-51 16t-39 -22t-45 -78.5h-28l28 500h29q54 -226 160.5 -333t275.5 -107q103 0 180.5 62t100.5 167q10 56 7 100t-21.5 79.5t-44.5 63.5t-62.5 51.5t-74.5 43.5t-81 40q-42 19 -63.5 30t-59.5 32t-58 36.5t-50 42
t-44.5 50.5t-30.5 58.5t-20.5 70.5t-3 82.5t12.5 98.5q31 151 175 247.5t349 96.5q74 0 137 -12.5t97.5 -27.5t64 -27.5t47 -12.5t35.5 18t39 62h29l-25 -449h-29q-33 186 -138 288.5t-257 102.5q-101 0 -172.5 -57.5t-93.5 -153.5q-14 -62 -2.5 -112.5t42.5 -85t75.5 -66
t97 -54.5t107.5 -51.5t106.5 -57t94 -70.5t70 -92t35 -121.5t-11.5 -159.5q-35 -167 -189.5 -270t-369.5 -103zM543 1585l268 338h217l137 -338l-22 -16l-246 235l-338 -235z" />
    <glyph glyph-name="scircumflex" unicode="&#x15d;" horiz-adv-x="950" 
d="M414 -31q-73 0 -135 17t-92 34.5t-56.5 25.5t-44 -8.5t-37.5 -68.5h-29l23 381h29q32 -152 120 -237.5t211 -85.5q78 0 133 39.5t70 105.5q12 56 -4 99.5t-52 71.5t-83.5 54.5t-99 48.5t-98.5 54t-80.5 70t-46.5 97t3 136q26 124 132 195t255 71q61 0 118 -17t88 -34
t58 -25t43.5 8.5t28.5 67.5h29l-20 -348h-29q-34 136 -114 213.5t-189 77.5q-69 0 -117.5 -36t-60.5 -95q-10 -45 2.5 -82t41.5 -61.5t68.5 -48t84 -42.5t88.5 -45t82 -55.5t63.5 -73.5t33.5 -99t-8 -132q-27 -129 -138.5 -201t-270.5 -72zM322 1174l268 337h217l137 -337
l-22 -17l-246 236l-338 -236z" />
    <glyph glyph-name="Scedilla" unicode="&#x15e;" horiz-adv-x="1249" 
d="M561 -31h-22l-72 -90q95 4 142.5 -36.5t33.5 -110.5q-23 -106 -129 -149.5t-258 -18.5l6 26q89 -6 145 20.5t68 82.5q8 37 -23 64.5t-98 39.5l142 174q-67 6 -125.5 23.5t-90 34.5t-60 29.5t-46 10.5t-36.5 -25t-42 -75h-28l28 500h29q54 -226 160.5 -333t275.5 -107
q103 0 180.5 62t100.5 167q10 56 7 100t-21.5 79.5t-44.5 63.5t-62.5 51.5t-74.5 43.5t-81 40q-42 19 -63.5 30t-59.5 32t-58 36.5t-50 42t-44.5 50.5t-30.5 58.5t-20.5 70.5t-3 82.5t12.5 98.5q31 151 175 247.5t349 96.5q74 0 137 -12.5t97.5 -27.5t64 -27.5t47 -12.5
t35.5 18t39 62h29l-25 -449h-29q-33 186 -138 288.5t-257 102.5q-101 0 -172.5 -57.5t-93.5 -153.5q-14 -62 -2.5 -112.5t42.5 -85t75.5 -66t97 -54.5t107.5 -51.5t106.5 -57t94 -70.5t70 -92t35 -121.5t-11.5 -159.5q-35 -167 -189.5 -270t-369.5 -103z" />
    <glyph glyph-name="scedilla" unicode="&#x15f;" horiz-adv-x="950" 
d="M414 -31q-27 0 -39 2l-74 -92q95 4 142.5 -36.5t33.5 -110.5q-23 -106 -129 -149.5t-258 -18.5l6 26q89 -6 145 20.5t68 82.5q8 37 -23 64.5t-98 39.5l144 178q-51 8 -98 25.5t-70 30.5t-45 16.5t-37 -14.5t-33 -64h-29l23 381h29q32 -152 120 -237.5t211 -85.5
q78 0 133 39.5t70 105.5q12 56 -4 99.5t-52 71.5t-83.5 54.5t-99 48.5t-98.5 54t-80.5 70t-46.5 97t3 136q26 124 132 195t255 71q61 0 118 -17t88 -34t58 -25t43.5 8.5t28.5 67.5h29l-20 -348h-29q-34 136 -114 213.5t-189 77.5q-69 0 -117.5 -36t-60.5 -95
q-10 -45 2.5 -82t41.5 -61.5t68.5 -48t84 -42.5t88.5 -45t82 -55.5t63.5 -73.5t33.5 -99t-8 -132q-27 -129 -138.5 -201t-270.5 -72z" />
    <glyph glyph-name="Scaron" unicode="&#x160;" horiz-adv-x="1249" 
d="M561 -31q-82 0 -152 15.5t-108 34.5t-70 34.5t-51 16t-39 -22t-45 -78.5h-28l28 500h29q54 -226 160.5 -333t275.5 -107q103 0 180.5 62t100.5 167q10 56 7 100t-21.5 79.5t-44.5 63.5t-62.5 51.5t-74.5 43.5t-81 40q-42 19 -63.5 30t-59.5 32t-58 36.5t-50 42
t-44.5 50.5t-30.5 58.5t-20.5 70.5t-3 82.5t12.5 98.5q31 151 175 247.5t349 96.5q74 0 137 -12.5t97.5 -27.5t64 -27.5t47 -12.5t35.5 18t39 62h29l-25 -449h-29q-33 186 -138 288.5t-257 102.5q-101 0 -172.5 -57.5t-93.5 -153.5q-14 -62 -2.5 -112.5t42.5 -85t75.5 -66
t97 -54.5t107.5 -51.5t106.5 -57t94 -70.5t70 -92t35 -121.5t-11.5 -159.5q-35 -167 -189.5 -270t-369.5 -103zM600 1909l23 14l239 -233l344 233l17 -14l-279 -340h-217z" />
    <glyph glyph-name="scaron" unicode="&#x161;" horiz-adv-x="950" 
d="M414 -31q-73 0 -135 17t-92 34.5t-56.5 25.5t-44 -8.5t-37.5 -68.5h-29l23 381h29q32 -152 120 -237.5t211 -85.5q78 0 133 39.5t70 105.5q12 56 -4 99.5t-52 71.5t-83.5 54.5t-99 48.5t-98.5 54t-80.5 70t-46.5 97t3 136q26 124 132 195t255 71q61 0 118 -17t88 -34
t58 -25t43.5 8.5t28.5 67.5h29l-20 -348h-29q-34 136 -114 213.5t-189 77.5q-69 0 -117.5 -36t-60.5 -95q-10 -45 2.5 -82t41.5 -61.5t68.5 -48t84 -42.5t88.5 -45t82 -55.5t63.5 -73.5t33.5 -99t-8 -132q-27 -129 -138.5 -201t-270.5 -72zM379 1497l22 14l240 -233l344 233
l16 -14l-278 -340h-217z" />
    <glyph glyph-name="uni0162" unicode="&#x162;" horiz-adv-x="1308" 
d="M1395 1481h28l-22 -428h-29q-3 340 -299 340h-94l-256 -1213q-15 -69 13 -103.5t134 -45.5l-8 -31h-270l-96 -121q95 4 142.5 -36.5t33.5 -110.5q-23 -106 -129 -149.5t-258 -18.5l6 26q89 -6 145 20.5t68 82.5q8 37 -23 64.5t-98 39.5l164 203h-324l8 31q75 8 119.5 28
t63 47.5t28.5 73.5l258 1213h-94q-146 0 -254 -82.5t-190 -257.5h-29l160 428h29q13 -31 122 -31h816q113 0 135 31z" />
    <glyph glyph-name="uni0163" unicode="&#x163;" horiz-adv-x="788" 
d="M827 981h-278l-146 -684q-20 -90 7 -146.5t102 -52.5q72 5 141 64l13 -15q-53 -68 -131.5 -122.5t-161.5 -55.5l-72 -90q95 4 142.5 -36.5t33.5 -110.5q-23 -106 -129 -149.5t-258 -18.5l6 26q89 -6 145 20.5t68 82.5q8 37 -23 64.5t-98 39.5l142 174q-119 12 -171 98
t-24 218l150 694h-162l6 29q155 45 275.5 127t189.5 192h29l-62 -291h279z" />
    <glyph glyph-name="Tcaron" unicode="&#x164;" horiz-adv-x="1308" 
d="M1395 1481h28l-22 -428h-29q-3 340 -299 340h-94l-256 -1213q-15 -69 13 -103.5t134 -45.5l-8 -31h-639l8 31q75 8 119.5 28t63 47.5t28.5 73.5l258 1213h-94q-146 0 -254 -82.5t-190 -257.5h-29l160 428h29q13 -31 122 -31h816q113 0 135 31zM639 1909l23 14l239 -233
l344 233l17 -14l-279 -340h-217z" />
    <glyph glyph-name="tcaron" unicode="&#x165;" horiz-adv-x="788" 
d="M827 981h-278l-146 -684q-20 -90 7 -146.5t102 -52.5q72 5 141 64l13 -15q-53 -69 -132.5 -123.5t-164.5 -54.5q-138 0 -201 87.5t-33 230.5l150 694h-162l6 29q155 45 275.5 127t189.5 192h29l-62 -291h279zM696 1157l127 412h238l-336 -412h-29z" />
    <glyph glyph-name="Tbar" unicode="&#x166;" horiz-adv-x="1308" 
d="M1395 1481h28l-22 -428h-29q-3 340 -299 340h-94l-135 -639h223l-12 -58h-224l-108 -516q-15 -69 13 -103.5t134 -45.5l-8 -31h-639l8 31q75 8 119.5 28t63 47.5t28.5 73.5l111 516h-221l12 58h221l135 639h-94q-146 0 -254 -82.5t-190 -257.5h-29l160 428h29
q13 -31 122 -31h816q113 0 135 31z" />
    <glyph glyph-name="tbar" unicode="&#x167;" horiz-adv-x="788" 
d="M827 981h-278l-72 -338h287l-12 -57h-287l-62 -289q-20 -90 7 -146.5t102 -52.5q72 5 141 64l13 -15q-53 -69 -132.5 -123.5t-164.5 -54.5q-138 0 -201 87.5t-33 230.5l64 299h-170l12 57h170l74 338h-162l6 29q155 45 275.5 127t189.5 192h29l-62 -291h279z" />
    <glyph glyph-name="Utilde" unicode="&#x168;" horiz-adv-x="1536" 
d="M1264 1421l6 29h424l-6 -29q-108 -12 -154 -44.5t-61 -106.5l-164 -766q-51 -245 -206 -390t-372 -145q-292 0 -428.5 140.5t-81.5 394.5l162 766q17 74 -15 106.5t-135 44.5l7 29h645l-6 -29q-107 -12 -153.5 -44.5t-61.5 -106.5l-162 -766q-44 -205 34 -331t248 -126
q171 0 297.5 125t169.5 332l164 766q15 74 -17 106.5t-134 44.5zM721 1577q32 143 86 220t145 77q53 0 156.5 -56.5t148.5 -56.5q80 0 129 123l31 -4q-32 -142 -86 -218.5t-145 -76.5q-42 0 -100.5 28.5t-114 56.5t-90.5 28q-81 0 -129 -125z" />
    <glyph glyph-name="utilde" unicode="&#x169;" horiz-adv-x="1286" 
d="M360 -29q-147 0 -208.5 95t-28.5 253l102 484q16 74 -8 100t-90 21l6 28l387 117h29l-156 -729q-20 -93 15 -146t114 -53q59 0 114.5 28.5t125.5 88.5l117 545q14 75 -10.5 100.5t-90.5 20.5l6 28l387 117h29l-188 -885q-9 -42 3 -67t40 -25q46 0 100 74l25 -10
q-35 -58 -75 -98t-77.5 -57.5t-64.5 -24.5t-52 -7q-70 0 -122 47.5t-46 135.5l9 51q-111 -116 -203.5 -174t-188.5 -58zM459 1165q32 143 86 220t145 77q54 0 157 -56t148 -56q80 0 129 123l31 -5q-32 -142 -86 -218t-145 -76q-42 0 -100.5 28t-114.5 56t-91 28
q-81 0 -129 -125z" />
    <glyph glyph-name="Umacron" unicode="&#x16a;" horiz-adv-x="1536" 
d="M1264 1421l6 29h424l-6 -29q-108 -12 -154 -44.5t-61 -106.5l-164 -766q-51 -245 -206 -390t-372 -145q-292 0 -428.5 140.5t-81.5 394.5l162 766q17 74 -15 106.5t-135 44.5l7 29h645l-6 -29q-107 -12 -153.5 -44.5t-61.5 -106.5l-162 -766q-44 -205 34 -331t248 -126
q171 0 297.5 125t169.5 332l164 766q15 74 -17 106.5t-134 44.5zM750 1630l12 58h602l-12 -58h-602z" />
    <glyph glyph-name="umacron" unicode="&#x16b;" horiz-adv-x="1286" 
d="M360 -29q-147 0 -208.5 95t-28.5 253l102 484q16 74 -8 100t-90 21l6 28l387 117h29l-156 -729q-20 -93 15 -146t114 -53q59 0 114.5 28.5t125.5 88.5l117 545q14 75 -10.5 100.5t-90.5 20.5l6 28l387 117h29l-188 -885q-9 -42 3 -67t40 -25q46 0 100 74l25 -10
q-35 -58 -75 -98t-77.5 -57.5t-64.5 -24.5t-52 -7q-70 0 -122 47.5t-46 135.5l9 51q-111 -116 -203.5 -174t-188.5 -58zM489 1219l13 57h602l-12 -57h-603z" />
    <glyph glyph-name="Ubreve" unicode="&#x16c;" horiz-adv-x="1536" 
d="M1264 1421l6 29h424l-6 -29q-108 -12 -154 -44.5t-61 -106.5l-164 -766q-51 -245 -206 -390t-372 -145q-292 0 -428.5 140.5t-81.5 394.5l162 766q17 74 -15 106.5t-135 44.5l7 29h645l-6 -29q-107 -12 -153.5 -44.5t-61.5 -106.5l-162 -766q-44 -205 34 -331t248 -126
q171 0 297.5 125t169.5 332l164 766q15 74 -17 106.5t-134 44.5zM850 1948h31q-2 -92 51 -145.5t147 -53.5q95 0 171.5 53.5t111.5 145.5h31q-31 -168 -122 -264.5t-220 -96.5q-131 0 -185 97t-16 264z" />
    <glyph glyph-name="ubreve" unicode="&#x16d;" horiz-adv-x="1286" 
d="M360 -29q-147 0 -208.5 95t-28.5 253l102 484q16 74 -8 100t-90 21l6 28l387 117h29l-156 -729q-20 -93 15 -146t114 -53q59 0 114.5 28.5t125.5 88.5l117 545q14 75 -10.5 100.5t-90.5 20.5l6 28l387 117h29l-188 -885q-9 -42 3 -67t40 -25q46 0 100 74l25 -10
q-35 -58 -75 -98t-77.5 -57.5t-64.5 -24.5t-52 -7q-70 0 -122 47.5t-46 135.5l9 51q-111 -116 -203.5 -174t-188.5 -58zM588 1536h30q-2 -92 51.5 -145.5t147.5 -53.5q95 0 171.5 53.5t111.5 145.5h30q-31 -168 -122 -264t-220 -96q-131 0 -184.5 96.5t-15.5 263.5z" />
    <glyph glyph-name="Uring" unicode="&#x16e;" horiz-adv-x="1536" 
d="M1264 1421l6 29h424l-6 -29q-108 -12 -154 -44.5t-61 -106.5l-164 -766q-51 -245 -206 -390t-372 -145q-292 0 -428.5 140.5t-81.5 394.5l162 766q17 74 -15 106.5t-135 44.5l7 29h645l-6 -29q-107 -12 -153.5 -44.5t-61.5 -106.5l-162 -766q-44 -205 34 -331t248 -126
q171 0 297.5 125t169.5 332l164 766q15 74 -17 106.5t-134 44.5zM856 1753q9 89 79 149t167 60t154.5 -60t48.5 -149q-12 -89 -82.5 -148t-165.5 -59q-98 0 -155 59t-46 148zM952 1755q-9 -59 22.5 -96t86.5 -37q56 0 98 37t49 96q8 57 -23.5 94t-86.5 37q-56 0 -97.5 -37
t-48.5 -94z" />
    <glyph glyph-name="uring" unicode="&#x16f;" horiz-adv-x="1286" 
d="M360 -29q-147 0 -208.5 95t-28.5 253l102 484q16 74 -8 100t-90 21l6 28l387 117h29l-156 -729q-20 -93 15 -146t114 -53q59 0 114.5 28.5t125.5 88.5l117 545q14 75 -10.5 100.5t-90.5 20.5l6 28l387 117h29l-188 -885q-9 -42 3 -67t40 -25q46 0 100 74l25 -10
q-35 -58 -75 -98t-77.5 -57.5t-64.5 -24.5t-52 -7q-70 0 -122 47.5t-46 135.5l9 51q-111 -116 -203.5 -174t-188.5 -58zM594 1341q9 89 79 149t167 60q96 0 153.5 -59.5t48.5 -149.5q-12 -89 -82 -147.5t-165 -58.5q-98 0 -155 58.5t-46 147.5zM690 1343q-9 -59 22.5 -96
t86.5 -37q56 0 98 37t49 96q8 57 -23.5 94.5t-86.5 37.5q-56 0 -97.5 -37.5t-48.5 -94.5z" />
    <glyph glyph-name="Uhungarumlaut" unicode="&#x170;" horiz-adv-x="1536" 
d="M1264 1421l6 29h424l-6 -29q-108 -12 -154 -44.5t-61 -106.5l-164 -766q-51 -245 -206 -390t-372 -145q-292 0 -428.5 140.5t-81.5 394.5l162 766q17 74 -15 106.5t-135 44.5l7 29h645l-6 -29q-107 -12 -153.5 -44.5t-61.5 -106.5l-162 -766q-44 -205 34 -331t248 -126
q171 0 297.5 125t169.5 332l164 766q15 74 -17 106.5t-134 44.5zM831 1569l191 329h238l-400 -329h-29zM1157 1569l191 329h237l-397 -329h-31z" />
    <glyph glyph-name="uhungarumlaut" unicode="&#x171;" horiz-adv-x="1286" 
d="M360 -29q-147 0 -208.5 95t-28.5 253l102 484q16 74 -8 100t-90 21l6 28l387 117h29l-156 -729q-20 -93 15 -146t114 -53q59 0 114.5 28.5t125.5 88.5l117 545q14 75 -10.5 100.5t-90.5 20.5l6 28l387 117h29l-188 -885q-9 -42 3 -67t40 -25q46 0 100 74l25 -10
q-35 -58 -75 -98t-77.5 -57.5t-64.5 -24.5t-52 -7q-70 0 -122 47.5t-46 135.5l9 51q-111 -116 -203.5 -174t-188.5 -58zM569 1157l191 330h237l-399 -330h-29zM895 1157l190 330h238l-397 -330h-31z" />
    <glyph glyph-name="Uogonek" unicode="&#x172;" horiz-adv-x="1536" 
d="M1264 1421l6 29h424l-6 -29q-108 -12 -154 -44.5t-61 -106.5l-164 -766q-41 -201 -157 -338t-282 -180q-98 -74 -159.5 -148.5t-73.5 -134.5q-12 -53 13 -83t80 -26t122 46l14 -25q-50 -48 -119 -77.5t-126 -29.5q-100 0 -149 43.5t-32 116.5q32 146 310 301h-19
q-292 0 -428.5 140.5t-81.5 394.5l162 766q17 74 -15 106.5t-135 44.5l7 29h645l-6 -29q-107 -12 -153.5 -44.5t-61.5 -106.5l-162 -766q-44 -205 34 -331t248 -126q171 0 297.5 125t169.5 332l164 766q15 74 -17 106.5t-134 44.5z" />
    <glyph glyph-name="uogonek" unicode="&#x173;" horiz-adv-x="1286" 
d="M360 -29q-147 0 -208.5 95t-28.5 253l102 484q16 74 -8 100t-90 21l6 28l387 117h29l-156 -729q-20 -93 15 -146t114 -53q59 0 114.5 28.5t125.5 88.5l117 545q14 75 -10.5 100.5t-90.5 20.5l6 28l387 117h29l-188 -885q-9 -42 3 -67t40 -25q46 0 100 74l25 -10
q-37 -57 -66 -88l-2 -2q-50 -50 -96 -72q-86 -70 -139.5 -137.5t-63.5 -120.5q-12 -53 13 -83.5t80 -26.5t122 46l14 -24q-50 -48 -119 -77.5t-126 -29.5q-100 0 -149 43.5t-32 116.5q28 133 258 272q-58 12 -96.5 57.5t-34.5 121.5l9 51q-111 -116 -203.5 -174t-188.5 -58z
" />
    <glyph glyph-name="Wcircumflex" unicode="&#x174;" horiz-adv-x="2252" 
d="M383 1190q-22 115 -62 172t-118 57l6 31h629l-7 -31q-105 0 -137.5 -51t-11.5 -162l137 -833l400 686l-31 153q-22 101 -62.5 154t-113.5 53l6 31h631l-7 -31q-107 0 -139 -51t-14 -162l139 -833l496 833q68 110 53 161.5t-123 51.5l6 31h381l-6 -31q-65 0 -126 -53.5
t-134 -175.5l-733 -1221h-27l-180 1010l-602 -1010h-27zM1067 1585l268 338h217l138 -338l-23 -16l-246 235l-338 -235z" />
    <glyph glyph-name="wcircumflex" unicode="&#x175;" horiz-adv-x="1738" 
d="M1540 1010l6 28h295l-6 -28q-46 -9 -84.5 -42.5t-81.5 -101.5l-571 -897h-29l-158 723l-465 -723h-24l-193 887q-32 139 -114 154l6 28h518l-6 -28q-77 -10 -111.5 -46.5t-25.5 -86.5l110 -572l291 457l-23 104q-27 128 -110 144l6 28h518l-6 -28q-77 -10 -111.5 -50.5
t-23.5 -93.5l108 -563l359 563q34 54 14.5 93t-88.5 51zM750 1174l268 337h217l137 -337l-22 -17l-246 236l-338 -236z" />
    <glyph glyph-name="Ycircumflex" unicode="&#x176;" horiz-adv-x="1480" 
d="M1227 1450h436l-6 -29q-108 -12 -175 -48.5t-118 -110.5l-440 -623l-97 -457q-15 -69 13.5 -103.5t132.5 -47.5l-6 -31h-639l8 31q75 9 119.5 29.5t63 48t28.5 73.5l86 406l-232 663q-15 45 -27 70t-33.5 48t-54.5 34.5t-85 17.5l6 29h659l-6 -29q-110 -12 -153.5 -49
t-20.5 -102l201 -590l416 590q51 67 34 103t-116 48zM715 1585l268 338h217l137 -338l-22 -16l-246 235l-338 -235z" />
    <glyph glyph-name="ycircumflex" unicode="&#x177;" horiz-adv-x="1150" 
d="M16 -434q-91 0 -140 39.5t-36 105.5q12 59 58 100.5t104 41.5q35 0 98 -35t115 -35q54 0 99.5 34.5t91.5 108.5l32 49l-207 883q-34 137 -110 152l6 28h520l-6 -28q-165 -18 -135 -152l121 -588l379 588q85 134 -56 152l6 28h297l-6 -28q-90 -15 -178 -152l-614 -954
q-26 -43 -53.5 -81t-72 -87.5t-89.5 -85t-104.5 -60t-119.5 -24.5zM465 1174l268 337h217l137 -337l-22 -17l-246 236l-338 -236z" />
    <glyph glyph-name="Ydieresis" unicode="&#x178;" horiz-adv-x="1480" 
d="M1227 1450h436l-6 -29q-108 -12 -175 -48.5t-118 -110.5l-440 -623l-97 -457q-15 -69 13.5 -103.5t132.5 -47.5l-6 -31h-639l8 31q75 9 119.5 29.5t63 48t28.5 73.5l86 406l-232 663q-15 45 -27 70t-33.5 48t-54.5 34.5t-85 17.5l6 29h659l-6 -29q-110 -12 -153.5 -49
t-20.5 -102l201 -590l416 590q51 67 34 103t-116 48zM684 1749q8 62 57.5 104.5t116.5 42.5t106 -42.5t31 -104.5q-6 -64 -55 -107t-117 -43q-67 0 -107 42.5t-32 107.5zM1106 1749q8 62 56.5 104.5t115.5 42.5t107 -42.5t32 -104.5q-7 -64 -56.5 -107t-115.5 -43
q-67 0 -107 42.5t-32 107.5z" />
    <glyph glyph-name="Zacute" unicode="&#x179;" horiz-adv-x="1275" 
d="M1407 1450l-6 -31l-1088 -1362h373q165 0 273.5 79t193.5 261h29l-160 -428h-29q-11 31 -123 31h-929l6 31l1085 1362h-309q-165 0 -273.5 -79t-193.5 -261h-29l160 428h29q11 -31 123 -31h868zM864 1569l209 352h305l-485 -352h-29z" />
    <glyph glyph-name="zacute" unicode="&#x17a;" horiz-adv-x="1044" 
d="M1090 1038l-7 -28l-780 -953h275q87 0 173.5 76t155.5 229h29l-113 -362h-880l6 29l780 952h-242q-188 0 -329 -272h-29l98 329h863zM672 1157l209 352h305l-486 -352h-28z" />
    <glyph glyph-name="Zdotaccent" unicode="&#x17b;" horiz-adv-x="1275" 
d="M1407 1450l-6 -31l-1088 -1362h373q165 0 273.5 79t193.5 261h29l-160 -428h-29q-11 31 -123 31h-929l6 31l1085 1362h-309q-165 0 -273.5 -79t-193.5 -261h-29l160 428h29q11 -31 123 -31h868zM729 1767q8 69 63 116.5t130 47.5q74 0 118.5 -47t36.5 -117
q-9 -71 -64 -118t-128 -47q-75 0 -119.5 47t-36.5 118z" />
    <glyph glyph-name="zdotaccent" unicode="&#x17c;" horiz-adv-x="1044" 
d="M1090 1038l-7 -28l-780 -953h275q87 0 173.5 76t155.5 229h29l-113 -362h-880l6 29l780 952h-242q-188 0 -329 -272h-29l98 329h863zM537 1356q8 69 62.5 116.5t129.5 47.5t119.5 -47.5t36.5 -116.5q-9 -71 -64.5 -118.5t-128.5 -47.5q-75 0 -119 47.5t-36 118.5z" />
    <glyph glyph-name="Zcaron" unicode="&#x17d;" horiz-adv-x="1275" 
d="M1407 1450l-6 -31l-1088 -1362h373q165 0 273.5 79t193.5 261h29l-160 -428h-29q-11 31 -123 31h-929l6 31l1085 1362h-309q-165 0 -273.5 -79t-193.5 -261h-29l160 428h29q11 -31 123 -31h868zM637 1909l22 14l240 -233l344 233l17 -14l-279 -340h-217z" />
    <glyph glyph-name="zcaron" unicode="&#x17e;" horiz-adv-x="1044" 
d="M1090 1038l-7 -28l-780 -953h275q87 0 173.5 76t155.5 229h29l-113 -362h-880l6 29l780 952h-242q-188 0 -329 -272h-29l98 329h863zM442 1497l23 14l240 -233l344 233l16 -14l-279 -340h-217z" />
    <glyph glyph-name="longs" unicode="&#x17f;" horiz-adv-x="972" 
d="M860 1507q83 0 155.5 -16.5t124.5 -58.5t48 -103q-1 -65 -43.5 -102t-104.5 -35q-52 1 -79 27.5t-33.5 64.5t-12 75.5t-25 64t-61.5 26.5q-52 0 -97.5 -51.5t-75 -123.5t-48.5 -159l-202 -960q-14 -66 19.5 -90t133.5 -37l-6 -29h-582l6 29q77 14 113 40.5t49 86.5
l176 825h-172l13 57h172l16 72q27 102 81 180.5t124.5 124.5t149 69t161.5 23z" />
    <glyph glyph-name="florin" unicode="&#x192;" horiz-adv-x="1390" 
d="M354 715l13 57h282l53 246q25 114 80.5 204.5t129 146t157 84t170.5 28.5q58 0 113.5 -10.5t104.5 -31.5t73.5 -59t13.5 -88q-7 -37 -33 -65t-58 -40t-65 -9t-55 22q-24 17 -36 47t-15.5 59t-9.5 56t-25 44t-55 17q-70 0 -122.5 -94.5t-86.5 -249.5l-65 -307h284l-12 -57
h-285l-63 -299q-24 -110 -79.5 -197t-129 -140.5t-156.5 -81.5t-168 -28q-46 0 -91 6t-88.5 20.5t-74.5 36t-46 54.5t-7 74q8 37 34.5 64.5t58.5 40t65 9.5t55 -22q24 -18 36 -48.5t15 -59.5t8.5 -56.5t24.5 -44t55 -16.5q71 0 125 96t86 250l74 342h-285z" />
    <glyph glyph-name="Aringacute" unicode="&#x1fa;" horiz-adv-x="1581" 
d="M1266 260q28 -123 74 -176t126 -55l-6 -29h-651l6 29q118 1 157.5 50t14.5 165l-47 223h-559l-143 -223q-72 -116 -51.5 -164.5t139.5 -50.5l-7 -29h-419l6 29q73 1 137.5 54.5t142.5 176.5l781 1221h28zM418 524h510l-129 606zM809 1753q9 89 79 149t167 60
q96 0 153.5 -59.5t48.5 -149.5q-12 -89 -82 -148t-165 -59q-98 0 -155 59t-46 148zM905 1755q-9 -59 22.5 -96t86.5 -37q56 0 98 37t49 96q8 57 -23.5 94t-86.5 37q-56 0 -97.5 -37t-48.5 -94zM1075 2017l209 353h305l-485 -353h-29z" />
    <glyph glyph-name="aringacute" unicode="&#x1fb;" horiz-adv-x="1161" 
d="M291 -31q-128 0 -198 85.5t-44 213.5q62 284 522 328l144 14l22 109q28 134 -7.5 213.5t-133.5 79.5q-103 0 -155.5 -62t-49.5 -143q3 -70 -28.5 -110.5t-86.5 -49.5q-62 -12 -98 26t-18 109q11 50 47 99t94 92t146.5 69.5t191.5 26.5q200 0 296.5 -102.5t61.5 -272.5
l-108 -510q-9 -43 2.5 -67.5t40.5 -24.5q46 0 100 74l25 -10q-36 -58 -76 -98t-77 -57.5t-64.5 -24.5t-53.5 -7q-66 0 -119 46.5t-49 127.5l13 62q-129 -236 -340 -236zM324 307q-15 -79 18.5 -129.5t103.5 -50.5q105 0 193 129l63 295l-120 -14q-214 -30 -258 -230z
M461 1341q9 89 79 149t167 60q96 0 153.5 -59.5t48.5 -149.5q-12 -89 -82 -147.5t-165 -58.5q-98 0 -155 58.5t-46 147.5zM557 1343q-9 -59 22.5 -96t86.5 -37q56 0 98 37t49 96q8 57 -24 94.5t-87 37.5t-96 -37.5t-49 -94.5zM727 1606l209 352h305l-485 -352h-29z" />
    <glyph glyph-name="AEacute" unicode="&#x1fc;" horiz-adv-x="2074" 
d="M2103 1481h29l-23 -428h-28q-8 182 -83 261t-241 79h-254l-131 -621h211q91 0 143.5 53.5t69.5 163.5h29l-45 -489h-29q6 215 -166 215h-225l-115 -535q-14 -67 6.5 -95t87.5 -28h164q161 0 269 80.5t190 259.5h29l-136 -397h-1112l7 29q109 12 154.5 44t62.5 107l61 287
h-543l-190 -223q-93 -106 -86 -160t123 -55l-6 -29h-426l6 29q72 1 151.5 58t178.5 173l948 1114q-33 35 -137 47l6 29h915q111 0 135 31zM535 524h505l158 746l6 43zM1487 1569l209 352h305l-485 -352h-29z" />
    <glyph glyph-name="aeacute" unicode="&#x1fd;" horiz-adv-x="1705" 
d="M1116 -31q-156 0 -264 81.5t-145 221.5q-169 -303 -404 -303q-129 0 -204.5 86t-49.5 213q62 281 522 328l142 14q4 8 4 15l20 94q28 134 -7.5 213.5t-133.5 79.5q-103 0 -155.5 -62t-49.5 -143q3 -70 -29 -110t-88 -50q-62 -12 -97 26t-17 109q11 50 47 99t94 92
t146.5 69.5t191.5 26.5q221 0 311 -123q166 121 367 121q214 0 297 -119.5t26 -324.5h-657q-21 -101 -12 -189.5t40 -154.5t93 -104t147 -38q89 0 172 55t133 146l27 -6q-63 -171 -179 -267t-288 -96zM324 307q-15 -79 18.5 -129.5t103.5 -50.5t138 57.5t110 141.5
q-16 114 6 225l-118 -14q-213 -27 -258 -230zM991 1157l209 352h305l-485 -352h-29zM995 674h400q20 82 18.5 156.5t-36.5 127t-95 52.5q-100 0 -176.5 -95t-110.5 -241z" />
    <glyph glyph-name="uni0218" unicode="&#x218;" horiz-adv-x="1249" 
d="M561 -31q-82 0 -152 15.5t-108 34.5t-70 34.5t-51 16t-39 -22t-45 -78.5h-28l28 500h29q54 -226 160.5 -333t275.5 -107q103 0 180.5 62t100.5 167q10 56 7 100t-21.5 79.5t-44.5 63.5t-62.5 51.5t-74.5 43.5t-81 40q-42 19 -63.5 30t-59.5 32t-58 36.5t-50 42
t-44.5 50.5t-30.5 58.5t-20.5 70.5t-3 82.5t12.5 98.5q31 151 175 247.5t349 96.5q74 0 137 -12.5t97.5 -27.5t64 -27.5t47 -12.5t35.5 18t39 62h29l-25 -449h-29q-33 186 -138 288.5t-257 102.5q-101 0 -172.5 -57.5t-93.5 -153.5q-14 -62 -2.5 -112.5t42.5 -85t75.5 -66
t97 -54.5t107.5 -51.5t106.5 -57t94 -70.5t70 -92t35 -121.5t-11.5 -159.5q-35 -167 -189.5 -270t-369.5 -103zM244 -573v16q69 30 126.5 74t82.5 92q-8 -2 -23 -2q-59 0 -97.5 41.5t-25.5 107.5q11 57 57 94t109 37q80 0 119 -46.5t20 -125.5q-24 -116 -124.5 -191.5
t-243.5 -96.5z" />
    <glyph glyph-name="uni0219" unicode="&#x219;" horiz-adv-x="950" 
d="M414 -31q-73 0 -135 17t-92 34.5t-56.5 25.5t-44 -8.5t-37.5 -68.5h-29l23 381h29q32 -152 120 -237.5t211 -85.5q78 0 133 39.5t70 105.5q12 56 -4 99.5t-52 71.5t-83.5 54.5t-99 48.5t-98.5 54t-80.5 70t-46.5 97t3 136q26 124 132 195t255 71q61 0 118 -17t88 -34
t58 -25t43.5 8.5t28.5 67.5h29l-20 -348h-29q-34 136 -114 213.5t-189 77.5q-69 0 -117.5 -36t-60.5 -95q-10 -45 2.5 -82t41.5 -61.5t68.5 -48t84 -42.5t88.5 -45t82 -55.5t63.5 -73.5t33.5 -99t-8 -132q-27 -129 -138.5 -201t-270.5 -72zM78 -573v16q69 30 126.5 74
t82.5 92q-8 -2 -23 -2q-59 0 -97.5 41.5t-25.5 107.5q11 57 57 94t109 37q80 0 119 -46.5t20 -125.5q-24 -116 -124.5 -191.5t-243.5 -96.5z" />
    <glyph glyph-name="uni021A" unicode="&#x21a;" horiz-adv-x="1308" 
d="M1395 1481h28l-22 -428h-29q-3 340 -299 340h-94l-256 -1213q-15 -69 13 -103.5t134 -45.5l-8 -31h-639l8 31q75 8 119.5 28t63 47.5t28.5 73.5l258 1213h-94q-146 0 -254 -82.5t-190 -257.5h-29l160 428h29q13 -31 122 -31h816q113 0 135 31zM272 -573v16
q69 30 126.5 74t82.5 92q-8 -2 -22 -2q-59 0 -97.5 41.5t-25.5 107.5q11 57 57 94t109 37q80 0 119 -46.5t20 -125.5q-24 -116 -124.5 -191.5t-244.5 -96.5z" />
    <glyph glyph-name="uni021B" unicode="&#x21b;" horiz-adv-x="788" 
d="M827 981h-278l-146 -684q-20 -90 7 -146.5t102 -52.5q72 5 141 64l13 -15q-53 -69 -132.5 -123.5t-164.5 -54.5q-138 0 -201 87.5t-33 230.5l150 694h-162l6 29q155 45 275.5 127t189.5 192h29l-62 -291h279zM78 -573v16q69 30 126.5 74t82.5 92q-8 -2 -23 -2
q-59 0 -97.5 41.5t-25.5 107.5q11 57 57 94t109 37q80 0 119 -46.5t20 -125.5q-24 -116 -124.5 -191.5t-243.5 -96.5z" />
    <glyph glyph-name="uni0237" unicode="&#x237;" horiz-adv-x="630" 
d="M571 1069h29l-203 -954q-23 -107 -59.5 -186.5t-102 -151.5t-169.5 -124.5t-250 -86.5l-4 24q56 22 94.5 46.5t79.5 70.5t71.5 123t53.5 188l168 785q16 74 -8.5 100t-90.5 21l6 28z" />
    <glyph glyph-name="uni02B9" unicode="&#x2b9;" horiz-adv-x="430" 
d="M287 1399q-11 82 28.5 138t114.5 56q76 0 102.5 -57.5t-16.5 -136.5l-182 -385h-29z" />
    <glyph glyph-name="uni02BA" unicode="&#x2ba;" horiz-adv-x="778" 
d="M635 1399q-11 82 28.5 138t114.5 56q76 0 102.5 -57.5t-16.5 -136.5l-182 -385h-29zM287 1399q-11 82 28.5 138t114.5 56q76 0 102.5 -57.5t-16.5 -136.5l-182 -385h-29z" />
    <glyph glyph-name="circumflex" unicode="&#x2c6;" horiz-adv-x="1032" 
d="M948 1178l-246 235l-337 -235l-17 16l268 338h218l137 -338z" />
    <glyph glyph-name="caron" unicode="&#x2c7;" horiz-adv-x="1032" 
d="M1018 1511l16 -14l-278 -340h-217l-127 340l22 14l240 -233z" />
    <glyph glyph-name="breve" unicode="&#x2d8;" horiz-adv-x="952" 
d="M614 1176q-130 0 -181 95t-13 265h31q-3 -94 50 -146.5t148 -52.5q97 0 171.5 52.5t111.5 146.5h31q-32 -170 -124.5 -265t-224.5 -95z" />
    <glyph glyph-name="dotaccent" unicode="&#x2d9;" horiz-adv-x="757" 
d="M522 1190q-75 0 -114.5 47.5t-24.5 118.5q14 69 74 116.5t135 47.5q74 0 113.5 -47t25.5 -117q-15 -70 -75 -118t-134 -48z" />
    <glyph glyph-name="ring" unicode="&#x2da;" horiz-adv-x="858" 
d="M561 1135q-97 0 -148.5 59t-31.5 147q19 89 95 149t171 60t147 -60t35 -149q-20 -88 -96.5 -147t-171.5 -59zM477 1343q-12 -58 16 -95.5t82 -37.5q56 0 101 37.5t57 95.5q12 57 -16.5 94.5t-83.5 37.5q-56 0 -101 -37.5t-55 -94.5z" />
    <glyph glyph-name="ogonek" unicode="&#x2db;" horiz-adv-x="851" 
d="M217 -434q-100 0 -148.5 43.5t-31.5 116.5q21 99 144.5 194t344.5 197l9 -25q-126 -86 -207.5 -175t-94.5 -157q-12 -53 13 -83t80.5 -26t122.5 46l14 -25q-49 -48 -118.5 -77t-127.5 -29z" />
    <glyph glyph-name="tilde" unicode="&#x2dc;" horiz-adv-x="1036" 
d="M342 1165q66 295 246 295q51 0 153 -53t140 -53q41 0 70 28.5t57 94.5l26 -7q-41 -151 -93 -225t-144 -74q-45 0 -90 16.5t-74.5 37t-66 37t-68.5 16.5q-42 0 -71.5 -28t-53.5 -89z" />
    <glyph glyph-name="hungarumlaut" unicode="&#x2dd;" horiz-adv-x="1093" 
d="M369 1157h-29l190 330h238zM666 1157l190 330h238l-398 -330h-30z" />
    <glyph glyph-name="uni0394" unicode="&#x394;" horiz-adv-x="1503" 
d="M979 1450l342 -1450h-1360l957 1450h61zM66 57h1183l-311 1323z" />
    <glyph glyph-name="uni03A9" unicode="&#x3a9;" horiz-adv-x="1548" 
d="M10 0l13 57h397q-158 103 -242 307.5t-41 413.5q43 199 162.5 360t291.5 252t363 91q202 0 347 -91t204 -252t17 -360q-44 -212 -208 -417t-370 -304h383l-12 -57h-471l12 59q217 100 389.5 304.5t216.5 414.5q39 183 -14 332t-183.5 233t-310.5 84q-177 0 -336 -84
t-269 -232t-150 -333q-27 -144 -0.5 -280.5t105.5 -254t192 -184.5l-13 -59h-473z" />
    <glyph glyph-name="uni03BC" unicode="&#x3bc;" horiz-adv-x="1091" 
d="M1012 1038h61l-223 -1038h-62l60 281q-79 -144 -204 -227t-261 -83q-105 0 -178 48.5t-90 132.5l-119 -558h-62l308 1444h61l-151 -714q-26 -124 44 -208t201 -83q114 1 219.5 65.5t180 173.5t102.5 240z" />
    <glyph glyph-name="pi" unicode="&#x3c0;" horiz-adv-x="1212" 
d="M1229 985h-215l-158 -737q-22 -104 9 -161t108 -52l-19 -45q-98 0 -141.5 66t-17.5 186l157 743h-493l-209 -985h-62l209 985h-217l13 53h1048z" />
    <glyph glyph-name="Wgrave" unicode="&#x1e80;" horiz-adv-x="2252" 
d="M383 1190q-22 115 -62 172t-118 57l6 31h629l-7 -31q-105 0 -137.5 -51t-11.5 -162l137 -833l400 686l-31 153q-22 101 -62.5 154t-113.5 53l6 31h631l-7 -31q-107 0 -139 -51t-14 -162l139 -833l496 833q68 110 53 161.5t-123 51.5l6 31h381l-6 -31q-65 0 -126 -53.5
t-134 -175.5l-733 -1221h-27l-180 1010l-602 -1010h-27zM1061 1921h305l57 -352h-28z" />
    <glyph glyph-name="wgrave" unicode="&#x1e81;" horiz-adv-x="1738" 
d="M1540 1010l6 28h295l-6 -28q-46 -9 -84.5 -42.5t-81.5 -101.5l-571 -897h-29l-158 723l-465 -723h-24l-193 887q-32 139 -114 154l6 28h518l-6 -28q-77 -10 -111.5 -46.5t-25.5 -86.5l110 -572l291 457l-23 104q-27 128 -110 144l6 28h518l-6 -28q-77 -10 -111.5 -50.5
t-23.5 -93.5l108 -563l359 563q34 54 14.5 93t-88.5 51zM743 1509h306l57 -352h-29z" />
    <glyph glyph-name="Wacute" unicode="&#x1e82;" horiz-adv-x="2252" 
d="M383 1190q-22 115 -62 172t-118 57l6 31h629l-7 -31q-105 0 -137.5 -51t-11.5 -162l137 -833l400 686l-31 153q-22 101 -62.5 154t-113.5 53l6 31h631l-7 -31q-107 0 -139 -51t-14 -162l139 -833l496 833q68 110 53 161.5t-123 51.5l6 31h381l-6 -31q-65 0 -126 -53.5
t-134 -175.5l-733 -1221h-27l-180 1010l-602 -1010h-27zM1352 1569l209 352h305l-486 -352h-28z" />
    <glyph glyph-name="wacute" unicode="&#x1e83;" horiz-adv-x="1738" 
d="M1540 1010l6 28h295l-6 -28q-46 -9 -84.5 -42.5t-81.5 -101.5l-571 -897h-29l-158 723l-465 -723h-24l-193 887q-32 139 -114 154l6 28h518l-6 -28q-77 -10 -111.5 -46.5t-25.5 -86.5l110 -572l291 457l-23 104q-27 128 -110 144l6 28h518l-6 -28q-77 -10 -111.5 -50.5
t-23.5 -93.5l108 -563l359 563q34 54 14.5 93t-88.5 51zM1034 1157l209 352h305l-485 -352h-29z" />
    <glyph glyph-name="Wdieresis" unicode="&#x1e84;" horiz-adv-x="2252" 
d="M383 1190q-22 115 -62 172t-118 57l6 31h629l-7 -31q-105 0 -137.5 -51t-11.5 -162l137 -833l400 686l-31 153q-22 101 -62.5 154t-113.5 53l6 31h631l-7 -31q-107 0 -139 -51t-14 -162l139 -833l496 833q68 110 53 161.5t-123 51.5l6 31h381l-6 -31q-65 0 -126 -53.5
t-134 -175.5l-733 -1221h-27l-180 1010l-602 -1010h-27zM1036 1749q8 62 57.5 104.5t116.5 42.5t106.5 -42.5t31.5 -104.5q-6 -64 -55 -107t-117 -43t-107.5 43t-32.5 107zM1458 1749q8 62 56.5 104.5t115.5 42.5t107 -42.5t32 -104.5q-7 -64 -56.5 -107t-115.5 -43
q-67 0 -107 42.5t-32 107.5z" />
    <glyph glyph-name="wdieresis" unicode="&#x1e85;" horiz-adv-x="1738" 
d="M1540 1010l6 28h295l-6 -28q-46 -9 -84.5 -42.5t-81.5 -101.5l-571 -897h-29l-158 723l-465 -723h-24l-193 887q-32 139 -114 154l6 28h518l-6 -28q-77 -10 -111.5 -46.5t-25.5 -86.5l110 -572l291 457l-23 104q-27 128 -110 144l6 28h518l-6 -28q-77 -10 -111.5 -50.5
t-23.5 -93.5l108 -563l359 563q34 54 14.5 93t-88.5 51zM719 1337q8 62 57.5 105t116.5 43t106 -43t31 -105q-6 -64 -55 -106.5t-117 -42.5t-107 42.5t-32 106.5zM1141 1337q8 62 56.5 105t115.5 43t107 -43t32 -105q-7 -64 -56.5 -106.5t-115.5 -42.5q-68 0 -107 42.5
t-32 106.5z" />
    <glyph glyph-name="uni1E9E" unicode="&#x1e9e;" horiz-adv-x="1572" 
d="M1104 791q89 6 163.5 -19t125 -79.5t69 -137t-3.5 -190.5q-38 -174 -177.5 -284t-326.5 -110q-159 0 -253.5 73.5t-108.5 201.5l31 14q19 -66 87 -106.5t156 -40.5q108 0 192.5 77t110.5 199q37 176 -64.5 272.5t-297.5 63.5l-12 41l489 545q-40 52 -116 82t-156 30
q-135 0 -232 -84.5t-131 -248.5l-233 -1090h-455l6 29q102 9 146 40t61 109l172 805q35 159 135.5 274t236.5 170t292 54q161 0 334.5 -65t228.5 -150z" />
    <glyph glyph-name="Ygrave" unicode="&#x1ef2;" horiz-adv-x="1480" 
d="M1227 1450h436l-6 -29q-108 -12 -175 -48.5t-118 -110.5l-440 -623l-97 -457q-15 -69 13.5 -103.5t132.5 -47.5l-6 -31h-639l8 31q75 9 119.5 29.5t63 48t28.5 73.5l86 406l-232 663q-15 45 -27 70t-33.5 48t-54.5 34.5t-85 17.5l6 29h659l-6 -29q-110 -12 -153.5 -49
t-20.5 -102l201 -590l416 590q51 67 34 103t-116 48zM709 1921h305l57 -352h-29z" />
    <glyph glyph-name="ygrave" unicode="&#x1ef3;" horiz-adv-x="1150" 
d="M16 -434q-91 0 -140 39.5t-36 105.5q12 59 58 100.5t104 41.5q35 0 98 -35t115 -35q54 0 99.5 34.5t91.5 108.5l32 49l-207 883q-34 137 -110 152l6 28h520l-6 -28q-165 -18 -135 -152l121 -588l379 588q85 134 -56 152l6 28h297l-6 -28q-90 -15 -178 -152l-614 -954
q-26 -43 -53.5 -81t-72 -87.5t-89.5 -85t-104.5 -60t-119.5 -24.5zM459 1509h305l57 -352h-28z" />
    <glyph glyph-name="endash" unicode="&#x2013;" horiz-adv-x="907" 
d="M817 575l-12 -57h-703l13 57h702z" />
    <glyph glyph-name="emdash" unicode="&#x2014;" horiz-adv-x="1638" 
d="M1548 573l-12 -55h-1434l13 55h1433z" />
    <glyph glyph-name="quoteleft" unicode="&#x2018;" horiz-adv-x="475" 
d="M354 1006q-86 0 -126 58.5t-19 158.5q30 142 139 237.5t266 128.5l2 -22q-91 -41 -163.5 -108.5t-92.5 -149.5q75 26 130 -26.5t38 -135.5q-11 -60 -58 -100.5t-116 -40.5z" />
    <glyph glyph-name="quoteright" unicode="&#x2019;" horiz-adv-x="475" 
d="M453 1593q86 0 126 -58.5t19 -158.5q-30 -142 -139 -237.5t-266 -128.5l-3 22q91 41 163.5 108.5t92.5 149.5q-75 -26 -129.5 26.5t-37.5 135.5q11 60 58 100.5t116 40.5z" />
    <glyph glyph-name="quotesinglbase" unicode="&#x201a;" horiz-adv-x="475" 
d="M164 283q86 0 126 -58.5t19 -158.5q-30 -143 -139 -238.5t-266 -128.5l-2 22q91 41 163.5 109t92.5 150q-75 -26 -130 26t-38 135q11 60 58 101t116 41z" />
    <glyph glyph-name="quotedblleft" unicode="&#x201c;" horiz-adv-x="901" 
d="M354 1006q-86 0 -126 58.5t-19 158.5q30 142 139 237.5t266 128.5l2 -22q-91 -41 -163.5 -108.5t-92.5 -149.5q75 26 130 -26.5t38 -135.5q-11 -60 -58 -100.5t-116 -40.5zM635 1223q30 142 139 237.5t266 128.5l2 -22q-91 -41 -163.5 -108.5t-92.5 -149.5
q75 26 130 -26.5t38 -135.5q-11 -60 -58 -100.5t-116 -40.5q-86 0 -126 58.5t-19 158.5z" />
    <glyph glyph-name="quotedblright" unicode="&#x201d;" horiz-adv-x="899" 
d="M877 1593q86 0 126 -58.5t19 -158.5q-30 -142 -139.5 -237.5t-266.5 -128.5l-2 22q91 41 163.5 108.5t92.5 149.5q-75 -26 -130 26.5t-38 135.5q11 60 58.5 100.5t116.5 40.5zM190 1032q91 41 163.5 108.5t92.5 149.5q-75 -26 -129.5 26.5t-37.5 135.5q11 60 58 100.5
t116 40.5q86 0 126 -58.5t19 -158.5q-30 -142 -139 -237.5t-266 -128.5z" />
    <glyph glyph-name="quotedblbase" unicode="&#x201e;" horiz-adv-x="901" 
d="M590 283q86 0 126 -58.5t19 -158.5q-30 -143 -139 -238.5t-266 -128.5l-2 22q91 41 163.5 109t92.5 150q-75 -26 -130 26t-38 135q11 60 58 101t116 41zM-98 -279q91 41 163.5 109t92.5 150q-75 -26 -130 26t-38 135q11 60 58 101t116 41q86 0 126 -58.5t19 -158.5
q-30 -143 -139 -238.5t-266 -128.5z" />
    <glyph glyph-name="dagger" unicode="&#x2020;" horiz-adv-x="712" 
d="M315 467l125 592h-260l13 53h260l59 285h61l-59 -285h260l-12 -53h-260l-125 -592h-62z" />
    <glyph glyph-name="daggerdbl" unicode="&#x2021;" horiz-adv-x="712" 
d="M25 322l10 53h260l63 297l82 387h-260l13 53h260l59 285h61l-59 -285h260l-12 -53h-260l-19 -92l-63 -295l-43 -205l-21 -92h260l-10 -53h-260l-61 -285h-62l62 285h-260z" />
    <glyph glyph-name="bullet" unicode="&#x2022;" horiz-adv-x="1052" 
d="M524 147q-173 0 -289 119.5t-110 290.5q6 169 130.5 289.5t297.5 120.5q167 0 282 -120.5t109 -289.5q-6 -170 -129 -290t-291 -120z" />
    <glyph glyph-name="ellipsis" unicode="&#x2026;" horiz-adv-x="1239" 
d="M911 -29q-66 0 -107 45t-32 111q6 65 56 110.5t116 45.5q68 0 108.5 -45.5t32.5 -110.5q-7 -66 -58 -111t-116 -45zM-12 127q6 65 56 110.5t116 45.5q68 0 108.5 -45.5t32.5 -110.5q-7 -66 -58 -111t-116 -45q-66 0 -107 45t-32 111zM381 127q6 65 56 110.5t116 45.5
q68 0 108.5 -45.5t32.5 -110.5q-7 -66 -58 -111t-116 -45q-66 0 -107 45t-32 111z" />
    <glyph glyph-name="perthousand" unicode="&#x2030;" horiz-adv-x="2709" 
d="M633 1481q89 0 151.5 -37t91 -99.5t36 -145t-14.5 -173.5q-19 -92 -59 -172.5t-96.5 -144t-134.5 -100t-167 -36.5q-90 0 -153.5 37t-92.5 99.5t-36.5 144.5t14.5 172q20 92 59.5 172.5t96.5 144.5t136 101t169 37zM395 1094q-41 -186 -23 -336t93 -150q57 0 118 105
t91 248q41 187 24 336t-92 149q-58 0 -118.5 -104t-92.5 -248zM414 0l1063 1450h67l-1063 -1450h-67zM1057 422q19 92 59.5 173t97.5 144.5t136 100.5t168 37t151.5 -37t91 -99t36 -144.5t-14.5 -174.5q-25 -124 -85 -224.5t-157.5 -164.5t-214.5 -64q-72 0 -127 24.5
t-87.5 66.5t-51 99.5t-17 124t14.5 138.5zM1282 492q-42 -188 -23.5 -338t93.5 -150q57 0 117 104.5t92 249.5q41 186 23 336t-93 150q-58 0 -118.5 -104.5t-90.5 -247.5zM1896 422q19 92 59.5 173t97.5 144.5t136 100.5t168 37t151.5 -37t91 -99t36 -144.5t-14.5 -174.5
q-20 -92 -59 -172.5t-96 -144t-134.5 -100t-166.5 -36.5t-152.5 37.5t-92.5 100t-37 144.5t13 171zM2122 492q-42 -188 -24 -338t93 -150q57 0 117 105t90 249q27 125 30 235.5t-22 180.5t-75 70q-58 0 -118.5 -104.5t-90.5 -247.5z" />
    <glyph glyph-name="guilsinglleft" unicode="&#x2039;" horiz-adv-x="632" 
d="M459 78l-416 420l16 67l594 418l25 -29l-440 -424l262 -424z" />
    <glyph glyph-name="guilsinglright" unicode="&#x203a;" horiz-adv-x="632" 
d="M-20 78l-29 28l442 424l-262 424l37 29l418 -418l-15 -67z" />
    <glyph glyph-name="fraction" unicode="&#x2044;" horiz-adv-x="305" 
d="M-301 0h-68l1063 1450h68z" />
    <glyph glyph-name="uni2070" unicode="&#x2070;" horiz-adv-x="854" 
d="M676 1722q90 0 154.5 -37t94.5 -100t37.5 -147t-14.5 -178q-40 -192 -160 -318.5t-288 -126.5q-90 0 -155 36.5t-95.5 99.5t-38.5 147t14 178q40 192 161.5 319t289.5 127zM446 1335q-51 -235 -32 -360t104 -125q64 0 119.5 91.5t91.5 260.5q49 235 30.5 360.5
t-102.5 125.5q-65 0 -119.5 -91.5t-91.5 -261.5z" />
    <glyph glyph-name="uni2074" unicode="&#x2074;" horiz-adv-x="788" 
d="M311 850q69 11 105 42.5t49 98.5l16 78h-340l4 18l504 633h172l-125 -585h15q46 0 103 57t97 143h19l-88 -266h-158l-18 -78q-17 -66 -1.5 -99t78.5 -42l-4 -16h-432zM223 1135h273l98 467z" />
    <glyph glyph-name="uni2075" unicode="&#x2075;" horiz-adv-x="718" 
d="M872 1765l-22 -233h-459l-92 -272q114 114 238 114q134 0 202.5 -84.5t40.5 -214.5q-25 -116 -131 -188t-262 -72q-82 0 -154.5 35t-93.5 104q-10 35 5.5 66t48.5 43q41 13 73.5 -11.5t32.5 -84.5q0 -47 29.5 -81.5t72.5 -35.5q59 -1 105.5 54.5t66.5 150.5
q20 93 -12.5 156t-105.5 63q-87 0 -176 -74l-25 21l160 483h329q81 0 111 61h18z" />
    <glyph glyph-name="uni2076" unicode="&#x2076;" horiz-adv-x="782" 
d="M502 813q-171 0 -248 119.5t-33 318.5q33 151 110.5 259t177.5 160t214 52q50 0 102 -17.5t80 -49.5q34 -29 39 -66t-13 -64t-48 -34q-52 -15 -80 11.5t-25 84.5q3 44 -16.5 73.5t-54.5 29.5q-81 0 -153 -110.5t-112 -276.5q89 100 203 100q120 0 181.5 -82.5
t31.5 -216.5q-26 -124 -120.5 -207.5t-235.5 -83.5zM432 1260q-34 -183 -14.5 -297.5t88.5 -114.5q50 0 91.5 63t61.5 154q23 105 -9 174.5t-103 69.5q-63 0 -115 -49z" />
    <glyph glyph-name="uni2077" unicode="&#x2077;" horiz-adv-x="688" 
d="M924 1686q-124 -125 -209 -235.5t-136 -215.5t-77 -195t-45 -206h-219q15 92 51.5 176t77.5 146t111.5 135t124 119.5t145.5 121.5h-326q-61 0 -99.5 -27.5t-78.5 -91.5h-17l97 291h602z" />
    <glyph glyph-name="uni2078" unicode="&#x2078;" horiz-adv-x="802" 
d="M457 813q-151 0 -233.5 65t-63.5 158q15 72 75.5 120t180.5 89q-80 45 -118.5 102t-18.5 148q21 97 122 162t250 65q134 0 209.5 -60t57.5 -138q-23 -124 -228 -183q23 -12 39 -21t37.5 -22t35 -25.5t29 -29t24 -35t14.5 -40t5.5 -48t-6.5 -55.5q-23 -107 -132.5 -179.5
t-278.5 -72.5zM342 1047q-17 -85 17.5 -142t105.5 -57q64 0 116.5 43t65.5 108q8 39 -1.5 71t-38.5 58t-56 43t-72 42q-17 9 -26 14q-87 -65 -111 -180zM500 1559q-7 -20 -4 -40.5t6.5 -35t16 -30t23 -26t29 -23t33.5 -21t37 -19.5q81 50 102 149q17 77 -11.5 127t-86.5 50
q-52 0 -93.5 -36.5t-51.5 -94.5z" />
    <glyph glyph-name="uni2079" unicode="&#x2079;" horiz-adv-x="782" 
d="M600 1722q171 0 248 -119.5t33 -318.5q-33 -151 -110.5 -259t-177.5 -160t-214 -52q-50 0 -102 18t-80 50q-34 29 -39 65.5t13 63.5t48 34q52 15 80 -11.5t25 -84.5q-3 -44 16.5 -73t54.5 -29q81 0 152.5 110t111.5 277q-89 -100 -202 -100q-120 0 -181.5 82.5
t-31.5 216.5q26 124 120.5 207t235.5 83zM442 1470q-23 -105 9.5 -174t103.5 -69q63 0 115 49q34 183 14.5 297.5t-88.5 114.5q-50 0 -92 -63.5t-62 -154.5z" />
    <glyph glyph-name="Euro" unicode="&#x20ac;" horiz-adv-x="1599" 
d="M131 856l12 57h217q102 253 322.5 410.5t495.5 157.5q74 0 140.5 -15.5t101.5 -31.5t67 -24t55.5 8t48.5 63h29l-39 -445h-29q-19 181 -117.5 284t-258.5 103q-174 0 -320.5 -137.5t-214.5 -372.5h446l-12 -57h-450l-9 -39q-15 -71 -18 -137h438l-12 -57h-428
q2 -219 111.5 -355.5t298.5 -136.5q152 0 272 93.5t201 267.5l30 -7q-77 -238 -254 -377t-407 -139q-169 0 -300 85t-198.5 234.5t-56.5 334.5h-213l12 57h207q1 15 10 65q10 46 31 111h-209z" />
    <glyph glyph-name="uni2116" unicode="&#x2116;" horiz-adv-x="2379" 
d="M1217 1421l6 29h422l-7 -29q-107 -12 -153.5 -44.5t-61.5 -106.5l-270 -1270h-39l-653 1217l-221 -1037q-15 -74 16 -106.5t133 -44.5l-6 -29h-422l6 29q108 12 154 44.5t61 106.5l232 1090q17 75 -14.5 108t-133.5 43l6 29h375l539 -1028l180 848q15 74 -16 106.5
t-133 44.5zM1622 1067q31 173 161.5 287t299.5 114q173 0 269 -120.5t63 -315.5q-31 -171 -162.5 -286t-300.5 -115q-84 0 -153 31.5t-114 87.5t-62.5 138t-0.5 179zM1841 1124q-16 -68 -18 -145t10 -146t46.5 -114t86.5 -45q75 0 134 77t91 218q17 70 19 148.5t-10 147.5
t-46 114.5t-86 45.5q-75 0 -134 -79t-93 -222z" />
    <glyph glyph-name="uni2117" unicode="&#x2117;" 
d="M971 676h-201v-346h-68v788h269q112 0 180 -61t68 -160t-68 -160t-180 -61zM164 725q0 204 101.5 378t275.5 276t377 102q153 0 293 -60.5t241.5 -162t162 -241.5t60.5 -292t-60.5 -292t-162 -241.5t-241.5 -162t-293 -60.5q-203 0 -377 102t-275.5 276t-101.5 378z
M231 723q0 -187 92.5 -346t251.5 -251.5t345 -92.5q187 0 346.5 92.5t252.5 251.5t93 346q0 188 -93 348t-252.5 253t-346.5 93q-186 0 -345 -93t-251.5 -253t-92.5 -348zM772 739h203q82 0 129 42.5t47 115.5t-47 115.5t-129 42.5h-203v-316z" />
    <glyph glyph-name="trademark" unicode="&#x2122;" horiz-adv-x="1005" 
d="M272 975l93 432h-156l10 43h359l-11 -43h-155l-93 -432h-47zM537 975l102 475h76l78 -426l264 426h76l-103 -475h-41l96 444l-280 -444h-45l-82 444l-96 -444h-45z" />
    <glyph glyph-name="uni2126" unicode="&#x2126;" horiz-adv-x="1548" 
d="M10 0l13 57h397q-158 103 -242 307.5t-41 413.5q43 199 162.5 360t291.5 252t363 91q202 0 347 -91t204 -252t17 -360q-44 -212 -208 -417t-370 -304h383l-12 -57h-471l12 59q217 100 389.5 304.5t216.5 414.5q39 183 -14 332t-183.5 233t-310.5 84q-177 0 -336 -84
t-269 -232t-150 -333q-27 -144 -0.5 -280.5t105.5 -254t192 -184.5l-13 -59h-473z" />
    <glyph glyph-name="estimated" unicode="&#x212e;" horiz-adv-x="1558" 
d="M799 -29q-153 0 -288.5 55.5t-232.5 150.5t-153.5 227t-56.5 280q0 149 55.5 281t150 227t226.5 150t280 55q149 0 281.5 -56t227 -151t149 -228t53.5 -282h-1165v-432q80 -88 202 -147.5t271 -59.5q320 0 510 270l57 -41q-96 -142 -244.5 -220.5t-322.5 -78.5zM326 760
h909v364q-72 82 -193 143.5t-262 61.5q-143 0 -264.5 -61.5t-189.5 -145.5v-362z" />
    <glyph glyph-name="oneeighth" unicode="&#x215b;" horiz-adv-x="1720" 
d="M47 596q59 6 91.5 18.5t42.5 27t16 40.5l129 614h-129l4 17q209 53 346 149h18l-166 -780q-8 -38 9.5 -57.5t76.5 -28.5l-4 -16h-438zM256 0l1063 1450h67l-1062 -1450h-68zM899 203q15 72 75.5 120t180.5 89q-80 45 -118.5 102t-18.5 148q21 97 122.5 162t250.5 65
q133 0 208.5 -60.5t57.5 -138.5q-13 -68 -70.5 -110.5t-156.5 -71.5q23 -12 39 -21t37 -22t35.5 -26t29.5 -29.5t23.5 -35t14.5 -40t5.5 -48t-6.5 -55.5q-23 -107 -132.5 -179t-279.5 -72q-151 0 -233.5 65t-63.5 158zM1081 213q-17 -85 17.5 -142t105.5 -57
q64 0 116.5 43.5t65.5 108.5q8 39 -1.5 70.5t-38 57t-55.5 43t-71 41.5q-19 10 -28 15q-87 -65 -111 -180zM1239 725q-7 -20 -4 -40.5t6.5 -35t16 -30t23 -26t29 -23t33.5 -21t37 -19.5q82 51 103 150q17 77 -12 126.5t-87 49.5q-52 0 -93.5 -36.5t-51.5 -94.5z" />
    <glyph glyph-name="threeeighths" unicode="&#x215c;" horiz-adv-x="1849" 
d="M352 561q-100 0 -176.5 47.5t-89.5 128.5q-7 45 14 88t68 54q34 9 59.5 -2t33 -43t-20.5 -91q-17 -49 14 -98t102 -49q64 0 116 51.5t73 147.5q22 99 -33.5 152.5t-177.5 53.5l4 31q113 24 189 87.5t96 158.5q17 68 -8.5 112t-86.5 44q-78 0 -119.5 -53.5t-39.5 -123.5
q4 -47 -20.5 -76t-61.5 -34q-47 -9 -71 15t-15 75q18 93 116.5 162t225.5 69q144 0 216 -56.5t54 -147.5q-14 -82 -102.5 -144.5t-227.5 -79.5q143 -2 218 -66t51 -179q-21 -104 -134 -169t-266 -65zM385 0l1063 1450h68l-1063 -1450h-68zM1028 203q15 72 75.5 120t180.5 89
q-80 45 -118.5 102t-18.5 148q21 97 122.5 162t250.5 65q133 0 208.5 -60.5t57.5 -138.5q-13 -68 -70.5 -110.5t-156.5 -71.5q23 -12 39 -21t37 -22t35.5 -26t29.5 -29.5t23.5 -35t14.5 -40t5.5 -48t-6.5 -55.5q-23 -107 -132.5 -179t-279.5 -72q-151 0 -233.5 65t-63.5 158
zM1210 213q-17 -85 17.5 -142t105.5 -57q64 0 117 43.5t66 108.5q11 51 -15 93t-56.5 62.5t-94.5 55.5q-19 11 -29 16q-87 -65 -111 -180zM1368 725q-7 -20 -4 -40.5t6.5 -35t16 -30t23 -26t29 -23t33.5 -21t37 -19.5q82 51 103 150q17 77 -12 126.5t-87 49.5
q-52 0 -93.5 -36.5t-51.5 -94.5z" />
    <glyph glyph-name="fiveeighths" unicode="&#x215d;" horiz-adv-x="1814" 
d="M819 1511l-22 -233h-459l-92 -272q114 114 237 114q134 0 203 -84.5t41 -214.5q-25 -116 -131 -188t-262 -72q-82 0 -154.5 35t-93.5 104q-10 35 5 66t48 43q41 13 74 -11.5t33 -84.5q0 -47 29.5 -81.5t72.5 -35.5q59 -1 105.5 54.5t66.5 150.5q20 93 -13 156t-106 63
q-87 0 -176 -74l-24 21l159 483h330q81 0 111 61h18zM350 0l1063 1450h68l-1063 -1450h-68zM993 203q15 72 75.5 120t180.5 89q-80 45 -118.5 102t-18.5 148q21 97 122.5 162t250.5 65q133 0 208.5 -60.5t57.5 -138.5q-13 -68 -70.5 -110.5t-156.5 -71.5q23 -12 39 -21
t37 -22t35.5 -26t29.5 -29.5t23.5 -35t14.5 -40t5.5 -48t-6.5 -55.5q-23 -107 -132.5 -179t-279.5 -72q-151 0 -233.5 65t-63.5 158zM1176 213q-17 -86 17 -142.5t105 -56.5q64 0 117 43.5t66 108.5q11 51 -15 93t-56.5 62.5t-94.5 55.5q-19 11 -29 16q-86 -64 -110 -180z
M1333 725q-8 -37 -0.5 -66.5t31 -53t48 -39.5t63.5 -36q81 50 102 150q17 77 -11.5 126.5t-86.5 49.5q-52 0 -94 -36.5t-52 -94.5z" />
    <glyph glyph-name="seveneighths" unicode="&#x215e;" horiz-adv-x="1701" 
d="M870 1432q-124 -125 -209 -235.5t-136 -215.5t-77 -195t-45 -206h-219q15 92 51.5 176t77.5 146t111.5 135t124 119.5t145.5 121.5h-325q-61 0 -100 -27.5t-79 -91.5h-16l96 291h602zM238 0l1062 1450h68l-1063 -1450h-67zM881 203q15 72 75.5 120t180.5 89
q-30 17 -51.5 33t-44 39t-32.5 47.5t-15.5 58.5t5.5 72q21 97 122.5 162t250.5 65q133 0 208.5 -60.5t57.5 -138.5q-13 -68 -70.5 -110.5t-156.5 -71.5q23 -12 39 -21t37 -22t35.5 -26t29.5 -29.5t23.5 -35t14.5 -40t5.5 -48t-6.5 -55.5q-23 -107 -132.5 -179t-278.5 -72
q-151 0 -233.5 65t-63.5 158zM1063 213q-17 -85 17.5 -142t105.5 -57q64 0 116.5 43.5t65.5 108.5q8 39 -1.5 70.5t-38 57t-55.5 43t-71 41.5q-19 10 -28 15q-87 -65 -111 -180zM1221 725q-7 -20 -4 -40.5t6.5 -35t16 -30t23 -26t29 -23t33.5 -21t37 -19.5q81 50 102 150
q17 77 -11.5 126.5t-86.5 49.5q-52 0 -93.5 -36.5t-51.5 -94.5z" />
    <glyph glyph-name="arrowleft" unicode="&#x2190;" horiz-adv-x="1447" 
d="M621 0l-519 518l521 518l41 -41l-457 -450h1139v-53h-1139l455 -453z" />
    <glyph glyph-name="arrowup" unicode="&#x2191;" horiz-adv-x="1241" 
d="M1139 793l-39 -41l-453 454v-1138h-53v1138l-451 -456l-41 41l519 520z" />
    <glyph glyph-name="arrowright" unicode="&#x2192;" horiz-adv-x="1447" 
d="M827 0l-41 39l455 453h-1139v53h1139l-457 450l41 41l521 -518z" />
    <glyph glyph-name="arrowdown" unicode="&#x2193;" horiz-adv-x="1241" 
d="M102 522l39 41l453 -454v1138h53v-1138l451 456l41 -41l-518 -520z" />
    <glyph glyph-name="uni2196" unicode="&#x2196;" horiz-adv-x="1103" 
d="M102 264v731h736v-59l-643 6l806 -807l-38 -37l-805 807l2 -643z" />
    <glyph glyph-name="uni2197" unicode="&#x2197;" horiz-adv-x="1103" 
d="M1001 264l-57 -2l2 643l-805 -807l-39 37l807 807l-643 -6v59h735v-731z" />
    <glyph glyph-name="uni2198" unicode="&#x2198;" horiz-adv-x="1101" 
d="M268 20l-2 58l643 -2l-807 805l37 39l807 -807l-6 643h59v-736h-731z" />
    <glyph glyph-name="uni2199" unicode="&#x2199;" horiz-adv-x="1101" 
d="M834 20h-732v736h60l-6 -643l807 807l36 -39l-806 -805l643 2z" />
    <glyph glyph-name="partialdiff" unicode="&#x2202;" horiz-adv-x="1136" 
d="M592 1450q195 -11 326.5 -120t177 -285.5t0.5 -387.5q-69 -318 -238 -503t-409 -185q-216 0 -325 138t-65 350q44 216 195.5 348.5t353.5 132.5q204 0 310 -138t65 -349q70 196 70.5 372t-58.5 298t-167 195t-248 77zM123 457q-40 -186 53 -307t281 -121q164 0 300 121
t175 307q25 118 -12 215.5t-120 152t-192 54.5q-178 0 -311.5 -116.5t-173.5 -305.5z" />
    <glyph glyph-name="uni2206" unicode="&#x2206;" horiz-adv-x="1503" 
d="M979 1450l342 -1450h-1360l957 1450h61zM66 57h1183l-311 1323z" />
    <glyph glyph-name="product" unicode="&#x220f;" horiz-adv-x="1232" 
d="M12 0l310 1450h987l-310 -1450h-61l297 1393h-864l-297 -1393h-62z" />
    <glyph glyph-name="summation" unicode="&#x2211;" horiz-adv-x="1087" 
d="M270 1450h944l-12 -57h-878l432 -650l-13 -49l-688 -639h863l-13 -55h-944l12 55l727 672l-442 666z" />
    <glyph glyph-name="minus" unicode="&#x2212;" horiz-adv-x="1228" 
d="M207 627l12 53h860l-12 -53h-860z" />
    <glyph glyph-name="radical" unicode="&#x221a;" horiz-adv-x="1112" 
d="M387 0l-102 723h-222l13 55h260l102 -731l783 1403h67l-813 -1450h-88z" />
    <glyph glyph-name="infinity" unicode="&#x221e;" horiz-adv-x="1970" 
d="M1520 1018q161 0 246 -101t53 -255q-34 -161 -157.5 -259t-293.5 -98q-123 0 -215.5 78t-142.5 221q-118 -144 -244 -221.5t-248 -77.5q-161 0 -247 101.5t-54 255.5q34 161 157.5 258.5t295.5 97.5q123 0 214.5 -77t147.5 -220q110 143 237 220t251 77zM281 662
q-29 -139 37 -221.5t210 -82.5q113 0 232 77.5t231 226.5q-47 148 -133.5 225.5t-200.5 77.5q-144 0 -245.5 -82t-130.5 -221zM1044 662q49 -148 136 -226t198 -78q145 0 246.5 82t130.5 222t-37.5 221.5t-210.5 81.5q-111 0 -230.5 -77.5t-232.5 -225.5z" />
    <glyph glyph-name="integral" unicode="&#x222b;" horiz-adv-x="538" 
d="M-137 -406l12 52h25q72 0 125 54.5t73 147.5l285 1346q26 119 97.5 186.5t172.5 67.5h21l-12 -51h-21q-73 0 -129 -56t-76 -147l-284 -1346q-26 -119 -96.5 -186.5t-168.5 -67.5h-24z" />
    <glyph glyph-name="approxequal" unicode="&#x2248;" horiz-adv-x="1306" 
d="M203 604q144 125 280 125q56 0 112.5 -21.5t95.5 -47t91 -47t101 -21.5q61 0 115.5 25t121.5 81l33 -34q-144 -125 -281 -125q-56 0 -112 21.5t-95 47t-91 47t-101 21.5q-60 0 -115 -25t-122 -82zM264 895q144 125 281 125q56 0 112.5 -21.5t95 -47t90.5 -47t101 -21.5
q61 0 116 25t122 81l32 -35q-144 -125 -280 -125q-56 0 -111.5 21.5t-94 47.5t-90.5 47.5t-101 21.5q-114 0 -238 -107z" />
    <glyph glyph-name="notequal" unicode="&#x2260;" horiz-adv-x="1228" 
d="M352 215l150 252h-326l10 53h346l166 277h-452l10 53h473l150 252h61l-149 -252h325l-10 -53h-346l-166 -277h453l-11 -53h-473l-149 -252h-62z" />
    <glyph glyph-name="lessequal" unicode="&#x2264;" horiz-adv-x="1230" 
d="M936 -4h-860l10 53h860zM207 621l14 67l852 393l14 -53l-825 -379l662 -379l-33 -45z" />
    <glyph glyph-name="greaterequal" unicode="&#x2265;" horiz-adv-x="1228" 
d="M74 -4l10 53h860l-10 -53h-860zM131 279l825 378l-661 379l33 45l684 -395l-15 -68l-852 -393z" />
    <glyph glyph-name="uni2460" unicode="&#x2460;" 
d="M918 -31q-203 0 -377 102t-275.5 276t-101.5 378t101.5 378t275.5 276t377 102q153 0 293 -60.5t241.5 -162t162 -241.5t60.5 -292t-60.5 -292t-162 -241.5t-241.5 -162t-293 -60.5zM231 723q0 -187 92.5 -346t251.5 -251.5t345 -92.5q187 0 346.5 92.5t252.5 251.5
t93 346q0 188 -93 348t-252.5 253t-346.5 93q-186 0 -345 -93t-251.5 -253t-92.5 -348zM610 291l4 16q59 6 91.5 18.5t42.5 27t16 40.5l129 615h-129l4 16q207 52 346 150h19l-166 -781q-8 -38 9.5 -57.5t76.5 -28.5l-4 -16h-439z" />
    <glyph glyph-name="uni2461" unicode="&#x2461;" 
d="M918 -31q-203 0 -377 102t-275.5 276t-101.5 378t101.5 378t275.5 276t377 102q153 0 293 -60.5t241.5 -162t162 -241.5t60.5 -292t-60.5 -292t-162 -241.5t-241.5 -162t-293 -60.5zM231 723q0 -187 92.5 -346t251.5 -251.5t345 -92.5q187 0 346.5 92.5t252.5 251.5
t93 346q0 188 -93 348t-252.5 253t-346.5 93q-186 0 -345 -93t-251.5 -253t-92.5 -348zM532 291l7 31q24 87 64.5 155.5t87.5 111.5t99 78t102 65t92.5 62t74.5 79.5t45 107.5q15 73 -15 118.5t-92 45.5q-87 0 -138 -56t-46 -128q4 -43 -18.5 -72t-57.5 -37
q-46 -11 -72.5 13t-17.5 75q15 97 120.5 168.5t231.5 71.5q159 0 238.5 -70t54.5 -186q-18 -83 -73.5 -141.5t-131 -92.5t-153 -60t-158 -63t-127.5 -84h365q62 0 121 32.5t94 109.5h16l-106 -334h-607z" />
    <glyph glyph-name="uni2462" unicode="&#x2462;" 
d="M918 -31q-203 0 -377 102t-275.5 276t-101.5 378t101.5 378t275.5 276t377 102q153 0 293 -60.5t241.5 -162t162 -241.5t60.5 -292t-60.5 -292t-162 -241.5t-241.5 -162t-293 -60.5zM231 723q0 -187 92.5 -346t251.5 -251.5t345 -92.5q187 0 346.5 92.5t252.5 251.5
t93 346q0 188 -93 348t-252.5 253t-346.5 93q-186 0 -345 -93t-251.5 -253t-92.5 -348zM553 449q-7 45 14 87.5t68 53.5q34 9 59.5 -1.5t33.5 -43t-21 -90.5q-17 -49 14 -98.5t102 -49.5q64 0 116 51.5t73 147.5q22 99 -33.5 153t-177.5 54l4 30q113 24 189 87.5t96 158.5
q17 68 -8.5 112t-86.5 44q-78 0 -119.5 -53t-39.5 -123q4 -47 -20.5 -76.5t-61.5 -34.5q-47 -9 -71 15t-15 75q18 93 116.5 162.5t225.5 69.5q144 0 216 -57t54 -148q-14 -82 -102.5 -144t-227.5 -79q142 -2 217.5 -66.5t51.5 -179.5q-21 -104 -134 -169t-266 -65
q-100 0 -176.5 47.5t-89.5 129.5z" />
    <glyph glyph-name="uni2463" unicode="&#x2463;" 
d="M918 -31q-203 0 -377 102t-275.5 276t-101.5 378t101.5 378t275.5 276t377 102q153 0 293 -60.5t241.5 -162t162 -241.5t60.5 -292t-60.5 -292t-162 -241.5t-241.5 -162t-293 -60.5zM231 723q0 -187 92.5 -346t251.5 -251.5t345 -92.5q187 0 346.5 92.5t252.5 251.5
t93 346q0 188 -93 348t-252.5 253t-346.5 93q-186 0 -345 -93t-251.5 -253t-92.5 -348zM481 526l4 19l504 633h172l-125 -586h15q46 0 103 57.5t97 143.5h19l-88 -267h-158l-18 -77q-17 -66 -1.5 -99.5t78.5 -42.5l-4 -16h-432l4 16q69 11 105 42.5t49 99.5l16 77h-340z
M563 592h273l98 467z" />
    <glyph glyph-name="uni2464" unicode="&#x2464;" 
d="M918 -31q-203 0 -377 102t-275.5 276t-101.5 378t101.5 378t275.5 276t377 102q153 0 293 -60.5t241.5 -162t162 -241.5t60.5 -292t-60.5 -292t-162 -241.5t-241.5 -162t-293 -60.5zM231 723q0 -187 92.5 -346t251.5 -251.5t345 -92.5q187 0 346.5 92.5t252.5 251.5
t93 346q0 188 -93 348t-252.5 253t-346.5 93q-186 0 -345 -93t-251.5 -253t-92.5 -348zM545 412q-10 35 5 65.5t48 42.5q41 13 74 -11.5t33 -84.5q0 -47 29.5 -81.5t72.5 -35.5q59 -1 105.5 54.5t66.5 150.5q20 93 -13 156t-106 63q-87 0 -176 -74l-25 21l160 483h330
q81 0 111 62h18l-23 -234h-458l-92 -272q114 114 237 114q134 0 203 -84.5t41 -214.5q-25 -116 -131 -188t-262 -72q-82 0 -154 35.5t-94 104.5z" />
    <glyph glyph-name="uni2465" unicode="&#x2465;" 
d="M918 -31q-203 0 -377 102t-275.5 276t-101.5 378t101.5 378t275.5 276t377 102q153 0 293 -60.5t241.5 -162t162 -241.5t60.5 -292t-60.5 -292t-162 -241.5t-241.5 -162t-293 -60.5zM231 723q0 -187 92.5 -346t251.5 -251.5t345 -92.5q187 0 346.5 92.5t252.5 251.5
t93 346q0 188 -93 348t-252.5 253t-346.5 93q-186 0 -345 -93t-251.5 -253t-92.5 -348zM567 709q33 151 110.5 259t177.5 160t214 52q50 0 102 -18t80 -50q34 -29 39 -66t-13 -64t-48 -34q-52 -15 -80 11.5t-25 84.5q3 44 -16.5 73.5t-54.5 29.5q-81 0 -153 -110.5
t-112 -276.5q89 100 203 100q120 0 181.5 -82.5t31.5 -216.5q-26 -124 -120.5 -207.5t-235.5 -83.5q-171 0 -248 120t-33 319zM778 717q-34 -183 -14.5 -297.5t88.5 -114.5q50 0 92 63.5t62 153.5q23 105 -9.5 174.5t-103.5 69.5q-63 0 -115 -49z" />
    <glyph glyph-name="uni2466" unicode="&#x2466;" 
d="M918 -31q-203 0 -377 102t-275.5 276t-101.5 378t101.5 378t275.5 276t377 102q153 0 293 -60.5t241.5 -162t162 -241.5t60.5 -292t-60.5 -292t-162 -241.5t-241.5 -162t-293 -60.5zM231 723q0 -187 92.5 -346t251.5 -251.5t345 -92.5q187 0 346.5 92.5t252.5 251.5
t93 346q0 188 -93 348t-252.5 253t-346.5 93q-186 0 -345 -93t-251.5 -253t-92.5 -348zM604 870l96 291h603l-3 -18q-124 -125 -209 -235.5t-135.5 -215.5t-76.5 -195t-45 -206h-220q15 92 51.5 176t77.5 146t111.5 135t124 119.5t145.5 121.5h-325q-61 0 -99.5 -27.5
t-78.5 -91.5h-17z" />
    <glyph glyph-name="uni2467" unicode="&#x2467;" 
d="M918 -31q-203 0 -377 102t-275.5 276t-101.5 378t101.5 378t275.5 276t377 102q153 0 293 -60.5t241.5 -162t162 -241.5t60.5 -292t-60.5 -292t-162 -241.5t-241.5 -162t-293 -60.5zM231 723q0 -187 92.5 -346t251.5 -251.5t345 -92.5q187 0 346.5 92.5t252.5 251.5
t93 346q0 188 -93 348t-252.5 253t-346.5 93q-186 0 -345 -93t-251.5 -253t-92.5 -348zM539 494q15 72 75.5 119.5t180.5 88.5q-30 17 -51.5 33t-44 39t-32.5 47.5t-15.5 58.5t5.5 72q21 97 122.5 162.5t250.5 65.5q133 0 208.5 -60.5t57.5 -138.5q-13 -68 -70.5 -110.5
t-156.5 -71.5q23 -12 39 -21t37 -22t35.5 -26t29.5 -29.5t23.5 -35t14.5 -40t5.5 -48t-6.5 -55.5q-23 -107 -132.5 -179.5t-278.5 -72.5q-150 0 -233 65.5t-64 158.5zM721 504q-17 -85 17.5 -142t105.5 -57q64 0 116.5 43.5t65.5 108.5q11 51 -15 93t-56.5 62.5t-94.5 55.5
q-19 11 -29 16q-86 -64 -110 -180zM879 1016q-7 -20 -4 -40.5t6.5 -35t16 -30t23 -26t29 -23t33.5 -21t37 -19.5q81 50 102 150q17 77 -11.5 126.5t-86.5 49.5q-52 0 -93.5 -36.5t-51.5 -94.5z" />
    <glyph glyph-name="uni2468" unicode="&#x2468;" 
d="M918 -31q-203 0 -377 102t-275.5 276t-101.5 378t101.5 378t275.5 276t377 102q153 0 293 -60.5t241.5 -162t162 -241.5t60.5 -292t-60.5 -292t-162 -241.5t-241.5 -162t-293 -60.5zM231 723q0 -187 92.5 -346t251.5 -251.5t345 -92.5q187 0 346.5 92.5t252.5 251.5
t93 346q0 188 -93 348t-252.5 253t-346.5 93q-186 0 -345 -93t-251.5 -253t-92.5 -348zM537 338q-34 29 -39 66t13 64t48 34q52 15 80 -11.5t25 -84.5q-3 -44 16.5 -73.5t54.5 -29.5q81 0 152.5 110t111.5 277q-89 -100 -202 -100q-120 0 -181.5 82.5t-31.5 216.5
q26 124 120.5 207.5t235.5 83.5q171 0 248 -120t33 -319q-33 -151 -110.5 -259t-177.5 -160t-214 -52q-50 0 -102 18t-80 50zM782 928q-23 -105 9.5 -174.5t103.5 -69.5q63 0 115 49q34 183 14.5 297.5t-88.5 114.5q-50 0 -92 -63.5t-62 -153.5z" />
    <glyph glyph-name="lozenge" unicode="&#x25ca;" horiz-adv-x="1075" 
d="M707 1450h65l266 -725l-575 -725h-66l-270 725zM190 717l244 -664l543 682l-244 660z" />
    <glyph glyph-name="circle" unicode="&#x25cb;" 
d="M918 -31q-203 0 -377 102t-275.5 276t-101.5 378t101.5 378t275.5 276t377 102q153 0 293 -60.5t241.5 -162t162 -241.5t60.5 -292t-60.5 -292t-162 -241.5t-241.5 -162t-293 -60.5zM231 723q0 -187 92.5 -346t251.5 -251.5t345 -92.5q187 0 346.5 92.5t252.5 251.5
t93 346q0 188 -93 348t-252.5 253t-346.5 93q-186 0 -345 -93t-251.5 -253t-92.5 -348z" />
    <glyph glyph-name="uni25CF" unicode="&#x25cf;" 
d="M918 -31q153 0 293 60t241 161.5t161 241.5t60 293t-60 293t-161 241.5t-241 161.5t-293 60t-293 -60t-240.5 -161.5t-160.5 -241.5t-60 -293t60 -293t160.5 -241.5t240.5 -161.5t293 -60z" />
    <glyph glyph-name="uni2776" unicode="&#x2776;" 
d="M918 -31q153 0 293 60t241 161.5t161 241.5t60 293t-60 293t-161 241.5t-241 161.5t-293 60t-293 -60t-240.5 -161.5t-160.5 -241.5t-60 -293t60 -293t160.5 -241.5t240.5 -161.5t293 -60zM610 291l4 16q59 6 91.5 18.5t42.5 27t16 40.5l129 615h-129l4 16
q207 52 346 150h19l-166 -781q-8 -38 9.5 -57.5t76.5 -28.5l-4 -16h-439z" />
    <glyph glyph-name="uni2777" unicode="&#x2777;" 
d="M918 -31q153 0 293 60t241 161.5t161 241.5t60 293t-60 293t-161 241.5t-241 161.5t-293 60t-293 -60t-240.5 -161.5t-160.5 -241.5t-60 -293t60 -293t160.5 -241.5t240.5 -161.5t293 -60zM532 291l7 31q24 87 64.5 155.5t87.5 111.5t99 78t102 65t92.5 62t74.5 79.5
t45 107.5q15 73 -15 118.5t-92 45.5q-87 0 -138 -56t-46 -128q4 -43 -18.5 -72t-57.5 -37q-46 -11 -72.5 13t-17.5 75q15 97 120.5 168.5t231.5 71.5q159 0 238.5 -70t54.5 -186q-18 -83 -73.5 -141.5t-131 -92.5t-153 -60t-158 -63t-127.5 -84h365q62 0 121 32.5t94 109.5
h16l-106 -334h-607z" />
    <glyph glyph-name="uni2778" unicode="&#x2778;" 
d="M918 -31q153 0 293 60t241 161.5t161 241.5t60 293t-60 293t-161 241.5t-241 161.5t-293 60t-293 -60t-240.5 -161.5t-160.5 -241.5t-60 -293t60 -293t160.5 -241.5t240.5 -161.5t293 -60zM553 449q-7 45 14 87.5t68 53.5q34 9 59.5 -1.5t33.5 -43t-21 -90.5
q-17 -49 14 -98.5t102 -49.5q64 0 116 51.5t73 147.5q22 99 -33.5 153t-177.5 54l4 30q113 24 189 87.5t96 158.5q17 68 -8.5 112t-86.5 44q-78 0 -119.5 -53t-39.5 -123q4 -47 -20.5 -76.5t-61.5 -34.5q-47 -9 -71 15t-15 75q18 93 116.5 162.5t225.5 69.5q144 0 216 -57
t54 -148q-14 -82 -102.5 -144t-227.5 -79q142 -2 217.5 -66.5t51.5 -179.5q-21 -104 -134 -169t-266 -65q-100 0 -176.5 47.5t-89.5 129.5z" />
    <glyph glyph-name="uni2779" unicode="&#x2779;" 
d="M918 -31q153 0 293 60t241 161.5t161 241.5t60 293t-60 293t-161 241.5t-241 161.5t-293 60t-293 -60t-240.5 -161.5t-160.5 -241.5t-60 -293t60 -293t160.5 -241.5t240.5 -161.5t293 -60zM481 526l4 19l504 633h172l-125 -586h15q46 0 103 57.5t97 143.5h19l-88 -267
h-158l-18 -77q-17 -66 -1.5 -99.5t78.5 -42.5l-4 -16h-432l4 16q69 11 105 42.5t49 99.5l16 77h-340zM563 592h273l98 467z" />
    <glyph glyph-name="uni277A" unicode="&#x277a;" 
d="M918 -31q153 0 293 60t241 161.5t161 241.5t60 293t-60 293t-161 241.5t-241 161.5t-293 60t-293 -60t-240.5 -161.5t-160.5 -241.5t-60 -293t60 -293t160.5 -241.5t240.5 -161.5t293 -60zM545 412q-10 35 5 65.5t48 42.5q41 13 74 -11.5t33 -84.5q0 -47 29.5 -81.5
t72.5 -35.5q59 -1 105.5 54.5t66.5 150.5q20 93 -13 156t-106 63q-87 0 -176 -74l-25 21l160 483h330q81 0 111 62h18l-23 -234h-458l-92 -272q114 114 237 114q134 0 203 -84.5t41 -214.5q-25 -116 -131 -188t-262 -72q-82 0 -154 35.5t-94 104.5z" />
    <glyph glyph-name="uni277B" unicode="&#x277b;" 
d="M918 -31q153 0 293 60t241 161.5t161 241.5t60 293t-60 293t-161 241.5t-241 161.5t-293 60t-293 -60t-240.5 -161.5t-160.5 -241.5t-60 -293t60 -293t160.5 -241.5t240.5 -161.5t293 -60zM567 709q33 151 110.5 259t177.5 160t214 52q50 0 102 -18t80 -50q34 -29 39 -66
t-13 -64t-48 -34q-52 -15 -80 11.5t-25 84.5q3 44 -16.5 73.5t-54.5 29.5q-81 0 -153 -110.5t-112 -276.5q89 100 203 100q120 0 181.5 -82.5t31.5 -216.5q-26 -124 -120.5 -207.5t-235.5 -83.5q-171 0 -248 120t-33 319zM778 717q-34 -183 -14.5 -297.5t88.5 -114.5
q50 0 92 63.5t62 153.5q23 105 -9.5 174.5t-103.5 69.5q-63 0 -115 -49z" />
    <glyph glyph-name="uni277C" unicode="&#x277c;" 
d="M918 -31q153 0 293 60t241 161.5t161 241.5t60 293t-60 293t-161 241.5t-241 161.5t-293 60t-293 -60t-240.5 -161.5t-160.5 -241.5t-60 -293t60 -293t160.5 -241.5t240.5 -161.5t293 -60zM604 870l96 291h603l-3 -18q-124 -125 -209 -235.5t-135.5 -215.5t-76.5 -195
t-45 -206h-220q15 92 51.5 176t77.5 146t111.5 135t124 119.5t145.5 121.5h-325q-61 0 -99.5 -27.5t-78.5 -91.5h-17z" />
    <glyph glyph-name="uni277D" unicode="&#x277d;" 
d="M918 -31q153 0 293 60t241 161.5t161 241.5t60 293t-60 293t-161 241.5t-241 161.5t-293 60t-293 -60t-240.5 -161.5t-160.5 -241.5t-60 -293t60 -293t160.5 -241.5t240.5 -161.5t293 -60zM539 494q15 72 75.5 119.5t180.5 88.5q-30 17 -51.5 33t-44 39t-32.5 47.5
t-15.5 58.5t5.5 72q21 97 122.5 162.5t250.5 65.5q133 0 208.5 -60.5t57.5 -138.5q-13 -68 -70.5 -110.5t-156.5 -71.5q23 -12 39 -21t37 -22t35.5 -26t29.5 -29.5t23.5 -35t14.5 -40t5.5 -48t-6.5 -55.5q-23 -107 -132.5 -179.5t-278.5 -72.5q-150 0 -233 65.5t-64 158.5z
M721 504q-17 -85 17.5 -142t105.5 -57q64 0 116.5 43.5t65.5 108.5q11 51 -15 93t-56.5 62.5t-94.5 55.5q-19 11 -29 16q-86 -64 -110 -180zM879 1016q-7 -20 -4 -40.5t6.5 -35t16 -30t23 -26t29 -23t33.5 -21t37 -19.5q81 50 102 150q17 77 -11.5 126.5t-86.5 49.5
q-52 0 -93.5 -36.5t-51.5 -94.5z" />
    <glyph glyph-name="uni277E" unicode="&#x277e;" 
d="M918 -31q153 0 293 60t241 161.5t161 241.5t60 293t-60 293t-161 241.5t-241 161.5t-293 60t-293 -60t-240.5 -161.5t-160.5 -241.5t-60 -293t60 -293t160.5 -241.5t240.5 -161.5t293 -60zM537 338q-34 29 -39 66t13 64t48 34q52 15 80 -11.5t25 -84.5q-3 -44 16.5 -73.5
t54.5 -29.5q81 0 152.5 110t111.5 277q-89 -100 -202 -100q-120 0 -181.5 82.5t-31.5 216.5q26 124 120.5 207.5t235.5 83.5q171 0 248 -120t33 -319q-33 -151 -110.5 -259t-177.5 -160t-214 -52q-50 0 -102 18t-80 50zM782 928q-23 -105 9.5 -174.5t103.5 -69.5
q63 0 115 49q34 183 14.5 297.5t-88.5 114.5q-50 0 -92 -63.5t-62 -153.5z" />
    <glyph glyph-name="uniF8FF" unicode="&#xf8ff;" horiz-adv-x="1597" 
d="M1260 485q104 0 180 -77.5t76 -184.5q0 -105 -75.5 -180.5t-180.5 -75.5q-106 0 -184.5 76t-78.5 180v203h-395v-203q0 -105 -78 -180.5t-186 -75.5q-106 0 -181 75t-75 181t76 184t180 78h205v396h-205q-104 0 -180 78t-76 184t76 182t180 76q109 0 186.5 -76t77.5 -182
v-203h395v203q0 104 78 181t185 77q106 0 181 -76t75 -182t-76 -184t-180 -78h-205v-396h205zM141 223q0 -83 57.5 -140.5t139.5 -57.5q85 0 145 57.5t60 140.5v203h-205q-82 0 -139.5 -60t-57.5 -143zM141 1143q0 -83 57.5 -143t139.5 -60h205v203q0 83 -59.5 141.5
t-145.5 58.5q-82 0 -139.5 -58.5t-57.5 -141.5zM602 485h395v396h-395v-396zM1055 223q0 -83 60 -140.5t145 -57.5q82 0 140 57.5t58 140.5q0 85 -58 144t-140 59h-205v-203zM1055 940h205q82 0 140 59t58 144q0 83 -58 141.5t-140 58.5q-86 0 -145.5 -58.5t-59.5 -141.5
v-203z" />
    <glyph glyph-name="C.ss04" horiz-adv-x="1388" 
d="M1516 1462l-199 -432l-29 4q28 175 -41.5 282t-214.5 107q-193 0 -351 -169.5t-216 -444.5q-31 -141 -15 -264.5t65 -215.5t136 -145t197 -53q151 0 278 92.5t203 268.5l29 -7q-71 -236 -250 -376t-399 -140q-148 0 -267.5 60t-191.5 166.5t-98.5 252.5t10.5 318
q30 140 108.5 269.5t190 228.5t258.5 158t303 59q83 0 156 -18t111 -37t73.5 -29t63.5 6t61 67z" />
    <glyph glyph-name="Cacute.ss04" horiz-adv-x="1388" 
d="M1516 1462l-199 -432l-29 4q28 175 -41.5 282t-214.5 107q-193 0 -351 -169.5t-216 -444.5q-31 -141 -15 -264.5t65 -215.5t136 -145t197 -53q151 0 278 92.5t203 268.5l29 -7q-71 -236 -250 -376t-399 -140q-148 0 -267.5 60t-191.5 166.5t-98.5 252.5t10.5 318
q30 140 108.5 269.5t190 228.5t258.5 158t303 59q83 0 156 -18t111 -37t73.5 -29t63.5 6t61 67zM1004 1569l208 352h306l-486 -352h-28z" />
    <glyph glyph-name="Ccaron.ss04" horiz-adv-x="1388" 
d="M1516 1462l-199 -432l-29 4q28 175 -41.5 282t-214.5 107q-193 0 -351 -169.5t-216 -444.5q-31 -141 -15 -264.5t65 -215.5t136 -145t197 -53q151 0 278 92.5t203 268.5l29 -7q-71 -236 -250 -376t-399 -140q-148 0 -267.5 60t-191.5 166.5t-98.5 252.5t10.5 318
q30 140 108.5 269.5t190 228.5t258.5 158t303 59q83 0 156 -18t111 -37t73.5 -29t63.5 6t61 67zM776 1909l23 14l239 -233l344 233l17 -14l-279 -340h-217z" />
    <glyph glyph-name="Ccedilla.ss04" horiz-adv-x="1388" 
d="M1516 1462l-199 -432l-29 4q28 175 -41.5 282t-214.5 107q-193 0 -351 -169.5t-216 -444.5q-31 -141 -15 -264.5t65 -215.5t136 -145t197 -53q151 0 278 92.5t203 268.5l29 -7q-71 -236 -250 -376t-399 -140h-35l-72 -90q95 4 142.5 -36.5t33.5 -110.5
q-23 -106 -129 -149.5t-258 -18.5l6 26q89 -6 145 20.5t68 82.5q8 37 -23 64.5t-98 39.5l144 176q-132 15 -236 81t-166 170.5t-82.5 243t13.5 298.5q30 140 108.5 269.5t190 228.5t258.5 158t303 59q83 0 156 -18t111 -37t73.5 -29t63.5 6t61 67z" />
    <glyph glyph-name="Ccircumflex.ss04" horiz-adv-x="1388" 
d="M1516 1462l-199 -432l-29 4q28 175 -41.5 282t-214.5 107q-193 0 -351 -169.5t-216 -444.5q-31 -141 -15 -264.5t65 -215.5t136 -145t197 -53q151 0 278 92.5t203 268.5l29 -7q-71 -236 -250 -376t-399 -140q-148 0 -267.5 60t-191.5 166.5t-98.5 252.5t10.5 318
q30 140 108.5 269.5t190 228.5t258.5 158t303 59q83 0 156 -18t111 -37t73.5 -29t63.5 6t61 67zM719 1585l268 338h217l137 -338l-22 -16l-246 235l-338 -235z" />
    <glyph glyph-name="Cdotaccent.ss04" horiz-adv-x="1388" 
d="M1516 1462l-199 -432l-29 4q28 175 -41.5 282t-214.5 107q-193 0 -351 -169.5t-216 -444.5q-31 -141 -15 -264.5t65 -215.5t136 -145t197 -53q151 0 278 92.5t203 268.5l29 -7q-71 -236 -250 -376t-399 -140q-148 0 -267.5 60t-191.5 166.5t-98.5 252.5t10.5 318
q30 140 108.5 269.5t190 228.5t258.5 158t303 59q83 0 156 -18t111 -37t73.5 -29t63.5 6t61 67zM868 1767q8 69 63 116.5t130 47.5t119.5 -47.5t36.5 -116.5q-9 -71 -64.5 -118t-128.5 -47q-75 0 -119.5 47t-36.5 118z" />
    <glyph glyph-name="G.ss04" horiz-adv-x="1540" 
d="M698 -31q-200 0 -339 102t-191 284t-6 411q43 201 169 364.5t308.5 257t384.5 93.5q83 0 159 -18.5t118 -37t81 -28.5t70 6t64 67l28 -8l-201 -432l-28 4q29 171 -51.5 280t-227.5 109q-191 -2 -354 -177.5t-221 -454.5q-41 -223 -16 -391t112.5 -266.5t218.5 -98.5
q114 0 205 74l86 399q19 89 -17.5 138.5t-125.5 53.5l6 31h641l-8 -31q-179 -12 -217 -192l-58 -258q-106 -126 -264 -203.5t-326 -77.5z" />
    <glyph glyph-name="K.ss08" horiz-adv-x="1601" 
d="M1004 0q2 66 -62 160l-373 522l-106 -502q-17 -73 15.5 -106t133.5 -45l-6 -29h-645l6 29q108 12 154 44.5t61 106.5l232 1090q17 74 -15 106.5t-135 44.5l6 29h645l-6 -29q-107 -12 -153.5 -44.5t-61.5 -106.5l-112 -535l727 555q84 64 68.5 96.5t-128.5 32.5l6 31h447
l-6 -31q-135 -9 -324 -151l-571 -432l430 -625q109 -170 258 -180l-8 -31h-477z" />
    <glyph glyph-name="uni0136.ss08" horiz-adv-x="1601" 
d="M1004 0q2 66 -62 160l-373 522l-106 -502q-17 -73 15.5 -106t133.5 -45l-6 -29h-645l6 29q108 12 154 44.5t61 106.5l232 1090q17 74 -15 106.5t-135 44.5l6 29h645l-6 -29q-107 -12 -153.5 -44.5t-61.5 -106.5l-112 -535l727 555q84 64 68.5 96.5t-128.5 32.5l6 31h447
l-6 -31q-135 -9 -324 -151l-571 -432l430 -625q109 -170 258 -180l-8 -31h-477zM446 -573v16q69 30 126.5 74t82.5 92q-8 -2 -22 -2q-59 0 -97.5 41.5t-25.5 107.5q11 57 57 94t109 37q80 0 119 -46.5t20 -125.5q-24 -116 -124.5 -191.5t-244.5 -96.5z" />
    <glyph glyph-name="R.ss08" horiz-adv-x="1546" 
d="M-33 29q109 11 154.5 43.5t62.5 117.5l230 1072q17 83 -15.5 115.5t-134.5 43.5l6 29h596q176 0 303.5 -54.5t185.5 -158t29 -238.5q-29 -141 -160.5 -239.5t-357.5 -120.5l303 -438q57 -78 110 -116.5t128 -53.5l-8 -31h-475q3 68 -50 141l-317 486l-92 -437
q-18 -86 14 -118t133 -43l-6 -29h-645zM569 684h105q166 0 278.5 98t143.5 242q22 106 0 188.5t-93 131.5t-186 49h-96z" />
    <glyph glyph-name="Racute.ss08" horiz-adv-x="1546" 
d="M-33 29q109 11 154.5 43.5t62.5 117.5l230 1072q17 83 -15.5 115.5t-134.5 43.5l6 29h596q176 0 303.5 -54.5t185.5 -158t29 -238.5q-29 -141 -160.5 -239.5t-357.5 -120.5l303 -438q57 -78 110 -116.5t128 -53.5l-8 -31h-475q3 68 -50 141l-317 486l-92 -437
q-18 -86 14 -118t133 -43l-6 -29h-645zM569 684h105q166 0 278.5 98t143.5 242q22 106 0 188.5t-93 131.5t-186 49h-96zM940 1569l209 352h305l-485 -352h-29z" />
    <glyph glyph-name="Rcaron.ss08" horiz-adv-x="1546" 
d="M-33 29q109 11 154.5 43.5t62.5 117.5l230 1072q17 83 -15.5 115.5t-134.5 43.5l6 29h596q176 0 303.5 -54.5t185.5 -158t29 -238.5q-29 -141 -160.5 -239.5t-357.5 -120.5l303 -438q57 -78 110 -116.5t128 -53.5l-8 -31h-475q3 68 -50 141l-317 486l-92 -437
q-18 -86 14 -118t133 -43l-6 -29h-645zM569 684h105q166 0 278.5 98t143.5 242q22 106 0 188.5t-93 131.5t-186 49h-96zM713 1909l22 14l240 -233l344 233l16 -14l-278 -340h-217z" />
    <glyph glyph-name="uni0156.ss08" horiz-adv-x="1546" 
d="M-33 29q109 11 154.5 43.5t62.5 117.5l230 1072q17 83 -15.5 115.5t-134.5 43.5l6 29h596q176 0 303.5 -54.5t185.5 -158t29 -238.5q-29 -141 -160.5 -239.5t-357.5 -120.5l303 -438q57 -78 110 -116.5t128 -53.5l-8 -31h-475q3 68 -50 141l-317 486l-92 -437
q-18 -86 14 -118t133 -43l-6 -29h-645zM432 -573v16q69 30 126.5 74t82.5 92q-8 -2 -23 -2q-59 0 -97 41.5t-25 107.5q11 57 57 94t109 37q80 0 119 -46.5t20 -125.5q-24 -116 -124.5 -191.5t-244.5 -96.5zM569 684h105q166 0 278.5 98t143.5 242q22 106 0 188.5t-93 131.5
t-186 49h-96z" />
    <glyph glyph-name="S.ss10" horiz-adv-x="1193" 
d="M524 -31q-95 0 -176 23t-123.5 47t-84 38t-81.5 -4.5t-92 -80.5l-28 6l223 477l26 -6q-23 -91 -14.5 -162t38 -123.5t78 -87t105.5 -51t119 -16.5q117 0 201 66t106 173q14 67 3 121t-41 90t-73 68t-94 55t-104.5 50.5t-103.5 54.5t-91 67t-68 88.5t-34 119t12 157.5
q32 154 177.5 248t349.5 94q88 0 167 -22t123.5 -45t87 -36.5t78.5 4t76 76.5l27 -8l-199 -424l-27 6q14 100 -7 178t-67.5 123t-106.5 67.5t-130 22.5q-105 0 -184.5 -62t-99.5 -161q-14 -68 1 -120t62 -91.5t91 -64t118 -59.5q49 -22 74 -34.5t69.5 -37.5t68 -45.5
t55.5 -51t46.5 -64t27.5 -76t11.5 -94t-14.5 -110.5q-37 -177 -193 -280t-385 -103z" />
    <glyph glyph-name="Sacute.ss10" horiz-adv-x="1193" 
d="M524 -31q-95 0 -176 23t-123.5 47t-84 38t-81.5 -4.5t-92 -80.5l-28 6l223 477l26 -6q-23 -91 -14.5 -162t38 -123.5t78 -87t105.5 -51t119 -16.5q117 0 201 66t106 173q14 67 3 121t-41 90t-73 68t-94 55t-104.5 50.5t-103.5 54.5t-91 67t-68 88.5t-34 119t12 157.5
q32 154 177.5 248t349.5 94q88 0 167 -22t123.5 -45t87 -36.5t78.5 4t76 76.5l27 -8l-199 -424l-27 6q14 100 -7 178t-67.5 123t-106.5 67.5t-130 22.5q-105 0 -184.5 -62t-99.5 -161q-14 -68 1 -120t62 -91.5t91 -64t118 -59.5q49 -22 74 -34.5t69.5 -37.5t68 -45.5
t55.5 -51t46.5 -64t27.5 -76t11.5 -94t-14.5 -110.5q-37 -177 -193 -280t-385 -103zM809 1569l209 352h305l-485 -352h-29z" />
    <glyph glyph-name="Scaron.ss10" horiz-adv-x="1193" 
d="M524 -31q-95 0 -176 23t-123.5 47t-84 38t-81.5 -4.5t-92 -80.5l-28 6l223 477l26 -6q-23 -91 -14.5 -162t38 -123.5t78 -87t105.5 -51t119 -16.5q117 0 201 66t106 173q14 67 3 121t-41 90t-73 68t-94 55t-104.5 50.5t-103.5 54.5t-91 67t-68 88.5t-34 119t12 157.5
q32 154 177.5 248t349.5 94q88 0 167 -22t123.5 -45t87 -36.5t78.5 4t76 76.5l27 -8l-199 -424l-27 6q14 100 -7 178t-67.5 123t-106.5 67.5t-130 22.5q-105 0 -184.5 -62t-99.5 -161q-14 -68 1 -120t62 -91.5t91 -64t118 -59.5q49 -22 74 -34.5t69.5 -37.5t68 -45.5
t55.5 -51t46.5 -64t27.5 -76t11.5 -94t-14.5 -110.5q-37 -177 -193 -280t-385 -103zM582 1909l22 14l240 -233l344 233l16 -14l-278 -340h-217z" />
    <glyph glyph-name="Scedilla.ss10" horiz-adv-x="1193" 
d="M524 -31h-24l-72 -90q95 4 142.5 -36.5t33.5 -110.5q-23 -106 -129 -149.5t-258 -18.5l6 26q89 -6 145 20.5t68 82.5q8 37 -23 64.5t-98 39.5l142 174q-66 7 -125.5 25.5t-94.5 37.5t-70.5 33.5t-62.5 15t-61.5 -20.5t-75.5 -70l-28 6l223 477l26 -6q-23 -91 -14.5 -162
t38 -123.5t78 -87t105.5 -51t119 -16.5q117 0 201 66t106 173q14 67 3 121t-41 90t-73 68t-94 55t-104.5 50.5t-103.5 54.5t-91 67t-68 88.5t-34 119t12 157.5q32 154 177.5 248t349.5 94q88 0 167 -22t123.5 -45t87 -36.5t78.5 4t76 76.5l27 -8l-199 -424l-27 6
q14 100 -7 178t-67.5 123t-106.5 67.5t-130 22.5q-105 0 -184.5 -62t-99.5 -161q-14 -68 1 -120t62 -91.5t91 -64t118 -59.5q49 -22 74 -34.5t69.5 -37.5t68 -45.5t55.5 -51t46.5 -64t27.5 -76t11.5 -94t-14.5 -110.5q-37 -177 -193 -280t-385 -103z" />
    <glyph glyph-name="Scircumflex.ss10" horiz-adv-x="1193" 
d="M524 -31q-95 0 -176 23t-123.5 47t-84 38t-81.5 -4.5t-92 -80.5l-28 6l223 477l26 -6q-23 -91 -14.5 -162t38 -123.5t78 -87t105.5 -51t119 -16.5q117 0 201 66t106 173q14 67 3 121t-41 90t-73 68t-94 55t-104.5 50.5t-103.5 54.5t-91 67t-68 88.5t-34 119t12 157.5
q32 154 177.5 248t349.5 94q88 0 167 -22t123.5 -45t87 -36.5t78.5 4t76 76.5l27 -8l-199 -424l-27 6q14 100 -7 178t-67.5 123t-106.5 67.5t-130 22.5q-105 0 -184.5 -62t-99.5 -161q-14 -68 1 -120t62 -91.5t91 -64t118 -59.5q49 -22 74 -34.5t69.5 -37.5t68 -45.5
t55.5 -51t46.5 -64t27.5 -76t11.5 -94t-14.5 -110.5q-37 -177 -193 -280t-385 -103zM524 1585l269 338h217l137 -338l-23 -16l-245 235l-338 -235z" />
    <glyph glyph-name="uni0218.ss10" horiz-adv-x="1193" 
d="M524 -31q-95 0 -176 23t-123.5 47t-84 38t-81.5 -4.5t-92 -80.5l-28 6l223 477l26 -6q-23 -91 -14.5 -162t38 -123.5t78 -87t105.5 -51t119 -16.5q117 0 201 66t106 173q14 67 3 121t-41 90t-73 68t-94 55t-104.5 50.5t-103.5 54.5t-91 67t-68 88.5t-34 119t12 157.5
q32 154 177.5 248t349.5 94q88 0 167 -22t123.5 -45t87 -36.5t78.5 4t76 76.5l27 -8l-199 -424l-27 6q14 100 -7 178t-67.5 123t-106.5 67.5t-130 22.5q-105 0 -184.5 -62t-99.5 -161q-14 -68 1 -120t62 -91.5t91 -64t118 -59.5q49 -22 74 -34.5t69.5 -37.5t68 -45.5
t55.5 -51t46.5 -64t27.5 -76t11.5 -94t-14.5 -110.5q-37 -177 -193 -280t-385 -103zM205 -573v16q69 30 126.5 74t82.5 92q-8 -2 -23 -2q-59 0 -97.5 41.5t-25.5 107.5q11 57 57 94t109 37q80 0 119 -46.5t20 -125.5q-24 -116 -124.5 -191.5t-243.5 -96.5z" />
    <glyph glyph-name="M.titl" horiz-adv-x="2084" 
d="M-72 29q168 2 201 131l328 1067q28 95 -3.5 139t-134.5 55l7 29h413l271 -1090l762 1090h378l-6 -29q-108 -9 -157 -43t-56 -106l-139 -1112q-8 -65 24 -97.5t132 -33.5l-6 -29h-635l6 29q99 1 145 31t55 98l129 1011l-817 -1169h-26l-305 1165l-304 -1005
q-19 -63 16 -96.5t130 -34.5l-6 -29h-408z" />
    <glyph glyph-name="F_T" horiz-adv-x="2117" 
d="M-33 29q108 12 154 44.5t61 106.5l232 1090q17 74 -15 106.5t-135 44.5l6 29h1801q111 0 135 31h28l-22 -428h-29q-8 182 -82.5 261t-240.5 79h-70l-258 -1211q-15 -68 14 -103t133 -48l-8 -31h-637l6 31q76 9 120.5 29.5t63.5 48t29 73.5l258 1211h-790l-133 -621h237
q157 0 187 217h28l-43 -489h-28q3 215 -142 215h-252l-112 -535q-18 -75 24.5 -107t186.5 -44l-6 -29h-707z" />
    <glyph glyph-name="T_T" horiz-adv-x="2115" 
d="M1532 182q-16 -68 12.5 -103t132.5 -48l-6 -31h-639l8 31q75 9 119.5 29.5t63 48t28.5 73.5l258 1211h-528l-258 -1211q-15 -69 13 -103.5t134 -47.5l-8 -31h-639l8 31q110 13 153 47.5t58 103.5l258 1211h-71q-165 0 -273.5 -79t-193.5 -261h-29l160 428h29
q13 -31 122 -31h1624q112 0 136 31h28l-22 -428h-29q-8 182 -82 261t-239 79h-72z" />
    <glyph glyph-name="T_h" horiz-adv-x="2322" 
d="M723 182q-15 -69 13 -103.5t134 -47.5l-8 -31h-639l8 31q111 13 154.5 48t56.5 103l258 1211h-71q-165 0 -273.5 -79t-193.5 -261h-29l160 428h29q13 -31 122 -31h1145l97 31h28l-137 -645q109 113 202.5 172t188.5 59q146 0 208 -94.5t28 -253.5l-117 -559
q-14 -62 6.5 -90.5t87.5 -40.5l-6 -29h-512l6 29q73 12 106.5 40.5t45.5 90.5l114 536q21 96 -16.5 148.5t-112.5 52.5q-60 0 -113 -29t-130 -92l-129 -616q-12 -62 8 -90.5t86 -40.5l-6 -29h-512l6 29q73 12 106 40.5t45 90.5l263 1233h-449z" />
    <glyph glyph-name="T_i" horiz-adv-x="1640" 
d="M231 31q111 13 154.5 48t56.5 103l258 1211h-61q-171 0 -281 -77.5t-196 -262.5h-29l160 428h29q13 -31 122 -31h787q60 0 111 15.5t82 34.5t74.5 34.5t90.5 15.5q76 0 116.5 -48.5t25.5 -125.5q-14 -65 -69 -110t-128 -45q-78 0 -120.5 48t-27.5 124h-407l-256 -1211
q-15 -69 13 -103.5t134 -47.5l-8 -31h-639zM1014 0l6 29q68 12 99.5 41t43.5 90l137 637q15 78 -13.5 105t-108.5 13l6 29l411 125h29l-194 -909q-12 -62 7.5 -90.5t80.5 -40.5l-7 -29h-497z" />
    <glyph glyph-name="i.loclTRK" horiz-adv-x="618" 
d="M362 160q-14 -62 7 -90.5t88 -40.5l-6 -29h-512l6 29q73 12 106 40.5t45 90.5l137 643q16 74 -8 100t-90 21l6 28l385 117h29zM293 1356q8 69 62.5 116.5t129.5 47.5t119.5 -47.5t36.5 -116.5q-9 -71 -64 -118.5t-128 -47.5q-75 0 -119.5 47.5t-36.5 118.5z" />
    <glyph glyph-name="f.calt" horiz-adv-x="1024" 
d="M879 1038l-13 -57h-284l-176 -825q-13 -62 18 -87.5t135 -39.5l-6 -29h-582l6 29q78 14 114.5 40.5t47.5 86.5l176 825h-170l13 57h170l8 39q32 148 113.5 251t185.5 148.5t223 43.5q137 -3 214.5 -44t60.5 -116q-6 -33 -29.5 -56.5t-51.5 -32t-57.5 -5.5t-48.5 20
q-22 15 -30.5 39.5t-8.5 47t-3 43.5t-20 33.5t-53 12.5q-149 -3 -215 -319l-22 -105h285z" />
    <glyph glyph-name="germandbls.calt" horiz-adv-x="1572" 
d="M1104 791q89 6 163.5 -19t125 -79.5t69 -137t-3.5 -190.5q-38 -174 -177.5 -284t-326.5 -110q-159 0 -253.5 73.5t-108.5 201.5l31 14q19 -66 87 -106.5t156 -40.5q108 0 192.5 77t110.5 199q37 176 -64.5 272.5t-297.5 63.5l-12 41l489 545q-40 52 -116 82t-156 30
q-135 0 -232 -84.5t-131 -248.5l-233 -1090h-455l6 29q102 9 146 40t61 109l172 805q35 159 135.5 274t236.5 170t292 54q161 0 334.5 -65t228.5 -150z" />
    <glyph glyph-name="a.ss01" horiz-adv-x="1255" 
d="M379 -31q-129 0 -212.5 77t-107 211.5t12.5 315.5q21 100 74.5 189.5t131.5 158t185 108.5t227 40q80 0 147 -28.5t107 -79.5l199 108h28l-188 -885q-9 -43 2.5 -67.5t40.5 -24.5q46 0 100 74l25 -10q-35 -58 -75 -98t-77 -57.5t-64.5 -24.5t-53.5 -7q-31 0 -61 11
t-55 32t-39 57t-11 81l10 57q-49 -103 -144 -170.5t-202 -67.5zM350 580q-21 -97 -21 -181t20 -147.5t66 -100t113 -36.5q59 0 115.5 40t89.5 103l101 481q20 113 -18 193t-128 80q-109 0 -204 -123t-134 -309z" />
    </font>
</defs>
</svg>
