<?xml version="1.0" standalone="no"?>
<!DOCTYPE svg PUBLIC "-//W3C//DTD SVG 1.1//EN" "http://www.w3.org/Graphics/SVG/1.1/DTD/svg11.dtd" >
<svg xmlns="http://www.w3.org/2000/svg" xmlns:xlink="http://www.w3.org/1999/xlink" version="1.1">
<metadata>
Created by FontForge 20201107 at Tue Apr 16 22:13:50 2024
 By 
Copyright (c) 2021 by Martin Va'cha. All rights reserved.
</metadata>
<defs>
<font id="TobiasTRIAL-RegularItalic" horiz-adv-x="1073" >
  <font-face 
    font-family="Tobias TRIAL Italic"
    font-weight="400"
    font-style="italic"
    font-stretch="normal"
    units-per-em="2048"
    panose-1="0 0 0 0 0 0 0 0 0 0"
    ascent="1638"
    descent="-410"
    x-height="1026"
    cap-height="1450"
    bbox="-358 -514 2470.98 2337"
    underline-thickness="102"
    underline-position="-255"
    slope="-12"
    unicode-range="U+000D-F8FF"
  />
<missing-glyph horiz-adv-x="2326" 
d="M164 633q0 202 78 388.5t210 323.5t314.5 222t384.5 92v-2048q-202 7 -385 90.5t-315 220t-209.5 322.5t-77.5 389zM1225 -383v2034q83 -28 153 -172t111 -368.5t41 -477.5t-41 -477t-111 -367t-153 -172zM1380 -350q103 134 164.5 398.5t61.5 584.5t-61 584.5
t-165 402.5q146 -62 262 -207.5t181 -349.5t65 -430q0 -344 -142 -617t-366 -366zM1589 -307q172 150 273.5 400t101.5 540q0 289 -101.5 541t-273.5 401q281 -119 452 -376t171 -566q0 -310 -171 -566t-452 -374z" />
    <glyph glyph-name="f_f" unicode="ff" horiz-adv-x="1675" 
d="M627 29q49 8 79.5 18.5t58 37t36.5 69.5l172 815h-486l-174 -815q-13 -64 26.5 -89t147.5 -36l-6 -29h-518l6 29q76 12 119 37.5t57 87.5l172 815h-172l13 57h172l8 37q23 107 77.5 192.5t126.5 137.5t154 79t166 27q92 0 174.5 -38t114.5 -105q75 71 171 107t191 36
q145 0 240 -64.5t74 -160.5q-8 -34 -30 -58t-54 -30q-33 -6 -58.5 9t-29.5 48q-5 27 -8 41.5t-10.5 38.5t-15 38t-21 31.5t-30 27t-39.5 16t-52 6.5q-39 0 -84.5 -21.5t-89 -60t-79.5 -102.5t-52 -140l-21 -92h287l-13 -57h-284l-174 -815q-13 -64 27 -89t147 -36l-6 -29
h-516zM500 1026h485l10 47q20 92 68 174q-7 93 -61.5 144t-143.5 51q-121 0 -214 -88.5t-126 -245.5z" />
    <glyph glyph-name="f_f_i" unicode="ffi" horiz-adv-x="1945" 
d="M651 29q50 8 81 18.5t57.5 37t35.5 69.5l172 815h-510l-174 -815q-13 -64 26.5 -89t147.5 -36l-6 -29h-518l6 29q76 12 119 37.5t57 87.5l172 815h-172l13 57h172l8 37q23 107 77.5 192.5t126.5 137.5t154 79t166 27q98 0 184 -43.5t111 -120.5q80 82 188 123t220 41
q157 0 249.5 -64t77.5 -151q-4 -37 -27 -61.5t-57 -30.5q-35 -5 -60 11.5t-28 49.5q-4 40 -12.5 68.5t-28 58.5t-57 46t-92.5 16q-105 0 -201.5 -86.5t-128.5 -237.5l-20 -92h546l105 31h29l-191 -897q-13 -63 11 -91.5t98 -39.5l-6 -29h-445l6 29q79 11 116 39.5t50 91.5
l143 678q18 79 -3 105t-83 26h-387l-174 -815q-13 -64 26.5 -89t147.5 -36l-6 -29h-518zM500 1026h510l10 47q16 74 45 131q3 113 -53 175.5t-154 62.5q-121 0 -214 -88.5t-126 -245.5z" />
    <glyph glyph-name="f_f_l" unicode="ffl" horiz-adv-x="1945" 
d="M-31 29q76 12 119 37.5t57 87.5l172 817h-172l13 57h172l8 35q23 107 77.5 192.5t126.5 137.5t154 79t166 27q98 0 184 -43.5t111 -120.5q77 81 178.5 122.5t206.5 41.5q70 0 133.5 -22.5t102.5 -63.5l141 64h29l-279 -1317q-13 -63 11 -91.5t98 -39.5l-6 -29h-445l6 29
q79 11 116 39.5t50 91.5l213 1001l-2 -2q29 133 -17.5 208t-154.5 75q-122 0 -214.5 -88.5t-127.5 -245.5l-16 -80h311l-12 -57h-312l-174 -817q-13 -64 26.5 -89t147.5 -36l-6 -29h-518l6 29q50 8 81 18.5t57.5 37t35.5 69.5l174 817h-508l-176 -817q-13 -64 26.5 -89
t147.5 -36l-6 -29h-518zM502 1028h508l8 35q13 68 47 137q4 114 -52.5 178t-154.5 64q-121 0 -214 -88.5t-126 -245.5z" />
    <glyph glyph-name="f_i" unicode="fi" horiz-adv-x="1263" 
d="M-31 29q76 12 119 37.5t57 87.5l172 815h-172l13 57h172l10 47q23 107 79 191t131.5 134t160 75.5t172.5 25.5q158 0 251 -64t78 -151q-6 -37 -29 -61.5t-57 -30.5q-33 -5 -58.5 11.5t-29.5 49.5q-4 32 -9 55t-17.5 50t-32 44t-53 28.5t-78.5 11.5q-66 0 -131.5 -35.5
t-121.5 -111t-77 -177.5l-20 -92h526l127 31h29l-193 -897q-12 -63 12 -92t99 -39l-6 -29h-447l6 29q80 11 117 39.5t49 91.5l146 678q16 79 -5.5 105t-83.5 26h-387l-174 -815q-13 -64 26.5 -89t147.5 -36l-6 -29h-518z" />
    <glyph glyph-name="f_l" unicode="fl" horiz-adv-x="1265" 
d="M145 969l13 57h172l14 64q23 107 76 188.5t124 128t148.5 69.5t159.5 23q170 0 246 -86l141 64h29l-279 -1317q-13 -63 11 -91.5t98 -39.5l-6 -29h-445l6 29q79 11 116 39.5t50 91.5l221 1034q22 110 -28 178t-164 68q-126 0 -210 -80.5t-114 -224.5l-22 -109h307
l-12 -57h-308l-174 -815q-13 -64 26.5 -89t147.5 -36l-6 -29h-518l6 29q50 8 81 18.5t57.5 37t35.5 69.5l172 815h-172z" />
    <glyph glyph-name=".notdef" horiz-adv-x="2326" 
d="M164 633q0 202 78 388.5t210 323.5t314.5 222t384.5 92v-2048q-202 7 -385 90.5t-315 220t-209.5 322.5t-77.5 389zM1225 -383v2034q83 -28 153 -172t111 -368.5t41 -477.5t-41 -477t-111 -367t-153 -172zM1380 -350q103 134 164.5 398.5t61.5 584.5t-61 584.5
t-165 402.5q146 -62 262 -207.5t181 -349.5t65 -430q0 -344 -142 -617t-366 -366zM1589 -307q172 150 273.5 400t101.5 540q0 289 -101.5 541t-273.5 401q281 -119 452 -376t171 -566q0 -310 -171 -566t-452 -374z" />
    <glyph glyph-name=".null" horiz-adv-x="0" 
 />
    <glyph glyph-name="nonmarkingreturn" horiz-adv-x="682" 
 />
    <glyph glyph-name="CR" unicode="&#xd;" horiz-adv-x="1228" 
 />
    <glyph glyph-name="space" unicode=" " horiz-adv-x="446" 
 />
    <glyph glyph-name="exclam" unicode="!" horiz-adv-x="489" 
d="M451 1481q54 0 70.5 -40.5t-7.5 -109.5l-285 -969h-28l123 969q6 69 40.5 109.5t86.5 40.5zM31 104q4 55 47.5 94.5t99.5 39.5q57 0 92.5 -39t30.5 -95q-8 -57 -51 -96t-100 -39q-56 0 -91 39.5t-28 95.5z" />
    <glyph glyph-name="quotedbl" unicode="&#x22;" horiz-adv-x="608" 
d="M563 1452q-3 57 22.5 93t73.5 36q50 0 68 -36.5t-8 -92.5l-150 -397h-28zM266 1055l23 397q-3 57 22.5 93t73.5 36q50 0 67.5 -36.5t-8.5 -92.5l-149 -397h-29z" />
    <glyph glyph-name="numbersign" unicode="#" horiz-adv-x="1284" 
d="M1133 535l-13 -58h-303l-235 -477h-64l236 477h-381l-236 -477h-63l235 477h-243l12 58h260l188 385h-284l12 57h301l233 473h64l-234 -473h381l234 473h63l-233 -473h246l-13 -57h-262l-188 -385h287zM401 535h381l189 385h-381z" />
    <glyph glyph-name="dollar" unicode="$" horiz-adv-x="1167" 
d="M799 1665h57l-41 -190q55 -8 106.5 -25.5t76.5 -29.5t49 -15.5t40.5 14t34.5 62.5h29l-21 -418h-28q-15 150 -95 241t-204 113l-121 -573q144 -69 197 -104q147 -100 165 -249q9 -74 -10 -165q-35 -160 -174.5 -258.5t-331.5 -98.5h-32l-58 -274h-57l59 278
q-68 9 -127.5 30.5t-87.5 38t-54.5 21.5t-44.5 -16t-42 -78h-29l27 467h29q29 -177 116.5 -278t225.5 -123l135 633q-138 67 -188 102q-138 97 -148 247q-5 64 12 142q30 138 157 230t306 92h33zM432 1192q-10 -36 -7.5 -69t7.5 -59t21 -50.5t32.5 -43t41.5 -37.5t49 -33
t55 -30l117 553h-21q-116 0 -194.5 -63t-100.5 -168zM510 29h18q119 0 208 69.5t112 184.5q9 43 9 80.5t-7 67t-22.5 56t-34 47t-45 40.5t-51.5 35t-58 32z" />
    <glyph glyph-name="percent" unicode="%" horiz-adv-x="1753" 
d="M610 1481q79 0 136 -36t83.5 -98t32.5 -144.5t-16 -176.5q-40 -194 -156 -324.5t-272 -130.5q-80 0 -137.5 37t-84.5 99t-33.5 144.5t15.5 174.5q40 194 156.5 324.5t275.5 130.5zM340 1096q-16 -77 -21.5 -158.5t1.5 -158t39 -125t85 -48.5q73 0 141 101.5t101 253.5
q16 77 21.5 158.5t-2 157t-38.5 123.5t-83 48q-74 0 -142.5 -101t-101.5 -251zM354 0l1063 1450h68l-1063 -1450h-68zM995 424q26 125 84.5 226.5t149.5 165t198 63.5q79 0 136 -36t83.5 -98.5t32.5 -145t-16 -175.5q-40 -194 -156 -324.5t-272 -130.5q-80 0 -137.5 37
t-84.5 99t-33.5 144.5t15.5 174.5zM1159 492q-16 -76 -22 -157t1.5 -157.5t39 -125t84.5 -48.5q73 0 140.5 100.5t100.5 251.5q16 78 21.5 159.5t-2 157t-38.5 123.5t-83 48q-74 0 -142.5 -100.5t-99.5 -251.5z" />
    <glyph glyph-name="ampersand" unicode="&#x26;" horiz-adv-x="1519" 
d="M1176 -16q-81 0 -138 32t-149 146q-118 -100 -221 -145.5t-228 -45.5q-100 0 -181 31t-132.5 89t-71.5 139.5t2 181.5q29 127 133.5 220.5t274.5 147.5q-62 115 -78.5 204t4.5 183q27 135 145.5 224.5t276.5 89.5q152 0 227.5 -86.5t46.5 -223.5q-9 -44 -38.5 -93.5
t-78.5 -100.5t-125 -95.5t-167 -70.5q41 -68 141 -215q129 -188 182 -258q120 145 183 350q23 75 -7.5 104.5t-123.5 34.5l6 29h493l-6 -29q-101 -6 -161.5 -40.5t-104.5 -122.5q-84 -191 -248 -367q165 -209 238 -209q40 0 73.5 23.5t65.5 81.5l21 -9q-94 -200 -254 -200z
M254 444q-36 -168 40.5 -277.5t235.5 -109.5q157 0 330 142q-92 121 -213 295q-95 135 -160 245q-192 -107 -233 -295zM551 1208q-17 -78 4.5 -154.5t95.5 -199.5q130 49 211 135t101 182q22 106 -24.5 179t-143.5 73q-88 0 -155 -59t-89 -156z" />
    <glyph glyph-name="quotesingle" unicode="'" horiz-adv-x="333" 
d="M289 1452q-3 57 22.5 93t73.5 36q50 0 67.5 -36.5t-8.5 -92.5l-149 -397h-29z" />
    <glyph glyph-name="parenleft" unicode="(" horiz-adv-x="665" 
d="M442 -315q-196 127 -282.5 375t-24.5 544q59 276 248.5 518.5t441.5 362.5l9 -21q-172 -123 -315 -365.5t-200 -508.5q-56 -266 -17 -509t157 -376z" />
    <glyph glyph-name="parenright" unicode=")" horiz-adv-x="665" 
d="M254 1485q196 -127 282.5 -375.5t24.5 -544.5q-59 -275 -248.5 -517.5t-441.5 -362.5l-8 20q172 123 314.5 365.5t199.5 509.5q56 266 17.5 508.5t-156.5 375.5z" />
    <glyph glyph-name="asterisk" unicode="*" horiz-adv-x="858" 
d="M702 838q-29 -18 -55.5 -0.5t-36.5 63.5l-57 199l-154 -223q-23 -37 -53.5 -47t-52.5 10q-22 19 -14 48.5t43 55.5l215 168l-209 41q-46 7 -64.5 31t-3.5 55q13 27 46 31t59 -17l184 -123l8 240q-1 40 18 65t50 25q33 0 46 -25.5t-5 -66.5l-95 -238l217 117q31 18 56 22
t40.5 -6t20.5 -32q5 -27 -18.5 -51.5t-63.5 -28.5l-248 -39l130 -166q29 -31 28 -62t-31 -46z" />
    <glyph glyph-name="plus" unicode="+" horiz-adv-x="1228" 
d="M209 627l12 53h402l86 403h55l-86 -403h403l-12 -53h-403l-86 -404h-56l86 404h-401z" />
    <glyph glyph-name="comma" unicode="," horiz-adv-x="438" 
d="M139 238q73 0 108 -53t15 -144q-26 -121 -118 -205.5t-228 -124.5l-2 23q83 40 152 103.5t90 148.5q-45 -20 -86 -10.5t-65 50t-13 91.5q11 53 50.5 87t96.5 34z" />
    <glyph glyph-name="hyphen" unicode="-" horiz-adv-x="716" 
d="M627 573l-13 -55h-512l13 55h512z" />
    <glyph glyph-name="period" unicode="." horiz-adv-x="423" 
d="M109 -31q-56 0 -91 39.5t-28 95.5q4 55 47.5 94.5t99.5 39.5q57 0 92.5 -39t30.5 -95q-8 -57 -51 -96t-100 -39z" />
    <glyph glyph-name="slash" unicode="/" horiz-adv-x="845" 
d="M-29 0h-71l1063 1450h71z" />
    <glyph glyph-name="zero" unicode="0" horiz-adv-x="1308" 
d="M829 1483q128 0 222.5 -61t143.5 -167.5t61 -250t-25 -308.5q-44 -205 -140 -369.5t-233 -262t-289 -97.5q-128 0 -222.5 61t-143 167.5t-60.5 250t25 308.5q43 205 138.5 369.5t232.5 262t290 97.5zM383 825q-46 -237 -38 -415t70.5 -281.5t166.5 -103.5
q132 0 254.5 170t177.5 432q48 236 41 413.5t-70.5 281t-169.5 103.5q-131 0 -253 -169.5t-179 -430.5z" />
    <glyph glyph-name="one" unicode="1" horiz-adv-x="720" 
d="M-53 29q132 6 185.5 38.5t74.5 125.5l221 1042h-223l6 29q141 36 239.5 80.5t182.5 113.5h29l-271 -1265q-21 -93 14 -125.5t136 -38.5l-6 -29h-594z" />
    <glyph glyph-name="two" unicode="2" horiz-adv-x="1103" 
d="M674 1423q-150 0 -240.5 -84t-75.5 -217q6 -52 -17.5 -84t-64.5 -37q-52 -9 -77.5 24t-14.5 89q13 105 84.5 189.5t179.5 131t228 46.5q224 0 335 -115.5t72 -302.5q-21 -101 -78 -188t-134 -151t-167 -120.5t-184 -106.5t-176.5 -97t-151.5 -104t-104 -118h555
q62 0 101.5 7t81.5 30.5t77.5 71t71.5 125.5l29 -4l-146 -408h-897l10 47q27 108 88 200.5t137 159.5t163.5 128.5t173 120.5t159 121.5t128.5 145t75 177.5q31 143 -30 233t-191 90z" />
    <glyph glyph-name="three" unicode="3" horiz-adv-x="1099" 
d="M418 -31q-172 0 -291.5 84.5t-122.5 212.5q-3 50 19.5 92t68.5 50q59 11 83.5 -19.5t-1.5 -112.5q-13 -45 -2.5 -89.5t36 -80t80.5 -57.5t130 -22q134 0 235 87t133 236q39 183 -68 279t-329 90l12 43q188 22 320 121t164 247q29 133 -24 213t-165 80q-131 0 -218 -86.5
t-93 -210.5q0 -52 -24.5 -80.5t-67.5 -31.5q-47 -3 -71 27.5t-15 82.5q16 94 90.5 177t181.5 131.5t217 48.5q202 0 304.5 -98t70.5 -261q-22 -115 -145.5 -215.5t-294.5 -136.5q182 -11 288 -127.5t68 -296.5q-37 -166 -193 -271.5t-376 -105.5z" />
    <glyph glyph-name="four" unicode="4" horiz-adv-x="1216" 
d="M309 29q129 8 195 51t90 149l35 168h-613l7 29l892 1055h129l-210 -996h24q98 0 183 77t149 226h29l-138 -391h-268l-35 -168q-23 -112 7 -153t135 -47l-7 -29h-610zM139 485h508l170 801z" />
    <glyph glyph-name="five" unicode="5" horiz-adv-x="1122" 
d="M1167 1550l-20 -266h-686l-180 -510q81 71 161.5 109.5t186.5 38.5q135 0 231.5 -67t134 -185.5t6.5 -263.5q-42 -197 -196.5 -317t-372.5 -120q-163 0 -279.5 66.5t-136.5 171.5q-11 40 3 75t49 52q42 20 78 -3.5t40 -82.5q3 -221 246 -221q133 -1 234.5 100t138.5 268
q37 176 -33.5 291t-218.5 115q-169 0 -324 -125l-36 18l264 756h553q49 0 79.5 23.5t49.5 76.5h28z" />
    <glyph glyph-name="six" unicode="6" horiz-adv-x="1200" 
d="M569 -31q-113 0 -199.5 37t-139 105t-78.5 163.5t-22.5 211.5t34.5 249q44 186 122 331t175.5 234t207 135t224.5 46q160 0 266 -83.5t94 -211.5q-5 -40 -29.5 -67t-70.5 -27q-44 0 -71.5 33.5t-18.5 91.5q10 98 -41 152t-143 54q-63 0 -133.5 -40.5t-141 -119.5
t-134 -212t-103.5 -301l-15 -64q156 217 377 217q205 0 308.5 -141t60.5 -352q-40 -191 -187 -316t-342 -125zM344 631q-14 -91 -16 -176t11 -163.5t40.5 -137t77 -93t116.5 -34.5q110 0 204 103.5t126 256.5q36 171 -33.5 286t-216.5 115q-85 0 -165.5 -40t-143.5 -117z
" />
    <glyph glyph-name="seven" unicode="7" horiz-adv-x="1044" 
d="M1214 1421q-368 -406 -546.5 -733.5t-229.5 -687.5h-211q52 324 238 619.5t569 664.5h-545q-99 0 -164 -55t-126 -185h-29l143 406h908z" />
    <glyph glyph-name="eight" unicode="8" horiz-adv-x="1210" 
d="M520 -33q-245 0 -373.5 109t-91.5 284q26 122 135 214t308 161q-34 20 -61 39t-56 43.5t-48 48.5t-37.5 55.5t-24.5 64t-8.5 73.5t9.5 84q31 147 170 243.5t330 96.5q218 0 331.5 -101t82.5 -252q-22 -108 -138 -196.5t-278 -124.5q39 -20 62 -32.5t58 -34t56.5 -38
t49 -41t42.5 -47.5t31 -54t21 -63t4.5 -72t-9.5 -83q-34 -164 -189.5 -270.5t-375.5 -106.5zM238 367q-33 -155 47.5 -248.5t234.5 -93.5q133 0 232.5 76t124.5 194q7 33 6.5 63.5t-5 55.5t-19 50.5t-27.5 44t-38.5 40.5t-43 35.5t-51 34t-52.5 31.5t-56.5 32t-55.5 31
q-250 -113 -297 -346zM481 1192q-7 -31 -7.5 -59.5t4 -53t15.5 -47.5t24 -41.5t32.5 -37.5t38 -34t44.5 -31.5t48 -29t51 -27.5q237 91 279 293q31 143 -38.5 222t-199.5 79q-105 0 -187 -66.5t-104 -166.5z" />
    <glyph glyph-name="nine" unicode="9" horiz-adv-x="1200" 
d="M721 1481q113 0 199.5 -37t139 -105t78.5 -163.5t22.5 -211.5t-34.5 -249q-44 -186 -122 -331t-175.5 -234t-207 -135t-224.5 -46q-160 0 -266 83.5t-94 211.5q5 40 29.5 67t70.5 27q44 0 71.5 -33.5t18.5 -91.5q-10 -98 41.5 -152t143.5 -54q63 0 133.5 40.5t141 119.5
t134 212t103.5 301l14 64q-156 -217 -377 -217q-205 0 -308 141t-60 352q40 191 186.5 316t341.5 125zM387 1063q-36 -171 33.5 -286t216.5 -115q85 0 165.5 40t143.5 117q14 91 16 176t-11 163.5t-40.5 137t-77 93t-116.5 34.5q-110 0 -204 -103.5t-126 -256.5z" />
    <glyph glyph-name="colon" unicode=":" horiz-adv-x="423" 
d="M285 791q-56 0 -91 39.5t-28 95.5q4 55 47.5 94t99.5 39q57 0 92.5 -38.5t30.5 -94.5q-8 -57 -51 -96t-100 -39zM-10 104q4 55 47.5 94.5t99.5 39.5q57 0 92.5 -39t30.5 -95q-8 -57 -51 -96t-100 -39q-56 0 -91 39.5t-28 95.5z" />
    <glyph glyph-name="semicolon" unicode=";" horiz-adv-x="438" 
d="M139 238q73 0 108 -53t15 -144q-26 -121 -118 -205.5t-228 -124.5l-2 23q83 40 152 103.5t90 148.5q-45 -20 -86 -10.5t-65 50t-13 91.5q11 53 50.5 87t96.5 34zM170 924q4 55 47.5 94t99.5 39q57 0 92.5 -38.5t30.5 -94.5q-8 -57 -51 -96.5t-100 -39.5q-56 0 -91 39.5
t-28 96.5z" />
    <glyph glyph-name="less" unicode="&#x3c;" horiz-adv-x="1161" 
d="M1073 1081l14 -53l-825 -379l662 -379l-33 -45l-684 396l14 67z" />
    <glyph glyph-name="equal" unicode="=" horiz-adv-x="1228" 
d="M244 797l12 53h860l-12 -53h-860zM174 467l10 53h860l-10 -53h-860z" />
    <glyph glyph-name="greater" unicode="&#x3e;" horiz-adv-x="1161" 
d="M295 1036l33 45l684 -395l-15 -68l-852 -393l-14 54l825 378z" />
    <glyph glyph-name="question" unicode="?" horiz-adv-x="1024" 
d="M426 354q8 87 33 160.5t60.5 126t77.5 98.5t85.5 89t81.5 87t69.5 102.5t45.5 125.5q26 122 -40 202t-188 80q-123 0 -207.5 -89.5t-87.5 -198.5q0 -52 -24.5 -81t-63.5 -32q-47 -6 -70.5 20.5t-15.5 77.5q24 143 171 251t325 108q210 0 311.5 -97t67.5 -262
q-15 -70 -52.5 -132.5t-86.5 -109.5t-105.5 -92l-113 -90t-105.5 -93.5t-86.5 -113t-52.5 -137.5h-29zM270 104q4 55 48 94.5t100 39.5q57 0 92.5 -39t30.5 -95q-8 -57 -51.5 -96t-100.5 -39q-56 0 -91 39.5t-28 95.5z" />
    <glyph glyph-name="at" unicode="@" horiz-adv-x="1785" 
d="M889 -326q-165 0 -309 53t-247.5 147t-162.5 228.5t-59 290.5q0 234 109 423.5t302 297t432 107.5q164 0 299.5 -48t226 -131.5t140 -197t49.5 -244.5q0 -235 -126.5 -387t-309.5 -152q-103 0 -159.5 51.5t-49.5 145.5q-40 -92 -108 -144.5t-150 -52.5q-152 0 -223 116
t-31 304q34 167 159 277t283 110q65 0 117.5 -26t77.5 -70l100 96h37l-121 -573q-39 -191 86 -191q71 0 136.5 65.5t107 181t41.5 249.5q0 163 -65 289t-198 200t-319 74q-201 0 -363 -99.5t-253.5 -276t-91.5 -394.5q0 -191 85.5 -341.5t235.5 -233t338 -82.5q137 0 267 40
t229 109l18 -26q-101 -84 -243.5 -134.5t-286.5 -50.5zM670 510q-36 -166 2.5 -267.5t146.5 -101.5q59 0 115.5 42.5t87.5 109.5l70 323q10 87 -28.5 147t-125.5 60q-94 0 -167 -86.5t-101 -226.5z" />
    <glyph glyph-name="A" unicode="A" horiz-adv-x="1503" 
d="M1206 246q25 -119 66 -168t117 -49l-7 -29h-573l6 29q138 0 184.5 44.5t24.5 153.5l-47 254h-598l-156 -254q-68 -109 -41 -153.5t160 -44.5l-6 -29h-434l6 29q73 0 131.5 48.5t134.5 168.5l762 1235h29zM416 539h549l-129 688z" />
    <glyph glyph-name="B" unicode="B" horiz-adv-x="1357" 
d="M-27 29q108 10 155.5 43t64.5 108l231 1090q15 75 -17.5 108t-136.5 43l6 29h594q218 0 334.5 -106.5t81.5 -272.5q-26 -125 -133.5 -205.5t-265.5 -101.5q191 -20 285.5 -127.5t60.5 -269.5q-36 -166 -182.5 -266.5t-364.5 -100.5h-719zM381 190q-13 -64 18.5 -98.5
t128.5 -34.5h109q153 0 260.5 88t138.5 234q32 158 -53 252t-256 94h-231zM506 782h213q141 0 241 78t130 223q29 141 -46.5 225.5t-228.5 84.5h-178z" />
    <glyph glyph-name="C" unicode="C" horiz-adv-x="1406" 
d="M1413 1481l-29 -416h-28q-19 175 -117.5 266.5t-271.5 91.5q-202 0 -366 -171.5t-222 -448.5q-34 -150 -17.5 -281t68.5 -228t144 -152.5t208 -55.5q154 0 281.5 96t210.5 267l29 -9q-76 -218 -248.5 -345.5t-382.5 -127.5q-180 0 -312.5 101.5t-186 279t-9.5 389.5
q45 211 162.5 380t291.5 266.5t373 97.5q68 0 131.5 -15.5t99 -30.5t67.5 -23t53.5 7.5t41.5 61.5h29z" />
    <glyph glyph-name="D" unicode="D" horiz-adv-x="1527" 
d="M864 1450q344 0 503.5 -195t84.5 -550q-33 -153 -108.5 -282.5t-184 -223t-253 -146.5t-308.5 -53h-631l6 29q108 10 155.5 43t64.5 108l231 1090q15 75 -17.5 108t-136.5 43l6 29h588zM381 195q-15 -72 9.5 -105t96.5 -33h111q233 0 413 184t244 478q66 313 -54 493.5
t-384 180.5h-182z" />
    <glyph glyph-name="E" unicode="E" horiz-adv-x="1265" 
d="M1151 379h29l-133 -379h-1080l6 29q108 10 155.5 43t64.5 108l231 1090q15 75 -17.5 108t-136.5 43l6 29h914q89 0 108 31h29l-22 -408h-29q-3 170 -66.5 245t-205.5 75h-369l-133 -621h268q90 0 137 48.5t62 160.5h28l-34 -475h-29q-3 111 -41.5 160t-116.5 49h-287
l-110 -522q-14 -75 5.5 -105.5t84.5 -30.5h289q132 0 226.5 77.5t166.5 244.5z" />
    <glyph glyph-name="F" unicode="F" horiz-adv-x="1230" 
d="M1325 1481l-22 -408h-29q-3 170 -67 245t-206 75h-366l-133 -621h268q90 0 137 48.5t62 160.5h28l-34 -475h-29q-3 111 -41.5 160t-116.5 49h-287l-112 -535q-18 -77 25 -109t190 -42l-6 -29h-619l6 29q108 10 155.5 43t64.5 108l231 1090q15 75 -17.5 108t-136.5 43
l6 29h912q89 0 108 31h29z" />
    <glyph glyph-name="G" unicode="G" horiz-adv-x="1492" 
d="M688 -31q-189 0 -325 103t-188.5 281t-8.5 392q44 204 166.5 372.5t299.5 266t372 97.5q66 0 128 -15.5t97 -31t67 -23.5t53.5 7.5t41.5 62.5h28l-30 -416h-27q-53 358 -383 358q-200 0 -373.5 -178.5t-230.5 -447.5q-34 -165 -20.5 -304.5t62.5 -241.5t134.5 -159
t193.5 -57q88 0 156.5 23.5t130.5 82.5l80 377q37 173 -151 182l8 31h551l-7 -31q-179 -9 -217 -182l-63 -293q-100 -116 -237.5 -186t-307.5 -70z" />
    <glyph glyph-name="H" unicode="H" horiz-adv-x="1607" 
d="M1167 1421l7 29h557l-7 -29q-107 -10 -154.5 -43t-64.5 -108l-231 -1090q-15 -75 18 -108t135 -43l-6 -29h-557l6 29q108 10 155.5 43t64.5 108l114 537h-712l-115 -537q-17 -75 16 -108t137 -43l-6 -29h-557l6 29q108 10 155.5 43t64.5 108l231 1090q15 75 -17.5 108
t-136.5 43l6 29h558l-7 -29q-108 -10 -155 -43t-64 -108l-104 -496h713l104 496q17 75 -16.5 107.5t-137.5 43.5z" />
    <glyph glyph-name="I" unicode="I" horiz-adv-x="710" 
d="M377 180q-17 -75 16 -108t137 -43l-6 -29h-557l6 29q108 10 155.5 43t64.5 108l231 1090q15 75 -17.5 108t-136.5 43l6 29h558l-7 -29q-108 -10 -155 -43t-64 -108z" />
    <glyph glyph-name="J" unicode="J" horiz-adv-x="1054" 
d="M311 -31q-96 0 -175.5 36.5t-122.5 107t-27 159.5q9 48 38 77.5t70 29.5q44 0 65.5 -27t12.5 -73q-4 -17 -16 -46t-15 -45q-13 -68 42.5 -113.5t146.5 -45.5q209 0 276 313l197 928q17 75 -16.5 107.5t-137.5 43.5l6 29h557l-6 -29q-107 -10 -154.5 -43t-64.5 -108
l-182 -867q-45 -214 -174 -324t-320 -110z" />
    <glyph glyph-name="K" unicode="K" horiz-adv-x="1503" 
d="M-27 29q108 10 155.5 43t64.5 108l231 1090q15 75 -17.5 108t-136.5 43l6 29h558l-7 -29q-108 -10 -155 -43t-64 -108l-127 -594l715 616q69 57 55.5 89t-127.5 38l6 31h437l-6 -31q-149 -14 -291 -137l-414 -358l307 -750q24 -64 82.5 -102t143.5 -41l-7 -31h-378
q9 50 -27 147l-266 656l-248 -215l-86 -408q-17 -75 16 -108t137 -43l-6 -29h-557z" />
    <glyph glyph-name="L" unicode="L" horiz-adv-x="1236" 
d="M1137 379h28l-133 -379h-1065l6 29q108 10 155.5 43t64.5 108l231 1090q15 75 -17.5 108t-136.5 43l6 29h558l-7 -29q-108 -10 -155 -43t-64 -108l-229 -1077q-14 -75 5.5 -105.5t84.5 -30.5h274q132 0 227 77.5t167 244.5z" />
    <glyph glyph-name="M" unicode="M" horiz-adv-x="1894" 
d="M879 240l807 1210h331l-6 -29q-107 -11 -154.5 -43.5t-62.5 -107.5l-231 -1090q-17 -75 16 -108.5t135 -42.5l-6 -29h-555l6 29q107 9 154.5 42.5t62.5 108.5l223 1047l-819 -1227h-28l-281 1221l-221 -1041q-17 -75 15 -108t134 -43l-6 -29h-426l6 29q108 10 155.5 43
t64.5 108l231 1092q15 77 -17.5 110t-134.5 37l7 31h325z" />
    <glyph glyph-name="N" unicode="N" horiz-adv-x="1509" 
d="M1198 1421l6 29h428l-6 -29q-108 -10 -155 -43t-64 -108l-270 -1270h-47l-617 1239l-223 -1059q-17 -75 15 -108t134 -43l-6 -29h-426l6 29q108 10 155.5 43t64.5 108l231 1092q15 77 -17.5 110t-134.5 39l7 29h294l568 -1165l209 985q17 75 -15.5 108t-136.5 43z" />
    <glyph glyph-name="O" unicode="O" horiz-adv-x="1607" 
d="M733 -31q-122 0 -225.5 36.5t-177 103.5t-121 161t-58 209t12.5 248q40 213 156.5 385.5t285.5 270.5t357 98q122 0 225.5 -36.5t177.5 -103.5t122 -161t58.5 -209t-12.5 -248q-39 -213 -156.5 -385.5t-287 -270.5t-357.5 -98zM373 743q-34 -198 0.5 -362t133 -260.5
t243.5 -93.5q133 3 252 91t203 241t118 346q34 198 -0.5 362t-133 261t-243.5 95q-204 -3 -363 -193t-210 -487z" />
    <glyph glyph-name="P" unicode="P" horiz-adv-x="1263" 
d="M823 1450q255 0 388.5 -114t91.5 -310q-36 -175 -200.5 -282t-410.5 -107h-217l-94 -438q-21 -98 13 -131t136 -39l-6 -29h-557l6 29q107 6 155 40.5t69 129.5l223 1054q21 94 -12.5 128t-137.5 40l6 29h547zM487 694h183q170 0 287 95.5t149 240.5q32 161 -59.5 262
t-268.5 101h-143z" />
    <glyph glyph-name="Q" unicode="Q" horiz-adv-x="1607" 
d="M1143 -338q-89 -30 -180 -35t-172 18t-144.5 68.5t-102 121.5t-40.5 171h4q-205 73 -299.5 266.5t-44.5 454.5q40 213 156.5 385.5t285.5 270.5t357 98q122 0 225.5 -36.5t177.5 -103.5t122 -161t58.5 -209t-12.5 -248q-39 -213 -156.5 -385.5t-287 -270.5t-357.5 -98
q-29 0 -43 2q8 -78 38.5 -135t75 -87.5t101.5 -48t117.5 -16.5t122.5 7zM373 743q-34 -198 0.5 -362t133 -260.5t243.5 -93.5q133 3 252 91t203 241t118 346q34 198 -0.5 362t-133 261t-243.5 95q-204 -3 -363 -193t-210 -487z" />
    <glyph glyph-name="R" unicode="R" horiz-adv-x="1439" 
d="M-27 29q107 6 155 40.5t69 129.5l223 1054q21 94 -12.5 128t-137.5 40l6 29h562q250 0 378.5 -115t88.5 -309q-67 -303 -459 -373l262 -508q25 -49 75.5 -77t141.5 -37l-6 -31h-381q7 60 -16 109l-260 528h-187l-94 -438q-21 -98 13 -131t136 -39l-6 -29h-557zM487 694
h168q177 0 295.5 89t153.5 247q34 159 -50 261t-261 102h-158z" />
    <glyph glyph-name="S" unicode="S" horiz-adv-x="1167" 
d="M528 -31q-92 0 -168.5 20.5t-112 41t-66.5 30.5t-51 -10t-46 -82h-29l27 467h29q32 -199 140 -303t277 -104q119 0 208 69.5t112 184.5q15 71 5.5 128t-38.5 95t-71 71.5t-92.5 57t-103.5 51t-102.5 54t-90.5 65.5t-68 85.5t-34 115t11 153.5q30 138 157 230t306 92
q78 0 145.5 -16.5t100.5 -33t62 -24.5t47.5 8t39.5 66h29l-21 -418h-28q-17 172 -119.5 266t-255.5 94q-116 0 -194.5 -63t-100.5 -168q-14 -64 -3 -116t41 -87.5t73.5 -67t95 -55t105.5 -52t104.5 -56.5t92.5 -68.5t69.5 -89.5t34.5 -118.5t-11 -155.5
q-35 -160 -174.5 -258.5t-331.5 -98.5z" />
    <glyph glyph-name="T" unicode="T" horiz-adv-x="1277" 
d="M1370 1481h29l-21 -408h-28q-1 170 -68.5 245t-194.5 75h-169l-254 -1200q-19 -87 12.5 -122t136.5 -42l-6 -29h-553l6 29q107 7 153.5 42.5t65.5 121.5l254 1200h-168q-134 0 -229 -76.5t-168 -243.5h-29l152 408h28q8 -31 97 -31h846q89 0 108 31z" />
    <glyph glyph-name="U" unicode="U" horiz-adv-x="1495" 
d="M1219 1421l6 29h428l-6 -29q-107 -11 -155 -43.5t-65 -107.5l-159 -760q-54 -247 -210.5 -394t-365.5 -147q-274 0 -397 143t-68 398l160 760q17 75 -16.5 107.5t-137.5 43.5l7 29h557l-6 -29q-107 -11 -155 -43.5t-65 -107.5l-159 -760q-46 -214 39 -343.5t270 -129.5
q181 0 312 128.5t177 344.5l160 760q17 75 -15.5 107.5t-135.5 43.5z" />
    <glyph glyph-name="V" unicode="V" horiz-adv-x="1503" 
d="M1251 1421l6 29h435l-6 -29q-73 0 -132 -48.5t-135 -168.5l-762 -1235h-28l-242 1237q-25 119 -65 167t-117 48l6 29h571l-6 -29q-136 0 -182.5 -44.5t-24.5 -153.5l191 -998l610 998q68 109 41 153.5t-160 44.5z" />
    <glyph glyph-name="W" unicode="W" horiz-adv-x="2199" 
d="M367 1206q-18 112 -53.5 163t-108.5 52l6 29h541l-7 -29q-121 -1 -161 -46t-23 -152l141 -963l508 897l-18 88q-18 88 -53.5 131.5t-100.5 44.5l6 29h543l-6 -29q-124 0 -163.5 -45t-24.5 -153l141 -963l551 963q64 103 44.5 150t-144.5 48l6 29h395l-6 -29
q-65 -2 -120 -50.5t-124 -166.5l-717 -1235h-26l-170 1104l-635 -1104h-27z" />
    <glyph glyph-name="X" unicode="X" horiz-adv-x="1429" 
d="M256 180q-58 -61 -34 -101t128 -50l-6 -29h-444l6 29q52 5 90.5 16.5t72.5 35t55 43.5t58 60l496 539l-234 537q-19 43 -32 65.5t-36 45.5t-56.5 34t-83.5 16l6 29h581l-6 -29q-111 -11 -160.5 -49t-21.5 -102l182 -416l381 416q118 130 -94 151l6 29h444l-6 -29
q-69 -7 -119 -28.5t-79 -47t-78 -79.5l-430 -469l264 -607q18 -42 31 -64t36 -45.5t57 -35t85 -16.5l-6 -29h-584l6 29q110 11 159.5 50t22.5 101l-211 486z" />
    <glyph glyph-name="Y" unicode="Y" horiz-adv-x="1390" 
d="M1139 1450h438l-6 -29q-104 -10 -164 -45t-115 -110l-465 -643l-90 -428q-19 -88 12.5 -122t135.5 -42l-6 -31h-553l6 31q109 8 155.5 42t65.5 122l84 403l-234 662q-20 56 -37.5 84.5t-56.5 49t-106 27.5l6 29h563l-6 -29q-109 -11 -153 -47.5t-21 -103.5l207 -598
l430 598q51 67 29 104t-125 47z" />
    <glyph glyph-name="Z" unicode="Z" horiz-adv-x="1189" 
d="M1325 1450l-6 -31l-1124 -1362h471q142 0 237 74.5t170 245.5h29l-150 -408h-28q-8 31 -97 31h-890l6 31l1124 1362h-410q-143 0 -238.5 -75t-170.5 -245h-29l152 408h28q8 -31 97 -31h829z" />
    <glyph glyph-name="bracketleft" unicode="[" horiz-adv-x="483" 
d="M-100 -322l383 1799h366l-6 -27h-203l-370 -1745h200l-4 -27h-366z" />
    <glyph glyph-name="backslash" unicode="\" horiz-adv-x="833" 
d="M653 0l-444 1450h59l445 -1450h-60z" />
    <glyph glyph-name="bracketright" unicode="]" horiz-adv-x="483" 
d="M229 -322h-364l4 27h201l372 1745h-202l6 27h366z" />
    <glyph glyph-name="asciicircum" unicode="^" horiz-adv-x="1116" 
d="M268 903l453 508h63l232 -508h-72l-199 451l-391 -451h-86z" />
    <glyph glyph-name="underscore" unicode="_" horiz-adv-x="888" 
d="M662 -68l-11 -55h-684l13 55h682z" />
    <glyph glyph-name="grave" unicode="`" horiz-adv-x="751" 
d="M653 1157l-239 338h204l64 -338h-29z" />
    <glyph glyph-name="a" unicode="a" 
d="M291 -31q-124 0 -194 84.5t-44 210.5q62 282 490 324l178 18l18 92q30 137 -16.5 219t-157.5 82q-118 0 -178.5 -60.5t-58.5 -143.5q6 -112 -80 -131q-43 -9 -70.5 21.5t-15.5 86.5q10 46 41 93.5t82 91.5t132 72t177 28q178 0 263 -100.5t50 -268.5l-114 -543
q-7 -38 4.5 -60t38.5 -22q45 0 96 68l22 -10q-37 -59 -80 -95t-72.5 -46.5t-56.5 -10.5q-59 0 -96 41t-28 113l20 100q-147 -254 -350 -254zM233 285q-17 -86 26.5 -142.5t123.5 -56.5q138 0 266 188l60 275l-164 -21q-264 -29 -312 -243z" />
    <glyph glyph-name="b" unicode="b" horiz-adv-x="1140" 
d="M754 1057q129 0 212 -73t105.5 -201.5t-12.5 -303.5q-47 -230 -204 -370t-366 -140q-94 0 -173 36.5t-113 96.5l-135 -133h-29l270 1274q17 79 -9 102t-107 11l6 28l303 97h28l-143 -674q52 110 152.5 180t214.5 70zM285 319q-22 -119 31 -205.5t176 -86.5
q131 0 237.5 123t147.5 323q27 142 15 249.5t-73.5 170.5t-163.5 63q-82 0 -160.5 -61t-119.5 -150z" />
    <glyph glyph-name="c" unicode="c" horiz-adv-x="1011" 
d="M936 719q-42 280 -272 280q-135 0 -247.5 -117t-150.5 -300q-23 -97 -12 -184.5t45.5 -154t101.5 -106t156 -39.5q96 0 184 58t142 159l24 -6q-61 -156 -173.5 -247t-264.5 -91q-138 0 -238 72t-141 208.5t-4 311.5q20 97 75 187.5t130 158t171 108t193 40.5
q65 0 120 -13.5t81 -27t48 -19.5t34 6.5t25 53.5h26l-24 -338h-29z" />
    <glyph glyph-name="d" unicode="d" horiz-adv-x="1191" 
d="M389 -31q-192 0 -275.5 162.5t-29.5 419.5q46 220 210 363t380 143q75 0 138 -28.5t97 -76.5l64 291q17 79 -9.5 102t-107.5 11l6 28l303 97h29l-285 -1336q-7 -38 5 -60t40 -22q44 0 95 68l24 -10q-55 -85 -111 -118.5t-100 -33.5q-59 0 -96.5 42t-28.5 116l21 98
q-52 -114 -152.5 -185t-216.5 -71zM266 559q-26 -140 -13.5 -248.5t73.5 -174.5t161 -66q84 0 162 61t119 152l90 415q15 76 -0.5 143t-69 112.5t-137.5 45.5q-131 0 -237.5 -122t-147.5 -318z" />
    <glyph glyph-name="e" unicode="e" horiz-adv-x="1019" 
d="M463 -29q-143 0 -241.5 76.5t-135 212t-0.5 303.5q29 134 108.5 245.5t201.5 180t259 68.5q192 0 271 -122t20 -317h-672l-4 -16q-24 -107 -14.5 -199t43.5 -160t99.5 -106.5t152.5 -38.5q88 0 173 56.5t132 148.5l27 -6q-59 -152 -166 -239t-254 -87zM287 666h499
q36 136 -7.5 234.5t-149.5 98.5q-120 0 -209 -90t-133 -243z" />
    <glyph glyph-name="f" unicode="f" horiz-adv-x="874" 
d="M774 1493q67 0 127.5 -16.5t101 -53.5t33.5 -86q-4 -43 -33.5 -66.5t-72.5 -21.5q-37 1 -56 20.5t-25.5 47t-13 54.5t-27.5 46t-60 19q-79 0 -138.5 -81t-83.5 -204l-26 -125h284l-12 -57h-285l-174 -815q-7 -35 0 -57.5t33 -36t56 -19.5t85 -12l-6 -29h-518l6 29
q76 12 119 37.5t57 87.5l172 815h-172l13 57h172l24 113q29 116 94 197.5t148 119t178 37.5z" />
    <glyph glyph-name="g" unicode="g" horiz-adv-x="1079" 
d="M326 -434q-183 0 -281 57.5t-98 155.5q0 171 219 244q-70 17 -98.5 69.5t-12.5 122.5q11 62 62 116t135 85q-63 48 -91 125.5t-7 175.5q32 146 161.5 243t311.5 97q57 0 120.5 -3t103.5 -6t82.5 -4t68 2t48.5 12t35.5 26t18.5 44h24l-14 -163q-71 0 -285 47
q94 -45 129 -129t11 -193q-32 -147 -160.5 -243.5t-310.5 -96.5q-134 0 -219 49q-96 -44 -109 -116q-15 -72 42 -103.5t163 -5.5l121 27q223 50 339 -26.5t80 -258.5q-32 -152 -199 -251t-390 -99zM76 -207q8 -79 83 -126.5t208 -47.5q162 0 279 70t142 184
q24 115 -60.5 166t-233.5 20l-121 -28q-111 -23 -170 -15q-67 -53 -98.5 -105.5t-28.5 -117.5zM336 754q-31 -151 17.5 -254t160.5 -103q99 0 173 71t99 185q32 155 -18 257t-156 102q-99 0 -175 -71.5t-101 -186.5z" />
    <glyph glyph-name="h" unicode="h" horiz-adv-x="1200" 
d="M-49 29q83 10 120.5 39t51.5 92l229 1083q17 79 -10 102t-109 11l7 28l303 97h28l-141 -664q118 124 210 182t185 58q135 0 201.5 -93t34.5 -247l-119 -557q-12 -63 12.5 -92t102.5 -39l-6 -29h-455l6 29q83 11 120.5 39.5t49.5 91.5l115 538q25 117 -21.5 177.5
t-138.5 60.5q-33 0 -66 -9.5t-57 -21t-61 -39t-57 -44t-66 -56.5l-129 -606q-12 -63 12.5 -92t102.5 -39l-7 -29h-454z" />
    <glyph glyph-name="i" unicode="i" horiz-adv-x="571" 
d="M291 160q-12 -63 12.5 -92t102.5 -39l-7 -29h-454l6 29q83 10 120.5 39t51.5 92l139 659q17 81 -10 104t-109 9l7 29l305 96h28zM317 1335q6 53 47.5 88t96.5 35q53 0 84.5 -35.5t25.5 -87.5t-46.5 -87.5t-94.5 -35.5q-56 0 -88 35.5t-25 87.5z" />
    <glyph glyph-name="j" unicode="j" horiz-adv-x="546" 
d="M475 1057h29l-203 -957q-24 -112 -58.5 -194t-90.5 -150t-138 -114t-196 -76l-6 22q61 25 104 56t82 82t67.5 127.5t51.5 185.5l168 780q17 81 -10 104t-109 9l6 29zM330 1337q6 53 47 88t96 35q53 0 85 -35.5t26 -87.5t-47 -87.5t-95 -35.5q-55 0 -87.5 35t-24.5 88z
" />
    <glyph glyph-name="k" unicode="k" horiz-adv-x="1150" 
d="M1200 997q-74 -7 -136.5 -37t-154.5 -100l-217 -170l174 -520q29 -75 67 -105.5t105 -35.5l-6 -29h-332q13 46 -20 141l-148 430l-184 -141l-57 -270q-12 -63 12.5 -92t102.5 -39l-7 -29h-454l6 29q83 10 120.5 39t51.5 92l229 1083q17 79 -10 102t-109 11l7 28l303 97
h28l-206 -975l487 375q57 43 46 77.5t-89 38.5l6 29h391z" />
    <glyph glyph-name="l" unicode="l" horiz-adv-x="571" 
d="M291 160q-12 -63 12.5 -92t102.5 -39l-7 -29h-454l6 29q83 10 120.5 39t51.5 92l229 1083q17 79 -10 102t-109 11l7 28l303 97h28z" />
    <glyph glyph-name="m" unicode="m" horiz-adv-x="1835" 
d="M1579 160q-13 -63 11.5 -91.5t101.5 -39.5l-6 -29h-453l6 29q83 10 119.5 39t50.5 92l117 549q22 105 -22 167t-140 62q-70 0 -138 -40t-163 -126q-2 -20 -10 -55l-117 -557q-13 -63 11.5 -91.5t101.5 -39.5l-7 -29h-452l6 29q82 11 119.5 39.5t50.5 91.5l117 549
q22 104 -22.5 166.5t-139.5 62.5q-71 0 -137.5 -39t-161.5 -123l-131 -616q-12 -63 12.5 -92t102.5 -39l-7 -29h-454l6 29q83 10 120.5 39t51.5 92l139 659q17 81 -10 104t-109 9l7 29l305 96h28l-49 -230q213 230 381 230q119 0 186 -64.5t64 -177.5q103 111 206 176.5
t187 65.5q144 0 208 -92t30 -248z" />
    <glyph glyph-name="n" unicode="n" horiz-adv-x="1200" 
d="M-49 29q83 10 120.5 39t51.5 92l139 659q17 81 -10 104t-109 9l7 29l305 96h28l-51 -240q120 128 208.5 184t182.5 56q139 0 204 -93.5t34 -246.5l-119 -557q-12 -63 12.5 -92t102.5 -39l-6 -29h-455l6 29q83 11 120.5 39.5t49.5 91.5l115 538q24 111 -20 174.5
t-142 63.5q-73 0 -139.5 -40t-165.5 -130l-129 -606q-12 -63 12.5 -92t102.5 -39l-7 -29h-454z" />
    <glyph glyph-name="o" unicode="o" horiz-adv-x="1116" 
d="M471 -31q-101 0 -183.5 39.5t-135.5 112.5t-74.5 175.5t0.5 227.5q40 227 199.5 380t367.5 153q207 0 321.5 -154.5t71.5 -400.5q-40 -227 -199.5 -380t-367.5 -153zM266 575q-15 -76 -15.5 -154t15 -148.5t45 -125.5t77.5 -87.5t108 -32.5q122 0 218.5 113t135.5 309
q22 95 14.5 193t-33 177.5t-81 129.5t-129.5 50q-121 0 -217.5 -114t-137.5 -310z" />
    <glyph glyph-name="p" unicode="p" horiz-adv-x="1191" 
d="M-154 -375q76 12 118 37.5t56 87.5l228 1069q17 81 -10 104t-109 9l6 29l305 96h29l-55 -250q54 111 153.5 180.5t212.5 69.5q193 0 278.5 -157.5t31.5 -412.5q-53 -242 -206 -380t-368 -138q-77 0 -150 30t-106 77l-70 -326q-14 -64 26 -89t149 -36l-7 -28h-518z
M313 326q-15 -55 -6.5 -108.5t31.5 -96t70 -68.5t110 -26q132 0 238 121.5t147 318.5q45 215 -13.5 352t-207.5 137q-84 0 -162 -60.5t-119 -150.5z" />
    <glyph glyph-name="q" unicode="q" horiz-adv-x="1138" 
d="M426 -375q114 11 164 36t63 89l101 469q-52 -110 -152.5 -180t-214.5 -70q-126 0 -208 76t-105 209t12 313q21 101 75 190.5t130.5 156t175.5 105t205 38.5q89 0 159.5 -34.5t106.5 -92.5l135 127h29l-279 -1307q-12 -62 19 -87.5t102 -37.5l-6 -28h-518zM268 573
q-28 -147 -16 -259t73 -178t160 -66q83 0 161.5 61.5t119.5 151.5l92 426q12 76 -5 140.5t-69.5 107t-134.5 42.5q-130 0 -236.5 -119.5t-144.5 -306.5z" />
    <glyph glyph-name="r" unicode="r" horiz-adv-x="823" 
d="M762 1057q71 0 107 -38t22 -87q-10 -41 -39 -63t-66 -19q-25 2 -40.5 15.5t-22 28.5t-23.5 27.5t-45 12.5q-76 0 -153.5 -87.5t-104.5 -213.5l-102 -479q-13 -64 26.5 -89t147.5 -36l-6 -29h-518l6 29q50 8 81 18.5t57.5 37t35.5 69.5l141 665q18 81 -8 104t-108 9l6 29
l303 96h28l-57 -269q58 128 149.5 198.5t182.5 70.5z" />
    <glyph glyph-name="s" unicode="s" horiz-adv-x="884" 
d="M389 -29q-66 0 -125.5 15.5t-90.5 31.5t-58 23.5t-42.5 -8.5t-29.5 -64h-29l19 346h28q24 -136 111 -211t213 -75q86 0 147 42.5t76 112.5q13 59 -2.5 106t-50.5 77t-82.5 58t-98 50.5t-97.5 54t-81 68t-47.5 93t1.5 128.5q24 111 118 174.5t226 63.5q58 0 111.5 -15.5
t82 -31t54 -23.5t40 7.5t25.5 62.5h29l-19 -318h-29q-27 123 -100.5 191.5t-185.5 68.5q-79 0 -134.5 -38t-70.5 -103q-11 -54 6 -96t53 -68.5t84 -53t98.5 -49t97 -55.5t79 -73t44.5 -102t-5 -142q-24 -116 -124 -182t-241 -66z" />
    <glyph glyph-name="t" unicode="t" horiz-adv-x="712" 
d="M752 969h-291l-150 -699q-20 -98 8 -154t107 -53q75 3 143 68l13 -10q-42 -62 -109.5 -107t-136.5 -45q-118 0 -170.5 81.5t-24.5 215.5l150 703h-166l6 28q132 31 223 104t146 193h28l-55 -268h291z" />
    <glyph glyph-name="u" unicode="u" horiz-adv-x="1206" 
d="M379 -31q-141 0 -206 95t-32 245l107 510q17 81 -10 104t-109 9l6 29l305 96h29l-156 -727q-24 -112 20.5 -176t141.5 -64q71 0 138.5 40t164.5 128l119 561q18 81 -9 104t-108 9l6 29l304 96h28l-192 -912q-9 -38 3 -60t40 -22q42 0 96 68l22 -10q-55 -85 -110.5 -118.5
t-99.5 -33.5q-59 0 -96.5 42t-28.5 116l18 82q-119 -126 -209 -183t-182 -57z" />
    <glyph glyph-name="v" unicode="v" horiz-adv-x="1060" 
d="M846 997l6 29h309l-6 -29q-84 -9 -162 -133l-559 -895h-28l-177 895q-24 124 -116 133l6 29h438l-6 -29q-86 -6 -123 -39t-25 -94l121 -659l408 659q38 62 16 95t-102 38z" />
    <glyph glyph-name="w" unicode="w" horiz-adv-x="1644" 
d="M1430 997l6 29h309l-6 -29q-46 -7 -83 -38t-75 -93l-555 -897h-27l-137 711l-440 -711h-27l-168 893q-22 113 -114 135l6 29h432l-6 -29q-88 -13 -122 -45.5t-26 -79.5l115 -667l338 549l-21 114q-25 111 -112 129l6 29h430l-6 -29q-87 -13 -121.5 -47.5t-24.5 -83.5
l117 -661l406 663q64 102 -94 129z" />
    <glyph glyph-name="x" unicode="x" horiz-adv-x="1101" 
d="M549 29q61 7 88.5 23.5t25.5 41t-18 56.5l-153 303l-295 -291q-27 -27 -41 -47.5t-16 -39t19 -30.5t64 -16l-6 -29h-309l6 29q52 10 95.5 37t103.5 86l354 350l-201 397q-22 47 -53.5 69.5t-85.5 28.5l6 29h422l-6 -29q-59 -4 -84.5 -19.5t-24 -36t18.5 -52.5l139 -279
l258 254q29 29 44 50.5t17 40t-17.5 29t-61.5 13.5l6 29h309l-6 -29q-56 -6 -100.5 -32.5t-106.5 -85.5l-319 -316l217 -432q26 -48 56 -71.5t79 -30.5l-4 -29h-426z" />
    <glyph glyph-name="y" unicode="y" horiz-adv-x="1085" 
d="M-6 -434q-74 0 -123 33t-37 86q8 39 39 65.5t72 26.5q26 0 81 -34t101 -34q61 0 117.5 46.5t115.5 144.5l56 90l-178 870q-27 128 -113 137l6 29h436l-6 -29q-88 -6 -124.5 -40t-24.5 -97l127 -667l407 667q38 65 19.5 98t-95.5 39l7 29h311l-6 -29q-92 -9 -174 -137
l-598 -979q-37 -63 -79 -115.5t-94.5 -99.5t-115 -73.5t-127.5 -26.5z" />
    <glyph glyph-name="z" unicode="z" horiz-adv-x="960" 
d="M1001 1026l-6 -29l-811 -940h340q90 0 164 68t139 215h29l-117 -340h-800l6 29l811 940h-316q-87 0 -156 -57.5t-137 -192.5h-28l94 307h788z" />
    <glyph glyph-name="braceleft" unicode="{" horiz-adv-x="708" 
d="M111 588q100 20 153.5 75.5t75.5 155.5l80 381q31 141 139.5 209t300.5 68l-6 -27q-113 -12 -177 -70t-89 -172l-82 -379q-24 -117 -83.5 -166.5t-201.5 -82.5q129 -35 166.5 -84.5t11.5 -167.5l-80 -379q-25 -113 15 -171.5t147 -70.5l-4 -26q-191 0 -270.5 68
t-50.5 208l82 381q21 100 -9 155.5t-120 75.5z" />
    <glyph glyph-name="bar" unicode="|" horiz-adv-x="225" 
d="M-121 -438l436 2056h62l-436 -2056h-62z" />
    <glyph glyph-name="braceright" unicode="}" horiz-adv-x="708" 
d="M625 569q-99 -20 -153.5 -76t-74.5 -155l-82 -381q-29 -140 -137 -208t-299 -68l4 26q113 12 177.5 70.5t89.5 171.5l79 379q26 118 84.5 167.5t202.5 84.5q-53 14 -87 27.5t-58.5 32.5t-34 45t-10 60.5t9.5 83.5l82 379q24 113 -16.5 171.5t-147.5 70.5l6 27
q191 0 271 -68.5t49 -208.5l-80 -381q-22 -99 8.5 -155t120.5 -76z" />
    <glyph glyph-name="asciitilde" unicode="~" horiz-adv-x="1306" 
d="M229 731q147 125 281 125q56 0 112.5 -21.5t95 -47t90.5 -47t101 -21.5q61 0 116 25t122 81l35 -34q-147 -125 -281 -125q-56 0 -112 21.5t-95 47t-91 47t-101 21.5q-114 0 -238 -107z" />
    <glyph glyph-name="uni00A0" unicode="&#xa0;" horiz-adv-x="446" 
 />
    <glyph glyph-name="exclamdown" unicode="&#xa1;" horiz-adv-x="489" 
d="M37 -465q-54 0 -71 40.5t7 109.5l285 968h29l-123 -968q-6 -69 -40.5 -109.5t-86.5 -40.5zM186 911q8 57 51.5 96.5t100.5 39.5q56 0 91 -39.5t28 -96.5q-4 -55 -48 -94t-100 -39q-57 0 -92.5 38.5t-30.5 94.5z" />
    <glyph glyph-name="cent" unicode="&#xa2;" horiz-adv-x="1011" 
d="M936 719q-42 280 -272 280q-135 0 -247.5 -117t-150.5 -300q-23 -97 -12 -184.5t45.5 -154t101.5 -106t156 -39.5q96 0 184 58t142 159l24 -6q-61 -156 -173.5 -247t-264.5 -91h-10l-60 -276h-57l59 280q-184 27 -275 187t-40 401q26 126 106.5 236.5t197 180.5t241.5 77
l53 250h57l-53 -250q56 -3 104.5 -17t71.5 -26.5t43.5 -17.5t31.5 8.5t24 52.5h26l-24 -338h-29z" />
    <glyph glyph-name="sterling" unicode="&#xa3;" horiz-adv-x="1218" 
d="M698 -29q-75 0 -142 19t-109 43t-92.5 43.5t-97 24.5t-116 -19t-155.5 -82l-17 29q101 86 172.5 166.5t111 145t59.5 132.5t24 119t0 115h-238l13 57h221q-1 10 -5 51t-5.5 56t-3.5 51.5t-0.5 59.5t4.5 55.5t10 62.5q35 165 169 273t322 108q110 0 199.5 -30t139 -91.5
t32.5 -142.5q-8 -31 -29 -54.5t-51 -27.5q-34 -6 -61 8.5t-33 42.5q-3 49 -13 86t-31.5 74t-63.5 57t-103 20q-123 0 -204.5 -76.5t-100.5 -197.5q-9 -59 15 -186t22 -199h407l-12 -57h-401q-32 -263 -377 -547q90 47 167.5 66t130 13.5t104 -22.5t89 -37.5t85.5 -36.5
t93 -16q71 0 140 44t114 124l19 -6q-56 -155 -166.5 -236.5t-235.5 -81.5z" />
    <glyph glyph-name="currency" unicode="&#xa4;" horiz-adv-x="1300" 
d="M561 20q-202 0 -315 132l-197 -166l-31 41l199 163q-83 135 -43 328q40 187 178 322l-125 159l41 37l123 -162q162 130 354 130q199 0 310 -127l194 163l31 -41l-197 -161q90 -137 47 -330q-40 -193 -184 -330l123 -155l-41 -37l-123 157q-155 -123 -344 -123zM229 512
q-38 -189 56 -313.5t276 -124.5t328 124.5t184 313.5q41 189 -52 313.5t-276 124.5q-182 0 -329 -124.5t-187 -313.5z" />
    <glyph glyph-name="yen" unicode="&#xa5;" horiz-adv-x="1390" 
d="M1126 588h-307l-37 -176h308l-13 -58h-307l-33 -159q-19 -88 12.5 -122t135.5 -42l-6 -31h-553l6 31q109 8 155.5 42t65.5 122l33 159h-305l12 58h305l37 176h-305l12 57h279l-218 615q-20 56 -37.5 84.5t-56.5 49t-106 27.5l6 29h563l-6 -29q-109 -11 -153 -47.5
t-21 -103.5l207 -598l430 598q51 67 29 104t-125 47l6 29h438l-6 -29q-104 -10 -164 -45t-115 -110l-448 -621h295z" />
    <glyph glyph-name="brokenbar" unicode="&#xa6;" horiz-adv-x="225" 
d="M113 369l-172 -807h-62l172 807h62zM145 811l170 807h62l-170 -807h-62z" />
    <glyph glyph-name="section" unicode="&#xa7;" horiz-adv-x="1067" 
d="M848 164q153 -88 153 -262q0 -154 -123.5 -247t-330.5 -93q-177 0 -307 97t-174 261l67 21q44 -143 156 -228.5t258 -85.5q169 0 272 75.5t103 199.5q0 32 -7.5 60.5t-18 51t-31.5 43.5t-38.5 36t-49.5 31t-53.5 25.5t-61 22.5t-61.5 19.5l-66 19.5q-58 17 -88 26.5
t-81.5 28.5t-80 35.5t-64.5 43.5t-54.5 56t-32 69t-13.5 87q0 75 45.5 144t128.5 120q-174 85 -174 258q0 140 118.5 231t301.5 91q164 0 279.5 -72.5t146.5 -195.5l-62 -23q-37 107 -133 166t-231 59q-153 0 -247.5 -70.5t-94.5 -185.5q0 -40 11.5 -73.5t28 -58.5t47.5 -47
t58 -36.5t72 -30.5t76 -24.5t83 -22.5q83 -23 126.5 -36.5t110.5 -44.5t101 -65t61 -90t27 -126q0 -153 -153 -260zM199 557q0 -40 11.5 -73.5t28.5 -58.5t49 -47.5t58 -36.5t72.5 -30.5t76 -25t83.5 -23.5q138 -37 198 -63q146 76 146 225q0 36 -8 67t-25.5 56t-36 45
t-51 38.5t-57 31t-67 27t-69 22.5t-73.5 22q-104 30 -162 53q-82 -31 -128 -91t-46 -138z" />
    <glyph glyph-name="dieresis" unicode="&#xa8;" horiz-adv-x="1007" 
d="M473 1210q-51 0 -78 33.5t-16 83.5q9 48 50.5 81.5t92.5 33.5q49 0 75.5 -33.5t18.5 -81.5q-12 -50 -53 -83.5t-90 -33.5zM737 1327q11 48 52.5 81.5t93.5 33.5q49 0 75 -33.5t17 -81.5q-11 -50 -51.5 -83.5t-89.5 -33.5q-52 0 -80 33.5t-17 83.5z" />
    <glyph glyph-name="copyright" unicode="&#xa9;" horiz-adv-x="1751" 
d="M926 322q-169 0 -274 111t-105 292t105 292t274 111q122 0 208 -63.5t117 -175.5l-69 -12q-23 91 -89.5 139.5t-166.5 48.5q-142 0 -225 -91.5t-83 -248.5t83 -248.5t225 -91.5q200 0 256 186l67 -10q-34 -113 -119.5 -176t-203.5 -63zM164 725q0 153 60 293t161.5 241.5
t241.5 161.5t293 60t293 -60t241 -161.5t161 -241.5t60 -293t-60 -293t-161 -241.5t-241 -161.5t-293 -60t-293 60t-241.5 161.5t-161.5 241.5t-60 293zM231 725q0 -187 93 -346.5t251.5 -252.5t344.5 -93q187 0 346.5 93t252.5 252.5t93 346.5t-93 346.5t-252.5 252.5
t-346.5 93q-186 0 -344.5 -93t-251.5 -252.5t-93 -346.5z" />
    <glyph glyph-name="ordfeminine" unicode="&#xaa;" horiz-adv-x="606" 
d="M301 881q-68 0 -106 46t-25 115q31 156 276 179l93 10l10 55q14 75 -9.5 119.5t-80.5 44.5q-61 0 -93 -34t-30 -79q0 -67 -51 -77q-31 -6 -46 12t-8 53q11 56 76.5 106t169.5 50q102 0 150.5 -56t29.5 -149l-61 -293q-4 -20 3 -32.5t22 -12.5q26 0 53 37l12 -4
q-54 -90 -127 -90q-33 0 -57.5 23t-18.5 63l11 49q-78 -135 -193 -135zM287 1055q-7 -44 15.5 -73.5t62.5 -29.5q68 0 133 92l32 156l-81 -10q-137 -15 -162 -135z" />
    <glyph glyph-name="guillemotleft" unicode="&#xab;" horiz-adv-x="1060" 
d="M442 109l-389 403l8 39l562 403l18 -20l-430 -402l258 -403zM496 512l8 39l561 403l16 -20l-430 -402l260 -403l-28 -20z" />
    <glyph glyph-name="logicalnot" unicode="&#xac;" horiz-adv-x="1228" 
d="M1085 719l-129 -610h-57l121 557h-805l10 53h860z" />
    <glyph glyph-name="uni00AD" unicode="&#xad;" horiz-adv-x="716" 
d="M627 573l-13 -55h-512l13 55h512z" />
    <glyph glyph-name="registered" unicode="&#xae;" horiz-adv-x="1079" 
d="M862 836h-55l-143 225h-113v-225h-45v473h160q67 0 106 -34.5t39 -90.5q0 -45 -26.5 -78t-71.5 -43zM225 1053q0 177 125.5 302.5t302.5 125.5t302.5 -125.5t125.5 -302.5q0 -175 -125.5 -300.5t-302.5 -125.5t-302.5 125.5t-125.5 300.5zM264 1053q0 -163 114 -278.5
t275 -115.5t276 115.5t115 278.5t-115 279t-276 116t-275 -116t-114 -279zM551 1104h108q105 0 105 80q0 38 -27 59t-78 21h-108v-160z" />
    <glyph glyph-name="macron" unicode="&#xaf;" horiz-adv-x="935" 
d="M352 1210l13 58h526l-12 -58h-527z" />
    <glyph glyph-name="degree" unicode="&#xb0;" horiz-adv-x="567" 
d="M401 969q-92 0 -148 63t-44 152q12 92 79 154t158 63q94 1 151.5 -62.5t45.5 -154.5q-12 -93 -80.5 -154t-161.5 -61zM274 1184q-9 -63 28.5 -109.5t98.5 -46.5q66 0 117 45t60 111q9 63 -30 109t-102 46q-64 0 -113.5 -44.5t-58.5 -110.5z" />
    <glyph glyph-name="plusminus" unicode="&#xb1;" horiz-adv-x="1228" 
d="M231 741l13 54h403l86 403h53l-86 -403h404l-12 -54h-402l-86 -403h-53l86 403h-406zM74 -4l12 53h860l-12 -53h-860z" />
    <glyph glyph-name="uni00B2" unicode="&#xb2;" horiz-adv-x="686" 
d="M555 1688q-85 0 -140 -54t-53 -133q3 -36 -14.5 -57.5t-44.5 -28.5q-33 -5 -51 14.5t-14 55.5q13 98 109 167.5t208 69.5q143 0 212.5 -68.5t43.5 -185.5q-16 -72 -60 -132t-100 -97.5t-124 -73.5t-128 -62.5t-115 -62t-83 -73.5h346q69 0 116 27t85 114l16 -4l-92 -270
h-557l6 28q17 68 54 125t82.5 97t98 76t103.5 70t95.5 71t77.5 87.5t46 110.5q19 87 -15.5 138t-107.5 51z" />
    <glyph glyph-name="uni00B3" unicode="&#xb3;" horiz-adv-x="684" 
d="M395 815q-105 0 -179.5 48.5t-78.5 129.5q-3 36 12.5 67t49.5 38q25 4 42 -4t24 -32t-11 -69q-13 -53 23 -98t118 -45q76 0 132.5 54t76.5 147q22 101 -37 157.5t-194 55.5l8 24q110 18 188.5 79t98.5 151q17 75 -13 122.5t-96 47.5q-83 0 -128 -52t-48 -127
q0 -36 -19.5 -57.5t-46.5 -24.5q-35 -4 -51 15.5t-10 56.5q15 91 104 157t205 66q130 0 194.5 -56.5t45.5 -152.5q-14 -74 -93 -136t-192 -83q125 -5 189 -70t41 -173q-22 -104 -120 -170t-235 -66z" />
    <glyph glyph-name="acute" unicode="&#xb4;" horiz-adv-x="751" 
d="M371 1157h-29l209 338h203z" />
    <glyph glyph-name="uni00B5" unicode="&#xb5;" horiz-adv-x="1091" 
d="M1004 1026h61l-219 -1026h-62l60 279q-80 -143 -202.5 -225.5t-256.5 -82.5q-103 0 -174 46.5t-90 127.5l-119 -548h-61l307 1429h61l-151 -702q-26 -124 42 -208t197 -83q114 1 218.5 65.5t177.5 173.5t100 240z" />
    <glyph glyph-name="paragraph" unicode="&#xb6;" horiz-adv-x="1048" 
d="M385 788q-134 2 -226.5 87t-92.5 206q0 122 94 206.5t229 84.5h594v-61h-141v-1749h-74v1749h-311v-1749h-72v1226z" />
    <glyph glyph-name="periodcentered" unicode="&#xb7;" horiz-adv-x="421" 
d="M238 582q-56 0 -91 39.5t-28 95.5q4 55 47.5 94t99.5 39q57 0 92.5 -38.5t30.5 -94.5q-8 -57 -51 -96t-100 -39z" />
    <glyph glyph-name="cedilla" unicode="&#xb8;" horiz-adv-x="720" 
d="M10 -403q84 -9 142.5 19t70.5 85q8 37 -21 65.5t-91 38.5l170 195h34l-96 -119q72 -4 107.5 -45t23.5 -102q-20 -99 -113.5 -142.5t-230.5 -15.5z" />
    <glyph glyph-name="uni00B9" unicode="&#xb9;" horiz-adv-x="456" 
d="M102 850q84 6 113.5 25.5t40.5 68.5l133 623h-133l4 16q178 49 279 127h18l-162 -766q-9 -46 8.5 -66.5t79.5 -27.5l-4 -16h-381z" />
    <glyph glyph-name="ordmasculine" unicode="&#xba;" horiz-adv-x="626" 
d="M408 881q-118 0 -183.5 85.5t-42.5 221.5q22 124 111.5 208.5t208.5 84.5q120 0 183.5 -86.5t39.5 -225.5q-22 -122 -111 -205t-206 -83zM307 1223q-13 -75 -8.5 -144.5t37 -118.5t84.5 -49q62 0 111 60t71 164q13 73 9 143t-36.5 121t-85.5 51q-62 0 -111 -61.5
t-71 -165.5z" />
    <glyph glyph-name="guillemotright" unicode="&#xbb;" horiz-adv-x="1060" 
d="M426 109l-18 20l432 403l-262 402l26 20l389 -403l-8 -39zM-35 129l432 403l-260 402l25 20l391 -403l-8 -39l-559 -403z" />
    <glyph glyph-name="onequarter" unicode="&#xbc;" horiz-adv-x="1536" 
d="M49 596q84 6 113.5 25.5t40.5 68.5l133 623h-133l4 16q177 49 278 127h19l-162 -766q-9 -46 8.5 -66.5t79.5 -27.5l-4 -16h-381zM207 0l1063 1450h67l-1063 -1450h-67zM754 238l2 16l528 635h107l-127 -596h14q53 0 107 50t92 138h18l-84 -243h-160l-20 -95
q-12 -64 3 -92.5t81 -34.5l-4 -16h-387l4 16q76 8 114.5 35.5t51.5 91.5l20 95h-360zM829 293h295l103 477z" />
    <glyph glyph-name="onehalf" unicode="&#xbd;" horiz-adv-x="1576" 
d="M49 596q84 6 113.5 25.5t40.5 68.5l133 623h-133l4 16q177 49 278 127h19l-162 -766q-9 -46 8.5 -66.5t79.5 -27.5l-4 -16h-381zM207 0l1063 1450h67l-1063 -1450h-67zM827 0l7 29q17 68 54 125t82.5 97t98 76t103.5 70t95.5 71t77.5 87.5t46 110.5q19 87 -15.5 137.5
t-107.5 50.5q-85 0 -140 -53.5t-53 -132.5q3 -36 -14.5 -57.5t-44.5 -28.5q-33 -5 -51.5 14t-14.5 55q13 98 109.5 168t208.5 70q143 0 212.5 -68.5t43.5 -185.5q-18 -86 -76 -153t-133.5 -110t-151.5 -78t-146.5 -76t-103.5 -85h347q69 0 115.5 27t84.5 114l17 -4l-93 -270
h-557z" />
    <glyph glyph-name="threequarters" unicode="&#xbe;" horiz-adv-x="1660" 
d="M342 561q-105 0 -179.5 48.5t-78.5 129.5q-3 36 12 67t49 38q25 4 42.5 -4t24.5 -32t-11 -69q-13 -53 23 -98t118 -45q76 0 132.5 54t76.5 147q22 101 -37.5 157.5t-194.5 55.5l9 24q110 18 188 79t98 151q17 75 -12.5 122.5t-95.5 47.5q-83 0 -128 -52t-48 -127
q0 -36 -19.5 -57t-46.5 -24q-35 -4 -51 15t-10 56q15 91 104 157t205 66q130 0 194.5 -56t45.5 -152q-14 -74 -93 -136.5t-192 -83.5q125 -5 188.5 -69.5t40.5 -173.5q-22 -104 -119.5 -170t-234.5 -66zM332 0l1063 1450h67l-1063 -1450h-67zM879 238l2 16l528 635h107
l-127 -596h14q53 0 107 50t92 138h18l-84 -243h-160l-20 -95q-12 -64 3 -92.5t81 -34.5l-4 -16h-387l4 16q76 8 114.5 35.5t51.5 91.5l20 95h-360zM954 293h295l103 477z" />
    <glyph glyph-name="questiondown" unicode="&#xbf;" horiz-adv-x="1021" 
d="M594 662q-8 -87 -33 -160.5t-60.5 -126t-77.5 -98.5t-85.5 -89t-81.5 -87t-69.5 -102.5t-45.5 -125.5q-26 -122 40 -202.5t188 -80.5q123 0 207.5 90t87.5 199q0 52 24.5 81t63.5 32q47 6 70.5 -20.5t15.5 -77.5q-24 -143 -171 -251t-325 -108q-210 0 -311.5 97
t-67.5 262q15 70 52.5 132.5t86.5 109.5t105.5 92l113 90t105.5 93.5t86.5 113t52.5 137.5h29zM479 911q8 57 51.5 96.5t100.5 39.5q56 0 91 -39.5t28 -96.5q-4 -55 -48 -94t-100 -39q-57 0 -92.5 38.5t-30.5 94.5z" />
    <glyph glyph-name="Agrave" unicode="&#xc0;" horiz-adv-x="1503" 
d="M1206 246q25 -119 66 -168t117 -49l-7 -29h-573l6 29q138 0 184.5 44.5t24.5 153.5l-47 254h-598l-156 -254q-68 -109 -41 -153.5t160 -44.5l-6 -29h-434l6 29q73 0 131.5 48.5t134.5 168.5l762 1235h29zM416 539h549l-129 688zM723 1917h205l63 -338h-28z" />
    <glyph glyph-name="Aacute" unicode="&#xc1;" horiz-adv-x="1503" 
d="M1206 246q25 -119 66 -168t117 -49l-7 -29h-573l6 29q138 0 184.5 44.5t24.5 153.5l-47 254h-598l-156 -254q-68 -109 -41 -153.5t160 -44.5l-6 -29h-434l6 29q73 0 131.5 48.5t134.5 168.5l762 1235h29zM416 539h549l-129 688zM952 1581l209 338h203l-383 -338h-29z" />
    <glyph glyph-name="Acircumflex" unicode="&#xc2;" horiz-adv-x="1503" 
d="M1206 246q25 -119 66 -168t117 -49l-7 -29h-573l6 29q138 0 184.5 44.5t24.5 153.5l-47 254h-598l-156 -254q-68 -109 -41 -153.5t160 -44.5l-6 -29h-434l6 29q73 0 131.5 48.5t134.5 168.5l762 1235h29zM416 539h549l-129 688zM682 1597l274 326h160l144 -326l-23 -14
l-219 240l-318 -240z" />
    <glyph glyph-name="Atilde" unicode="&#xc3;" horiz-adv-x="1503" 
d="M1206 246q25 -119 66 -168t117 -49l-7 -29h-573l6 29q138 0 184.5 44.5t24.5 153.5l-47 254h-598l-156 -254q-68 -109 -41 -153.5t160 -44.5l-6 -29h-434l6 29q73 0 131.5 48.5t134.5 168.5l762 1235h29zM416 539h549l-129 688zM682 1602q55 245 201 245q41 0 89.5 -29.5
t95 -59t81.5 -29.5q83 0 125 129l29 -5q-24 -115 -74 -179t-125 -64q-38 0 -88.5 29t-99 58t-80.5 29q-84 0 -125 -129z" />
    <glyph glyph-name="Adieresis" unicode="&#xc4;" horiz-adv-x="1503" 
d="M1206 246q25 -119 66 -168t117 -49l-7 -29h-573l6 29q138 0 184.5 44.5t24.5 153.5l-47 254h-598l-156 -254q-68 -109 -41 -153.5t160 -44.5l-6 -29h-434l6 29q73 0 131.5 48.5t134.5 168.5l762 1235h29zM416 539h549l-129 688zM705 1751q6 48 43.5 81.5t89.5 33.5
q49 0 78.5 -33.5t23.5 -81.5q-6 -50 -44 -83.5t-87 -33.5q-51 0 -80.5 33.5t-23.5 83.5zM1063 1751q6 48 44.5 81.5t90.5 33.5q49 0 78.5 -33.5t23.5 -81.5q-6 -50 -44 -83.5t-87 -33.5q-52 0 -82 33.5t-24 83.5z" />
    <glyph glyph-name="Aring" unicode="&#xc5;" horiz-adv-x="1503" 
d="M1206 246q25 -119 66 -168t117 -49l-7 -29h-573l6 29q138 0 184.5 44.5t24.5 153.5l-47 254h-598l-156 -254q-68 -109 -41 -153.5t160 -44.5l-6 -29h-434l6 29q73 0 131.5 48.5t134.5 168.5l762 1235h29zM416 539h549l-129 688zM801 1749q10 82 73.5 135t149.5 53
t136.5 -53t41.5 -135q-12 -82 -75 -135t-148 -53q-88 0 -138 53t-40 135zM879 1751q-8 -56 21 -91.5t81 -35.5q54 0 94 35.5t49 91.5q8 54 -21 89.5t-83 35.5q-52 0 -92 -35.5t-49 -89.5z" />
    <glyph glyph-name="AE" unicode="&#xc6;" horiz-adv-x="2035" 
d="M2068 1481h29l-22 -408h-29q-3 170 -66.5 245t-205.5 75h-369l-133 -621h268q90 0 137 48.5t62 160.5h28l-34 -475h-29q-3 111 -41 160t-117 49h-286l-109 -522q-15 -74 4.5 -105t83.5 -31h289q132 0 226.5 77.5t166.5 244.5h29l-133 -379h-1080l6 29q108 10 155.5 43
t64.5 108l63 301h-524l-217 -254q-44 -53 -63 -89t-14 -61t39.5 -36.5t100.5 -11.5l-6 -29h-440l6 29q72 0 147.5 52.5t171.5 164.5l955 1128q-30 35 -142 47l7 29h913q89 0 108 31zM549 539h489l156 731l6 41z" />
    <glyph glyph-name="Ccedilla" unicode="&#xc7;" horiz-adv-x="1406" 
d="M1413 1481l-29 -416h-28q-19 175 -117.5 266.5t-271.5 91.5q-202 0 -366 -171.5t-222 -448.5q-34 -150 -17.5 -281t68.5 -228t144 -152.5t208 -55.5q154 0 281.5 96t210.5 267l29 -9q-76 -217 -247.5 -344t-379.5 -129l-70 -86q72 -4 107.5 -45t23.5 -102
q-20 -99 -113.5 -142.5t-230.5 -15.5l4 21q84 -9 142.5 19t70.5 85q8 37 -21 65.5t-91 38.5l141 162q-128 7 -232.5 69.5t-167.5 165.5t-86.5 240.5t11.5 294.5q45 211 162.5 380t291.5 266.5t373 97.5q68 0 131.5 -15.5t99 -30.5t67.5 -23t53.5 7.5t41.5 61.5h29z" />
    <glyph glyph-name="Egrave" unicode="&#xc8;" horiz-adv-x="1265" 
d="M1151 379h29l-133 -379h-1080l6 29q108 10 155.5 43t64.5 108l231 1090q15 75 -17.5 108t-136.5 43l6 29h914q89 0 108 31h29l-22 -408h-29q-3 170 -66.5 245t-205.5 75h-369l-133 -621h268q90 0 137 48.5t62 160.5h28l-34 -475h-29q-3 111 -41.5 160t-116.5 49h-287
l-110 -522q-14 -75 5.5 -105.5t84.5 -30.5h289q132 0 226.5 77.5t166.5 244.5zM647 1917h205l63 -338h-28z" />
    <glyph glyph-name="Eacute" unicode="&#xc9;" horiz-adv-x="1265" 
d="M1151 379h29l-133 -379h-1080l6 29q108 10 155.5 43t64.5 108l231 1090q15 75 -17.5 108t-136.5 43l6 29h914q89 0 108 31h29l-22 -408h-29q-3 170 -66.5 245t-205.5 75h-369l-133 -621h268q90 0 137 48.5t62 160.5h28l-34 -475h-29q-3 111 -41.5 160t-116.5 49h-287
l-110 -522q-14 -75 5.5 -105.5t84.5 -30.5h289q132 0 226.5 77.5t166.5 244.5zM877 1581l208 338h203l-383 -338h-28z" />
    <glyph glyph-name="Ecircumflex" unicode="&#xca;" horiz-adv-x="1265" 
d="M1151 379h29l-133 -379h-1080l6 29q108 10 155.5 43t64.5 108l231 1090q15 75 -17.5 108t-136.5 43l6 29h914q89 0 108 31h29l-22 -408h-29q-3 170 -66.5 245t-205.5 75h-369l-133 -621h268q90 0 137 48.5t62 160.5h28l-34 -475h-29q-3 111 -41.5 160t-116.5 49h-287
l-110 -522q-14 -75 5.5 -105.5t84.5 -30.5h289q132 0 226.5 77.5t166.5 244.5zM606 1597l275 326h159l144 -326l-23 -14l-219 240l-317 -240z" />
    <glyph glyph-name="Edieresis" unicode="&#xcb;" horiz-adv-x="1265" 
d="M1151 379h29l-133 -379h-1080l6 29q108 10 155.5 43t64.5 108l231 1090q15 75 -17.5 108t-136.5 43l6 29h914q89 0 108 31h29l-22 -408h-29q-3 170 -66.5 245t-205.5 75h-369l-133 -621h268q90 0 137 48.5t62 160.5h28l-34 -475h-29q-3 111 -41.5 160t-116.5 49h-287
l-110 -522q-14 -75 5.5 -105.5t84.5 -30.5h289q132 0 226.5 77.5t166.5 244.5zM629 1751q6 48 43.5 81.5t89.5 33.5q49 0 78.5 -33.5t23.5 -81.5q-6 -50 -44 -83.5t-87 -33.5q-51 0 -80.5 33.5t-23.5 83.5zM987 1751q6 48 44.5 81.5t90.5 33.5q49 0 79 -33.5t24 -81.5
q-6 -50 -44 -83.5t-87 -33.5q-52 0 -82.5 33.5t-24.5 83.5z" />
    <glyph glyph-name="Igrave" unicode="&#xcc;" horiz-adv-x="710" 
d="M377 180q-17 -75 16 -108t137 -43l-6 -29h-557l6 29q108 10 155.5 43t64.5 108l231 1090q15 75 -17.5 108t-136.5 43l6 29h558l-7 -29q-108 -10 -155 -43t-64 -108zM342 1917h205l63 -338h-28z" />
    <glyph glyph-name="Iacute" unicode="&#xcd;" horiz-adv-x="710" 
d="M377 180q-17 -75 16 -108t137 -43l-6 -29h-557l6 29q108 10 155.5 43t64.5 108l231 1090q15 75 -17.5 108t-136.5 43l6 29h558l-7 -29q-108 -10 -155 -43t-64 -108zM571 1581l209 338h203l-383 -338h-29z" />
    <glyph glyph-name="Icircumflex" unicode="&#xce;" horiz-adv-x="710" 
d="M377 180q-17 -75 16 -108t137 -43l-6 -29h-557l6 29q108 10 155.5 43t64.5 108l231 1090q15 75 -17.5 108t-136.5 43l6 29h558l-7 -29q-108 -10 -155 -43t-64 -108zM301 1597l274 326h160l144 -326l-23 -14l-219 240l-318 -240z" />
    <glyph glyph-name="Idieresis" unicode="&#xcf;" horiz-adv-x="710" 
d="M377 180q-17 -75 16 -108t137 -43l-6 -29h-557l6 29q108 10 155.5 43t64.5 108l231 1090q15 75 -17.5 108t-136.5 43l6 29h558l-7 -29q-108 -10 -155 -43t-64 -108zM324 1751q6 48 43.5 81.5t89.5 33.5q49 0 78.5 -33.5t23.5 -81.5q-6 -50 -44 -83.5t-87 -33.5
q-51 0 -80.5 33.5t-23.5 83.5zM682 1751q6 48 44.5 81.5t90.5 33.5q49 0 79 -33.5t24 -81.5q-6 -49 -44 -83t-88 -34q-52 0 -82 33.5t-24 83.5z" />
    <glyph glyph-name="Eth" unicode="&#xd0;" horiz-adv-x="1527" 
d="M864 1450q344 0 503.5 -195t84.5 -550q-33 -153 -108.5 -282.5t-184 -223t-253 -146.5t-308.5 -53h-631l6 29q108 10 155.5 43t64.5 108l108 514h-215l12 58h215l111 518q15 75 -17.5 108t-136.5 43l6 29h588zM381 195q-15 -72 9.5 -105t96.5 -33h111q233 0 413 184
t244 478q66 313 -54 493.5t-384 180.5h-182l-135 -641h239l-12 -58h-240z" />
    <glyph glyph-name="Ntilde" unicode="&#xd1;" horiz-adv-x="1509" 
d="M1198 1421l6 29h428l-6 -29q-108 -10 -155 -43t-64 -108l-270 -1270h-47l-617 1239l-223 -1059q-17 -75 15 -108t134 -43l-6 -29h-426l6 29q108 10 155.5 43t64.5 108l231 1092q15 77 -17.5 110t-134.5 39l7 29h294l568 -1165l209 985q17 75 -15.5 108t-136.5 43z
M700 1602q55 245 201 245q41 0 89.5 -29.5t95 -59t81.5 -29.5q83 0 125 129l29 -5q-24 -115 -74 -179t-125 -64q-46 0 -138 58t-130 58q-84 0 -125 -129z" />
    <glyph glyph-name="Ograve" unicode="&#xd2;" horiz-adv-x="1607" 
d="M733 -31q-122 0 -225.5 36.5t-177 103.5t-121 161t-58 209t12.5 248q40 213 156.5 385.5t285.5 270.5t357 98q122 0 225.5 -36.5t177.5 -103.5t122 -161t58.5 -209t-12.5 -248q-39 -213 -156.5 -385.5t-287 -270.5t-357.5 -98zM373 743q-34 -198 0.5 -362t133 -260.5
t243.5 -93.5q133 3 252 91t203 241t118 346q34 198 -0.5 362t-133 261t-243.5 95q-204 -3 -363 -193t-210 -487zM780 1917h205l64 -338h-29z" />
    <glyph glyph-name="Oacute" unicode="&#xd3;" horiz-adv-x="1607" 
d="M733 -31q-122 0 -225.5 36.5t-177 103.5t-121 161t-58 209t12.5 248q40 213 156.5 385.5t285.5 270.5t357 98q122 0 225.5 -36.5t177.5 -103.5t122 -161t58.5 -209t-12.5 -248q-39 -213 -156.5 -385.5t-287 -270.5t-357.5 -98zM373 743q-34 -198 0.5 -362t133 -260.5
t243.5 -93.5q133 3 252 91t203 241t118 346q34 198 -0.5 362t-133 261t-243.5 95q-204 -3 -363 -193t-210 -487zM1012 1581l209 338h202l-383 -338h-28z" />
    <glyph glyph-name="Ocircumflex" unicode="&#xd4;" horiz-adv-x="1607" 
d="M733 -31q-122 0 -225.5 36.5t-177 103.5t-121 161t-58 209t12.5 248q40 213 156.5 385.5t285.5 270.5t357 98q122 0 225.5 -36.5t177.5 -103.5t122 -161t58.5 -209t-12.5 -248q-39 -213 -156.5 -385.5t-287 -270.5t-357.5 -98zM373 743q-34 -198 0.5 -362t133 -260.5
t243.5 -93.5q133 3 252 91t203 241t118 346q34 198 -0.5 362t-133 261t-243.5 95q-204 -3 -363 -193t-210 -487zM741 1597l275 326h160l143 -326l-23 -14l-219 240l-317 -240z" />
    <glyph glyph-name="Otilde" unicode="&#xd5;" horiz-adv-x="1607" 
d="M733 -31q-122 0 -225.5 36.5t-177 103.5t-121 161t-58 209t12.5 248q40 213 156.5 385.5t285.5 270.5t357 98q122 0 225.5 -36.5t177.5 -103.5t122 -161t58.5 -209t-12.5 -248q-39 -213 -156.5 -385.5t-287 -270.5t-357.5 -98zM373 743q-34 -198 0.5 -362t133 -260.5
t243.5 -93.5q133 3 252 91t203 241t118 346q34 198 -0.5 362t-133 261t-243.5 95q-204 -3 -363 -193t-210 -487zM741 1602q55 245 201 245q41 0 89.5 -29.5t94.5 -59t82 -29.5q83 0 125 129l29 -5q-24 -115 -74 -179t-125 -64q-38 0 -88.5 29t-99 58t-80.5 29
q-84 0 -125 -129z" />
    <glyph glyph-name="Odieresis" unicode="&#xd6;" horiz-adv-x="1607" 
d="M733 -31q-122 0 -225.5 36.5t-177 103.5t-121 161t-58 209t12.5 248q40 213 156.5 385.5t285.5 270.5t357 98q122 0 225.5 -36.5t177.5 -103.5t122 -161t58.5 -209t-12.5 -248q-39 -213 -156.5 -385.5t-287 -270.5t-357.5 -98zM373 743q-34 -198 0.5 -362t133 -260.5
t243.5 -93.5q133 3 252 91t203 241t118 346q34 198 -0.5 362t-133 261t-243.5 95q-204 -3 -363 -193t-210 -487zM764 1751q6 48 43.5 81.5t89.5 33.5q49 0 78.5 -33.5t23.5 -81.5q-6 -50 -44 -83.5t-87 -33.5q-51 0 -80.5 33.5t-23.5 83.5zM1122 1751q6 48 44.5 81.5
t90.5 33.5q49 0 79 -33.5t24 -81.5q-6 -50 -44 -83.5t-87 -33.5q-52 0 -82.5 33.5t-24.5 83.5z" />
    <glyph glyph-name="multiply" unicode="&#xd7;" horiz-adv-x="1075" 
d="M182 289l-37 41l377 311l-246 309l43 35l244 -311l383 315l37 -41l-385 -317l240 -307l-39 -33l-242 305z" />
    <glyph glyph-name="Oslash" unicode="&#xd8;" horiz-adv-x="1607" 
d="M733 -31q-148 0 -266.5 53t-196.5 150l-227 -205l-35 35l234 211q-136 208 -78 514q40 213 156.5 385.5t285.5 270.5t357 98q149 0 267.5 -53.5t196.5 -151.5l228 205l33 -35l-232 -209q136 -208 78 -514q-39 -213 -156.5 -385.5t-287 -270.5t-357.5 -98zM373 743
q-38 -228 12 -403l911 819q-47 125 -137 195t-213 69q-204 -3 -363 -193t-210 -487zM401 289q45 -125 135.5 -195t213.5 -67q133 3 252 91t203 241t118 346q38 228 -12 403z" />
    <glyph glyph-name="Ugrave" unicode="&#xd9;" horiz-adv-x="1495" 
d="M1219 1421l6 29h428l-6 -29q-107 -11 -155 -43.5t-65 -107.5l-159 -760q-54 -247 -210.5 -394t-365.5 -147q-274 0 -397 143t-68 398l160 760q17 75 -16.5 107.5t-137.5 43.5l7 29h557l-6 -29q-107 -11 -155 -43.5t-65 -107.5l-159 -760q-46 -214 39 -343.5t270 -129.5
q181 0 312 128.5t177 344.5l160 760q17 75 -15.5 107.5t-135.5 43.5zM758 1917h205l63 -338h-29z" />
    <glyph glyph-name="Uacute" unicode="&#xda;" horiz-adv-x="1495" 
d="M1219 1421l6 29h428l-6 -29q-107 -11 -155 -43.5t-65 -107.5l-159 -760q-54 -247 -210.5 -394t-365.5 -147q-274 0 -397 143t-68 398l160 760q17 75 -16.5 107.5t-137.5 43.5l7 29h557l-6 -29q-107 -11 -155 -43.5t-65 -107.5l-159 -760q-46 -214 39 -343.5t270 -129.5
q181 0 312 128.5t177 344.5l160 760q17 75 -15.5 107.5t-135.5 43.5zM987 1581l209 338h203l-383 -338h-29z" />
    <glyph glyph-name="Ucircumflex" unicode="&#xdb;" horiz-adv-x="1495" 
d="M1219 1421l6 29h428l-6 -29q-107 -11 -155 -43.5t-65 -107.5l-159 -760q-54 -247 -210.5 -394t-365.5 -147q-274 0 -397 143t-68 398l160 760q17 75 -16.5 107.5t-137.5 43.5l7 29h557l-6 -29q-107 -11 -155 -43.5t-65 -107.5l-159 -760q-46 -214 39 -343.5t270 -129.5
q181 0 312 128.5t177 344.5l160 760q17 75 -15.5 107.5t-135.5 43.5zM719 1597l274 326h160l143 -326l-22 -14l-219 240l-318 -240z" />
    <glyph glyph-name="Udieresis" unicode="&#xdc;" horiz-adv-x="1495" 
d="M1219 1421l6 29h428l-6 -29q-107 -11 -155 -43.5t-65 -107.5l-159 -760q-54 -247 -210.5 -394t-365.5 -147q-274 0 -397 143t-68 398l160 760q17 75 -16.5 107.5t-137.5 43.5l7 29h557l-6 -29q-107 -11 -155 -43.5t-65 -107.5l-159 -760q-46 -214 39 -343.5t270 -129.5
q181 0 312 128.5t177 344.5l160 760q17 75 -15.5 107.5t-135.5 43.5zM739 1751q6 48 43.5 81.5t89.5 33.5q49 0 79 -33.5t24 -81.5q-6 -50 -44 -83.5t-87 -33.5q-51 0 -81 33.5t-24 83.5zM1098 1751q6 48 44.5 81.5t90.5 33.5q49 0 78.5 -33.5t23.5 -81.5q-6 -50 -44 -83.5
t-87 -33.5q-52 0 -82 33.5t-24 83.5z" />
    <glyph glyph-name="Yacute" unicode="&#xdd;" horiz-adv-x="1390" 
d="M1139 1450h438l-6 -29q-104 -10 -164 -45t-115 -110l-465 -643l-90 -428q-19 -88 12.5 -122t135.5 -42l-6 -31h-553l6 31q109 8 155.5 42t65.5 122l84 403l-234 662q-20 56 -37.5 84.5t-56.5 49t-106 27.5l6 29h563l-6 -29q-109 -11 -153 -47.5t-21 -103.5l207 -598
l430 598q51 67 29 104t-125 47zM932 1581l209 338h202l-382 -338h-29z" />
    <glyph glyph-name="Thorn" unicode="&#xde;" horiz-adv-x="1310" 
d="M756 1133q167 0 285 -50t170.5 -147t25.5 -229q-37 -174 -202 -281t-410 -107h-219l-27 -135q-19 -87 14 -115.5t137 -39.5l-6 -29h-557l6 29q109 11 155.5 41t64.5 114l229 1082q18 85 -14 114.5t-138 40.5l6 29h558l-7 -29q-55 -6 -87 -13t-61.5 -23.5t-46 -44.5
t-26.5 -74l-26 -133h176zM418 377h186q169 0 285.5 95.5t148.5 240.5q34 161 -57 261.5t-270 100.5h-144z" />
    <glyph glyph-name="germandbls" unicode="&#xdf;" horiz-adv-x="1247" 
d="M145 969l13 57h172l16 72q27 121 108 213t195.5 140t243.5 48q198 0 302.5 -73t76.5 -207q-14 -68 -49 -118t-80 -78.5t-97 -49t-102.5 -36.5t-93.5 -33.5t-73.5 -47t-39.5 -70.5q-9 -45 12.5 -80.5t63 -58.5t93 -49.5t101.5 -53t88.5 -68t54.5 -96t-1 -136.5
q-28 -123 -129.5 -199t-247.5 -76q-126 0 -211 70.5t-108 193.5l41 17q21 -100 96.5 -159.5t175.5 -59.5q91 0 157 49.5t83 128.5q12 56 -8 99t-60.5 70t-91.5 50.5t-102 48.5t-91 55t-58.5 78.5t-4.5 112.5q12 59 44.5 103t74.5 70.5t91 48l98 43t91.5 48t75 70.5t45.5 104
q23 110 -41 176t-192 64q-130 0 -227.5 -86t-127.5 -234l-239 -1130h-320l6 29q76 12 119 37.5t57 87.5l172 815h-172z" />
    <glyph glyph-name="agrave" unicode="&#xe0;" 
d="M291 -31q-124 0 -194 84.5t-44 210.5q62 282 490 324l178 18l18 92q30 137 -16.5 219t-157.5 82q-118 0 -178.5 -60.5t-58.5 -143.5q6 -112 -80 -131q-43 -9 -70.5 21.5t-15.5 86.5q10 46 41 93.5t82 91.5t132 72t177 28q178 0 263 -100.5t50 -268.5l-114 -543
q-7 -38 4.5 -60t38.5 -22q45 0 96 68l22 -10q-37 -59 -80 -95t-72.5 -46.5t-56.5 -10.5q-59 0 -96 41t-28 113l20 100q-147 -254 -350 -254zM233 285q-17 -86 26.5 -142.5t123.5 -56.5q138 0 266 188l60 275l-164 -21q-264 -29 -312 -243zM367 1493h204l64 -338h-29z" />
    <glyph glyph-name="aacute" unicode="&#xe1;" 
d="M291 -31q-124 0 -194 84.5t-44 210.5q62 282 490 324l178 18l18 92q30 137 -16.5 219t-157.5 82q-118 0 -178.5 -60.5t-58.5 -143.5q6 -112 -80 -131q-43 -9 -70.5 21.5t-15.5 86.5q10 46 41 93.5t82 91.5t132 72t177 28q178 0 263 -100.5t50 -268.5l-114 -543
q-7 -38 4.5 -60t38.5 -22q45 0 96 68l22 -10q-37 -59 -80 -95t-72.5 -46.5t-56.5 -10.5q-59 0 -96 41t-28 113l20 100q-147 -254 -350 -254zM233 285q-17 -86 26.5 -142.5t123.5 -56.5q138 0 266 188l60 275l-164 -21q-264 -29 -312 -243zM596 1157l209 338h203l-383 -338
h-29z" />
    <glyph glyph-name="acircumflex" unicode="&#xe2;" 
d="M291 -31q-124 0 -194 84.5t-44 210.5q62 282 490 324l178 18l18 92q30 137 -16.5 219t-157.5 82q-118 0 -178.5 -60.5t-58.5 -143.5q6 -112 -80 -131q-43 -9 -70.5 21.5t-15.5 86.5q10 46 41 93.5t82 91.5t132 72t177 28q178 0 263 -100.5t50 -268.5l-114 -543
q-7 -38 4.5 -60t38.5 -22q45 0 96 68l22 -10q-37 -59 -80 -95t-72.5 -46.5t-56.5 -10.5q-59 0 -96 41t-28 113l20 100q-147 -254 -350 -254zM233 285q-17 -86 26.5 -142.5t123.5 -56.5q138 0 266 188l60 275l-164 -21q-264 -29 -312 -243zM326 1174l274 325h160l143 -325
l-22 -15l-219 240l-318 -240z" />
    <glyph glyph-name="atilde" unicode="&#xe3;" 
d="M291 -31q-124 0 -194 84.5t-44 210.5q62 282 490 324l178 18l18 92q30 137 -16.5 219t-157.5 82q-118 0 -178.5 -60.5t-58.5 -143.5q6 -112 -80 -131q-43 -9 -70.5 21.5t-15.5 86.5q10 46 41 93.5t82 91.5t132 72t177 28q178 0 263 -100.5t50 -268.5l-114 -543
q-7 -38 4.5 -60t38.5 -22q45 0 96 68l22 -10q-37 -59 -80 -95t-72.5 -46.5t-56.5 -10.5q-59 0 -96 41t-28 113l20 100q-147 -254 -350 -254zM233 285q-17 -86 26.5 -142.5t123.5 -56.5q138 0 266 188l60 275l-164 -21q-264 -29 -312 -243zM326 1178q55 245 200 245
q33 0 71 -18.5t67 -40.5t64.5 -40.5t64.5 -18.5q83 0 125 129l28 -4q-51 -244 -198 -244q-30 0 -69 18.5t-70 40t-67.5 40t-62.5 18.5q-84 0 -125 -129z" />
    <glyph glyph-name="adieresis" unicode="&#xe4;" 
d="M291 -31q-124 0 -194 84.5t-44 210.5q62 282 490 324l178 18l18 92q30 137 -16.5 219t-157.5 82q-118 0 -178.5 -60.5t-58.5 -143.5q6 -112 -80 -131q-43 -9 -70.5 21.5t-15.5 86.5q10 46 41 93.5t82 91.5t132 72t177 28q178 0 263 -100.5t50 -268.5l-114 -543
q-7 -38 4.5 -60t38.5 -22q45 0 96 68l22 -10q-37 -59 -80 -95t-72.5 -46.5t-56.5 -10.5q-59 0 -96 41t-28 113l20 100q-147 -254 -350 -254zM233 285q-17 -86 26.5 -142.5t123.5 -56.5q138 0 266 188l60 275l-164 -21q-264 -29 -312 -243zM348 1327q6 48 43.5 81.5
t89.5 33.5q49 0 79 -33.5t24 -81.5q-6 -50 -44 -83.5t-87 -33.5q-51 0 -81 33.5t-24 83.5zM707 1327q6 48 44.5 81.5t90.5 33.5q49 0 78.5 -33.5t23.5 -81.5q-6 -50 -44 -83.5t-87 -33.5q-52 0 -82 33.5t-24 83.5z" />
    <glyph glyph-name="aring" unicode="&#xe5;" 
d="M291 -31q-124 0 -194 84.5t-44 210.5q62 282 490 324l178 18l18 92q30 137 -16.5 219t-157.5 82q-118 0 -178.5 -60.5t-58.5 -143.5q6 -112 -80 -131q-43 -9 -70.5 21.5t-15.5 86.5q10 46 41 93.5t82 91.5t132 72t177 28q178 0 263 -100.5t50 -268.5l-114 -543
q-7 -38 4.5 -60t38.5 -22q45 0 96 68l22 -10q-37 -59 -80 -95t-72.5 -46.5t-56.5 -10.5q-59 0 -96 41t-28 113l20 100q-147 -254 -350 -254zM233 285q-17 -86 26.5 -142.5t123.5 -56.5q138 0 266 188l60 275l-164 -21q-264 -29 -312 -243zM444 1325q10 82 74 135t150 53
t136.5 -53t41.5 -135q-12 -82 -75 -135t-148 -53q-88 0 -138.5 53t-40.5 135zM522 1327q-7 -55 21.5 -91t81.5 -36q54 0 94 35.5t49 91.5q8 54 -21 89.5t-83 35.5q-52 0 -92.5 -35.5t-49.5 -89.5z" />
    <glyph glyph-name="ae" unicode="&#xe6;" horiz-adv-x="1640" 
d="M1083 -29q-149 0 -249.5 84.5t-131.5 227.5q-79 -151 -182.5 -232.5t-222.5 -81.5q-125 0 -197.5 84.5t-46.5 210.5q62 282 490 324l174 18q2 5 5 15.5t5 15.5l12 61q30 137 -16.5 219t-157.5 82q-118 0 -178.5 -60.5t-58.5 -143.5q6 -111 -82 -131q-43 -9 -69.5 21.5
t-14.5 86.5q10 46 41 93.5t82 91.5t132 72t177 28q113 0 189.5 -42t109.5 -118q167 160 383 160q192 0 270 -122t19 -317h-670l-4 -16q-24 -107 -14.5 -199t43.5 -160t99 -106.5t152 -38.5q88 0 172.5 56.5t131.5 148.5l26 -6q-57 -152 -164.5 -239t-253.5 -87zM233 285
q-17 -86 26.5 -142.5t123.5 -56.5q88 0 171.5 67.5t139.5 176.5q-14 93 8 219l-157 -21q-264 -29 -312 -243zM907 666h498q36 136 -7 234.5t-149 98.5q-121 0 -210 -90.5t-132 -242.5z" />
    <glyph glyph-name="ccedilla" unicode="&#xe7;" horiz-adv-x="1011" 
d="M936 719q-42 280 -272 280q-135 0 -247.5 -117t-150.5 -300q-23 -97 -12 -184.5t45.5 -154t101.5 -106t156 -39.5q96 0 184 58t142 159l24 -6q-61 -156 -173.5 -247t-264.5 -91h-23l-73 -90q72 -4 107.5 -45t23.5 -102q-20 -99 -113.5 -142.5t-230.5 -15.5l4 21
q84 -9 142.5 19t70.5 85q8 37 -21.5 65.5t-91.5 38.5l148 170q-189 22 -283 182t-43 406q20 97 75 187.5t130 158t171 108t193 40.5q65 0 120 -13.5t81 -27t48 -19.5t34 6.5t25 53.5h26l-24 -338h-29z" />
    <glyph glyph-name="egrave" unicode="&#xe8;" horiz-adv-x="1019" 
d="M463 -29q-143 0 -241.5 76.5t-135 212t-0.5 303.5q29 134 108.5 245.5t201.5 180t259 68.5q192 0 271 -122t20 -317h-672l-4 -16q-24 -107 -14.5 -199t43.5 -160t99.5 -106.5t152.5 -38.5q88 0 173 56.5t132 148.5l27 -6q-59 -152 -166 -239t-254 -87zM287 666h499
q36 136 -7.5 234.5t-149.5 98.5q-120 0 -209 -90t-133 -243zM434 1495h205l63 -338h-28z" />
    <glyph glyph-name="eacute" unicode="&#xe9;" horiz-adv-x="1019" 
d="M463 -29q-143 0 -241.5 76.5t-135 212t-0.5 303.5q29 134 108.5 245.5t201.5 180t259 68.5q192 0 271 -122t20 -317h-672l-4 -16q-24 -107 -14.5 -199t43.5 -160t99.5 -106.5t152.5 -38.5q88 0 173 56.5t132 148.5l27 -6q-59 -152 -166 -239t-254 -87zM287 666h499
q36 136 -7.5 234.5t-149.5 98.5q-120 0 -209 -90t-133 -243zM664 1159l208 338h203l-383 -338h-28z" />
    <glyph glyph-name="ecircumflex" unicode="&#xea;" horiz-adv-x="1019" 
d="M463 -29q-143 0 -241.5 76.5t-135 212t-0.5 303.5q29 134 108.5 245.5t201.5 180t259 68.5q192 0 271 -122t20 -317h-672l-4 -16q-24 -107 -14.5 -199t43.5 -160t99.5 -106.5t152.5 -38.5q88 0 173 56.5t132 148.5l27 -6q-59 -152 -166 -239t-254 -87zM287 666h499
q36 136 -7.5 234.5t-149.5 98.5q-120 0 -209 -90t-133 -243zM395 1176l275 325h159l144 -325l-23 -15l-219 240l-317 -240z" />
    <glyph glyph-name="edieresis" unicode="&#xeb;" horiz-adv-x="1019" 
d="M463 -29q-143 0 -241.5 76.5t-135 212t-0.5 303.5q29 134 108.5 245.5t201.5 180t259 68.5q192 0 271 -122t20 -317h-672l-4 -16q-24 -107 -14.5 -199t43.5 -160t99.5 -106.5t152.5 -38.5q88 0 173 56.5t132 148.5l27 -6q-59 -152 -166 -239t-254 -87zM287 666h499
q36 136 -7.5 234.5t-149.5 98.5q-120 0 -209 -90t-133 -243zM416 1329q6 48 43.5 81.5t89.5 33.5q49 0 78.5 -33.5t23.5 -81.5q-6 -50 -44 -83.5t-87 -33.5q-51 0 -80.5 33.5t-23.5 83.5zM774 1329q6 48 44.5 81.5t90.5 33.5q49 0 79 -33.5t24 -81.5q-6 -50 -44 -83.5
t-87 -33.5q-52 0 -82.5 33.5t-24.5 83.5z" />
    <glyph glyph-name="igrave" unicode="&#xec;" horiz-adv-x="571" 
d="M291 160q-12 -63 12.5 -92t102.5 -39l-7 -29h-454l6 29q83 10 120.5 39t51.5 92l139 659q17 81 -10 104t-109 9l7 29l305 96h28zM174 1493h205l63 -338h-28z" />
    <glyph glyph-name="iacute" unicode="&#xed;" horiz-adv-x="571" 
d="M291 160q-12 -63 12.5 -92t102.5 -39l-7 -29h-454l6 29q83 10 120.5 39t51.5 92l139 659q17 81 -10 104t-109 9l7 29l305 96h28zM406 1157l208 338h203l-383 -338h-28z" />
    <glyph glyph-name="icircumflex" unicode="&#xee;" horiz-adv-x="571" 
d="M291 160q-12 -63 12.5 -92t102.5 -39l-7 -29h-454l6 29q83 10 120.5 39t51.5 92l139 659q17 81 -10 104t-109 9l7 29l305 96h28zM135 1174l275 325h159l144 -325l-23 -15l-219 240l-317 -240z" />
    <glyph glyph-name="idieresis" unicode="&#xef;" horiz-adv-x="571" 
d="M291 160q-12 -63 12.5 -92t102.5 -39l-7 -29h-454l6 29q83 10 120.5 39t51.5 92l139 659q17 81 -10 104t-109 9l7 29l305 96h28zM156 1327q6 48 43.5 81.5t89.5 33.5q49 0 78.5 -33.5t23.5 -81.5q-6 -50 -44 -83.5t-87 -33.5q-51 0 -80.5 33.5t-23.5 83.5zM514 1327
q6 48 44.5 81.5t90.5 33.5q49 0 79 -33.5t24 -81.5q-6 -50 -44 -83.5t-87 -33.5q-52 0 -82.5 33.5t-24.5 83.5z" />
    <glyph glyph-name="eth" unicode="&#xf0;" horiz-adv-x="1118" 
d="M465 -31q-205 0 -317.5 151.5t-73.5 383.5q42 235 204 394t367 159q88 0 163 -55.5t107 -145.5q-21 259 -186 424l-289 -147l-16 45l268 135q-83 71 -200 119l8 26q152 -30 270 -104l260 131l12 -45l-229 -117q161 -124 222.5 -330.5t8.5 -472.5q-46 -240 -207 -395.5
t-372 -155.5zM274 616q-24 -111 -17 -216.5t34 -188.5t83 -133.5t130 -50.5q121 0 215 106.5t125 274.5q23 111 16 217t-33.5 189t-83 134t-131.5 51q-119 0 -213 -107.5t-125 -275.5z" />
    <glyph glyph-name="ntilde" unicode="&#xf1;" horiz-adv-x="1200" 
d="M-49 29q83 10 120.5 39t51.5 92l139 659q17 81 -10 104t-109 9l7 29l305 96h28l-51 -240q120 128 208.5 184t182.5 56q139 0 204 -93.5t34 -246.5l-119 -557q-12 -63 12.5 -92t102.5 -39l-6 -29h-455l6 29q83 11 120.5 39.5t49.5 91.5l115 538q24 111 -20 174.5
t-142 63.5q-73 0 -139.5 -40t-165.5 -130l-129 -606q-12 -63 12.5 -92t102.5 -39l-7 -29h-454zM463 1178q55 245 201 245q41 0 89.5 -29.5t94.5 -59t82 -29.5q83 0 125 129l28 -4q-51 -244 -198 -244q-46 0 -138.5 58.5t-130.5 58.5q-83 0 -124 -129z" />
    <glyph glyph-name="ograve" unicode="&#xf2;" horiz-adv-x="1116" 
d="M471 -31q-101 0 -183.5 39.5t-135.5 112.5t-74.5 175.5t0.5 227.5q40 227 199.5 380t367.5 153q207 0 321.5 -154.5t71.5 -400.5q-40 -227 -199.5 -380t-367.5 -153zM266 575q-15 -76 -15.5 -154t15 -148.5t45 -125.5t77.5 -87.5t108 -32.5q122 0 218.5 113t135.5 309
q22 95 14.5 193t-33 177.5t-81 129.5t-129.5 50q-121 0 -217.5 -114t-137.5 -310zM453 1493h204l64 -338h-29z" />
    <glyph glyph-name="oacute" unicode="&#xf3;" horiz-adv-x="1116" 
d="M471 -31q-101 0 -183.5 39.5t-135.5 112.5t-74.5 175.5t0.5 227.5q40 227 199.5 380t367.5 153q207 0 321.5 -154.5t71.5 -400.5q-40 -227 -199.5 -380t-367.5 -153zM266 575q-15 -76 -15.5 -154t15 -148.5t45 -125.5t77.5 -87.5t108 -32.5q122 0 218.5 113t135.5 309
q22 95 14.5 193t-33 177.5t-81 129.5t-129.5 50q-121 0 -217.5 -114t-137.5 -310zM682 1157l209 338h203l-383 -338h-29z" />
    <glyph glyph-name="ocircumflex" unicode="&#xf4;" horiz-adv-x="1116" 
d="M471 -31q-101 0 -183.5 39.5t-135.5 112.5t-74.5 175.5t0.5 227.5q40 227 199.5 380t367.5 153q207 0 321.5 -154.5t71.5 -400.5q-40 -227 -199.5 -380t-367.5 -153zM266 575q-15 -76 -15.5 -154t15 -148.5t45 -125.5t77.5 -87.5t108 -32.5q122 0 218.5 113t135.5 309
q22 95 14.5 193t-33 177.5t-81 129.5t-129.5 50q-121 0 -217.5 -114t-137.5 -310zM412 1174l274 325h160l143 -325l-22 -15l-219 240l-318 -240z" />
    <glyph glyph-name="otilde" unicode="&#xf5;" horiz-adv-x="1116" 
d="M471 -31q-101 0 -183.5 39.5t-135.5 112.5t-74.5 175.5t0.5 227.5q40 227 199.5 380t367.5 153q207 0 321.5 -154.5t71.5 -400.5q-40 -227 -199.5 -380t-367.5 -153zM266 575q-15 -76 -15.5 -154t15 -148.5t45 -125.5t77.5 -87.5t108 -32.5q122 0 218.5 113t135.5 309
q22 95 14.5 193t-33 177.5t-81 129.5t-129.5 50q-121 0 -217.5 -114t-137.5 -310zM414 1178q55 245 200 245q41 0 90 -29.5t95 -59t82 -29.5q83 0 125 129l28 -4q-51 -244 -198 -244q-30 0 -69 18.5t-70 40t-67.5 40t-62.5 18.5q-84 0 -125 -129z" />
    <glyph glyph-name="odieresis" unicode="&#xf6;" horiz-adv-x="1116" 
d="M471 -31q-101 0 -183.5 39.5t-135.5 112.5t-74.5 175.5t0.5 227.5q40 227 199.5 380t367.5 153q207 0 321.5 -154.5t71.5 -400.5q-40 -227 -199.5 -380t-367.5 -153zM266 575q-15 -76 -15.5 -154t15 -148.5t45 -125.5t77.5 -87.5t108 -32.5q122 0 218.5 113t135.5 309
q22 95 14.5 193t-33 177.5t-81 129.5t-129.5 50q-121 0 -217.5 -114t-137.5 -310zM434 1327q6 48 43.5 81.5t89.5 33.5q49 0 79 -33.5t24 -81.5q-6 -50 -44 -83.5t-87 -33.5q-51 0 -81 33.5t-24 83.5zM793 1327q6 48 44.5 81.5t90.5 33.5q49 0 78.5 -33.5t23.5 -81.5
q-6 -50 -44 -83.5t-87 -33.5q-52 0 -82 33.5t-24 83.5z" />
    <glyph glyph-name="divide" unicode="&#xf7;" horiz-adv-x="1228" 
d="M209 610l10 54h860l-10 -54h-860zM465 299q3 44 37.5 75.5t79.5 31.5q46 0 74.5 -31.5t23.5 -75.5q-6 -46 -40.5 -77.5t-80.5 -31.5q-45 0 -72.5 32t-21.5 77zM604 977q4 44 39.5 75t79.5 31q45 0 73 -30.5t25 -75.5q-6 -46 -41.5 -77.5t-79.5 -31.5q-45 0 -73.5 32
t-22.5 77z" />
    <glyph glyph-name="oslash" unicode="&#xf8;" horiz-adv-x="1118" 
d="M-35 0l166 152q-92 155 -53 372q40 227 199.5 380t367.5 153q200 0 313 -144l160 146l33 -33l-166 -152q93 -153 53 -372q-40 -227 -199.5 -380t-367.5 -153q-97 0 -177.5 38t-135.5 108l-160 -146zM264 274l574 527q-29 92 -83.5 145t-133.5 53q-121 0 -217.5 -114
t-137.5 -310q-30 -152 -2 -301zM279 225q28 -91 82.5 -144.5t134.5 -53.5q122 0 218.5 113t135.5 309q31 156 0 303z" />
    <glyph glyph-name="ugrave" unicode="&#xf9;" horiz-adv-x="1206" 
d="M379 -31q-141 0 -206 95t-32 245l107 510q17 81 -10 104t-109 9l6 29l305 96h29l-156 -727q-24 -112 20.5 -176t141.5 -64q71 0 138.5 40t164.5 128l119 561q18 81 -9 104t-108 9l6 29l304 96h28l-192 -912q-9 -38 3 -60t40 -22q42 0 96 68l22 -10q-55 -85 -110.5 -118.5
t-99.5 -33.5q-59 0 -96.5 42t-28.5 116l18 82q-119 -126 -209 -183t-182 -57zM498 1493h204l64 -338h-29z" />
    <glyph glyph-name="uacute" unicode="&#xfa;" horiz-adv-x="1206" 
d="M379 -31q-141 0 -206 95t-32 245l107 510q17 81 -10 104t-109 9l6 29l305 96h29l-156 -727q-24 -112 20.5 -176t141.5 -64q71 0 138.5 40t164.5 128l119 561q18 81 -9 104t-108 9l6 29l304 96h28l-192 -912q-9 -38 3 -60t40 -22q42 0 96 68l22 -10q-55 -85 -110.5 -118.5
t-99.5 -33.5q-59 0 -96.5 42t-28.5 116l18 82q-119 -126 -209 -183t-182 -57zM727 1157l209 338h203l-383 -338h-29z" />
    <glyph glyph-name="ucircumflex" unicode="&#xfb;" horiz-adv-x="1206" 
d="M379 -31q-141 0 -206 95t-32 245l107 510q17 81 -10 104t-109 9l6 29l305 96h29l-156 -727q-24 -112 20.5 -176t141.5 -64q71 0 138.5 40t164.5 128l119 561q18 81 -9 104t-108 9l6 29l304 96h28l-192 -912q-9 -38 3 -60t40 -22q42 0 96 68l22 -10q-55 -85 -110.5 -118.5
t-99.5 -33.5q-59 0 -96.5 42t-28.5 116l18 82q-119 -126 -209 -183t-182 -57zM457 1174l274 325h160l143 -325l-22 -15l-219 240l-318 -240z" />
    <glyph glyph-name="udieresis" unicode="&#xfc;" horiz-adv-x="1206" 
d="M379 -31q-141 0 -206 95t-32 245l107 510q17 81 -10 104t-109 9l6 29l305 96h29l-156 -727q-24 -112 20.5 -176t141.5 -64q71 0 138.5 40t164.5 128l119 561q18 81 -9 104t-108 9l6 29l304 96h28l-192 -912q-9 -38 3 -60t40 -22q42 0 96 68l22 -10q-55 -85 -110.5 -118.5
t-99.5 -33.5q-59 0 -96.5 42t-28.5 116l18 82q-119 -126 -209 -183t-182 -57zM479 1327q6 48 43.5 81.5t89.5 33.5q49 0 79 -33.5t24 -81.5q-6 -50 -44 -83.5t-87 -33.5q-51 0 -81 33.5t-24 83.5zM838 1327q6 48 44.5 81.5t90.5 33.5q49 0 78.5 -33.5t23.5 -81.5
q-6 -50 -44 -83.5t-87 -33.5q-52 0 -82 33.5t-24 83.5z" />
    <glyph glyph-name="yacute" unicode="&#xfd;" horiz-adv-x="1085" 
d="M-6 -434q-74 0 -123 33t-37 86q8 39 39 65.5t72 26.5q26 0 81 -34t101 -34q61 0 117.5 46.5t115.5 144.5l56 90l-178 870q-27 128 -113 137l6 29h436l-6 -29q-88 -6 -124.5 -40t-24.5 -97l127 -667l407 667q38 65 19.5 98t-95.5 39l7 29h311l-6 -29q-92 -9 -174 -137
l-598 -979q-37 -63 -79 -115.5t-94.5 -99.5t-115 -73.5t-127.5 -26.5zM694 1157l209 338h203l-383 -338h-29z" />
    <glyph glyph-name="thorn" unicode="&#xfe;" horiz-adv-x="1189" 
d="M-133 -375q49 8 79.5 18.5t57 37t35.5 69.5l311 1462q18 79 -9 102t-108 11l7 29l303 96h28l-137 -643q52 110 152.5 180t214.5 70q193 0 278 -157.5t31 -412.5q-53 -242 -205.5 -380t-367.5 -138q-77 0 -151 30t-107 77l-70 -326q-13 -64 26.5 -89t147.5 -36l-6 -28
h-516zM332 326q-16 -76 0 -143t69.5 -111.5t137.5 -44.5q131 0 237.5 122t147.5 318q45 215 -14 352t-208 137q-84 0 -161.5 -60t-120.5 -151z" />
    <glyph glyph-name="ydieresis" unicode="&#xff;" horiz-adv-x="1085" 
d="M-6 -434q-74 0 -123 33t-37 86q8 39 39 65.5t72 26.5q26 0 81 -34t101 -34q61 0 117.5 46.5t115.5 144.5l56 90l-178 870q-27 128 -113 137l6 29h436l-6 -29q-88 -6 -124.5 -40t-24.5 -97l127 -667l407 667q38 65 19.5 98t-95.5 39l7 29h311l-6 -29q-92 -9 -174 -137
l-598 -979q-37 -63 -79 -115.5t-94.5 -99.5t-115 -73.5t-127.5 -26.5zM446 1327q6 48 44 81.5t90 33.5q49 0 78.5 -33.5t23.5 -81.5q-6 -50 -44 -83.5t-87 -33.5q-51 0 -81 33.5t-24 83.5zM805 1327q6 48 44.5 81.5t90.5 33.5q49 0 78.5 -33.5t23.5 -81.5q-6 -50 -44 -83.5
t-87 -33.5q-52 0 -82 33.5t-24 83.5z" />
    <glyph glyph-name="Amacron" unicode="&#x100;" horiz-adv-x="1503" 
d="M1206 246q25 -119 66 -168t117 -49l-7 -29h-573l6 29q138 0 184.5 44.5t24.5 153.5l-47 254h-598l-156 -254q-68 -109 -41 -153.5t160 -44.5l-6 -29h-434l6 29q73 0 131.5 48.5t134.5 168.5l762 1235h29zM416 539h549l-129 688zM711 1634l12 58h526l-12 -58h-526z" />
    <glyph glyph-name="amacron" unicode="&#x101;" 
d="M291 -31q-124 0 -194 84.5t-44 210.5q62 282 490 324l178 18l18 92q30 137 -16.5 219t-157.5 82q-118 0 -178.5 -60.5t-58.5 -143.5q6 -112 -80 -131q-43 -9 -70.5 21.5t-15.5 86.5q10 46 41 93.5t82 91.5t132 72t177 28q178 0 263 -100.5t50 -268.5l-114 -543
q-7 -38 4.5 -60t38.5 -22q45 0 96 68l22 -10q-37 -59 -80 -95t-72.5 -46.5t-56.5 -10.5q-59 0 -96 41t-28 113l20 100q-147 -254 -350 -254zM233 285q-17 -86 26.5 -142.5t123.5 -56.5q138 0 266 188l60 275l-164 -21q-264 -29 -312 -243zM354 1210l13 58h526l-12 -58h-527z
" />
    <glyph glyph-name="Abreve" unicode="&#x102;" horiz-adv-x="1503" 
d="M1206 246q25 -119 66 -168t117 -49l-7 -29h-573l6 29q138 0 184.5 44.5t24.5 153.5l-47 254h-598l-156 -254q-68 -109 -41 -153.5t160 -44.5l-6 -29h-434l6 29q73 0 131.5 48.5t134.5 168.5l762 1235h29zM416 539h549l-129 688zM795 1931h30q-11 -103 33.5 -161
t134.5 -58q91 0 160.5 58t101.5 161h31q-32 -161 -114 -251.5t-197 -90.5q-119 0 -167 91.5t-13 250.5z" />
    <glyph glyph-name="abreve" unicode="&#x103;" 
d="M291 -31q-124 0 -194 84.5t-44 210.5q62 282 490 324l178 18l18 92q30 137 -16.5 219t-157.5 82q-118 0 -178.5 -60.5t-58.5 -143.5q6 -112 -80 -131q-43 -9 -70.5 21.5t-15.5 86.5q10 46 41 93.5t82 91.5t132 72t177 28q178 0 263 -100.5t50 -268.5l-114 -543
q-7 -38 4.5 -60t38.5 -22q45 0 96 68l22 -10q-37 -59 -80 -95t-72.5 -46.5t-56.5 -10.5q-59 0 -96 41t-28 113l20 100q-147 -254 -350 -254zM233 285q-17 -86 26.5 -142.5t123.5 -56.5q138 0 266 188l60 275l-164 -21q-264 -29 -312 -243zM438 1507h31q-11 -103 33.5 -161
t134.5 -58q91 0 160.5 58t101.5 161h31q-32 -160 -114.5 -251t-197.5 -91q-119 0 -167 91.5t-13 250.5z" />
    <glyph glyph-name="Aogonek" unicode="&#x104;" horiz-adv-x="1503" 
d="M1206 246q25 -119 66 -168t117 -49l-7 -29h-227q-202 -157 -227 -276q-19 -89 50.5 -108.5t176.5 44.5l10 -18q-52 -52 -111.5 -77.5t-109.5 -25.5q-84 0 -125.5 41.5t-27.5 110.5q33 150 294 309h-276l6 29q138 0 184.5 44.5t24.5 153.5l-47 254h-598l-156 -254
q-68 -109 -41 -153.5t160 -44.5l-6 -29h-434l6 29q73 0 131.5 48.5t134.5 168.5l762 1235h29zM416 539h549l-129 688z" />
    <glyph glyph-name="aogonek" unicode="&#x105;" 
d="M291 -31q-124 0 -194 84.5t-44 210.5q62 282 490 324l178 18l18 92q30 137 -16.5 219t-157.5 82q-118 0 -178.5 -60.5t-58.5 -143.5q6 -112 -80 -131q-43 -9 -70.5 21.5t-15.5 86.5q10 46 41 93.5t82 91.5t132 72t177 28q178 0 263 -100.5t50 -268.5l-114 -543
q-7 -38 4.5 -60t38.5 -22q45 0 96 68l22 -10q-64 -104 -143 -137q-169 -144 -190 -246q-19 -89 50.5 -108.5t176.5 44.5l10 -18q-52 -52 -111 -77t-110 -25q-85 0 -126.5 41t-27.5 110q26 126 230 268q-46 10 -72.5 49.5t-19.5 100.5l20 100q-147 -254 -350 -254zM233 285
q-17 -86 26.5 -142.5t123.5 -56.5q138 0 266 188l60 275l-164 -21q-264 -29 -312 -243z" />
    <glyph glyph-name="Cacute" unicode="&#x106;" horiz-adv-x="1406" 
d="M1413 1481l-29 -416h-28q-19 175 -117.5 266.5t-271.5 91.5q-202 0 -366 -171.5t-222 -448.5q-34 -150 -17.5 -281t68.5 -228t144 -152.5t208 -55.5q154 0 281.5 96t210.5 267l29 -9q-76 -218 -248.5 -345.5t-382.5 -127.5q-180 0 -312.5 101.5t-186 279t-9.5 389.5
q45 211 162.5 380t291.5 266.5t373 97.5q68 0 131.5 -15.5t99 -30.5t67.5 -23t53.5 7.5t41.5 61.5h29zM995 1581l209 338h203l-383 -338h-29z" />
    <glyph glyph-name="cacute" unicode="&#x107;" horiz-adv-x="1011" 
d="M936 719q-42 280 -272 280q-135 0 -247.5 -117t-150.5 -300q-23 -97 -12 -184.5t45.5 -154t101.5 -106t156 -39.5q96 0 184 58t142 159l24 -6q-61 -156 -173.5 -247t-264.5 -91q-138 0 -238 72t-141 208.5t-4 311.5q20 97 75 187.5t130 158t171 108t193 40.5
q65 0 120 -13.5t81 -27t48 -19.5t34 6.5t25 53.5h26l-24 -338h-29zM664 1157l208 338h203l-383 -338h-28z" />
    <glyph glyph-name="Ccircumflex" unicode="&#x108;" horiz-adv-x="1406" 
d="M1413 1481l-29 -416h-28q-19 175 -117.5 266.5t-271.5 91.5q-202 0 -366 -171.5t-222 -448.5q-34 -150 -17.5 -281t68.5 -228t144 -152.5t208 -55.5q154 0 281.5 96t210.5 267l29 -9q-76 -218 -248.5 -345.5t-382.5 -127.5q-180 0 -312.5 101.5t-186 279t-9.5 389.5
q45 211 162.5 380t291.5 266.5t373 97.5q68 0 131.5 -15.5t99 -30.5t67.5 -23t53.5 7.5t41.5 61.5h29zM725 1597l274 326h160l144 -326l-23 -14l-219 240l-318 -240z" />
    <glyph glyph-name="ccircumflex" unicode="&#x109;" horiz-adv-x="1011" 
d="M936 719q-42 280 -272 280q-135 0 -247.5 -117t-150.5 -300q-23 -97 -12 -184.5t45.5 -154t101.5 -106t156 -39.5q96 0 184 58t142 159l24 -6q-61 -156 -173.5 -247t-264.5 -91q-138 0 -238 72t-141 208.5t-4 311.5q20 97 75 187.5t130 158t171 108t193 40.5
q65 0 120 -13.5t81 -27t48 -19.5t34 6.5t25 53.5h26l-24 -338h-29zM395 1174l275 325h159l144 -325l-23 -15l-219 240l-317 -240z" />
    <glyph glyph-name="Cdotaccent" unicode="&#x10a;" horiz-adv-x="1406" 
d="M1413 1481l-29 -416h-28q-19 175 -117.5 266.5t-271.5 91.5q-202 0 -366 -171.5t-222 -448.5q-34 -150 -17.5 -281t68.5 -228t144 -152.5t208 -55.5q154 0 281.5 96t210.5 267l29 -9q-76 -218 -248.5 -345.5t-382.5 -127.5q-180 0 -312.5 101.5t-186 279t-9.5 389.5
q45 211 162.5 380t291.5 266.5t373 97.5q68 0 131.5 -15.5t99 -30.5t67.5 -23t53.5 7.5t41.5 61.5h29zM907 1759q6 53 47.5 88t96.5 35q53 0 84.5 -35.5t25.5 -87.5t-46.5 -87.5t-94.5 -35.5q-56 0 -88 35.5t-25 87.5z" />
    <glyph glyph-name="cdotaccent" unicode="&#x10b;" horiz-adv-x="1011" 
d="M936 719q-42 280 -272 280q-135 0 -247.5 -117t-150.5 -300q-23 -97 -12 -184.5t45.5 -154t101.5 -106t156 -39.5q96 0 184 58t142 159l24 -6q-61 -156 -173.5 -247t-264.5 -91q-138 0 -238 72t-141 208.5t-4 311.5q20 97 75 187.5t130 158t171 108t193 40.5
q65 0 120 -13.5t81 -27t48 -19.5t34 6.5t25 53.5h26l-24 -338h-29zM575 1335q6 53 47.5 88t96.5 35q53 0 84.5 -35.5t25.5 -87.5t-46.5 -87.5t-94.5 -35.5q-56 0 -88 35.5t-25 87.5z" />
    <glyph glyph-name="Ccaron" unicode="&#x10c;" horiz-adv-x="1406" 
d="M1413 1481l-29 -416h-28q-19 175 -117.5 266.5t-271.5 91.5q-202 0 -366 -171.5t-222 -448.5q-34 -150 -17.5 -281t68.5 -228t144 -152.5t208 -55.5q154 0 281.5 96t210.5 267l29 -9q-76 -218 -248.5 -345.5t-382.5 -127.5q-180 0 -312.5 101.5t-186 279t-9.5 389.5
q45 211 162.5 380t291.5 266.5t373 97.5q68 0 131.5 -15.5t99 -30.5t67.5 -23t53.5 7.5t41.5 61.5h29zM788 1907l23 16l215 -242l322 242l18 -16l-281 -324h-159z" />
    <glyph glyph-name="ccaron" unicode="&#x10d;" horiz-adv-x="1011" 
d="M936 719q-42 280 -272 280q-135 0 -247.5 -117t-150.5 -300q-23 -97 -12 -184.5t45.5 -154t101.5 -106t156 -39.5q96 0 184 58t142 159l24 -6q-61 -156 -173.5 -247t-264.5 -91q-138 0 -238 72t-141 208.5t-4 311.5q20 97 75 187.5t130 158t171 108t193 40.5
q65 0 120 -13.5t81 -27t48 -19.5t34 6.5t25 53.5h26l-24 -338h-29zM459 1483l22 16l215 -242l322 242l18 -16l-280 -324h-160z" />
    <glyph glyph-name="Dcaron" unicode="&#x10e;" horiz-adv-x="1527" 
d="M864 1450q344 0 503.5 -195t84.5 -550q-33 -153 -108.5 -282.5t-184 -223t-253 -146.5t-308.5 -53h-631l6 29q108 10 155.5 43t64.5 108l231 1090q15 75 -17.5 108t-136.5 43l6 29h588zM381 195q-15 -72 9.5 -105t96.5 -33h111q233 0 413 184t244 478q66 313 -54 493.5
t-384 180.5h-182zM733 1907l23 16l215 -242l321 242l19 -16l-281 -324h-160z" />
    <glyph glyph-name="dcaron" unicode="&#x10f;" horiz-adv-x="1191" 
d="M389 -31q-192 0 -275.5 162.5t-29.5 419.5q46 220 210 363t380 143q75 0 138 -28.5t97 -76.5l64 291q17 79 -9.5 102t-107.5 11l6 28l303 97h29l-285 -1336q-7 -38 5 -60t40 -22q44 0 95 68l24 -10q-55 -85 -111 -118.5t-100 -33.5q-59 0 -96.5 42t-28.5 116l21 98
q-52 -114 -152.5 -185t-216.5 -71zM266 559q-26 -140 -13.5 -248.5t73.5 -174.5t161 -66q84 0 162 61t119 152l90 415q15 76 -0.5 143t-69 112.5t-137.5 45.5q-131 0 -237.5 -122t-147.5 -318zM1231 1159l127 412h166l-264 -412h-29z" />
    <glyph glyph-name="Dcroat" unicode="&#x110;" horiz-adv-x="1527" 
d="M864 1450q344 0 503.5 -195t84.5 -550q-33 -153 -108.5 -282.5t-184 -223t-253 -146.5t-308.5 -53h-631l6 29q108 10 155.5 43t64.5 108l108 514h-215l12 58h215l111 518q15 75 -17.5 108t-136.5 43l6 29h588zM381 195q-15 -72 9.5 -105t96.5 -33h111q233 0 413 184
t244 478q66 313 -54 493.5t-384 180.5h-182l-135 -641h239l-12 -58h-240z" />
    <glyph glyph-name="dcroat" unicode="&#x111;" horiz-adv-x="1191" 
d="M389 -31q-192 0 -275.5 162.5t-29.5 419.5q46 220 210 363t380 143q75 0 138 -28.5t97 -76.5l45 203h-237l12 57h238l6 31q17 79 -9.5 102t-107.5 11l6 28l303 97h29l-57 -269h233l-12 -57h-234l-215 -1010q-7 -38 5 -60t40 -22q44 0 95 68l24 -10q-55 -85 -111 -118.5
t-100 -33.5q-59 0 -96.5 42t-28.5 116l21 98q-52 -114 -152.5 -185t-216.5 -71zM266 559q-26 -140 -13.5 -248.5t73.5 -174.5t161 -66q84 0 162 61t119 152l90 415q15 76 -0.5 143t-69 112.5t-137.5 45.5q-131 0 -237.5 -122t-147.5 -318z" />
    <glyph glyph-name="Emacron" unicode="&#x112;" horiz-adv-x="1265" 
d="M1151 379h29l-133 -379h-1080l6 29q108 10 155.5 43t64.5 108l231 1090q15 75 -17.5 108t-136.5 43l6 29h914q89 0 108 31h29l-22 -408h-29q-3 170 -66.5 245t-205.5 75h-369l-133 -621h268q90 0 137 48.5t62 160.5h28l-34 -475h-29q-3 111 -41.5 160t-116.5 49h-287
l-110 -522q-14 -75 5.5 -105.5t84.5 -30.5h289q132 0 226.5 77.5t166.5 244.5zM635 1634l12 58h527l-13 -58h-526z" />
    <glyph glyph-name="emacron" unicode="&#x113;" horiz-adv-x="1019" 
d="M463 -29q-143 0 -241.5 76.5t-135 212t-0.5 303.5q29 134 108.5 245.5t201.5 180t259 68.5q192 0 271 -122t20 -317h-672l-4 -16q-24 -107 -14.5 -199t43.5 -160t99.5 -106.5t152.5 -38.5q88 0 173 56.5t132 148.5l27 -6q-59 -152 -166 -239t-254 -87zM287 666h499
q36 136 -7.5 234.5t-149.5 98.5q-120 0 -209 -90t-133 -243zM424 1212l12 58h527l-13 -58h-526z" />
    <glyph glyph-name="Ebreve" unicode="&#x114;" horiz-adv-x="1265" 
d="M1151 379h29l-133 -379h-1080l6 29q108 10 155.5 43t64.5 108l231 1090q15 75 -17.5 108t-136.5 43l6 29h914q89 0 108 31h29l-22 -408h-29q-3 170 -66.5 245t-205.5 75h-369l-133 -621h268q90 0 137 48.5t62 160.5h28l-34 -475h-29q-3 111 -41.5 160t-116.5 49h-287
l-110 -522q-14 -75 5.5 -105.5t84.5 -30.5h289q132 0 226.5 77.5t166.5 244.5zM719 1931h31q-11 -103 33.5 -161t134.5 -58q91 0 160.5 58t101.5 161h30q-32 -161 -114 -251.5t-197 -90.5q-119 0 -167 91.5t-13 250.5z" />
    <glyph glyph-name="ebreve" unicode="&#x115;" horiz-adv-x="1019" 
d="M463 -29q-143 0 -241.5 76.5t-135 212t-0.5 303.5q29 134 108.5 245.5t201.5 180t259 68.5q192 0 271 -122t20 -317h-672l-4 -16q-24 -107 -14.5 -199t43.5 -160t99.5 -106.5t152.5 -38.5q88 0 173 56.5t132 148.5l27 -6q-59 -152 -166 -239t-254 -87zM287 666h499
q36 136 -7.5 234.5t-149.5 98.5q-120 0 -209 -90t-133 -243zM508 1509h31q-11 -103 33.5 -161t134.5 -58q91 0 160.5 58t101.5 161h30q-32 -161 -114 -251.5t-197 -90.5q-119 0 -167 91.5t-13 250.5z" />
    <glyph glyph-name="Edotaccent" unicode="&#x116;" horiz-adv-x="1265" 
d="M1151 379h29l-133 -379h-1080l6 29q108 10 155.5 43t64.5 108l231 1090q15 75 -17.5 108t-136.5 43l6 29h914q89 0 108 31h29l-22 -408h-29q-3 170 -66.5 245t-205.5 75h-369l-133 -621h268q90 0 137 48.5t62 160.5h28l-34 -475h-29q-3 111 -41.5 160t-116.5 49h-287
l-110 -522q-14 -75 5.5 -105.5t84.5 -30.5h289q132 0 226.5 77.5t166.5 244.5zM788 1759q6 53 47.5 88t96.5 35q53 0 84.5 -35.5t25.5 -87.5t-46.5 -87.5t-94.5 -35.5q-56 0 -88 35.5t-25 87.5z" />
    <glyph glyph-name="edotaccent" unicode="&#x117;" horiz-adv-x="1019" 
d="M463 -29q-143 0 -241.5 76.5t-135 212t-0.5 303.5q29 134 108.5 245.5t201.5 180t259 68.5q192 0 271 -122t20 -317h-672l-4 -16q-24 -107 -14.5 -199t43.5 -160t99.5 -106.5t152.5 -38.5q88 0 173 56.5t132 148.5l27 -6q-59 -152 -166 -239t-254 -87zM287 666h499
q36 136 -7.5 234.5t-149.5 98.5q-120 0 -209 -90t-133 -243zM575 1337q6 53 47.5 88t96.5 35q53 0 84.5 -35.5t25.5 -87.5t-46.5 -87.5t-94.5 -35.5q-56 0 -88 35.5t-25 87.5z" />
    <glyph glyph-name="Eogonek" unicode="&#x118;" horiz-adv-x="1265" 
d="M1151 379h29l-133 -379h-129q-203 -158 -228 -276q-19 -89 51 -108.5t177 44.5l10 -18q-52 -52 -111.5 -77.5t-109.5 -25.5q-84 0 -126 41.5t-28 110.5q32 149 295 309h-881l6 29q108 10 155.5 43t64.5 108l231 1090q15 75 -17.5 108t-136.5 43l6 29h914q89 0 108 31h29
l-22 -408h-29q-3 170 -66.5 245t-205.5 75h-369l-133 -621h268q90 0 137 48.5t62 160.5h28l-34 -475h-29q-3 111 -41.5 160t-116.5 49h-287l-110 -522q-14 -75 5.5 -105.5t84.5 -30.5h289q132 0 226.5 77.5t166.5 244.5z" />
    <glyph glyph-name="eogonek" unicode="&#x119;" horiz-adv-x="1019" 
d="M463 -29q-143 0 -241.5 76.5t-135 212t-0.5 303.5q29 134 108.5 245.5t201.5 180t259 68.5q192 0 271 -122t20 -317h-672l-4 -16q-24 -107 -14.5 -199t43.5 -160t99.5 -106.5t152.5 -38.5q88 0 173 56.5t132 148.5l27 -6q-86 -222 -256 -293q-194 -157 -215 -266
q-19 -89 50.5 -108.5t176.5 44.5l10 -18q-52 -52 -111 -77t-110 -25q-85 0 -126.5 41t-27.5 110q27 129 232 268q-14 -2 -43 -2zM287 666h499q36 136 -7.5 234.5t-149.5 98.5q-120 0 -209 -90t-133 -243z" />
    <glyph glyph-name="Ecaron" unicode="&#x11a;" horiz-adv-x="1265" 
d="M1151 379h29l-133 -379h-1080l6 29q108 10 155.5 43t64.5 108l231 1090q15 75 -17.5 108t-136.5 43l6 29h914q89 0 108 31h29l-22 -408h-29q-3 170 -66.5 245t-205.5 75h-369l-133 -621h268q90 0 137 48.5t62 160.5h28l-34 -475h-29q-3 111 -41.5 160t-116.5 49h-287
l-110 -522q-14 -75 5.5 -105.5t84.5 -30.5h289q132 0 226.5 77.5t166.5 244.5zM670 1907l22 16l215 -242l322 242l18 -16l-280 -324h-160z" />
    <glyph glyph-name="ecaron" unicode="&#x11b;" horiz-adv-x="1019" 
d="M463 -29q-143 0 -241.5 76.5t-135 212t-0.5 303.5q29 134 108.5 245.5t201.5 180t259 68.5q192 0 271 -122t20 -317h-672l-4 -16q-24 -107 -14.5 -199t43.5 -160t99.5 -106.5t152.5 -38.5q88 0 173 56.5t132 148.5l27 -6q-59 -152 -166 -239t-254 -87zM287 666h499
q36 136 -7.5 234.5t-149.5 98.5q-120 0 -209 -90t-133 -243zM459 1485l22 16l215 -241l322 241l18 -16l-280 -324h-160z" />
    <glyph glyph-name="Gcircumflex" unicode="&#x11c;" horiz-adv-x="1492" 
d="M688 -31q-189 0 -325 103t-188.5 281t-8.5 392q44 204 166.5 372.5t299.5 266t372 97.5q66 0 128 -15.5t97 -31t67 -23.5t53.5 7.5t41.5 62.5h28l-30 -416h-27q-53 358 -383 358q-200 0 -373.5 -178.5t-230.5 -447.5q-34 -165 -20.5 -304.5t62.5 -241.5t134.5 -159
t193.5 -57q88 0 156.5 23.5t130.5 82.5l80 377q37 173 -151 182l8 31h551l-7 -31q-179 -9 -217 -182l-63 -293q-100 -116 -237.5 -186t-307.5 -70zM731 1597l275 326h159l144 -326l-23 -14l-219 240l-317 -240z" />
    <glyph glyph-name="gcircumflex" unicode="&#x11d;" horiz-adv-x="1079" 
d="M326 -434q-183 0 -281 57.5t-98 155.5q0 171 219 244q-70 17 -98.5 69.5t-12.5 122.5q11 62 62 116t135 85q-63 48 -91 125.5t-7 175.5q32 146 161.5 243t311.5 97q57 0 120.5 -3t103.5 -6t82.5 -4t68 2t48.5 12t35.5 26t18.5 44h24l-14 -163q-71 0 -285 47
q94 -45 129 -129t11 -193q-32 -147 -160.5 -243.5t-310.5 -96.5q-134 0 -219 49q-96 -44 -109 -116q-15 -72 42 -103.5t163 -5.5l121 27q223 50 339 -26.5t80 -258.5q-32 -152 -199 -251t-390 -99zM76 -207q8 -79 83 -126.5t208 -47.5q162 0 279 70t142 184
q24 115 -60.5 166t-233.5 20l-121 -28q-111 -23 -170 -15q-67 -53 -98.5 -105.5t-28.5 -117.5zM336 754q-31 -151 17.5 -254t160.5 -103q99 0 173 71t99 185q32 155 -18 257t-156 102q-99 0 -175 -71.5t-101 -186.5zM401 1174l275 325h160l143 -325l-23 -15l-219 240
l-317 -240z" />
    <glyph glyph-name="Gbreve" unicode="&#x11e;" horiz-adv-x="1492" 
d="M688 -31q-189 0 -325 103t-188.5 281t-8.5 392q44 204 166.5 372.5t299.5 266t372 97.5q66 0 128 -15.5t97 -31t67 -23.5t53.5 7.5t41.5 62.5h28l-30 -416h-27q-53 358 -383 358q-200 0 -373.5 -178.5t-230.5 -447.5q-34 -165 -20.5 -304.5t62.5 -241.5t134.5 -159
t193.5 -57q88 0 156.5 23.5t130.5 82.5l80 377q37 173 -151 182l8 31h551l-7 -31q-179 -9 -217 -182l-63 -293q-100 -116 -237.5 -186t-307.5 -70zM844 1931h30q-11 -103 33.5 -161t134.5 -58q91 0 161 58t102 161h30q-32 -161 -114 -251.5t-197 -90.5q-119 0 -167 91.5
t-13 250.5z" />
    <glyph glyph-name="gbreve" unicode="&#x11f;" horiz-adv-x="1079" 
d="M326 -434q-183 0 -281 57.5t-98 155.5q0 171 219 244q-70 17 -98.5 69.5t-12.5 122.5q11 62 62 116t135 85q-63 48 -91 125.5t-7 175.5q32 146 161.5 243t311.5 97q57 0 120.5 -3t103.5 -6t82.5 -4t68 2t48.5 12t35.5 26t18.5 44h24l-14 -163q-71 0 -285 47
q94 -45 129 -129t11 -193q-32 -147 -160.5 -243.5t-310.5 -96.5q-134 0 -219 49q-96 -44 -109 -116q-15 -72 42 -103.5t163 -5.5l121 27q223 50 339 -26.5t80 -258.5q-32 -152 -199 -251t-390 -99zM76 -207q8 -79 83 -126.5t208 -47.5q162 0 279 70t142 184
q24 115 -60.5 166t-233.5 20l-121 -28q-111 -23 -170 -15q-67 -53 -98.5 -105.5t-28.5 -117.5zM336 754q-31 -151 17.5 -254t160.5 -103q99 0 173 71t99 185q32 155 -18 257t-156 102q-99 0 -175 -71.5t-101 -186.5zM514 1507h31q-11 -103 33.5 -161t134.5 -58
q91 0 160.5 58t101.5 161h31q-32 -160 -114.5 -251t-197.5 -91q-119 0 -167 91.5t-13 250.5z" />
    <glyph glyph-name="Gdotaccent" unicode="&#x120;" horiz-adv-x="1492" 
d="M688 -31q-189 0 -325 103t-188.5 281t-8.5 392q44 204 166.5 372.5t299.5 266t372 97.5q66 0 128 -15.5t97 -31t67 -23.5t53.5 7.5t41.5 62.5h28l-30 -416h-27q-53 358 -383 358q-200 0 -373.5 -178.5t-230.5 -447.5q-34 -165 -20.5 -304.5t62.5 -241.5t134.5 -159
t193.5 -57q88 0 156.5 23.5t130.5 82.5l80 377q37 173 -151 182l8 31h551l-7 -31q-179 -9 -217 -182l-63 -293q-100 -116 -237.5 -186t-307.5 -70zM911 1759q6 53 47.5 88t96.5 35q53 0 84.5 -35.5t25.5 -87.5t-46.5 -87.5t-94.5 -35.5q-56 0 -88 35.5t-25 87.5z" />
    <glyph glyph-name="gdotaccent" unicode="&#x121;" horiz-adv-x="1079" 
d="M326 -434q-183 0 -281 57.5t-98 155.5q0 171 219 244q-70 17 -98.5 69.5t-12.5 122.5q11 62 62 116t135 85q-63 48 -91 125.5t-7 175.5q32 146 161.5 243t311.5 97q57 0 120.5 -3t103.5 -6t82.5 -4t68 2t48.5 12t35.5 26t18.5 44h24l-14 -163q-71 0 -285 47
q94 -45 129 -129t11 -193q-32 -147 -160.5 -243.5t-310.5 -96.5q-134 0 -219 49q-96 -44 -109 -116q-15 -72 42 -103.5t163 -5.5l121 27q223 50 339 -26.5t80 -258.5q-32 -152 -199 -251t-390 -99zM76 -207q8 -79 83 -126.5t208 -47.5q162 0 279 70t142 184
q24 115 -60.5 166t-233.5 20l-121 -28q-111 -23 -170 -15q-67 -53 -98.5 -105.5t-28.5 -117.5zM336 754q-31 -151 17.5 -254t160.5 -103q99 0 173 71t99 185q32 155 -18 257t-156 102q-99 0 -175 -71.5t-101 -186.5zM582 1335q6 53 47 88t96 35q53 0 85 -35.5t26 -87.5
t-47 -87.5t-95 -35.5q-55 0 -87.5 35t-24.5 88z" />
    <glyph glyph-name="uni0122" unicode="&#x122;" horiz-adv-x="1492" 
d="M688 -31q-189 0 -325 103t-188.5 281t-8.5 392q44 204 166.5 372.5t299.5 266t372 97.5q66 0 128 -15.5t97 -31t67 -23.5t53.5 7.5t41.5 62.5h28l-30 -416h-27q-53 358 -383 358q-200 0 -373.5 -178.5t-230.5 -447.5q-34 -165 -20.5 -304.5t62.5 -241.5t134.5 -159
t193.5 -57q88 0 156.5 23.5t130.5 82.5l80 377q37 173 -151 182l8 31h551l-7 -31q-179 -9 -217 -182l-63 -293q-100 -116 -237.5 -186t-307.5 -70zM440 -514v16q155 72 197 160q-18 -6 -35 -6q-54 0 -85.5 34.5t-18.5 92.5q8 45 45 75.5t90 30.5q68 0 101 -40t20 -107
q-23 -97 -106 -163t-208 -93z" />
    <glyph glyph-name="uni0123" unicode="&#x123;" horiz-adv-x="1079" 
d="M326 -434q-183 0 -281 57.5t-98 155.5q0 171 219 244q-70 17 -98.5 69.5t-12.5 122.5q11 62 62 116t135 85q-63 48 -91 125.5t-7 175.5q32 146 161.5 243t311.5 97q57 0 120.5 -3t103.5 -6t82.5 -4t68 2t48.5 12t35.5 26t18.5 44h24l-14 -163q-71 0 -285 47
q94 -45 129 -129t11 -193q-32 -147 -160.5 -243.5t-310.5 -96.5q-134 0 -219 49q-96 -44 -109 -116q-15 -72 42 -103.5t163 -5.5l121 27q223 50 339 -26.5t80 -258.5q-32 -152 -199 -251t-390 -99zM76 -207q8 -79 83 -126.5t208 -47.5q162 0 279 70t142 184
q24 115 -60.5 166t-233.5 20l-121 -28q-111 -23 -170 -15q-67 -53 -98.5 -105.5t-28.5 -117.5zM336 754q-31 -151 17.5 -254t160.5 -103q99 0 173 71t99 185q32 155 -18 257t-156 102q-99 0 -175 -71.5t-101 -186.5zM565 1350q18 86 100.5 149t206.5 90v-16
q-159 -71 -196 -164q20 10 45 10q52 0 81 -33.5t17 -87.5q-11 -49 -48 -80.5t-89 -31.5q-67 0 -100.5 44t-16.5 120z" />
    <glyph glyph-name="Hcircumflex" unicode="&#x124;" horiz-adv-x="1607" 
d="M1167 1421l7 29h557l-7 -29q-107 -10 -154.5 -43t-64.5 -108l-231 -1090q-15 -75 18 -108t135 -43l-6 -29h-557l6 29q108 10 155.5 43t64.5 108l114 537h-712l-115 -537q-17 -75 16 -108t137 -43l-6 -29h-557l6 29q108 10 155.5 43t64.5 108l231 1090q15 75 -17.5 108
t-136.5 43l6 29h558l-7 -29q-108 -10 -155 -43t-64 -108l-104 -496h713l104 496q17 75 -16.5 107.5t-137.5 43.5zM735 1597l275 326h159l144 -326l-23 -14l-219 240l-317 -240z" />
    <glyph glyph-name="hcircumflex" unicode="&#x125;" horiz-adv-x="1200" 
d="M-49 29q83 10 120.5 39t51.5 92l229 1083q17 79 -10 102t-109 11l7 28l303 97h28l-141 -664q118 124 210 182t185 58q135 0 201.5 -93t34.5 -247l-119 -557q-12 -63 12.5 -92t102.5 -39l-6 -29h-455l6 29q83 11 120.5 39.5t49.5 91.5l115 538q25 117 -21.5 177.5
t-138.5 60.5q-33 0 -66 -9.5t-57 -21t-61 -39t-57 -44t-66 -56.5l-129 -606q-12 -63 12.5 -92t102.5 -39l-7 -29h-454zM223 1520l275 325h159l144 -325l-23 -15l-219 240l-317 -240z" />
    <glyph glyph-name="Hbar" unicode="&#x126;" horiz-adv-x="1607" 
d="M1167 1421l7 29h557l-7 -29q-107 -10 -154.5 -43t-64.5 -108l-45 -209h176l-12 -57h-176l-174 -824q-15 -75 18 -108t135 -43l-6 -29h-557l6 29q108 10 155.5 43t64.5 108l114 537h-712l-115 -537q-17 -75 16 -108t137 -43l-6 -29h-557l6 29q108 10 155.5 43t64.5 108
l174 824h-197l12 57h197l45 209q15 75 -17.5 108t-136.5 43l6 29h558l-7 -29q-108 -10 -155 -43t-64 -108l-43 -209h713l43 209q17 75 -16.5 107.5t-137.5 43.5zM504 774h713l49 230h-713z" />
    <glyph glyph-name="hbar" unicode="&#x127;" horiz-adv-x="1200" 
d="M-49 29q83 10 120.5 39t51.5 92l211 995h-238l13 57h237l6 31q17 79 -10 102t-109 11l7 28l303 97h28l-57 -269h236l-13 -57h-235l-72 -338q118 124 210 182t185 58q135 0 201.5 -93t34.5 -247l-119 -557q-12 -63 12.5 -92t102.5 -39l-6 -29h-455l6 29q83 11 120.5 39.5
t49.5 91.5l115 538q25 117 -21.5 177.5t-138.5 60.5q-33 0 -66 -9.5t-57 -21t-61 -39t-57 -44t-66 -56.5l-129 -606q-12 -63 12.5 -92t102.5 -39l-7 -29h-454z" />
    <glyph glyph-name="Itilde" unicode="&#x128;" horiz-adv-x="710" 
d="M377 180q-17 -75 16 -108t137 -43l-6 -29h-557l6 29q108 10 155.5 43t64.5 108l231 1090q15 75 -17.5 108t-136.5 43l6 29h558l-7 -29q-108 -10 -155 -43t-64 -108zM303 1602q55 245 201 245q41 0 89.5 -29.5t94.5 -59t82 -29.5q83 0 125 129l29 -5q-24 -115 -74 -179
t-125 -64q-38 0 -88.5 29t-99 58t-80.5 29q-84 0 -125 -129z" />
    <glyph glyph-name="itilde" unicode="&#x129;" horiz-adv-x="571" 
d="M291 160q-12 -63 12.5 -92t102.5 -39l-7 -29h-454l6 29q83 10 120.5 39t51.5 92l139 659q17 81 -10 104t-109 9l7 29l305 96h28zM135 1178q55 245 201 245q41 0 89.5 -29.5t94.5 -59t82 -29.5q83 0 125 129l29 -4q-24 -115 -74 -179.5t-125 -64.5q-46 0 -138 58.5
t-130 58.5q-84 0 -125 -129z" />
    <glyph glyph-name="Imacron" unicode="&#x12a;" horiz-adv-x="710" 
d="M377 180q-17 -75 16 -108t137 -43l-6 -29h-557l6 29q108 10 155.5 43t64.5 108l231 1090q15 75 -17.5 108t-136.5 43l6 29h558l-7 -29q-108 -10 -155 -43t-64 -108zM330 1634l12 58h526l-12 -58h-526z" />
    <glyph glyph-name="imacron" unicode="&#x12b;" horiz-adv-x="571" 
d="M291 160q-12 -63 12.5 -92t102.5 -39l-7 -29h-454l6 29q83 10 120.5 39t51.5 92l139 659q17 81 -10 104t-109 9l7 29l305 96h28zM164 1210l12 58h526l-12 -58h-526z" />
    <glyph glyph-name="Ibreve" unicode="&#x12c;" horiz-adv-x="710" 
d="M377 180q-17 -75 16 -108t137 -43l-6 -29h-557l6 29q108 10 155.5 43t64.5 108l231 1090q15 75 -17.5 108t-136.5 43l6 29h558l-7 -29q-108 -10 -155 -43t-64 -108zM416 1931h30q-11 -103 33.5 -161t134.5 -58q91 0 161 58t102 161h30q-32 -161 -114 -251.5t-197 -90.5
q-119 0 -167 91.5t-13 250.5z" />
    <glyph glyph-name="ibreve" unicode="&#x12d;" horiz-adv-x="571" 
d="M291 160q-12 -63 12.5 -92t102.5 -39l-7 -29h-454l6 29q83 10 120.5 39t51.5 92l139 659q17 81 -10 104t-109 9l7 29l305 96h28zM248 1507h31q-11 -103 33 -161t134 -58q91 0 161 58t102 161h30q-32 -161 -114 -251.5t-197 -90.5q-119 0 -167 91.5t-13 250.5z" />
    <glyph glyph-name="Iogonek" unicode="&#x12e;" horiz-adv-x="710" 
d="M377 180q-17 -75 16 -108t137 -43l-6 -29h-190q-203 -158 -228 -276q-19 -89 51 -108.5t177 44.5l10 -18q-52 -52 -111.5 -77.5t-109.5 -25.5q-84 0 -126 41.5t-28 110.5q32 149 295 309h-297l6 29q108 10 155.5 43t64.5 108l231 1090q15 75 -17.5 108t-136.5 43l6 29
h558l-7 -29q-108 -10 -155 -43t-64 -108z" />
    <glyph glyph-name="iogonek" unicode="&#x12f;" horiz-adv-x="571" 
d="M291 160q-10 -56 4 -80h2l6 -12q21 -27 103 -39l-7 -29h-170q-188 -156 -209 -262q-19 -89 51 -108.5t177 44.5l10 -18q-52 -52 -111 -77t-110 -25q-85 0 -126.5 41t-27.5 110q30 141 273 295h-211l6 29q83 10 120.5 39t51.5 92l139 659q17 81 -10 104t-109 9l7 29
l305 96h28zM317 1335q6 53 47.5 88t96.5 35q53 0 84.5 -35.5t25.5 -87.5t-46.5 -87.5t-94.5 -35.5q-56 0 -88 35.5t-25 87.5z" />
    <glyph glyph-name="Idotaccent" unicode="&#x130;" horiz-adv-x="710" 
d="M377 180q-17 -75 16 -108t137 -43l-6 -29h-557l6 29q108 10 155.5 43t64.5 108l231 1090q15 75 -17.5 108t-136.5 43l6 29h558l-7 -29q-108 -10 -155 -43t-64 -108zM483 1759q6 53 47.5 88t96.5 35q53 0 84.5 -35.5t25.5 -87.5t-46.5 -87.5t-94.5 -35.5q-56 0 -88 35.5
t-25 87.5z" />
    <glyph glyph-name="dotlessi" unicode="&#x131;" horiz-adv-x="571" 
d="M291 160q-12 -63 12.5 -92t102.5 -39l-7 -29h-454l6 29q83 10 120.5 39t51.5 92l139 659q17 81 -10 104t-109 9l7 29l305 96h28z" />
    <glyph glyph-name="IJ" unicode="&#x132;" horiz-adv-x="1751" 
d="M377 180q-17 -75 16 -108t137 -43l-6 -29h-557l6 29q108 10 155.5 43t64.5 108l231 1090q15 75 -17.5 108t-136.5 43l6 29h558l-7 -29q-108 -10 -155 -43t-64 -108zM682 272q9 48 38.5 77.5t70.5 29.5q44 0 65 -27t12 -73q-4 -17 -15.5 -46t-14.5 -45q-13 -68 42 -113.5
t146 -45.5q210 0 277 313l196 928q17 75 -16 108t-137 43l6 29h557l-6 -29q-107 -11 -155 -43.5t-65 -107.5l-182 -867q-45 -214 -173.5 -324t-319.5 -110q-96 0 -176 36.5t-123 107t-27 159.5z" />
    <glyph glyph-name="ij" unicode="&#x133;" horiz-adv-x="1101" 
d="M291 160q-12 -63 12.5 -92t102.5 -39l-7 -29h-454l6 29q83 10 120.5 39t51.5 92l139 659q17 81 -10 104t-109 9l7 29l305 96h28zM317 1335q6 53 47.5 88t96.5 35q53 0 84.5 -35.5t25.5 -87.5t-46.5 -87.5t-94.5 -35.5q-56 0 -88 35.5t-25 87.5zM367 -412q61 25 104 56
t82 82t67.5 127.5t51.5 185.5l168 780q17 81 -10 104t-109 9l6 29l303 96h29l-203 -957q-24 -112 -58.5 -194t-90.5 -150t-138 -114t-196 -76zM885 1337q6 53 47 88t96 35q53 0 85 -35.5t26 -87.5t-47 -87.5t-95 -35.5q-55 0 -87.5 35t-24.5 88z" />
    <glyph glyph-name="Jcircumflex" unicode="&#x134;" horiz-adv-x="1054" 
d="M311 -31q-96 0 -175.5 36.5t-122.5 107t-27 159.5q9 48 38 77.5t70 29.5q44 0 65.5 -27t12.5 -73q-4 -17 -16 -46t-15 -45q-13 -68 42.5 -113.5t146.5 -45.5q209 0 276 313l197 928q17 75 -16.5 107.5t-137.5 43.5l6 29h557l-6 -29q-107 -10 -154.5 -43t-64.5 -108
l-182 -867q-45 -214 -174 -324t-320 -110zM678 1597l274 326h160l143 -326l-22 -14l-219 240l-318 -240z" />
    <glyph glyph-name="jcircumflex" unicode="&#x135;" horiz-adv-x="546" 
d="M475 1057h29l-203 -957q-24 -112 -58.5 -194t-90.5 -150t-138 -114t-196 -76l-6 22q61 25 104 56t82 82t67.5 127.5t51.5 185.5l168 780q17 81 -10 104t-109 9l6 29zM147 1176l275 325h160l143 -325l-23 -15l-219 240l-317 -240z" />
    <glyph glyph-name="uni0136" unicode="&#x136;" horiz-adv-x="1503" 
d="M-27 29q108 10 155.5 43t64.5 108l231 1090q15 75 -17.5 108t-136.5 43l6 29h558l-7 -29q-108 -10 -155 -43t-64 -108l-127 -594l715 616q69 57 55.5 89t-127.5 38l6 31h437l-6 -31q-149 -14 -291 -137l-414 -358l307 -750q24 -64 82.5 -102t143.5 -41l-7 -31h-378
q9 50 -27 147l-266 656l-248 -215l-86 -408q-17 -75 16 -108t137 -43l-6 -29h-557zM418 -514v16q154 71 196 160q-18 -6 -34 -6q-54 0 -86 35t-19 92q8 45 45 75.5t90 30.5q68 0 101 -40t20 -107q-23 -97 -105.5 -163t-207.5 -93z" />
    <glyph glyph-name="uni0137" unicode="&#x137;" horiz-adv-x="1150" 
d="M1200 997q-74 -7 -136.5 -37t-154.5 -100l-217 -170l174 -520q29 -75 67 -105.5t105 -35.5l-6 -29h-332q13 46 -20 141l-148 430l-184 -141l-57 -270q-12 -63 12.5 -92t102.5 -39l-7 -29h-454l6 29q83 10 120.5 39t51.5 92l229 1083q17 79 -10 102t-109 11l7 28l303 97
h28l-206 -975l487 375q57 43 46 77.5t-89 38.5l6 29h391zM262 -514v16q155 72 197 160q-18 -6 -35 -6q-54 0 -86 35t-19 92q8 45 45.5 75.5t90.5 30.5q68 0 100.5 -40t19.5 -107q-23 -97 -105.5 -163t-207.5 -93z" />
    <glyph glyph-name="kgreenlandic" unicode="&#x138;" horiz-adv-x="1150" 
d="M1200 997q-74 -7 -136.5 -37t-154.5 -100l-217 -170l174 -520q29 -75 67 -105.5t105 -35.5l-6 -29h-332q13 46 -20 141l-148 430l-184 -141l-57 -270q-12 -63 12.5 -92t102.5 -39l-7 -29h-454l6 29q83 10 120.5 39t51.5 92l139 659q17 81 -9.5 104t-107.5 9l7 29l303 96
h28l-118 -551l487 375q57 43 46 77.5t-89 38.5l6 29h391z" />
    <glyph glyph-name="Lacute" unicode="&#x139;" horiz-adv-x="1236" 
d="M1137 379h28l-133 -379h-1065l6 29q108 10 155.5 43t64.5 108l231 1090q15 75 -17.5 108t-136.5 43l6 29h558l-7 -29q-108 -10 -155 -43t-64 -108l-229 -1077q-14 -75 5.5 -105.5t84.5 -30.5h274q132 0 227 77.5t167 244.5zM569 1581l209 338h203l-383 -338h-29z" />
    <glyph glyph-name="lacute" unicode="&#x13a;" horiz-adv-x="571" 
d="M291 160q-12 -63 12.5 -92t102.5 -39l-7 -29h-454l6 29q83 10 120.5 39t51.5 92l229 1083q17 79 -10 102t-109 11l7 28l303 97h28zM467 1548l209 338h203l-383 -338h-29z" />
    <glyph glyph-name="uni013B" unicode="&#x13b;" horiz-adv-x="1236" 
d="M1137 379h28l-133 -379h-1065l6 29q108 10 155.5 43t64.5 108l231 1090q15 75 -17.5 108t-136.5 43l6 29h558l-7 -29q-108 -10 -155 -43t-64 -108l-229 -1077q-14 -75 5.5 -105.5t84.5 -30.5h274q132 0 227 77.5t167 244.5zM248 -514v16q154 71 196 160q-18 -6 -34 -6
q-54 0 -86 35t-19 92q8 45 45 75.5t90 30.5q68 0 101 -40t20 -107q-23 -97 -105.5 -163t-207.5 -93z" />
    <glyph glyph-name="uni013C" unicode="&#x13c;" horiz-adv-x="571" 
d="M291 160q-12 -63 12.5 -92t102.5 -39l-7 -29h-454l6 29q83 10 120.5 39t51.5 92l229 1083q17 79 -10 102t-109 11l7 28l303 97h28zM-63 -514v16q154 71 196 160q-18 -6 -35 -6q-54 0 -85.5 34.5t-18.5 92.5q8 45 45 75.5t90 30.5q68 0 101 -40t20 -107
q-23 -97 -105.5 -163t-207.5 -93z" />
    <glyph glyph-name="Lcaron" unicode="&#x13d;" horiz-adv-x="1236" 
d="M1137 379h28l-133 -379h-1065l6 29q108 10 155.5 43t64.5 108l231 1090q15 75 -17.5 108t-136.5 43l6 29h558l-7 -29q-108 -10 -155 -43t-64 -108l-229 -1077q-14 -75 5.5 -105.5t84.5 -30.5h274q132 0 227 77.5t167 244.5zM895 1223l127 411h166l-264 -411h-29z" />
    <glyph glyph-name="lcaron" unicode="&#x13e;" horiz-adv-x="571" 
d="M291 160q-12 -63 12.5 -92t102.5 -39l-7 -29h-454l6 29q83 10 120.5 39t51.5 92l229 1083q17 79 -10 102t-109 11l7 28l303 97h28zM610 1159l127 412h166l-264 -412h-29z" />
    <glyph glyph-name="Ldot" unicode="&#x13f;" horiz-adv-x="1236" 
d="M1137 379h28l-133 -379h-1065l6 29q108 10 155.5 43t64.5 108l231 1090q15 75 -17.5 108t-136.5 43l6 29h558l-7 -29q-108 -10 -155 -43t-64 -108l-229 -1077q-14 -75 5.5 -105.5t84.5 -30.5h274q132 0 227 77.5t167 244.5zM838 717q4 55 47.5 94t99.5 39
q57 0 92.5 -38.5t30.5 -94.5q-8 -57 -51.5 -96t-100.5 -39q-56 0 -90.5 39t-27.5 96z" />
    <glyph glyph-name="ldot" unicode="&#x140;" horiz-adv-x="669" 
d="M291 160q-12 -63 12.5 -92t102.5 -39l-7 -29h-454l6 29q83 10 120.5 39t51.5 92l229 1083q17 79 -10 102t-109 11l7 28l303 97h28zM567 717q4 55 48 94t100 39q57 0 92.5 -38.5t30.5 -94.5q-8 -57 -51.5 -96t-100.5 -39q-56 0 -91 39.5t-28 95.5z" />
    <glyph glyph-name="Lslash" unicode="&#x141;" horiz-adv-x="1236" 
d="M84 582l213 94l127 594q15 75 -17.5 108t-136.5 43l6 29h558l-7 -29q-108 -10 -155 -43t-64 -108l-106 -504l407 182l-12 -55l-408 -180l-110 -520q-14 -75 5.5 -105.5t84.5 -30.5h274q132 0 227 77.5t167 244.5h28l-133 -379h-1065l6 29q108 10 155.5 43t64.5 108
l94 443l-213 -95z" />
    <glyph glyph-name="lslash" unicode="&#x142;" horiz-adv-x="571" 
d="M72 596l10 53l160 72l110 522q17 79 -10 102t-109 11l7 28l303 97h28l-143 -678l168 76l-12 -52l-168 -75l-125 -592q-12 -63 12.5 -92t102.5 -39l-7 -29h-454l6 29q83 10 120.5 39t51.5 92l108 508z" />
    <glyph glyph-name="Nacute" unicode="&#x143;" horiz-adv-x="1509" 
d="M1198 1421l6 29h428l-6 -29q-108 -10 -155 -43t-64 -108l-270 -1270h-47l-617 1239l-223 -1059q-17 -75 15 -108t134 -43l-6 -29h-426l6 29q108 10 155.5 43t64.5 108l231 1092q15 77 -17.5 110t-134.5 39l7 29h294l568 -1165l209 985q17 75 -15.5 108t-136.5 43z
M971 1581l209 338h202l-383 -338h-28z" />
    <glyph glyph-name="nacute" unicode="&#x144;" horiz-adv-x="1200" 
d="M-49 29q83 10 120.5 39t51.5 92l139 659q17 81 -10 104t-109 9l7 29l305 96h28l-51 -240q120 128 208.5 184t182.5 56q139 0 204 -93.5t34 -246.5l-119 -557q-12 -63 12.5 -92t102.5 -39l-6 -29h-455l6 29q83 11 120.5 39.5t49.5 91.5l115 538q24 111 -20 174.5
t-142 63.5q-73 0 -139.5 -40t-165.5 -130l-129 -606q-12 -63 12.5 -92t102.5 -39l-7 -29h-454zM733 1157l209 338h203l-383 -338h-29z" />
    <glyph glyph-name="uni0145" unicode="&#x145;" horiz-adv-x="1509" 
d="M1198 1421l6 29h428l-6 -29q-108 -10 -155 -43t-64 -108l-270 -1270h-47l-617 1239l-223 -1059q-17 -75 15 -108t134 -43l-6 -29h-426l6 29q108 10 155.5 43t64.5 108l231 1092q15 77 -17.5 110t-134.5 39l7 29h294l568 -1165l209 985q17 75 -15.5 108t-136.5 43z
M459 -514v16q154 71 196 160q-18 -6 -34 -6q-54 0 -86 35t-19 92q8 45 45 75.5t90 30.5q68 0 101 -40t20 -107q-23 -97 -105.5 -163t-207.5 -93z" />
    <glyph glyph-name="uni0146" unicode="&#x146;" horiz-adv-x="1200" 
d="M-49 29q83 10 120.5 39t51.5 92l139 659q17 81 -10 104t-109 9l7 29l305 96h28l-51 -240q120 128 208.5 184t182.5 56q139 0 204 -93.5t34 -246.5l-119 -557q-12 -63 12.5 -92t102.5 -39l-6 -29h-455l6 29q83 11 120.5 39.5t49.5 91.5l115 538q24 111 -20 174.5
t-142 63.5q-73 0 -139.5 -40t-165.5 -130l-129 -606q-12 -63 12.5 -92t102.5 -39l-7 -29h-454zM262 -514v16q155 72 197 160q-18 -6 -35 -6q-54 0 -86 35t-19 92q8 45 45.5 75.5t90.5 30.5q68 0 100.5 -40t19.5 -107q-23 -97 -105.5 -163t-207.5 -93z" />
    <glyph glyph-name="Ncaron" unicode="&#x147;" horiz-adv-x="1509" 
d="M1198 1421l6 29h428l-6 -29q-108 -10 -155 -43t-64 -108l-270 -1270h-47l-617 1239l-223 -1059q-17 -75 15 -108t134 -43l-6 -29h-426l6 29q108 10 155.5 43t64.5 108l231 1092q15 77 -17.5 110t-134.5 39l7 29h294l568 -1165l209 985q17 75 -15.5 108t-136.5 43z
M764 1907l22 16l215 -242l322 242l18 -16l-280 -324h-160z" />
    <glyph glyph-name="ncaron" unicode="&#x148;" horiz-adv-x="1200" 
d="M-49 29q83 10 120.5 39t51.5 92l139 659q17 81 -10 104t-109 9l7 29l305 96h28l-51 -240q120 128 208.5 184t182.5 56q139 0 204 -93.5t34 -246.5l-119 -557q-12 -63 12.5 -92t102.5 -39l-6 -29h-455l6 29q83 11 120.5 39.5t49.5 91.5l115 538q24 111 -20 174.5
t-142 63.5q-73 0 -139.5 -40t-165.5 -130l-129 -606q-12 -63 12.5 -92t102.5 -39l-7 -29h-454zM526 1483l23 16l215 -242l321 242l19 -16l-281 -324h-159z" />
    <glyph glyph-name="napostrophe" unicode="&#x149;" horiz-adv-x="1200" 
d="M887 698q24 110 -19.5 169t-142.5 59q-75 0 -144 -37.5t-159 -120.5l-68 -311l-63 -297q-12 -63 12.5 -92t102.5 -39l-7 -29h-454l6 29q83 10 120.5 39t51.5 92l63 297h-2l78 362q17 81 -10 104t-109 9l7 29l305 96h28l-51 -238q117 121 214 179.5t192 58.5
q141 0 199 -91.5t24 -248.5l-33 -152l-86 -405q-12 -63 12.5 -92t102.5 -39l-6 -29h-455l6 29q83 11 120.5 39.5t49.5 91.5l70 329zM623 1200q83 37 150 93.5t85 127.5q-74 -27 -127 9.5t-41 99.5q11 51 59 88t105 37q69 0 100.5 -45t16.5 -115q-25 -122 -115.5 -200
t-230.5 -113z" />
    <glyph glyph-name="Eng" unicode="&#x14a;" horiz-adv-x="1509" 
d="M1198 1423l6 29h428l-6 -29q-108 -10 -155 -43t-64 -108l-244 -1147l-33 -154q-41 -197 -166 -308.5t-272 -111.5q-92 0 -147 34t-43 91q8 38 36 62t68 24q26 0 54.5 -19t62 -38.5t70.5 -19.5q93 2 171 70t109 214l10 43l-610 1227l-223 -1059q-17 -75 15 -108t134 -43
l-6 -29h-426l6 29q108 10 155.5 43t64.5 108l231 1092q15 77 -17.5 110t-134.5 39l7 29h294l568 -1165l209 987q17 75 -15.5 108t-136.5 43z" />
    <glyph glyph-name="eng" unicode="&#x14b;" horiz-adv-x="1177" 
d="M432 -391q98 65 154 120.5t101 147t73 227.5l127 594q24 111 -20 174.5t-142 63.5q-73 0 -139.5 -40t-165.5 -130l-129 -606q-12 -63 12.5 -92t102.5 -39l-7 -29h-454l6 29q83 10 120.5 39t51.5 92l139 659q17 81 -10 104t-109 9l7 29l305 96h28l-51 -240
q120 128 208.5 184t182.5 56q139 0 204 -93.5t34 -246.5l-121 -563q-38 -187 -160.5 -332.5t-341.5 -229.5z" />
    <glyph glyph-name="Omacron" unicode="&#x14c;" horiz-adv-x="1607" 
d="M733 -31q-122 0 -225.5 36.5t-177 103.5t-121 161t-58 209t12.5 248q40 213 156.5 385.5t285.5 270.5t357 98q122 0 225.5 -36.5t177.5 -103.5t122 -161t58.5 -209t-12.5 -248q-39 -213 -156.5 -385.5t-287 -270.5t-357.5 -98zM373 743q-34 -198 0.5 -362t133 -260.5
t243.5 -93.5q133 3 252 91t203 241t118 346q34 198 -0.5 362t-133 261t-243.5 95q-204 -3 -363 -193t-210 -487zM770 1634l12 58h527l-13 -58h-526z" />
    <glyph glyph-name="omacron" unicode="&#x14d;" horiz-adv-x="1116" 
d="M471 -31q-101 0 -183.5 39.5t-135.5 112.5t-74.5 175.5t0.5 227.5q40 227 199.5 380t367.5 153q207 0 321.5 -154.5t71.5 -400.5q-40 -227 -199.5 -380t-367.5 -153zM266 575q-15 -76 -15.5 -154t15 -148.5t45 -125.5t77.5 -87.5t108 -32.5q122 0 218.5 113t135.5 309
q22 95 14.5 193t-33 177.5t-81 129.5t-129.5 50q-121 0 -217.5 -114t-137.5 -310zM442 1210l13 58h526l-12 -58h-527z" />
    <glyph glyph-name="Obreve" unicode="&#x14e;" horiz-adv-x="1607" 
d="M733 -31q-122 0 -225.5 36.5t-177 103.5t-121 161t-58 209t12.5 248q40 213 156.5 385.5t285.5 270.5t357 98q122 0 225.5 -36.5t177.5 -103.5t122 -161t58.5 -209t-12.5 -248q-39 -213 -156.5 -385.5t-287 -270.5t-357.5 -98zM373 743q-34 -198 0.5 -362t133 -260.5
t243.5 -93.5q133 3 252 91t203 241t118 346q34 198 -0.5 362t-133 261t-243.5 95q-204 -3 -363 -193t-210 -487zM854 1931h31q-11 -103 33.5 -161t134.5 -58q91 0 160.5 58t101.5 161h31q-32 -160 -114.5 -251t-197.5 -91q-119 0 -167 91.5t-13 250.5z" />
    <glyph glyph-name="obreve" unicode="&#x14f;" horiz-adv-x="1116" 
d="M471 -31q-101 0 -183.5 39.5t-135.5 112.5t-74.5 175.5t0.5 227.5q40 227 199.5 380t367.5 153q207 0 321.5 -154.5t71.5 -400.5q-40 -227 -199.5 -380t-367.5 -153zM266 575q-15 -76 -15.5 -154t15 -148.5t45 -125.5t77.5 -87.5t108 -32.5q122 0 218.5 113t135.5 309
q22 95 14.5 193t-33 177.5t-81 129.5t-129.5 50q-121 0 -217.5 -114t-137.5 -310zM526 1507h31q-11 -103 33.5 -161t134.5 -58q91 0 160.5 58t101.5 161h31q-32 -161 -114 -251.5t-197 -90.5q-119 0 -167.5 91.5t-13.5 250.5z" />
    <glyph glyph-name="Ohungarumlaut" unicode="&#x150;" horiz-adv-x="1607" 
d="M733 -31q-122 0 -225.5 36.5t-177 103.5t-121 161t-58 209t12.5 248q40 213 156.5 385.5t285.5 270.5t357 98q122 0 225.5 -36.5t177.5 -103.5t122 -161t58.5 -209t-12.5 -248q-39 -213 -156.5 -385.5t-287 -270.5t-357.5 -98zM373 743q-34 -198 0.5 -362t133 -260.5
t243.5 -93.5q133 3 252 91t203 241t118 346q34 198 -0.5 362t-133 261t-243.5 95q-204 -3 -363 -193t-210 -487zM856 1579l205 330h160l-336 -330h-29zM1104 1579l205 330h161l-335 -330h-31z" />
    <glyph glyph-name="ohungarumlaut" unicode="&#x151;" horiz-adv-x="1116" 
d="M471 -31q-101 0 -183.5 39.5t-135.5 112.5t-74.5 175.5t0.5 227.5q40 227 199.5 380t367.5 153q207 0 321.5 -154.5t71.5 -400.5q-40 -227 -199.5 -380t-367.5 -153zM266 575q-15 -76 -15.5 -154t15 -148.5t45 -125.5t77.5 -87.5t108 -32.5q122 0 218.5 113t135.5 309
q22 95 14.5 193t-33 177.5t-81 129.5t-129.5 50q-121 0 -217.5 -114t-137.5 -310zM526 1155l205 330h160l-336 -330h-29zM774 1155l205 330h162l-336 -330h-31z" />
    <glyph glyph-name="OE" unicode="&#x152;" horiz-adv-x="2064" 
d="M735 -31q-122 0 -225.5 36.5t-177.5 103.5t-122 161t-58.5 209t12.5 248q40 214 154.5 386t281.5 270t354 98q124 0 232 -31h803q89 0 108 31h29l-23 -408h-28q-3 170 -67 245t-206 75h-368l-134 -621h269q90 0 136.5 48.5t61.5 160.5h29l-35 -475h-28q-3 111 -41.5 160
t-116.5 49h-287l-110 -522q-15 -74 5 -105t85 -31h288q132 0 227 77.5t167 244.5h28l-133 -379h-907q-108 -31 -203 -31zM373 743q-34 -198 0.5 -361t133 -259t243.5 -94q99 8 158 51.5t89 134.5l213 999q11 95 -68.5 152t-189.5 57q-138 -2 -258.5 -89.5t-203.5 -241
t-117 -349.5z" />
    <glyph glyph-name="oe" unicode="&#x153;" horiz-adv-x="1808" 
d="M471 -31q-101 0 -183.5 39.5t-135.5 112.5t-74.5 175.5t0.5 227.5q40 227 199.5 380t367.5 153q123 0 217 -57.5t144 -161.5q80 101 193.5 160t242.5 59q192 0 271 -122t20 -317h-672l-4 -16q-24 -107 -14.5 -199t43.5 -160t99 -106.5t152 -38.5q88 0 173 56.5t132 148.5
l27 -6q-59 -152 -166 -239t-254 -87q-123 0 -213.5 57t-136.5 160q-82 -102 -192.5 -160.5t-235.5 -58.5zM266 575q-15 -76 -15.5 -154t15 -148.5t45 -125.5t77.5 -87.5t108 -32.5q122 0 218.5 113t135.5 309q22 95 14.5 193t-33 177.5t-81 129.5t-129.5 50
q-121 0 -217.5 -114t-137.5 -310zM1073 666h500q36 135 -8 234t-150 99q-120 0 -209 -90t-133 -243z" />
    <glyph glyph-name="Racute" unicode="&#x154;" horiz-adv-x="1439" 
d="M-27 29q107 6 155 40.5t69 129.5l223 1054q21 94 -12.5 128t-137.5 40l6 29h562q250 0 378.5 -115t88.5 -309q-67 -303 -459 -373l262 -508q25 -49 75.5 -77t141.5 -37l-6 -31h-381q7 60 -16 109l-260 528h-187l-94 -438q-21 -98 13 -131t136 -39l-6 -29h-557zM487 694
h168q177 0 295.5 89t153.5 247q34 159 -50 261t-261 102h-158zM883 1581l209 338h202l-383 -338h-28z" />
    <glyph glyph-name="racute" unicode="&#x155;" horiz-adv-x="823" 
d="M762 1057q71 0 107 -38t22 -87q-10 -41 -39 -63t-66 -19q-25 2 -40.5 15.5t-22 28.5t-23.5 27.5t-45 12.5q-76 0 -153.5 -87.5t-104.5 -213.5l-102 -479q-13 -64 26.5 -89t147.5 -36l-6 -29h-518l6 29q50 8 81 18.5t57.5 37t35.5 69.5l141 665q18 81 -8 104t-108 9l6 29
l303 96h28l-57 -269q58 128 149.5 198.5t182.5 70.5zM578 1157l208 338h203l-383 -338h-28z" />
    <glyph glyph-name="uni0156" unicode="&#x156;" horiz-adv-x="1439" 
d="M-27 29q107 6 155 40.5t69 129.5l223 1054q21 94 -12.5 128t-137.5 40l6 29h562q250 0 378.5 -115t88.5 -309q-67 -303 -459 -373l262 -508q25 -49 75.5 -77t141.5 -37l-6 -31h-381q7 60 -16 109l-260 528h-187l-94 -438q-21 -98 13 -131t136 -39l-6 -29h-557zM436 -514
v16q155 72 197 160q-18 -6 -35 -6q-54 0 -85.5 34.5t-18.5 92.5q8 45 45 75.5t90 30.5q68 0 101 -40t20 -107q-23 -97 -106 -163t-208 -93zM487 694h168q177 0 295.5 89t153.5 247q34 159 -50 261t-261 102h-158z" />
    <glyph glyph-name="uni0157" unicode="&#x157;" horiz-adv-x="823" 
d="M762 1057q71 0 107 -38t22 -87q-10 -41 -39 -63t-66 -19q-25 2 -40.5 15.5t-22 28.5t-23.5 27.5t-45 12.5q-76 0 -153.5 -87.5t-104.5 -213.5l-102 -479q-13 -64 26.5 -89t147.5 -36l-6 -29h-518l6 29q50 8 81 18.5t57.5 37t35.5 69.5l141 665q18 81 -8 104t-108 9l6 29
l303 96h28l-57 -269q58 128 149.5 198.5t182.5 70.5zM-47 -514v16q155 72 197 160q-18 -6 -35 -6q-54 0 -86 35t-19 92q8 45 45 75.5t90 30.5q68 0 101 -40t20 -107q-23 -97 -105.5 -163t-207.5 -93z" />
    <glyph glyph-name="Rcaron" unicode="&#x158;" horiz-adv-x="1439" 
d="M-27 29q107 6 155 40.5t69 129.5l223 1054q21 94 -12.5 128t-137.5 40l6 29h562q250 0 378.5 -115t88.5 -309q-67 -303 -459 -373l262 -508q25 -49 75.5 -77t141.5 -37l-6 -31h-381q7 60 -16 109l-260 528h-187l-94 -438q-21 -98 13 -131t136 -39l-6 -29h-557zM487 694
h168q177 0 295.5 89t153.5 247q34 159 -50 261t-261 102h-158zM676 1907l22 16l215 -242l322 242l18 -16l-280 -324h-160z" />
    <glyph glyph-name="rcaron" unicode="&#x159;" horiz-adv-x="823" 
d="M762 1057q71 0 107 -38t22 -87q-10 -41 -39 -63t-66 -19q-25 2 -40.5 15.5t-22 28.5t-23.5 27.5t-45 12.5q-76 0 -153.5 -87.5t-104.5 -213.5l-102 -479q-13 -64 26.5 -89t147.5 -36l-6 -29h-518l6 29q50 8 81 18.5t57.5 37t35.5 69.5l141 665q18 81 -8 104t-108 9l6 29
l303 96h28l-57 -269q58 128 149.5 198.5t182.5 70.5zM373 1483l22 16l215 -242l322 242l18 -16l-280 -324h-160z" />
    <glyph glyph-name="Sacute" unicode="&#x15a;" horiz-adv-x="1167" 
d="M528 -31q-92 0 -168.5 20.5t-112 41t-66.5 30.5t-51 -10t-46 -82h-29l27 467h29q32 -199 140 -303t277 -104q119 0 208 69.5t112 184.5q15 71 5.5 128t-38.5 95t-71 71.5t-92.5 57t-103.5 51t-102.5 54t-90.5 65.5t-68 85.5t-34 115t11 153.5q30 138 157 230t306 92
q78 0 145.5 -16.5t100.5 -33t62 -24.5t47.5 8t39.5 66h29l-21 -418h-28q-17 172 -119.5 266t-255.5 94q-116 0 -194.5 -63t-100.5 -168q-14 -64 -3 -116t41 -87.5t73.5 -67t95 -55t105.5 -52t104.5 -56.5t92.5 -68.5t69.5 -89.5t34.5 -118.5t-11 -155.5
q-35 -160 -174.5 -258.5t-331.5 -98.5zM791 1581l208 338h203l-383 -338h-28z" />
    <glyph glyph-name="sacute" unicode="&#x15b;" horiz-adv-x="884" 
d="M389 -29q-66 0 -125.5 15.5t-90.5 31.5t-58 23.5t-42.5 -8.5t-29.5 -64h-29l19 346h28q24 -136 111 -211t213 -75q86 0 147 42.5t76 112.5q13 59 -2.5 106t-50.5 77t-82.5 58t-98 50.5t-97.5 54t-81 68t-47.5 93t1.5 128.5q24 111 118 174.5t226 63.5q58 0 111.5 -15.5
t82 -31t54 -23.5t40 7.5t25.5 62.5h29l-19 -318h-29q-27 123 -100.5 191.5t-185.5 68.5q-79 0 -134.5 -38t-70.5 -103q-11 -54 6 -96t53 -68.5t84 -53t98.5 -49t97 -55.5t79 -73t44.5 -102t-5 -142q-24 -116 -124 -182t-241 -66zM563 1157l209 338h203l-383 -338h-29z" />
    <glyph glyph-name="Scircumflex" unicode="&#x15c;" horiz-adv-x="1167" 
d="M528 -31q-92 0 -168.5 20.5t-112 41t-66.5 30.5t-51 -10t-46 -82h-29l27 467h29q32 -199 140 -303t277 -104q119 0 208 69.5t112 184.5q15 71 5.5 128t-38.5 95t-71 71.5t-92.5 57t-103.5 51t-102.5 54t-90.5 65.5t-68 85.5t-34 115t11 153.5q30 138 157 230t306 92
q78 0 145.5 -16.5t100.5 -33t62 -24.5t47.5 8t39.5 66h29l-21 -418h-28q-17 172 -119.5 266t-255.5 94q-116 0 -194.5 -63t-100.5 -168q-14 -64 -3 -116t41 -87.5t73.5 -67t95 -55t105.5 -52t104.5 -56.5t92.5 -68.5t69.5 -89.5t34.5 -118.5t-11 -155.5
q-35 -160 -174.5 -258.5t-331.5 -98.5zM520 1597l275 326h159l144 -326l-23 -14l-219 240l-317 -240z" />
    <glyph glyph-name="scircumflex" unicode="&#x15d;" horiz-adv-x="884" 
d="M389 -29q-66 0 -125.5 15.5t-90.5 31.5t-58 23.5t-42.5 -8.5t-29.5 -64h-29l19 346h28q24 -136 111 -211t213 -75q86 0 147 42.5t76 112.5q13 59 -2.5 106t-50.5 77t-82.5 58t-98 50.5t-97.5 54t-81 68t-47.5 93t1.5 128.5q24 111 118 174.5t226 63.5q58 0 111.5 -15.5
t82 -31t54 -23.5t40 7.5t25.5 62.5h29l-19 -318h-29q-27 123 -100.5 191.5t-185.5 68.5q-79 0 -134.5 -38t-70.5 -103q-11 -54 6 -96t53 -68.5t84 -53t98.5 -49t97 -55.5t79 -73t44.5 -102t-5 -142q-24 -116 -124 -182t-241 -66zM293 1174l274 325h160l143 -325l-22 -15
l-219 240l-318 -240z" />
    <glyph glyph-name="Scedilla" unicode="&#x15e;" horiz-adv-x="1167" 
d="M528 -31h-20l-72 -88q72 -4 107.5 -45t23.5 -102q-20 -99 -113.5 -142.5t-230.5 -15.5l4 21q84 -9 142.5 19t70.5 85q8 37 -21 65.5t-91 38.5l145 166q-77 5 -143 26.5t-96.5 39.5t-58.5 25t-47 -13.5t-44 -79.5h-29l27 467h29q32 -199 140 -303t277 -104q119 0 208 69.5
t112 184.5q15 71 5.5 128t-38.5 95t-71 71.5t-92.5 57t-103.5 51t-102.5 54t-90.5 65.5t-68 85.5t-34 115t11 153.5q30 138 157 230t306 92q78 0 145.5 -16.5t100.5 -33t62 -24.5t47.5 8t39.5 66h29l-21 -418h-28q-17 172 -119.5 266t-255.5 94q-116 0 -194.5 -63
t-100.5 -168q-14 -64 -3 -116t41 -87.5t73.5 -67t95 -55t105.5 -52t104.5 -56.5t92.5 -68.5t69.5 -89.5t34.5 -118.5t-11 -155.5q-35 -160 -174.5 -258.5t-331.5 -98.5z" />
    <glyph glyph-name="scedilla" unicode="&#x15f;" horiz-adv-x="884" 
d="M389 -29h-33l-73 -90q72 -4 107.5 -45t23.5 -102q-20 -99 -113.5 -142.5t-230.5 -15.5l4 21q84 -9 142.5 19t70.5 85q8 37 -21.5 65.5t-91.5 38.5l150 170q-50 7 -98 23.5t-72.5 28.5t-47.5 16t-36.5 -13t-26.5 -61h-29l19 346h28q24 -136 111 -211t213 -75
q86 0 147 42.5t76 112.5q13 59 -2.5 106t-50.5 77t-82.5 58t-98 50.5t-97.5 54t-81 68t-47.5 93t1.5 128.5q24 111 118 174.5t226 63.5q58 0 111.5 -15.5t82 -31t54 -23.5t40 7.5t25.5 62.5h29l-19 -318h-29q-27 123 -100.5 191.5t-185.5 68.5q-79 0 -134.5 -38t-70.5 -103
q-11 -54 6 -96t53 -68.5t84 -53t98.5 -49t97 -55.5t79 -73t44.5 -102t-5 -142q-24 -116 -124 -182t-241 -66z" />
    <glyph glyph-name="Scaron" unicode="&#x160;" horiz-adv-x="1167" 
d="M528 -31q-92 0 -168.5 20.5t-112 41t-66.5 30.5t-51 -10t-46 -82h-29l27 467h29q32 -199 140 -303t277 -104q119 0 208 69.5t112 184.5q15 71 5.5 128t-38.5 95t-71 71.5t-92.5 57t-103.5 51t-102.5 54t-90.5 65.5t-68 85.5t-34 115t11 153.5q30 138 157 230t306 92
q78 0 145.5 -16.5t100.5 -33t62 -24.5t47.5 8t39.5 66h29l-21 -418h-28q-17 172 -119.5 266t-255.5 94q-116 0 -194.5 -63t-100.5 -168q-14 -64 -3 -116t41 -87.5t73.5 -67t95 -55t105.5 -52t104.5 -56.5t92.5 -68.5t69.5 -89.5t34.5 -118.5t-11 -155.5
q-35 -160 -174.5 -258.5t-331.5 -98.5zM586 1907l22 16l215 -242l322 242l18 -16l-280 -324h-160z" />
    <glyph glyph-name="scaron" unicode="&#x161;" horiz-adv-x="884" 
d="M389 -29q-66 0 -125.5 15.5t-90.5 31.5t-58 23.5t-42.5 -8.5t-29.5 -64h-29l19 346h28q24 -136 111 -211t213 -75q86 0 147 42.5t76 112.5q13 59 -2.5 106t-50.5 77t-82.5 58t-98 50.5t-97.5 54t-81 68t-47.5 93t1.5 128.5q24 111 118 174.5t226 63.5q58 0 111.5 -15.5
t82 -31t54 -23.5t40 7.5t25.5 62.5h29l-19 -318h-29q-27 123 -100.5 191.5t-185.5 68.5q-79 0 -134.5 -38t-70.5 -103q-11 -54 6 -96t53 -68.5t84 -53t98.5 -49t97 -55.5t79 -73t44.5 -102t-5 -142q-24 -116 -124 -182t-241 -66zM356 1483l23 16l215 -242l321 242l19 -16
l-281 -324h-159z" />
    <glyph glyph-name="uni0162" unicode="&#x162;" horiz-adv-x="1277" 
d="M1370 1481h29l-21 -408h-28q-1 170 -68.5 245t-194.5 75h-169l-254 -1200q-19 -87 12.5 -122t136.5 -42l-6 -29h-219l-96 -119q72 -4 107.5 -45t23.5 -102q-20 -99 -113.5 -142.5t-230.5 -15.5l4 21q84 -9 142.5 19t70.5 85q8 37 -21.5 65.5t-91.5 38.5l170 195h-299
l6 29q107 7 153.5 42.5t65.5 121.5l254 1200h-168q-134 0 -229 -76.5t-168 -243.5h-29l152 408h28q8 -31 97 -31h846q89 0 108 31z" />
    <glyph glyph-name="uni0163" unicode="&#x163;" horiz-adv-x="712" 
d="M752 969h-291l-150 -699q-20 -98 8 -154t107 -53q75 3 143 68l13 -10q-36 -54 -94.5 -97t-120.5 -53l-74 -90q72 -4 107.5 -45t23.5 -102q-20 -99 -113.5 -142.5t-230.5 -15.5l4 21q84 -9 142.5 19t70.5 85q8 37 -21.5 65.5t-91.5 38.5l144 164q-113 3 -164 84.5
t-23 212.5l150 703h-166l6 28q132 31 223 104t146 193h28l-55 -268h291z" />
    <glyph glyph-name="Tcaron" unicode="&#x164;" horiz-adv-x="1277" 
d="M1370 1481h29l-21 -408h-28q-1 170 -68.5 245t-194.5 75h-169l-254 -1200q-19 -87 12.5 -122t136.5 -42l-6 -29h-553l6 29q107 7 153.5 42.5t65.5 121.5l254 1200h-168q-134 0 -229 -76.5t-168 -243.5h-29l152 408h28q8 -31 97 -31h846q89 0 108 31zM647 1907l23 16
l215 -242l321 242l19 -16l-281 -324h-160z" />
    <glyph glyph-name="tcaron" unicode="&#x165;" horiz-adv-x="712" 
d="M752 969h-291l-150 -699q-20 -98 8 -154t107 -53q75 3 143 68l13 -10q-42 -62 -109.5 -107t-136.5 -45q-118 0 -170.5 81.5t-24.5 215.5l150 703h-166l6 28q132 31 223 104t146 193h28l-55 -268h291zM606 1159l127 412h166l-264 -412h-29z" />
    <glyph glyph-name="Tbar" unicode="&#x166;" horiz-adv-x="1277" 
d="M1370 1481h29l-21 -408h-28q-1 170 -68.5 245t-194.5 75h-169l-136 -641h228l-13 -58h-227l-106 -501q-19 -87 12.5 -122t136.5 -42l-6 -29h-553l6 29q107 7 153.5 42.5t65.5 121.5l107 501h-230l13 58h229l135 641h-168q-134 0 -229 -76.5t-168 -243.5h-29l152 408h28
q8 -31 97 -31h846q89 0 108 31z" />
    <glyph glyph-name="tbar" unicode="&#x167;" horiz-adv-x="712" 
d="M752 969h-291l-72 -336h301l-12 -58h-301l-66 -305q-20 -98 8 -154t107 -53q75 3 143 68l13 -10q-42 -62 -109.5 -107t-136.5 -45q-118 0 -170.5 81.5t-24.5 215.5l66 309h-170l12 58h170l72 336h-166l6 28q132 31 223 104t146 193h28l-55 -268h291z" />
    <glyph glyph-name="Utilde" unicode="&#x168;" horiz-adv-x="1495" 
d="M1219 1421l6 29h428l-6 -29q-107 -11 -155 -43.5t-65 -107.5l-159 -760q-54 -247 -210.5 -394t-365.5 -147q-274 0 -397 143t-68 398l160 760q17 75 -16.5 107.5t-137.5 43.5l7 29h557l-6 -29q-107 -11 -155 -43.5t-65 -107.5l-159 -760q-46 -214 39 -343.5t270 -129.5
q181 0 312 128.5t177 344.5l160 760q17 75 -15.5 107.5t-135.5 43.5zM719 1602q55 245 201 245q41 0 89.5 -29.5t95 -59t81.5 -29.5q83 0 125 129l28 -5q-51 -243 -198 -243q-47 0 -139 58t-130 58q-83 0 -124 -129z" />
    <glyph glyph-name="utilde" unicode="&#x169;" horiz-adv-x="1206" 
d="M379 -31q-141 0 -206 95t-32 245l107 510q17 81 -10 104t-109 9l6 29l305 96h29l-156 -727q-24 -112 20.5 -176t141.5 -64q71 0 138.5 40t164.5 128l119 561q18 81 -9 104t-108 9l6 29l304 96h28l-192 -912q-9 -38 3 -60t40 -22q42 0 96 68l22 -10q-55 -85 -110.5 -118.5
t-99.5 -33.5q-59 0 -96.5 42t-28.5 116l18 82q-119 -126 -209 -183t-182 -57zM459 1178q55 245 200 245q41 0 90 -29.5t95 -59t82 -29.5q83 0 125 129l28 -4q-51 -244 -198 -244q-47 0 -139 58.5t-130 58.5q-84 0 -125 -129z" />
    <glyph glyph-name="Umacron" unicode="&#x16a;" horiz-adv-x="1495" 
d="M1219 1421l6 29h428l-6 -29q-107 -11 -155 -43.5t-65 -107.5l-159 -760q-54 -247 -210.5 -394t-365.5 -147q-274 0 -397 143t-68 398l160 760q17 75 -16.5 107.5t-137.5 43.5l7 29h557l-6 -29q-107 -11 -155 -43.5t-65 -107.5l-159 -760q-46 -214 39 -343.5t270 -129.5
q181 0 312 128.5t177 344.5l160 760q17 75 -15.5 107.5t-135.5 43.5zM748 1634l12 58h526l-12 -58h-526z" />
    <glyph glyph-name="umacron" unicode="&#x16b;" horiz-adv-x="1206" 
d="M379 -31q-141 0 -206 95t-32 245l107 510q17 81 -10 104t-109 9l6 29l305 96h29l-156 -727q-24 -112 20.5 -176t141.5 -64q71 0 138.5 40t164.5 128l119 561q18 81 -9 104t-108 9l6 29l304 96h28l-192 -912q-9 -38 3 -60t40 -22q42 0 96 68l22 -10q-55 -85 -110.5 -118.5
t-99.5 -33.5q-59 0 -96.5 42t-28.5 116l18 82q-119 -126 -209 -183t-182 -57zM485 1210l13 58h526l-12 -58h-527z" />
    <glyph glyph-name="Ubreve" unicode="&#x16c;" horiz-adv-x="1495" 
d="M1219 1421l6 29h428l-6 -29q-107 -11 -155 -43.5t-65 -107.5l-159 -760q-54 -247 -210.5 -394t-365.5 -147q-274 0 -397 143t-68 398l160 760q17 75 -16.5 107.5t-137.5 43.5l7 29h557l-6 -29q-107 -11 -155 -43.5t-65 -107.5l-159 -760q-46 -214 39 -343.5t270 -129.5
q181 0 312 128.5t177 344.5l160 760q17 75 -15.5 107.5t-135.5 43.5zM831 1931h31q-11 -103 33.5 -161t134.5 -58q91 0 160.5 58t101.5 161h31q-32 -161 -114 -251.5t-197 -90.5q-119 0 -167.5 91.5t-13.5 250.5z" />
    <glyph glyph-name="ubreve" unicode="&#x16d;" horiz-adv-x="1206" 
d="M379 -31q-141 0 -206 95t-32 245l107 510q17 81 -10 104t-109 9l6 29l305 96h29l-156 -727q-24 -112 20.5 -176t141.5 -64q71 0 138.5 40t164.5 128l119 561q18 81 -9 104t-108 9l6 29l304 96h28l-192 -912q-9 -38 3 -60t40 -22q42 0 96 68l22 -10q-55 -85 -110.5 -118.5
t-99.5 -33.5q-59 0 -96.5 42t-28.5 116l18 82q-119 -126 -209 -183t-182 -57zM571 1507h31q-11 -103 33.5 -161t134.5 -58q91 0 160.5 58t101.5 161h31q-32 -161 -114 -251.5t-197 -90.5q-119 0 -167.5 91.5t-13.5 250.5z" />
    <glyph glyph-name="Uring" unicode="&#x16e;" horiz-adv-x="1495" 
d="M1219 1421l6 29h428l-6 -29q-107 -11 -155 -43.5t-65 -107.5l-159 -760q-54 -247 -210.5 -394t-365.5 -147q-274 0 -397 143t-68 398l160 760q17 75 -16.5 107.5t-137.5 43.5l7 29h557l-6 -29q-107 -11 -155 -43.5t-65 -107.5l-159 -760q-46 -214 39 -343.5t270 -129.5
q181 0 312 128.5t177 344.5l160 760q17 75 -15.5 107.5t-135.5 43.5zM836 1749q10 82 73.5 135t149.5 53t136.5 -53t41.5 -135q-12 -82 -75 -135t-148 -53q-88 0 -138 53t-40 135zM913 1751q-7 -55 21.5 -91t81.5 -36q54 0 94 35.5t49 91.5q8 54 -21 89.5t-83 35.5
q-52 0 -92.5 -35.5t-49.5 -89.5z" />
    <glyph glyph-name="uring" unicode="&#x16f;" horiz-adv-x="1206" 
d="M379 -31q-141 0 -206 95t-32 245l107 510q17 81 -10 104t-109 9l6 29l305 96h29l-156 -727q-24 -112 20.5 -176t141.5 -64q71 0 138.5 40t164.5 128l119 561q18 81 -9 104t-108 9l6 29l304 96h28l-192 -912q-9 -38 3 -60t40 -22q42 0 96 68l22 -10q-55 -85 -110.5 -118.5
t-99.5 -33.5q-59 0 -96.5 42t-28.5 116l18 82q-119 -126 -209 -183t-182 -57zM575 1325q10 82 74 135t150 53t136.5 -53t41.5 -135q-12 -82 -75 -135t-148 -53q-88 0 -138.5 53t-40.5 135zM653 1327q-7 -55 21.5 -91t81.5 -36q54 0 94 35.5t49 91.5q8 54 -21 89.5t-83 35.5
q-52 0 -92.5 -35.5t-49.5 -89.5z" />
    <glyph glyph-name="Uhungarumlaut" unicode="&#x170;" horiz-adv-x="1495" 
d="M1219 1421l6 29h428l-6 -29q-107 -11 -155 -43.5t-65 -107.5l-159 -760q-54 -247 -210.5 -394t-365.5 -147q-274 0 -397 143t-68 398l160 760q17 75 -16.5 107.5t-137.5 43.5l7 29h557l-6 -29q-107 -11 -155 -43.5t-65 -107.5l-159 -760q-46 -214 39 -343.5t270 -129.5
q181 0 312 128.5t177 344.5l160 760q17 75 -15.5 107.5t-135.5 43.5zM831 1579l205 330h160l-336 -330h-29zM1079 1579l205 330h162l-336 -330h-31z" />
    <glyph glyph-name="uhungarumlaut" unicode="&#x171;" horiz-adv-x="1206" 
d="M379 -31q-141 0 -206 95t-32 245l107 510q17 81 -10 104t-109 9l6 29l305 96h29l-156 -727q-24 -112 20.5 -176t141.5 -64q71 0 138.5 40t164.5 128l119 561q18 81 -9 104t-108 9l6 29l304 96h28l-192 -912q-9 -38 3 -60t40 -22q42 0 96 68l22 -10q-55 -85 -110.5 -118.5
t-99.5 -33.5q-59 0 -96.5 42t-28.5 116l18 82q-119 -126 -209 -183t-182 -57zM571 1155l205 330h160l-336 -330h-29zM819 1155l205 330h162l-336 -330h-31z" />
    <glyph glyph-name="Uogonek" unicode="&#x172;" horiz-adv-x="1495" 
d="M1219 1421l6 29h428l-6 -29q-107 -11 -155 -43.5t-65 -107.5l-159 -760q-47 -216 -174 -357t-301 -173q-201 -162 -222 -273q-12 -58 15.5 -88t85 -23.5t127.5 48.5l10 -19q-52 -52 -111 -77t-110 -25q-85 0 -126.5 41t-27.5 110q30 141 273 295h-15q-274 0 -397 143
t-68 398l160 760q17 75 -16.5 107.5t-137.5 43.5l7 29h557l-6 -29q-107 -11 -155 -43.5t-65 -107.5l-159 -760q-46 -214 39 -343.5t270 -129.5q181 0 312 128.5t177 344.5l160 760q17 75 -15.5 107.5t-135.5 43.5z" />
    <glyph glyph-name="uogonek" unicode="&#x173;" horiz-adv-x="1206" 
d="M379 -31q-141 0 -206 95t-32 245l107 510q17 81 -10 104t-109 9l6 29l305 96h29l-156 -727q-24 -112 20.5 -176t141.5 -64q71 0 138.5 40t164.5 128l119 561q18 81 -9 104t-108 9l6 29l304 96h28l-192 -912q-9 -38 3 -60t40 -22q42 0 96 68l22 -10q-66 -102 -141 -135
q-170 -146 -192 -248q-19 -89 50.5 -108.5t176.5 44.5l10 -18q-52 -52 -111 -77t-110 -25q-85 0 -126.5 41t-27.5 110q26 126 230 268q-47 10 -74 50t-20 104l18 82q-119 -126 -209 -183t-182 -57z" />
    <glyph glyph-name="Wcircumflex" unicode="&#x174;" horiz-adv-x="2199" 
d="M367 1206q-18 112 -53.5 163t-108.5 52l6 29h541l-7 -29q-121 -1 -161 -46t-23 -152l141 -963l508 897l-18 88q-18 88 -53.5 131.5t-100.5 44.5l6 29h543l-6 -29q-124 0 -163.5 -45t-24.5 -153l141 -963l551 963q64 103 44.5 150t-144.5 48l6 29h395l-6 -29
q-65 -2 -120 -50.5t-124 -166.5l-717 -1235h-26l-170 1104l-635 -1104h-27zM1059 1597l274 326h160l143 -326l-22 -14l-219 240l-318 -240z" />
    <glyph glyph-name="wcircumflex" unicode="&#x175;" horiz-adv-x="1644" 
d="M1430 997l6 29h309l-6 -29q-46 -7 -83 -38t-75 -93l-555 -897h-27l-137 711l-440 -711h-27l-168 893q-22 113 -114 135l6 29h432l-6 -29q-88 -13 -122 -45.5t-26 -79.5l115 -667l338 549l-21 114q-25 111 -112 129l6 29h430l-6 -29q-87 -13 -121.5 -47.5t-24.5 -83.5
l117 -661l406 663q64 102 -94 129zM694 1174l275 325h159l144 -325l-23 -15l-219 240l-317 -240z" />
    <glyph glyph-name="Ycircumflex" unicode="&#x176;" horiz-adv-x="1390" 
d="M1139 1450h438l-6 -29q-104 -10 -164 -45t-115 -110l-465 -643l-90 -428q-19 -88 12.5 -122t135.5 -42l-6 -31h-553l6 31q109 8 155.5 42t65.5 122l84 403l-234 662q-20 56 -37.5 84.5t-56.5 49t-106 27.5l6 29h563l-6 -29q-109 -11 -153 -47.5t-21 -103.5l207 -598
l430 598q51 67 29 104t-125 47zM662 1597l274 326h160l143 -326l-22 -14l-220 240l-317 -240z" />
    <glyph glyph-name="ycircumflex" unicode="&#x177;" horiz-adv-x="1085" 
d="M-6 -434q-74 0 -123 33t-37 86q8 39 39 65.5t72 26.5q26 0 81 -34t101 -34q61 0 117.5 46.5t115.5 144.5l56 90l-178 870q-27 128 -113 137l6 29h436l-6 -29q-88 -6 -124.5 -40t-24.5 -97l127 -667l407 667q38 65 19.5 98t-95.5 39l7 29h311l-6 -29q-92 -9 -174 -137
l-598 -979q-37 -63 -79 -115.5t-94.5 -99.5t-115 -73.5t-127.5 -26.5zM424 1174l274 325h160l143 -325l-22 -15l-219 240l-318 -240z" />
    <glyph glyph-name="Ydieresis" unicode="&#x178;" horiz-adv-x="1390" 
d="M1139 1450h438l-6 -29q-104 -10 -164 -45t-115 -110l-465 -643l-90 -428q-19 -88 12.5 -122t135.5 -42l-6 -31h-553l6 31q109 8 155.5 42t65.5 122l84 403l-234 662q-20 56 -37.5 84.5t-56.5 49t-106 27.5l6 29h563l-6 -29q-109 -11 -153 -47.5t-21 -103.5l207 -598
l430 598q51 67 29 104t-125 47zM684 1751q6 48 43.5 81.5t89.5 33.5q49 0 79 -33.5t24 -81.5q-6 -49 -44 -83t-88 -34q-51 0 -80.5 33.5t-23.5 83.5zM1042 1751q6 48 45 81.5t91 33.5q49 0 78.5 -33.5t23.5 -81.5q-6 -50 -44 -83.5t-87 -33.5q-52 0 -82.5 33.5t-24.5 83.5z
" />
    <glyph glyph-name="Zacute" unicode="&#x179;" horiz-adv-x="1189" 
d="M1325 1450l-6 -31l-1124 -1362h471q142 0 237 74.5t170 245.5h29l-150 -408h-28q-8 31 -97 31h-890l6 31l1124 1362h-410q-143 0 -238.5 -75t-170.5 -245h-29l152 408h28q8 -31 97 -31h829zM836 1581l208 338h203l-383 -338h-28z" />
    <glyph glyph-name="zacute" unicode="&#x17a;" horiz-adv-x="960" 
d="M1001 1026l-6 -29l-811 -940h340q90 0 164 68t139 215h29l-117 -340h-800l6 29l811 940h-316q-87 0 -156 -57.5t-137 -192.5h-28l94 307h788zM618 1157l209 338h203l-383 -338h-29z" />
    <glyph glyph-name="Zdotaccent" unicode="&#x17b;" horiz-adv-x="1189" 
d="M1325 1450l-6 -31l-1124 -1362h471q142 0 237 74.5t170 245.5h29l-150 -408h-28q-8 31 -97 31h-890l6 31l1124 1362h-410q-143 0 -238.5 -75t-170.5 -245h-29l152 408h28q8 -31 97 -31h829zM748 1759q6 53 47 88t96 35q53 0 84.5 -35.5t25.5 -87.5t-46.5 -87.5
t-94.5 -35.5q-55 0 -87.5 35t-24.5 88z" />
    <glyph glyph-name="zdotaccent" unicode="&#x17c;" horiz-adv-x="960" 
d="M1001 1026l-6 -29l-811 -940h340q90 0 164 68t139 215h29l-117 -340h-800l6 29l811 940h-316q-87 0 -156 -57.5t-137 -192.5h-28l94 307h788zM530 1335q6 53 47.5 88t96.5 35q53 0 84.5 -35.5t25.5 -87.5t-46.5 -87.5t-94.5 -35.5q-56 0 -88 35.5t-25 87.5z" />
    <glyph glyph-name="Zcaron" unicode="&#x17d;" horiz-adv-x="1189" 
d="M1325 1450l-6 -31l-1124 -1362h471q142 0 237 74.5t170 245.5h29l-150 -408h-28q-8 31 -97 31h-890l6 31l1124 1362h-410q-143 0 -238.5 -75t-170.5 -245h-29l152 408h28q8 -31 97 -31h829zM631 1907l22 16l215 -242l322 242l18 -16l-280 -324h-160z" />
    <glyph glyph-name="zcaron" unicode="&#x17e;" horiz-adv-x="960" 
d="M1001 1026l-6 -29l-811 -940h340q90 0 164 68t139 215h29l-117 -340h-800l6 29l811 940h-316q-87 0 -156 -57.5t-137 -192.5h-28l94 307h788zM414 1483l22 16l215 -242l322 242l18 -16l-280 -324h-160z" />
    <glyph glyph-name="longs" unicode="&#x17f;" horiz-adv-x="815" 
d="M774 1493q67 0 127.5 -16.5t101 -53.5t33.5 -86q-4 -43 -33.5 -66.5t-72.5 -21.5q-37 1 -56 20.5t-25.5 47t-13 54.5t-27.5 46t-60 19q-78 0 -137 -80.5t-85 -204.5l-213 -997q-7 -35 0 -57.5t33 -36t56 -19.5t85 -12l-6 -29h-518l6 29q76 12 119 37.5t57 87.5l172 815
h-172l13 57h172l24 113q29 116 94 197.5t148 119t178 37.5z" />
    <glyph glyph-name="florin" unicode="&#x192;" horiz-adv-x="1132" 
d="M305 715l12 57h252l64 299q41 201 158 305.5t270 104.5q61 0 116 -13.5t92.5 -48t26.5 -84.5q-9 -48 -55 -70t-80 -1q-23 9 -35 29t-16.5 41.5t-11.5 42t-27 33.5t-55 13q-138 0 -203 -305l-74 -346h250l-12 -57h-250l-74 -344q-41 -195 -159 -297.5t-269 -102.5
q-60 0 -114.5 13.5t-92 48t-26.5 84.5q10 48 55 70t80 1q23 -9 35 -29t16.5 -41.5t11.5 -42t27 -33.5t55 -13q138 0 203 305l82 381h-252z" />
    <glyph glyph-name="Aringacute" unicode="&#x1fa;" horiz-adv-x="1503" 
d="M1206 246q25 -119 66 -168t117 -49l-7 -29h-573l6 29q138 0 184.5 44.5t24.5 153.5l-47 254h-598l-156 -254q-68 -109 -41 -153.5t160 -44.5l-6 -29h-434l6 29q73 0 131.5 48.5t134.5 168.5l762 1235h29zM416 539h549l-129 688zM801 1749q10 82 73.5 135t149.5 53
t136.5 -53t41.5 -135q-12 -82 -75 -135t-148 -53q-88 0 -138 53t-40 135zM879 1751q-8 -56 21 -91.5t81 -35.5q54 0 94 35.5t49 91.5q8 54 -21 89.5t-83 35.5q-52 0 -92 -35.5t-49 -89.5zM1044 1999l209 338h203l-383 -338h-29z" />
    <glyph glyph-name="aringacute" unicode="&#x1fb;" 
d="M291 -31q-124 0 -194 84.5t-44 210.5q62 282 490 324l178 18l18 92q30 137 -16.5 219t-157.5 82q-118 0 -178.5 -60.5t-58.5 -143.5q6 -112 -80 -131q-43 -9 -70.5 21.5t-15.5 86.5q10 46 41 93.5t82 91.5t132 72t177 28q178 0 263 -100.5t50 -268.5l-114 -543
q-7 -38 4.5 -60t38.5 -22q45 0 96 68l22 -10q-37 -59 -80 -95t-72.5 -46.5t-56.5 -10.5q-59 0 -96 41t-28 113l20 100q-147 -254 -350 -254zM233 285q-17 -86 26.5 -142.5t123.5 -56.5q138 0 266 188l60 275l-164 -21q-264 -29 -312 -243zM444 1325q10 82 74 135t150 53
t136.5 -53t41.5 -135q-12 -82 -75 -135t-148 -53q-88 0 -138.5 53t-40.5 135zM522 1327q-7 -55 21.5 -91t81.5 -36q54 0 94 35.5t49 91.5q8 54 -21 89.5t-83 35.5q-52 0 -92.5 -35.5t-49.5 -89.5zM688 1577l209 338h203l-383 -338h-29z" />
    <glyph glyph-name="AEacute" unicode="&#x1fc;" horiz-adv-x="2035" 
d="M2068 1481h29l-22 -408h-29q-3 170 -66.5 245t-205.5 75h-369l-133 -621h268q90 0 137 48.5t62 160.5h28l-34 -475h-29q-3 111 -41 160t-117 49h-286l-109 -522q-15 -74 4.5 -105t83.5 -31h289q132 0 226.5 77.5t166.5 244.5h29l-133 -379h-1080l6 29q108 10 155.5 43
t64.5 108l63 301h-524l-217 -254q-44 -53 -63 -89t-14 -61t39.5 -36.5t100.5 -11.5l-6 -29h-440l6 29q72 0 147.5 52.5t171.5 164.5l955 1128q-30 35 -142 47l7 29h913q89 0 108 31zM549 539h489l156 731l6 41zM1518 1581l208 338h203l-383 -338h-28z" />
    <glyph glyph-name="aeacute" unicode="&#x1fd;" horiz-adv-x="1640" 
d="M1083 -29q-149 0 -249.5 84.5t-131.5 227.5q-79 -151 -182.5 -232.5t-222.5 -81.5q-125 0 -197.5 84.5t-46.5 210.5q62 282 490 324l174 18q2 5 5 15.5t5 15.5l12 61q30 137 -16.5 219t-157.5 82q-118 0 -178.5 -60.5t-58.5 -143.5q6 -111 -82 -131q-43 -9 -69.5 21.5
t-14.5 86.5q10 46 41 93.5t82 91.5t132 72t177 28q113 0 189.5 -42t109.5 -118q167 160 383 160q192 0 270 -122t19 -317h-670l-4 -16q-24 -107 -14.5 -199t43.5 -160t99 -106.5t152 -38.5q88 0 172.5 56.5t131.5 148.5l26 -6q-57 -152 -164.5 -239t-253.5 -87zM233 285
q-17 -86 26.5 -142.5t123.5 -56.5q88 0 171.5 67.5t139.5 176.5q-14 93 8 219l-157 -21q-264 -29 -312 -243zM907 666h498q36 136 -7 234.5t-149 98.5q-121 0 -210 -90.5t-132 -242.5zM971 1157l209 338h202l-383 -338h-28z" />
    <glyph glyph-name="uni0218" unicode="&#x218;" horiz-adv-x="1167" 
d="M528 -31q-92 0 -168.5 20.5t-112 41t-66.5 30.5t-51 -10t-46 -82h-29l27 467h29q32 -199 140 -303t277 -104q119 0 208 69.5t112 184.5q15 71 5.5 128t-38.5 95t-71 71.5t-92.5 57t-103.5 51t-102.5 54t-90.5 65.5t-68 85.5t-34 115t11 153.5q30 138 157 230t306 92
q78 0 145.5 -16.5t100.5 -33t62 -24.5t47.5 8t39.5 66h29l-21 -418h-28q-17 172 -119.5 266t-255.5 94q-116 0 -194.5 -63t-100.5 -168q-14 -64 -3 -116t41 -87.5t73.5 -67t95 -55t105.5 -52t104.5 -56.5t92.5 -68.5t69.5 -89.5t34.5 -118.5t-11 -155.5
q-35 -160 -174.5 -258.5t-331.5 -98.5zM240 -514v16q154 71 196 160q-18 -6 -35 -6q-54 0 -85.5 34.5t-18.5 92.5q8 45 45 75.5t90 30.5q68 0 101 -40t20 -107q-23 -97 -105.5 -163t-207.5 -93z" />
    <glyph glyph-name="uni0219" unicode="&#x219;" horiz-adv-x="884" 
d="M389 -29q-66 0 -125.5 15.5t-90.5 31.5t-58 23.5t-42.5 -8.5t-29.5 -64h-29l19 346h28q24 -136 111 -211t213 -75q86 0 147 42.5t76 112.5q13 59 -2.5 106t-50.5 77t-82.5 58t-98 50.5t-97.5 54t-81 68t-47.5 93t1.5 128.5q24 111 118 174.5t226 63.5q58 0 111.5 -15.5
t82 -31t54 -23.5t40 7.5t25.5 62.5h29l-19 -318h-29q-27 123 -100.5 191.5t-185.5 68.5q-79 0 -134.5 -38t-70.5 -103q-11 -54 6 -96t53 -68.5t84 -53t98.5 -49t97 -55.5t79 -73t44.5 -102t-5 -142q-24 -116 -124 -182t-241 -66zM86 -514v16q155 72 197 160q-18 -6 -35 -6
q-54 0 -86 35t-19 92q8 45 45.5 75.5t90.5 30.5q68 0 100.5 -40t19.5 -107q-23 -97 -105.5 -163t-207.5 -93z" />
    <glyph glyph-name="uni021A" unicode="&#x21a;" horiz-adv-x="1277" 
d="M1370 1481h29l-21 -408h-28q-1 170 -68.5 245t-194.5 75h-169l-254 -1200q-19 -87 12.5 -122t136.5 -42l-6 -29h-553l6 29q107 7 153.5 42.5t65.5 121.5l254 1200h-168q-134 0 -229 -76.5t-168 -243.5h-29l152 408h28q8 -31 97 -31h846q89 0 108 31zM295 -514v16
q155 72 197 160q-18 -6 -35 -6q-54 0 -86 35t-19 92q8 45 45 75.5t90 30.5q68 0 101 -40t20 -107q-23 -97 -105.5 -163t-207.5 -93z" />
    <glyph glyph-name="uni021B" unicode="&#x21b;" horiz-adv-x="712" 
d="M752 969h-291l-150 -699q-20 -98 8 -154t107 -53q75 3 143 68l13 -10q-42 -62 -109.5 -107t-136.5 -45q-118 0 -170.5 81.5t-24.5 215.5l150 703h-166l6 28q132 31 223 104t146 193h28l-55 -268h291zM96 -514v16q155 72 197 160q-18 -6 -35 -6q-54 0 -85.5 34.5
t-18.5 92.5q8 45 45 75.5t90 30.5q68 0 101 -40t20 -107q-23 -97 -106 -163t-208 -93z" />
    <glyph glyph-name="uni0237" unicode="&#x237;" horiz-adv-x="546" 
d="M475 1057h29l-203 -957q-24 -112 -58.5 -194t-90.5 -150t-138 -114t-196 -76l-6 22q61 25 104 56t82 82t67.5 127.5t51.5 185.5l168 780q17 81 -10 104t-109 9l6 29z" />
    <glyph glyph-name="uni02B9" unicode="&#x2b9;" horiz-adv-x="333" 
d="M289 1452q-3 57 22.5 93t73.5 36q50 0 67.5 -36.5t-8.5 -92.5l-149 -397h-29z" />
    <glyph glyph-name="uni02BA" unicode="&#x2ba;" horiz-adv-x="608" 
d="M563 1452q-3 57 22.5 93t73.5 36q50 0 68 -36.5t-8 -92.5l-150 -397h-28zM266 1055l23 397q-3 57 22.5 93t73.5 36q50 0 67.5 -36.5t-8.5 -92.5l-149 -397h-29z" />
    <glyph glyph-name="circumflex" unicode="&#x2c6;" horiz-adv-x="987" 
d="M903 1169l-221 240l-317 -240l-17 15l275 325h159l144 -325z" />
    <glyph glyph-name="caron" unicode="&#x2c7;" horiz-adv-x="987" 
d="M971 1499l18 -16l-280 -324h-160l-137 324l22 16l215 -242z" />
    <glyph glyph-name="breve" unicode="&#x2d8;" horiz-adv-x="899" 
d="M586 1165q-118 0 -162.5 89t-7.5 253h30q-12 -106 32 -162.5t136 -56.5q93 0 162 57t101 162h30q-34 -165 -117 -253.5t-204 -88.5z" />
    <glyph glyph-name="dotaccent" unicode="&#x2d9;" horiz-adv-x="663" 
d="M481 1212q-55 0 -83.5 35t-16.5 88q9 52 53.5 87.5t100.5 35.5q53 0 81 -35t19 -88q-12 -53 -56 -88t-98 -35z" />
    <glyph glyph-name="ring" unicode="&#x2da;" horiz-adv-x="811" 
d="M539 1139q-86 0 -131.5 54t-28.5 134q17 82 85 135.5t154 53.5q87 0 133 -53.5t29 -135.5q-17 -80 -86 -134t-155 -54zM457 1329q-11 -56 15.5 -91.5t80.5 -35.5q53 0 95 36t54 91q11 54 -16.5 89.5t-79.5 35.5t-94.5 -35.5t-54.5 -89.5z" />
    <glyph glyph-name="ogonek" unicode="&#x2db;" horiz-adv-x="796" 
d="M188 -434q-84 0 -125.5 41t-27.5 110q11 52 51 106t100 102t125 89t138 78l10 -20q-113 -82 -193 -167t-94 -155q-12 -58 15.5 -88t84.5 -23.5t127 48.5l11 -19q-52 -52 -111.5 -77t-110.5 -25z" />
    <glyph glyph-name="tilde" unicode="&#x2dc;" horiz-adv-x="974" 
d="M346 1178q26 115 79 180t132 65q40 0 87.5 -28.5t92.5 -57t78 -28.5q77 0 123 125l27 -2q-57 -250 -207 -250q-44 0 -92 28.5t-91.5 57t-76.5 28.5q-84 0 -123 -122z" />
    <glyph glyph-name="hungarumlaut" unicode="&#x2dd;" horiz-adv-x="954" 
d="M371 1157h-29l205 330h160zM590 1157l205 330h161l-335 -330h-31z" />
    <glyph glyph-name="uni0394" unicode="&#x394;" horiz-adv-x="1503" 
d="M979 1450l342 -1450h-1360l957 1450h61zM66 57h1183l-311 1323z" />
    <glyph glyph-name="uni03A9" unicode="&#x3a9;" horiz-adv-x="1548" 
d="M10 0l13 57h397q-158 103 -242 307.5t-41 413.5q43 199 162.5 360t291.5 252t363 91q202 0 347 -91t204 -252t17 -360q-44 -212 -208 -417t-370 -304h383l-12 -57h-471l12 59q217 100 389.5 304.5t216.5 414.5q39 183 -14 332t-183.5 233t-310.5 84q-177 0 -336 -84
t-269 -232t-150 -333q-27 -144 -0.5 -280.5t105.5 -254t192 -184.5l-13 -59h-473z" />
    <glyph glyph-name="uni03BC" unicode="&#x3bc;" horiz-adv-x="1091" 
d="M1004 1026h61l-219 -1026h-62l60 279q-80 -143 -202.5 -225.5t-256.5 -82.5q-103 0 -174 46.5t-90 127.5l-119 -548h-61l307 1429h61l-151 -702q-26 -124 42 -208t197 -83q114 1 218.5 65.5t177.5 173.5t100 240z" />
    <glyph glyph-name="pi" unicode="&#x3c0;" horiz-adv-x="1198" 
d="M1214 973h-215l-153 -725q-22 -104 9 -161t108 -52l-19 -45q-98 0 -142 66t-20 186l156 731h-479l-209 -973h-62l209 973h-217l13 53h1034z" />
    <glyph glyph-name="Wgrave" unicode="&#x1e80;" horiz-adv-x="2199" 
d="M367 1206q-18 112 -53.5 163t-108.5 52l6 29h541l-7 -29q-121 -1 -161 -46t-23 -152l141 -963l508 897l-18 88q-18 88 -53.5 131.5t-100.5 44.5l6 29h543l-6 -29q-124 0 -163.5 -45t-24.5 -153l141 -963l551 963q64 103 44.5 150t-144.5 48l6 29h395l-6 -29
q-65 -2 -120 -50.5t-124 -166.5l-717 -1235h-26l-170 1104l-635 -1104h-27zM1100 1917h205l63 -338h-29z" />
    <glyph glyph-name="wgrave" unicode="&#x1e81;" horiz-adv-x="1644" 
d="M1430 997l6 29h309l-6 -29q-46 -7 -83 -38t-75 -93l-555 -897h-27l-137 711l-440 -711h-27l-168 893q-22 113 -114 135l6 29h432l-6 -29q-88 -13 -122 -45.5t-26 -79.5l115 -667l338 549l-21 114q-25 111 -112 129l6 29h430l-6 -29q-87 -13 -121.5 -47.5t-24.5 -83.5
l117 -661l406 663q64 102 -94 129zM735 1493h205l64 -338h-29z" />
    <glyph glyph-name="Wacute" unicode="&#x1e82;" horiz-adv-x="2199" 
d="M367 1206q-18 112 -53.5 163t-108.5 52l6 29h541l-7 -29q-121 -1 -161 -46t-23 -152l141 -963l508 897l-18 88q-18 88 -53.5 131.5t-100.5 44.5l6 29h543l-6 -29q-124 0 -163.5 -45t-24.5 -153l141 -963l551 963q64 103 44.5 150t-144.5 48l6 29h395l-6 -29
q-65 -2 -120 -50.5t-124 -166.5l-717 -1235h-26l-170 1104l-635 -1104h-27zM1329 1581l209 338h203l-383 -338h-29z" />
    <glyph glyph-name="wacute" unicode="&#x1e83;" horiz-adv-x="1644" 
d="M1430 997l6 29h309l-6 -29q-46 -7 -83 -38t-75 -93l-555 -897h-27l-137 711l-440 -711h-27l-168 893q-22 113 -114 135l6 29h432l-6 -29q-88 -13 -122 -45.5t-26 -79.5l115 -667l338 549l-21 114q-25 111 -112 129l6 29h430l-6 -29q-87 -13 -121.5 -47.5t-24.5 -83.5
l117 -661l406 663q64 102 -94 129zM965 1157l209 338h202l-383 -338h-28z" />
    <glyph glyph-name="Wdieresis" unicode="&#x1e84;" horiz-adv-x="2199" 
d="M367 1206q-18 112 -53.5 163t-108.5 52l6 29h541l-7 -29q-121 -1 -161 -46t-23 -152l141 -963l508 897l-18 88q-18 88 -53.5 131.5t-100.5 44.5l6 29h543l-6 -29q-124 0 -163.5 -45t-24.5 -153l141 -963l551 963q64 103 44.5 150t-144.5 48l6 29h395l-6 -29
q-65 -2 -120 -50.5t-124 -166.5l-717 -1235h-26l-170 1104l-635 -1104h-27zM1081 1751q6 48 43.5 81.5t89.5 33.5q49 0 79 -33.5t24 -81.5q-6 -50 -44 -83.5t-87 -33.5q-51 0 -81 33.5t-24 83.5zM1440 1751q6 48 44.5 81.5t90.5 33.5q49 0 78.5 -33.5t23.5 -81.5
q-6 -50 -44 -83.5t-87 -33.5q-52 0 -82 33.5t-24 83.5z" />
    <glyph glyph-name="wdieresis" unicode="&#x1e85;" horiz-adv-x="1644" 
d="M1430 997l6 29h309l-6 -29q-46 -7 -83 -38t-75 -93l-555 -897h-27l-137 711l-440 -711h-27l-168 893q-22 113 -114 135l6 29h432l-6 -29q-88 -13 -122 -45.5t-26 -79.5l115 -667l338 549l-21 114q-25 111 -112 129l6 29h430l-6 -29q-87 -13 -121.5 -47.5t-24.5 -83.5
l117 -661l406 663q64 102 -94 129zM717 1327q6 48 43.5 81.5t89.5 33.5q49 0 78.5 -33.5t23.5 -81.5q-6 -50 -44 -83.5t-87 -33.5q-51 0 -80.5 33.5t-23.5 83.5zM1075 1327q6 48 44.5 81.5t90.5 33.5q49 0 79 -33.5t24 -81.5q-6 -50 -44 -83.5t-87 -33.5q-52 0 -82.5 33.5
t-24.5 83.5z" />
    <glyph glyph-name="uni1E9E" unicode="&#x1e9e;" horiz-adv-x="1454" 
d="M938 776q94 14 175.5 -7.5t137.5 -75.5t78.5 -139t-2.5 -198q-37 -172 -167.5 -278.5t-305.5 -106.5q-156 0 -251 79.5t-101 211.5l28 10q15 -84 94 -136t185 -52q118 0 206.5 79t114.5 204q41 195 -71.5 293t-327.5 61l-10 39l522 520q-39 65 -123.5 104t-175.5 39
q-143 0 -249.5 -92.5t-145.5 -277.5l-225 -1053h-357l6 29q96 5 140.5 35t62.5 112l176 823q26 118 84.5 211t139 152t176 89.5t198.5 29.5q155 -2 299.5 -66t186.5 -158z" />
    <glyph glyph-name="Ygrave" unicode="&#x1ef2;" horiz-adv-x="1390" 
d="M1139 1450h438l-6 -29q-104 -10 -164 -45t-115 -110l-465 -643l-90 -428q-19 -88 12.5 -122t135.5 -42l-6 -31h-553l6 31q109 8 155.5 42t65.5 122l84 403l-234 662q-20 56 -37.5 84.5t-56.5 49t-106 27.5l6 29h563l-6 -29q-109 -11 -153 -47.5t-21 -103.5l207 -598
l430 598q51 67 29 104t-125 47zM702 1917h205l64 -338h-29z" />
    <glyph glyph-name="ygrave" unicode="&#x1ef3;" horiz-adv-x="1085" 
d="M-6 -434q-74 0 -123 33t-37 86q8 39 39 65.5t72 26.5q26 0 81 -34t101 -34q61 0 117.5 46.5t115.5 144.5l56 90l-178 870q-27 128 -113 137l6 29h436l-6 -29q-88 -6 -124.5 -40t-24.5 -97l127 -667l407 667q38 65 19.5 98t-95.5 39l7 29h311l-6 -29q-92 -9 -174 -137
l-598 -979q-37 -63 -79 -115.5t-94.5 -99.5t-115 -73.5t-127.5 -26.5zM465 1493h205l63 -338h-28z" />
    <glyph glyph-name="endash" unicode="&#x2013;" horiz-adv-x="888" 
d="M799 573l-13 -55h-684l13 55h684z" />
    <glyph glyph-name="emdash" unicode="&#x2014;" horiz-adv-x="1638" 
d="M1548 573l-12 -55h-1434l13 55h1433z" />
    <glyph glyph-name="quoteleft" unicode="&#x2018;" horiz-adv-x="438" 
d="M350 1051q-73 0 -108 52.5t-15 143.5q26 121 118 205.5t228 124.5l2 -23q-83 -40 -151.5 -103t-89.5 -148q65 36 123 -9t41 -123q-11 -52 -51 -86t-97 -34z" />
    <glyph glyph-name="quoteright" unicode="&#x2019;" horiz-adv-x="438" 
d="M426 1569q73 0 108 -53t15 -144q-26 -121 -118 -205.5t-228 -124.5l-2 23q83 40 151.5 103.5t89.5 148.5q-65 -36 -122.5 8.5t-40.5 122.5q11 53 50.5 87t96.5 34z" />
    <glyph glyph-name="quotesinglbase" unicode="&#x201a;" horiz-adv-x="438" 
d="M139 238q73 0 108 -53t15 -144q-26 -121 -118 -205.5t-228 -124.5l-2 23q83 40 152 103.5t90 148.5q-45 -20 -86 -10.5t-65 50t-13 91.5q11 53 50.5 87t96.5 34z" />
    <glyph glyph-name="quotedblleft" unicode="&#x201c;" horiz-adv-x="819" 
d="M350 1051q-73 0 -108 52.5t-15 143.5q26 121 118 205.5t228 124.5l2 -23q-83 -40 -151.5 -103t-89.5 -148q65 36 123 -9t41 -123q-11 -52 -51 -86t-97 -34zM608 1247q26 121 118 205.5t228 124.5l2 -23q-83 -40 -151.5 -103t-89.5 -148q65 36 123 -9t41 -123
q-11 -52 -51 -86t-97 -34q-73 0 -108 52.5t-15 143.5z" />
    <glyph glyph-name="quotedblright" unicode="&#x201d;" horiz-adv-x="819" 
d="M807 1569q73 0 108 -53t15 -144q-26 -121 -118 -205.5t-228 -124.5l-2 23q83 40 151.5 103.5t89.5 148.5q-45 -20 -86 -10.5t-65 50t-13 91.5q11 53 51 87t97 34zM201 1065q83 40 151.5 103.5t89.5 148.5q-65 -36 -122.5 8.5t-40.5 122.5q11 53 50.5 87t96.5 34
q73 0 108 -53t15 -144q-26 -121 -118 -205.5t-228 -124.5z" />
    <glyph glyph-name="quotedblbase" unicode="&#x201e;" horiz-adv-x="819" 
d="M520 238q73 0 108 -53t15 -144q-26 -121 -118 -205.5t-228 -124.5l-2 23q83 40 152 103.5t90 148.5q-45 -20 -86 -10.5t-65 50t-13 91.5q11 53 50.5 87t96.5 34zM-86 -266q83 40 152 103.5t90 148.5q-45 -20 -86 -10.5t-65 50t-13 91.5q11 53 50.5 87t96.5 34
q73 0 108 -53t15 -144q-26 -121 -118 -205.5t-228 -124.5z" />
    <glyph glyph-name="dagger" unicode="&#x2020;" horiz-adv-x="712" 
d="M315 467l125 592h-260l13 53h260l59 285h61l-59 -285h260l-12 -53h-260l-125 -592h-62z" />
    <glyph glyph-name="daggerdbl" unicode="&#x2021;" horiz-adv-x="712" 
d="M25 322l10 53h260l63 297l82 387h-260l13 53h260l59 285h61l-59 -285h260l-12 -53h-260l-19 -92l-63 -295l-43 -205l-21 -92h260l-10 -53h-260l-61 -285h-62l62 285h-260z" />
    <glyph glyph-name="bullet" unicode="&#x2022;" horiz-adv-x="1064" 
d="M530 147q-173 0 -289 119.5t-110 290.5q6 169 130.5 289.5t297.5 120.5q167 0 282 -120.5t109 -289.5q-6 -170 -129 -290t-291 -120z" />
    <glyph glyph-name="ellipsis" unicode="&#x2026;" horiz-adv-x="1122" 
d="M807 -31q-56 0 -91 39.5t-28 95.5q4 55 48 94.5t100 39.5q57 0 92 -39t30 -95q-8 -57 -51 -96t-100 -39zM-10 104q4 55 47.5 94.5t99.5 39.5q57 0 92.5 -39t30.5 -95q-8 -57 -51 -96t-100 -39q-56 0 -91 39.5t-28 95.5zM338 104q4 55 47.5 94.5t99.5 39.5q57 0 92.5 -39
t30.5 -95q-8 -57 -51 -96t-100 -39q-56 0 -91 39.5t-28 95.5z" />
    <glyph glyph-name="perthousand" unicode="&#x2030;" horiz-adv-x="2541" 
d="M610 1481q79 0 136 -36t83.5 -98t32.5 -144.5t-16 -176.5q-40 -194 -156 -324.5t-272 -130.5q-80 0 -137.5 37t-84.5 99t-33.5 144.5t15.5 174.5q40 194 156.5 324.5t275.5 130.5zM340 1096q-16 -77 -21.5 -158.5t1.5 -158t39 -125t85 -48.5q73 0 141 101.5t101 253.5
q16 77 21.5 158.5t-2 157t-38.5 123.5t-83 48q-74 0 -142.5 -101t-101.5 -251zM356 0l1063 1450h68l-1063 -1450h-68zM995 424q26 125 84.5 226.5t149.5 165t198 63.5q79 0 136 -36t83.5 -98.5t32.5 -145t-16 -175.5q-40 -194 -156 -324.5t-272 -130.5q-80 0 -137.5 37
t-84.5 99t-33.5 144.5t15.5 174.5zM1159 492q-16 -76 -22 -157t1.5 -157.5t39 -125t84.5 -48.5q73 0 140.5 100.5t100.5 251.5q16 78 21.5 159.5t-2 157t-38.5 123.5t-83 48q-74 0 -142.5 -100.5t-99.5 -251.5zM1784 424q26 125 84.5 226.5t149.5 165t198 63.5q79 0 136 -36
t84 -98.5t33.5 -145t-15.5 -175.5q-42 -194 -158.5 -324.5t-272.5 -130.5q-80 0 -137.5 37t-84 99t-33 144.5t15.5 174.5zM1948 492q-16 -76 -22 -157t1 -157.5t38.5 -125t84.5 -48.5q73 0 141 100.5t101 251.5q17 77 22 159t-3 157.5t-39 123.5t-83 48q-74 0 -142 -100.5
t-99 -251.5z" />
    <glyph glyph-name="guilsinglleft" unicode="&#x2039;" horiz-adv-x="595" 
d="M434 109l-389 403l8 39l561 403l17 -20l-430 -402l260 -403z" />
    <glyph glyph-name="guilsinglright" unicode="&#x203a;" horiz-adv-x="595" 
d="M-23 109l-18 20l432 403l-262 402l25 20l391 -403l-8 -39z" />
    <glyph glyph-name="fraction" unicode="&#x2044;" horiz-adv-x="325" 
d="M-291 0h-67l1063 1450h67z" />
    <glyph glyph-name="uni2070" unicode="&#x2070;" horiz-adv-x="806" 
d="M655 1722q157 0 220.5 -132t19.5 -337q-41 -194 -154.5 -317t-265.5 -123q-105 0 -171.5 62.5t-82 166.5t11.5 240q41 193 155.5 316.5t266.5 123.5zM391 1337q-49 -227 -20.5 -358t125.5 -131q77 0 142.5 94.5t100.5 259.5q47 226 19.5 357t-121.5 131q-78 0 -144.5 -95
t-101.5 -258z" />
    <glyph glyph-name="uni2074" unicode="&#x2074;" horiz-adv-x="747" 
d="M317 850q76 8 114.5 35.5t51.5 91.5l21 94h-361l2 16l529 635h106l-127 -596h15q53 0 106.5 50.5t91.5 138.5h19l-84 -244h-160l-20 -94q-12 -64 3 -92.5t81 -34.5l-5 -16h-387zM219 1126h295l102 478z" />
    <glyph glyph-name="uni2075" unicode="&#x2075;" horiz-adv-x="690" 
d="M848 1763l-14 -182h-426l-103 -293q101 94 213 94q126 0 193 -85.5t41 -211.5q-25 -116 -125.5 -193t-237.5 -77q-90 0 -160 39.5t-88 110.5q-6 29 6 52.5t37 31.5q30 10 54.5 -7.5t25.5 -66.5q2 -53 40 -89t95 -36q73 -1 129 59t78 160q22 98 -18.5 166t-122.5 68
q-91 0 -191 -76l-16 16l156 461h329q65 0 88 59h17z" />
    <glyph glyph-name="uni2076" unicode="&#x2076;" horiz-adv-x="741" 
d="M483 813q-162 0 -231.5 124t-22.5 331q28 117 77.5 206.5t112.5 142.5t132 79t143 26q57 0 110 -24t77 -66q32 -37 22 -77t-47 -48q-40 -9 -62.5 13.5t-19.5 68.5t-26.5 73.5t-73.5 27.5q-96 0 -174.5 -116t-120.5 -308q83 125 211 125q123 0 188 -84.5t35 -219.5
q-23 -114 -112 -194t-218 -80zM371 1231q-29 -172 0.5 -277.5t113.5 -105.5q68 0 118.5 63.5t70.5 155.5q23 109 -16.5 178.5t-122.5 69.5q-44 0 -87.5 -22.5t-76.5 -61.5z" />
    <glyph glyph-name="uni2077" unicode="&#x2077;" horiz-adv-x="645" 
d="M881 1686q-186 -197 -306 -405t-157 -447h-148q18 117 65 225t118.5 202.5t140 166t160.5 153.5h-328q-58 0 -97.5 -31t-78.5 -104h-17l91 258h561z" />
    <glyph glyph-name="uni2078" unicode="&#x2078;" horiz-adv-x="747" 
d="M436 813q-140 0 -216 64.5t-56 162.5q13 73 77 127t185 97q-25 14 -42.5 26.5t-38 30t-31 35.5t-21 42.5t-9 51t6.5 61.5q21 92 113 151.5t225 59.5q121 0 189 -59.5t50 -140.5q-25 -131 -241 -195q26 -13 41 -21.5t38 -22t36.5 -25.5t30 -28.5t24.5 -34.5t15 -40t6 -48
t-7 -56q-22 -104 -124 -171t-251 -67zM297 1044q-19 -86 22 -141t123 -55q75 0 137.5 46t77.5 118q9 41 0.5 73.5t-41.5 61t-55.5 43t-74.5 42.5q-21 11 -31 17q-134 -76 -158 -205zM444 1546q-2 -21 -4.5 -37t4 -32.5t12 -29t18.5 -25.5t24 -22t28.5 -20t31.5 -19t34 -18
q125 58 149 173q18 79 -17 126.5t-101 47.5q-63 0 -114.5 -39t-64.5 -105z" />
    <glyph glyph-name="uni2079" unicode="&#x2079;" horiz-adv-x="741" 
d="M578 1722q162 0 231 -123.5t22 -330.5q-28 -118 -77.5 -207.5t-112.5 -142.5t-131.5 -79t-142.5 -26q-57 0 -110 24t-77 66q-32 37 -22 77t47 48q40 9 62.5 -13.5t19.5 -68.5t26 -73t74 -27q96 0 174.5 116t120.5 308q-83 -125 -211 -125q-123 0 -188 84t-35 219
q23 114 112 194t218 80zM387 1468q-23 -109 16.5 -178t122.5 -69q44 0 87.5 22.5t76.5 61.5q28 172 -1.5 277.5t-113.5 105.5q-68 0 -118 -64t-70 -156z" />
    <glyph glyph-name="Euro" unicode="&#x20ac;" horiz-adv-x="1581" 
d="M127 842l12 57h246q100 260 310.5 421t469.5 161q68 0 131.5 -15.5t99 -30.5t68 -23t54 7.5t41.5 61.5h28l-28 -416h-29q-19 175 -117.5 266.5t-271.5 91.5q-183 0 -337 -143t-226 -381h485l-12 -57h-490l-8 -39q-15 -71 -21 -137h482l-13 -58h-471q0 -232 116 -377
t310 -145q154 0 281.5 96t210.5 267l29 -9q-76 -218 -248.5 -345.5t-382.5 -127.5q-162 0 -286.5 83t-188 229.5t-52.5 328.5h-243l12 58h238l12 71q14 61 29 105h-240z" />
    <glyph glyph-name="uni2116" unicode="&#x2116;" horiz-adv-x="2293" 
d="M1198 1421l6 29h428l-6 -29q-108 -10 -155 -43t-64 -108l-270 -1270h-47l-617 1239l-223 -1059q-17 -75 15 -108t134 -43l-6 -29h-426l6 29q108 10 155.5 43t64.5 108l231 1092q15 77 -17.5 110t-134.5 39l7 29h294l568 -1165l209 985q17 75 -15.5 108t-136.5 43z
M1626 1079q30 166 146 277.5t268 111.5q153 0 236.5 -113t50.5 -292q-30 -166 -146 -277.5t-268 -111.5t-235.5 112.5t-51.5 292.5zM1763 1116q-16 -70 -10.5 -141t24 -129t59 -94.5t95.5 -36.5q89 0 159 83t99 226q17 70 11.5 141.5t-24.5 129.5t-60 95t-95 37
q-88 0 -157.5 -83t-100.5 -228z" />
    <glyph glyph-name="uni2117" unicode="&#x2117;" horiz-adv-x="1751" 
d="M971 676h-201v-346h-68v788h269q112 0 180 -61t68 -160t-68 -160t-180 -61zM164 725q0 153 60 293t161.5 241.5t241.5 161.5t293 60t293 -60t241 -161.5t161 -241.5t60 -293t-60 -293t-161 -241.5t-241 -161.5t-293 -60t-293 60t-241.5 161.5t-161.5 241.5t-60 293z
M231 725q0 -187 93 -346.5t251.5 -252.5t344.5 -93q187 0 346.5 93t252.5 252.5t93 346.5t-93 346.5t-252.5 252.5t-346.5 93q-186 0 -344.5 -93t-251.5 -252.5t-93 -346.5zM772 739h203q82 0 129 42.5t47 115.5t-47 115.5t-129 42.5h-203v-316z" />
    <glyph glyph-name="trademark" unicode="&#x2122;" horiz-adv-x="1011" 
d="M274 975l93 432h-156l8 43h359l-9 -43h-155l-92 -432h-48zM539 975l100 475h76l78 -426l264 426h76l-101 -475h-41l94 444l-278 -444h-45l-84 444l-94 -444h-45z" />
    <glyph glyph-name="uni2126" unicode="&#x2126;" horiz-adv-x="1548" 
d="M10 0l13 57h397q-158 103 -242 307.5t-41 413.5q43 199 162.5 360t291.5 252t363 91q202 0 347 -91t204 -252t17 -360q-44 -212 -208 -417t-370 -304h383l-12 -57h-471l12 59q217 100 389.5 304.5t216.5 414.5q39 183 -14 332t-183.5 233t-310.5 84q-177 0 -336 -84
t-269 -232t-150 -333q-27 -144 -0.5 -280.5t105.5 -254t192 -184.5l-13 -59h-473z" />
    <glyph glyph-name="estimated" unicode="&#x212e;" horiz-adv-x="1564" 
d="M801 -29q-152 0 -288 55t-233.5 150t-154.5 227t-57 281q0 198 94.5 362t258 257.5t361.5 93.5q150 0 283 -55.5t227.5 -151t149 -229t53.5 -283.5h-1165v-430q81 -88 202.5 -147.5t268.5 -59.5q318 0 510 272l57 -41q-94 -143 -242.5 -222t-324.5 -79zM330 762h905v362
q-72 81 -193 142t-260 61q-142 0 -262.5 -61t-189.5 -144v-360z" />
    <glyph glyph-name="oneeighth" unicode="&#x215b;" horiz-adv-x="1632" 
d="M49 596q84 6 113.5 25.5t40.5 68.5l133 623h-133l4 16q177 49 278 127h19l-162 -766q-9 -46 8.5 -66.5t79.5 -27.5l-4 -16h-381zM207 0l1063 1450h67l-1063 -1450h-67zM870 207q13 73 77 126.5t186 96.5q-25 14 -43 26.5t-38 30.5t-31 35.5t-21.5 42.5t-9 51.5t6.5 61.5
q21 92 113 151.5t225 59.5q121 0 189.5 -60t50.5 -141q-25 -130 -242 -194q25 -13 41 -21.5t38.5 -22t36.5 -25.5t30.5 -29t24.5 -35t14.5 -40t6 -48t-6.5 -56q-22 -104 -124 -170.5t-251 -66.5q-140 0 -216.5 65t-56.5 162zM1004 211q-19 -86 22 -141.5t123 -55.5
q75 0 137.5 46t77.5 118q9 41 -1 74.5t-40 60.5t-57 44t-75 43q-20 11 -30 16q-133 -76 -157 -205zM1151 713q-8 -21 -4.5 -42t6.5 -36.5t16.5 -31.5t24.5 -27t30.5 -24t35 -21.5t38.5 -20.5q126 59 150 172q18 79 -17.5 126.5t-101.5 47.5q-63 0 -114 -38.5t-64 -104.5z
" />
    <glyph glyph-name="threeeighths" unicode="&#x215c;" horiz-adv-x="1757" 
d="M342 561q-105 0 -179.5 48.5t-78.5 129.5q-3 36 12 67t49 38q25 4 42.5 -4t24.5 -32t-11 -69q-13 -53 23 -98t118 -45q76 0 132.5 54t76.5 147q22 101 -37.5 157.5t-194.5 55.5l9 24q110 18 188 79t98 151q17 75 -12.5 122.5t-95.5 47.5q-83 0 -128 -52t-48 -127
q0 -36 -19.5 -57t-46.5 -24q-35 -4 -51 15t-10 56q15 91 104 157t205 66q130 0 194.5 -56t45.5 -152q-14 -74 -93 -136.5t-192 -83.5q125 -5 188.5 -69.5t40.5 -173.5q-22 -104 -119.5 -170t-234.5 -66zM332 0l1063 1450h67l-1063 -1450h-67zM995 207q13 73 77 126.5
t185 96.5q-52 30 -82.5 57.5t-48.5 77t-4 113.5q21 92 113 151.5t225 59.5q121 0 189.5 -60t50.5 -141q-25 -130 -242 -194q25 -13 41 -21.5t38.5 -22t36 -25.5t30 -29t25 -35t14.5 -40t5.5 -48t-6.5 -56q-22 -104 -123.5 -170.5t-250.5 -66.5q-140 0 -216.5 65t-56.5 162z
M1128 211q-19 -86 22.5 -141.5t123.5 -55.5q75 0 137.5 46t77.5 118q9 41 -1 74.5t-40 60.5t-57 44t-75 43q-20 11 -30 16q-134 -76 -158 -205zM1276 713q-8 -21 -4.5 -42t6.5 -36.5t16.5 -31.5t24.5 -27t30.5 -24t35 -21.5t38.5 -20.5q126 59 150 172q18 79 -17.5 126.5
t-101.5 47.5q-63 0 -114 -38.5t-64 -104.5z" />
    <glyph glyph-name="fiveeighths" unicode="&#x215d;" horiz-adv-x="1757" 
d="M795 1509l-15 -182h-426l-102 -293q101 94 213 94q126 0 192.5 -85.5t40.5 -211.5q-25 -116 -125 -193t-237 -77q-90 0 -160 39.5t-88 110.5q-6 29 6 52.5t37 31.5q30 10 54.5 -7.5t25.5 -66.5q2 -53 40 -89t95 -36q73 -1 129 59t78 160q22 98 -18.5 166t-122.5 68
q-91 0 -191 -76l-16 16l155 461h330q65 0 88 59h17zM332 0l1063 1450h67l-1063 -1450h-67zM995 207q13 73 77 126.5t185 96.5q-52 30 -82.5 57.5t-48.5 77t-4 113.5q21 92 113 151.5t225 59.5q121 0 189.5 -60t50.5 -141q-25 -130 -242 -194q25 -13 41 -21.5t38.5 -22
t36 -25.5t30 -29t25 -35t14.5 -40t5.5 -48t-6.5 -56q-22 -104 -123.5 -170.5t-250.5 -66.5q-140 0 -216.5 65t-56.5 162zM1128 211q-19 -86 22.5 -141.5t123.5 -55.5q75 0 137.5 46t77.5 118q9 41 -1 74.5t-40 60.5t-57 44t-75 43q-20 11 -30 16q-134 -76 -158 -205z
M1276 713q-8 -21 -4.5 -42t6.5 -36.5t16.5 -31.5t24.5 -27t30.5 -24t35 -21.5t38.5 -20.5q126 59 150 172q18 79 -17.5 126.5t-101.5 47.5q-63 0 -114 -38.5t-64 -104.5z" />
    <glyph glyph-name="seveneighths" unicode="&#x215e;" horiz-adv-x="1630" 
d="M827 1432q-185 -196 -305 -404t-157 -448h-148q15 94 50.5 185t79.5 163.5t106.5 148t118.5 131t128 119.5h-327q-58 0 -97.5 -31t-78.5 -104h-17l90 258h561zM205 0l1063 1450h67l-1063 -1450h-67zM868 207q13 73 77 126.5t185 96.5q-52 30 -82.5 57.5t-48.5 77
t-4 113.5q21 92 113 151.5t225 59.5q121 0 189.5 -60t50.5 -141q-25 -130 -242 -194q25 -13 41 -21.5t38.5 -22t36.5 -25.5t30.5 -29t24.5 -35t14.5 -40t6 -48t-6.5 -56q-22 -104 -124 -170.5t-251 -66.5q-140 0 -216.5 65t-56.5 162zM1001 211q-19 -86 22.5 -141.5
t123.5 -55.5q75 0 137.5 46t77.5 118q9 41 -1 74.5t-40 60.5t-57 44t-75 43q-20 11 -30 16q-134 -76 -158 -205zM1149 713q-8 -21 -4.5 -42t6.5 -36.5t16.5 -31.5t24.5 -27t30.5 -24t35 -21.5t38.5 -20.5q126 59 150 172q18 79 -17.5 126.5t-101.5 47.5q-63 0 -114 -38.5
t-64 -104.5z" />
    <glyph glyph-name="arrowleft" unicode="&#x2190;" horiz-adv-x="1447" 
d="M621 0l-519 518l521 518l41 -41l-457 -450h1139v-53h-1139l455 -453z" />
    <glyph glyph-name="arrowup" unicode="&#x2191;" horiz-adv-x="1241" 
d="M1139 793l-39 -41l-453 454v-1138h-53v1138l-451 -456l-41 41l519 520z" />
    <glyph glyph-name="arrowright" unicode="&#x2192;" horiz-adv-x="1447" 
d="M827 0l-41 39l455 453h-1139v53h1139l-457 450l41 41l521 -518z" />
    <glyph glyph-name="arrowdown" unicode="&#x2193;" horiz-adv-x="1241" 
d="M102 522l39 41l453 -454v1138h53v-1138l451 456l41 -41l-518 -520z" />
    <glyph glyph-name="uni2196" unicode="&#x2196;" horiz-adv-x="1103" 
d="M102 264v731h736v-59l-643 6l806 -807l-38 -37l-805 807l2 -643z" />
    <glyph glyph-name="uni2197" unicode="&#x2197;" horiz-adv-x="1103" 
d="M1001 264l-57 -2l2 643l-805 -807l-39 37l807 807l-643 -6v59h735v-731z" />
    <glyph glyph-name="uni2198" unicode="&#x2198;" horiz-adv-x="1101" 
d="M268 20l-2 58l643 -2l-807 805l37 39l807 -807l-6 643h59v-736h-731z" />
    <glyph glyph-name="uni2199" unicode="&#x2199;" horiz-adv-x="1101" 
d="M834 20h-732v736h60l-6 -643l807 807l36 -39l-806 -805l643 2z" />
    <glyph glyph-name="partialdiff" unicode="&#x2202;" horiz-adv-x="1136" 
d="M592 1450q195 -11 326.5 -120t177 -285.5t0.5 -387.5q-69 -318 -238 -503t-409 -185q-216 0 -325 138t-65 350q44 216 195.5 348.5t353.5 132.5q204 0 310 -138t65 -349q70 196 70.5 372t-58.5 298t-167 195t-248 77zM123 457q-40 -186 53 -307t281 -121q164 0 300 121
t175 307q25 118 -12 215.5t-120 152t-192 54.5q-178 0 -311.5 -116.5t-173.5 -305.5z" />
    <glyph glyph-name="uni2206" unicode="&#x2206;" horiz-adv-x="1503" 
d="M979 1450l342 -1450h-1360l957 1450h61zM66 57h1183l-311 1323z" />
    <glyph glyph-name="product" unicode="&#x220f;" horiz-adv-x="1232" 
d="M12 0l310 1450h987l-310 -1450h-61l297 1393h-864l-297 -1393h-62z" />
    <glyph glyph-name="summation" unicode="&#x2211;" horiz-adv-x="1087" 
d="M270 1450h944l-12 -57h-878l432 -650l-13 -49l-688 -639h863l-13 -55h-944l12 55l727 672l-442 666z" />
    <glyph glyph-name="minus" unicode="&#x2212;" horiz-adv-x="1228" 
d="M209 627l10 53h860l-10 -53h-860z" />
    <glyph glyph-name="radical" unicode="&#x221a;" horiz-adv-x="1110" 
d="M389 0l-102 723h-221l12 55h260l102 -731l783 1403h67l-813 -1450h-88z" />
    <glyph glyph-name="infinity" unicode="&#x221e;" horiz-adv-x="1970" 
d="M1520 1018q161 0 246 -101t53 -255q-34 -161 -157.5 -259t-293.5 -98q-123 0 -215.5 78t-142.5 221q-118 -144 -244 -221.5t-248 -77.5q-161 0 -247 101.5t-54 255.5q34 161 157.5 258.5t295.5 97.5q123 0 214.5 -77t147.5 -220q110 143 237 220t251 77zM281 662
q-29 -139 37 -221.5t210 -82.5q113 0 232 77.5t231 226.5q-47 148 -133.5 225.5t-200.5 77.5q-144 0 -245.5 -82t-130.5 -221zM1044 662q49 -148 136 -226t198 -78q145 0 246.5 82t130.5 222t-37.5 221.5t-210.5 81.5q-111 0 -230.5 -77.5t-232.5 -225.5z" />
    <glyph glyph-name="integral" unicode="&#x222b;" horiz-adv-x="538" 
d="M-137 -406l12 52h25q72 0 125 54.5t73 147.5l285 1346q26 119 97.5 186.5t172.5 67.5h21l-12 -51h-21q-73 0 -129 -56t-76 -147l-284 -1346q-26 -119 -96.5 -186.5t-168.5 -67.5h-24z" />
    <glyph glyph-name="approxequal" unicode="&#x2248;" horiz-adv-x="1306" 
d="M203 604q144 125 280 125q56 0 112.5 -21.5t95.5 -47t91 -47t101 -21.5q61 0 115.5 25t121.5 81l33 -34q-144 -125 -281 -125q-56 0 -111.5 21.5t-94 47t-90.5 47t-101 21.5q-61 0 -116.5 -25.5t-120.5 -81.5zM264 895q147 125 281 125q56 0 112.5 -21.5t95 -47t90.5 -47
t101 -21.5q61 0 116 25t122 81l35 -35q-147 -125 -281 -125q-56 0 -112 21.5t-95 47.5t-91 47.5t-101 21.5q-114 0 -238 -107z" />
    <glyph glyph-name="notequal" unicode="&#x2260;" horiz-adv-x="1228" 
d="M352 215l150 252h-326l10 53h346l166 277h-452l10 53h473l150 252h61l-149 -252h325l-10 -53h-346l-166 -277h453l-11 -53h-473l-149 -252h-62z" />
    <glyph glyph-name="lessequal" unicode="&#x2264;" horiz-adv-x="1230" 
d="M936 -4h-860l12 53h860zM207 621l14 67l852 393l14 -53l-825 -379l662 -379l-33 -45z" />
    <glyph glyph-name="greaterequal" unicode="&#x2265;" horiz-adv-x="1228" 
d="M74 -4l12 53h860l-12 -53h-860zM131 279l825 378l-661 379l33 45l684 -395l-15 -68l-852 -393z" />
    <glyph glyph-name="uni2460" unicode="&#x2460;" horiz-adv-x="1751" 
d="M920 -31q-153 0 -293 60t-241.5 161.5t-161.5 241.5t-60 293t60 293t161.5 241.5t241.5 161.5t293 60t293 -60t241 -161.5t161 -241.5t60 -293t-60 -293t-161 -241.5t-241 -161.5t-293 -60zM231 725q0 -187 93 -346.5t251.5 -252.5t344.5 -93q187 0 346.5 93t252.5 252.5
t93 346.5t-93 346.5t-252.5 252.5t-346.5 93q-186 0 -344.5 -93t-251.5 -252.5t-93 -346.5zM635 291l4 16q84 6 113.5 25.5t40.5 68.5l133 623h-133l4 16q177 49 278 127h19l-162 -766q-9 -46 8.5 -66.5t79.5 -27.5l-4 -16h-381z" />
    <glyph glyph-name="uni2461" unicode="&#x2461;" horiz-adv-x="1751" 
d="M920 -31q-153 0 -293 60t-241.5 161.5t-161.5 241.5t-60 293t60 293t161.5 241.5t241.5 161.5t293 60t293 -60t241 -161.5t161 -241.5t60 -293t-60 -293t-161 -241.5t-241 -161.5t-293 -60zM231 725q0 -187 93 -346.5t251.5 -252.5t344.5 -93q187 0 346.5 93t252.5 252.5
t93 346.5t-93 346.5t-252.5 252.5t-346.5 93q-186 0 -344.5 -93t-251.5 -252.5t-93 -346.5zM561 291l6 28q17 68 54 125t82.5 97t98 76t103.5 70t95.5 71t77.5 87.5t46 110.5q19 87 -15.5 138t-107.5 51q-85 0 -139.5 -54t-52.5 -133q3 -36 -14.5 -57.5t-44.5 -28.5
q-33 -5 -51.5 14.5t-14.5 55.5q13 98 109 168t208 70q143 0 212.5 -68.5t43.5 -185.5q-16 -72 -60 -132t-100 -98t-124 -74t-128 -62.5t-115 -62t-83 -73.5h346q69 0 116 27t85 114l16 -4l-92 -270h-557z" />
    <glyph glyph-name="uni2462" unicode="&#x2462;" horiz-adv-x="1751" 
d="M920 -31q-153 0 -293 60t-241.5 161.5t-161.5 241.5t-60 293t60 293t161.5 241.5t241.5 161.5t293 60t293 -60t241 -161.5t161 -241.5t60 -293t-60 -293t-161 -241.5t-241 -161.5t-293 -60zM231 725q0 -187 93 -346.5t251.5 -252.5t344.5 -93q187 0 346.5 93t252.5 252.5
t93 346.5t-93 346.5t-252.5 252.5t-346.5 93q-186 0 -344.5 -93t-251.5 -252.5t-93 -346.5zM582 451q-3 36 12 66.5t49 37.5q25 4 42 -3.5t24 -31.5t-11 -69q-13 -53 23.5 -98.5t118.5 -45.5q76 0 132.5 54t76.5 147q22 101 -37.5 157.5t-194.5 55.5l8 24q110 18 188.5 79
t98.5 151q17 75 -12.5 122.5t-95.5 47.5q-84 0 -129 -52t-48 -126q0 -36 -19 -57.5t-46 -24.5q-35 -4 -51.5 15t-10.5 56q15 91 104.5 157.5t205.5 66.5q130 0 194 -56.5t45 -152.5q-14 -74 -92.5 -136t-191.5 -83q125 -5 188.5 -70t40.5 -174q-22 -104 -119.5 -170
t-234.5 -66q-105 0 -179.5 49t-78.5 130z" />
    <glyph glyph-name="uni2463" unicode="&#x2463;" horiz-adv-x="1751" 
d="M920 -31q-153 0 -293 60t-241.5 161.5t-161.5 241.5t-60 293t60 293t161.5 241.5t241.5 161.5t293 60t293 -60t241 -161.5t161 -241.5t60 -293t-60 -293t-161 -241.5t-241 -161.5t-293 -60zM231 725q0 -187 93 -346.5t251.5 -252.5t344.5 -93q187 0 346.5 93t252.5 252.5
t93 346.5t-93 346.5t-252.5 252.5t-346.5 93q-186 0 -344.5 -93t-251.5 -252.5t-93 -346.5zM512 528l2 17l528 635h107l-127 -596h14q53 0 107 50t92 138h18l-84 -244h-159l-21 -94q-12 -64 3 -92.5t81 -34.5l-4 -16h-387l4 16q76 8 114.5 35.5t51.5 91.5l20 94h-360z
M588 584h295l102 477z" />
    <glyph glyph-name="uni2464" unicode="&#x2464;" horiz-adv-x="1751" 
d="M920 -31q-153 0 -293 60t-241.5 161.5t-161.5 241.5t-60 293t60 293t161.5 241.5t241.5 161.5t293 60t293 -60t241 -161.5t161 -241.5t60 -293t-60 -293t-161 -241.5t-241 -161.5t-293 -60zM231 725q0 -187 93 -346.5t251.5 -252.5t344.5 -93q187 0 346.5 93t252.5 252.5
t93 346.5t-93 346.5t-252.5 252.5t-346.5 93q-186 0 -344.5 -93t-251.5 -252.5t-93 -346.5zM559 422q-6 29 6 52.5t37 31.5q30 10 54.5 -7.5t25.5 -66.5q2 -53 40 -89t95 -36q73 -1 129 59t78 160q22 98 -18.5 166t-122.5 68q-91 0 -191 -76l-16 16l155 461h330q65 0 88 60
h17l-15 -183h-426l-102 -293q102 95 213 95q126 0 192.5 -85.5t40.5 -211.5q-25 -117 -125 -194t-237 -77q-90 0 -160 39.5t-88 110.5z" />
    <glyph glyph-name="uni2465" unicode="&#x2465;" horiz-adv-x="1751" 
d="M920 -31q-153 0 -293 60t-241.5 161.5t-161.5 241.5t-60 293t60 293t161.5 241.5t241.5 161.5t293 60t293 -60t241 -161.5t161 -241.5t60 -293t-60 -293t-161 -241.5t-241 -161.5t-293 -60zM231 725q0 -187 93 -346.5t251.5 -252.5t344.5 -93q187 0 346.5 93t252.5 252.5
t93 346.5t-93 346.5t-252.5 252.5t-346.5 93q-186 0 -344.5 -93t-251.5 -252.5t-93 -346.5zM596 725q28 117 77.5 207t112.5 143t132 79t143 26q57 0 109.5 -24t76.5 -66q32 -37 22.5 -77t-46.5 -48q-40 -9 -62.5 13.5t-19.5 68.5t-26.5 73t-74.5 27q-96 0 -174.5 -116
t-120.5 -308q83 125 211 125q123 0 188.5 -84t35.5 -219q-23 -114 -112 -194.5t-218 -80.5q-162 0 -231.5 124t-22.5 331zM737 688q-28 -172 1.5 -277.5t113.5 -105.5q68 0 118 63.5t70 155.5q23 109 -16.5 178.5t-122.5 69.5q-44 0 -87.5 -22.5t-76.5 -61.5z" />
    <glyph glyph-name="uni2466" unicode="&#x2466;" horiz-adv-x="1751" 
d="M920 -31q-153 0 -293 60t-241.5 161.5t-161.5 241.5t-60 293t60 293t161.5 241.5t241.5 161.5t293 60t293 -60t241 -161.5t161 -241.5t60 -293t-60 -293t-161 -241.5t-241 -161.5t-293 -60zM231 725q0 -187 93 -346.5t251.5 -252.5t344.5 -93q187 0 346.5 93t252.5 252.5
t93 346.5t-93 346.5t-252.5 252.5t-346.5 93q-186 0 -344.5 -93t-251.5 -252.5t-93 -346.5zM621 903l90 258h561l-4 -18q-186 -197 -306 -405t-157 -447h-148q18 117 65 225t118.5 202.5t140 166t160.5 153.5h-328q-58 0 -97.5 -31t-78.5 -104h-16z" />
    <glyph glyph-name="uni2467" unicode="&#x2467;" horiz-adv-x="1751" 
d="M920 -31q-153 0 -293 60t-241.5 161.5t-161.5 241.5t-60 293t60 293t161.5 241.5t241.5 161.5t293 60t293 -60t241 -161.5t161 -241.5t60 -293t-60 -293t-161 -241.5t-241 -161.5t-293 -60zM231 725q0 -187 93 -346.5t251.5 -252.5t344.5 -93q187 0 346.5 93t252.5 252.5
t93 346.5t-93 346.5t-252.5 252.5t-346.5 93q-186 0 -344.5 -93t-251.5 -252.5t-93 -346.5zM567 498q13 73 77 126.5t185 96.5q-52 30 -82.5 57.5t-48.5 77t-4 113.5q21 92 113 151.5t225 59.5q121 0 189.5 -60t50.5 -141q-25 -131 -242 -195q26 -13 41 -21.5t38 -22
t36.5 -25.5t30 -28.5t24.5 -34.5t15 -40t6 -48t-7 -56q-22 -104 -123.5 -171t-250.5 -67q-140 0 -216.5 65t-56.5 163zM700 502q-19 -86 22.5 -141.5t123.5 -55.5q75 0 137.5 46t77.5 118q9 41 -1 74.5t-40 60.5t-57 44t-75 43q-20 11 -30 16q-134 -76 -158 -205zM848 1004
q-8 -21 -4.5 -42t6.5 -36.5t16.5 -31.5t24.5 -27t30.5 -24t35 -21.5t38.5 -20.5q126 59 150 172q18 79 -17.5 126.5t-101.5 47.5q-63 0 -114 -38.5t-64 -104.5z" />
    <glyph glyph-name="uni2468" unicode="&#x2468;" horiz-adv-x="1751" 
d="M920 -31q-153 0 -293 60t-241.5 161.5t-161.5 241.5t-60 293t60 293t161.5 241.5t241.5 161.5t293 60t293 -60t241 -161.5t161 -241.5t60 -293t-60 -293t-161 -241.5t-241 -161.5t-293 -60zM231 725q0 -187 93 -346.5t251.5 -252.5t344.5 -93q187 0 346.5 93t252.5 252.5
t93 346.5t-93 346.5t-252.5 252.5t-346.5 93q-186 0 -344.5 -93t-251.5 -252.5t-93 -346.5zM545 360q-32 37 -22.5 77t46.5 48q40 9 62.5 -13.5t19.5 -68.5t26.5 -73t74.5 -27q96 0 174.5 116t120.5 308q-83 -125 -211 -125q-123 0 -188.5 84t-35.5 219q23 114 112 194.5
t218 80.5q162 0 231.5 -124t22.5 -331q-28 -117 -77.5 -207t-112.5 -143t-132 -79t-143 -26q-57 0 -109.5 24t-76.5 66zM752 926q-23 -109 16.5 -178.5t122.5 -69.5q44 0 87.5 22.5t76.5 61.5q28 172 -1.5 277.5t-113.5 105.5q-68 0 -118 -63.5t-70 -155.5z" />
    <glyph glyph-name="lozenge" unicode="&#x25ca;" horiz-adv-x="1075" 
d="M707 1450h65l266 -725l-575 -725h-66l-270 725zM190 717l244 -664l543 682l-244 660z" />
    <glyph glyph-name="circle" unicode="&#x25cb;" horiz-adv-x="1751" 
d="M920 -31q-153 0 -293 60t-241.5 161.5t-161.5 241.5t-60 293t60 293t161.5 241.5t241.5 161.5t293 60t293 -60t241 -161.5t161 -241.5t60 -293t-60 -293t-161 -241.5t-241 -161.5t-293 -60zM231 725q0 -187 93 -346.5t251.5 -252.5t344.5 -93q187 0 346.5 93t252.5 252.5
t93 346.5t-93 346.5t-252.5 252.5t-346.5 93q-186 0 -344.5 -93t-251.5 -252.5t-93 -346.5z" />
    <glyph glyph-name="uni25CF" unicode="&#x25cf;" horiz-adv-x="1748" 
d="M918 -31q205 0 379 101.5t275 275.5t101 379t-101 379t-275 275.5t-379 101.5q-153 0 -293 -60t-240.5 -161.5t-160.5 -241.5t-60 -293t60 -293t160.5 -241.5t240.5 -161.5t293 -60z" />
    <glyph glyph-name="uni2776" unicode="&#x2776;" horiz-adv-x="1748" 
d="M918 -31q205 0 379 101.5t275 275.5t101 379t-101 379t-275 275.5t-379 101.5q-153 0 -293 -60t-240.5 -161.5t-160.5 -241.5t-60 -293t60 -293t160.5 -241.5t240.5 -161.5t293 -60zM635 291l4 16q84 6 113.5 25.5t40.5 68.5l133 623h-133l4 16q177 49 278 127h19
l-162 -766q-9 -46 8.5 -66.5t79.5 -27.5l-4 -16h-381z" />
    <glyph glyph-name="uni2777" unicode="&#x2777;" horiz-adv-x="1748" 
d="M918 -31q205 0 379 101.5t275 275.5t101 379t-101 379t-275 275.5t-379 101.5q-153 0 -293 -60t-240.5 -161.5t-160.5 -241.5t-60 -293t60 -293t160.5 -241.5t240.5 -161.5t293 -60zM561 291l6 28q17 68 54 125t82.5 97t98 76t103.5 70t95.5 71t77.5 87.5t46 110.5
q19 87 -15.5 138t-107.5 51q-85 0 -139.5 -54t-52.5 -133q3 -36 -14.5 -57.5t-44.5 -28.5q-33 -5 -51.5 14.5t-14.5 55.5q13 98 109 168t208 70q143 0 212.5 -68.5t43.5 -185.5q-16 -72 -60 -132t-100 -98t-124 -74t-128 -62.5t-115 -62t-83 -73.5h346q69 0 116 27t85 114
l16 -4l-92 -270h-557z" />
    <glyph glyph-name="uni2778" unicode="&#x2778;" horiz-adv-x="1748" 
d="M918 -31q205 0 379 101.5t275 275.5t101 379t-101 379t-275 275.5t-379 101.5q-153 0 -293 -60t-240.5 -161.5t-160.5 -241.5t-60 -293t60 -293t160.5 -241.5t240.5 -161.5t293 -60zM582 451q-3 36 12 66.5t49 37.5q25 4 42 -3.5t24 -31.5t-11 -69q-13 -53 23.5 -98.5
t118.5 -45.5q76 0 132.5 54t76.5 147q22 101 -37.5 157.5t-194.5 55.5l8 24q110 18 188.5 79t98.5 151q17 75 -12.5 122.5t-95.5 47.5q-84 0 -129 -52t-48 -126q0 -36 -19 -57.5t-46 -24.5q-35 -4 -51.5 15t-10.5 56q15 91 104.5 157.5t205.5 66.5q130 0 194 -56.5
t45 -152.5q-14 -74 -92.5 -136t-191.5 -83q125 -5 188.5 -70t40.5 -174q-22 -104 -119.5 -170t-234.5 -66q-105 0 -179.5 49t-78.5 130z" />
    <glyph glyph-name="uni2779" unicode="&#x2779;" horiz-adv-x="1748" 
d="M918 -31q205 0 379 101.5t275 275.5t101 379t-101 379t-275 275.5t-379 101.5q-153 0 -293 -60t-240.5 -161.5t-160.5 -241.5t-60 -293t60 -293t160.5 -241.5t240.5 -161.5t293 -60zM512 528l2 17l528 635h107l-127 -596h14q53 0 107 50t92 138h18l-84 -244h-159l-21 -94
q-12 -64 3 -92.5t81 -34.5l-4 -16h-387l4 16q76 8 114.5 35.5t51.5 91.5l20 94h-360zM588 584h295l102 477z" />
    <glyph glyph-name="uni277A" unicode="&#x277a;" horiz-adv-x="1748" 
d="M918 -31q205 0 379 101.5t275 275.5t101 379t-101 379t-275 275.5t-379 101.5q-153 0 -293 -60t-240.5 -161.5t-160.5 -241.5t-60 -293t60 -293t160.5 -241.5t240.5 -161.5t293 -60zM559 422q-6 29 6 52.5t37 31.5q30 10 54.5 -7.5t25.5 -66.5q2 -53 40 -89t95 -36
q73 -1 129 59t78 160q22 98 -18.5 166t-122.5 68q-91 0 -191 -76l-16 16l155 461h330q65 0 88 60h17l-15 -183h-426l-102 -293q102 95 213 95q126 0 192.5 -85.5t40.5 -211.5q-25 -117 -125 -194t-237 -77q-90 0 -160 39.5t-88 110.5z" />
    <glyph glyph-name="uni277B" unicode="&#x277b;" horiz-adv-x="1748" 
d="M918 -31q205 0 379 101.5t275 275.5t101 379t-101 379t-275 275.5t-379 101.5q-153 0 -293 -60t-240.5 -161.5t-160.5 -241.5t-60 -293t60 -293t160.5 -241.5t240.5 -161.5t293 -60zM596 725q28 117 77.5 207t112.5 143t132 79t143 26q57 0 109.5 -24t76.5 -66
q32 -37 22.5 -77t-46.5 -48q-40 -9 -62.5 13.5t-19.5 68.5t-26.5 73t-74.5 27q-96 0 -174.5 -116t-120.5 -308q83 125 211 125q123 0 188.5 -84t35.5 -219q-23 -114 -112 -194.5t-218 -80.5q-162 0 -231.5 124t-22.5 331zM737 688q-28 -172 1.5 -277.5t113.5 -105.5
q68 0 118 63.5t70 155.5q23 109 -16.5 178.5t-122.5 69.5q-44 0 -87.5 -22.5t-76.5 -61.5z" />
    <glyph glyph-name="uni277C" unicode="&#x277c;" horiz-adv-x="1748" 
d="M918 -31q205 0 379 101.5t275 275.5t101 379t-101 379t-275 275.5t-379 101.5q-153 0 -293 -60t-240.5 -161.5t-160.5 -241.5t-60 -293t60 -293t160.5 -241.5t240.5 -161.5t293 -60zM621 903l90 258h561l-4 -18q-186 -197 -306 -405t-157 -447h-148q18 117 65 225
t118.5 202.5t140 166t160.5 153.5h-328q-58 0 -97.5 -31t-78.5 -104h-16z" />
    <glyph glyph-name="uni277D" unicode="&#x277d;" horiz-adv-x="1748" 
d="M918 -31q205 0 379 101.5t275 275.5t101 379t-101 379t-275 275.5t-379 101.5q-153 0 -293 -60t-240.5 -161.5t-160.5 -241.5t-60 -293t60 -293t160.5 -241.5t240.5 -161.5t293 -60zM567 498q13 73 77 126.5t185 96.5q-52 30 -82.5 57.5t-48.5 77t-4 113.5
q21 92 113 151.5t225 59.5q121 0 189.5 -60t50.5 -141q-25 -131 -242 -195q26 -13 41 -21.5t38 -22t36.5 -25.5t30 -28.5t24.5 -34.5t15 -40t6 -48t-7 -56q-22 -104 -123.5 -171t-250.5 -67q-140 0 -216.5 65t-56.5 163zM700 502q-19 -86 22.5 -141.5t123.5 -55.5
q75 0 137.5 46t77.5 118q9 41 -1 74.5t-40 60.5t-57 44t-75 43q-20 11 -30 16q-134 -76 -158 -205zM848 1004q-8 -21 -4.5 -42t6.5 -36.5t16.5 -31.5t24.5 -27t30.5 -24t35 -21.5t38.5 -20.5q126 59 150 172q18 79 -17.5 126.5t-101.5 47.5q-63 0 -114 -38.5t-64 -104.5z
" />
    <glyph glyph-name="uni277E" unicode="&#x277e;" horiz-adv-x="1748" 
d="M918 -31q205 0 379 101.5t275 275.5t101 379t-101 379t-275 275.5t-379 101.5q-153 0 -293 -60t-240.5 -161.5t-160.5 -241.5t-60 -293t60 -293t160.5 -241.5t240.5 -161.5t293 -60zM545 360q-32 37 -22.5 77t46.5 48q40 9 62.5 -13.5t19.5 -68.5t26.5 -73t74.5 -27
q96 0 174.5 116t120.5 308q-83 -125 -211 -125q-123 0 -188.5 84t-35.5 219q23 114 112 194.5t218 80.5q162 0 231.5 -124t22.5 -331q-28 -117 -77.5 -207t-112.5 -143t-132 -79t-143 -26q-57 0 -109.5 24t-76.5 66zM752 926q-23 -109 16.5 -178.5t122.5 -69.5
q44 0 87.5 22.5t76.5 61.5q28 172 -1.5 277.5t-113.5 105.5q-68 0 -118 -63.5t-70 -155.5z" />
    <glyph glyph-name="uniF8FF" unicode="&#xf8ff;" horiz-adv-x="1597" 
d="M1260 485q104 0 180 -77.5t76 -184.5q0 -105 -75.5 -180.5t-180.5 -75.5q-106 0 -184.5 76t-78.5 180v203h-395v-203q0 -105 -78 -180.5t-186 -75.5q-106 0 -181 75t-75 181t76 184t180 78h205v396h-205q-104 0 -180 78t-76 184t76 182t180 76q109 0 186.5 -76t77.5 -182
v-203h395v203q0 104 78 181t185 77q106 0 181 -76t75 -182t-76 -184t-180 -78h-205v-396h205zM141 223q0 -83 57.5 -140.5t139.5 -57.5q85 0 145 57.5t60 140.5v203h-205q-82 0 -139.5 -60t-57.5 -143zM141 1143q0 -83 57.5 -143t139.5 -60h205v203q0 83 -59.5 141.5
t-145.5 58.5q-82 0 -139.5 -58.5t-57.5 -141.5zM602 485h395v396h-395v-396zM1055 223q0 -83 60 -140.5t145 -57.5q82 0 140 57.5t58 140.5q0 85 -58 144t-140 59h-205v-203zM1055 940h205q82 0 140 59t58 144q0 83 -58 141.5t-140 58.5q-86 0 -145.5 -58.5t-59.5 -141.5
v-203z" />
    <glyph glyph-name="C.ss04" horiz-adv-x="1351" 
d="M1475 1470l-172 -409l-29 2q20 162 -59.5 261t-231.5 99q-210 0 -378.5 -174.5t-229.5 -457.5q-33 -146 -15 -274.5t70.5 -224t144.5 -151t207 -55.5q153 0 284 95.5t208 267.5l29 -9q-73 -216 -245.5 -344.5t-369.5 -128.5q-144 0 -259.5 60t-183 165.5t-91.5 250.5
t14 315q31 146 108.5 278.5t184.5 230.5t243.5 156t278.5 58q84 0 156.5 -19.5t109 -38.5t70.5 -29t62.5 9t64.5 76z" />
    <glyph glyph-name="Cacute.ss04" horiz-adv-x="1351" 
d="M1475 1470l-172 -409l-29 2q20 162 -59.5 261t-231.5 99q-210 0 -378.5 -174.5t-229.5 -457.5q-33 -146 -15 -274.5t70.5 -224t144.5 -151t207 -55.5q153 0 284 95.5t208 267.5l29 -9q-73 -216 -245.5 -344.5t-369.5 -128.5q-144 0 -259.5 60t-183 165.5t-91.5 250.5
t14 315q31 146 108.5 278.5t184.5 230.5t243.5 156t278.5 58q84 0 156.5 -19.5t109 -38.5t70.5 -29t62.5 9t64.5 76zM987 1581l209 338h203l-383 -338h-29z" />
    <glyph glyph-name="Ccaron.ss04" horiz-adv-x="1351" 
d="M1475 1470l-172 -409l-29 2q20 162 -59.5 261t-231.5 99q-210 0 -378.5 -174.5t-229.5 -457.5q-33 -146 -15 -274.5t70.5 -224t144.5 -151t207 -55.5q153 0 284 95.5t208 267.5l29 -9q-73 -216 -245.5 -344.5t-369.5 -128.5q-144 0 -259.5 60t-183 165.5t-91.5 250.5
t14 315q31 146 108.5 278.5t184.5 230.5t243.5 156t278.5 58q84 0 156.5 -19.5t109 -38.5t70.5 -29t62.5 9t64.5 76zM780 1907l23 16l215 -242l321 242l19 -16l-281 -324h-159z" />
    <glyph glyph-name="Ccedilla.ss04" horiz-adv-x="1351" 
d="M1475 1470l-172 -409l-29 2q20 162 -59.5 261t-231.5 99q-210 0 -378.5 -174.5t-229.5 -457.5q-33 -146 -15 -274.5t70.5 -224t144.5 -151t207 -55.5q153 0 284 95.5t208 267.5l29 -9q-73 -216 -245.5 -344.5t-369.5 -128.5q-33 0 -49 2l-72 -88q72 -4 107.5 -45
t23.5 -102q-20 -99 -113.5 -142.5t-230.5 -15.5l4 21q84 -9 142.5 19t70.5 85q8 37 -21 65.5t-91 38.5l145 168q-125 17 -223 82.5t-155.5 169t-75 240t17.5 293.5q31 146 108.5 278.5t184.5 230.5t243.5 156t278.5 58q84 0 156.5 -19.5t109 -38.5t70.5 -29t62.5 9t64.5 76z
" />
    <glyph glyph-name="Ccircumflex.ss04" horiz-adv-x="1351" 
d="M1475 1470l-172 -409l-29 2q20 162 -59.5 261t-231.5 99q-210 0 -378.5 -174.5t-229.5 -457.5q-33 -146 -15 -274.5t70.5 -224t144.5 -151t207 -55.5q153 0 284 95.5t208 267.5l29 -9q-73 -216 -245.5 -344.5t-369.5 -128.5q-144 0 -259.5 60t-183 165.5t-91.5 250.5
t14 315q31 146 108.5 278.5t184.5 230.5t243.5 156t278.5 58q84 0 156.5 -19.5t109 -38.5t70.5 -29t62.5 9t64.5 76zM717 1597l274 326h160l143 -326l-22 -14l-219 240l-318 -240z" />
    <glyph glyph-name="Cdotaccent.ss04" horiz-adv-x="1351" 
d="M1475 1470l-172 -409l-29 2q20 162 -59.5 261t-231.5 99q-210 0 -378.5 -174.5t-229.5 -457.5q-33 -146 -15 -274.5t70.5 -224t144.5 -151t207 -55.5q153 0 284 95.5t208 267.5l29 -9q-73 -216 -245.5 -344.5t-369.5 -128.5q-144 0 -259.5 60t-183 165.5t-91.5 250.5
t14 315q31 146 108.5 278.5t184.5 230.5t243.5 156t278.5 58q84 0 156.5 -19.5t109 -38.5t70.5 -29t62.5 9t64.5 76zM899 1759q6 53 47 88t96 35q53 0 85 -35.5t26 -87.5t-46.5 -87.5t-94.5 -35.5q-56 0 -88 35.5t-25 87.5z" />
    <glyph glyph-name="G.ss04" horiz-adv-x="1484" 
d="M676 -31q-187 0 -320 104t-183 285t-5 400q32 150 111 284t186.5 231t243.5 153t276 55q84 0 157.5 -19.5t112 -38.5t74.5 -29t65.5 9t65.5 76l29 -9l-172 -409l-29 2q19 161 -66 260.5t-239 99.5q-135 0 -260.5 -82t-219 -231.5t-132.5 -339.5q-23 -123 -21.5 -232.5
t32 -201.5t80.5 -159t124 -104.5t162 -37.5q164 0 284 106l80 377q37 173 -151 182l8 31h551l-7 -31q-179 -9 -217 -182l-63 -293q-100 -113 -243.5 -184.5t-313.5 -71.5z" />
    <glyph glyph-name="K.ss08" horiz-adv-x="1509" 
d="M1022 0q1 20 -8.5 44t-20 40.5t-30.5 44.5l-478 561l-108 -510q-17 -75 16 -108t137 -43l-6 -29h-557l6 29q108 10 155.5 43t64.5 108l231 1090q15 75 -17.5 108t-136.5 43l6 29h558l-7 -29q-108 -10 -155 -43t-64 -108l-112 -529l741 553q82 62 66 92.5t-125 32.5l6 31
h428l-6 -31q-118 -5 -293 -135l-670 -498l502 -610q108 -140 250 -145l-6 -31h-367z" />
    <glyph glyph-name="uni0136.ss08" horiz-adv-x="1509" 
d="M1022 0q1 20 -8.5 44t-20 40.5t-30.5 44.5l-478 561l-108 -510q-17 -75 16 -108t137 -43l-6 -29h-557l6 29q108 10 155.5 43t64.5 108l231 1090q15 75 -17.5 108t-136.5 43l6 29h558l-7 -29q-108 -10 -155 -43t-64 -108l-112 -529l741 553q82 62 66 92.5t-125 32.5l6 31
h428l-6 -31q-118 -5 -293 -135l-670 -498l502 -610q108 -140 250 -145l-6 -31h-367zM453 -514v16q154 71 196 160q-18 -6 -35 -6q-54 0 -85.5 34.5t-18.5 92.5q8 45 45 75.5t90 30.5q68 0 101 -40t20 -107q-23 -97 -105.5 -163t-207.5 -93z" />
    <glyph glyph-name="R.ss08" horiz-adv-x="1435" 
d="M-27 31q108 6 155.5 39.5t68.5 128.5l223 1054q21 93 -13 127t-137 39l6 31h539q167 0 286.5 -53.5t172.5 -155.5t24 -235q-34 -162 -194 -264.5t-412 -102.5l357 -442q69 -84 126.5 -121.5t135.5 -44.5l-6 -31h-373q-3 34 -17 64.5t-53 80.5l-387 492l-94 -438
q-21 -97 13 -129.5t136 -38.5l-6 -31h-557zM487 694h168q176 0 296 92t151 230q34 169 -49 273t-260 104h-158z" />
    <glyph glyph-name="Racute.ss08" horiz-adv-x="1435" 
d="M-27 31q108 6 155.5 39.5t68.5 128.5l223 1054q21 93 -13 127t-137 39l6 31h539q167 0 286.5 -53.5t172.5 -155.5t24 -235q-34 -162 -194 -264.5t-412 -102.5l357 -442q69 -84 126.5 -121.5t135.5 -44.5l-6 -31h-373q-3 34 -17 64.5t-53 80.5l-387 492l-94 -438
q-21 -97 13 -129.5t136 -38.5l-6 -31h-557zM487 694h168q176 0 296 92t151 230q34 169 -49 273t-260 104h-158zM891 1581l209 338h203l-383 -338h-29z" />
    <glyph glyph-name="Rcaron.ss08" horiz-adv-x="1435" 
d="M-27 31q108 6 155.5 39.5t68.5 128.5l223 1054q21 93 -13 127t-137 39l6 31h539q167 0 286.5 -53.5t172.5 -155.5t24 -235q-34 -162 -194 -264.5t-412 -102.5l357 -442q69 -84 126.5 -121.5t135.5 -44.5l-6 -31h-373q-3 34 -17 64.5t-53 80.5l-387 492l-94 -438
q-21 -97 13 -129.5t136 -38.5l-6 -31h-557zM487 694h168q176 0 296 92t151 230q34 169 -49 273t-260 104h-158zM684 1907l23 16l215 -242l321 242l19 -16l-281 -324h-160z" />
    <glyph glyph-name="uni0156.ss08" horiz-adv-x="1435" 
d="M-27 31q108 6 155.5 39.5t68.5 128.5l223 1054q21 93 -13 127t-137 39l6 31h539q167 0 286.5 -53.5t172.5 -155.5t24 -235q-34 -162 -194 -264.5t-412 -102.5l357 -442q69 -84 126.5 -121.5t135.5 -44.5l-6 -31h-373q-3 34 -17 64.5t-53 80.5l-387 492l-94 -438
q-21 -97 13 -129.5t136 -38.5l-6 -31h-557zM430 -514v16q155 72 197 160q-18 -6 -35 -6q-54 0 -86 35t-19 92q8 45 45.5 75.5t90.5 30.5q68 0 100.5 -40t19.5 -107q-23 -97 -105.5 -163t-207.5 -93zM487 694h168q176 0 296 92t151 230q34 169 -49 273t-260 104h-158z" />
    <glyph glyph-name="S.ss10" horiz-adv-x="1112" 
d="M492 -31q-80 0 -150 16.5t-110 37.5t-77.5 38t-63 20.5t-55.5 -17t-65 -72.5l-28 8l188 442l27 -6q-21 -106 -5 -183t66.5 -126.5t120.5 -73.5t156 -24q123 0 213.5 71t113.5 185q8 38 7.5 72.5t-3.5 61t-19 53.5t-25.5 44t-38 39.5t-41.5 33t-50 31t-50.5 27t-55.5 27.5
q-45 22 -68.5 34t-64 35.5t-61.5 43t-50 48.5t-42 60.5t-24.5 71.5t-10 89t13.5 105q31 143 157.5 231.5t304.5 88.5q82 0 156.5 -22t117 -44.5t82.5 -36.5t73 3.5t69 74.5l29 -6l-166 -393l-27 6q15 90 -6.5 161t-70 113.5t-113 64t-139.5 21.5q-111 0 -193.5 -64.5
t-105.5 -170.5q-13 -63 -1.5 -114t41.5 -86t73.5 -66t95 -54.5t105 -51.5t104 -56t92 -69t68.5 -89.5t34 -118t-12 -155.5q-34 -164 -174.5 -261.5t-341.5 -97.5z" />
    <glyph glyph-name="Sacute.ss10" horiz-adv-x="1112" 
d="M492 -31q-80 0 -150 16.5t-110 37.5t-77.5 38t-63 20.5t-55.5 -17t-65 -72.5l-28 8l188 442l27 -6q-21 -106 -5 -183t66.5 -126.5t120.5 -73.5t156 -24q123 0 213.5 71t113.5 185q8 38 7.5 72.5t-3.5 61t-19 53.5t-25.5 44t-38 39.5t-41.5 33t-50 31t-50.5 27t-55.5 27.5
q-45 22 -68.5 34t-64 35.5t-61.5 43t-50 48.5t-42 60.5t-24.5 71.5t-10 89t13.5 105q31 143 157.5 231.5t304.5 88.5q82 0 156.5 -22t117 -44.5t82.5 -36.5t73 3.5t69 74.5l29 -6l-166 -393l-27 6q15 90 -6.5 161t-70 113.5t-113 64t-139.5 21.5q-111 0 -193.5 -64.5
t-105.5 -170.5q-13 -63 -1.5 -114t41.5 -86t73.5 -66t95 -54.5t105 -51.5t104 -56t92 -69t68.5 -89.5t34 -118t-12 -155.5q-34 -164 -174.5 -261.5t-341.5 -97.5zM766 1581l209 338h203l-383 -338h-29z" />
    <glyph glyph-name="Scaron.ss10" horiz-adv-x="1112" 
d="M492 -31q-80 0 -150 16.5t-110 37.5t-77.5 38t-63 20.5t-55.5 -17t-65 -72.5l-28 8l188 442l27 -6q-21 -106 -5 -183t66.5 -126.5t120.5 -73.5t156 -24q123 0 213.5 71t113.5 185q8 38 7.5 72.5t-3.5 61t-19 53.5t-25.5 44t-38 39.5t-41.5 33t-50 31t-50.5 27t-55.5 27.5
q-45 22 -68.5 34t-64 35.5t-61.5 43t-50 48.5t-42 60.5t-24.5 71.5t-10 89t13.5 105q31 143 157.5 231.5t304.5 88.5q82 0 156.5 -22t117 -44.5t82.5 -36.5t73 3.5t69 74.5l29 -6l-166 -393l-27 6q15 90 -6.5 161t-70 113.5t-113 64t-139.5 21.5q-111 0 -193.5 -64.5
t-105.5 -170.5q-13 -63 -1.5 -114t41.5 -86t73.5 -66t95 -54.5t105 -51.5t104 -56t92 -69t68.5 -89.5t34 -118t-12 -155.5q-34 -164 -174.5 -261.5t-341.5 -97.5zM561 1907l23 16l215 -242l321 242l19 -16l-281 -324h-160z" />
    <glyph glyph-name="Scedilla.ss10" horiz-adv-x="1112" 
d="M492 -31h-19l-72 -88q72 -4 107.5 -45t23.5 -102q-20 -99 -113.5 -142.5t-230.5 -15.5l5 21q84 -9 142.5 19t70.5 85q8 37 -21.5 65.5t-91.5 38.5l145 166q-68 5 -129 23.5t-96 37.5t-69.5 34t-58.5 16t-52.5 -20t-61.5 -70l-28 8l188 442l27 -6q-21 -106 -5 -183
t66.5 -126.5t120.5 -73.5t156 -24q123 0 213.5 71t113.5 185q8 38 7.5 72.5t-3.5 61t-19 53.5t-25.5 44t-38 39.5t-41.5 33t-50 31t-50.5 27t-55.5 27.5q-45 22 -68.5 34t-64 35.5t-61.5 43t-50 48.5t-42 60.5t-24.5 71.5t-10 89t13.5 105q31 143 157.5 231.5t304.5 88.5
q82 0 156.5 -22t117 -44.5t82.5 -36.5t73 3.5t69 74.5l29 -6l-166 -393l-27 6q15 90 -6.5 161t-70 113.5t-113 64t-139.5 21.5q-111 0 -193.5 -64.5t-105.5 -170.5q-13 -63 -1.5 -114t41.5 -86t73.5 -66t95 -54.5t105 -51.5t104 -56t92 -69t68.5 -89.5t34 -118t-12 -155.5
q-34 -164 -174.5 -261.5t-341.5 -97.5z" />
    <glyph glyph-name="Scircumflex.ss10" horiz-adv-x="1112" 
d="M492 -31q-80 0 -150 16.5t-110 37.5t-77.5 38t-63 20.5t-55.5 -17t-65 -72.5l-28 8l188 442l27 -6q-21 -106 -5 -183t66.5 -126.5t120.5 -73.5t156 -24q123 0 213.5 71t113.5 185q8 38 7.5 72.5t-3.5 61t-19 53.5t-25.5 44t-38 39.5t-41.5 33t-50 31t-50.5 27t-55.5 27.5
q-45 22 -68.5 34t-64 35.5t-61.5 43t-50 48.5t-42 60.5t-24.5 71.5t-10 89t13.5 105q31 143 157.5 231.5t304.5 88.5q82 0 156.5 -22t117 -44.5t82.5 -36.5t73 3.5t69 74.5l29 -6l-166 -393l-27 6q15 90 -6.5 161t-70 113.5t-113 64t-139.5 21.5q-111 0 -193.5 -64.5
t-105.5 -170.5q-13 -63 -1.5 -114t41.5 -86t73.5 -66t95 -54.5t105 -51.5t104 -56t92 -69t68.5 -89.5t34 -118t-12 -155.5q-34 -164 -174.5 -261.5t-341.5 -97.5zM496 1597l274 326h160l143 -326l-22 -14l-220 240l-317 -240z" />
    <glyph glyph-name="uni0218.ss10" horiz-adv-x="1112" 
d="M492 -31q-80 0 -150 16.5t-110 37.5t-77.5 38t-63 20.5t-55.5 -17t-65 -72.5l-28 8l188 442l27 -6q-21 -106 -5 -183t66.5 -126.5t120.5 -73.5t156 -24q123 0 213.5 71t113.5 185q8 38 7.5 72.5t-3.5 61t-19 53.5t-25.5 44t-38 39.5t-41.5 33t-50 31t-50.5 27t-55.5 27.5
q-45 22 -68.5 34t-64 35.5t-61.5 43t-50 48.5t-42 60.5t-24.5 71.5t-10 89t13.5 105q31 143 157.5 231.5t304.5 88.5q82 0 156.5 -22t117 -44.5t82.5 -36.5t73 3.5t69 74.5l29 -6l-166 -393l-27 6q15 90 -6.5 161t-70 113.5t-113 64t-139.5 21.5q-111 0 -193.5 -64.5
t-105.5 -170.5q-13 -63 -1.5 -114t41.5 -86t73.5 -66t95 -54.5t105 -51.5t104 -56t92 -69t68.5 -89.5t34 -118t-12 -155.5q-34 -164 -174.5 -261.5t-341.5 -97.5zM205 -514v16q154 71 196 160q-18 -6 -34 -6q-54 0 -86 35t-19 92q8 45 45 75.5t90 30.5q68 0 101 -40t20 -107
q-23 -97 -105.5 -163t-207.5 -93z" />
    <glyph glyph-name="M.titl" horiz-adv-x="2013" 
d="M-72 29q91 3 137 36.5t66 100.5l322 1083q25 84 -8.5 123.5t-135.5 48.5l6 29h349l276 -1186l813 1186h334l-6 -29q-109 -9 -158.5 -42.5t-58.5 -104.5l-146 -1110q-9 -67 26 -99.5t134 -35.5l-6 -29h-547l6 29q100 3 147 34t54 101l145 1077l-854 -1241h-22l-295 1239
l-318 -1073q-19 -67 16 -100.5t132 -36.5l-6 -29h-408z" />
    <glyph glyph-name="F_T" horiz-adv-x="2043" 
d="M-27 29q108 10 155.5 43t64.5 108l231 1090q15 75 -17.5 108t-136.5 43l6 29h1749q93 0 109 31h29l-21 -408h-28q-3 170 -67 245t-206 75h-158l-253 -1198q-20 -87 11 -121.5t136 -42.5l-6 -31h-553l6 31q108 8 154 42.5t65 121.5l254 1198h-862l-133 -621h280
q85 0 128.5 48.5t58.5 160.5h28l-34 -475h-29q-3 111 -38 160t-108 49h-299l-112 -535q-18 -77 25 -109t190 -42l-6 -29h-619z" />
    <glyph glyph-name="T_T" horiz-adv-x="1984" 
d="M1370 195q-20 -87 11.5 -121.5t136.5 -42.5l-7 -31h-553l7 31q109 7 155 41.5t66 122.5l252 1198h-520l-254 -1198q-19 -87 12.5 -121.5t136.5 -42.5l-6 -31h-553l6 31q108 8 154 42.5t65 121.5l254 1198h-155q-142 0 -237.5 -74.5t-172.5 -245.5h-29l152 408h28
q8 -31 97 -31h1550q92 0 111 31h28l-22 -408h-29q-3 170 -66.5 245t-205.5 75h-158z" />
    <glyph glyph-name="T_h" horiz-adv-x="2246" 
d="M664 195q-17 -88 14 -122.5t135 -41.5l-6 -31h-553l6 31q108 8 154 42.5t65 121.5l254 1198h-155q-142 0 -237.5 -74.5t-172.5 -245.5h-29l152 408h28q8 -31 97 -31h1081l94 31h29l-141 -664q118 125 209.5 182.5t185.5 57.5q134 0 200 -93.5t33 -246.5l-116 -557
q-14 -63 11 -92t101 -39l-6 -29h-452l6 29q82 11 119.5 39.5t50.5 91.5l114 538q25 117 -21 177.5t-138 60.5q-33 0 -66 -9.5t-57 -20.5t-62 -39t-58 -44.5t-67 -56.5l-127 -606q-13 -63 11.5 -91.5t101.5 -39.5l-6 -29h-453l6 29q83 10 119.5 39t50.5 92l263 1233h-514z
" />
    <glyph glyph-name="T_i" horiz-adv-x="1595" 
d="M260 31q108 8 154 42.5t65 121.5l254 1198h-151q-145 0 -241.5 -74.5t-172.5 -245.5h-29l152 408h28q8 -31 97 -31h860q67 0 139.5 33t120.5 33q56 0 86 -37t18 -95q-9 -47 -48.5 -80.5t-92.5 -33.5q-57 0 -88.5 34t-24.5 89h-466l-256 -1198q-17 -88 14 -122.5
t135 -41.5l-6 -31h-553zM995 0l6 29q80 11 116.5 39.5t49.5 91.5l140 657q18 82 -10.5 105.5t-120.5 5.5l6 28l317 101h29l-191 -897q-13 -63 11 -91.5t98 -39.5l-6 -29h-445z" />
    <glyph glyph-name="i.loclTRK" horiz-adv-x="571" 
d="M291 160q-12 -63 12.5 -92t102.5 -39l-7 -29h-454l6 29q83 10 120.5 39t51.5 92l139 659q17 81 -10 104t-109 9l7 29l305 96h28zM317 1335q6 53 47.5 88t96.5 35q53 0 84.5 -35.5t25.5 -87.5t-46.5 -87.5t-94.5 -35.5q-56 0 -88 35.5t-25 87.5z" />
    <glyph glyph-name="f.calt" horiz-adv-x="866" 
d="M786 1026l-12 -57h-287l-172 -815q-13 -64 26.5 -89t147.5 -36l-6 -29h-518l6 29q50 8 81 18.5t57.5 37t35.5 69.5l172 815h-170l13 57h170l18 86q41 192 160 291t280 96q104 -2 169 -35t51 -96q-7 -41 -48 -60t-73 -1q-22 8 -32 25.5t-13.5 35.5t-9 35.5t-25 28.5
t-55.5 10q-81 0 -138 -74t-84 -201l-30 -141h286z" />
    <glyph glyph-name="germandbls.calt" horiz-adv-x="1454" 
d="M938 776q94 14 175.5 -7.5t137.5 -75.5t78.5 -139t-2.5 -198q-37 -172 -167.5 -278.5t-305.5 -106.5q-156 0 -251 79.5t-101 211.5l28 10q15 -84 94 -136t185 -52q118 0 206.5 79t114.5 204q41 195 -71.5 293t-327.5 61l-10 39l522 520q-39 65 -123.5 104t-175.5 39
q-143 0 -249.5 -92.5t-145.5 -277.5l-225 -1053h-357l6 29q96 5 140.5 35t62.5 112l176 823q26 118 84.5 211t139 152t176 89.5t198.5 29.5q155 -2 299.5 -66t186.5 -158z" />
    <glyph glyph-name="a.ss01" horiz-adv-x="1185" 
d="M385 -31q-193 0 -276.5 166t-26.5 434q29 131 110 241.5t207 178.5t271 68q88 0 159 -35t107 -94l133 129h29l-195 -912q-7 -38 5 -60t40 -22q42 0 96 68l23 -10q-55 -85 -111 -118.5t-100 -33.5q-59 0 -96.5 41.5t-28.5 114.5l21 94q-54 -110 -154 -180t-213 -70z
M264 573q-27 -147 -15 -259t73 -178t161 -66q81 0 159 59t120 147l94 445q9 74 -8.5 135.5t-69.5 102t-131 40.5q-131 0 -237 -119t-146 -307z" />
    <glyph glyph-name="aacute.ss01" horiz-adv-x="1185" 
d="M385 -31q-193 0 -276.5 166t-26.5 434q29 131 110 241.5t207 178.5t271 68q88 0 159 -35t107 -94l133 129h29l-195 -912q-7 -38 5 -60t40 -22q42 0 96 68l23 -10q-55 -85 -111 -118.5t-100 -33.5q-59 0 -96.5 41.5t-28.5 114.5l21 94q-54 -110 -154 -180t-213 -70z
M264 573q-27 -147 -15 -259t73 -178t161 -66q81 0 159 59t120 147l94 445q9 74 -8.5 135.5t-69.5 102t-131 40.5q-131 0 -237 -119t-146 -307zM717 1157l209 338h202l-383 -338h-28z" />
    <glyph glyph-name="abreve.ss01" horiz-adv-x="1185" 
d="M385 -31q-193 0 -276.5 166t-26.5 434q29 131 110 241.5t207 178.5t271 68q88 0 159 -35t107 -94l133 129h29l-195 -912q-7 -38 5 -60t40 -22q42 0 96 68l23 -10q-55 -85 -111 -118.5t-100 -33.5q-59 0 -96.5 41.5t-28.5 114.5l21 94q-54 -110 -154 -180t-213 -70z
M264 573q-27 -147 -15 -259t73 -178t161 -66q81 0 159 59t120 147l94 445q9 74 -8.5 135.5t-69.5 102t-131 40.5q-131 0 -237 -119t-146 -307zM559 1507h31q-11 -103 33.5 -161t134.5 -58q91 0 160.5 58t101.5 161h31q-32 -160 -114.5 -251t-197.5 -91q-119 0 -167 91.5
t-13 250.5z" />
    <glyph glyph-name="acircumflex.ss01" horiz-adv-x="1185" 
d="M385 -31q-193 0 -276.5 166t-26.5 434q29 131 110 241.5t207 178.5t271 68q88 0 159 -35t107 -94l133 129h29l-195 -912q-7 -38 5 -60t40 -22q42 0 96 68l23 -10q-55 -85 -111 -118.5t-100 -33.5q-59 0 -96.5 41.5t-28.5 114.5l21 94q-54 -110 -154 -180t-213 -70z
M264 573q-27 -147 -15 -259t73 -178t161 -66q81 0 159 59t120 147l94 445q9 74 -8.5 135.5t-69.5 102t-131 40.5q-131 0 -237 -119t-146 -307zM446 1174l275 325h160l143 -325l-23 -15l-219 240l-317 -240z" />
    </font>
</defs>
</svg>
