<?xml version="1.0" standalone="no"?>
<!DOCTYPE svg PUBLIC "-//W3C//DTD SVG 1.1//EN" "http://www.w3.org/Graphics/SVG/1.1/DTD/svg11.dtd" >
<svg xmlns="http://www.w3.org/2000/svg" xmlns:xlink="http://www.w3.org/1999/xlink" version="1.1">
<metadata>
Created by FontForge 20201107 at Tue Apr 16 22:13:52 2024
 By 
Copyright (c) 2021 by Martin Va'cha. All rights reserved.
</metadata>
<defs>
<font id="TobiasTRIAL-Thin" horiz-adv-x="1228" >
  <font-face 
    font-family="Tobias TRIAL Thin"
    font-weight="100"
    font-stretch="normal"
    units-per-em="2048"
    panose-1="0 0 0 0 0 0 0 0 0 0"
    ascent="1638"
    descent="-410"
    x-height="1016"
    cap-height="1450"
    bbox="-238 -465 2302 2304"
    underline-thickness="102"
    underline-position="-255"
    unicode-range="U+000D-F8FF"
  />
<missing-glyph horiz-adv-x="2293" 
d="M123 633q0 202 78 388.5t210 323.5t314.5 222t384.5 92v-2048q-202 7 -385 90.5t-315 220t-209.5 322.5t-77.5 389zM1184 -383v2034q83 -28 153 -172t111 -368.5t41 -477.5t-41 -477t-111 -367t-153 -172zM1339 -350q103 134 164.5 398.5t61.5 584.5t-61 584.5
t-165 402.5q146 -62 262 -207.5t181 -349.5t65 -430q0 -344 -142 -617t-366 -366zM1548 -307q172 150 273.5 400t101.5 540q0 289 -101.5 541t-273.5 401q281 -119 452 -376t171 -566q0 -310 -171 -566t-452 -374z" />
    <glyph glyph-name="f_f" unicode="ff" horiz-adv-x="1546" 
d="M684 29q27 4 45 7.5t42 12.5t38 21t24.5 33t10.5 49v806h-543v-806q0 -35 14.5 -58t46.5 -36t67 -19t91 -10v-29h-452v29q27 4 45 7.5t41.5 12.5t38 21t24.5 33t10 49v806h-174v58h174v78q0 97 31 174t83.5 124.5t117.5 72t137 24.5q83 0 172 -43.5t131 -124.5
q51 84 136 126t179 42q137 0 230.5 -66.5t93.5 -152.5q0 -26 -17 -45t-42 -19q-24 0 -39 18t-15 44q0 75 -61.5 119.5t-167.5 44.5q-32 0 -66.5 -8t-73.5 -29t-69 -52.5t-49.5 -84.5t-19.5 -119v-123h282v-58h-282v-806q0 -35 14.5 -58t46.5 -36t67 -19t91 -10v-29h-453v29z
M301 1016h543v92q0 58 12 111q-27 103 -98 158t-166 55q-56 0 -105.5 -16.5t-92.5 -51t-68 -96.5t-25 -144v-108z" />
    <glyph glyph-name="f_f_i" unicode="ffi" horiz-adv-x="1763" 
d="M684 29q27 4 45 7.5t42 12.5t38 21t24.5 33t10.5 49v806h-543v-806q0 -35 14.5 -58t46.5 -36t67 -19t91 -10v-29h-452v29q27 4 45 7.5t41.5 12.5t38 21t24.5 33t10 49v806h-174v58h174v78q0 97 31 174t83.5 124.5t117.5 72t137 24.5q83 0 172 -43.5t131 -124.5
q51 84 136 126t179 42q137 0 230.5 -66.5t93.5 -152.5q0 -26 -17 -45t-42 -19q-24 0 -39 18t-15 44q0 75 -61.5 119.5t-167.5 44.5q-32 0 -66.5 -8t-73.5 -29t-69 -52.5t-49.5 -84.5t-19.5 -119v-123h532l55 31h29v-887q0 -66 35.5 -94.5t124.5 -36.5v-29h-394v29
q89 8 124.5 36.5t35.5 94.5v665q0 83 -24 108t-82 25h-436v-806q0 -35 14.5 -58t46.5 -36t67 -19t91 -10v-29h-453v29zM301 1016h543v92q0 58 12 111q-27 103 -98 158t-166 55q-56 0 -105.5 -16.5t-92.5 -51t-68 -96.5t-25 -144v-108z" />
    <glyph glyph-name="f_f_l" unicode="ffl" horiz-adv-x="1763" 
d="M68 29q27 4 45 7.5t41.5 12.5t38 21t24.5 33t10 49v806h-174v58h174v78q0 97 31 174t83.5 124.5t117.5 72t137 24.5q83 0 172 -43.5t131 -124.5q49 82 132 125t179 43q57 0 120 -22t108 -62l67 76h29v-1321q0 -66 35.5 -94.5t124.5 -36.5v-29h-394v29q89 8 124.5 36.5
t35.5 94.5v1005q-1 128 -73.5 197.5t-180.5 69.5q-56 0 -105.5 -16.5t-92.5 -51t-68 -96.5t-25 -144v-108h322v-58h-322v-806q0 -66 52.5 -90t167.5 -33v-29h-453v29q27 4 45 7.5t42 12.5t38 21t24.5 33t10.5 49v806h-541v-806q0 -35 14.5 -58t46.5 -36t67 -19t91 -10v-29
h-452v29zM301 1016h541v78q0 57 14 125q-27 103 -98 158t-166 55q-56 0 -105.5 -16.5t-92.5 -51t-68 -96.5t-25 -144v-108z" />
    <glyph glyph-name="f_i" unicode="fi" horiz-adv-x="1146" 
d="M68 29q27 4 45 7.5t41.5 12.5t38 21t24.5 33t10 49v806h-174v58h174v92q0 96 33.5 172t88 120t118.5 66.5t131 22.5q137 0 230.5 -66.5t93.5 -152.5q0 -26 -17 -45t-43 -19q-24 0 -38.5 18t-14.5 44q0 75 -61.5 119.5t-167.5 44.5q-32 0 -67 -8t-73.5 -29t-68.5 -52.5
t-50 -84.5t-20 -119v-123h508l80 31h29v-887q0 -66 35 -95t124 -36v-29h-393v29q89 8 124.5 36.5t35.5 94.5v665q0 83 -24.5 108t-82.5 25h-436v-806q0 -35 14.5 -58t46.5 -36t67 -19t91 -10v-29h-452v29z" />
    <glyph glyph-name="f_l" unicode="fl" horiz-adv-x="1146" 
d="M53 958v58h174v117q0 96 30.5 168t82.5 111.5t112 58t128 18.5q142 0 233 -72l76 58h29v-1315q0 -66 35 -95t124 -36v-29h-393v29q89 8 124.5 36.5t35.5 94.5v1057q0 94 -76 153.5t-193 59.5q-274 0 -274 -267v-147h320v-58h-320v-806q0 -35 14.5 -58t46.5 -36t67 -19
t91 -10v-29h-452v29q27 4 45 7.5t41.5 12.5t38 21t24.5 33t10 49v806h-174z" />
    <glyph glyph-name=".notdef" horiz-adv-x="2293" 
d="M123 633q0 202 78 388.5t210 323.5t314.5 222t384.5 92v-2048q-202 7 -385 90.5t-315 220t-209.5 322.5t-77.5 389zM1184 -383v2034q83 -28 153 -172t111 -368.5t41 -477.5t-41 -477t-111 -367t-153 -172zM1339 -350q103 134 164.5 398.5t61.5 584.5t-61 584.5
t-165 402.5q146 -62 262 -207.5t181 -349.5t65 -430q0 -344 -142 -617t-366 -366zM1548 -307q172 150 273.5 400t101.5 540q0 289 -101.5 541t-273.5 401q281 -119 452 -376t171 -566q0 -310 -171 -566t-452 -374z" />
    <glyph glyph-name=".null" horiz-adv-x="0" 
 />
    <glyph glyph-name="nonmarkingreturn" horiz-adv-x="682" 
 />
    <glyph glyph-name="CR" unicode="&#xd;" 
 />
    <glyph glyph-name="space" unicode=" " horiz-adv-x="471" 
 />
    <glyph glyph-name="exclam" unicode="!" horiz-adv-x="471" 
d="M236 1481q33 0 52 -25t17 -67l-53 -1063h-29l-55 1063q-3 41 15.5 66.5t52.5 25.5zM123 80q0 46 33.5 79.5t79.5 33.5t79 -33.5t33 -79.5t-33 -78.5t-79 -32.5t-79.5 32.5t-33.5 78.5z" />
    <glyph glyph-name="quotedbl" unicode="&#x22;" horiz-adv-x="438" 
d="M78 1505q-3 64 41 64t41 -64l-27 -409h-29zM279 1505q-3 64 40 64q44 0 41 -64l-26 -409h-29z" />
    <glyph glyph-name="numbersign" unicode="#" horiz-adv-x="1284" 
d="M1128 535v-58h-305l-133 -477h-57l133 477h-387l-133 -477h-58l134 477h-248v58h264l108 385h-290v57h305l133 473h57l-133 -473h387l133 473h58l-133 -473h247v-57h-262l-108 -385h288zM395 535h387l109 385h-387z" />
    <glyph glyph-name="dollar" unicode="$" horiz-adv-x="1087" 
d="M516 1665h57v-188q51 -7 100.5 -23.5t75 -28.5t48 -16t33.5 12.5t18 59.5h29l61 -387h-29q-30 143 -119 225t-217 100v-614q47 -19 68.5 -28t65 -28.5t65.5 -33t57.5 -37t54 -44t42 -50.5t35 -61t20 -70.5t8.5 -83.5q0 -175 -117 -287.5t-299 -112.5v-274h-57v276
q-59 5 -112.5 20t-83 30t-55 26.5t-38.5 9.5t-23 -22t-18 -66h-28l-68 434h29q41 -160 145.5 -256.5t251.5 -113.5v680q-47 19 -71 29.5t-66 30t-65.5 36t-55.5 41t-50 50.5t-36 59.5t-25.5 73.5t-7.5 87q0 166 99.5 263.5t269.5 97.5h8v184zM215 1153q0 -53 16.5 -97.5
t42 -76t67.5 -61t80.5 -49t94.5 -42.5v596h-8q-135 0 -214 -73t-79 -197zM573 31q142 0 234 83.5t92 213.5q0 53 -11.5 97t-36 78.5t-51 61t-68 50t-75.5 39.5t-84 36v-659z" />
    <glyph glyph-name="percent" unicode="%" horiz-adv-x="1636" 
d="M471 0h-59l753 1450h60zM74 1026q0 126 35.5 228.5t106 164.5t165.5 62q139 0 222 -129t83 -326q0 -127 -36 -229.5t-106.5 -164t-162.5 -61.5q-141 0 -224 130.5t-83 324.5zM160 1096q0 -46 6 -102.5t23 -127t42.5 -127t70 -95t99.5 -38.5q90 0 145.5 96.5t55.5 255.5
q0 60 -12 136t-37.5 159t-75.5 139t-115 56q-92 0 -147 -96.5t-55 -255.5zM950 424q0 126 35.5 228.5t106 164.5t165.5 62q139 0 222.5 -129t83.5 -326q0 -127 -36.5 -229.5t-107 -164t-162.5 -61.5q-141 0 -224 130.5t-83 324.5zM1036 494q0 -46 6 -102.5t23.5 -127
t43 -127t70 -95t99.5 -38.5q90 0 145.5 96.5t55.5 255.5q0 60 -12 136t-37.5 159t-75.5 139t-115 56q-92 0 -147.5 -96.5t-55.5 -255.5z" />
    <glyph glyph-name="ampersand" unicode="&#x26;" horiz-adv-x="1368" 
d="M1217 -10q-69 0 -117 32t-172 164q-172 -215 -451 -215q-183 0 -294 104.5t-111 270.5q0 148 84 269t219 178q-99 124 -136.5 207.5t-37.5 160.5q0 137 90 228.5t231 91.5q135 0 219 -87.5t84 -213.5q0 -49 -17.5 -101t-54 -106t-100 -104t-147.5 -85q61 -74 172 -198
q169 -191 262 -289q89 159 115 371q10 82 -30 112.5t-144 32.5v29h436v-29q-100 -2 -145.5 -32t-59.5 -126q-37 -235 -135 -397q97 -102 159 -151.5t99 -49.5q36 0 59 18.5t43 74.5l21 -9q-37 -151 -141 -151zM178 383q0 -157 97 -255.5t257 -98.5q105 0 198 49.5t163 144.5
q-24 26 -121.5 131t-169.5 181q-101 106 -192 215q-105 -47 -168.5 -149.5t-63.5 -217.5zM266 1190q0 -71 40 -144.5t161 -216.5q141 54 214 142.5t73 191.5q0 106 -74 183t-188 77q-100 0 -163 -68t-63 -165z" />
    <glyph glyph-name="quotesingle" unicode="'" horiz-adv-x="237" 
d="M78 1505q-3 64 41 64t41 -64l-27 -409h-29z" />
    <glyph glyph-name="parenleft" unicode="(" horiz-adv-x="577" 
d="M522 -291q-180 130 -289.5 374t-109.5 511q0 269 109.5 513t289.5 374l15 -19q-137 -147 -222.5 -386t-85.5 -482q0 -242 85.5 -480.5t222.5 -385.5z" />
    <glyph glyph-name="parenright" unicode=")" horiz-adv-x="577" 
d="M41 -272q137 147 222 385.5t85 480.5q0 243 -85 482t-222 386l14 19q180 -130 290 -374t110 -513q0 -267 -110 -511t-290 -374z" />
    <glyph glyph-name="asterisk" unicode="*" horiz-adv-x="815" 
d="M596 852q-17 -12 -36 -4.5t-32 33.5l-120 227l-121 -227q-13 -26 -32 -33.5t-36 4.5q-18 12 -17 32.5t21 41.5l170 190l-246 58q-29 7 -39.5 24.5t-1.5 36.5q18 37 74 8l219 -113l-30 252q-3 29 8 46.5t31 17.5t30.5 -17.5t7.5 -46.5l-30 -252l219 113q56 29 74 -8
q9 -19 -1.5 -36.5t-39.5 -24.5l-246 -58l170 -190q41 -48 4 -74z" />
    <glyph glyph-name="plus" unicode="+" 
d="M184 627v53h404v403h53v-403h403v-53h-403v-404h-53v404h-404z" />
    <glyph glyph-name="comma" unicode="," horiz-adv-x="401" 
d="M193 193q60 0 93 -43t33 -111q0 -220 -227 -315l-6 22q174 97 178 246q-32 -25 -69 -25q-49 0 -81 30.5t-32 76.5q0 51 32 85t79 34z" />
    <glyph glyph-name="hyphen" unicode="-" horiz-adv-x="716" 
d="M614 571v-53h-512v53h512z" />
    <glyph glyph-name="period" unicode="." horiz-adv-x="389" 
d="M195 -31q-46 0 -79.5 32.5t-33.5 78.5t33.5 79.5t79.5 33.5t79 -33.5t33 -79.5t-33 -78.5t-79 -32.5z" />
    <glyph glyph-name="slash" unicode="/" horiz-adv-x="833" 
d="M70 0h-60l754 1450h59z" />
    <glyph glyph-name="zero" unicode="0" horiz-adv-x="1234" 
d="M616 1483q150 0 264 -101t173 -272t59 -385q0 -213 -59 -384t-173 -272.5t-264 -101.5t-263 101.5t-171.5 272.5t-58.5 384q0 214 58.5 385t171.5 272t263 101zM231 840q0 -48 5 -108.5t18 -140t33 -156t53.5 -152t75 -132t102 -91.5t131.5 -35q164 0 260.5 156.5
t96.5 428.5q0 48 -5.5 110t-19.5 141t-34.5 156t-54.5 151.5t-75.5 131t-101.5 91t-129 34.5q-162 0 -258.5 -156.5t-96.5 -428.5z" />
    <glyph glyph-name="one" unicode="1" horiz-adv-x="641" 
d="M51 29q68 1 106 6.5t69 23.5t43 53t12 93v1057h-230v28q105 28 173 64t118 96h29v-1245q0 -57 11 -92.5t37.5 -53.5t57 -23.5t82.5 -6.5v-29h-508v29z" />
    <glyph glyph-name="two" unicode="2" horiz-adv-x="1017" 
d="M434 1423q-129 0 -205.5 -86t-64.5 -209q3 -38 -12 -55.5t-48 -15.5q-51 0 -55 76q-4 144 115 246t291 102q184 0 295.5 -105t111.5 -282q0 -94 -31 -185t-81.5 -164t-115.5 -143.5t-133.5 -127t-135 -112t-119.5 -100t-88.5 -89.5t-40.5 -83h528q38 0 57.5 0.5t45.5 3.5
t39.5 9t31 17.5t27.5 27.5t22.5 40.5t22 56t20.5 74.5l29 -6l-55 -313h-826v47q0 60 38.5 125.5t100 128t135.5 130t148.5 142t136 152.5t100 174t38.5 195q0 139 -92.5 234t-229.5 95z" />
    <glyph glyph-name="three" unicode="3" horiz-adv-x="1015" 
d="M471 -31q-175 0 -288 80.5t-132 218.5q-10 73 43 84q65 13 70 -63q8 -119 89 -190.5t245 -71.5q153 0 243 96.5t90 251.5q0 172 -132.5 267.5t-374.5 88.5l6 35q184 12 298.5 107.5t114.5 236.5q0 144 -77.5 228.5t-202.5 84.5q-128 0 -203.5 -85.5t-66.5 -209.5
q6 -71 -60 -71q-51 0 -55 76q-6 144 113.5 246t291.5 102q164 0 265.5 -89t101.5 -241q0 -125 -86 -231t-213 -148q188 -15 287.5 -112t99.5 -254q0 -196 -128.5 -316.5t-338.5 -120.5z" />
    <glyph glyph-name="four" unicode="4" horiz-adv-x="1153" 
d="M422 29q137 2 198.5 40t61.5 140v192h-641v29l702 1051h29v-1006h33q105 0 169.5 67t96.5 218h29l-58 -359h-270v-192q1 -103 42.5 -140.5t148.5 -39.5v-29h-541v29zM137 475h545v815z" />
    <glyph glyph-name="five" unicode="5" horiz-adv-x="1087" 
d="M918 1550l30 -190h-639l-80 -541q148 115 310 115q188 0 317 -132t129 -329q0 -217 -133 -360.5t-330 -143.5q-178 0 -295 84.5t-157 227.5q-9 31 3.5 51.5t39.5 25.5q26 5 45 -13t22 -54q26 -121 120.5 -192.5t221.5 -71.5q164 0 260.5 110t96.5 297q0 175 -112 292.5
t-265 117.5q-173 0 -318 -127l-24 8l106 725h545q38 0 56.5 23t21.5 77h29z" />
    <glyph glyph-name="six" unicode="6" horiz-adv-x="1136" 
d="M688 1483q132 0 239 -79.5t107 -191.5q0 -27 -15 -46.5t-40 -20.5q-31 -2 -50 16t-20 51q-6 105 -71 159t-179 54q-182 0 -301 -185.5t-129 -491.5q-3 -57 0 -107q57 119 163.5 188.5t244.5 69.5q187 0 302.5 -128.5t115.5 -326.5q0 -205 -121 -340t-311 -135
q-237 0 -374 211t-126 559q5 167 49.5 306.5t118.5 235.5t176 149t221 53zM231 596q19 -262 130.5 -415.5t285.5 -153.5q130 0 215.5 113.5t85.5 275.5q0 178 -104.5 285.5t-270.5 107.5q-107 0 -197 -54t-145 -159z" />
    <glyph glyph-name="seven" unicode="7" horiz-adv-x="983" 
d="M958 1421q-10 -17 -49 -79.5t-71.5 -114.5t-80.5 -142.5t-85 -173.5t-76 -196t-63 -221t-36 -237.5t-5 -256.5h-111q-8 117 3.5 238.5t37 226.5t67 215.5t83.5 198.5t97 182.5t97.5 160t93.5 138.5h-545q-95 0 -149.5 -60.5t-83.5 -205.5h-29l58 356h847v-29z" />
    <glyph glyph-name="eight" unicode="8" horiz-adv-x="1130" 
d="M563 -33q-205 0 -339 103.5t-134 261.5q0 142 97 257.5t262 172.5q-68 34 -115.5 65.5t-92 75t-67 99.5t-22.5 124q0 145 117 251t294 106q178 0 297 -96t119 -228q0 -127 -97 -225.5t-264 -142.5q3 -1 9 -4q82 -36 124 -56.5t107 -61.5t97.5 -78.5t58.5 -95.5t26 -126
q0 -180 -134 -291t-343 -111zM197 332q0 -133 106 -220t260 -87q155 0 263 83.5t108 217.5q0 34 -7.5 65.5t-18.5 57t-32 50.5t-40 44t-49.5 40.5t-54 35.5t-61 33.5t-62 31t-66 31t-64.5 30.5q-130 -56 -206 -166.5t-76 -246.5zM254 1161q0 -55 19 -102t47.5 -81t76 -67.5
t89 -55.5t102.5 -50q133 57 211 153.5t78 204.5q0 122 -92.5 192t-221.5 70q-131 0 -220 -68t-89 -196z" />
    <glyph glyph-name="nine" unicode="9" horiz-adv-x="1136" 
d="M449 -33q-132 0 -239.5 79.5t-107.5 191.5q0 27 15 46.5t41 20.5q31 2 49.5 -15.5t19.5 -51.5q6 -105 71 -159t179 -54q182 0 301 185.5t129 491.5q3 57 0 107q-57 -119 -163 -188.5t-244 -69.5q-187 0 -302.5 128.5t-115.5 326.5q0 205 121 340t311 135q237 0 374 -211
t126 -559q-5 -167 -49.5 -306.5t-118.5 -235.5t-176 -149t-221 -53zM188 1034q0 -178 104.5 -285.5t270.5 -107.5q107 0 197 54t145 159q-19 262 -130.5 415.5t-285.5 153.5q-130 0 -215.5 -113.5t-85.5 -275.5z" />
    <glyph glyph-name="colon" unicode=":" horiz-adv-x="389" 
d="M195 825q-46 0 -79.5 32.5t-33.5 78.5t33.5 79.5t79.5 33.5t79 -33.5t33 -79.5t-33 -78.5t-79 -32.5zM82 80q0 46 33.5 79.5t79.5 33.5t79 -33.5t33 -79.5t-33 -78.5t-79 -32.5t-79.5 32.5t-33.5 78.5z" />
    <glyph glyph-name="semicolon" unicode=";" horiz-adv-x="401" 
d="M193 193q60 0 93 -43t33 -111q0 -220 -227 -315l-6 22q174 97 178 246q-32 -25 -69 -25q-49 0 -81 30.5t-32 76.5q0 51 32 85t79 34zM88 934q0 46 33.5 79.5t79.5 33.5t79 -33.5t33 -79.5t-33 -78.5t-79 -32.5t-79.5 32.5t-33.5 78.5z" />
    <glyph glyph-name="less" unicode="&#x3c;" horiz-adv-x="1161" 
d="M233 655l744 -379l-25 -51l-768 393v68l768 395l25 -49z" />
    <glyph glyph-name="equal" unicode="=" 
d="M184 797v53h860v-53h-860zM184 467v53h860v-53h-860z" />
    <glyph glyph-name="greater" unicode="&#x3e;" horiz-adv-x="1161" 
d="M928 655l-744 377l25 49l768 -395v-68l-768 -393l-25 51z" />
    <glyph glyph-name="question" unicode="?" horiz-adv-x="960" 
d="M434 326q-11 92 1 169t39.5 131.5t63 102.5t73.5 91t70 86t52.5 99.5t20.5 120.5q0 132 -90 215.5t-226 83.5q-125 0 -199 -82.5t-65 -203.5q6 -70 -57 -70q-52 0 -56 74q-7 141 111.5 239.5t286.5 98.5q183 0 291 -93t108 -262q0 -69 -22.5 -130t-58 -107t-78 -90.5
t-85 -92t-77.5 -99.5t-55.5 -124.5t-18.5 -156.5h-29zM348 80q0 46 33.5 79.5t79.5 33.5t79 -33.5t33 -79.5t-33 -78.5t-79 -32.5t-79.5 32.5t-33.5 78.5z" />
    <glyph glyph-name="at" unicode="@" horiz-adv-x="1722" 
d="M874 -326q-160 0 -299.5 54.5t-238.5 149t-156 228t-57 285.5q0 175 60.5 328.5t166 262.5t253.5 172t317 63q304 0 491.5 -174t187.5 -447q0 -239 -115 -386t-282 -147q-91 0 -137 53.5t-31 151.5q-97 -205 -272 -205q-152 0 -224.5 114.5t-33.5 299.5q34 164 156 274.5
t272 110.5q72 0 128.5 -31t78.5 -83l51 114h45l-115 -545q-13 -65 -12 -113.5t28 -76t81 -27.5q72 0 139.5 65.5t110 181t42.5 249.5q0 159 -67 285.5t-202.5 202t-319.5 75.5q-200 0 -362 -99.5t-253.5 -275.5t-91.5 -393q0 -187 88 -338t243.5 -236t348.5 -85
q128 0 260 41t221 108l19 -26q-94 -82 -236.5 -131.5t-282.5 -49.5zM598 506q-39 -182 8 -288.5t170 -106.5q77 0 150 55.5t112 140.5l64 297q7 87 -43.5 149t-159.5 62q-110 0 -191 -83.5t-110 -225.5z" />
    <glyph glyph-name="A" unicode="A" horiz-adv-x="1425" 
d="M1206 229q43 -114 87.5 -157t119.5 -43v-29h-502v29q157 0 201 39t4 143l-108 285h-627l-109 -285q-40 -104 0.5 -143t188.5 -39v-29h-449v29q74 0 118.5 43.5t88.5 158.5l479 1250h29zM403 553h582l-291 760z" />
    <glyph glyph-name="B" unicode="B" horiz-adv-x="1263" 
d="M82 29q105 7 146.5 40.5t41.5 110.5v1090q0 77 -41.5 110.5t-146.5 40.5v29h518q211 0 338 -96t127 -262q0 -115 -89.5 -209t-230.5 -125q187 -23 301.5 -125.5t114.5 -243.5q0 -176 -130 -282.5t-343 -106.5h-606v29zM360 207q0 -73 42.5 -111.5t158.5 -38.5h119
q169 0 272 91t103 241t-119.5 243t-312.5 93h-263v-518zM360 782h263q149 0 242 88t93 222q0 140 -105 220.5t-280 80.5h-213v-611z" />
    <glyph glyph-name="C" unicode="C" horiz-adv-x="1368" 
d="M1151 1481l61 -387h-28q-104 329 -447 329q-222 0 -364.5 -187.5t-143.5 -485.5q-1 -201 73.5 -363.5t207.5 -254t299 -91.5q157 0 272 98t160 264l29 -6q-21 -133 -96 -232t-182 -148.5t-230 -49.5q-139 0 -258 54t-203 149t-131.5 229.5t-46.5 290.5q1 231 82.5 412
t224.5 280t322 99q61 0 124.5 -15t102 -30t72 -22.5t50 7.5t21.5 60h29z" />
    <glyph glyph-name="D" unicode="D" horiz-adv-x="1449" 
d="M629 1450q314 0 506 -186t192 -490q0 -347 -183 -560.5t-482 -213.5h-580v29q105 7 146.5 40.5t41.5 110.5v1090q0 77 -41.5 110.5t-146.5 40.5v29h547zM360 207q0 -82 34 -116t116 -34h152q250 0 404.5 184.5t154.5 483.5q0 312 -167 490t-460 178h-234v-1186z" />
    <glyph glyph-name="E" unicode="E" horiz-adv-x="1239" 
d="M1157 358h29l-58 -358h-1046v29q105 7 146.5 40.5t41.5 110.5v1090q0 77 -41.5 110.5t-146.5 40.5v29h911q68 0 76 31h29l61 -387h-29q-34 160 -100 229.5t-186 69.5h-484v-621h324q89 0 119.5 44t21.5 157h29l72 -459h-29q-30 111 -73.5 156t-116.5 45h-347v-508
q0 -81 27 -115.5t90 -34.5h414q103 0 168.5 74t97.5 227z" />
    <glyph glyph-name="F" unicode="F" horiz-adv-x="1202" 
d="M1096 1481l61 -387h-29q-34 160 -100 229.5t-186 69.5h-482v-621h324q89 0 119.5 44t21.5 157h29l72 -459h-29q-30 111 -73.5 156t-116.5 45h-347v-535q0 -79 51 -111.5t199 -39.5v-29h-528v29q105 7 146.5 40.5t41.5 110.5v1090q0 77 -41.5 110.5t-146.5 40.5v29h909
q68 0 76 31h29z" />
    <glyph glyph-name="G" unicode="G" horiz-adv-x="1441" 
d="M743 -31q-128 0 -242 53.5t-198 147.5t-132.5 229t-47.5 291q1 231 81.5 411t225.5 280t330 100q60 0 121.5 -15t98.5 -30.5t69.5 -23t49.5 8t23 60.5h29l61 -387h-26q-107 329 -449 329q-223 0 -366.5 -188.5t-143.5 -482.5q0 -186 72 -350t204 -265.5t292 -101.5
q102 0 198.5 34t159.5 107v352q0 167 -195 170v31h463v-31q-91 -3 -134.5 -45t-43.5 -125v-325q-69 -100 -198 -167t-302 -67z" />
    <glyph glyph-name="H" unicode="H" horiz-adv-x="1523" 
d="M1442 1421q-106 -7 -147.5 -40.5t-41.5 -110.5v-1090q0 -77 41.5 -110.5t147.5 -40.5v-29h-467v29q105 7 146.5 40.5t41.5 110.5v537h-803v-537q0 -77 41.5 -110.5t147.5 -40.5v-29h-467v29q105 7 146.5 40.5t41.5 110.5v1090q0 77 -41.5 110.5t-146.5 40.5v29h467v-29
q-106 -7 -147.5 -40.5t-41.5 -110.5v-496h803v496q0 77 -41.5 110.5t-146.5 40.5v29h467v-29z" />
    <glyph glyph-name="I" unicode="I" horiz-adv-x="630" 
d="M360 180q0 -77 41.5 -110.5t147.5 -40.5v-29h-467v29q105 7 146.5 40.5t41.5 110.5v1090q0 77 -41.5 110.5t-146.5 40.5v29h467v-29q-106 -7 -147.5 -40.5t-41.5 -110.5v-1090z" />
    <glyph glyph-name="J" unicode="J" horiz-adv-x="944" 
d="M369 -31q-143 0 -237.5 76t-100.5 217q-2 34 12.5 54t40.5 20q23 0 37 -17t14 -45q0 -18 -4 -42t-4 -39q0 -81 68 -123.5t174 -42.5q119 0 187.5 84t68.5 258v901q0 77 -41.5 110.5t-147.5 40.5v29h467v-29q-105 -7 -146.5 -40.5t-41.5 -110.5v-871q0 -215 -93 -322.5
t-253 -107.5z" />
    <glyph glyph-name="K" unicode="K" horiz-adv-x="1396" 
d="M1114 0q-11 60 -63 131l-461 674l-230 -250v-375q0 -77 41.5 -110.5t147.5 -40.5v-29h-467v29q105 7 146.5 40.5t41.5 110.5v1090q0 77 -41.5 110.5t-146.5 40.5v29h467v-29q-106 -7 -147.5 -40.5t-41.5 -110.5v-631l605 657q29 33 39.5 52.5t2 35.5t-44 24t-102.5 11v31
h426v-31q-72 -7 -129.5 -34t-114.5 -89l-391 -426l504 -727q35 -53 96.5 -82.5t134.5 -29.5v-31h-272z" />
    <glyph glyph-name="L" unicode="L" horiz-adv-x="1206" 
d="M1137 358h28l-57 -358h-1026v29q105 7 146.5 40.5t41.5 110.5v1090q0 77 -41.5 110.5t-146.5 40.5v29h467v-29q-106 -7 -147.5 -40.5t-41.5 -110.5v-1063q0 -81 27 -115.5t90 -34.5h393q103 0 169 74t98 227z" />
    <glyph glyph-name="M" unicode="M" horiz-adv-x="1835" 
d="M1753 1421q-105 -7 -146.5 -40.5t-41.5 -110.5v-1090q0 -77 41.5 -110.5t146.5 -40.5v-29h-467v29q106 7 147.5 40.5t41.5 110.5v1092l-576 -1272h-29l-542 1262v-1082q0 -77 39.5 -110.5t144.5 -40.5v-29h-430v29q105 7 146.5 40.5t41.5 110.5v1092q0 80 -41 113
t-143 34v31h258l559 -1300l590 1300h260v-29z" />
    <glyph glyph-name="N" unicode="N" horiz-adv-x="1499" 
d="M987 1450h430v-29q-105 -7 -146.5 -40.5t-41.5 -110.5v-1270h-55l-846 1262v-1082q0 -77 39.5 -110.5t144.5 -40.5v-29h-430v29q105 7 146.5 40.5t41.5 110.5v1092q0 80 -41 114t-143 35v29h223l862 -1286v1106q0 77 -39.5 110.5t-144.5 40.5v29z" />
    <glyph glyph-name="O" unicode="O" horiz-adv-x="1544" 
d="M768 -31q-188 0 -335 91.5t-228.5 256.5t-81.5 377q0 230 82.5 409.5t232 278.5t340.5 99q188 0 334.5 -91.5t227.5 -256.5t81 -377q0 -229 -82 -408.5t-231 -279t-340 -99.5zM229 725q6 -208 80 -368t203 -247t291 -83q236 6 377.5 199t134.5 499q-6 210 -80.5 370
t-202 245.5t-289.5 82.5q-157 -3 -276 -92t-181.5 -247t-56.5 -359z" />
    <glyph glyph-name="P" unicode="P" horiz-adv-x="1179" 
d="M82 29q105 2 146.5 37.5t41.5 140.5v1038q0 71 -20.5 109t-59 52t-108.5 15v29h516q228 0 368 -109.5t140 -289.5q0 -181 -140.5 -292.5t-367.5 -111.5h-238v-440q0 -57 11.5 -93t38 -54t57.5 -24t82 -7v-29h-467v29zM360 705h238q180 0 290.5 95.5t110.5 250.5
q0 154 -110.5 248t-290.5 94h-238v-688z" />
    <glyph glyph-name="Q" unicode="Q" horiz-adv-x="1544" 
d="M1241 -324q-74 -22 -150.5 -23t-148.5 20t-134 61t-110.5 104t-74.5 146q-228 51 -364 242.5t-136 467.5q0 230 82.5 409.5t232 278.5t340.5 99q188 0 334.5 -91.5t227.5 -256.5t81 -377q0 -229 -82 -408.5t-231 -279t-340 -99.5h-35q24 -79 67.5 -135.5t94 -86
t111.5 -43t117.5 -11.5t115.5 14zM229 725q6 -208 80 -368t203 -247t291 -83q236 6 377.5 199t134.5 499q-6 210 -80.5 370t-202 245.5t-289.5 82.5q-157 -3 -276 -92t-181.5 -247t-56.5 -359z" />
    <glyph glyph-name="R" unicode="R" horiz-adv-x="1286" 
d="M82 29q105 2 146.5 37.5t41.5 140.5v1038q0 71 -20.5 109t-59 52t-108.5 15v29h516q228 0 368 -109.5t140 -289.5q0 -162 -114 -269.5t-304 -130.5l408 -532q30 -39 79 -63.5t101 -24.5v-31h-223q-2 8 -6 17t-7.5 15.5t-10 16t-10 14t-12.5 15.5t-12 16l-417 553h-218
v-440q0 -57 11.5 -93t38 -54t57.5 -24t82 -7v-29h-467v29zM360 705h238q180 0 290.5 95.5t110.5 250.5q0 154 -110.5 248t-290.5 94h-238v-688z" />
    <glyph glyph-name="S" unicode="S" horiz-adv-x="1087" 
d="M571 -31q-62 0 -117.5 10.5t-90 24.5t-64 27.5t-46 21t-30 3.5t-21.5 -24t-16 -63h-28l-68 434h29q46 -176 165 -274t287 -98q143 0 235.5 83.5t92.5 213.5q0 76 -26 136t-70 99t-101 69.5t-120 55t-126 49.5t-120 58t-101 74.5t-70 105.5t-26 145q0 166 99.5 263.5
t269.5 97.5q66 0 127 -15.5t93.5 -31.5t59.5 -23.5t40 7.5t20 63h29l61 -387h-29q-34 162 -141.5 245.5t-259.5 83.5q-135 0 -214 -73t-79 -197q0 -69 26.5 -123t71.5 -90.5t103 -66t122 -55t128 -51.5t122 -61t103 -79t71.5 -110t26.5 -148q0 -175 -117.5 -287.5
t-300.5 -112.5z" />
    <glyph glyph-name="T" unicode="T" horiz-adv-x="1249" 
d="M391 29q53 1 85.5 8t57.5 25.5t35.5 53t10.5 89.5v1188h-244q-120 0 -186.5 -69.5t-100.5 -229.5h-29l62 387h29q8 -31 75 -31h877q68 0 76 31h28l62 -387h-29q-34 160 -100.5 229.5t-186.5 69.5h-243v-1188q0 -55 10.5 -89.5t35 -53t57 -25.5t85.5 -8v-29h-467v29z" />
    <glyph glyph-name="U" unicode="U" horiz-adv-x="1452" 
d="M977 1421v29h434v-29q-105 -7 -146.5 -40.5t-41.5 -110.5v-754q0 -253 -132 -400t-358 -147q-233 0 -368.5 147t-135.5 400v754q0 77 -41.5 110.5t-146.5 40.5v29h467v-29q-106 -7 -147.5 -40.5t-41.5 -110.5v-754q0 -221 121 -355t318 -134q192 0 299.5 132.5
t107.5 356.5v754q0 77 -41.5 110.5t-146.5 40.5z" />
    <glyph glyph-name="V" unicode="V" horiz-adv-x="1425" 
d="M219 1221q-43 114 -87.5 157t-119.5 43v29h502v-29q-157 0 -201 -39t-4 -143l422 -1102l422 1102q40 104 0 143t-188 39v29h448v-29q-74 0 -118.5 -43.5t-88.5 -158.5l-479 -1250h-29z" />
    <glyph glyph-name="W" unicode="W" horiz-adv-x="2144" 
d="M199 1221q-38 111 -78 155.5t-109 44.5v29h455v-29q-139 0 -178 -39t-4 -143l374 -1092l381 1110l-16 41q-30 66 -65 94.5t-91 28.5v29h455v-29q-139 0 -178 -39t-4 -143l375 -1092l376 1092q22 63 18.5 103.5t-48 59.5t-140.5 19v29h410v-29q-66 0 -106 -43.5
t-80 -158.5l-433 -1250h-26l-414 1200l-416 -1200h-26z" />
    <glyph glyph-name="X" unicode="X" horiz-adv-x="1339" 
d="M1098 180q29 -43 42 -59.5t41 -41.5t63.5 -35.5t86.5 -14.5v-29h-485v29q107 8 146 48t-3 103l-338 508l-340 -508q-42 -63 -2.5 -103t146.5 -48v-29h-447v29q51 4 86.5 14.5t63.5 35t42 42t42 59.5l374 559l-354 531q-28 43 -42.5 62t-42 42t-62.5 33t-86 14v29h485v-29
q-108 -8 -146.5 -45.5t3.5 -105.5l299 -449l299 449q42 68 3 105.5t-147 45.5v29h447v-29q-51 -4 -86.5 -14t-62.5 -33t-42 -42.5t-43 -61.5l-333 -500z" />
    <glyph glyph-name="Y" unicode="Y" horiz-adv-x="1300" 
d="M850 1450h442v-29q-100 -7 -146.5 -40.5t-86.5 -110.5l-348 -664v-399q0 -55 10.5 -89.5t35 -53t57 -25.5t85.5 -8v-31h-467v31q53 1 85.5 8t57.5 25.5t35.5 53t10.5 89.5v399l-379 664q-22 40 -39.5 63t-44 43.5t-62.5 30.5t-88 14v29h486v-29q-220 -16 -144 -151
l334 -592l309 592q72 136 -143 151v29z" />
    <glyph glyph-name="Z" unicode="Z" horiz-adv-x="1103" 
d="M967 -31q-8 31 -76 31h-850v31l877 1362h-517q-120 0 -186 -69.5t-100 -229.5h-29l61 387h29q8 -31 76 -31h792v-31l-876 -1362h573q120 0 186.5 69.5t100.5 229.5h29l-62 -387h-28z" />
    <glyph glyph-name="bracketleft" unicode="[" horiz-adv-x="407" 
d="M82 -295v1772h285v-27h-199v-1718h199v-27h-285z" />
    <glyph glyph-name="backslash" unicode="\" horiz-adv-x="833" 
d="M764 0l-754 1450h60l753 -1450h-59z" />
    <glyph glyph-name="bracketright" unicode="]" horiz-adv-x="407" 
d="M326 -295h-285v27h199v1718h-199v27h285v-1772z" />
    <glyph glyph-name="asciicircum" unicode="^" horiz-adv-x="1116" 
d="M184 903l342 508h68l338 -508h-80l-293 451l-293 -451h-82z" />
    <glyph glyph-name="underscore" unicode="_" horiz-adv-x="868" 
d="M766 -70v-53h-664v53h664z" />
    <glyph glyph-name="grave" unicode="`" horiz-adv-x="653" 
d="M420 1157l-215 322h102l142 -322h-29z" />
    <glyph glyph-name="a" unicode="a" horiz-adv-x="985" 
d="M385 -31q-115 0 -194.5 75.5t-79.5 191.5q0 154 95 239t294 105l207 20v78q0 144 -75 227.5t-200 83.5q-127 0 -183.5 -65t-39.5 -144q17 -82 -25 -98q-25 -9 -49 7t-24 65q0 35 11.5 72.5t39.5 77.5t68 71.5t103.5 51.5t139.5 20q139 0 223 -98.5t84 -266.5v-573
q0 -34 17.5 -54t44.5 -20q43 0 78 61l24 -10q-29 -62 -63.5 -89.5t-63.5 -27.5q-51 0 -80.5 35t-29.5 98v144q-50 -132 -133 -204.5t-189 -72.5zM197 260q0 -91 65 -152t154 -61t163 65.5t128 184.5v248l-201 -23q-159 -20 -234 -84t-75 -178z" />
    <glyph glyph-name="b" unicode="b" horiz-adv-x="1071" 
d="M565 1047q190 0 307 -143.5t117 -375.5q0 -251 -124 -405t-326 -154q-99 0 -185 43t-131 113l-35 -156h-28v1301q0 86 -34 106.5t-126 -2.5v29l205 78h28v-705q29 122 120 196.5t212 74.5zM233 354q0 -59 21 -115.5t61 -104.5t106 -77.5t148 -29.5q150 0 242 116.5
t92 305.5q0 243 -103 391.5t-270 148.5q-106 0 -188 -80t-109 -198v-357z" />
    <glyph glyph-name="c" unicode="c" horiz-adv-x="966" 
d="M838 735q-52 137 -134 195.5t-200 58.5q-146 0 -242 -123t-96 -309q0 -133 48 -245.5t144 -183.5t222 -71q97 0 177.5 63.5t114.5 166.5l25 -6q-28 -138 -126.5 -224t-231.5 -86q-194 0 -325.5 147t-131.5 367q0 242 120.5 402t301.5 160q62 0 117.5 -13t83 -26.5
t49 -19.5t29.5 6.5t10 52.5h24l49 -312h-28z" />
    <glyph glyph-name="d" unicode="d" horiz-adv-x="1116" 
d="M506 -31q-190 0 -307 143t-117 375q0 251 124 405.5t326 154.5q93 0 176.5 -39t129.5 -103v365q0 86 -34 106.5t-126 -2.5v29l205 78h28v-1372q0 -34 17.5 -54t44.5 -20q43 0 78 61l24 -10q-29 -62 -63.5 -89.5t-63.5 -27.5q-51 0 -80.5 35t-29.5 98v138
q-29 -122 -120 -196.5t-212 -74.5zM168 567q0 -243 103 -391.5t270 -148.5q106 0 188 80t109 198v357q0 59 -21 115.5t-61 104.5t-106 77.5t-148 29.5q-150 0 -242 -116.5t-92 -305.5z" />
    <glyph glyph-name="e" unicode="e" horiz-adv-x="958" 
d="M528 -29q-203 0 -324.5 143.5t-121.5 370.5q0 247 124.5 404.5t321.5 157.5q108 0 188 -63t114 -161t20 -207h-678q-4 -62 -4 -100q0 -205 107.5 -332t293.5 -127q88 0 160 59t100 154l27 -6q-23 -132 -113 -212.5t-215 -80.5zM178 657h590q6 147 -70 239.5t-202 92.5
q-134 0 -214.5 -85.5t-103.5 -246.5z" />
    <glyph glyph-name="f" unicode="f" horiz-adv-x="708" 
d="M584 1016v-58h-283v-806q0 -35 14.5 -58t46.5 -36t67 -19t91 -10v-29h-452v29q27 4 45 7.5t41.5 12.5t38 21t24.5 33t10 49v806h-174v58h174v131q0 163 74 248.5t209 85.5q43 0 84.5 -9.5t73.5 -34t32 -59.5q0 -21 -13 -36t-34 -15t-35 10t-23.5 24t-21 28t-35.5 24
t-59 10q-85 0 -131.5 -57.5t-46.5 -173.5v-176h283z" />
    <glyph glyph-name="g" unicode="g" horiz-adv-x="1021" 
d="M451 -434q-155 0 -250 68.5t-95 179.5q0 50 14 91t39.5 71t48.5 48t54 37q-70 10 -110.5 57.5t-40.5 114.5q0 57 35.5 107.5t103.5 77.5q-67 46 -103 117.5t-36 160.5q0 156 104 253.5t272 97.5h11q43 -1 88.5 -3.5t79 -5.5t67.5 -6t57.5 -4.5t46 -1t36.5 5t24.5 13
t14.5 22.5t3 35h25l21 -144q-23 0 -60 5.5t-65 10.5t-82 16.5t-74 15.5q87 -43 136.5 -124t49.5 -186q0 -154 -105 -250t-274 -96q-126 0 -215 53q-104 -44 -104 -137q0 -75 58 -111.5t147 -13.5l211 49q171 41 284 -31.5t113 -224.5q0 -166 -146 -267t-384 -101zM172 -166
q0 -97 87.5 -157t229.5 -60q192 0 309 82.5t117 216.5q0 119 -90.5 179t-224.5 28l-213 -53q-59 -13 -94 -11q-54 -40 -87.5 -98t-33.5 -127zM197 731q0 -143 83.5 -241.5t217.5 -98.5q126 0 204 76.5t78 194.5q0 152 -86 248t-215 96q-126 0 -204 -77t-78 -198z" />
    <glyph glyph-name="h" unicode="h" horiz-adv-x="1148" 
d="M944 160q0 -66 35.5 -94.5t124.5 -36.5v-29h-393v29q89 7 124 36t35 95v547q0 131 -58.5 200.5t-168.5 69.5q-90 0 -173 -56t-175 -167v-594q0 -66 35.5 -94.5t124.5 -36.5v-29h-394v29q89 8 124.5 36.5t35.5 94.5v1110q0 86 -34 106.5t-126 -2.5v29l205 78h29v-682
q178 248 358 248q135 0 213 -91t78 -249v-547z" />
    <glyph glyph-name="i" unicode="i" horiz-adv-x="524" 
d="M295 160q0 -66 35.5 -94.5t124.5 -36.5v-29h-394v29q89 8 124.5 36.5t35.5 94.5v676q0 86 -34 106.5t-126 -2.5v29l205 78h29v-887zM172 1315q0 34 24.5 58t59.5 24q32 0 55 -24t23 -58t-23 -57t-55 -23q-35 0 -59.5 23t-24.5 57z" />
    <glyph glyph-name="j" unicode="j" horiz-adv-x="464" 
d="M59 969l205 78h29v-959q0 -233 -61.5 -352t-208.5 -170l-15 20q118 60 164.5 161t46.5 310v779q0 86 -34 106.5t-126 -2.5v29zM164 1317q0 34 24.5 58t59.5 24q32 0 55 -24t23 -58t-23 -57t-55 -23q-35 0 -59.5 23t-24.5 57z" />
    <glyph glyph-name="k" unicode="k" horiz-adv-x="1081" 
d="M827 182q56 -91 110 -122t136 -31v-29h-258q1 23 -11 51.5t-50 91.5l-269 441l-190 -181v-243q0 -66 35.5 -94.5t124.5 -36.5v-29h-394v29q89 8 124.5 36.5t35.5 94.5v1110q0 86 -34 106.5t-126 -2.5v29l205 78h29v-1000l430 408q40 35 16 65t-100 33v29h369v-29
q-61 -4 -110.5 -32t-119.5 -93l-235 -221z" />
    <glyph glyph-name="l" unicode="l" horiz-adv-x="524" 
d="M295 160q0 -66 35.5 -94.5t124.5 -36.5v-29h-394v29q89 8 124.5 36.5t35.5 94.5v1110q0 86 -34 106.5t-126 -2.5v29l205 78h29v-1321z" />
    <glyph glyph-name="m" unicode="m" horiz-adv-x="1765" 
d="M1561 160q0 -66 35 -95t124 -36v-29h-393v29q89 8 124.5 36.5t35.5 94.5v555q0 120 -68 192t-182 72q-83 0 -151 -50t-160 -159q2 -18 2 -55v-555q0 -66 35 -95t124 -36v-29h-393v29q89 8 124.5 36.5t35.5 94.5v555q0 120 -68 192t-182 72q-82 0 -148.5 -48.5
t-160.5 -156.5v-614q0 -66 35.5 -94.5t124.5 -36.5v-29h-394v29q89 8 124.5 36.5t35.5 94.5v676q0 86 -34 106.5t-126 -2.5v29l205 78h29v-226q91 122 173 174t171 52q112 0 185.5 -62.5t95.5 -175.5q94 129 177.5 183.5t174.5 54.5q135 0 212 -89t77 -243v-555z" />
    <glyph glyph-name="n" unicode="n" horiz-adv-x="1148" 
d="M944 160q0 -66 35.5 -94.5t124.5 -36.5v-29h-393v29q89 7 124 36t35 95v547q0 131 -58.5 200.5t-168.5 69.5q-90 0 -173 -56t-175 -167v-594q0 -66 35.5 -94.5t124.5 -36.5v-29h-394v29q89 8 124.5 36.5t35.5 94.5v676q0 86 -34 106.5t-126 -2.5v29l205 78h29v-248
q178 248 358 248q135 0 213 -91t78 -249v-547z" />
    <glyph glyph-name="o" unicode="o" horiz-adv-x="1048" 
d="M512 -31q-192 0 -311 142.5t-119 373.5q0 251 125.5 406.5t327.5 155.5q193 0 312.5 -143t119.5 -374q0 -253 -125.5 -407t-329.5 -154zM168 573q0 -155 50 -280t137.5 -195.5t195.5 -70.5q141 0 235.5 118.5t94.5 296.5q0 236 -109.5 391.5t-275.5 155.5
q-141 0 -234.5 -118t-93.5 -298z" />
    <glyph glyph-name="p" unicode="p" horiz-adv-x="1124" 
d="M598 1047q190 0 307 -143.5t117 -375.5q0 -251 -124.5 -405t-326.5 -154q-93 0 -176 39t-129 103v-363q0 -35 14.5 -58t46.5 -36t67 -19t91 -10v-28h-452v28q27 4 45 7.5t42 12.5t38 21t24.5 33t10.5 49v1088q0 86 -34 106.5t-126 -2.5v29l205 78h28v-271
q29 122 120 196.5t212 74.5zM266 354q0 -59 21 -115.5t61 -104.5t106 -77.5t148 -29.5q150 0 242 116.5t92 305.5q0 243 -103 391.5t-270 148.5q-106 0 -188 -80t-109 -198v-357z" />
    <glyph glyph-name="q" unicode="q" horiz-adv-x="1083" 
d="M911 -252q0 -28 10.5 -49t24.5 -33t38 -21t42 -12.5t45 -7.5v-28h-453v28q57 4 92 10t67 19t46.5 36t14.5 58v492q-29 -122 -120 -196.5t-212 -74.5q-190 0 -307 143t-117 375q0 251 124 405.5t326 154.5q97 0 182 -42t130 -110l39 152h28v-1299zM168 567
q0 -243 103 -391.5t270 -148.5q106 0 188 80t109 198v357q0 59 -21 115.5t-61 104.5t-106 77.5t-148 29.5q-150 0 -242 -116.5t-92 -305.5z" />
    <glyph glyph-name="r" unicode="r" horiz-adv-x="686" 
d="M537 1047q68 0 103.5 -25.5t35.5 -60.5q0 -21 -13.5 -38.5t-35.5 -17.5q-21 0 -36.5 10.5t-24 22.5t-27 22.5t-45.5 10.5q-79 0 -139 -82.5t-60 -202.5v-528q0 -37 14.5 -61.5t46.5 -38t66.5 -19.5t91.5 -10v-29h-453v29q86 6 123 36t37 93v678q0 86 -34 106.5t-126 -2.5
v29l205 78h29v-224q31 106 95 165t147 59z" />
    <glyph glyph-name="s" unicode="s" horiz-adv-x="821" 
d="M426 -29q-47 0 -96.5 14.5t-80 29t-55.5 21.5t-35.5 -8t-8.5 -59h-29l-49 312h28q38 -120 129 -186t197 -66q111 0 180.5 58t69.5 151q0 60 -32.5 106t-85 75t-115.5 53.5t-126 51t-115.5 58t-85 83t-32.5 119.5q0 119 82 191t211 72q49 0 98.5 -14.5t77.5 -29
t51.5 -21.5t33 7.5t9.5 57.5h29l45 -289h-29q-40 110 -121 170.5t-194 60.5q-96 0 -157.5 -52.5t-61.5 -135.5q0 -56 32.5 -97t85 -66.5t115.5 -48t126 -48.5t115.5 -59t85 -88.5t32.5 -129.5q0 -131 -89 -212t-235 -81z" />
    <glyph glyph-name="t" unicode="t" horiz-adv-x="636" 
d="M586 94q-4 -35 -52.5 -80t-115.5 -45q-103 0 -159 70.5t-56 204.5v714h-172v29q103 13 153 77t64 198h28v-246h304v-58h-304v-714q0 -102 46.5 -158.5t130.5 -56.5q16 0 31 4t24 8t21 14t15.5 14t14.5 17t12 14z" />
    <glyph glyph-name="u" unicode="u" horiz-adv-x="1126" 
d="M958 -31q-51 0 -80.5 35t-29.5 98v113q-95 -133 -180.5 -189.5t-178.5 -56.5q-135 0 -211.5 89t-76.5 243v535q0 86 -34 106.5t-126 -2.5v29l205 78h28v-730q0 -129 66.5 -195.5t183.5 -66.5q89 0 161.5 48t162.5 157v576q0 86 -34 106.5t-126 -2.5v29l205 78h29v-938
q0 -34 17 -54t44 -20q43 0 78 61l24 -10q-29 -62 -63.5 -89.5t-63.5 -27.5z" />
    <glyph glyph-name="v" unicode="v" horiz-adv-x="1011" 
d="M152 868q-43 113 -144 119v29h357v-29q-89 -3 -122.5 -32.5t-11.5 -86.5l287 -757l297 757q22 57 -12 86.5t-123 32.5v29h324v-29q-81 -6 -127 -119l-355 -899h-28z" />
    <glyph glyph-name="w" unicode="w" horiz-adv-x="1550" 
d="M707 868q-35 90 -140 119v29h348v-29q-95 -18 -121.5 -46.5t-9.5 -72.5l283 -757l291 757q19 47 -13.5 74.5t-127.5 44.5v29h325v-29q-45 -9 -75 -37.5t-50 -81.5l-346 -899h-29l-260 699l-270 -699h-29l-333 899q-34 88 -142 119v29h350v-29q-95 -18 -121 -46t-10 -73
l281 -757l244 637z" />
    <glyph glyph-name="x" unicode="x" horiz-adv-x="970" 
d="M639 29q51 5 76.5 15t25 29t-7 32t-27.5 43q-3 4 -4 6l-225 319l-233 -319q-21 -29 -29 -46t-5.5 -35t29.5 -28.5t80 -15.5v-29h-307v29q30 10 50 20t51.5 37t60.5 68l270 366l-239 342q-47 66 -85.5 91t-86.5 34v29h319v-29q-23 -1 -40.5 -4.5t-29 -6.5t-17.5 -10.5
t-10 -12t-1 -15t4.5 -16t10.5 -19.5t13 -19.5t15 -21.5l195 -276l202 276q18 26 26.5 40.5t12.5 32t-5.5 26.5t-33.5 16.5t-65 9.5v29h309v-29q-49 -8 -87 -34.5t-85 -90.5l-240 -323l271 -385q73 -103 161 -125v-29h-319v29z" />
    <glyph glyph-name="y" unicode="y" horiz-adv-x="1019" 
d="M174 -434q-59 0 -112.5 25.5t-53.5 66.5q0 20 14 32.5t37 12.5q17 0 43 -17t58 -34t65 -17q139 0 226 238l49 137l-334 852q-46 119 -139 125v29h356v-29q-92 -3 -126 -34t-11 -91l293 -745l272 745q43 119 -123 125v29h324v-29q-94 -6 -140 -125l-366 -1005
q-107 -291 -332 -291z" />
    <glyph glyph-name="z" unicode="z" horiz-adv-x="874" 
d="M805 1016v-29l-649 -930h413q92 0 138.5 59.5t80.5 202.5h29l-53 -319h-719v29l649 929h-397q-87 0 -127.5 -48t-77.5 -179h-29l25 285h717z" />
    <glyph glyph-name="braceleft" unicode="{" horiz-adv-x="653" 
d="M102 598q95 24 146 84t51 154v374q0 137 70.5 201.5t222.5 65.5v-27q-108 -12 -157.5 -67.5t-49.5 -163.5v-375q0 -53 -4 -86t-15.5 -61t-34.5 -45.5t-56.5 -32t-86.5 -27.5q67 -17 104 -34.5t59 -48t28 -67.5t6 -104v-375q0 -108 49.5 -163.5t157.5 -67.5v-27
q-152 1 -222.5 65t-70.5 201v375q0 94 -51 154t-146 84v14z" />
    <glyph glyph-name="bar" unicode="|" horiz-adv-x="225" 
d="M82 -438v2056h61v-2056h-61z" />
    <glyph glyph-name="braceright" unicode="}" horiz-adv-x="653" 
d="M551 584q-95 -24 -146 -84t-51 -154v-375q0 -137 -70.5 -201t-222.5 -65v27q108 12 157.5 67.5t49.5 163.5v375q0 67 6 104t28 67.5t59 48t104 34.5q-53 13 -86.5 27.5t-56.5 32t-34.5 45.5t-15.5 61t-4 86v375q0 108 -49.5 163.5t-157.5 67.5v27q152 -1 222.5 -65.5
t70.5 -201.5v-374q0 -94 51 -154t146 -84v-14z" />
    <glyph glyph-name="asciitilde" unicode="~" horiz-adv-x="1306" 
d="M184 731q119 125 254 125q56 0 117 -21.5t105 -47t100.5 -47t105.5 -21.5q61 0 110.5 25t104.5 81l41 -34q-119 -125 -254 -125q-56 0 -116.5 21.5t-105 47t-101 47t-105.5 21.5q-60 0 -110 -25t-105 -82z" />
    <glyph glyph-name="uni00A0" unicode="&#xa0;" horiz-adv-x="471" 
 />
    <glyph glyph-name="exclamdown" unicode="&#xa1;" horiz-adv-x="471" 
d="M236 -465q-34 0 -52.5 25.5t-15.5 66.5l55 1063h29l53 -1063q2 -42 -17 -67t-52 -25zM123 936q0 46 33.5 78.5t79.5 32.5t79 -32.5t33 -78.5t-33 -79.5t-79 -33.5t-79.5 33.5t-33.5 79.5z" />
    <glyph glyph-name="cent" unicode="&#xa2;" horiz-adv-x="966" 
d="M838 735q-52 137 -134 195.5t-200 58.5q-146 0 -242 -123t-96 -309q0 -133 48 -245.5t144 -183.5t222 -71q97 0 177.5 63.5t114.5 166.5l25 -6q-28 -138 -126.5 -224t-231.5 -86h-2v-276h-58v280q-173 23 -285 165.5t-112 344.5q0 233 112.5 391.5t284.5 170.5v260h58
v-260q40 -2 77.5 -10.5t61 -18t44.5 -18t33 -12.5t21 -0.5t13 17.5t6 42h24l49 -312h-28z" />
    <glyph glyph-name="sterling" unicode="&#xa3;" horiz-adv-x="1167" 
d="M758 -29q-71 0 -144.5 26.5t-129 53.5t-118.5 43.5t-139 -5t-164 -89.5l-22 29q103 107 165.5 201.5t85 176.5t22.5 147.5t-17 139.5h-234v58h218q-5 19 -23.5 80t-26 91.5t-16 82t-8.5 96.5q0 163 118 271t296 108q155 0 257.5 -75t102.5 -189q0 -26 -17 -45t-42 -19
q-24 0 -39 17.5t-15 43.5q0 90 -70.5 149.5t-176.5 59.5q-132 0 -220 -78t-88 -198q0 -65 47 -195.5t58 -199.5h420v-58h-414q7 -128 -54 -271.5t-220 -318.5q88 51 164.5 72.5t130 16.5t106.5 -22t92.5 -38.5t89.5 -38t96 -16.5q75 0 138 53t94 141l20 -6
q-11 -66 -37.5 -119t-59.5 -85t-74 -53.5t-78.5 -29.5t-73.5 -8z" />
    <glyph glyph-name="currency" unicode="&#xa4;" horiz-adv-x="1298" 
d="M653 20q-188 0 -329 134l-164 -168l-37 39l166 165q-117 140 -117 322q0 186 117 322l-166 165l37 39l164 -168q141 134 329 134q189 0 324 -132l162 166l37 -39l-164 -163q118 -137 118 -324t-118 -324l164 -163l-37 -39l-162 166q-138 -132 -324 -132zM227 512
q0 -180 125.5 -307t300.5 -127q114 0 211 58t154 158t57 218q0 181 -123.5 307.5t-298.5 126.5t-300.5 -127t-125.5 -307z" />
    <glyph glyph-name="yen" unicode="&#xa5;" horiz-adv-x="1300" 
d="M1032 569h-321v-176h321v-57h-321v-129q0 -55 10.5 -89.5t35 -53t57 -25.5t85.5 -8v-31h-467v31q53 1 85.5 8t57.5 25.5t35.5 53t10.5 89.5v129h-322v57h322v176h-322v58h309l-366 643q-22 40 -39.5 63t-44 43.5t-62.5 30.5t-88 14v29h486v-29q-220 -16 -144 -151
l334 -592l309 592q72 136 -143 151v29h442v-29q-100 -7 -146.5 -40.5t-86.5 -110.5l-338 -643h311v-58z" />
    <glyph glyph-name="brokenbar" unicode="&#xa6;" horiz-adv-x="225" 
d="M143 369v-807h-61v807h61zM82 811v807h61v-807h-61z" />
    <glyph glyph-name="section" unicode="&#xa7;" horiz-adv-x="1067" 
d="M848 164q153 -88 153 -262q0 -154 -123.5 -247t-330.5 -93q-177 0 -307 97t-174 261l67 21q44 -143 156 -228.5t258 -85.5q169 0 272 75.5t103 199.5q0 32 -7.5 60.5t-18 51t-31.5 43.5t-38.5 36t-49.5 31t-53.5 25.5t-61 22.5t-61.5 19.5l-66 19.5q-58 17 -88 26.5
t-81.5 28.5t-80 35.5t-64.5 43.5t-54.5 56t-32 69t-13.5 87q0 75 45.5 144t128.5 120q-174 85 -174 258q0 140 118.5 231t301.5 91q164 0 279.5 -72.5t146.5 -195.5l-62 -23q-37 107 -133 166t-231 59q-153 0 -247.5 -70.5t-94.5 -185.5q0 -40 11.5 -73.5t28 -58.5t47.5 -47
t58 -36.5t72 -30.5t76 -24.5t83 -22.5q83 -23 126.5 -36.5t110.5 -44.5t101 -65t61 -90t27 -126q0 -153 -153 -260zM199 557q0 -40 11.5 -73.5t28.5 -58.5t49 -47.5t58 -36.5t72.5 -30.5t76 -25t83.5 -23.5q138 -37 198 -63q146 76 146 225q0 36 -8 67t-25.5 56t-36 45
t-51 38.5t-57 31t-67 27t-69 22.5t-73.5 22q-104 30 -162 53q-82 -31 -128 -91t-46 -138z" />
    <glyph glyph-name="dieresis" unicode="&#xa8;" horiz-adv-x="870" 
d="M289 1235q-35 0 -59.5 23t-24.5 57t24.5 58t59.5 24q32 0 55 -24t23 -58t-23 -57t-55 -23zM504 1315q0 34 24.5 58t59.5 24q32 0 55 -24t23 -58t-23 -57t-55 -23q-35 0 -59.5 23t-24.5 57z" />
    <glyph glyph-name="copyright" unicode="&#xa9;" horiz-adv-x="1716" 
d="M864 322q-169 0 -274 111t-105 292t105 292t274 111q122 0 208.5 -63.5t117.5 -175.5l-70 -12q-23 91 -89.5 139.5t-166.5 48.5q-142 0 -224.5 -91.5t-82.5 -248.5t82.5 -248.5t224.5 -91.5q200 0 256 186l68 -10q-34 -112 -119.5 -175.5t-204.5 -63.5zM102 725
q0 153 60 293t161.5 241.5t241.5 161.5t293 60t293 -60t241.5 -161.5t161.5 -241.5t60 -293t-60 -293t-161.5 -241.5t-241.5 -161.5t-293 -60t-293 60t-241.5 161.5t-161.5 241.5t-60 293zM168 725q0 -140 55 -268.5t147.5 -221.5t220 -148.5t267.5 -55.5t267.5 55.5
t220 148.5t147.5 221.5t55 268.5t-55 268.5t-147.5 221.5t-220 148.5t-267.5 55.5t-267.5 -55.5t-220 -148.5t-147.5 -221.5t-55 -268.5z" />
    <glyph glyph-name="ordfeminine" unicode="&#xaa;" horiz-adv-x="557" 
d="M211 887q-63 0 -107.5 41t-44.5 104q0 87 53.5 133t166.5 58l108 12v45q0 78 -39 124t-104 46q-69 0 -98.5 -37t-20.5 -78q11 -51 -16 -59q-18 -6 -34 4t-16 39q0 57 53 109.5t154 52.5q82 0 130 -54.5t48 -146.5v-311q0 -18 10 -29.5t25 -11.5q23 0 43 35l15 -7
q-34 -69 -80 -69q-30 0 -50 21.5t-20 58.5v69q-26 -72 -72 -110.5t-104 -38.5zM123 1051q0 -49 34 -82t81 -33q91 0 149 129v139l-102 -12q-162 -18 -162 -141z" />
    <glyph glyph-name="guillemotleft" unicode="&#xab;" horiz-adv-x="935" 
d="M506 137l-445 389v11l445 389l12 -13l-340 -381l340 -382zM438 526v11l445 389l12 -13l-340 -381l340 -382l-12 -13z" />
    <glyph glyph-name="logicalnot" unicode="&#xac;" 
d="M184 657v62h860v-610h-57v548h-803z" />
    <glyph glyph-name="uni00AD" unicode="&#xad;" horiz-adv-x="716" 
d="M614 571v-53h-512v53h512z" />
    <glyph glyph-name="registered" unicode="&#xae;" horiz-adv-x="1060" 
d="M739 836h-55l-143 225h-113v-225h-45v473h160q67 0 106 -34.5t39 -90.5q0 -45 -26.5 -78t-71.5 -43zM102 1053q0 177 125.5 302.5t302.5 125.5t302.5 -125.5t125.5 -302.5q0 -175 -125.5 -300.5t-302.5 -125.5t-302.5 125.5t-125.5 300.5zM141 1053q0 -163 114 -278.5
t275 -115.5t276.5 115.5t115.5 278.5t-115.5 279t-276.5 116t-275 -116t-114 -279zM428 1104h109q104 0 104 80t-104 80h-109v-160z" />
    <glyph glyph-name="macron" unicode="&#xaf;" horiz-adv-x="858" 
d="M205 1202v58h448v-58h-448z" />
    <glyph glyph-name="degree" unicode="&#xb0;" horiz-adv-x="565" 
d="M281 969q-89 0 -152 63t-63 152q0 88 63 152t152 65q91 1 155 -62.5t64 -154.5q0 -89 -64 -152t-155 -63zM131 1184q0 -63 44.5 -108.5t105.5 -45.5q63 0 108 45.5t45 108.5t-45 108t-108 45q-62 0 -106 -45t-44 -108z" />
    <glyph glyph-name="plusminus" unicode="&#xb1;" 
d="M184 741v54h404v403h53v-403h403v-54h-403v-403h-53v403h-404zM184 -4v53h860v-53h-860z" />
    <glyph glyph-name="uni00B2" unicode="&#xb2;" horiz-adv-x="628" 
d="M272 1688q-79 0 -123.5 -53t-35.5 -126q3 -25 -8.5 -39t-30.5 -14q-21 0 -33 14.5t-12 38.5q-3 87 72 150t182 63q116 0 186 -63.5t70 -169.5q0 -64 -24 -124t-62.5 -106t-86 -88t-96 -77.5t-90 -66t-71.5 -61.5t-37 -57h331q33 0 49 1t36.5 8t31.5 21.5t23 40.5t22 67
l17 -5l-33 -208h-510v28q0 43 23 86.5t60 82t81.5 78t89 82.5t81.5 87.5t60 101t23 115.5q0 80 -54.5 136.5t-130.5 56.5z" />
    <glyph glyph-name="uni00B3" unicode="&#xb3;" horiz-adv-x="626" 
d="M289 815q-105 0 -174.5 49t-83.5 129q-10 56 26 64q14 2 26 1.5t20.5 -14t9.5 -40.5q2 -68 49 -111t141 -43q87 0 140 57.5t53 149.5q0 101 -76.5 158.5t-220.5 56.5l2 20q106 9 175.5 67t69.5 144q0 83 -44 134t-115 51q-79 0 -121.5 -53t-36.5 -128q3 -26 -8.5 -38.5
t-30.5 -12.5q-42 0 -45 53q-3 87 71 150t179 63q104 0 169.5 -54t65.5 -144q0 -76 -55 -139.5t-139 -88.5q120 -9 182 -68.5t62 -152.5q0 -116 -81.5 -188t-209.5 -72z" />
    <glyph glyph-name="acute" unicode="&#xb4;" horiz-adv-x="653" 
d="M233 1157h-28l141 322h103z" />
    <glyph glyph-name="uni00B5" unicode="&#xb5;" horiz-adv-x="1091" 
d="M887 1016h61v-1016h-61v279q-50 -144 -151.5 -226t-235.5 -82q-103 0 -181.5 46.5t-113.5 129.5v-550h-62v1419h62v-692q0 -125 83 -208.5t212 -82.5q114 1 203 65.5t136.5 173t47.5 240.5v504z" />
    <glyph glyph-name="paragraph" unicode="&#xb6;" horiz-adv-x="1048" 
d="M385 788q-134 2 -226.5 87t-92.5 206q0 122 94 206.5t229 84.5h594v-61h-141v-1749h-74v1749h-311v-1749h-72v1226z" />
    <glyph glyph-name="periodcentered" unicode="&#xb7;" horiz-adv-x="389" 
d="M195 582q-46 0 -79.5 32.5t-33.5 77.5q0 46 33.5 79.5t79.5 33.5t79 -33.5t33 -79.5t-33 -78t-79 -32z" />
    <glyph glyph-name="cedilla" unicode="&#xb8;" horiz-adv-x="681" 
d="M205 -395q79 -15 134.5 15t55.5 87q0 39 -32 67.5t-93 37.5l133 188h29l-72 -117q52 -12 84.5 -53.5t32.5 -95.5q0 -91 -70.5 -134t-201.5 -12v17z" />
    <glyph glyph-name="uni00B9" unicode="&#xb9;" horiz-adv-x="403" 
d="M31 850q82 3 109.5 23.5t27.5 78.5v633h-137v17q137 38 194 102h19v-752q0 -55 22 -76.5t88 -25.5v-16h-323v16z" />
    <glyph glyph-name="ordmasculine" unicode="&#xba;" horiz-adv-x="587" 
d="M287 887q-109 0 -176.5 78.5t-67.5 205.5q0 138 71 224t185 86q109 0 177.5 -79t68.5 -206q0 -139 -71 -224t-187 -85zM106 1227q0 -129 58.5 -219t146.5 -90q72 0 121 63.5t49 159.5q0 128 -58.5 218.5t-146.5 90.5q-74 0 -122 -63t-48 -160z" />
    <glyph glyph-name="guillemotright" unicode="&#xbb;" horiz-adv-x="935" 
d="M430 137l-12 13l340 382l-340 381l12 13l444 -389v-11zM41 150l340 382l-340 381l12 13l445 -389v-11l-445 -389z" />
    <glyph glyph-name="onequarter" unicode="&#xbc;" horiz-adv-x="1454" 
d="M31 596q82 3 109.5 23.5t27.5 78.5v633h-137v17q137 38 194 102h19v-752q0 -55 22 -76.5t88 -25.5v-16h-323v16zM268 0l754 1450h59l-753 -1450h-60zM772 240v16l416 633h39v-604h18q122 0 158 176h18l-32 -221h-162v-111q0 -27 3.5 -44t14 -34t34 -25.5t60.5 -9.5v-16
h-340v16q80 3 116 28t36 85v111h-379zM831 285h320v489z" />
    <glyph glyph-name="onehalf" unicode="&#xbd;" horiz-adv-x="1478" 
d="M31 596q82 3 109.5 23.5t27.5 78.5v633h-137v17q137 38 194 102h19v-752q0 -55 22 -76.5t88 -25.5v-16h-323v16zM268 0l754 1450h59l-753 -1450h-60zM879 676q-3 87 72 150t182 63q116 0 186 -64t70 -170q0 -64 -24 -123.5t-62.5 -106t-86 -88.5t-96 -77t-90 -65.5
t-71.5 -61.5t-37 -57h331q29 0 42 0.5t32.5 4.5t28.5 12t21.5 23.5t21 39t16.5 57.5l17 -4l-33 -209h-510v29q0 43 23 86.5t60 82t81.5 78t89 82.5t81.5 87.5t60 101t23 115.5q0 79 -54 135.5t-131 56.5q-80 0 -124 -52.5t-35 -125.5q3 -25 -8.5 -39t-30.5 -14
q-21 0 -33 14.5t-12 38.5z" />
    <glyph glyph-name="threequarters" unicode="&#xbe;" horiz-adv-x="1574" 
d="M289 561q-105 0 -174.5 49t-83.5 129q-10 56 26 64q14 2 26 1.5t20.5 -14t9.5 -40.5q2 -68 49 -111t141 -43q87 0 140 57.5t53 149.5q0 101 -76.5 158.5t-220.5 56.5l2 20q106 9 175.5 67t69.5 144q0 83 -44 134t-115 51q-79 0 -121.5 -53t-36.5 -128q3 -26 -8.5 -38.5
t-30.5 -12.5q-42 0 -45 53q-3 87 71 150t179 63q104 0 169.5 -54t65.5 -144q0 -76 -55 -139.5t-139 -88.5q120 -9 182 -68.5t62 -152.5q0 -116 -81.5 -188t-209.5 -72zM389 0l754 1450h59l-753 -1450h-60zM893 240v16l416 633h39v-604h18q122 0 158 176h18l-33 -221h-161
v-111q0 -27 3.5 -44t14 -34t34 -25.5t60.5 -9.5v-16h-340v16q80 3 116 28t36 85v111h-379zM952 285h320v489z" />
    <glyph glyph-name="questiondown" unicode="&#xbf;" horiz-adv-x="960" 
d="M526 690q11 -92 -1 -169t-39.5 -132t-63 -102.5t-73.5 -91t-69.5 -86.5t-52 -99.5t-20.5 -120.5q0 -132 89.5 -215.5t225.5 -83.5q125 0 199 83t65 204q-6 70 58 70q51 0 55 -74q7 -141 -111 -239.5t-286 -98.5q-183 0 -291.5 92.5t-108.5 261.5q0 69 22.5 130t58 107
t78.5 91t85.5 92t77.5 99.5t55.5 125t18.5 156.5h28zM387 936q0 46 33.5 78.5t79.5 32.5t79 -32.5t33 -78.5t-33 -79.5t-79 -33.5t-79.5 33.5t-33.5 79.5z" />
    <glyph glyph-name="Agrave" unicode="&#xc0;" horiz-adv-x="1425" 
d="M1206 229q43 -114 87.5 -157t119.5 -43v-29h-502v29q157 0 201 39t4 143l-108 285h-627l-109 -285q-40 -104 0.5 -143t188.5 -39v-29h-449v29q74 0 118.5 43.5t88.5 158.5l479 1250h29zM403 553h582l-291 760zM559 1911h103l141 -322h-29z" />
    <glyph glyph-name="Aacute" unicode="&#xc1;" horiz-adv-x="1425" 
d="M1206 229q43 -114 87.5 -157t119.5 -43v-29h-502v29q157 0 201 39t4 143l-108 285h-627l-109 -285q-40 -104 0.5 -143t188.5 -39v-29h-449v29q74 0 118.5 43.5t88.5 158.5l479 1250h29zM403 553h582l-291 760zM696 1591l142 322h102l-215 -322h-29z" />
    <glyph glyph-name="Acircumflex" unicode="&#xc2;" horiz-adv-x="1425" 
d="M1206 229q43 -114 87.5 -157t119.5 -43v-29h-502v29q157 0 201 39t4 143l-108 285h-627l-109 -285q-40 -104 0.5 -143t188.5 -39v-29h-449v29q74 0 118.5 43.5t88.5 158.5l479 1250h29zM403 553h582l-291 760zM440 1608l215 311h103l215 -311l-21 -15l-245 246l-246 -246
z" />
    <glyph glyph-name="Atilde" unicode="&#xc3;" horiz-adv-x="1425" 
d="M1206 229q43 -114 87.5 -157t119.5 -43v-29h-502v29q157 0 201 39t4 143l-108 285h-627l-109 -285q-40 -104 0.5 -143t188.5 -39v-29h-449v29q74 0 118.5 43.5t88.5 158.5l479 1250h29zM403 553h582l-291 760zM455 1622q0 92 37 145.5t100 53.5q29 0 64.5 -19t63 -42.5
t61 -42.5t59.5 -19q39 0 62.5 33t27.5 96l28 -2q1 -92 -35.5 -144.5t-101.5 -52.5q-38 0 -127 61.5t-121 61.5q-39 0 -62.5 -33.5t-27.5 -97.5z" />
    <glyph glyph-name="Adieresis" unicode="&#xc4;" horiz-adv-x="1425" 
d="M1206 229q43 -114 87.5 -157t119.5 -43v-29h-502v29q157 0 201 39t4 143l-108 285h-627l-109 -285q-40 -104 0.5 -143t188.5 -39v-29h-449v29q74 0 118.5 43.5t88.5 158.5l479 1250h29zM403 553h582l-291 760zM475 1749q0 34 24.5 58t59.5 24q32 0 55 -24t23 -58t-23 -57
t-55 -23q-35 0 -59.5 23t-24.5 57zM774 1749q0 34 24.5 58t59.5 24q32 0 55 -24t23 -58t-23 -57t-55 -23q-35 0 -59.5 23t-24.5 57z" />
    <glyph glyph-name="Aring" unicode="&#xc5;" horiz-adv-x="1425" 
d="M1206 229q43 -114 87.5 -157t119.5 -43v-29h-502v29q157 0 201 39t4 143l-108 285h-627l-109 -285q-40 -104 0.5 -143t188.5 -39v-29h-449v29q74 0 118.5 43.5t88.5 158.5l479 1250h29zM403 553h582l-291 760zM528 1745q0 73 51 121.5t128 48.5q75 0 125.5 -48.5
t50.5 -121.5q0 -72 -50.5 -121t-125.5 -49q-76 0 -127.5 49t-51.5 121zM590 1747q0 -51 33 -86t84 -35t83.5 34.5t32.5 86.5t-32.5 85.5t-83.5 33.5t-84 -33.5t-33 -85.5z" />
    <glyph glyph-name="AE" unicode="&#xc6;" horiz-adv-x="1996" 
d="M1915 358h29l-58 -358h-1046v29q105 7 146.5 40.5t41.5 110.5v316h-510l-178 -285q-66 -98 -41 -140t168 -42v-29h-455v29q74 0 137.5 47t131.5 155l714 1141q-40 40 -155 49v29h911q68 0 76 31h28l62 -387h-29q-34 160 -100 229.5t-186 69.5h-484v-621h324
q89 0 119.5 44t21.5 157h29l71 -459h-28q-30 111 -74 156t-117 45h-346v-508q0 -81 27 -115.5t90 -34.5h414q103 0 168.5 74t97.5 227zM555 553h473v717q0 25 -2 37z" />
    <glyph glyph-name="Ccedilla" unicode="&#xc7;" horiz-adv-x="1368" 
d="M1151 1481l61 -387h-28q-104 329 -447 329q-222 0 -364.5 -187.5t-143.5 -485.5q-1 -201 73.5 -363.5t207.5 -254t299 -91.5q157 0 272 98t160 264l29 -6q-31 -195 -170 -310t-324 -120l-51 -84q52 -12 84.5 -53.5t32.5 -95.5q0 -91 -71 -134t-202 -12v17q79 -15 135 15
t56 87q0 39 -32 67.5t-93 37.5l110 155q-181 4 -323.5 97t-221 256.5t-77.5 369.5q1 231 82.5 412t224.5 280t322 99q61 0 124.5 -15t102 -30t72 -22.5t50 7.5t21.5 60h29z" />
    <glyph glyph-name="Egrave" unicode="&#xc8;" horiz-adv-x="1239" 
d="M1157 358h29l-58 -358h-1046v29q105 7 146.5 40.5t41.5 110.5v1090q0 77 -41.5 110.5t-146.5 40.5v29h911q68 0 76 31h29l61 -387h-29q-34 160 -100 229.5t-186 69.5h-484v-621h324q89 0 119.5 44t21.5 157h29l72 -459h-29q-30 111 -73.5 156t-116.5 45h-347v-508
q0 -81 27 -115.5t90 -34.5h414q103 0 168.5 74t97.5 227zM514 1911h102l142 -322h-29z" />
    <glyph glyph-name="Eacute" unicode="&#xc9;" horiz-adv-x="1239" 
d="M1157 358h29l-58 -358h-1046v29q105 7 146.5 40.5t41.5 110.5v1090q0 77 -41.5 110.5t-146.5 40.5v29h911q68 0 76 31h29l61 -387h-29q-34 160 -100 229.5t-186 69.5h-484v-621h324q89 0 119.5 44t21.5 157h29l72 -459h-29q-30 111 -73.5 156t-116.5 45h-347v-508
q0 -81 27 -115.5t90 -34.5h414q103 0 168.5 74t97.5 227zM651 1591l142 322h102l-215 -322h-29z" />
    <glyph glyph-name="Ecircumflex" unicode="&#xca;" horiz-adv-x="1239" 
d="M1157 358h29l-58 -358h-1046v29q105 7 146.5 40.5t41.5 110.5v1090q0 77 -41.5 110.5t-146.5 40.5v29h911q68 0 76 31h29l61 -387h-29q-34 160 -100 229.5t-186 69.5h-484v-621h324q89 0 119.5 44t21.5 157h29l72 -459h-29q-30 111 -73.5 156t-116.5 45h-347v-508
q0 -81 27 -115.5t90 -34.5h414q103 0 168.5 74t97.5 227zM395 1608l215 311h103l215 -311l-21 -15l-245 246l-246 -246z" />
    <glyph glyph-name="Edieresis" unicode="&#xcb;" horiz-adv-x="1239" 
d="M1157 358h29l-58 -358h-1046v29q105 7 146.5 40.5t41.5 110.5v1090q0 77 -41.5 110.5t-146.5 40.5v29h911q68 0 76 31h29l61 -387h-29q-34 160 -100 229.5t-186 69.5h-484v-621h324q89 0 119.5 44t21.5 157h29l72 -459h-29q-30 111 -73.5 156t-116.5 45h-347v-508
q0 -81 27 -115.5t90 -34.5h414q103 0 168.5 74t97.5 227zM430 1749q0 34 24.5 58t59.5 24q32 0 55 -24t23 -58t-23 -57t-55 -23q-35 0 -59.5 23t-24.5 57zM729 1749q0 34 24.5 58t59.5 24q32 0 55 -24t23 -58t-23 -57t-55 -23q-35 0 -59.5 23t-24.5 57z" />
    <glyph glyph-name="Igrave" unicode="&#xcc;" horiz-adv-x="630" 
d="M360 180q0 -77 41.5 -110.5t147.5 -40.5v-29h-467v29q105 7 146.5 40.5t41.5 110.5v1090q0 77 -41.5 110.5t-146.5 40.5v29h467v-29q-106 -7 -147.5 -40.5t-41.5 -110.5v-1090zM172 1911h102l142 -322h-29z" />
    <glyph glyph-name="Iacute" unicode="&#xcd;" horiz-adv-x="630" 
d="M360 180q0 -77 41.5 -110.5t147.5 -40.5v-29h-467v29q105 7 146.5 40.5t41.5 110.5v1090q0 77 -41.5 110.5t-146.5 40.5v29h467v-29q-106 -7 -147.5 -40.5t-41.5 -110.5v-1090zM309 1591l142 322h102l-215 -322h-29z" />
    <glyph glyph-name="Icircumflex" unicode="&#xce;" horiz-adv-x="630" 
d="M360 180q0 -77 41.5 -110.5t147.5 -40.5v-29h-467v29q105 7 146.5 40.5t41.5 110.5v1090q0 77 -41.5 110.5t-146.5 40.5v29h467v-29q-106 -7 -147.5 -40.5t-41.5 -110.5v-1090zM53 1608l215 311h103l215 -311l-21 -15l-246 246l-245 -246z" />
    <glyph glyph-name="Idieresis" unicode="&#xcf;" horiz-adv-x="630" 
d="M360 180q0 -77 41.5 -110.5t147.5 -40.5v-29h-467v29q105 7 146.5 40.5t41.5 110.5v1090q0 77 -41.5 110.5t-146.5 40.5v29h467v-29q-106 -7 -147.5 -40.5t-41.5 -110.5v-1090zM88 1749q0 34 24.5 58t59.5 24q32 0 55 -24t23 -58t-23 -57t-55 -23q-35 0 -59.5 23
t-24.5 57zM387 1749q0 34 24.5 58t59.5 24q32 0 55 -24t23 -58t-23 -57t-55 -23q-35 0 -59.5 23t-24.5 57z" />
    <glyph glyph-name="Eth" unicode="&#xd0;" horiz-adv-x="1449" 
d="M629 1450q314 0 506 -186t192 -490q0 -347 -183 -560.5t-482 -213.5h-580v29q105 7 146.5 40.5t41.5 110.5v514h-237v58h237v518q0 77 -41.5 110.5t-146.5 40.5v29h547zM360 207q0 -82 34 -116t116 -34h152q250 0 404.5 184.5t154.5 483.5q0 312 -167 490t-460 178h-234
v-641h234v-58h-234v-487z" />
    <glyph glyph-name="Ntilde" unicode="&#xd1;" horiz-adv-x="1499" 
d="M987 1450h430v-29q-105 -7 -146.5 -40.5t-41.5 -110.5v-1270h-55l-846 1262v-1082q0 -77 39.5 -110.5t144.5 -40.5v-29h-430v29q105 7 146.5 40.5t41.5 110.5v1092q0 80 -41 114t-143 35v29h223l862 -1286v1106q0 77 -39.5 110.5t-144.5 40.5v29zM479 1622q0 92 37 145.5
t100 53.5q29 0 64.5 -19t63 -42.5t61 -42.5t59.5 -19q39 0 62.5 33t27.5 96l29 -2q1 -92 -35.5 -144.5t-101.5 -52.5q-38 0 -127 61.5t-121 61.5q-39 0 -62.5 -33.5t-27.5 -97.5z" />
    <glyph glyph-name="Ograve" unicode="&#xd2;" horiz-adv-x="1544" 
d="M768 -31q-188 0 -335 91.5t-228.5 256.5t-81.5 377q0 230 82.5 409.5t232 278.5t340.5 99q188 0 334.5 -91.5t227.5 -256.5t81 -377q0 -229 -82 -408.5t-231 -279t-340 -99.5zM229 725q6 -208 80 -368t203 -247t291 -83q236 6 377.5 199t134.5 499q-6 210 -80.5 370
t-202 245.5t-289.5 82.5q-157 -3 -276 -92t-181.5 -247t-56.5 -359zM627 1911h102l141 -322h-28z" />
    <glyph glyph-name="Oacute" unicode="&#xd3;" horiz-adv-x="1544" 
d="M768 -31q-188 0 -335 91.5t-228.5 256.5t-81.5 377q0 230 82.5 409.5t232 278.5t340.5 99q188 0 334.5 -91.5t227.5 -256.5t81 -377q0 -229 -82 -408.5t-231 -279t-340 -99.5zM229 725q6 -208 80 -368t203 -247t291 -83q236 6 377.5 199t134.5 499q-6 210 -80.5 370
t-202 245.5t-289.5 82.5q-157 -3 -276 -92t-181.5 -247t-56.5 -359zM764 1591l141 322h103l-215 -322h-29z" />
    <glyph glyph-name="Ocircumflex" unicode="&#xd4;" horiz-adv-x="1544" 
d="M768 -31q-188 0 -335 91.5t-228.5 256.5t-81.5 377q0 230 82.5 409.5t232 278.5t340.5 99q188 0 334.5 -91.5t227.5 -256.5t81 -377q0 -229 -82 -408.5t-231 -279t-340 -99.5zM229 725q6 -208 80 -368t203 -247t291 -83q236 6 377.5 199t134.5 499q-6 210 -80.5 370
t-202 245.5t-289.5 82.5q-157 -3 -276 -92t-181.5 -247t-56.5 -359zM508 1608l215 311h102l215 -311l-20 -15l-246 246l-246 -246z" />
    <glyph glyph-name="Otilde" unicode="&#xd5;" horiz-adv-x="1544" 
d="M768 -31q-188 0 -335 91.5t-228.5 256.5t-81.5 377q0 230 82.5 409.5t232 278.5t340.5 99q188 0 334.5 -91.5t227.5 -256.5t81 -377q0 -229 -82 -408.5t-231 -279t-340 -99.5zM229 725q6 -208 80 -368t203 -247t291 -83q236 6 377.5 199t134.5 499q-6 210 -80.5 370
t-202 245.5t-289.5 82.5q-157 -3 -276 -92t-181.5 -247t-56.5 -359zM522 1622q0 92 37 145.5t100 53.5q29 0 64.5 -19t63 -42.5t61 -42.5t59.5 -19q39 0 62.5 33t27.5 96l29 -2q1 -92 -35.5 -144.5t-101.5 -52.5q-38 0 -127 61.5t-121 61.5q-39 0 -62.5 -33.5t-27.5 -97.5z
" />
    <glyph glyph-name="Odieresis" unicode="&#xd6;" horiz-adv-x="1544" 
d="M768 -31q-188 0 -335 91.5t-228.5 256.5t-81.5 377q0 230 82.5 409.5t232 278.5t340.5 99q188 0 334.5 -91.5t227.5 -256.5t81 -377q0 -229 -82 -408.5t-231 -279t-340 -99.5zM229 725q6 -208 80 -368t203 -247t291 -83q236 6 377.5 199t134.5 499q-6 210 -80.5 370
t-202 245.5t-289.5 82.5q-157 -3 -276 -92t-181.5 -247t-56.5 -359zM543 1749q0 34 24.5 58t59.5 24q32 0 55 -24t23 -58t-23 -57t-55 -23q-35 0 -59.5 23t-24.5 57zM842 1749q0 34 24.5 58t59.5 24q32 0 55 -24t23 -58t-23 -57t-55 -23q-35 0 -59.5 23t-24.5 57z" />
    <glyph glyph-name="multiply" unicode="&#xd7;" horiz-adv-x="1071" 
d="M225 293l-41 37l312 311l-312 309l41 39l310 -309l311 309l41 -37l-314 -313l312 -311l-39 -37l-311 311z" />
    <glyph glyph-name="Oslash" unicode="&#xd8;" horiz-adv-x="1544" 
d="M768 -31q-269 0 -446 183l-154 -183l-45 35l162 189q-162 202 -162 501q0 230 82.5 409.5t232 278.5t340.5 99q267 0 447 -183l155 183l41 -35l-159 -189q159 -202 159 -501q0 -229 -82 -408.5t-231 -279t-340 -99.5zM229 725q9 -271 125 -449l805 945
q-78 100 -184 152.5t-232 49.5q-157 -3 -276 -92t-181.5 -247t-56.5 -359zM387 227q77 -99 183.5 -151t232.5 -49q236 6 377.5 199t134.5 499q-9 271 -123 451z" />
    <glyph glyph-name="Ugrave" unicode="&#xd9;" horiz-adv-x="1452" 
d="M977 1421v29h434v-29q-105 -7 -146.5 -40.5t-41.5 -110.5v-754q0 -253 -132 -400t-358 -147q-233 0 -368.5 147t-135.5 400v754q0 77 -41.5 110.5t-146.5 40.5v29h467v-29q-106 -7 -147.5 -40.5t-41.5 -110.5v-754q0 -221 121 -355t318 -134q192 0 299.5 132.5
t107.5 356.5v754q0 77 -41.5 110.5t-146.5 40.5zM598 1911h102l142 -322h-29z" />
    <glyph glyph-name="Uacute" unicode="&#xda;" horiz-adv-x="1452" 
d="M977 1421v29h434v-29q-105 -7 -146.5 -40.5t-41.5 -110.5v-754q0 -253 -132 -400t-358 -147q-233 0 -368.5 147t-135.5 400v754q0 77 -41.5 110.5t-146.5 40.5v29h467v-29q-106 -7 -147.5 -40.5t-41.5 -110.5v-754q0 -221 121 -355t318 -134q192 0 299.5 132.5
t107.5 356.5v754q0 77 -41.5 110.5t-146.5 40.5zM735 1591l142 322h102l-215 -322h-29z" />
    <glyph glyph-name="Ucircumflex" unicode="&#xdb;" horiz-adv-x="1452" 
d="M977 1421v29h434v-29q-105 -7 -146.5 -40.5t-41.5 -110.5v-754q0 -253 -132 -400t-358 -147q-233 0 -368.5 147t-135.5 400v754q0 77 -41.5 110.5t-146.5 40.5v29h467v-29q-106 -7 -147.5 -40.5t-41.5 -110.5v-754q0 -221 121 -355t318 -134q192 0 299.5 132.5
t107.5 356.5v754q0 77 -41.5 110.5t-146.5 40.5zM479 1608l215 311h103l215 -311l-21 -15l-246 246l-245 -246z" />
    <glyph glyph-name="Udieresis" unicode="&#xdc;" horiz-adv-x="1452" 
d="M977 1421v29h434v-29q-105 -7 -146.5 -40.5t-41.5 -110.5v-754q0 -253 -132 -400t-358 -147q-233 0 -368.5 147t-135.5 400v754q0 77 -41.5 110.5t-146.5 40.5v29h467v-29q-106 -7 -147.5 -40.5t-41.5 -110.5v-754q0 -221 121 -355t318 -134q192 0 299.5 132.5
t107.5 356.5v754q0 77 -41.5 110.5t-146.5 40.5zM514 1749q0 34 24.5 58t59.5 24q32 0 55 -24t23 -58t-23 -57t-55 -23q-35 0 -59.5 23t-24.5 57zM813 1749q0 34 24.5 58t59.5 24q32 0 55 -24t23 -58t-23 -57t-55 -23q-35 0 -59.5 23t-24.5 57z" />
    <glyph glyph-name="Yacute" unicode="&#xdd;" horiz-adv-x="1300" 
d="M850 1450h442v-29q-100 -7 -146.5 -40.5t-86.5 -110.5l-348 -664v-399q0 -55 10.5 -89.5t35 -53t57 -25.5t85.5 -8v-31h-467v31q53 1 85.5 8t57.5 25.5t35.5 53t10.5 89.5v399l-379 664q-22 40 -39.5 63t-44 43.5t-62.5 30.5t-88 14v29h486v-29q-220 -16 -144 -151
l334 -592l309 592q72 136 -143 151v29zM676 1591l141 322h103l-215 -322h-29z" />
    <glyph glyph-name="Thorn" unicode="&#xde;" 
d="M82 29q105 2 146.5 37.5t41.5 140.5v1036q0 105 -41.5 140.5t-146.5 37.5v29h467v-29q-51 -1 -82 -7t-57.5 -24t-38 -54t-11.5 -93v-117h238q228 0 368 -109.5t140 -289.5q0 -181 -140 -292t-368 -111h-238v-117q0 -57 11.5 -93t38 -54t57.5 -24t82 -7v-29h-467v29z
M360 381h238q180 0 290.5 95.5t110.5 250.5q0 154 -110.5 248t-290.5 94h-238v-688z" />
    <glyph glyph-name="germandbls" unicode="&#xdf;" horiz-adv-x="1097" 
d="M53 958v58h174v96q0 171 107 274t278 103q97 0 178.5 -29.5t136 -95.5t54.5 -158q0 -70 -25 -122t-64.5 -81t-87.5 -50t-96.5 -37.5t-88 -35t-64.5 -49.5t-25 -75q0 -46 29 -82t75.5 -61t103 -47.5t112.5 -49.5t102.5 -59.5t75.5 -84.5t29 -118q0 -124 -78.5 -203.5
t-206.5 -79.5q-117 0 -211.5 72t-132.5 190l39 17q37 -101 121 -164t184 -63q95 0 152 52.5t57 139.5q0 60 -29 106.5t-75 77t-101.5 56l-111 51t-101.5 56t-75 77t-29 106.5q0 58 24.5 100t63.5 66.5t86.5 44l95 39t86.5 43.5t63.5 65.5t24.5 98.5q0 106 -87 174t-214 68
q-58 0 -109.5 -16t-95.5 -48.5t-70 -90t-26 -132.5v-1157h-233v29q27 4 45 7.5t41.5 12.5t38 21t24.5 33t10 49v806h-174z" />
    <glyph glyph-name="agrave" unicode="&#xe0;" horiz-adv-x="985" 
d="M385 -31q-115 0 -194.5 75.5t-79.5 191.5q0 154 95 239t294 105l207 20v78q0 144 -75 227.5t-200 83.5q-127 0 -183.5 -65t-39.5 -144q17 -82 -25 -98q-25 -9 -49 7t-24 65q0 35 11.5 72.5t39.5 77.5t68 71.5t103.5 51.5t139.5 20q139 0 223 -98.5t84 -266.5v-573
q0 -34 17.5 -54t44.5 -20q43 0 78 61l24 -10q-29 -62 -63.5 -89.5t-63.5 -27.5q-51 0 -80.5 35t-29.5 98v144q-50 -132 -133 -204.5t-189 -72.5zM197 260q0 -91 65 -152t154 -61t163 65.5t128 184.5v248l-201 -23q-159 -20 -234 -84t-75 -178zM328 1477h102l141 -322h-28z
" />
    <glyph glyph-name="aacute" unicode="&#xe1;" horiz-adv-x="985" 
d="M385 -31q-115 0 -194.5 75.5t-79.5 191.5q0 154 95 239t294 105l207 20v78q0 144 -75 227.5t-200 83.5q-127 0 -183.5 -65t-39.5 -144q17 -82 -25 -98q-25 -9 -49 7t-24 65q0 35 11.5 72.5t39.5 77.5t68 71.5t103.5 51.5t139.5 20q139 0 223 -98.5t84 -266.5v-573
q0 -34 17.5 -54t44.5 -20q43 0 78 61l24 -10q-29 -62 -63.5 -89.5t-63.5 -27.5q-51 0 -80.5 35t-29.5 98v144q-50 -132 -133 -204.5t-189 -72.5zM197 260q0 -91 65 -152t154 -61t163 65.5t128 184.5v248l-201 -23q-159 -20 -234 -84t-75 -178zM465 1157l141 322h103
l-215 -322h-29z" />
    <glyph glyph-name="acircumflex" unicode="&#xe2;" horiz-adv-x="985" 
d="M385 -31q-115 0 -194.5 75.5t-79.5 191.5q0 154 95 239t294 105l207 20v78q0 144 -75 227.5t-200 83.5q-127 0 -183.5 -65t-39.5 -144q17 -82 -25 -98q-25 -9 -49 7t-24 65q0 35 11.5 72.5t39.5 77.5t68 71.5t103.5 51.5t139.5 20q139 0 223 -98.5t84 -266.5v-573
q0 -34 17.5 -54t44.5 -20q43 0 78 61l24 -10q-29 -62 -63.5 -89.5t-63.5 -27.5q-51 0 -80.5 35t-29.5 98v144q-50 -132 -133 -204.5t-189 -72.5zM197 260q0 -91 65 -152t154 -61t163 65.5t128 184.5v248l-201 -23q-159 -20 -234 -84t-75 -178zM209 1174l215 311h102
l215 -311l-20 -15l-246 246l-246 -246z" />
    <glyph glyph-name="atilde" unicode="&#xe3;" horiz-adv-x="985" 
d="M385 -31q-115 0 -194.5 75.5t-79.5 191.5q0 154 95 239t294 105l207 20v78q0 144 -75 227.5t-200 83.5q-127 0 -183.5 -65t-39.5 -144q17 -82 -25 -98q-25 -9 -49 7t-24 65q0 35 11.5 72.5t39.5 77.5t68 71.5t103.5 51.5t139.5 20q139 0 223 -98.5t84 -266.5v-573
q0 -34 17.5 -54t44.5 -20q43 0 78 61l24 -10q-29 -62 -63.5 -89.5t-63.5 -27.5q-51 0 -80.5 35t-29.5 98v144q-50 -132 -133 -204.5t-189 -72.5zM197 260q0 -91 65 -152t154 -61t163 65.5t128 184.5v248l-201 -23q-159 -20 -234 -84t-75 -178zM223 1188q0 92 37 145t100 53
q37 0 82.5 -30.5t89.5 -61t76 -30.5q39 0 62.5 33t27.5 96l29 -2q1 -92 -35.5 -144.5t-101.5 -52.5q-38 0 -127 61.5t-121 61.5q-39 0 -62.5 -33.5t-27.5 -97.5z" />
    <glyph glyph-name="adieresis" unicode="&#xe4;" horiz-adv-x="985" 
d="M385 -31q-115 0 -194.5 75.5t-79.5 191.5q0 154 95 239t294 105l207 20v78q0 144 -75 227.5t-200 83.5q-127 0 -183.5 -65t-39.5 -144q17 -82 -25 -98q-25 -9 -49 7t-24 65q0 35 11.5 72.5t39.5 77.5t68 71.5t103.5 51.5t139.5 20q139 0 223 -98.5t84 -266.5v-573
q0 -34 17.5 -54t44.5 -20q43 0 78 61l24 -10q-29 -62 -63.5 -89.5t-63.5 -27.5q-51 0 -80.5 35t-29.5 98v144q-50 -132 -133 -204.5t-189 -72.5zM197 260q0 -91 65 -152t154 -61t163 65.5t128 184.5v248l-201 -23q-159 -20 -234 -84t-75 -178zM244 1315q0 34 24.5 58
t59.5 24q32 0 55 -24t23 -58t-23 -57t-55 -23q-35 0 -59.5 23t-24.5 57zM543 1315q0 34 24.5 58t59.5 24q32 0 55 -24t23 -58t-23 -57t-55 -23q-35 0 -59.5 23t-24.5 57z" />
    <glyph glyph-name="aring" unicode="&#xe5;" horiz-adv-x="985" 
d="M385 -31q-115 0 -194.5 75.5t-79.5 191.5q0 154 95 239t294 105l207 20v78q0 144 -75 227.5t-200 83.5q-127 0 -183.5 -65t-39.5 -144q17 -82 -25 -98q-25 -9 -49 7t-24 65q0 35 11.5 72.5t39.5 77.5t68 71.5t103.5 51.5t139.5 20q139 0 223 -98.5t84 -266.5v-573
q0 -34 17.5 -54t44.5 -20q43 0 78 61l24 -10q-29 -62 -63.5 -89.5t-63.5 -27.5q-51 0 -80.5 35t-29.5 98v144q-50 -132 -133 -204.5t-189 -72.5zM197 260q0 -91 65 -152t154 -61t163 65.5t128 184.5v248l-201 -23q-159 -20 -234 -84t-75 -178zM297 1311q0 73 50.5 121.5
t127.5 48.5q75 0 125.5 -48.5t50.5 -121.5q0 -72 -50.5 -121t-125.5 -49q-76 0 -127 49t-51 121zM358 1313q0 -51 33 -86t84 -35t84 35t33 86q0 52 -33 85.5t-84 33.5t-84 -33.5t-33 -85.5z" />
    <glyph glyph-name="ae" unicode="&#xe6;" horiz-adv-x="1576" 
d="M473 1047q113 0 191 -65.5t104 -182.5q58 117 156.5 182.5t222.5 65.5q108 0 187.5 -63t113.5 -160.5t20 -207.5h-677q-5 -77 -5 -100q0 -205 108 -332t294 -127q88 0 160 59t100 154l27 -6q-23 -132 -113 -212.5t-215 -80.5q-155 0 -265 86t-155 234
q-37 -165 -125.5 -243.5t-216.5 -78.5q-115 0 -194.5 75.5t-79.5 191.5q0 154 95 239t294 105l207 20v78q0 144 -75 227.5t-200 83.5q-127 0 -183.5 -65t-39.5 -144q17 -82 -25 -98q-25 -9 -49 7t-24 65q0 35 11.5 72.5t39.5 77.5t68 71.5t103.5 51.5t139.5 20zM197 260
q0 -91 65 -152t154 -61q223 0 299 291q-15 84 -15 147q0 42 2 60l-196 -23q-159 -20 -234 -84t-75 -178zM797 657h589q6 147 -70 239.5t-202 92.5q-134 0 -213.5 -85t-103.5 -247z" />
    <glyph glyph-name="ccedilla" unicode="&#xe7;" horiz-adv-x="966" 
d="M838 735q-52 137 -134 195.5t-200 58.5q-146 0 -242 -123t-96 -309q0 -133 48 -245.5t144 -183.5t222 -71q97 0 177.5 63.5t114.5 166.5l25 -6q-28 -138 -126.5 -224t-231.5 -86h-9l-53 -88q52 -12 84.5 -53.5t32.5 -95.5q0 -91 -70.5 -134t-201.5 -12v17
q79 -15 134.5 15t55.5 87q0 39 -32 67.5t-93 37.5l115 161q-181 15 -300.5 159t-119.5 353q0 242 120.5 402t301.5 160q62 0 117.5 -13t83 -26.5t49 -19.5t29.5 6.5t10 52.5h24l49 -312h-28z" />
    <glyph glyph-name="egrave" unicode="&#xe8;" horiz-adv-x="958" 
d="M528 -29q-203 0 -324.5 143.5t-121.5 370.5q0 247 124.5 404.5t321.5 157.5q108 0 188 -63t114 -161t20 -207h-678q-4 -62 -4 -100q0 -205 107.5 -332t293.5 -127q88 0 160 59t100 154l27 -6q-23 -132 -113 -212.5t-215 -80.5zM178 657h590q6 147 -70 239.5t-202 92.5
q-134 0 -214.5 -85.5t-103.5 -246.5zM367 1479h102l141 -322h-28z" />
    <glyph glyph-name="eacute" unicode="&#xe9;" horiz-adv-x="958" 
d="M528 -29q-203 0 -324.5 143.5t-121.5 370.5q0 247 124.5 404.5t321.5 157.5q108 0 188 -63t114 -161t20 -207h-678q-4 -62 -4 -100q0 -205 107.5 -332t293.5 -127q88 0 160 59t100 154l27 -6q-23 -132 -113 -212.5t-215 -80.5zM178 657h590q6 147 -70 239.5t-202 92.5
q-134 0 -214.5 -85.5t-103.5 -246.5zM504 1159l141 322h103l-216 -322h-28z" />
    <glyph glyph-name="ecircumflex" unicode="&#xea;" horiz-adv-x="958" 
d="M528 -29q-203 0 -324.5 143.5t-121.5 370.5q0 247 124.5 404.5t321.5 157.5q108 0 188 -63t114 -161t20 -207h-678q-4 -62 -4 -100q0 -205 107.5 -332t293.5 -127q88 0 160 59t100 154l27 -6q-23 -132 -113 -212.5t-215 -80.5zM178 657h590q6 147 -70 239.5t-202 92.5
q-134 0 -214.5 -85.5t-103.5 -246.5zM248 1176l215 311h102l215 -311l-20 -15l-246 246l-246 -246z" />
    <glyph glyph-name="edieresis" unicode="&#xeb;" horiz-adv-x="958" 
d="M528 -29q-203 0 -324.5 143.5t-121.5 370.5q0 247 124.5 404.5t321.5 157.5q108 0 188 -63t114 -161t20 -207h-678q-4 -62 -4 -100q0 -205 107.5 -332t293.5 -127q88 0 160 59t100 154l27 -6q-23 -132 -113 -212.5t-215 -80.5zM178 657h590q6 147 -70 239.5t-202 92.5
q-134 0 -214.5 -85.5t-103.5 -246.5zM283 1317q0 34 24.5 58t59.5 24q32 0 54.5 -24t22.5 -58t-22.5 -57t-54.5 -23q-35 0 -59.5 23t-24.5 57zM582 1317q0 34 24.5 58t59.5 24q32 0 54.5 -24t22.5 -58t-22.5 -57t-54.5 -23q-35 0 -59.5 23t-24.5 57z" />
    <glyph glyph-name="igrave" unicode="&#xec;" horiz-adv-x="524" 
d="M295 160q0 -66 35.5 -94.5t124.5 -36.5v-29h-394v29q89 8 124.5 36.5t35.5 94.5v676q0 86 -34 106.5t-126 -2.5v29l205 78h29v-887zM109 1477h102l141 -322h-28z" />
    <glyph glyph-name="iacute" unicode="&#xed;" horiz-adv-x="524" 
d="M295 160q0 -66 35.5 -94.5t124.5 -36.5v-29h-394v29q89 8 124.5 36.5t35.5 94.5v676q0 86 -34 106.5t-126 -2.5v29l205 78h29v-887zM246 1157l141 322h102l-215 -322h-28z" />
    <glyph glyph-name="icircumflex" unicode="&#xee;" horiz-adv-x="524" 
d="M295 160q0 -66 35.5 -94.5t124.5 -36.5v-29h-394v29q89 8 124.5 36.5t35.5 94.5v676q0 86 -34 106.5t-126 -2.5v29l205 78h29v-887zM-10 1174l215 311h102l215 -311l-20 -15l-246 246l-246 -246z" />
    <glyph glyph-name="idieresis" unicode="&#xef;" horiz-adv-x="524" 
d="M295 160q0 -66 35.5 -94.5t124.5 -36.5v-29h-394v29q89 8 124.5 36.5t35.5 94.5v676q0 86 -34 106.5t-126 -2.5v29l205 78h29v-887zM25 1315q0 34 24.5 58t59.5 24q32 0 54.5 -24t22.5 -58t-22.5 -57t-54.5 -23q-35 0 -59.5 23t-24.5 57zM324 1315q0 34 24.5 58t59.5 24
q32 0 54.5 -24t22.5 -58t-22.5 -57t-54.5 -23q-35 0 -59.5 23t-24.5 57z" />
    <glyph glyph-name="eth" unicode="&#xf0;" horiz-adv-x="1048" 
d="M512 -31q-192 0 -311 142.5t-119 373.5q0 251 125.5 406.5t327.5 155.5q201 0 309 -183q-87 255 -279 396l-233 -158l-27 41l217 145q-90 58 -213 96l6 27q130 -26 248 -96l187 123l22 -39l-168 -113q167 -119 265 -315.5t98 -427.5q0 -265 -124.5 -419.5t-330.5 -154.5z
M168 573q0 -155 50 -280t137.5 -195.5t195.5 -70.5q141 0 235.5 118.5t94.5 296.5q0 236 -109.5 391.5t-275.5 155.5q-141 0 -234.5 -118t-93.5 -298z" />
    <glyph glyph-name="ntilde" unicode="&#xf1;" horiz-adv-x="1148" 
d="M944 160q0 -66 35.5 -94.5t124.5 -36.5v-29h-393v29q89 7 124 36t35 95v547q0 131 -58.5 200.5t-168.5 69.5q-90 0 -173 -56t-175 -167v-594q0 -66 35.5 -94.5t124.5 -36.5v-29h-394v29q89 8 124.5 36.5t35.5 94.5v676q0 86 -34 106.5t-126 -2.5v29l205 78h29v-248
q178 248 358 248q135 0 213 -91t78 -249v-547zM332 1188q0 92 37 145t100 53q37 0 82.5 -30.5t89.5 -61t76 -30.5q39 0 62.5 33t27.5 96l29 -2q1 -92 -36 -144.5t-102 -52.5q-38 0 -126.5 61.5t-120.5 61.5q-39 0 -63 -33.5t-28 -97.5z" />
    <glyph glyph-name="ograve" unicode="&#xf2;" horiz-adv-x="1048" 
d="M512 -31q-192 0 -311 142.5t-119 373.5q0 251 125.5 406.5t327.5 155.5q193 0 312.5 -143t119.5 -374q0 -253 -125.5 -407t-329.5 -154zM168 573q0 -155 50 -280t137.5 -195.5t195.5 -70.5q141 0 235.5 118.5t94.5 296.5q0 236 -109.5 391.5t-275.5 155.5
q-141 0 -234.5 -118t-93.5 -298zM377 1477h102l142 -322h-29z" />
    <glyph glyph-name="oacute" unicode="&#xf3;" horiz-adv-x="1048" 
d="M512 -31q-192 0 -311 142.5t-119 373.5q0 251 125.5 406.5t327.5 155.5q193 0 312.5 -143t119.5 -374q0 -253 -125.5 -407t-329.5 -154zM168 573q0 -155 50 -280t137.5 -195.5t195.5 -70.5q141 0 235.5 118.5t94.5 296.5q0 236 -109.5 391.5t-275.5 155.5
q-141 0 -234.5 -118t-93.5 -298zM514 1157l141 322h103l-215 -322h-29z" />
    <glyph glyph-name="ocircumflex" unicode="&#xf4;" horiz-adv-x="1048" 
d="M512 -31q-192 0 -311 142.5t-119 373.5q0 251 125.5 406.5t327.5 155.5q193 0 312.5 -143t119.5 -374q0 -253 -125.5 -407t-329.5 -154zM168 573q0 -155 50 -280t137.5 -195.5t195.5 -70.5q141 0 235.5 118.5t94.5 296.5q0 236 -109.5 391.5t-275.5 155.5
q-141 0 -234.5 -118t-93.5 -298zM258 1174l215 311h102l216 -311l-21 -15l-246 246l-245 -246z" />
    <glyph glyph-name="otilde" unicode="&#xf5;" horiz-adv-x="1048" 
d="M512 -31q-192 0 -311 142.5t-119 373.5q0 251 125.5 406.5t327.5 155.5q193 0 312.5 -143t119.5 -374q0 -253 -125.5 -407t-329.5 -154zM168 573q0 -155 50 -280t137.5 -195.5t195.5 -70.5q141 0 235.5 118.5t94.5 296.5q0 236 -109.5 391.5t-275.5 155.5
q-141 0 -234.5 -118t-93.5 -298zM272 1188q0 92 37.5 145t100.5 53q29 0 64.5 -19t63 -42t60.5 -42t59 -19q39 0 63 33.5t28 95.5l28 -2q1 -92 -35.5 -144.5t-101.5 -52.5q-38 0 -127 61.5t-121 61.5q-39 0 -62.5 -33.5t-27.5 -97.5z" />
    <glyph glyph-name="odieresis" unicode="&#xf6;" horiz-adv-x="1048" 
d="M512 -31q-192 0 -311 142.5t-119 373.5q0 251 125.5 406.5t327.5 155.5q193 0 312.5 -143t119.5 -374q0 -253 -125.5 -407t-329.5 -154zM168 573q0 -155 50 -280t137.5 -195.5t195.5 -70.5q141 0 235.5 118.5t94.5 296.5q0 236 -109.5 391.5t-275.5 155.5
q-141 0 -234.5 -118t-93.5 -298zM293 1315q0 34 24.5 58t59.5 24q32 0 55 -24t23 -58t-23 -57t-55 -23q-35 0 -59.5 23t-24.5 57zM592 1315q0 34 24.5 58t59.5 24q32 0 55 -24t23 -58t-23 -57t-55 -23q-35 0 -59.5 23t-24.5 57z" />
    <glyph glyph-name="divide" unicode="&#xf7;" 
d="M184 610v54h860v-54h-860zM524 315q0 37 26.5 64t63.5 27t64 -27t27 -64q0 -36 -27 -62t-64 -26t-63.5 25.5t-26.5 62.5zM524 956q0 37 26.5 64t63.5 27t64 -27t27 -64q0 -36 -27 -62t-64 -26t-63.5 25.5t-26.5 62.5z" />
    <glyph glyph-name="oslash" unicode="&#xf8;" horiz-adv-x="1048" 
d="M512 -31q-178 0 -293 121l-98 -121l-41 31l106 131q-104 135 -104 354q0 251 125.5 406.5t327.5 155.5q177 0 292 -121l99 121l41 -31l-105 -131q105 -140 105 -355q0 -253 -125.5 -407t-329.5 -154zM168 573q0 -203 86 -356l510 629q-111 143 -268 143
q-141 0 -234.5 -118t-93.5 -298zM285 172q107 -145 266 -145q141 0 235.5 118.5t94.5 296.5q0 209 -88 359z" />
    <glyph glyph-name="ugrave" unicode="&#xf9;" horiz-adv-x="1126" 
d="M958 -31q-51 0 -80.5 35t-29.5 98v113q-95 -133 -180.5 -189.5t-178.5 -56.5q-135 0 -211.5 89t-76.5 243v535q0 86 -34 106.5t-126 -2.5v29l205 78h28v-730q0 -129 66.5 -195.5t183.5 -66.5q89 0 161.5 48t162.5 157v576q0 86 -34 106.5t-126 -2.5v29l205 78h29v-938
q0 -34 17 -54t44 -20q43 0 78 61l24 -10q-29 -62 -63.5 -89.5t-63.5 -27.5zM418 1477h102l142 -322h-29z" />
    <glyph glyph-name="uacute" unicode="&#xfa;" horiz-adv-x="1126" 
d="M958 -31q-51 0 -80.5 35t-29.5 98v113q-95 -133 -180.5 -189.5t-178.5 -56.5q-135 0 -211.5 89t-76.5 243v535q0 86 -34 106.5t-126 -2.5v29l205 78h28v-730q0 -129 66.5 -195.5t183.5 -66.5q89 0 161.5 48t162.5 157v576q0 86 -34 106.5t-126 -2.5v29l205 78h29v-938
q0 -34 17 -54t44 -20q43 0 78 61l24 -10q-29 -62 -63.5 -89.5t-63.5 -27.5zM555 1157l141 322h103l-215 -322h-29z" />
    <glyph glyph-name="ucircumflex" unicode="&#xfb;" horiz-adv-x="1126" 
d="M958 -31q-51 0 -80.5 35t-29.5 98v113q-95 -133 -180.5 -189.5t-178.5 -56.5q-135 0 -211.5 89t-76.5 243v535q0 86 -34 106.5t-126 -2.5v29l205 78h28v-730q0 -129 66.5 -195.5t183.5 -66.5q89 0 161.5 48t162.5 157v576q0 86 -34 106.5t-126 -2.5v29l205 78h29v-938
q0 -34 17 -54t44 -20q43 0 78 61l24 -10q-29 -62 -63.5 -89.5t-63.5 -27.5zM299 1174l215 311h102l215 -311l-20 -15l-246 246l-246 -246z" />
    <glyph glyph-name="udieresis" unicode="&#xfc;" horiz-adv-x="1126" 
d="M958 -31q-51 0 -80.5 35t-29.5 98v113q-95 -133 -180.5 -189.5t-178.5 -56.5q-135 0 -211.5 89t-76.5 243v535q0 86 -34 106.5t-126 -2.5v29l205 78h28v-730q0 -129 66.5 -195.5t183.5 -66.5q89 0 161.5 48t162.5 157v576q0 86 -34 106.5t-126 -2.5v29l205 78h29v-938
q0 -34 17 -54t44 -20q43 0 78 61l24 -10q-29 -62 -63.5 -89.5t-63.5 -27.5zM334 1315q0 34 24.5 58t59.5 24q32 0 55 -24t23 -58t-23 -57t-55 -23q-35 0 -59.5 23t-24.5 57zM633 1315q0 34 24.5 58t59.5 24q32 0 55 -24t23 -58t-23 -57t-55 -23q-35 0 -59.5 23t-24.5 57z
" />
    <glyph glyph-name="yacute" unicode="&#xfd;" horiz-adv-x="1019" 
d="M174 -434q-59 0 -112.5 25.5t-53.5 66.5q0 20 14 32.5t37 12.5q17 0 43 -17t58 -34t65 -17q139 0 226 238l49 137l-334 852q-46 119 -139 125v29h356v-29q-92 -3 -126 -34t-11 -91l293 -745l272 745q43 119 -123 125v29h324v-29q-94 -6 -140 -125l-366 -1005
q-107 -291 -332 -291zM532 1157l142 322h102l-215 -322h-29z" />
    <glyph glyph-name="thorn" unicode="&#xfe;" horiz-adv-x="1132" 
d="M221 1239q0 86 -34 106.5t-126 -2.5v29l205 78h29v-674q29 122 120 196.5t212 74.5q190 0 307 -143.5t117 -375.5q0 -251 -124.5 -405t-326.5 -154q-93 0 -176 39t-129 103v-363q0 -35 14.5 -58t46.5 -36t67 -19t91 -10v-28h-453v28q27 4 45 7.5t42 12.5t38 21t24.5 33
t10.5 49v1491zM295 354q0 -59 21 -115.5t61 -104.5t106 -77.5t148 -29.5q150 0 242 116.5t92 305.5q0 243 -103 391.5t-270 148.5q-106 0 -188 -80t-109 -198v-357z" />
    <glyph glyph-name="ydieresis" unicode="&#xff;" horiz-adv-x="1019" 
d="M174 -434q-59 0 -112.5 25.5t-53.5 66.5q0 20 14 32.5t37 12.5q17 0 43 -17t58 -34t65 -17q139 0 226 238l49 137l-334 852q-46 119 -139 125v29h356v-29q-92 -3 -126 -34t-11 -91l293 -745l272 745q43 119 -123 125v29h324v-29q-94 -6 -140 -125l-366 -1005
q-107 -291 -332 -291zM311 1315q0 34 24.5 58t59.5 24q32 0 55 -24t23 -58t-23 -57t-55 -23q-35 0 -59.5 23t-24.5 57zM610 1315q0 34 24.5 58t59.5 24q32 0 55 -24t23 -58t-23 -57t-55 -23q-35 0 -59.5 23t-24.5 57z" />
    <glyph glyph-name="Amacron" unicode="&#x100;" horiz-adv-x="1425" 
d="M1206 229q43 -114 87.5 -157t119.5 -43v-29h-502v29q157 0 201 39t4 143l-108 285h-627l-109 -285q-40 -104 0.5 -143t188.5 -39v-29h-449v29q74 0 118.5 43.5t88.5 158.5l479 1250h29zM403 553h582l-291 760zM481 1636v58h449v-58h-449z" />
    <glyph glyph-name="amacron" unicode="&#x101;" horiz-adv-x="985" 
d="M385 -31q-115 0 -194.5 75.5t-79.5 191.5q0 154 95 239t294 105l207 20v78q0 144 -75 227.5t-200 83.5q-127 0 -183.5 -65t-39.5 -144q17 -82 -25 -98q-25 -9 -49 7t-24 65q0 35 11.5 72.5t39.5 77.5t68 71.5t103.5 51.5t139.5 20q139 0 223 -98.5t84 -266.5v-573
q0 -34 17.5 -54t44.5 -20q43 0 78 61l24 -10q-29 -62 -63.5 -89.5t-63.5 -27.5q-51 0 -80.5 35t-29.5 98v144q-50 -132 -133 -204.5t-189 -72.5zM197 260q0 -91 65 -152t154 -61t163 65.5t128 184.5v248l-201 -23q-159 -20 -234 -84t-75 -178zM250 1202v58h448v-58h-448z
" />
    <glyph glyph-name="Abreve" unicode="&#x102;" horiz-adv-x="1425" 
d="M1206 229q43 -114 87.5 -157t119.5 -43v-29h-502v29q157 0 201 39t4 143l-108 285h-627l-109 -285q-40 -104 0.5 -143t188.5 -39v-29h-449v29q74 0 118.5 43.5t88.5 158.5l479 1250h29zM403 553h582l-291 760zM489 1915h31q3 -118 51 -181t136 -63q89 0 138 63t52 181h31
q0 -160 -57 -244t-164 -84q-106 0 -162 84t-56 244z" />
    <glyph glyph-name="abreve" unicode="&#x103;" horiz-adv-x="985" 
d="M385 -31q-115 0 -194.5 75.5t-79.5 191.5q0 154 95 239t294 105l207 20v78q0 144 -75 227.5t-200 83.5q-127 0 -183.5 -65t-39.5 -144q17 -82 -25 -98q-25 -9 -49 7t-24 65q0 35 11.5 72.5t39.5 77.5t68 71.5t103.5 51.5t139.5 20q139 0 223 -98.5t84 -266.5v-573
q0 -34 17.5 -54t44.5 -20q43 0 78 61l24 -10q-29 -62 -63.5 -89.5t-63.5 -27.5q-51 0 -80.5 35t-29.5 98v144q-50 -132 -133 -204.5t-189 -72.5zM197 260q0 -91 65 -152t154 -61t163 65.5t128 184.5v248l-201 -23q-159 -20 -234 -84t-75 -178zM258 1481h31
q3 -119 50.5 -181.5t135.5 -62.5q89 0 138.5 63t52.5 181h30q0 -160 -57 -244t-164 -84q-106 0 -161.5 84t-55.5 244z" />
    <glyph glyph-name="Aogonek" unicode="&#x104;" horiz-adv-x="1425" 
d="M1206 229q43 -114 87.5 -157t119.5 -43v-29h-196q-156 -156 -156 -258q0 -98 77.5 -115.5t178.5 47.5l8 -12q-84 -96 -178 -96q-69 0 -112.5 39.5t-43.5 103.5q0 135 178 291h-258v29q157 0 201 39t4 143l-108 285h-627l-109 -285q-40 -104 0.5 -143t188.5 -39v-29h-449
v29q74 0 118.5 43.5t88.5 158.5l479 1250h29zM403 553h582l-291 760z" />
    <glyph glyph-name="aogonek" unicode="&#x105;" horiz-adv-x="985" 
d="M385 -31q-115 0 -194.5 75.5t-79.5 191.5q0 154 95 239t294 105l207 20v78q0 144 -75 227.5t-200 83.5q-127 0 -183.5 -65t-39.5 -144q17 -82 -25 -98q-25 -9 -49 7t-24 65q0 35 11.5 72.5t39.5 77.5t68 71.5t103.5 51.5t139.5 20q139 0 223 -98.5t84 -266.5v-573
q0 -34 17.5 -54t44.5 -20q43 0 78 61l24 -10q-42 -85 -92 -109q-135 -139 -135 -235q0 -98 77.5 -115.5t178.5 47.5l8 -12q-84 -96 -178 -96q-69 0 -112.5 39.5t-43.5 103.5q0 122 148 262q-42 8 -65 42t-23 89v144q-50 -132 -133 -204.5t-189 -72.5zM197 260q0 -91 65 -152
t154 -61t163 65.5t128 184.5v248l-201 -23q-159 -20 -234 -84t-75 -178z" />
    <glyph glyph-name="Cacute" unicode="&#x106;" horiz-adv-x="1368" 
d="M1151 1481l61 -387h-28q-104 329 -447 329q-222 0 -364.5 -187.5t-143.5 -485.5q-1 -201 73.5 -363.5t207.5 -254t299 -91.5q157 0 272 98t160 264l29 -6q-21 -133 -96 -232t-182 -148.5t-230 -49.5q-139 0 -258 54t-203 149t-131.5 229.5t-46.5 290.5q1 231 82.5 412
t224.5 280t322 99q61 0 124.5 -15t102 -30t72 -22.5t50 7.5t21.5 60h29zM737 1591l142 322h102l-215 -322h-29z" />
    <glyph glyph-name="cacute" unicode="&#x107;" horiz-adv-x="966" 
d="M838 735q-52 137 -134 195.5t-200 58.5q-146 0 -242 -123t-96 -309q0 -133 48 -245.5t144 -183.5t222 -71q97 0 177.5 63.5t114.5 166.5l25 -6q-28 -138 -126.5 -224t-231.5 -86q-194 0 -325.5 147t-131.5 367q0 242 120.5 402t301.5 160q62 0 117.5 -13t83 -26.5
t49 -19.5t29.5 6.5t10 52.5h24l49 -312h-28zM494 1157l141 322h102l-215 -322h-28z" />
    <glyph glyph-name="Ccircumflex" unicode="&#x108;" horiz-adv-x="1368" 
d="M1151 1481l61 -387h-28q-104 329 -447 329q-222 0 -364.5 -187.5t-143.5 -485.5q-1 -201 73.5 -363.5t207.5 -254t299 -91.5q157 0 272 98t160 264l29 -6q-21 -133 -96 -232t-182 -148.5t-230 -49.5q-139 0 -258 54t-203 149t-131.5 229.5t-46.5 290.5q1 231 82.5 412
t224.5 280t322 99q61 0 124.5 -15t102 -30t72 -22.5t50 7.5t21.5 60h29zM481 1608l215 311h103l215 -311l-21 -15l-245 246l-246 -246z" />
    <glyph glyph-name="ccircumflex" unicode="&#x109;" horiz-adv-x="966" 
d="M838 735q-52 137 -134 195.5t-200 58.5q-146 0 -242 -123t-96 -309q0 -133 48 -245.5t144 -183.5t222 -71q97 0 177.5 63.5t114.5 166.5l25 -6q-28 -138 -126.5 -224t-231.5 -86q-194 0 -325.5 147t-131.5 367q0 242 120.5 402t301.5 160q62 0 117.5 -13t83 -26.5
t49 -19.5t29.5 6.5t10 52.5h24l49 -312h-28zM238 1174l215 311h102l215 -311l-20 -15l-246 246l-246 -246z" />
    <glyph glyph-name="Cdotaccent" unicode="&#x10a;" horiz-adv-x="1368" 
d="M1151 1481l61 -387h-28q-104 329 -447 329q-222 0 -364.5 -187.5t-143.5 -485.5q-1 -201 73.5 -363.5t207.5 -254t299 -91.5q157 0 272 98t160 264l29 -6q-21 -133 -96 -232t-182 -148.5t-230 -49.5q-139 0 -258 54t-203 149t-131.5 229.5t-46.5 290.5q1 231 82.5 412
t224.5 280t322 99q61 0 124.5 -15t102 -30t72 -22.5t50 7.5t21.5 60h29zM664 1749q0 34 24.5 58t59.5 24q32 0 54.5 -24t22.5 -58t-22.5 -57t-54.5 -23q-35 0 -59.5 23t-24.5 57z" />
    <glyph glyph-name="cdotaccent" unicode="&#x10b;" horiz-adv-x="966" 
d="M838 735q-52 137 -134 195.5t-200 58.5q-146 0 -242 -123t-96 -309q0 -133 48 -245.5t144 -183.5t222 -71q97 0 177.5 63.5t114.5 166.5l25 -6q-28 -138 -126.5 -224t-231.5 -86q-194 0 -325.5 147t-131.5 367q0 242 120.5 402t301.5 160q62 0 117.5 -13t83 -26.5
t49 -19.5t29.5 6.5t10 52.5h24l49 -312h-28zM420 1315q0 34 24.5 58t59.5 24q32 0 55 -24t23 -58t-23 -57t-55 -23q-35 0 -59.5 23t-24.5 57z" />
    <glyph glyph-name="Ccaron" unicode="&#x10c;" horiz-adv-x="1368" 
d="M1151 1481l61 -387h-28q-104 329 -447 329q-222 0 -364.5 -187.5t-143.5 -485.5q-1 -201 73.5 -363.5t207.5 -254t299 -91.5q157 0 272 98t160 264l29 -6q-21 -133 -96 -232t-182 -148.5t-230 -49.5q-139 0 -258 54t-203 149t-131.5 229.5t-46.5 290.5q1 231 82.5 412
t224.5 280t322 99q61 0 124.5 -15t102 -30t72 -22.5t50 7.5t21.5 60h29zM481 1905l21 14l246 -246l245 246l21 -14l-215 -312h-103z" />
    <glyph glyph-name="ccaron" unicode="&#x10d;" horiz-adv-x="966" 
d="M838 735q-52 137 -134 195.5t-200 58.5q-146 0 -242 -123t-96 -309q0 -133 48 -245.5t144 -183.5t222 -71q97 0 177.5 63.5t114.5 166.5l25 -6q-28 -138 -126.5 -224t-231.5 -86q-194 0 -325.5 147t-131.5 367q0 242 120.5 402t301.5 160q62 0 117.5 -13t83 -26.5
t49 -19.5t29.5 6.5t10 52.5h24l49 -312h-28zM238 1470l20 15l246 -246l246 246l20 -15l-215 -311h-102z" />
    <glyph glyph-name="Dcaron" unicode="&#x10e;" horiz-adv-x="1449" 
d="M629 1450q314 0 506 -186t192 -490q0 -347 -183 -560.5t-482 -213.5h-580v29q105 7 146.5 40.5t41.5 110.5v1090q0 77 -41.5 110.5t-146.5 40.5v29h547zM360 207q0 -82 34 -116t116 -34h152q250 0 404.5 184.5t154.5 483.5q0 312 -167 490t-460 178h-234v-1186zM418 1905
l20 14l246 -246l246 246l20 -14l-215 -312h-102z" />
    <glyph glyph-name="dcaron" unicode="&#x10f;" horiz-adv-x="1116" 
d="M506 -31q-190 0 -307 143t-117 375q0 251 124 405.5t326 154.5q93 0 176.5 -39t129.5 -103v365q0 86 -34 106.5t-126 -2.5v29l205 78h28v-1372q0 -34 17.5 -54t44.5 -20q43 0 78 61l24 -10q-29 -62 -63.5 -89.5t-63.5 -27.5q-51 0 -80.5 35t-29.5 98v138
q-29 -122 -120 -196.5t-212 -74.5zM168 567q0 -243 103 -391.5t270 -148.5q106 0 188 80t109 198v357q0 59 -21 115.5t-61 104.5t-106 77.5t-148 29.5q-150 0 -242 -116.5t-92 -305.5zM1014 1159l41 412h90l-103 -412h-28z" />
    <glyph glyph-name="Dcroat" unicode="&#x110;" horiz-adv-x="1449" 
d="M629 1450q314 0 506 -186t192 -490q0 -347 -183 -560.5t-482 -213.5h-580v29q105 7 146.5 40.5t41.5 110.5v514h-237v58h237v518q0 77 -41.5 110.5t-146.5 40.5v29h547zM360 207q0 -82 34 -116t116 -34h152q250 0 404.5 184.5t154.5 483.5q0 312 -167 490t-460 178h-234
v-641h234v-58h-234v-487z" />
    <glyph glyph-name="dcroat" unicode="&#x111;" horiz-adv-x="1116" 
d="M506 -31q-190 0 -307 143t-117 375q0 251 124 405.5t326 154.5q93 0 176.5 -39t129.5 -103v242h-246v57h246v66q0 86 -34 106.5t-126 -2.5v29l205 78h28v-277h242v-57h-242v-1038q0 -34 17.5 -54t44.5 -20q43 0 78 61l24 -10q-29 -62 -63.5 -89.5t-63.5 -27.5
q-51 0 -80.5 35t-29.5 98v138q-29 -122 -120 -196.5t-212 -74.5zM168 567q0 -243 103 -391.5t270 -148.5q106 0 188 80t109 198v357q0 59 -21 115.5t-61 104.5t-106 77.5t-148 29.5q-150 0 -242 -116.5t-92 -305.5z" />
    <glyph glyph-name="Emacron" unicode="&#x112;" horiz-adv-x="1239" 
d="M1157 358h29l-58 -358h-1046v29q105 7 146.5 40.5t41.5 110.5v1090q0 77 -41.5 110.5t-146.5 40.5v29h911q68 0 76 31h29l61 -387h-29q-34 160 -100 229.5t-186 69.5h-484v-621h324q89 0 119.5 44t21.5 157h29l72 -459h-29q-30 111 -73.5 156t-116.5 45h-347v-508
q0 -81 27 -115.5t90 -34.5h414q103 0 168.5 74t97.5 227zM436 1636v58h449v-58h-449z" />
    <glyph glyph-name="emacron" unicode="&#x113;" horiz-adv-x="958" 
d="M528 -29q-203 0 -324.5 143.5t-121.5 370.5q0 247 124.5 404.5t321.5 157.5q108 0 188 -63t114 -161t20 -207h-678q-4 -62 -4 -100q0 -205 107.5 -332t293.5 -127q88 0 160 59t100 154l27 -6q-23 -132 -113 -212.5t-215 -80.5zM178 657h590q6 147 -70 239.5t-202 92.5
q-134 0 -214.5 -85.5t-103.5 -246.5zM289 1204v58h448v-58h-448z" />
    <glyph glyph-name="Ebreve" unicode="&#x114;" horiz-adv-x="1239" 
d="M1157 358h29l-58 -358h-1046v29q105 7 146.5 40.5t41.5 110.5v1090q0 77 -41.5 110.5t-146.5 40.5v29h911q68 0 76 31h29l61 -387h-29q-34 160 -100 229.5t-186 69.5h-484v-621h324q89 0 119.5 44t21.5 157h29l72 -459h-29q-30 111 -73.5 156t-116.5 45h-347v-508
q0 -81 27 -115.5t90 -34.5h414q103 0 168.5 74t97.5 227zM444 1915h31q3 -118 51 -181t136 -63q89 0 138 63t52 181h31q0 -160 -57 -244t-164 -84q-106 0 -162 84t-56 244z" />
    <glyph glyph-name="ebreve" unicode="&#x115;" horiz-adv-x="958" 
d="M528 -29q-203 0 -324.5 143.5t-121.5 370.5q0 247 124.5 404.5t321.5 157.5q108 0 188 -63t114 -161t20 -207h-678q-4 -62 -4 -100q0 -205 107.5 -332t293.5 -127q88 0 160 59t100 154l27 -6q-23 -132 -113 -212.5t-215 -80.5zM178 657h590q6 147 -70 239.5t-202 92.5
q-134 0 -214.5 -85.5t-103.5 -246.5zM297 1483h31q3 -119 50.5 -181.5t135.5 -62.5q89 0 138.5 63t52.5 181h30q0 -160 -57 -244t-164 -84q-106 0 -161.5 84t-55.5 244z" />
    <glyph glyph-name="Edotaccent" unicode="&#x116;" horiz-adv-x="1239" 
d="M1157 358h29l-58 -358h-1046v29q105 7 146.5 40.5t41.5 110.5v1090q0 77 -41.5 110.5t-146.5 40.5v29h911q68 0 76 31h29l61 -387h-29q-34 160 -100 229.5t-186 69.5h-484v-621h324q89 0 119.5 44t21.5 157h29l72 -459h-29q-30 111 -73.5 156t-116.5 45h-347v-508
q0 -81 27 -115.5t90 -34.5h414q103 0 168.5 74t97.5 227zM578 1749q0 34 24.5 58t59.5 24q32 0 54.5 -24t22.5 -58t-22.5 -57t-54.5 -23q-35 0 -59.5 23t-24.5 57z" />
    <glyph glyph-name="edotaccent" unicode="&#x117;" horiz-adv-x="958" 
d="M528 -29q-203 0 -324.5 143.5t-121.5 370.5q0 247 124.5 404.5t321.5 157.5q108 0 188 -63t114 -161t20 -207h-678q-4 -62 -4 -100q0 -205 107.5 -332t293.5 -127q88 0 160 59t100 154l27 -6q-23 -132 -113 -212.5t-215 -80.5zM178 657h590q6 147 -70 239.5t-202 92.5
q-134 0 -214.5 -85.5t-103.5 -246.5zM430 1317q0 34 24.5 58t59.5 24q32 0 55 -24t23 -58t-23 -57t-55 -23q-35 0 -59.5 23t-24.5 57z" />
    <glyph glyph-name="Eogonek" unicode="&#x118;" horiz-adv-x="1239" 
d="M1157 358h29l-58 -358h-135q-155 -155 -155 -258q0 -98 77.5 -115.5t178.5 47.5l8 -12q-84 -96 -178 -96q-69 0 -112.5 39.5t-43.5 103.5q0 135 178 291h-864v29q105 7 146.5 40.5t41.5 110.5v1090q0 77 -41.5 110.5t-146.5 40.5v29h911q68 0 76 31h29l61 -387h-29
q-34 160 -100 229.5t-186 69.5h-484v-621h324q89 0 119.5 44t21.5 157h29l72 -459h-29q-30 111 -73.5 156t-116.5 45h-347v-508q0 -81 27 -115.5t90 -34.5h414q103 0 168.5 74t97.5 227z" />
    <glyph glyph-name="eogonek" unicode="&#x119;" horiz-adv-x="958" 
d="M528 -29q-203 0 -324.5 143.5t-121.5 370.5q0 247 124.5 404.5t321.5 157.5q108 0 188 -63t114 -161t20 -207h-678q-4 -62 -4 -100q0 -205 107.5 -332t293.5 -127q88 0 160 59t100 154l27 -6q-24 -147 -133 -229q-86 -82 -139.5 -154t-53.5 -139q0 -98 77.5 -115.5
t178.5 47.5l9 -12q-84 -96 -179 -96q-69 0 -112 39.5t-43 103.5q0 123 160 275q-47 -13 -93 -13zM178 657h590q6 147 -70 239.5t-202 92.5q-134 0 -214.5 -85.5t-103.5 -246.5z" />
    <glyph glyph-name="Ecaron" unicode="&#x11a;" horiz-adv-x="1239" 
d="M1157 358h29l-58 -358h-1046v29q105 7 146.5 40.5t41.5 110.5v1090q0 77 -41.5 110.5t-146.5 40.5v29h911q68 0 76 31h29l61 -387h-29q-34 160 -100 229.5t-186 69.5h-484v-621h324q89 0 119.5 44t21.5 157h29l72 -459h-29q-30 111 -73.5 156t-116.5 45h-347v-508
q0 -81 27 -115.5t90 -34.5h414q103 0 168.5 74t97.5 227zM395 1905l21 14l246 -246l245 246l21 -14l-215 -312h-103z" />
    <glyph glyph-name="ecaron" unicode="&#x11b;" horiz-adv-x="958" 
d="M528 -29q-203 0 -324.5 143.5t-121.5 370.5q0 247 124.5 404.5t321.5 157.5q108 0 188 -63t114 -161t20 -207h-678q-4 -62 -4 -100q0 -205 107.5 -332t293.5 -127q88 0 160 59t100 154l27 -6q-23 -132 -113 -212.5t-215 -80.5zM178 657h590q6 147 -70 239.5t-202 92.5
q-134 0 -214.5 -85.5t-103.5 -246.5zM248 1473l20 14l246 -246l246 246l20 -14l-215 -312h-102z" />
    <glyph glyph-name="Gcircumflex" unicode="&#x11c;" horiz-adv-x="1441" 
d="M743 -31q-128 0 -242 53.5t-198 147.5t-132.5 229t-47.5 291q1 231 81.5 411t225.5 280t330 100q60 0 121.5 -15t98.5 -30.5t69.5 -23t49.5 8t23 60.5h29l61 -387h-26q-107 329 -449 329q-223 0 -366.5 -188.5t-143.5 -482.5q0 -186 72 -350t204 -265.5t292 -101.5
q102 0 198.5 34t159.5 107v352q0 167 -195 170v31h463v-31q-91 -3 -134.5 -45t-43.5 -125v-325q-69 -100 -198 -167t-302 -67zM498 1608l215 311h102l215 -311l-20 -15l-246 246l-246 -246z" />
    <glyph glyph-name="gcircumflex" unicode="&#x11d;" horiz-adv-x="1021" 
d="M451 -434q-155 0 -250 68.5t-95 179.5q0 50 14 91t39.5 71t48.5 48t54 37q-70 10 -110.5 57.5t-40.5 114.5q0 57 35.5 107.5t103.5 77.5q-67 46 -103 117.5t-36 160.5q0 156 104 253.5t272 97.5h11q43 -1 88.5 -3.5t79 -5.5t67.5 -6t57.5 -4.5t46 -1t36.5 5t24.5 13
t14.5 22.5t3 35h25l21 -144q-23 0 -60 5.5t-65 10.5t-82 16.5t-74 15.5q87 -43 136.5 -124t49.5 -186q0 -154 -105 -250t-274 -96q-126 0 -215 53q-104 -44 -104 -137q0 -75 58 -111.5t147 -13.5l211 49q171 41 284 -31.5t113 -224.5q0 -166 -146 -267t-384 -101zM172 -166
q0 -97 87.5 -157t229.5 -60q192 0 309 82.5t117 216.5q0 119 -90.5 179t-224.5 28l-213 -53q-59 -13 -94 -11q-54 -40 -87.5 -98t-33.5 -127zM197 731q0 -143 83.5 -241.5t217.5 -98.5q126 0 204 76.5t78 194.5q0 152 -86 248t-215 96q-126 0 -204 -77t-78 -198zM248 1174
l215 311h102l215 -311l-20 -15l-246 246l-246 -246z" />
    <glyph glyph-name="Gbreve" unicode="&#x11e;" horiz-adv-x="1441" 
d="M743 -31q-128 0 -242 53.5t-198 147.5t-132.5 229t-47.5 291q1 231 81.5 411t225.5 280t330 100q60 0 121.5 -15t98.5 -30.5t69.5 -23t49.5 8t23 60.5h29l61 -387h-26q-107 329 -449 329q-223 0 -366.5 -188.5t-143.5 -482.5q0 -186 72 -350t204 -265.5t292 -101.5
q102 0 198.5 34t159.5 107v352q0 167 -195 170v31h463v-31q-91 -3 -134.5 -45t-43.5 -125v-325q-69 -100 -198 -167t-302 -67zM547 1915h31q3 -119 50.5 -181.5t135.5 -62.5q89 0 138 63t52 181h31q0 -160 -57 -244t-164 -84q-106 0 -161.5 84t-55.5 244z" />
    <glyph glyph-name="gbreve" unicode="&#x11f;" horiz-adv-x="1021" 
d="M451 -434q-155 0 -250 68.5t-95 179.5q0 50 14 91t39.5 71t48.5 48t54 37q-70 10 -110.5 57.5t-40.5 114.5q0 57 35.5 107.5t103.5 77.5q-67 46 -103 117.5t-36 160.5q0 156 104 253.5t272 97.5h11q43 -1 88.5 -3.5t79 -5.5t67.5 -6t57.5 -4.5t46 -1t36.5 5t24.5 13
t14.5 22.5t3 35h25l21 -144q-23 0 -60 5.5t-65 10.5t-82 16.5t-74 15.5q87 -43 136.5 -124t49.5 -186q0 -154 -105 -250t-274 -96q-126 0 -215 53q-104 -44 -104 -137q0 -75 58 -111.5t147 -13.5l211 49q171 41 284 -31.5t113 -224.5q0 -166 -146 -267t-384 -101zM172 -166
q0 -97 87.5 -157t229.5 -60q192 0 309 82.5t117 216.5q0 119 -90.5 179t-224.5 28l-213 -53q-59 -13 -94 -11q-54 -40 -87.5 -98t-33.5 -127zM197 731q0 -143 83.5 -241.5t217.5 -98.5q126 0 204 76.5t78 194.5q0 152 -86 248t-215 96q-126 0 -204 -77t-78 -198zM297 1481
h31q3 -119 50.5 -181.5t135.5 -62.5q89 0 138.5 63t52.5 181h30q0 -160 -57 -244t-164 -84q-106 0 -161.5 84t-55.5 244z" />
    <glyph glyph-name="Gdotaccent" unicode="&#x120;" horiz-adv-x="1441" 
d="M743 -31q-128 0 -242 53.5t-198 147.5t-132.5 229t-47.5 291q1 231 81.5 411t225.5 280t330 100q60 0 121.5 -15t98.5 -30.5t69.5 -23t49.5 8t23 60.5h29l61 -387h-26q-107 329 -449 329q-223 0 -366.5 -188.5t-143.5 -482.5q0 -186 72 -350t204 -265.5t292 -101.5
q102 0 198.5 34t159.5 107v352q0 167 -195 170v31h463v-31q-91 -3 -134.5 -45t-43.5 -125v-325q-69 -100 -198 -167t-302 -67zM680 1749q0 34 24.5 58t59.5 24q32 0 55 -24t23 -58t-23 -57t-55 -23q-35 0 -59.5 23t-24.5 57z" />
    <glyph glyph-name="gdotaccent" unicode="&#x121;" horiz-adv-x="1021" 
d="M451 -434q-155 0 -250 68.5t-95 179.5q0 50 14 91t39.5 71t48.5 48t54 37q-70 10 -110.5 57.5t-40.5 114.5q0 57 35.5 107.5t103.5 77.5q-67 46 -103 117.5t-36 160.5q0 156 104 253.5t272 97.5h11q43 -1 88.5 -3.5t79 -5.5t67.5 -6t57.5 -4.5t46 -1t36.5 5t24.5 13
t14.5 22.5t3 35h25l21 -144q-23 0 -60 5.5t-65 10.5t-82 16.5t-74 15.5q87 -43 136.5 -124t49.5 -186q0 -154 -105 -250t-274 -96q-126 0 -215 53q-104 -44 -104 -137q0 -75 58 -111.5t147 -13.5l211 49q171 41 284 -31.5t113 -224.5q0 -166 -146 -267t-384 -101zM172 -166
q0 -97 87.5 -157t229.5 -60q192 0 309 82.5t117 216.5q0 119 -90.5 179t-224.5 28l-213 -53q-59 -13 -94 -11q-54 -40 -87.5 -98t-33.5 -127zM197 731q0 -143 83.5 -241.5t217.5 -98.5q126 0 204 76.5t78 194.5q0 152 -86 248t-215 96q-126 0 -204 -77t-78 -198zM430 1315
q0 34 24.5 58t59.5 24q32 0 55 -24t23 -58t-23 -57t-55 -23q-35 0 -59.5 23t-24.5 57z" />
    <glyph glyph-name="uni0122" unicode="&#x122;" horiz-adv-x="1441" 
d="M743 -31q-128 0 -242 53.5t-198 147.5t-132.5 229t-47.5 291q1 231 81.5 411t225.5 280t330 100q60 0 121.5 -15t98.5 -30.5t69.5 -23t49.5 8t23 60.5h29l61 -387h-26q-107 329 -449 329q-223 0 -366.5 -188.5t-143.5 -482.5q0 -186 72 -350t204 -265.5t292 -101.5
q102 0 198.5 34t159.5 107v352q0 167 -195 170v31h463v-31q-91 -3 -134.5 -45t-43.5 -125v-325q-69 -100 -198 -167t-302 -67zM653 -201q0 40 28.5 66t72.5 26q54 0 84 -32.5t30 -81.5q0 -163 -206 -232l-5 17q149 73 160 170q-35 -27 -63 -27q-45 0 -73 26t-28 68z" />
    <glyph glyph-name="uni0123" unicode="&#x123;" horiz-adv-x="1021" 
d="M451 -434q-155 0 -250 68.5t-95 179.5q0 50 14 91t39.5 71t48.5 48t54 37q-70 10 -110.5 57.5t-40.5 114.5q0 57 35.5 107.5t103.5 77.5q-67 46 -103 117.5t-36 160.5q0 156 104 253.5t272 97.5h11q43 -1 88.5 -3.5t79 -5.5t67.5 -6t57.5 -4.5t46 -1t36.5 5t24.5 13
t14.5 22.5t3 35h25l21 -144q-23 0 -60 5.5t-65 10.5t-82 16.5t-74 15.5q87 -43 136.5 -124t49.5 -186q0 -154 -105 -250t-274 -96q-126 0 -215 53q-104 -44 -104 -137q0 -75 58 -111.5t147 -13.5l211 49q171 41 284 -31.5t113 -224.5q0 -166 -146 -267t-384 -101zM172 -166
q0 -97 87.5 -157t229.5 -60q192 0 309 82.5t117 216.5q0 119 -90.5 179t-224.5 28l-213 -53q-59 -13 -94 -11q-54 -40 -87.5 -98t-33.5 -127zM197 731q0 -143 83.5 -241.5t217.5 -98.5q126 0 204 76.5t78 194.5q0 152 -86 248t-215 96q-126 0 -204 -77t-78 -198zM406 1298
q0 163 206 232l4 -17q-148 -73 -159 -170q35 27 63 27q45 0 73 -26t28 -68q0 -40 -28.5 -66t-72.5 -26q-54 0 -84 32.5t-30 81.5z" />
    <glyph glyph-name="Hcircumflex" unicode="&#x124;" horiz-adv-x="1523" 
d="M1442 1421q-106 -7 -147.5 -40.5t-41.5 -110.5v-1090q0 -77 41.5 -110.5t147.5 -40.5v-29h-467v29q105 7 146.5 40.5t41.5 110.5v537h-803v-537q0 -77 41.5 -110.5t147.5 -40.5v-29h-467v29q105 7 146.5 40.5t41.5 110.5v1090q0 77 -41.5 110.5t-146.5 40.5v29h467v-29
q-106 -7 -147.5 -40.5t-41.5 -110.5v-496h803v496q0 77 -41.5 110.5t-146.5 40.5v29h467v-29zM477 1608l215 311h103l215 -311l-21 -15l-246 246l-245 -246z" />
    <glyph glyph-name="hcircumflex" unicode="&#x125;" horiz-adv-x="1148" 
d="M944 160q0 -66 35.5 -94.5t124.5 -36.5v-29h-393v29q89 7 124 36t35 95v547q0 131 -58.5 200.5t-168.5 69.5q-90 0 -173 -56t-175 -167v-594q0 -66 35.5 -94.5t124.5 -36.5v-29h-394v29q89 8 124.5 36.5t35.5 94.5v1110q0 86 -34 106.5t-126 -2.5v29l205 78h29v-682
q178 248 358 248q135 0 213 -91t78 -249v-547zM2 1524l215 311h102l216 -311l-21 -15l-246 246l-245 -246z" />
    <glyph glyph-name="Hbar" unicode="&#x126;" horiz-adv-x="1523" 
d="M1442 1421q-106 -7 -147.5 -40.5t-41.5 -110.5v-226h129v-57h-129v-807q0 -77 41.5 -110.5t147.5 -40.5v-29h-467v29q105 7 146.5 40.5t41.5 110.5v537h-803v-537q0 -77 41.5 -110.5t147.5 -40.5v-29h-467v29q105 7 146.5 40.5t41.5 110.5v807h-166v57h166v226
q0 77 -41.5 110.5t-146.5 40.5v29h467v-29q-106 -7 -147.5 -40.5t-41.5 -110.5v-226h803v226q0 77 -41.5 110.5t-146.5 40.5v29h467v-29zM360 774h803v213h-803v-213z" />
    <glyph glyph-name="hbar" unicode="&#x127;" horiz-adv-x="1148" 
d="M944 160q0 -66 35.5 -94.5t124.5 -36.5v-29h-393v29q89 7 124 36t35 95v547q0 131 -58.5 200.5t-168.5 69.5q-90 0 -173 -56t-175 -167v-594q0 -66 35.5 -94.5t124.5 -36.5v-29h-394v29q89 8 124.5 36.5t35.5 94.5v987h-258v57h258v66q0 86 -34 106.5t-126 -2.5v29
l205 78h29v-277h229v-57h-229v-348q178 248 358 248q135 0 213 -91t78 -249v-547z" />
    <glyph glyph-name="Itilde" unicode="&#x128;" horiz-adv-x="630" 
d="M360 180q0 -77 41.5 -110.5t147.5 -40.5v-29h-467v29q105 7 146.5 40.5t41.5 110.5v1090q0 77 -41.5 110.5t-146.5 40.5v29h467v-29q-106 -7 -147.5 -40.5t-41.5 -110.5v-1090zM68 1622q0 92 37 145.5t100 53.5q29 0 64.5 -19t63 -42.5t61 -42.5t59.5 -19q39 0 62.5 33
t27.5 96l28 -2q1 -92 -35.5 -144.5t-101.5 -52.5q-38 0 -127 61.5t-121 61.5q-39 0 -62.5 -33.5t-27.5 -97.5z" />
    <glyph glyph-name="itilde" unicode="&#x129;" horiz-adv-x="524" 
d="M295 160q0 -66 35.5 -94.5t124.5 -36.5v-29h-394v29q89 8 124.5 36.5t35.5 94.5v676q0 86 -34 106.5t-126 -2.5v29l205 78h29v-887zM4 1188q0 92 37 145t100 53q37 0 82.5 -30.5t89.5 -61t76 -30.5q39 0 62.5 33t27.5 96l29 -2q1 -92 -35.5 -144.5t-101.5 -52.5
q-38 0 -127 61.5t-121 61.5q-39 0 -62.5 -33.5t-27.5 -97.5z" />
    <glyph glyph-name="Imacron" unicode="&#x12a;" horiz-adv-x="630" 
d="M360 180q0 -77 41.5 -110.5t147.5 -40.5v-29h-467v29q105 7 146.5 40.5t41.5 110.5v1090q0 77 -41.5 110.5t-146.5 40.5v29h467v-29q-106 -7 -147.5 -40.5t-41.5 -110.5v-1090zM94 1636v58h449v-58h-449z" />
    <glyph glyph-name="imacron" unicode="&#x12b;" horiz-adv-x="524" 
d="M295 160q0 -66 35.5 -94.5t124.5 -36.5v-29h-394v29q89 8 124.5 36.5t35.5 94.5v676q0 86 -34 106.5t-126 -2.5v29l205 78h29v-887zM31 1202v58h448v-58h-448z" />
    <glyph glyph-name="Ibreve" unicode="&#x12c;" horiz-adv-x="630" 
d="M360 180q0 -77 41.5 -110.5t147.5 -40.5v-29h-467v29q105 7 146.5 40.5t41.5 110.5v1090q0 77 -41.5 110.5t-146.5 40.5v29h467v-29q-106 -7 -147.5 -40.5t-41.5 -110.5v-1090zM102 1915h31q3 -119 50.5 -181.5t135.5 -62.5q89 0 138.5 63t52.5 181h31
q0 -159 -57.5 -243.5t-164.5 -84.5q-106 0 -161.5 84t-55.5 244z" />
    <glyph glyph-name="ibreve" unicode="&#x12d;" horiz-adv-x="524" 
d="M295 160q0 -66 35.5 -94.5t124.5 -36.5v-29h-394v29q89 8 124.5 36.5t35.5 94.5v676q0 86 -34 106.5t-126 -2.5v29l205 78h29v-887zM39 1481h31q3 -119 50.5 -181.5t135.5 -62.5q89 0 138 63t52 181h31q0 -160 -57 -244t-164 -84q-106 0 -161.5 84t-55.5 244z" />
    <glyph glyph-name="Iogonek" unicode="&#x12e;" horiz-adv-x="630" 
d="M360 180q0 -77 41.5 -110.5t147.5 -40.5v-29h-182q-156 -156 -156 -258q0 -98 77.5 -115.5t178.5 47.5l8 -12q-84 -96 -178 -96q-69 0 -112.5 39.5t-43.5 103.5q0 135 178 291h-237v29q105 7 146.5 40.5t41.5 110.5v1090q0 77 -41.5 110.5t-146.5 40.5v29h467v-29
q-106 -7 -147.5 -40.5t-41.5 -110.5v-1090z" />
    <glyph glyph-name="iogonek" unicode="&#x12f;" horiz-adv-x="524" 
d="M295 160q0 -65 33 -94l2 2l6 -7q36 -26 119 -32v-29h-160q-156 -156 -156 -258q0 -98 77.5 -115.5t178.5 47.5l8 -12q-84 -96 -178 -96q-69 0 -112 39.5t-43 103.5q0 135 178 291h-187v29q89 8 124.5 36.5t35.5 94.5v676q0 86 -34 106.5t-126 -2.5v29l205 78h29v-887z
M172 1315q0 34 24.5 58t59.5 24q32 0 55 -24t23 -58t-23 -57t-55 -23q-35 0 -59.5 23t-24.5 57z" />
    <glyph glyph-name="Idotaccent" unicode="&#x130;" horiz-adv-x="630" 
d="M360 180q0 -77 41.5 -110.5t147.5 -40.5v-29h-467v29q105 7 146.5 40.5t41.5 110.5v1090q0 77 -41.5 110.5t-146.5 40.5v29h467v-29q-106 -7 -147.5 -40.5t-41.5 -110.5v-1090zM236 1749q0 34 24 58t59 24q32 0 55 -24t23 -58t-23 -57t-55 -23q-35 0 -59 23t-24 57z" />
    <glyph glyph-name="dotlessi" unicode="&#x131;" horiz-adv-x="524" 
d="M295 160q0 -66 35.5 -94.5t124.5 -36.5v-29h-394v29q89 8 124.5 36.5t35.5 94.5v676q0 86 -34 106.5t-126 -2.5v29l205 78h29v-887z" />
    <glyph glyph-name="IJ" unicode="&#x132;" horiz-adv-x="1554" 
d="M360 180q0 -77 41.5 -110.5t147.5 -40.5v-29h-467v29q105 7 146.5 40.5t41.5 110.5v1090q0 77 -41.5 110.5t-146.5 40.5v29h467v-29q-106 -7 -147.5 -40.5t-41.5 -110.5v-1090zM641 262q-2 34 12.5 54t40.5 20q23 0 37 -17t14 -45q0 -18 -4 -42t-4 -39q0 -81 68 -123.5
t174 -42.5q119 0 187.5 84t68.5 258v901q0 77 -41.5 110.5t-146.5 40.5v29h466v-29q-105 -7 -146.5 -40.5t-41.5 -110.5v-871q0 -215 -93 -322.5t-253 -107.5q-143 0 -237.5 76t-100.5 217z" />
    <glyph glyph-name="ij" unicode="&#x133;" horiz-adv-x="989" 
d="M295 160q0 -66 35.5 -94.5t124.5 -36.5v-29h-394v29q89 8 124.5 36.5t35.5 94.5v676q0 86 -34 106.5t-126 -2.5v29l205 78h29v-887zM172 1315q0 34 24.5 58t59.5 24q32 0 55 -24t23 -58t-23 -57t-55 -23q-35 0 -59.5 23t-24.5 57zM532 -414q118 60 164.5 161t46.5 310
v779q0 86 -33.5 106.5t-125.5 -2.5v29l204 78h29v-959q0 -233 -61.5 -352t-208.5 -170zM688 1317q0 34 24.5 58t59.5 24q32 0 55 -24t23 -58t-23 -57t-55 -23q-35 0 -59.5 23t-24.5 57z" />
    <glyph glyph-name="Jcircumflex" unicode="&#x134;" horiz-adv-x="944" 
d="M369 -31q-143 0 -237.5 76t-100.5 217q-2 34 12.5 54t40.5 20q23 0 37 -17t14 -45q0 -18 -4 -42t-4 -39q0 -81 68 -123.5t174 -42.5q119 0 187.5 84t68.5 258v901q0 77 -41.5 110.5t-147.5 40.5v29h467v-29q-105 -7 -146.5 -40.5t-41.5 -110.5v-871q0 -215 -93 -322.5
t-253 -107.5zM410 1608l215 311h102l215 -311l-20 -15l-246 246l-246 -246z" />
    <glyph glyph-name="jcircumflex" unicode="&#x135;" horiz-adv-x="464" 
d="M59 969l205 78h29v-959q0 -233 -61.5 -352t-208.5 -170l-15 20q118 60 164.5 161t46.5 310v779q0 86 -34 106.5t-126 -2.5v29zM-18 1176l215 311h102l215 -311l-20 -15l-246 246l-246 -246z" />
    <glyph glyph-name="uni0136" unicode="&#x136;" horiz-adv-x="1396" 
d="M1114 0q-11 60 -63 131l-461 674l-230 -250v-375q0 -77 41.5 -110.5t147.5 -40.5v-29h-467v29q105 7 146.5 40.5t41.5 110.5v1090q0 77 -41.5 110.5t-146.5 40.5v29h467v-29q-106 -7 -147.5 -40.5t-41.5 -110.5v-631l605 657q29 33 39.5 52.5t2 35.5t-44 24t-102.5 11v31
h426v-31q-72 -7 -129.5 -34t-114.5 -89l-391 -426l504 -727q35 -53 96.5 -82.5t134.5 -29.5v-31h-272zM614 -201q0 40 28.5 66t72.5 26q54 0 84 -32.5t30 -81.5q0 -163 -206 -232l-5 17q149 73 160 170q-34 -27 -63 -27q-45 0 -73 26t-28 68z" />
    <glyph glyph-name="uni0137" unicode="&#x137;" horiz-adv-x="1081" 
d="M827 182q56 -91 110 -122t136 -31v-29h-258q1 23 -11 51.5t-50 91.5l-269 441l-190 -181v-243q0 -66 35.5 -94.5t124.5 -36.5v-29h-394v29q89 8 124.5 36.5t35.5 94.5v1110q0 86 -34 106.5t-126 -2.5v29l205 78h29v-1000l430 408q40 35 16 65t-100 33v29h369v-29
q-61 -4 -110.5 -32t-119.5 -93l-235 -221zM471 -201q0 40 28 66t72 26q54 0 84.5 -32.5t30.5 -81.5q0 -163 -207 -232l-4 17q149 73 160 170q-35 -27 -64 -27q-45 0 -72.5 26t-27.5 68z" />
    <glyph glyph-name="kgreenlandic" unicode="&#x138;" horiz-adv-x="1089" 
d="M817 0q6 23 -5 51t-50 92l-268 441l-191 -181v-243q0 -66 35.5 -94.5t124.5 -36.5v-29h-393v29q89 7 124 36t35 95v676q0 86 -33.5 106.5t-125.5 -2.5v29l204 78h29v-566l430 408q40 35 16 65t-100 33v29h369v-29q-61 -4 -110.5 -32t-119.5 -93l-235 -221l283 -459
q56 -91 110 -122t135 -31v-29h-264z" />
    <glyph glyph-name="Lacute" unicode="&#x139;" horiz-adv-x="1206" 
d="M1137 358h28l-57 -358h-1026v29q105 7 146.5 40.5t41.5 110.5v1090q0 77 -41.5 110.5t-146.5 40.5v29h467v-29q-106 -7 -147.5 -40.5t-41.5 -110.5v-1063q0 -81 27 -115.5t90 -34.5h393q103 0 169 74t98 227zM307 1591l142 322h102l-215 -322h-29z" />
    <glyph glyph-name="lacute" unicode="&#x13a;" horiz-adv-x="524" 
d="M295 160q0 -66 35.5 -94.5t124.5 -36.5v-29h-394v29q89 8 124.5 36.5t35.5 94.5v1110q0 86 -34 106.5t-126 -2.5v29l205 78h29v-1321zM244 1556l141 322h102l-215 -322h-28z" />
    <glyph glyph-name="uni013B" unicode="&#x13b;" horiz-adv-x="1206" 
d="M1137 358h28l-57 -358h-1026v29q105 7 146.5 40.5t41.5 110.5v1090q0 77 -41.5 110.5t-146.5 40.5v29h467v-29q-106 -7 -147.5 -40.5t-41.5 -110.5v-1063q0 -81 27 -115.5t90 -34.5h393q103 0 169 74t98 227zM453 -201q0 40 28 66t72 26q54 0 84.5 -32.5t30.5 -81.5
q0 -163 -207 -232l-4 17q148 73 159 170q-34 -27 -63 -27q-45 0 -72.5 26t-27.5 68z" />
    <glyph glyph-name="uni013C" unicode="&#x13c;" horiz-adv-x="524" 
d="M295 160q0 -66 35.5 -94.5t124.5 -36.5v-29h-394v29q89 8 124.5 36.5t35.5 94.5v1110q0 86 -34 106.5t-126 -2.5v29l205 78h29v-1321zM150 -201q0 40 28 66t72 26q54 0 84.5 -32.5t30.5 -81.5q0 -163 -207 -232l-4 17q148 73 159 170q-34 -27 -63 -27q-45 0 -72.5 26
t-27.5 68z" />
    <glyph glyph-name="Lcaron" unicode="&#x13d;" horiz-adv-x="1206" 
d="M1137 358h28l-57 -358h-1026v29q105 7 146.5 40.5t41.5 110.5v1090q0 77 -41.5 110.5t-146.5 40.5v29h467v-29q-106 -7 -147.5 -40.5t-41.5 -110.5v-1063q0 -81 27 -115.5t90 -34.5h393q103 0 169 74t98 227zM664 1223l41 411h90l-103 -411h-28z" />
    <glyph glyph-name="lcaron" unicode="&#x13e;" horiz-adv-x="524" 
d="M295 160q0 -66 35.5 -94.5t124.5 -36.5v-29h-394v29q89 8 124.5 36.5t35.5 94.5v1110q0 86 -34 106.5t-126 -2.5v29l205 78h29v-1321zM397 1159l41 412h90l-102 -412h-29z" />
    <glyph glyph-name="Ldot" unicode="&#x13f;" horiz-adv-x="1206" 
d="M1137 358h28l-57 -358h-1026v29q105 7 146.5 40.5t41.5 110.5v1090q0 77 -41.5 110.5t-146.5 40.5v29h467v-29q-106 -7 -147.5 -40.5t-41.5 -110.5v-1063q0 -81 27 -115.5t90 -34.5h393q103 0 169 74t98 227zM745 692q0 46 33.5 79.5t79.5 33.5t79.5 -33.5t33.5 -79.5
q0 -45 -33.5 -77.5t-79.5 -32.5t-79.5 32.5t-33.5 77.5z" />
    <glyph glyph-name="ldot" unicode="&#x140;" horiz-adv-x="671" 
d="M295 160q0 -66 35.5 -94.5t124.5 -36.5v-29h-394v29q89 8 124.5 36.5t35.5 94.5v1110q0 86 -34 106.5t-126 -2.5v29l205 78h29v-1321zM477 692q0 46 33.5 79.5t79.5 33.5t79 -33.5t33 -79.5t-33 -78t-79 -32t-79.5 32.5t-33.5 77.5z" />
    <glyph glyph-name="Lslash" unicode="&#x141;" horiz-adv-x="1185" 
d="M1137 358h28l-57 -358h-1026v29q105 7 146.5 40.5t41.5 110.5v416l-98 -49v47l98 49v627q0 77 -41.5 110.5t-146.5 40.5v29h467v-29q-106 -7 -147.5 -40.5t-41.5 -110.5v-584l496 246v-49l-496 -244v-432q0 -81 27 -115.5t90 -34.5h393q103 0 169 74t98 227z" />
    <glyph glyph-name="lslash" unicode="&#x142;" horiz-adv-x="524" 
d="M295 160q0 -66 35.5 -94.5t124.5 -36.5v-29h-394v29q89 8 124.5 36.5t35.5 94.5v536l-160 -80v48l160 79v527q0 86 -34 106.5t-126 -2.5v29l205 78h29v-701l160 80v-45l-160 -80v-575z" />
    <glyph glyph-name="Nacute" unicode="&#x143;" horiz-adv-x="1499" 
d="M987 1450h430v-29q-105 -7 -146.5 -40.5t-41.5 -110.5v-1270h-55l-846 1262v-1082q0 -77 39.5 -110.5t144.5 -40.5v-29h-430v29q105 7 146.5 40.5t41.5 110.5v1092q0 80 -41 114t-143 35v29h223l862 -1286v1106q0 77 -39.5 110.5t-144.5 40.5v29zM721 1591l141 322h103
l-215 -322h-29z" />
    <glyph glyph-name="nacute" unicode="&#x144;" horiz-adv-x="1148" 
d="M944 160q0 -66 35.5 -94.5t124.5 -36.5v-29h-393v29q89 7 124 36t35 95v547q0 131 -58.5 200.5t-168.5 69.5q-90 0 -173 -56t-175 -167v-594q0 -66 35.5 -94.5t124.5 -36.5v-29h-394v29q89 8 124.5 36.5t35.5 94.5v676q0 86 -34 106.5t-126 -2.5v29l205 78h29v-248
q178 248 358 248q135 0 213 -91t78 -249v-547zM573 1157l142 322h102l-215 -322h-29z" />
    <glyph glyph-name="uni0145" unicode="&#x145;" horiz-adv-x="1499" 
d="M987 1450h430v-29q-105 -7 -146.5 -40.5t-41.5 -110.5v-1270h-55l-846 1262v-1082q0 -77 39.5 -110.5t144.5 -40.5v-29h-430v29q105 7 146.5 40.5t41.5 110.5v1092q0 80 -41 114t-143 35v29h223l862 -1286v1106q0 77 -39.5 110.5t-144.5 40.5v29zM686 -201q0 40 28 66
t72 26q54 0 84.5 -32.5t30.5 -81.5q0 -163 -207 -232l-4 17q149 73 160 170q-34 -27 -64 -27q-45 0 -72.5 26t-27.5 68z" />
    <glyph glyph-name="uni0146" unicode="&#x146;" horiz-adv-x="1148" 
d="M944 160q0 -66 35.5 -94.5t124.5 -36.5v-29h-393v29q89 7 124 36t35 95v547q0 131 -58.5 200.5t-168.5 69.5q-90 0 -173 -56t-175 -167v-594q0 -66 35.5 -94.5t124.5 -36.5v-29h-394v29q89 8 124.5 36.5t35.5 94.5v676q0 86 -34 106.5t-126 -2.5v29l205 78h29v-248
q178 248 358 248q135 0 213 -91t78 -249v-547zM473 -201q0 40 28 66t72 26q54 0 84.5 -32.5t30.5 -81.5q0 -163 -207 -232l-4 17q149 73 160 170q-35 -27 -64 -27q-45 0 -72.5 26t-27.5 68z" />
    <glyph glyph-name="Ncaron" unicode="&#x147;" horiz-adv-x="1499" 
d="M987 1450h430v-29q-105 -7 -146.5 -40.5t-41.5 -110.5v-1270h-55l-846 1262v-1082q0 -77 39.5 -110.5t144.5 -40.5v-29h-430v29q105 7 146.5 40.5t41.5 110.5v1092q0 80 -41 114t-143 35v29h223l862 -1286v1106q0 77 -39.5 110.5t-144.5 40.5v29zM465 1905l20 14
l246 -246l246 246l20 -14l-215 -312h-102z" />
    <glyph glyph-name="ncaron" unicode="&#x148;" horiz-adv-x="1148" 
d="M944 160q0 -66 35.5 -94.5t124.5 -36.5v-29h-393v29q89 7 124 36t35 95v547q0 131 -58.5 200.5t-168.5 69.5q-90 0 -173 -56t-175 -167v-594q0 -66 35.5 -94.5t124.5 -36.5v-29h-394v29q89 8 124.5 36.5t35.5 94.5v676q0 86 -34 106.5t-126 -2.5v29l205 78h29v-248
q178 248 358 248q135 0 213 -91t78 -249v-547zM317 1470l21 15l246 -246l245 246l21 -15l-215 -311h-103z" />
    <glyph glyph-name="napostrophe" unicode="&#x149;" horiz-adv-x="1148" 
d="M944 160q0 -66 35.5 -94.5t124.5 -36.5v-29h-393v29q89 7 124 36t35 95v547q0 131 -58.5 200.5t-168.5 69.5q-90 0 -173 -56t-175 -167v-594q0 -66 35.5 -94.5t124.5 -36.5v-29h-394v29q89 8 124.5 36.5t35.5 94.5v676q0 86 -34 106.5t-126 -2.5v29l205 78h29v-248
q178 248 358 248q135 0 213 -91t78 -249v-547zM446 1499q0 46 29 77.5t72 31.5q54 0 83 -39t29 -101q0 -198 -202 -282l-6 18q155 92 159 221q-25 -20 -61 -20q-44 0 -73.5 26.5t-29.5 67.5z" />
    <glyph glyph-name="Eng" unicode="&#x14a;" horiz-adv-x="1499" 
d="M987 1452h430v-29q-105 -7 -146.5 -40.5t-41.5 -110.5v-1295q0 -193 -93.5 -302t-226.5 -109q-84 0 -143 25t-59 67q0 20 14 32.5t37 12.5q17 0 43 -20.5t58 -40.5t65 -19q31 1 63.5 12t66 38t59 66.5t42 103t16.5 141.5v18l-843 1260v-1082q0 -77 39.5 -110.5
t144.5 -40.5v-29h-430v29q105 7 146.5 40.5t41.5 110.5v1092q0 80 -41 114t-143 35v29h223l862 -1303v1125q0 77 -39.5 110.5t-144.5 40.5v29z" />
    <glyph glyph-name="eng" unicode="&#x14b;" horiz-adv-x="1116" 
d="M944 156q0 -174 -78 -321.5t-217 -229.5l-10 14q126 107 178.5 222t52.5 304v553q0 129 -66 196t-183 67q-90 0 -162.5 -48.5t-163.5 -158.5v-594q0 -66 35.5 -94.5t124.5 -36.5v-29h-394v29q89 8 124.5 36.5t35.5 94.5v676q0 86 -34 106.5t-126 -2.5v29l205 78h29v-248
q97 135 181.5 191.5t178.5 56.5q135 0 212 -89t77 -243v-559z" />
    <glyph glyph-name="Omacron" unicode="&#x14c;" horiz-adv-x="1544" 
d="M768 -31q-188 0 -335 91.5t-228.5 256.5t-81.5 377q0 230 82.5 409.5t232 278.5t340.5 99q188 0 334.5 -91.5t227.5 -256.5t81 -377q0 -229 -82 -408.5t-231 -279t-340 -99.5zM229 725q6 -208 80 -368t203 -247t291 -83q236 6 377.5 199t134.5 499q-6 210 -80.5 370
t-202 245.5t-289.5 82.5q-157 -3 -276 -92t-181.5 -247t-56.5 -359zM549 1636v58h448v-58h-448z" />
    <glyph glyph-name="omacron" unicode="&#x14d;" horiz-adv-x="1048" 
d="M512 -31q-192 0 -311 142.5t-119 373.5q0 251 125.5 406.5t327.5 155.5q193 0 312.5 -143t119.5 -374q0 -253 -125.5 -407t-329.5 -154zM168 573q0 -155 50 -280t137.5 -195.5t195.5 -70.5q141 0 235.5 118.5t94.5 296.5q0 236 -109.5 391.5t-275.5 155.5
q-141 0 -234.5 -118t-93.5 -298zM299 1202v58h449v-58h-449z" />
    <glyph glyph-name="Obreve" unicode="&#x14e;" horiz-adv-x="1544" 
d="M768 -31q-188 0 -335 91.5t-228.5 256.5t-81.5 377q0 230 82.5 409.5t232 278.5t340.5 99q188 0 334.5 -91.5t227.5 -256.5t81 -377q0 -229 -82 -408.5t-231 -279t-340 -99.5zM229 725q6 -208 80 -368t203 -247t291 -83q236 6 377.5 199t134.5 499q-6 210 -80.5 370
t-202 245.5t-289.5 82.5q-157 -3 -276 -92t-181.5 -247t-56.5 -359zM557 1915h31q3 -119 50.5 -181.5t135.5 -62.5q89 0 138.5 63t52.5 181h30q0 -160 -57 -244t-164 -84q-106 0 -161.5 84t-55.5 244z" />
    <glyph glyph-name="obreve" unicode="&#x14f;" horiz-adv-x="1048" 
d="M512 -31q-192 0 -311 142.5t-119 373.5q0 251 125.5 406.5t327.5 155.5q193 0 312.5 -143t119.5 -374q0 -253 -125.5 -407t-329.5 -154zM168 573q0 -155 50 -280t137.5 -195.5t195.5 -70.5q141 0 235.5 118.5t94.5 296.5q0 236 -109.5 391.5t-275.5 155.5
q-141 0 -234.5 -118t-93.5 -298zM307 1481h31q3 -119 50.5 -181.5t135.5 -62.5q89 0 138.5 63t52.5 181h30q0 -160 -57 -244t-164 -84q-106 0 -161.5 84t-55.5 244z" />
    <glyph glyph-name="Ohungarumlaut" unicode="&#x150;" horiz-adv-x="1544" 
d="M768 -31q-188 0 -335 91.5t-228.5 256.5t-81.5 377q0 230 82.5 409.5t232 278.5t340.5 99q188 0 334.5 -91.5t227.5 -256.5t81 -377q0 -229 -82 -408.5t-231 -279t-340 -99.5zM229 725q6 -208 80 -368t203 -247t291 -83q236 6 377.5 199t134.5 499q-6 210 -80.5 370
t-202 245.5t-289.5 82.5q-157 -3 -276 -92t-181.5 -247t-56.5 -359zM645 1589l148 330h84l-203 -330h-29zM817 1589l148 330h86l-203 -330h-31z" />
    <glyph glyph-name="ohungarumlaut" unicode="&#x151;" horiz-adv-x="1048" 
d="M512 -31q-192 0 -311 142.5t-119 373.5q0 251 125.5 406.5t327.5 155.5q193 0 312.5 -143t119.5 -374q0 -253 -125.5 -407t-329.5 -154zM168 573q0 -155 50 -280t137.5 -195.5t195.5 -70.5q141 0 235.5 118.5t94.5 296.5q0 236 -109.5 391.5t-275.5 155.5
q-141 0 -234.5 -118t-93.5 -298zM395 1155l148 330h84l-203 -330h-29zM567 1155l148 330h86l-203 -330h-31z" />
    <glyph glyph-name="OE" unicode="&#x152;" horiz-adv-x="1968" 
d="M1886 358h29l-57 -358h-893q-95 -31 -197 -31q-188 0 -335 91.5t-228.5 256.5t-81.5 377q0 230 82.5 409.5t232 278.5t340.5 99q108 0 203 -31h741q68 0 76 31h29l61 -387h-28q-34 160 -100.5 229.5t-186.5 69.5h-483v-621h323q89 0 119.5 44t21.5 157h29l72 -459h-29
q-30 111 -73.5 156t-116.5 45h-346v-508q0 -82 26.5 -116t89.5 -34h414q103 0 168.5 74t97.5 227zM229 725q6 -208 80 -368t203 -247t291 -83h8v2q105 7 146.5 40.5t41.5 110.5v1090q0 78 -43 110q-100 46 -213 43q-157 -3 -276 -92t-181.5 -247t-56.5 -359z" />
    <glyph glyph-name="oe" unicode="&#x153;" horiz-adv-x="1757" 
d="M82 487q0 250 126 405t327 155q143 0 245.5 -81t149.5 -233q54 156 154.5 235t242.5 79q108 0 188 -63t114 -161t20 -207h-678q-4 -62 -4 -100q0 -205 107.5 -332t293.5 -127q88 0 160 59t100 154l27 -6q-23 -132 -113 -212.5t-215 -80.5q-149 0 -254.5 82t-152.5 236
q-54 -156 -158.5 -237t-249.5 -81q-192 0 -311 142.5t-119 373.5zM168 573q0 -234 109.5 -389t273.5 -155q141 0 235.5 118.5t94.5 296.5q0 154 -50 279t-138 195.5t-197 70.5q-141 0 -234.5 -118t-93.5 -298zM977 657h590q6 147 -70.5 239.5t-202.5 92.5q-134 0 -213.5 -85
t-103.5 -247z" />
    <glyph glyph-name="Racute" unicode="&#x154;" horiz-adv-x="1286" 
d="M82 29q105 2 146.5 37.5t41.5 140.5v1038q0 71 -20.5 109t-59 52t-108.5 15v29h516q228 0 368 -109.5t140 -289.5q0 -162 -114 -269.5t-304 -130.5l408 -532q30 -39 79 -63.5t101 -24.5v-31h-223q-2 8 -6 17t-7.5 15.5t-10 16t-10 14t-12.5 15.5t-12 16l-417 553h-218
v-440q0 -57 11.5 -93t38 -54t57.5 -24t82 -7v-29h-467v29zM360 705h238q180 0 290.5 95.5t110.5 250.5q0 154 -110.5 248t-290.5 94h-238v-688zM612 1591l142 322h102l-215 -322h-29z" />
    <glyph glyph-name="racute" unicode="&#x155;" horiz-adv-x="686" 
d="M537 1047q68 0 103.5 -25.5t35.5 -60.5q0 -21 -13.5 -38.5t-35.5 -17.5q-21 0 -36.5 10.5t-24 22.5t-27 22.5t-45.5 10.5q-79 0 -139 -82.5t-60 -202.5v-528q0 -37 14.5 -61.5t46.5 -38t66.5 -19.5t91.5 -10v-29h-453v29q86 6 123 36t37 93v678q0 86 -34 106.5t-126 -2.5
v29l205 78h29v-224q31 106 95 165t147 59zM385 1157l141 322h103l-215 -322h-29z" />
    <glyph glyph-name="uni0156" unicode="&#x156;" horiz-adv-x="1286" 
d="M82 29q105 2 146.5 37.5t41.5 140.5v1038q0 71 -20.5 109t-59 52t-108.5 15v29h516q228 0 368 -109.5t140 -289.5q0 -162 -114 -269.5t-304 -130.5l408 -532q30 -39 79 -63.5t101 -24.5v-31h-223q-2 8 -6 17t-7.5 15.5t-10 16t-10 14t-12.5 15.5t-12 16l-417 553h-218
v-440q0 -57 11.5 -93t38 -54t57.5 -24t82 -7v-29h-467v29zM360 705h238q180 0 290.5 95.5t110.5 250.5q0 154 -110.5 248t-290.5 94h-238v-688zM618 -201q0 40 28.5 66t72.5 26q54 0 84.5 -32.5t30.5 -81.5q0 -163 -207 -232l-4 17q148 73 159 170q-34 -27 -63 -27
q-45 0 -73 26t-28 68z" />
    <glyph glyph-name="uni0157" unicode="&#x157;" horiz-adv-x="686" 
d="M537 1047q68 0 103.5 -25.5t35.5 -60.5q0 -21 -13.5 -38.5t-35.5 -17.5q-21 0 -36.5 10.5t-24 22.5t-27 22.5t-45.5 10.5q-79 0 -139 -82.5t-60 -202.5v-528q0 -37 14.5 -61.5t46.5 -38t66.5 -19.5t91.5 -10v-29h-453v29q86 6 123 36t37 93v678q0 86 -34 106.5t-126 -2.5
v29l205 78h29v-224q31 106 95 165t147 59zM162 -201q0 40 28 66t72 26q54 0 84.5 -32.5t30.5 -81.5q0 -163 -207 -232l-4 17q149 73 160 170q-34 -27 -64 -27q-45 0 -72.5 26t-27.5 68z" />
    <glyph glyph-name="Rcaron" unicode="&#x158;" horiz-adv-x="1286" 
d="M82 29q105 2 146.5 37.5t41.5 140.5v1038q0 71 -20.5 109t-59 52t-108.5 15v29h516q228 0 368 -109.5t140 -289.5q0 -162 -114 -269.5t-304 -130.5l408 -532q30 -39 79 -63.5t101 -24.5v-31h-223q-2 8 -6 17t-7.5 15.5t-10 16t-10 14t-12.5 15.5t-12 16l-417 553h-218
v-440q0 -57 11.5 -93t38 -54t57.5 -24t82 -7v-29h-467v29zM356 1905l21 14l246 -246l245 246l21 -14l-215 -312h-103zM360 705h238q180 0 290.5 95.5t110.5 250.5q0 154 -110.5 248t-290.5 94h-238v-688z" />
    <glyph glyph-name="rcaron" unicode="&#x159;" horiz-adv-x="686" 
d="M537 1047q68 0 103.5 -25.5t35.5 -60.5q0 -21 -13.5 -38.5t-35.5 -17.5q-21 0 -36.5 10.5t-24 22.5t-27 22.5t-45.5 10.5q-79 0 -139 -82.5t-60 -202.5v-528q0 -37 14.5 -61.5t46.5 -38t66.5 -19.5t91.5 -10v-29h-453v29q86 6 123 36t37 93v678q0 86 -34 106.5t-126 -2.5
v29l205 78h29v-224q31 106 95 165t147 59zM129 1470l21 15l245 -246l246 246l21 -15l-216 -311h-102z" />
    <glyph glyph-name="Sacute" unicode="&#x15a;" horiz-adv-x="1087" 
d="M571 -31q-62 0 -117.5 10.5t-90 24.5t-64 27.5t-46 21t-30 3.5t-21.5 -24t-16 -63h-28l-68 434h29q46 -176 165 -274t287 -98q143 0 235.5 83.5t92.5 213.5q0 76 -26 136t-70 99t-101 69.5t-120 55t-126 49.5t-120 58t-101 74.5t-70 105.5t-26 145q0 166 99.5 263.5
t269.5 97.5q66 0 127 -15.5t93.5 -31.5t59.5 -23.5t40 7.5t20 63h29l61 -387h-29q-34 162 -141.5 245.5t-259.5 83.5q-135 0 -214 -73t-79 -197q0 -69 26.5 -123t71.5 -90.5t103 -66t122 -55t128 -51.5t122 -61t103 -79t71.5 -110t26.5 -148q0 -175 -117.5 -287.5
t-300.5 -112.5zM526 1591l142 322h102l-215 -322h-29z" />
    <glyph glyph-name="sacute" unicode="&#x15b;" horiz-adv-x="821" 
d="M426 -29q-47 0 -96.5 14.5t-80 29t-55.5 21.5t-35.5 -8t-8.5 -59h-29l-49 312h28q38 -120 129 -186t197 -66q111 0 180.5 58t69.5 151q0 60 -32.5 106t-85 75t-115.5 53.5t-126 51t-115.5 58t-85 83t-32.5 119.5q0 119 82 191t211 72q49 0 98.5 -14.5t77.5 -29
t51.5 -21.5t33 7.5t9.5 57.5h29l45 -289h-29q-40 110 -121 170.5t-194 60.5q-96 0 -157.5 -52.5t-61.5 -135.5q0 -56 32.5 -97t85 -66.5t115.5 -48t126 -48.5t115.5 -59t85 -88.5t32.5 -129.5q0 -131 -89 -212t-235 -81zM397 1157l142 322h102l-215 -322h-29z" />
    <glyph glyph-name="Scircumflex" unicode="&#x15c;" horiz-adv-x="1087" 
d="M571 -31q-62 0 -117.5 10.5t-90 24.5t-64 27.5t-46 21t-30 3.5t-21.5 -24t-16 -63h-28l-68 434h29q46 -176 165 -274t287 -98q143 0 235.5 83.5t92.5 213.5q0 76 -26 136t-70 99t-101 69.5t-120 55t-126 49.5t-120 58t-101 74.5t-70 105.5t-26 145q0 166 99.5 263.5
t269.5 97.5q66 0 127 -15.5t93.5 -31.5t59.5 -23.5t40 7.5t20 63h29l61 -387h-29q-34 162 -141.5 245.5t-259.5 83.5q-135 0 -214 -73t-79 -197q0 -69 26.5 -123t71.5 -90.5t103 -66t122 -55t128 -51.5t122 -61t103 -79t71.5 -110t26.5 -148q0 -175 -117.5 -287.5
t-300.5 -112.5zM270 1608l215 311h103l215 -311l-21 -15l-245 246l-246 -246z" />
    <glyph glyph-name="scircumflex" unicode="&#x15d;" horiz-adv-x="821" 
d="M426 -29q-47 0 -96.5 14.5t-80 29t-55.5 21.5t-35.5 -8t-8.5 -59h-29l-49 312h28q38 -120 129 -186t197 -66q111 0 180.5 58t69.5 151q0 60 -32.5 106t-85 75t-115.5 53.5t-126 51t-115.5 58t-85 83t-32.5 119.5q0 119 82 191t211 72q49 0 98.5 -14.5t77.5 -29
t51.5 -21.5t33 7.5t9.5 57.5h29l45 -289h-29q-40 110 -121 170.5t-194 60.5q-96 0 -157.5 -52.5t-61.5 -135.5q0 -56 32.5 -97t85 -66.5t115.5 -48t126 -48.5t115.5 -59t85 -88.5t32.5 -129.5q0 -131 -89 -212t-235 -81zM141 1174l215 311h103l215 -311l-21 -15l-245 246
l-246 -246z" />
    <glyph glyph-name="Scedilla" unicode="&#x15e;" horiz-adv-x="1087" 
d="M385 -395q79 -15 134.5 15t55.5 87q0 39 -32 67.5t-92 37.5l110 157q-69 1 -130 15t-95 30.5t-62.5 30t-43 13t-25 -20t-19.5 -68.5h-28l-68 434h29q46 -176 165 -274t287 -98q143 0 235.5 83.5t92.5 213.5q0 76 -26 136t-70 99t-101 69.5t-120 55t-126 49.5t-120 58
t-101 74.5t-70 105.5t-26 145q0 166 99.5 263.5t269.5 97.5q66 0 127 -15.5t93.5 -31.5t59.5 -23.5t40 7.5t20 63h29l61 -387h-29q-34 162 -141.5 245.5t-259.5 83.5q-135 0 -214 -73t-79 -197q0 -69 26.5 -123t71.5 -90.5t103 -66t122 -55t128 -51.5t122 -61t103 -79
t71.5 -110t26.5 -148q0 -169 -111 -280.5t-284 -119.5l-53 -86q52 -12 84 -53.5t32 -95.5q0 -91 -70.5 -134t-201.5 -12v17z" />
    <glyph glyph-name="scedilla" unicode="&#x15f;" horiz-adv-x="821" 
d="M244 -395q79 -15 134.5 15t55.5 87q0 39 -32 67.5t-93 37.5l113 159q-35 0 -70.5 8.5t-61.5 19t-50.5 20.5t-40.5 15t-28 2t-17 -19t-4 -48h-29l-49 312h28q38 -120 129 -186t197 -66q111 0 180.5 58t69.5 151q0 60 -32.5 106t-85 75t-115.5 53.5t-126 51t-115.5 58
t-85 83t-32.5 119.5q0 119 82 191t211 72q49 0 98.5 -14.5t77.5 -29t51.5 -21.5t33 7.5t9.5 57.5h29l45 -289h-29q-40 110 -121 170.5t-194 60.5q-96 0 -157.5 -52.5t-61.5 -135.5q0 -56 32.5 -97t85 -66.5t115.5 -48t126 -48.5t115.5 -59t85 -88.5t32.5 -129.5
q0 -124 -80.5 -204t-214.5 -89l-56 -88q52 -12 84.5 -53.5t32.5 -95.5q0 -91 -70.5 -134t-201.5 -12v17z" />
    <glyph glyph-name="Scaron" unicode="&#x160;" horiz-adv-x="1087" 
d="M571 -31q-62 0 -117.5 10.5t-90 24.5t-64 27.5t-46 21t-30 3.5t-21.5 -24t-16 -63h-28l-68 434h29q46 -176 165 -274t287 -98q143 0 235.5 83.5t92.5 213.5q0 76 -26 136t-70 99t-101 69.5t-120 55t-126 49.5t-120 58t-101 74.5t-70 105.5t-26 145q0 166 99.5 263.5
t269.5 97.5q66 0 127 -15.5t93.5 -31.5t59.5 -23.5t40 7.5t20 63h29l61 -387h-29q-34 162 -141.5 245.5t-259.5 83.5q-135 0 -214 -73t-79 -197q0 -69 26.5 -123t71.5 -90.5t103 -66t122 -55t128 -51.5t122 -61t103 -79t71.5 -110t26.5 -148q0 -175 -117.5 -287.5
t-300.5 -112.5zM270 1905l21 14l246 -246l245 246l21 -14l-215 -312h-103z" />
    <glyph glyph-name="scaron" unicode="&#x161;" horiz-adv-x="821" 
d="M426 -29q-47 0 -96.5 14.5t-80 29t-55.5 21.5t-35.5 -8t-8.5 -59h-29l-49 312h28q38 -120 129 -186t197 -66q111 0 180.5 58t69.5 151q0 60 -32.5 106t-85 75t-115.5 53.5t-126 51t-115.5 58t-85 83t-32.5 119.5q0 119 82 191t211 72q49 0 98.5 -14.5t77.5 -29
t51.5 -21.5t33 7.5t9.5 57.5h29l45 -289h-29q-40 110 -121 170.5t-194 60.5q-96 0 -157.5 -52.5t-61.5 -135.5q0 -56 32.5 -97t85 -66.5t115.5 -48t126 -48.5t115.5 -59t85 -88.5t32.5 -129.5q0 -131 -89 -212t-235 -81zM141 1470l21 15l246 -246l245 246l21 -15l-215 -311
h-103z" />
    <glyph glyph-name="uni0162" unicode="&#x162;" horiz-adv-x="1249" 
d="M391 29q53 1 85.5 8t57.5 25.5t35.5 53t10.5 89.5v1188h-244q-120 0 -186.5 -69.5t-100.5 -229.5h-29l62 387h29q8 -31 75 -31h877q68 0 76 31h28l62 -387h-29q-34 160 -100.5 229.5t-186.5 69.5h-243v-1188q0 -55 10.5 -89.5t35 -53t57 -25.5t85.5 -8v-29h-162l-71 -117
q52 -12 84 -53.5t32 -95.5q0 -91 -70.5 -134t-201.5 -12v17q79 -15 134.5 15t55.5 87q0 39 -32 67.5t-92 37.5l133 188h-277v29z" />
    <glyph glyph-name="uni0163" unicode="&#x163;" horiz-adv-x="636" 
d="M586 94q-4 -24 -32.5 -58.5t-70.5 -51.5l-61 -101q52 -12 84.5 -53.5t32.5 -95.5q0 -91 -71 -134t-202 -12v17q79 -15 135 15t56 87q0 39 -32 67.5t-93 37.5l112 159q-8 -2 -26 -2q-103 0 -159 70.5t-56 204.5v714h-172v29q103 13 153 77t64 198h28v-246h304v-58h-304
v-714q0 -102 46.5 -158.5t130.5 -56.5q16 0 31 4t24 8t21 14t15.5 14t14.5 17t12 14z" />
    <glyph glyph-name="Tcaron" unicode="&#x164;" horiz-adv-x="1249" 
d="M391 29q53 1 85.5 8t57.5 25.5t35.5 53t10.5 89.5v1188h-244q-120 0 -186.5 -69.5t-100.5 -229.5h-29l62 387h29q8 -31 75 -31h877q68 0 76 31h28l62 -387h-29q-34 160 -100.5 229.5t-186.5 69.5h-243v-1188q0 -55 10.5 -89.5t35 -53t57 -25.5t85.5 -8v-29h-467v29z
M358 1905l21 14l246 -246l245 246l21 -14l-215 -312h-103z" />
    <glyph glyph-name="tcaron" unicode="&#x165;" horiz-adv-x="636" 
d="M586 94q-4 -35 -52.5 -80t-115.5 -45q-103 0 -159 70.5t-56 204.5v714h-172v29q103 13 153 77t64 198h28v-246h304v-58h-304v-714q0 -102 46.5 -158.5t130.5 -56.5q16 0 31 4t24 8t21 14t15.5 14t14.5 17t12 14zM379 1159l41 412h90l-102 -412h-29z" />
    <glyph glyph-name="Tbar" unicode="&#x166;" horiz-adv-x="1249" 
d="M391 29q53 1 85.5 8t57.5 25.5t35.5 53t10.5 89.5v489h-238v58h238v641h-244q-120 0 -186.5 -69.5t-100.5 -229.5h-29l62 387h29q8 -31 75 -31h877q68 0 76 31h28l62 -387h-29q-34 160 -100.5 229.5t-186.5 69.5h-243v-641h233v-58h-233v-489q0 -55 10.5 -89.5t35 -53
t57 -25.5t85.5 -8v-29h-467v29z" />
    <glyph glyph-name="tbar" unicode="&#x167;" horiz-adv-x="636" 
d="M586 94q-4 -35 -52.5 -80t-115.5 -45q-103 0 -159 70.5t-56 204.5v323h-172v58h172v333h-172v29q103 13 153 77t64 198h28v-246h304v-58h-304v-333h316v-58h-316v-323q0 -102 46.5 -158.5t130.5 -56.5q16 0 31 4t24 8t21 14t15.5 14t14.5 17t12 14z" />
    <glyph glyph-name="Utilde" unicode="&#x168;" horiz-adv-x="1452" 
d="M977 1421v29h434v-29q-105 -7 -146.5 -40.5t-41.5 -110.5v-754q0 -253 -132 -400t-358 -147q-233 0 -368.5 147t-135.5 400v754q0 77 -41.5 110.5t-146.5 40.5v29h467v-29q-106 -7 -147.5 -40.5t-41.5 -110.5v-754q0 -221 121 -355t318 -134q192 0 299.5 132.5
t107.5 356.5v754q0 77 -41.5 110.5t-146.5 40.5zM494 1622q0 92 37 145.5t100 53.5q29 0 64.5 -19t63 -42.5t61 -42.5t59.5 -19q39 0 62.5 33t27.5 96l28 -2q1 -92 -35.5 -144.5t-101.5 -52.5q-38 0 -127 61.5t-121 61.5q-39 0 -62.5 -33.5t-27.5 -97.5z" />
    <glyph glyph-name="utilde" unicode="&#x169;" horiz-adv-x="1126" 
d="M958 -31q-51 0 -80.5 35t-29.5 98v113q-95 -133 -180.5 -189.5t-178.5 -56.5q-135 0 -211.5 89t-76.5 243v535q0 86 -34 106.5t-126 -2.5v29l205 78h28v-730q0 -129 66.5 -195.5t183.5 -66.5q89 0 161.5 48t162.5 157v576q0 86 -34 106.5t-126 -2.5v29l205 78h29v-938
q0 -34 17 -54t44 -20q43 0 78 61l24 -10q-29 -62 -63.5 -89.5t-63.5 -27.5zM313 1188q0 92 37.5 145t100.5 53q29 0 64.5 -19t63 -42t60.5 -42t59 -19q39 0 62.5 33t27.5 96l29 -2q1 -92 -35.5 -144.5t-101.5 -52.5q-38 0 -127 61.5t-121 61.5q-39 0 -62.5 -33.5
t-27.5 -97.5z" />
    <glyph glyph-name="Umacron" unicode="&#x16a;" horiz-adv-x="1452" 
d="M977 1421v29h434v-29q-105 -7 -146.5 -40.5t-41.5 -110.5v-754q0 -253 -132 -400t-358 -147q-233 0 -368.5 147t-135.5 400v754q0 77 -41.5 110.5t-146.5 40.5v29h467v-29q-106 -7 -147.5 -40.5t-41.5 -110.5v-754q0 -221 121 -355t318 -134q192 0 299.5 132.5
t107.5 356.5v754q0 77 -41.5 110.5t-146.5 40.5zM520 1636v58h449v-58h-449z" />
    <glyph glyph-name="umacron" unicode="&#x16b;" horiz-adv-x="1126" 
d="M958 -31q-51 0 -80.5 35t-29.5 98v113q-95 -133 -180.5 -189.5t-178.5 -56.5q-135 0 -211.5 89t-76.5 243v535q0 86 -34 106.5t-126 -2.5v29l205 78h28v-730q0 -129 66.5 -195.5t183.5 -66.5q89 0 161.5 48t162.5 157v576q0 86 -34 106.5t-126 -2.5v29l205 78h29v-938
q0 -34 17 -54t44 -20q43 0 78 61l24 -10q-29 -62 -63.5 -89.5t-63.5 -27.5zM340 1202v58h448v-58h-448z" />
    <glyph glyph-name="Ubreve" unicode="&#x16c;" horiz-adv-x="1452" 
d="M977 1421v29h434v-29q-105 -7 -146.5 -40.5t-41.5 -110.5v-754q0 -253 -132 -400t-358 -147q-233 0 -368.5 147t-135.5 400v754q0 77 -41.5 110.5t-146.5 40.5v29h467v-29q-106 -7 -147.5 -40.5t-41.5 -110.5v-754q0 -221 121 -355t318 -134q192 0 299.5 132.5
t107.5 356.5v754q0 77 -41.5 110.5t-146.5 40.5zM528 1915h31q3 -119 50.5 -181.5t135.5 -62.5q89 0 138.5 63t52.5 181h31q0 -159 -57.5 -243.5t-164.5 -84.5q-106 0 -161.5 84t-55.5 244z" />
    <glyph glyph-name="ubreve" unicode="&#x16d;" horiz-adv-x="1126" 
d="M958 -31q-51 0 -80.5 35t-29.5 98v113q-95 -133 -180.5 -189.5t-178.5 -56.5q-135 0 -211.5 89t-76.5 243v535q0 86 -34 106.5t-126 -2.5v29l205 78h28v-730q0 -129 66.5 -195.5t183.5 -66.5q89 0 161.5 48t162.5 157v576q0 86 -34 106.5t-126 -2.5v29l205 78h29v-938
q0 -34 17 -54t44 -20q43 0 78 61l24 -10q-29 -62 -63.5 -89.5t-63.5 -27.5zM348 1481h31q3 -119 50.5 -181.5t135.5 -62.5q89 0 138.5 63t52.5 181h30q0 -160 -57 -244t-164 -84q-106 0 -161.5 84t-55.5 244z" />
    <glyph glyph-name="Uring" unicode="&#x16e;" horiz-adv-x="1452" 
d="M977 1421v29h434v-29q-105 -7 -146.5 -40.5t-41.5 -110.5v-754q0 -253 -132 -400t-358 -147q-233 0 -368.5 147t-135.5 400v754q0 77 -41.5 110.5t-146.5 40.5v29h467v-29q-106 -7 -147.5 -40.5t-41.5 -110.5v-754q0 -221 121 -355t318 -134q192 0 299.5 132.5
t107.5 356.5v754q0 77 -41.5 110.5t-146.5 40.5zM567 1745q0 73 50.5 121.5t127.5 48.5q75 0 126 -48.5t51 -121.5q0 -72 -51 -121t-126 -49q-76 0 -127 49t-51 121zM629 1747q0 -52 32.5 -86.5t83.5 -34.5t84 35t33 86q0 52 -33 85.5t-84 33.5t-83.5 -33.5t-32.5 -85.5z
" />
    <glyph glyph-name="uring" unicode="&#x16f;" horiz-adv-x="1126" 
d="M958 -31q-51 0 -80.5 35t-29.5 98v113q-95 -133 -180.5 -189.5t-178.5 -56.5q-135 0 -211.5 89t-76.5 243v535q0 86 -34 106.5t-126 -2.5v29l205 78h28v-730q0 -129 66.5 -195.5t183.5 -66.5q89 0 161.5 48t162.5 157v576q0 86 -34 106.5t-126 -2.5v29l205 78h29v-938
q0 -34 17 -54t44 -20q43 0 78 61l24 -10q-29 -62 -63.5 -89.5t-63.5 -27.5zM387 1311q0 73 50.5 121.5t127.5 48.5q75 0 125.5 -48.5t50.5 -121.5q0 -72 -50.5 -121t-125.5 -49q-76 0 -127 49t-51 121zM449 1313q0 -52 32.5 -86.5t83.5 -34.5t84 35t33 86q0 52 -33 85.5
t-84 33.5t-83.5 -33.5t-32.5 -85.5z" />
    <glyph glyph-name="Uhungarumlaut" unicode="&#x170;" horiz-adv-x="1452" 
d="M977 1421v29h434v-29q-105 -7 -146.5 -40.5t-41.5 -110.5v-754q0 -253 -132 -400t-358 -147q-233 0 -368.5 147t-135.5 400v754q0 77 -41.5 110.5t-146.5 40.5v29h467v-29q-106 -7 -147.5 -40.5t-41.5 -110.5v-754q0 -221 121 -355t318 -134q192 0 299.5 132.5
t107.5 356.5v754q0 77 -41.5 110.5t-146.5 40.5zM616 1589l148 330h84l-203 -330h-29zM788 1589l148 330h86l-203 -330h-31z" />
    <glyph glyph-name="uhungarumlaut" unicode="&#x171;" horiz-adv-x="1126" 
d="M958 -31q-51 0 -80.5 35t-29.5 98v113q-95 -133 -180.5 -189.5t-178.5 -56.5q-135 0 -211.5 89t-76.5 243v535q0 86 -34 106.5t-126 -2.5v29l205 78h28v-730q0 -129 66.5 -195.5t183.5 -66.5q89 0 161.5 48t162.5 157v576q0 86 -34 106.5t-126 -2.5v29l205 78h29v-938
q0 -34 17 -54t44 -20q43 0 78 61l24 -10q-29 -62 -63.5 -89.5t-63.5 -27.5zM436 1155l148 330h84l-203 -330h-29zM608 1155l148 330h86l-203 -330h-31z" />
    <glyph glyph-name="Uogonek" unicode="&#x172;" horiz-adv-x="1452" 
d="M977 1421v29h434v-29q-105 -7 -146.5 -40.5t-41.5 -110.5v-754q0 -221 -101.5 -362.5t-281.5 -173.5q-164 -164 -164 -267q0 -65 36 -95t94.5 -22t125.5 50l8 -13q-84 -96 -178 -96q-69 0 -112.5 40t-43.5 104q0 134 178 290q-16 -2 -51 -2q-233 0 -368.5 147t-135.5 400
v754q0 77 -41.5 110.5t-146.5 40.5v29h467v-29q-106 -7 -147.5 -40.5t-41.5 -110.5v-754q0 -221 121 -355t318 -134q192 0 299.5 132.5t107.5 356.5v754q0 77 -41.5 110.5t-146.5 40.5z" />
    <glyph glyph-name="uogonek" unicode="&#x173;" horiz-adv-x="1126" 
d="M946 -434q-69 0 -112 39.5t-43 103.5q0 119 147 262q-42 8 -66 42t-24 89v113q-95 -133 -180.5 -189.5t-178.5 -56.5q-135 0 -211.5 89t-76.5 243v535q0 86 -34 106.5t-126 -2.5v29l205 78h28v-730q0 -129 66.5 -195.5t183.5 -66.5q89 0 161.5 48t162.5 157v576
q0 86 -34 106.5t-126 -2.5v29l205 78h29v-938q0 -34 17 -54t44 -20q43 0 78 61l24 -10q-15 -30 -18 -35v-2l-4 -4q-31 -48 -66 -65q-137 -141 -137 -238q0 -98 77.5 -115.5t178.5 47.5l8 -12q-84 -96 -178 -96z" />
    <glyph glyph-name="Wcircumflex" unicode="&#x174;" horiz-adv-x="2144" 
d="M199 1221q-38 111 -78 155.5t-109 44.5v29h455v-29q-139 0 -178 -39t-4 -143l374 -1092l381 1110l-16 41q-30 66 -65 94.5t-91 28.5v29h455v-29q-139 0 -178 -39t-4 -143l375 -1092l376 1092q22 63 18.5 103.5t-48 59.5t-140.5 19v29h410v-29q-66 0 -106 -43.5
t-80 -158.5l-433 -1250h-26l-414 1200l-416 -1200h-26zM823 1608l215 311h103l215 -311l-21 -15l-245 246l-246 -246z" />
    <glyph glyph-name="wcircumflex" unicode="&#x175;" horiz-adv-x="1550" 
d="M707 868q-35 90 -140 119v29h348v-29q-95 -18 -121.5 -46.5t-9.5 -72.5l283 -757l291 757q19 47 -13.5 74.5t-127.5 44.5v29h325v-29q-45 -9 -75 -37.5t-50 -81.5l-346 -899h-29l-260 699l-270 -699h-29l-333 899q-34 88 -142 119v29h350v-29q-95 -18 -121 -46t-10 -73
l281 -757l244 637zM504 1174l215 311h102l215 -311l-20 -15l-246 246l-246 -246z" />
    <glyph glyph-name="Ycircumflex" unicode="&#x176;" horiz-adv-x="1300" 
d="M850 1450h442v-29q-100 -7 -146.5 -40.5t-86.5 -110.5l-348 -664v-399q0 -55 10.5 -89.5t35 -53t57 -25.5t85.5 -8v-31h-467v31q53 1 85.5 8t57.5 25.5t35.5 53t10.5 89.5v399l-379 664q-22 40 -39.5 63t-44 43.5t-62.5 30.5t-88 14v29h486v-29q-220 -16 -144 -151
l334 -592l309 592q72 136 -143 151v29zM420 1608l215 311h102l215 -311l-20 -15l-246 246l-246 -246z" />
    <glyph glyph-name="ycircumflex" unicode="&#x177;" horiz-adv-x="1019" 
d="M174 -434q-59 0 -112.5 25.5t-53.5 66.5q0 20 14 32.5t37 12.5q17 0 43 -17t58 -34t65 -17q139 0 226 238l49 137l-334 852q-46 119 -139 125v29h356v-29q-92 -3 -126 -34t-11 -91l293 -745l272 745q43 119 -123 125v29h324v-29q-94 -6 -140 -125l-366 -1005
q-107 -291 -332 -291zM276 1174l216 311h102l215 -311l-21 -15l-245 246l-246 -246z" />
    <glyph glyph-name="Ydieresis" unicode="&#x178;" horiz-adv-x="1300" 
d="M850 1450h442v-29q-100 -7 -146.5 -40.5t-86.5 -110.5l-348 -664v-399q0 -55 10.5 -89.5t35 -53t57 -25.5t85.5 -8v-31h-467v31q53 1 85.5 8t57.5 25.5t35.5 53t10.5 89.5v399l-379 664q-22 40 -39.5 63t-44 43.5t-62.5 30.5t-88 14v29h486v-29q-220 -16 -144 -151
l334 -592l309 592q72 136 -143 151v29zM455 1749q0 34 24.5 58t59.5 24q32 0 54.5 -24t22.5 -58t-22.5 -57t-54.5 -23q-35 0 -59.5 23t-24.5 57zM754 1749q0 34 24.5 58t59.5 24q32 0 54.5 -24t22.5 -58t-22.5 -57t-54.5 -23q-35 0 -59.5 23t-24.5 57z" />
    <glyph glyph-name="Zacute" unicode="&#x179;" horiz-adv-x="1103" 
d="M967 -31q-8 31 -76 31h-850v31l877 1362h-517q-120 0 -186 -69.5t-100 -229.5h-29l61 387h29q8 -31 76 -31h792v-31l-876 -1362h573q120 0 186.5 69.5t100.5 229.5h29l-62 -387h-28zM582 1591l141 322h102l-215 -322h-28z" />
    <glyph glyph-name="zacute" unicode="&#x17a;" horiz-adv-x="874" 
d="M805 1016v-29l-649 -930h413q92 0 138.5 59.5t80.5 202.5h29l-53 -319h-719v29l649 929h-397q-87 0 -127.5 -48t-77.5 -179h-29l25 285h717zM432 1157l141 322h103l-215 -322h-29z" />
    <glyph glyph-name="Zdotaccent" unicode="&#x17b;" horiz-adv-x="1103" 
d="M967 -31q-8 31 -76 31h-850v31l877 1362h-517q-120 0 -186 -69.5t-100 -229.5h-29l61 387h29q8 -31 76 -31h792v-31l-876 -1362h573q120 0 186.5 69.5t100.5 229.5h29l-62 -387h-28zM508 1749q0 34 24.5 58t59.5 24q32 0 55 -24t23 -58t-23 -57t-55 -23q-35 0 -59.5 23
t-24.5 57z" />
    <glyph glyph-name="zdotaccent" unicode="&#x17c;" horiz-adv-x="874" 
d="M805 1016v-29l-649 -930h413q92 0 138.5 59.5t80.5 202.5h29l-53 -319h-719v29l649 929h-397q-87 0 -127.5 -48t-77.5 -179h-29l25 285h717zM358 1315q0 34 24.5 58t59.5 24q32 0 55 -24t23 -58t-23 -57t-55 -23q-35 0 -59.5 23t-24.5 57z" />
    <glyph glyph-name="Zcaron" unicode="&#x17d;" horiz-adv-x="1103" 
d="M967 -31q-8 31 -76 31h-850v31l877 1362h-517q-120 0 -186 -69.5t-100 -229.5h-29l61 387h29q8 -31 76 -31h792v-31l-876 -1362h573q120 0 186.5 69.5t100.5 229.5h29l-62 -387h-28zM326 1905l20 14l246 -246l246 246l20 -14l-215 -312h-102z" />
    <glyph glyph-name="zcaron" unicode="&#x17e;" horiz-adv-x="874" 
d="M805 1016v-29l-649 -930h413q92 0 138.5 59.5t80.5 202.5h29l-53 -319h-719v29l649 929h-397q-87 0 -127.5 -48t-77.5 -179h-29l25 285h717zM176 1470l21 15l245 -246l246 246l21 -15l-215 -311h-103z" />
    <glyph glyph-name="longs" unicode="&#x17f;" horiz-adv-x="659" 
d="M510 1481q43 0 84.5 -9.5t73.5 -34t32 -59.5q0 -21 -13 -36t-34 -15t-35 10t-23.5 24t-21 28t-35.5 24t-59 10q-85 0 -131.5 -57.5t-46.5 -173.5v-1040q0 -35 14.5 -58t46.5 -36t67 -19t91 -10v-29h-452v29q27 4 45 7.5t41.5 12.5t38 21t24.5 33t10 49v806h-174v58h174
v131q0 163 74 248.5t209 85.5z" />
    <glyph glyph-name="florin" unicode="&#x192;" horiz-adv-x="868" 
d="M213 713v57h215v354q0 179 64 268t184 89q66 0 125 -26.5t59 -76.5q0 -21 -13 -36t-34 -15t-35 10t-23.5 24t-21 28t-34.5 24t-58 10q-70 0 -103.5 -56.5t-33.5 -209.5v-387h215v-57h-215v-385q0 -179 -64 -268t-184 -89q-66 0 -125 26.5t-59 76.5q0 21 13 36t34 15
t35 -10t23.5 -24t21 -28t34.5 -24t58 -10q70 0 103.5 56.5t33.5 209.5v418h-215z" />
    <glyph glyph-name="Aringacute" unicode="&#x1fa;" horiz-adv-x="1425" 
d="M1206 229q43 -114 87.5 -157t119.5 -43v-29h-502v29q157 0 201 39t4 143l-108 285h-627l-109 -285q-40 -104 0.5 -143t188.5 -39v-29h-449v29q74 0 118.5 43.5t88.5 158.5l479 1250h29zM403 553h582l-291 760zM528 1745q0 73 51 121.5t128 48.5q75 0 125.5 -48.5
t50.5 -121.5q0 -72 -50.5 -121t-125.5 -49q-76 0 -127.5 49t-51.5 121zM590 1747q0 -51 33 -86t84 -35t83.5 34.5t32.5 86.5t-32.5 85.5t-83.5 33.5t-84 -33.5t-33 -85.5zM700 1982l142 322h102l-215 -322h-29z" />
    <glyph glyph-name="aringacute" unicode="&#x1fb;" horiz-adv-x="985" 
d="M385 -31q-115 0 -194.5 75.5t-79.5 191.5q0 154 95 239t294 105l207 20v78q0 144 -75 227.5t-200 83.5q-127 0 -183.5 -65t-39.5 -144q17 -82 -25 -98q-25 -9 -49 7t-24 65q0 35 11.5 72.5t39.5 77.5t68 71.5t103.5 51.5t139.5 20q139 0 223 -98.5t84 -266.5v-573
q0 -34 17.5 -54t44.5 -20q43 0 78 61l24 -10q-29 -62 -63.5 -89.5t-63.5 -27.5q-51 0 -80.5 35t-29.5 98v144q-50 -132 -133 -204.5t-189 -72.5zM197 260q0 -91 65 -152t154 -61t163 65.5t128 184.5v248l-201 -23q-159 -20 -234 -84t-75 -178zM297 1311q0 73 50.5 121.5
t127.5 48.5q75 0 125.5 -48.5t50.5 -121.5q0 -72 -50.5 -121t-125.5 -49q-76 0 -127 49t-51 121zM358 1313q0 -51 33 -86t84 -35t84 35t33 86q0 52 -33 85.5t-84 33.5t-84 -33.5t-33 -85.5zM469 1548l141 322h103l-215 -322h-29z" />
    <glyph glyph-name="AEacute" unicode="&#x1fc;" horiz-adv-x="1996" 
d="M1915 358h29l-58 -358h-1046v29q105 7 146.5 40.5t41.5 110.5v316h-510l-178 -285q-66 -98 -41 -140t168 -42v-29h-455v29q74 0 137.5 47t131.5 155l714 1141q-40 40 -155 49v29h911q68 0 76 31h28l62 -387h-29q-34 160 -100 229.5t-186 69.5h-484v-621h324
q89 0 119.5 44t21.5 157h29l71 -459h-28q-30 111 -74 156t-117 45h-346v-508q0 -81 27 -115.5t90 -34.5h414q103 0 168.5 74t97.5 227zM555 553h473v717q0 25 -2 37zM1321 1591l141 322h103l-215 -322h-29z" />
    <glyph glyph-name="aeacute" unicode="&#x1fd;" horiz-adv-x="1576" 
d="M473 1047q113 0 191 -65.5t104 -182.5q58 117 156.5 182.5t222.5 65.5q108 0 187.5 -63t113.5 -160.5t20 -207.5h-677q-5 -77 -5 -100q0 -205 108 -332t294 -127q88 0 160 59t100 154l27 -6q-23 -132 -113 -212.5t-215 -80.5q-155 0 -265 86t-155 234
q-37 -165 -125.5 -243.5t-216.5 -78.5q-115 0 -194.5 75.5t-79.5 191.5q0 154 95 239t294 105l207 20v78q0 144 -75 227.5t-200 83.5q-127 0 -183.5 -65t-39.5 -144q17 -82 -25 -98q-25 -9 -49 7t-24 65q0 35 11.5 72.5t39.5 77.5t68 71.5t103.5 51.5t139.5 20zM197 260
q0 -91 65 -152t154 -61q223 0 299 291q-15 84 -15 147q0 42 2 60l-196 -23q-159 -20 -234 -84t-75 -178zM797 657h589q6 147 -70 239.5t-202 92.5q-134 0 -213.5 -85t-103.5 -247zM813 1157l141 322h103l-215 -322h-29z" />
    <glyph glyph-name="uni0218" unicode="&#x218;" horiz-adv-x="1087" 
d="M571 -31q-62 0 -117.5 10.5t-90 24.5t-64 27.5t-46 21t-30 3.5t-21.5 -24t-16 -63h-28l-68 434h29q46 -176 165 -274t287 -98q143 0 235.5 83.5t92.5 213.5q0 76 -26 136t-70 99t-101 69.5t-120 55t-126 49.5t-120 58t-101 74.5t-70 105.5t-26 145q0 166 99.5 263.5
t269.5 97.5q66 0 127 -15.5t93.5 -31.5t59.5 -23.5t40 7.5t20 63h29l61 -387h-29q-34 162 -141.5 245.5t-259.5 83.5q-135 0 -214 -73t-79 -197q0 -69 26.5 -123t71.5 -90.5t103 -66t122 -55t128 -51.5t122 -61t103 -79t71.5 -110t26.5 -148q0 -175 -117.5 -287.5
t-300.5 -112.5zM430 -201q0 40 28 66t72 26q54 0 84.5 -32.5t30.5 -81.5q0 -163 -207 -232l-4 17q149 73 160 170q-35 -27 -64 -27q-45 0 -72.5 26t-27.5 68z" />
    <glyph glyph-name="uni0219" unicode="&#x219;" horiz-adv-x="821" 
d="M426 -29q-47 0 -96.5 14.5t-80 29t-55.5 21.5t-35.5 -8t-8.5 -59h-29l-49 312h28q38 -120 129 -186t197 -66q111 0 180.5 58t69.5 151q0 60 -32.5 106t-85 75t-115.5 53.5t-126 51t-115.5 58t-85 83t-32.5 119.5q0 119 82 191t211 72q49 0 98.5 -14.5t77.5 -29
t51.5 -21.5t33 7.5t9.5 57.5h29l45 -289h-29q-40 110 -121 170.5t-194 60.5q-96 0 -157.5 -52.5t-61.5 -135.5q0 -56 32.5 -97t85 -66.5t115.5 -48t126 -48.5t115.5 -59t85 -88.5t32.5 -129.5q0 -131 -89 -212t-235 -81zM289 -201q0 40 28 66t72 26q54 0 84.5 -32.5
t30.5 -81.5q0 -163 -207 -232l-4 17q149 73 160 170q-35 -27 -64 -27q-45 0 -72.5 26t-27.5 68z" />
    <glyph glyph-name="uni021A" unicode="&#x21a;" horiz-adv-x="1249" 
d="M391 29q53 1 85.5 8t57.5 25.5t35.5 53t10.5 89.5v1188h-244q-120 0 -186.5 -69.5t-100.5 -229.5h-29l62 387h29q8 -31 75 -31h877q68 0 76 31h28l62 -387h-29q-34 160 -100.5 229.5t-186.5 69.5h-243v-1188q0 -55 10.5 -89.5t35 -53t57 -25.5t85.5 -8v-29h-467v29z
M514 -201q0 40 28 66t72 26q54 0 84.5 -32.5t30.5 -81.5q0 -163 -207 -232l-4 17q149 73 160 170q-34 -27 -64 -27q-45 0 -72.5 26t-27.5 68z" />
    <glyph glyph-name="uni021B" unicode="&#x21b;" horiz-adv-x="636" 
d="M586 94q-4 -35 -52.5 -80t-115.5 -45q-103 0 -159 70.5t-56 204.5v714h-172v29q103 13 153 77t64 198h28v-246h304v-58h-304v-714q0 -102 46.5 -158.5t130.5 -56.5q16 0 31 4t24 8t21 14t15.5 14t14.5 17t12 14zM311 -201q0 40 28.5 66t72.5 26q54 0 84 -32.5t30 -81.5
q0 -163 -207 -232l-4 17q149 73 160 170q-35 -27 -63 -27q-45 0 -73 26t-28 68z" />
    <glyph glyph-name="uni0237" unicode="&#x237;" horiz-adv-x="464" 
d="M59 969l205 78h29v-959q0 -233 -61.5 -352t-208.5 -170l-15 20q118 60 164.5 161t46.5 310v779q0 86 -34 106.5t-126 -2.5v29z" />
    <glyph glyph-name="uni02B9" unicode="&#x2b9;" horiz-adv-x="237" 
d="M78 1505q-3 64 41 64t41 -64l-27 -409h-29z" />
    <glyph glyph-name="uni02BA" unicode="&#x2ba;" horiz-adv-x="438" 
d="M78 1505q-3 64 41 64t41 -64l-27 -409h-29zM279 1505q-3 64 40 64q44 0 41 -64l-26 -409h-29z" />
    <glyph glyph-name="circumflex" unicode="&#x2c6;" horiz-adv-x="942" 
d="M717 1159l-246 246l-246 -246l-20 15l215 311h102l215 -311z" />
    <glyph glyph-name="caron" unicode="&#x2c7;" horiz-adv-x="942" 
d="M717 1485l20 -15l-215 -311h-102l-215 311l20 15l246 -246z" />
    <glyph glyph-name="breve" unicode="&#x2d8;" horiz-adv-x="847" 
d="M422 1153q-106 0 -161.5 84t-55.5 244h31q3 -119 50.5 -181.5t135.5 -62.5q89 0 138 63t52 181h31q0 -160 -57 -244t-164 -84z" />
    <glyph glyph-name="dotaccent" unicode="&#x2d9;" horiz-adv-x="571" 
d="M289 1235q-35 0 -59.5 23t-24.5 57t24.5 58t59.5 24q32 0 55 -24t23 -58t-23 -57t-55 -23z" />
    <glyph glyph-name="ring" unicode="&#x2da;" horiz-adv-x="763" 
d="M383 1143q-76 0 -127 49t-51 121q0 73 50.5 121.5t127.5 48.5q75 0 125.5 -48.5t50.5 -121.5q0 -72 -50.5 -121t-125.5 -49zM266 1315q0 -51 33 -86t84 -35t84 35t33 86q0 52 -33 85.5t-84 33.5t-84 -33.5t-33 -85.5z" />
    <glyph glyph-name="ogonek" unicode="&#x2db;" horiz-adv-x="743" 
d="M360 -434q-69 0 -112 39.5t-43 103.5q0 159 260 359l16 -19q-43 -41 -70.5 -70t-63.5 -72.5t-54.5 -85t-18.5 -79.5q0 -98 77.5 -115.5t178.5 47.5l9 -12q-84 -96 -179 -96z" />
    <glyph glyph-name="tilde" unicode="&#x2dc;" horiz-adv-x="913" 
d="M205 1188q0 92 37 145t100 53q37 0 82.5 -30.5t89.5 -61t76 -30.5q39 0 62.5 33t27.5 96l29 -2q1 -92 -36 -144.5t-102 -52.5q-38 0 -126.5 61.5t-120.5 61.5q-39 0 -63 -33.5t-28 -97.5z" />
    <glyph glyph-name="hungarumlaut" unicode="&#x2dd;" horiz-adv-x="815" 
d="M233 1157h-28l147 330h84zM377 1157l147 330h86l-202 -330h-31z" />
    <glyph glyph-name="uni0394" unicode="&#x394;" horiz-adv-x="1503" 
d="M780 1450l652 -1450h-1360l647 1450h61zM160 57h1183l-593 1323z" />
    <glyph glyph-name="uni03A9" unicode="&#x3a9;" horiz-adv-x="1548" 
d="M121 0v57h389q-185 100 -306.5 304t-121.5 417q0 149 52.5 279.5t144 223.5t219.5 146.5t274 53.5q147 0 275.5 -53.5t220.5 -146.5t145 -223.5t53 -279.5q0 -210 -122 -414t-308 -307h389v-57h-471v59q195 100 324 304t129 415q0 184 -82 332.5t-227.5 232.5t-325.5 84
q-178 0 -322 -84t-225.5 -232.5t-81.5 -332.5q0 -137 58.5 -278.5t162 -257.5t230.5 -183v-59h-473z" />
    <glyph glyph-name="uni03BC" unicode="&#x3bc;" horiz-adv-x="1091" 
d="M887 1016h61v-1016h-61v279q-50 -144 -151.5 -226t-235.5 -82q-103 0 -181.5 46.5t-113.5 129.5v-550h-62v1419h62v-692q0 -125 83 -208.5t212 -82.5q114 1 203 65.5t136.5 173t47.5 240.5v504z" />
    <glyph glyph-name="pi" unicode="&#x3c0;" horiz-adv-x="1185" 
d="M1104 963h-215v-715q0 -104 43.5 -161t118.5 -52l-9 -45q-98 0 -156.5 66t-58.5 186v721h-467v-963h-61v963h-217v53h1022v-53z" />
    <glyph glyph-name="Wgrave" unicode="&#x1e80;" horiz-adv-x="2144" 
d="M199 1221q-38 111 -78 155.5t-109 44.5v29h455v-29q-139 0 -178 -39t-4 -143l374 -1092l381 1110l-16 41q-30 66 -65 94.5t-91 28.5v29h455v-29q-139 0 -178 -39t-4 -143l375 -1092l376 1092q22 63 18.5 103.5t-48 59.5t-140.5 19v29h410v-29q-66 0 -106 -43.5
t-80 -158.5l-433 -1250h-26l-414 1200l-416 -1200h-26zM942 1911h102l142 -322h-29z" />
    <glyph glyph-name="wgrave" unicode="&#x1e81;" horiz-adv-x="1550" 
d="M707 868q-35 90 -140 119v29h348v-29q-95 -18 -121.5 -46.5t-9.5 -72.5l283 -757l291 757q19 47 -13.5 74.5t-127.5 44.5v29h325v-29q-45 -9 -75 -37.5t-50 -81.5l-346 -899h-29l-260 699l-270 -699h-29l-333 899q-34 88 -142 119v29h350v-29q-95 -18 -121 -46t-10 -73
l281 -757l244 637zM623 1477h102l141 -322h-28z" />
    <glyph glyph-name="Wacute" unicode="&#x1e82;" horiz-adv-x="2144" 
d="M199 1221q-38 111 -78 155.5t-109 44.5v29h455v-29q-139 0 -178 -39t-4 -143l374 -1092l381 1110l-16 41q-30 66 -65 94.5t-91 28.5v29h455v-29q-139 0 -178 -39t-4 -143l375 -1092l376 1092q22 63 18.5 103.5t-48 59.5t-140.5 19v29h410v-29q-66 0 -106 -43.5
t-80 -158.5l-433 -1250h-26l-414 1200l-416 -1200h-26zM1079 1591l142 322h102l-215 -322h-29z" />
    <glyph glyph-name="wacute" unicode="&#x1e83;" horiz-adv-x="1550" 
d="M707 868q-35 90 -140 119v29h348v-29q-95 -18 -121.5 -46.5t-9.5 -72.5l283 -757l291 757q19 47 -13.5 74.5t-127.5 44.5v29h325v-29q-45 -9 -75 -37.5t-50 -81.5l-346 -899h-29l-260 699l-270 -699h-29l-333 899q-34 88 -142 119v29h350v-29q-95 -18 -121 -46t-10 -73
l281 -757l244 637zM760 1157l141 322h103l-216 -322h-28z" />
    <glyph glyph-name="Wdieresis" unicode="&#x1e84;" horiz-adv-x="2144" 
d="M199 1221q-38 111 -78 155.5t-109 44.5v29h455v-29q-139 0 -178 -39t-4 -143l374 -1092l381 1110l-16 41q-30 66 -65 94.5t-91 28.5v29h455v-29q-139 0 -178 -39t-4 -143l375 -1092l376 1092q22 63 18.5 103.5t-48 59.5t-140.5 19v29h410v-29q-66 0 -106 -43.5
t-80 -158.5l-433 -1250h-26l-414 1200l-416 -1200h-26zM858 1749q0 34 24.5 58t59.5 24q32 0 55 -24t23 -58t-23 -57t-55 -23q-35 0 -59.5 23t-24.5 57zM1157 1749q0 34 24.5 58t59.5 24q32 0 55 -24t23 -58t-23 -57t-55 -23q-35 0 -59.5 23t-24.5 57z" />
    <glyph glyph-name="wdieresis" unicode="&#x1e85;" horiz-adv-x="1550" 
d="M707 868q-35 90 -140 119v29h348v-29q-95 -18 -121.5 -46.5t-9.5 -72.5l283 -757l291 757q19 47 -13.5 74.5t-127.5 44.5v29h325v-29q-45 -9 -75 -37.5t-50 -81.5l-346 -899h-29l-260 699l-270 -699h-29l-333 899q-34 88 -142 119v29h350v-29q-95 -18 -121 -46t-10 -73
l281 -757l244 637zM539 1315q0 34 24.5 58t59.5 24q32 0 54.5 -24t22.5 -58t-22.5 -57t-54.5 -23q-35 0 -59.5 23t-24.5 57zM838 1315q0 34 24.5 58t59.5 24q32 0 54.5 -24t22.5 -58t-22.5 -57t-54.5 -23q-35 0 -59.5 23t-24.5 57z" />
    <glyph glyph-name="uni1E9E" unicode="&#x1e9e;" horiz-adv-x="1335" 
d="M827 -29q-136 0 -237 86t-129 224l24 6q34 -103 128 -166.5t214 -63.5q129 0 214 97t85 245q0 116 -66.5 198.5t-184 114.5t-263.5 7l-16 35l446 493q-52 81 -154.5 128.5t-205.5 47.5q-152 0 -247 -99.5t-95 -307.5v-1016h-258v29q91 0 129.5 29.5t38.5 115.5v842
q0 115 34 205.5t93.5 147t137 85.5t167.5 27q149 -2 278.5 -65t180.5 -169l-422 -483q230 42 372 -62t142 -303q0 -184 -115.5 -306t-290.5 -122z" />
    <glyph glyph-name="Ygrave" unicode="&#x1ef2;" horiz-adv-x="1300" 
d="M850 1450h442v-29q-100 -7 -146.5 -40.5t-86.5 -110.5l-348 -664v-399q0 -55 10.5 -89.5t35 -53t57 -25.5t85.5 -8v-31h-467v31q53 1 85.5 8t57.5 25.5t35.5 53t10.5 89.5v399l-379 664q-22 40 -39.5 63t-44 43.5t-62.5 30.5t-88 14v29h486v-29q-220 -16 -144 -151
l334 -592l309 592q72 136 -143 151v29zM539 1911h102l141 -322h-28z" />
    <glyph glyph-name="ygrave" unicode="&#x1ef3;" horiz-adv-x="1019" 
d="M174 -434q-59 0 -112.5 25.5t-53.5 66.5q0 20 14 32.5t37 12.5q17 0 43 -17t58 -34t65 -17q139 0 226 238l49 137l-334 852q-46 119 -139 125v29h356v-29q-92 -3 -126 -34t-11 -91l293 -745l272 745q43 119 -123 125v29h324v-29q-94 -6 -140 -125l-366 -1005
q-107 -291 -332 -291zM395 1477h103l141 -322h-29z" />
    <glyph glyph-name="endash" unicode="&#x2013;" horiz-adv-x="868" 
d="M766 571v-53h-664v53h664z" />
    <glyph glyph-name="emdash" unicode="&#x2014;" horiz-adv-x="1638" 
d="M1536 571v-53h-1434v53h1434z" />
    <glyph glyph-name="quoteleft" unicode="&#x2018;" horiz-adv-x="401" 
d="M209 1096q-60 0 -93.5 42.5t-33.5 110.5q0 221 227 316l6 -23q-174 -97 -178 -246q32 25 70 25q49 0 80.5 -30.5t31.5 -76.5q0 -51 -31.5 -84.5t-78.5 -33.5z" />
    <glyph glyph-name="quoteright" unicode="&#x2019;" horiz-adv-x="401" 
d="M193 1544q60 0 93 -42.5t33 -110.5q0 -221 -227 -316l-6 23q174 97 178 245q-31 -24 -69 -24q-49 0 -81 30t-32 76q0 51 32 85t79 34z" />
    <glyph glyph-name="quotesinglbase" unicode="&#x201a;" horiz-adv-x="401" 
d="M193 193q60 0 93 -43t33 -111q0 -220 -227 -315l-6 22q174 97 178 246q-32 -25 -69 -25q-49 0 -81 30.5t-32 76.5q0 51 32 85t79 34z" />
    <glyph glyph-name="quotedblleft" unicode="&#x201c;" horiz-adv-x="737" 
d="M209 1096q-60 0 -93.5 42.5t-33.5 110.5q0 221 227 316l6 -23q-174 -97 -178 -246q32 25 70 25q49 0 80.5 -30.5t31.5 -76.5q0 -51 -31.5 -84.5t-78.5 -33.5zM418 1249q0 221 227 316l6 -23q-174 -97 -178 -246q32 25 70 25q49 0 80.5 -30.5t31.5 -76.5
q0 -51 -31.5 -84.5t-78.5 -33.5q-60 0 -93.5 42.5t-33.5 110.5z" />
    <glyph glyph-name="quotedblright" unicode="&#x201d;" horiz-adv-x="737" 
d="M528 1544q60 0 93.5 -42.5t33.5 -110.5q0 -221 -227 -316l-6 23q174 97 178 245q-31 -24 -70 -24q-49 0 -80.5 30t-31.5 76q0 51 31.5 85t78.5 34zM82 1425q0 51 32 85t79 34q60 0 93 -42.5t33 -110.5q0 -221 -227 -316l-6 23q174 97 178 245q-31 -24 -69 -24
q-49 0 -81 30t-32 76z" />
    <glyph glyph-name="quotedblbase" unicode="&#x201e;" horiz-adv-x="737" 
d="M528 193q60 0 93.5 -43t33.5 -111q0 -220 -227 -315l-6 22q174 97 178 246q-32 -25 -70 -25q-49 0 -80.5 30.5t-31.5 76.5q0 51 31.5 85t78.5 34zM82 74q0 51 32 85t79 34q60 0 93 -43t33 -111q0 -220 -227 -315l-6 22q174 97 178 246q-32 -25 -69 -25q-49 0 -81 30.5
t-32 76.5z" />
    <glyph glyph-name="dagger" unicode="&#x2020;" horiz-adv-x="712" 
d="M326 467v592h-260v53h260v285h61v-285h260v-53h-260v-592h-61z" />
    <glyph glyph-name="daggerdbl" unicode="&#x2021;" horiz-adv-x="712" 
d="M326 1059h-260v53h260v285h61v-285h260v-53h-260v-684h260v-53h-260v-285h-61v285h-260v53h260v684z" />
    <glyph glyph-name="bullet" unicode="&#x2022;" horiz-adv-x="1064" 
d="M537 147q-173 0 -293.5 119.5t-120.5 290.5q0 169 120.5 289.5t293.5 120.5q167 0 286 -120.5t119 -289.5q0 -170 -119 -290t-286 -120z" />
    <glyph glyph-name="ellipsis" unicode="&#x2026;" horiz-adv-x="1001" 
d="M807 -31q-46 0 -79.5 32.5t-33.5 78.5t33.5 79.5t79.5 33.5t79.5 -33.5t33.5 -79.5t-33.5 -78.5t-79.5 -32.5zM82 80q0 46 33.5 79.5t79.5 33.5t79 -33.5t33 -79.5t-33 -78.5t-79 -32.5t-79.5 32.5t-33.5 78.5zM387 80q0 46 33.5 79.5t79.5 33.5t79 -33.5t33 -79.5
t-33 -78.5t-79 -32.5t-79.5 32.5t-33.5 78.5z" />
    <glyph glyph-name="perthousand" unicode="&#x2030;" horiz-adv-x="2375" 
d="M471 0h-59l753 1450h60zM74 1026q0 126 35.5 228.5t106 164.5t165.5 62q139 0 222 -129t83 -326q0 -127 -36 -229.5t-106.5 -164t-162.5 -61.5q-141 0 -224 130.5t-83 324.5zM160 1096q0 -46 6 -102.5t23 -127t42.5 -127t70 -95t99.5 -38.5q90 0 145.5 96.5t55.5 255.5
q0 60 -12 136t-37.5 159t-75.5 139t-115 56q-92 0 -147 -96.5t-55 -255.5zM950 424q0 126 35.5 228.5t106 164.5t165.5 62q139 0 222.5 -129t83.5 -326q0 -127 -36.5 -229.5t-107 -164t-162.5 -61.5q-141 0 -224 130.5t-83 324.5zM1036 494q0 -46 6 -102.5t23.5 -127
t43 -127t70 -95t99.5 -38.5q90 0 145.5 96.5t55.5 255.5q0 60 -12 136t-37.5 159t-75.5 139t-115 56q-92 0 -147.5 -96.5t-55.5 -255.5zM1690 424q0 126 35.5 228.5t106 164.5t165.5 62q139 0 222 -129t83 -326q0 -127 -36 -229.5t-106.5 -164t-162.5 -61.5
q-141 0 -224 130.5t-83 324.5zM1776 494q0 -46 6 -102.5t23 -127t42.5 -127t70 -95t99.5 -38.5q90 0 145.5 96.5t55.5 255.5q0 60 -12 136t-37.5 159t-75.5 139t-115 56q-92 0 -147 -96.5t-55 -255.5z" />
    <glyph glyph-name="guilsinglleft" unicode="&#x2039;" horiz-adv-x="559" 
d="M485 137l-444 389v11l444 389l13 -13l-340 -381l340 -382z" />
    <glyph glyph-name="guilsinglright" unicode="&#x203a;" horiz-adv-x="559" 
d="M53 137l-12 13l340 382l-340 381l12 13l445 -389v-11z" />
    <glyph glyph-name="fraction" unicode="&#x2044;" horiz-adv-x="344" 
d="M-178 0h-60l754 1450h59z" />
    <glyph glyph-name="uni2070" unicode="&#x2070;" horiz-adv-x="759" 
d="M381 1722q139 0 222 -128.5t83 -325.5q0 -127 -36 -229.5t-106.5 -164t-162.5 -61.5q-141 0 -224 130.5t-83 324.5q0 126 35.5 228t106 164t165.5 62zM160 1337q0 -46 6 -102.5t23 -126.5t42.5 -126.5t70 -95t99.5 -38.5q90 0 145.5 96.5t55.5 255.5q0 60 -12 136
t-37.5 159t-75.5 139t-115 56q-92 0 -147 -97t-55 -256z" />
    <glyph glyph-name="uni2074" unicode="&#x2074;" horiz-adv-x="706" 
d="M252 850q80 3 115.5 28t35.5 85v110h-378v17l415 632h39v-604h19q121 0 157 176h19l-33 -221h-162v-110q0 -26 3.5 -43.5t14.5 -34.5t34.5 -25.5t60.5 -9.5v-16h-340v16zM84 1118h319v490z" />
    <glyph glyph-name="uni2075" unicode="&#x2075;" horiz-adv-x="661" 
d="M557 1763l21 -131h-394l-45 -317q84 76 191 76q114 0 192 -79.5t78 -197.5q0 -129 -81.5 -214t-203.5 -85q-98 0 -170 43t-98 115q-16 47 19 61q16 7 33 -1.5t24 -37.5q17 -64 73.5 -104.5t127.5 -40.5q86 0 139 63.5t53 163.5q0 109 -63 180.5t-154 71.5q-99 0 -186 -76
l-13 11l62 440h325q49 0 54 59h16z" />
    <glyph glyph-name="uni2076" unicode="&#x2076;" horiz-adv-x="698" 
d="M385 813q-147 0 -232 126.5t-79 332.5q3 101 23.5 180t52.5 129t75.5 82.5t88.5 45.5t96 13q59 0 110.5 -22t81.5 -58q48 -58 4 -83q-22 -12 -42.5 -0.5t-26.5 36.5q-10 42 -54 68.5t-96 26.5q-111 0 -170 -121t-57 -340q34 66 95.5 106.5t141.5 40.5q112 0 182 -77.5
t70 -198.5t-74 -204t-190 -83zM160 1202q9 -157 72.5 -255.5t162.5 -98.5q74 0 123 68.5t49 164.5q0 104 -61.5 170t-155.5 66q-55 0 -106 -28.5t-84 -86.5z" />
    <glyph glyph-name="uni2077" unicode="&#x2077;" horiz-adv-x="604" 
d="M231 834q-7 97 8.5 195.5t43 178t70.5 162.5t80.5 141t84.5 121h-328q-55 0 -89 -35t-52 -118h-16l35 225h522v-18q-164 -251 -228.5 -447.5t-52.5 -404.5h-78z" />
    <glyph glyph-name="uni2078" unicode="&#x2078;" horiz-adv-x="694" 
d="M348 813q-128 0 -211.5 64.5t-83.5 166.5q0 76 50.5 135t158.5 109q-82 41 -128 91t-46 126q0 88 74 152.5t186 64.5q107 0 181.5 -59t74.5 -145q0 -68 -54 -126t-144 -87q44 -19 71 -33t62 -37.5t54.5 -46.5t33.5 -57t14 -74q0 -107 -82.5 -175.5t-210.5 -68.5z
M135 1044q0 -86 61 -141t152 -55q86 0 148.5 49.5t62.5 126.5q0 20 -4.5 38t-9.5 32.5t-18.5 30t-21.5 25.5t-28.5 24t-29.5 20.5t-35 20t-34.5 17.5t-38.5 18.5t-36 17.5q-94 -51 -131 -102t-37 -122zM170 1534q0 -39 14 -71t43.5 -56.5t58 -41.5t72.5 -38q93 40 129.5 84
t36.5 109q0 79 -52 124.5t-124 45.5q-74 0 -126 -41t-52 -115z" />
    <glyph glyph-name="uni2079" unicode="&#x2079;" horiz-adv-x="698" 
d="M313 1722q147 0 232.5 -126t79.5 -332q-3 -101 -23.5 -180t-52.5 -129t-75.5 -83t-88.5 -46t-96 -13q-59 0 -111 22t-82 58q-22 27 -23.5 49t19.5 35q21 12 42.5 0t27.5 -37q10 -42 53.5 -68t95.5 -26q112 0 171 121t57 340q-34 -66 -96 -107t-142 -41q-112 0 -182 78
t-70 199t74 203.5t190 82.5zM131 1454q0 -104 61.5 -169.5t155.5 -65.5q55 0 106.5 28t84.5 86q-9 157 -73 256t-163 99q-74 0 -123 -69t-49 -165z" />
    <glyph glyph-name="Euro" unicode="&#x20ac;" horiz-adv-x="1564" 
d="M53 829v58h283q50 271 215.5 432.5t396.5 161.5q61 0 124.5 -15t102 -30t72.5 -22.5t50.5 7.5t21.5 60h29l61 -387h-29q-104 329 -446 329q-195 0 -330.5 -146.5t-167.5 -389.5h522v-58h-528q-4 -54 -4 -79q0 -35 4 -97h528v-57h-520q39 -248 194.5 -401.5t373.5 -153.5
q157 0 272 98t160 264l28 -6q-21 -133 -96 -232t-182 -148.5t-230 -49.5q-259 0 -433.5 174t-200.5 455h-271v57h266v37q0 38 9 139h-275z" />
    <glyph glyph-name="uni2116" unicode="&#x2116;" horiz-adv-x="2226" 
d="M987 1450h430v-29q-105 -7 -146.5 -40.5t-41.5 -110.5v-1270h-55l-846 1262v-1082q0 -77 39.5 -110.5t144.5 -40.5v-29h-430v29q105 7 146.5 40.5t41.5 110.5v1092q0 80 -41 114t-143 35v29h223l862 -1286v1106q0 77 -39.5 110.5t-144.5 40.5v29zM1526 1077
q0 176 88 284.5t229 108.5q135 0 218 -100t83 -262q0 -177 -87 -284t-230 -107q-134 0 -217.5 99t-83.5 261zM1585 1139q0 -166 76 -274.5t192 -108.5q100 0 166 83t66 208q0 166 -76.5 274.5t-193.5 108.5q-99 0 -164.5 -82.5t-65.5 -208.5z" />
    <glyph glyph-name="uni2117" unicode="&#x2117;" horiz-adv-x="1716" 
d="M909 676h-200v-346h-68v788h268q112 0 180 -61t68 -160t-68 -160t-180 -61zM102 725q0 153 60 293t161.5 241.5t241.5 161.5t293 60t293 -60t241.5 -161.5t161.5 -241.5t60 -293t-60 -293t-161.5 -241.5t-241.5 -161.5t-293 -60t-293 60t-241.5 161.5t-161.5 241.5
t-60 293zM168 725q0 -140 55 -268.5t147.5 -221.5t220 -148.5t267.5 -55.5t267.5 55.5t220 148.5t147.5 221.5t55 268.5t-55 268.5t-147.5 221.5t-220 148.5t-267.5 55.5t-267.5 -55.5t-220 -148.5t-147.5 -221.5t-55 -268.5zM711 739h202q82 0 129.5 42.5t47.5 115.5
t-47.5 115.5t-129.5 42.5h-202v-316z" />
    <glyph glyph-name="trademark" unicode="&#x2122;" horiz-adv-x="1015" 
d="M176 975v432h-156v43h359v-43h-156v-432h-47zM440 975v475h76l168 -426l174 426h76v-475h-41v444l-184 -444h-45l-179 444v-444h-45z" />
    <glyph glyph-name="uni2126" unicode="&#x2126;" horiz-adv-x="1548" 
d="M121 0v57h389q-185 100 -306.5 304t-121.5 417q0 149 52.5 279.5t144 223.5t219.5 146.5t274 53.5q147 0 275.5 -53.5t220.5 -146.5t145 -223.5t53 -279.5q0 -210 -122 -414t-308 -307h389v-57h-471v59q195 100 324 304t129 415q0 184 -82 332.5t-227.5 232.5t-325.5 84
q-178 0 -322 -84t-225.5 -232.5t-81.5 -332.5q0 -137 58.5 -278.5t162 -257.5t230.5 -183v-59h-473z" />
    <glyph glyph-name="estimated" unicode="&#x212e;" horiz-adv-x="1568" 
d="M803 -29q-151 0 -287 55t-233.5 150t-155 227t-57.5 281q0 198 94.5 362t258 257.5t361.5 93.5q151 0 284 -55.5t228 -151t149.5 -229t53.5 -283.5h-1165v-430q80 -87 201.5 -146t267.5 -59q317 0 510 270l57 -41q-93 -143 -241 -222t-326 -79zM334 762h903v362
q-72 80 -192.5 140.5t-260.5 60.5q-141 0 -261.5 -60.5t-188.5 -142.5v-360z" />
    <glyph glyph-name="oneeighth" unicode="&#x215b;" horiz-adv-x="1544" 
d="M31 596q82 3 109.5 23.5t27.5 78.5v633h-137v17q137 38 194 102h19v-752q0 -55 22 -76.5t88 -25.5v-16h-323v16zM268 0l754 1450h59l-753 -1450h-60zM903 211q0 76 50.5 135t158.5 109q-82 41 -128 91t-46 126q0 88 74 152.5t186 64.5q107 0 181.5 -59.5t74.5 -145.5
q0 -68 -54 -126t-145 -87q56 -25 89 -43t71.5 -48t57 -69t18.5 -88q0 -107 -82.5 -175t-210.5 -68t-211.5 64.5t-83.5 166.5zM985 211q0 -87 61 -142t152 -55q86 0 148.5 49.5t62.5 126.5q0 20 -4.5 38t-9.5 32.5t-18.5 30t-21.5 25.5t-28.5 24t-29.5 20.5t-35 20
t-34.5 17.5t-38.5 18.5t-36 17.5q-94 -51 -131 -101.5t-37 -121.5zM1020 700q0 -39 14 -70.5t43.5 -56.5t58 -41.5t72.5 -37.5q93 40 129.5 83.5t36.5 108.5q0 79 -52 124.5t-124 45.5q-74 0 -126 -41t-52 -115z" />
    <glyph glyph-name="threeeighths" unicode="&#x215c;" horiz-adv-x="1665" 
d="M289 561q-105 0 -174.5 49t-83.5 129q-10 56 26 64q14 2 26 1.5t20.5 -14t9.5 -40.5q2 -68 49 -111t141 -43q87 0 140 57.5t53 149.5q0 101 -76.5 158.5t-220.5 56.5l2 20q106 9 175.5 67t69.5 144q0 83 -44 134t-115 51q-79 0 -121.5 -53t-36.5 -128q3 -26 -8.5 -38.5
t-30.5 -12.5q-42 0 -45 53q-3 87 71 150t179 63q104 0 169.5 -54t65.5 -144q0 -76 -55 -139.5t-139 -88.5q120 -9 182 -68.5t62 -152.5q0 -116 -81.5 -188t-209.5 -72zM389 0l754 1450h59l-753 -1450h-60zM1024 211q0 76 50.5 135t158.5 109q-82 41 -128 91t-46 126
q0 88 74 152.5t186 64.5q107 0 181.5 -59.5t74.5 -145.5q0 -68 -54 -126t-145 -87q56 -25 89 -43t71.5 -48t57 -69t18.5 -88q0 -107 -82.5 -175t-210.5 -68t-211.5 64.5t-83.5 166.5zM1106 211q0 -87 61 -142t152 -55q86 0 148.5 49.5t62.5 126.5q0 20 -4.5 38t-9.5 32.5
t-18.5 30t-21.5 25.5t-28.5 24t-29.5 20.5t-35 20t-34.5 17.5t-38.5 18.5t-36 17.5q-94 -51 -131 -101.5t-37 -121.5zM1141 700q0 -39 14 -70.5t43.5 -56.5t58 -41.5t72.5 -37.5q93 40 129.5 83.5t36.5 108.5q0 79 -52 124.5t-124 45.5q-74 0 -126 -41t-52 -115z" />
    <glyph glyph-name="fiveeighths" unicode="&#x215d;" horiz-adv-x="1699" 
d="M557 1509l21 -131h-394l-45 -317q84 76 191 76q114 0 192 -79.5t78 -197.5q0 -129 -81.5 -214t-203.5 -85q-98 0 -170 43t-98 115q-16 47 19 61q16 7 33 -1.5t24 -37.5q17 -64 73.5 -104.5t127.5 -40.5q86 0 139 63.5t53 163.5q0 109 -63 180.5t-154 71.5q-99 0 -186 -76
l-13 11l62 440h325q49 0 54 59h16zM424 0l754 1450h59l-754 -1450h-59zM1059 211q0 76 50.5 135t158.5 109q-82 41 -128 91t-46 126q0 88 74 152.5t186 64.5q107 0 181.5 -59.5t74.5 -145.5q0 -68 -54 -126t-145 -87q56 -25 89 -43t71.5 -48t57 -69t18.5 -88
q0 -107 -82.5 -175t-210.5 -68t-211.5 64.5t-83.5 166.5zM1141 211q0 -87 61 -142t152 -55q86 0 148.5 49.5t62.5 126.5q0 20 -4.5 38t-9.5 32.5t-18.5 30t-21.5 25.5t-28.5 24t-29.5 20.5t-35 20t-34.5 17.5t-38.5 18.5t-36 17.5q-94 -51 -131 -101.5t-37 -121.5zM1176 700
q0 -39 14 -70.5t43.5 -56.5t58 -41.5t72.5 -37.5q93 40 129.5 83.5t36.5 108.5q0 79 -52 124.5t-124 45.5q-74 0 -126 -41t-52 -115z" />
    <glyph glyph-name="seveneighths" unicode="&#x215e;" horiz-adv-x="1550" 
d="M231 580q-7 97 8.5 195.5t43 178t70.5 162.5t80.5 141t84.5 121h-328q-55 0 -89 -35t-52 -118h-16l35 225h522v-18q-164 -251 -228.5 -447.5t-52.5 -404.5h-78zM274 0l754 1450h59l-753 -1450h-60zM909 211q0 76 50.5 135t158.5 109q-82 41 -128 91t-46 126
q0 88 74 152.5t186 64.5q107 0 181.5 -59.5t74.5 -145.5q0 -68 -54 -126t-144 -87q44 -19 71 -33t62 -37.5t54.5 -46.5t33.5 -57t14 -74q0 -107 -82.5 -175t-210.5 -68t-211.5 64.5t-83.5 166.5zM991 211q0 -87 61 -142t152 -55q86 0 148.5 49.5t62.5 126.5q0 20 -4.5 38
t-9.5 32.5t-18.5 30t-21.5 25.5t-28.5 24t-29.5 20.5t-35 20t-34.5 17.5t-38.5 18.5t-36 17.5q-94 -51 -131 -101.5t-37 -121.5zM1026 700q0 -39 14 -70.5t43.5 -56.5t58 -41.5t72.5 -37.5q93 40 129.5 83.5t36.5 108.5q0 79 -52 124.5t-124 45.5q-74 0 -126 -41t-52 -115z
" />
    <glyph glyph-name="arrowleft" unicode="&#x2190;" horiz-adv-x="1447" 
d="M621 0l-519 518l521 518l41 -41l-457 -450h1139v-53h-1139l455 -453z" />
    <glyph glyph-name="arrowup" unicode="&#x2191;" horiz-adv-x="1241" 
d="M1139 793l-39 -41l-453 454v-1138h-53v1138l-451 -456l-41 41l519 520z" />
    <glyph glyph-name="arrowright" unicode="&#x2192;" horiz-adv-x="1447" 
d="M827 0l-41 39l455 453h-1139v53h1139l-457 450l41 41l521 -518z" />
    <glyph glyph-name="arrowdown" unicode="&#x2193;" horiz-adv-x="1241" 
d="M102 522l39 41l453 -454v1138h53v-1138l451 456l41 -41l-518 -520z" />
    <glyph glyph-name="uni2196" unicode="&#x2196;" horiz-adv-x="1103" 
d="M102 264v731h736v-59l-643 6l806 -807l-38 -37l-805 807l2 -643z" />
    <glyph glyph-name="uni2197" unicode="&#x2197;" horiz-adv-x="1103" 
d="M1001 264l-57 -2l2 643l-805 -807l-39 37l807 807l-643 -6v59h735v-731z" />
    <glyph glyph-name="uni2198" unicode="&#x2198;" horiz-adv-x="1101" 
d="M268 20l-2 58l643 -2l-807 805l37 39l807 -807l-6 643h59v-736h-731z" />
    <glyph glyph-name="uni2199" unicode="&#x2199;" horiz-adv-x="1101" 
d="M834 20h-732v736h60l-6 -643l807 807l36 -39l-806 -805l643 2z" />
    <glyph glyph-name="partialdiff" unicode="&#x2202;" horiz-adv-x="1136" 
d="M393 1450q199 -11 353 -120t236.5 -285t82.5 -388q0 -318 -136.5 -503t-391.5 -185q-200 0 -332.5 139t-132.5 349q0 207 132.5 344t332.5 137q199 0 328 -135t132 -352q21 163 3 304t-73.5 257t-135.5 199.5t-183 130.5t-215 51v57zM135 457q0 -184 114.5 -306
t287.5 -122q178 0 292.5 120t114.5 308q0 179 -120 300.5t-287 121.5q-173 0 -287.5 -120t-114.5 -302z" />
    <glyph glyph-name="uni2206" unicode="&#x2206;" horiz-adv-x="1503" 
d="M780 1450l652 -1450h-1360l647 1450h61zM160 57h1183l-593 1323z" />
    <glyph glyph-name="product" unicode="&#x220f;" horiz-adv-x="1232" 
d="M123 0v1450h987v-1450h-61v1393h-865v-1393h-61z" />
    <glyph glyph-name="summation" unicode="&#x2211;" horiz-adv-x="1087" 
d="M72 0v55l583 672l-583 666v57h944v-57h-871l560 -637v-56l-560 -645h871v-55h-944z" />
    <glyph glyph-name="minus" unicode="&#x2212;" 
d="M184 627v53h860v-53h-860z" />
    <glyph glyph-name="radical" unicode="&#x221a;" horiz-adv-x="1110" 
d="M498 0l-256 723h-222v55h265l256 -731l485 1403h64l-504 -1450h-88z" />
    <glyph glyph-name="infinity" unicode="&#x221e;" horiz-adv-x="1970" 
d="M1411 1018q170 0 272.5 -97.5t102.5 -258.5t-102.5 -259t-272.5 -98q-124 0 -234 77t-190 218q-87 -144 -195.5 -219.5t-230.5 -75.5q-171 0 -274 97.5t-103 259.5q0 161 102.5 258.5t274.5 97.5q123 0 232 -75.5t194 -217.5q82 143 191 218t233 75zM248 662
q0 -139 84.5 -221.5t228.5 -82.5q113 0 213.5 77.5t179.5 226.5q-79 149 -179.5 226t-213.5 77q-144 0 -228.5 -82t-84.5 -221zM1016 662q81 -149 182.5 -226.5t212.5 -77.5q144 0 227.5 82t83.5 222t-83.5 221.5t-227.5 81.5q-111 0 -212.5 -77.5t-182.5 -225.5z" />
    <glyph glyph-name="integral" unicode="&#x222b;" horiz-adv-x="538" 
d="M61 -406v52h25q72 0 114 55t42 147v1346q0 114 59.5 184t155.5 70h20v-51h-20q-73 0 -117.5 -56t-44.5 -147v-1346q0 -114 -58 -184t-151 -70h-25z" />
    <glyph glyph-name="approxequal" unicode="&#x2248;" horiz-adv-x="1306" 
d="M184 604q119 125 254 125q56 0 117 -21.5t105 -47t100.5 -47t105.5 -21.5q61 0 110.5 25t104.5 81l41 -34q-119 -125 -254 -125q-56 0 -116.5 21.5t-105 47t-101 47t-105.5 21.5q-60 0 -110 -25t-105 -82zM184 895q119 125 254 125q56 0 117 -21.5t105 -47t100.5 -47
t105.5 -21.5q61 0 110.5 25t104.5 81l41 -35q-119 -125 -254 -125q-56 0 -116.5 21.5t-105 47.5t-101 47.5t-105.5 21.5q-60 0 -110 -25t-105 -82z" />
    <glyph glyph-name="notequal" unicode="&#x2260;" 
d="M418 215l96 252h-330v53h351l104 277h-455v53h475l97 252h55l-96 -252h329v-53h-350l-104 -277h454v-53h-475l-96 -252h-55z" />
    <glyph glyph-name="lessequal" unicode="&#x2264;" 
d="M266 655l744 -379l-25 -51l-768 393v68l768 395l25 -49zM184 0v53h860v-53h-860z" />
    <glyph glyph-name="greaterequal" unicode="&#x2265;" 
d="M963 655l-744 377l25 49l768 -395v-68l-768 -393l-25 51zM184 0v53h860v-53h-860z" />
    <glyph glyph-name="uni2460" unicode="&#x2460;" horiz-adv-x="1716" 
d="M858 -31q-153 0 -293 60t-241.5 161.5t-161.5 241.5t-60 293t60 293t161.5 241.5t241.5 161.5t293 60t293 -60t241.5 -161.5t161.5 -241.5t60 -293t-60 -293t-161.5 -241.5t-241.5 -161.5t-293 -60zM168 725q0 -140 55 -268.5t147.5 -221.5t220 -148.5t267.5 -55.5
t267.5 55.5t220 148.5t147.5 221.5t55 268.5t-55 268.5t-147.5 221.5t-220 148.5t-267.5 55.5t-267.5 -55.5t-220 -148.5t-147.5 -221.5t-55 -268.5zM680 291v16q82 3 109.5 24t27.5 79v632h-137v17q137 38 194 102h19v-751q0 -55 22.5 -77t88.5 -26v-16h-324z" />
    <glyph glyph-name="uni2461" unicode="&#x2461;" horiz-adv-x="1716" 
d="M858 -31q-153 0 -293 60t-241.5 161.5t-161.5 241.5t-60 293t60 293t161.5 241.5t241.5 161.5t293 60t293 -60t241.5 -161.5t161.5 -241.5t60 -293t-60 -293t-161.5 -241.5t-241.5 -161.5t-293 -60zM168 725q0 -140 55 -268.5t147.5 -221.5t220 -148.5t267.5 -55.5
t267.5 55.5t220 148.5t147.5 221.5t55 268.5t-55 268.5t-147.5 221.5t-220 148.5t-267.5 55.5t-267.5 -55.5t-220 -148.5t-147.5 -221.5t-55 -268.5zM582 967q-3 87 72 150t182 63q116 0 186 -64t70 -170q0 -64 -24 -123.5t-62.5 -106t-86 -88.5t-96 -77t-90 -65.5
t-71.5 -61.5t-37 -57h331q29 0 42 0.5t32.5 4.5t28.5 12t21.5 23.5t21 39t16.5 57.5l17 -4l-33 -209h-510v28q0 43 23 86.5t60 82t81.5 78t89 82.5t81.5 87.5t60 101t23 115.5q0 80 -54.5 136.5t-130.5 56.5q-80 0 -124 -52.5t-35 -125.5q3 -25 -9 -39.5t-30 -14.5
q-21 0 -33 15t-12 39z" />
    <glyph glyph-name="uni2462" unicode="&#x2462;" horiz-adv-x="1716" 
d="M858 -31q-153 0 -293 60t-241.5 161.5t-161.5 241.5t-60 293t60 293t161.5 241.5t241.5 161.5t293 60t293 -60t241.5 -161.5t161.5 -241.5t60 -293t-60 -293t-161.5 -241.5t-241.5 -161.5t-293 -60zM168 725q0 -140 55 -268.5t147.5 -221.5t220 -148.5t267.5 -55.5
t267.5 55.5t220 148.5t147.5 221.5t55 268.5t-55 268.5t-147.5 221.5t-220 148.5t-267.5 55.5t-267.5 -55.5t-220 -148.5t-147.5 -221.5t-55 -268.5zM586 451q-10 55 26 63q14 2 26 1.5t20.5 -14t9.5 -40.5q2 -68 49 -111t141 -43q87 0 140 57.5t53 149.5q0 101 -76.5 158.5
t-220.5 56.5l2 21q106 9 175.5 67t69.5 144q0 83 -44 133.5t-115 50.5q-79 0 -121.5 -52.5t-36.5 -127.5q3 -26 -8.5 -39t-30.5 -13q-42 0 -45 54q-3 87 71 150t179 63q104 0 169.5 -54.5t65.5 -144.5q0 -76 -55 -139t-139 -88q120 -9 182 -69t62 -153q0 -116 -81.5 -188
t-209.5 -72q-105 0 -174.5 49.5t-83.5 129.5z" />
    <glyph glyph-name="uni2463" unicode="&#x2463;" horiz-adv-x="1716" 
d="M858 -31q-153 0 -293 60t-241.5 161.5t-161.5 241.5t-60 293t60 293t161.5 241.5t241.5 161.5t293 60t293 -60t241.5 -161.5t161.5 -241.5t60 -293t-60 -293t-161.5 -241.5t-241.5 -161.5t-293 -60zM168 725q0 -140 55 -268.5t147.5 -221.5t220 -148.5t267.5 -55.5
t267.5 55.5t220 148.5t147.5 221.5t55 268.5t-55 268.5t-147.5 221.5t-220 148.5t-267.5 55.5t-267.5 -55.5t-220 -148.5t-147.5 -221.5t-55 -268.5zM494 530v17l415 633h39v-605h19q121 0 157 177h19l-33 -222h-162v-110q0 -26 3.5 -43.5t14.5 -34.5t34.5 -25.5t60.5 -9.5
v-16h-340v16q80 3 115.5 28t35.5 85v110h-378zM553 575h319v490z" />
    <glyph glyph-name="uni2464" unicode="&#x2464;" horiz-adv-x="1716" 
d="M858 -31q-153 0 -293 60t-241.5 161.5t-161.5 241.5t-60 293t60 293t161.5 241.5t241.5 161.5t293 60t293 -60t241.5 -161.5t161.5 -241.5t60 -293t-60 -293t-161.5 -241.5t-241.5 -161.5t-293 -60zM168 725q0 -140 55 -268.5t147.5 -221.5t220 -148.5t267.5 -55.5
t267.5 55.5t220 148.5t147.5 221.5t55 268.5t-55 268.5t-147.5 221.5t-220 148.5t-267.5 55.5t-267.5 -55.5t-220 -148.5t-147.5 -221.5t-55 -268.5zM557 430q-17 48 18 62q16 7 33.5 -1.5t24.5 -37.5q17 -64 73.5 -105t127.5 -41q86 0 139 64t53 164q0 109 -63 180t-154 71
q-101 0 -186 -75l-13 10l62 440h325q49 0 54 60h16l20 -131h-393l-45 -318q84 76 191 76q114 0 192 -79.5t78 -197.5q0 -129 -81.5 -214t-203.5 -85q-98 0 -170 43t-98 115z" />
    <glyph glyph-name="uni2465" unicode="&#x2465;" horiz-adv-x="1716" 
d="M858 -31q-153 0 -293 60t-241.5 161.5t-161.5 241.5t-60 293t60 293t161.5 241.5t241.5 161.5t293 60t293 -60t241.5 -161.5t161.5 -241.5t60 -293t-60 -293t-161.5 -241.5t-241.5 -161.5t-293 -60zM168 725q0 -140 55 -268.5t147.5 -221.5t220 -148.5t267.5 -55.5
t267.5 55.5t220 148.5t147.5 221.5t55 268.5t-55 268.5t-147.5 221.5t-220 148.5t-267.5 55.5t-267.5 -55.5t-220 -148.5t-147.5 -221.5t-55 -268.5zM551 729q3 101 23.5 180t52.5 129t75.5 83t88.5 46t96 13q59 0 110.5 -22t81.5 -58q22 -27 23.5 -49t-19.5 -35
q-21 -12 -42 0t-27 37q-10 42 -53.5 68t-96.5 26q-111 0 -170 -121t-57 -340q34 66 95.5 107t141.5 41q112 0 182 -78t70 -199t-74 -204t-190 -83q-147 0 -232 126.5t-79 332.5zM637 659q9 -157 72.5 -255.5t162.5 -98.5q74 0 123 69t49 165q0 104 -61.5 169.5t-155.5 65.5
q-55 0 -106 -28.5t-84 -86.5z" />
    <glyph glyph-name="uni2466" unicode="&#x2466;" horiz-adv-x="1716" 
d="M858 -31q-153 0 -293 60t-241.5 161.5t-161.5 241.5t-60 293t60 293t161.5 241.5t241.5 161.5t293 60t293 -60t241.5 -161.5t161.5 -241.5t60 -293t-60 -293t-161.5 -241.5t-241.5 -161.5t-293 -60zM168 725q0 -140 55 -268.5t147.5 -221.5t220 -148.5t267.5 -55.5
t267.5 55.5t220 148.5t147.5 221.5t55 268.5t-55 268.5t-147.5 221.5t-220 148.5t-267.5 55.5t-267.5 -55.5t-220 -148.5t-147.5 -221.5t-55 -268.5zM580 936l34 225h523v-18q-164 -251 -228.5 -447.5t-52.5 -404.5h-78q-7 97 8.5 195.5t43 178t70.5 163t80.5 141.5
t84.5 121h-328q-55 0 -89 -35.5t-52 -118.5h-16z" />
    <glyph glyph-name="uni2467" unicode="&#x2467;" horiz-adv-x="1716" 
d="M858 -31q-153 0 -293 60t-241.5 161.5t-161.5 241.5t-60 293t60 293t161.5 241.5t241.5 161.5t293 60t293 -60t241.5 -161.5t161.5 -241.5t60 -293t-60 -293t-161.5 -241.5t-241.5 -161.5t-293 -60zM168 725q0 -140 55 -268.5t147.5 -221.5t220 -148.5t267.5 -55.5
t267.5 55.5t220 148.5t147.5 221.5t55 268.5t-55 268.5t-147.5 221.5t-220 148.5t-267.5 55.5t-267.5 -55.5t-220 -148.5t-147.5 -221.5t-55 -268.5zM565 502q0 76 50.5 134.5t158.5 108.5q-82 41 -128 91.5t-46 126.5q0 88 74 152.5t186 64.5q107 0 181.5 -59.5
t74.5 -145.5q0 -68 -54 -126t-144 -87q44 -19 71 -33t62 -37.5t54.5 -46.5t33.5 -57t14 -74q0 -107 -82.5 -175.5t-210.5 -68.5t-211.5 65t-83.5 167zM647 502q0 -87 61 -142t152 -55q86 0 148.5 49.5t62.5 126.5q0 20 -4.5 38t-9.5 32.5t-18.5 30t-21.5 25.5t-28.5 24
t-29.5 20.5t-35 20t-34.5 17.5t-38.5 18.5t-36 17.5q-94 -51 -131 -101.5t-37 -121.5zM682 991q0 -39 14 -71t43.5 -56.5t58 -41.5t72.5 -38q93 40 129.5 84t36.5 109q0 79 -52 124.5t-124 45.5q-74 0 -126 -41t-52 -115z" />
    <glyph glyph-name="uni2468" unicode="&#x2468;" horiz-adv-x="1716" 
d="M858 -31q-153 0 -293 60t-241.5 161.5t-161.5 241.5t-60 293t60 293t161.5 241.5t241.5 161.5t293 60t293 -60t241.5 -161.5t161.5 -241.5t60 -293t-60 -293t-161.5 -241.5t-241.5 -161.5t-293 -60zM168 725q0 -140 55 -268.5t147.5 -221.5t220 -148.5t267.5 -55.5
t267.5 55.5t220 148.5t147.5 221.5t55 268.5t-55 268.5t-147.5 221.5t-220 148.5t-267.5 55.5t-267.5 -55.5t-220 -148.5t-147.5 -221.5t-55 -268.5zM590 893q0 121 74 204t190 83q147 0 232 -126.5t79 -332.5q-3 -101 -23.5 -180t-52.5 -129t-75.5 -83t-88.5 -46t-96 -13
q-59 0 -110.5 22t-81.5 58q-22 27 -23.5 49t19.5 35q21 12 42 0t27 -37q10 -42 53.5 -68t96.5 -26q111 0 170 121t57 340q-34 -66 -95.5 -107t-141.5 -41q-112 0 -182 78t-70 199zM672 911q0 -104 61.5 -169.5t155.5 -65.5q55 0 106 28.5t84 86.5q-9 157 -72.5 255.5
t-162.5 98.5q-74 0 -123 -69t-49 -165z" />
    <glyph glyph-name="lozenge" unicode="&#x25ca;" horiz-adv-x="1075" 
d="M993 725l-420 -725h-65l-426 725l426 725h65zM150 725l391 -668l387 668l-387 668z" />
    <glyph glyph-name="circle" unicode="&#x25cb;" horiz-adv-x="1716" 
d="M858 -31q-153 0 -293 60t-241.5 161.5t-161.5 241.5t-60 293t60 293t161.5 241.5t241.5 161.5t293 60t293 -60t241.5 -161.5t161.5 -241.5t60 -293t-60 -293t-161.5 -241.5t-241.5 -161.5t-293 -60zM168 725q0 -140 55 -268.5t147.5 -221.5t220 -148.5t267.5 -55.5
t267.5 55.5t220 148.5t147.5 221.5t55 268.5t-55 268.5t-147.5 221.5t-220 148.5t-267.5 55.5t-267.5 -55.5t-220 -148.5t-147.5 -221.5t-55 -268.5z" />
    <glyph glyph-name="uni25CF" unicode="&#x25cf;" horiz-adv-x="1716" 
d="M856 -31q154 0 294.5 60t242 161.5t161.5 241.5t60 293t-60 293t-161.5 241.5t-242 161.5t-294.5 60q-153 0 -293 -60t-240.5 -161.5t-160.5 -241.5t-60 -293t60 -293t160.5 -241.5t240.5 -161.5t293 -60z" />
    <glyph glyph-name="uni2776" unicode="&#x2776;" horiz-adv-x="1716" 
d="M856 -31q154 0 294.5 60t242 161.5t161.5 241.5t60 293t-60 293t-161.5 241.5t-242 161.5t-294.5 60q-153 0 -293 -60t-240.5 -161.5t-160.5 -241.5t-60 -293t60 -293t160.5 -241.5t240.5 -161.5t293 -60zM680 291v16q82 3 109.5 24t27.5 79v632h-137v17q137 38 194 102
h19v-751q0 -55 22.5 -77t88.5 -26v-16h-324z" />
    <glyph glyph-name="uni2777" unicode="&#x2777;" horiz-adv-x="1716" 
d="M856 -31q154 0 294.5 60t242 161.5t161.5 241.5t60 293t-60 293t-161.5 241.5t-242 161.5t-294.5 60q-153 0 -293 -60t-240.5 -161.5t-160.5 -241.5t-60 -293t60 -293t160.5 -241.5t240.5 -161.5t293 -60zM582 967q-3 87 72 150t182 63q116 0 186 -64t70 -170
q0 -64 -24 -123.5t-62.5 -106t-86 -88.5t-96 -77t-90 -65.5t-71.5 -61.5t-37 -57h331q29 0 42 0.5t32.5 4.5t28.5 12t21.5 23.5t21 39t16.5 57.5l17 -4l-33 -209h-510v28q0 43 23 86.5t60 82t81.5 78t89 82.5t81.5 87.5t60 101t23 115.5q0 80 -54.5 136.5t-130.5 56.5
q-80 0 -124 -52.5t-35 -125.5q3 -25 -9 -39.5t-30 -14.5q-21 0 -33 15t-12 39z" />
    <glyph glyph-name="uni2778" unicode="&#x2778;" horiz-adv-x="1716" 
d="M856 -31q154 0 294.5 60t242 161.5t161.5 241.5t60 293t-60 293t-161.5 241.5t-242 161.5t-294.5 60q-153 0 -293 -60t-240.5 -161.5t-160.5 -241.5t-60 -293t60 -293t160.5 -241.5t240.5 -161.5t293 -60zM586 451q-10 55 26 63q14 2 26 1.5t20.5 -14t9.5 -40.5
q2 -68 49 -111t141 -43q87 0 140 57.5t53 149.5q0 101 -76.5 158.5t-220.5 56.5l2 21q106 9 175.5 67t69.5 144q0 83 -44 133.5t-115 50.5q-79 0 -121.5 -52.5t-36.5 -127.5q3 -26 -8.5 -39t-30.5 -13q-42 0 -45 54q-3 87 71 150t179 63q104 0 169.5 -54.5t65.5 -144.5
q0 -76 -55 -139t-139 -88q120 -9 182 -69t62 -153q0 -116 -81.5 -188t-209.5 -72q-105 0 -174.5 49.5t-83.5 129.5z" />
    <glyph glyph-name="uni2779" unicode="&#x2779;" horiz-adv-x="1716" 
d="M856 -31q154 0 294.5 60t242 161.5t161.5 241.5t60 293t-60 293t-161.5 241.5t-242 161.5t-294.5 60q-153 0 -293 -60t-240.5 -161.5t-160.5 -241.5t-60 -293t60 -293t160.5 -241.5t240.5 -161.5t293 -60zM494 530v17l415 633h39v-605h19q121 0 157 177h19l-33 -222h-162
v-110q0 -26 3.5 -43.5t14.5 -34.5t34.5 -25.5t60.5 -9.5v-16h-340v16q80 3 115.5 28t35.5 85v110h-378zM553 575h319v490z" />
    <glyph glyph-name="uni277A" unicode="&#x277a;" horiz-adv-x="1716" 
d="M856 -31q154 0 294.5 60t242 161.5t161.5 241.5t60 293t-60 293t-161.5 241.5t-242 161.5t-294.5 60q-153 0 -293 -60t-240.5 -161.5t-160.5 -241.5t-60 -293t60 -293t160.5 -241.5t240.5 -161.5t293 -60zM557 430q-17 48 18 62q16 7 33.5 -1.5t24.5 -37.5
q17 -64 73.5 -105t127.5 -41q86 0 139 64t53 164q0 109 -63 180t-154 71q-101 0 -186 -75l-13 10l62 440h325q49 0 54 60h16l20 -131h-393l-45 -318q84 76 191 76q114 0 192 -79.5t78 -197.5q0 -129 -81.5 -214t-203.5 -85q-98 0 -170 43t-98 115z" />
    <glyph glyph-name="uni277B" unicode="&#x277b;" horiz-adv-x="1716" 
d="M856 -31q154 0 294.5 60t242 161.5t161.5 241.5t60 293t-60 293t-161.5 241.5t-242 161.5t-294.5 60q-153 0 -293 -60t-240.5 -161.5t-160.5 -241.5t-60 -293t60 -293t160.5 -241.5t240.5 -161.5t293 -60zM551 729q3 101 23.5 180t52.5 129t75.5 83t88.5 46t96 13
q59 0 110.5 -22t81.5 -58q22 -27 23.5 -49t-19.5 -35q-21 -12 -42 0t-27 37q-10 42 -53.5 68t-96.5 26q-111 0 -170 -121t-57 -340q34 66 95.5 107t141.5 41q112 0 182 -78t70 -199t-74 -204t-190 -83q-147 0 -232 126.5t-79 332.5zM637 659q9 -157 72.5 -255.5t162.5 -98.5
q74 0 123 69t49 165q0 104 -61.5 169.5t-155.5 65.5q-55 0 -106 -28.5t-84 -86.5z" />
    <glyph glyph-name="uni277C" unicode="&#x277c;" horiz-adv-x="1716" 
d="M856 -31q154 0 294.5 60t242 161.5t161.5 241.5t60 293t-60 293t-161.5 241.5t-242 161.5t-294.5 60q-153 0 -293 -60t-240.5 -161.5t-160.5 -241.5t-60 -293t60 -293t160.5 -241.5t240.5 -161.5t293 -60zM580 936l34 225h523v-18q-164 -251 -228.5 -447.5t-52.5 -404.5
h-78q-7 97 8.5 195.5t43 178t70.5 163t80.5 141.5t84.5 121h-328q-55 0 -89 -35.5t-52 -118.5h-16z" />
    <glyph glyph-name="uni277D" unicode="&#x277d;" horiz-adv-x="1716" 
d="M856 -31q154 0 294.5 60t242 161.5t161.5 241.5t60 293t-60 293t-161.5 241.5t-242 161.5t-294.5 60q-153 0 -293 -60t-240.5 -161.5t-160.5 -241.5t-60 -293t60 -293t160.5 -241.5t240.5 -161.5t293 -60zM565 502q0 76 50.5 134.5t158.5 108.5q-82 41 -128 91.5
t-46 126.5q0 88 74 152.5t186 64.5q107 0 181.5 -59.5t74.5 -145.5q0 -68 -54 -126t-144 -87q44 -19 71 -33t62 -37.5t54.5 -46.5t33.5 -57t14 -74q0 -107 -82.5 -175.5t-210.5 -68.5t-211.5 65t-83.5 167zM647 502q0 -87 61 -142t152 -55q86 0 148.5 49.5t62.5 126.5
q0 20 -4.5 38t-9.5 32.5t-18.5 30t-21.5 25.5t-28.5 24t-29.5 20.5t-35 20t-34.5 17.5t-38.5 18.5t-36 17.5q-94 -51 -131 -101.5t-37 -121.5zM682 991q0 -39 14 -71t43.5 -56.5t58 -41.5t72.5 -38q93 40 129.5 84t36.5 109q0 79 -52 124.5t-124 45.5q-74 0 -126 -41
t-52 -115z" />
    <glyph glyph-name="uni277E" unicode="&#x277e;" horiz-adv-x="1716" 
d="M856 -31q154 0 294.5 60t242 161.5t161.5 241.5t60 293t-60 293t-161.5 241.5t-242 161.5t-294.5 60q-153 0 -293 -60t-240.5 -161.5t-160.5 -241.5t-60 -293t60 -293t160.5 -241.5t240.5 -161.5t293 -60zM590 893q0 121 74 204t190 83q147 0 232 -126.5t79 -332.5
q-3 -101 -23.5 -180t-52.5 -129t-75.5 -83t-88.5 -46t-96 -13q-59 0 -110.5 22t-81.5 58q-22 27 -23.5 49t19.5 35q21 12 42 0t27 -37q10 -42 53.5 -68t96.5 -26q111 0 170 121t57 340q-34 -66 -95.5 -107t-141.5 -41q-112 0 -182 78t-70 199zM672 911q0 -104 61.5 -169.5
t155.5 -65.5q55 0 106 28.5t84 86.5q-9 157 -72.5 255.5t-162.5 98.5q-74 0 -123 -69t-49 -165z" />
    <glyph glyph-name="uniF8FF" unicode="&#xf8ff;" horiz-adv-x="1597" 
d="M1260 485q104 0 180 -77.5t76 -184.5q0 -105 -75.5 -180.5t-180.5 -75.5q-106 0 -184.5 76t-78.5 180v203h-395v-203q0 -105 -78 -180.5t-186 -75.5q-106 0 -181 75t-75 181t76 184t180 78h205v396h-205q-104 0 -180 78t-76 184t76 182t180 76q109 0 186.5 -76t77.5 -182
v-203h395v203q0 104 78 181t185 77q106 0 181 -76t75 -182t-76 -184t-180 -78h-205v-396h205zM141 223q0 -83 57.5 -140.5t139.5 -57.5q85 0 145 57.5t60 140.5v203h-205q-82 0 -139.5 -60t-57.5 -143zM141 1143q0 -83 57.5 -143t139.5 -60h205v203q0 83 -59.5 141.5
t-145.5 58.5q-82 0 -139.5 -58.5t-57.5 -141.5zM602 485h395v396h-395v-396zM1055 223q0 -83 60 -140.5t145 -57.5q82 0 140 57.5t58 140.5q0 85 -58 144t-140 59h-205v-203zM1055 940h205q82 0 140 59t58 144q0 83 -58 141.5t-140 58.5q-86 0 -145.5 -58.5t-59.5 -141.5
v-203z" />
    <glyph glyph-name="C.ss04" horiz-adv-x="1314" 
d="M1227 1481l-62 -387h-28q-22 148 -131.5 238.5t-268.5 90.5q-222 0 -364.5 -187.5t-143.5 -485.5q-1 -198 73 -355.5t207 -245.5t300 -88q159 0 273.5 89.5t158.5 252.5l29 -6q-21 -133 -96 -232t-182 -148.5t-230 -49.5q-139 0 -258 54t-203 149t-131.5 229.5
t-46.5 290.5q1 173 48 321t129 251t195 161t242 58q86 0 161.5 -20.5t114.5 -40.5t74.5 -29.5t59.5 12t51 84.5z" />
    <glyph glyph-name="Cacute.ss04" horiz-adv-x="1314" 
d="M1227 1481l-62 -387h-28q-22 148 -131.5 238.5t-268.5 90.5q-222 0 -364.5 -187.5t-143.5 -485.5q-1 -198 73 -355.5t207 -245.5t300 -88q159 0 273.5 89.5t158.5 252.5l29 -6q-21 -133 -96 -232t-182 -148.5t-230 -49.5q-139 0 -258 54t-203 149t-131.5 229.5
t-46.5 290.5q1 173 48 321t129 251t195 161t242 58q86 0 161.5 -20.5t114.5 -40.5t74.5 -29.5t59.5 12t51 84.5zM741 1591l142 322h102l-215 -322h-29z" />
    <glyph glyph-name="Ccaron.ss04" horiz-adv-x="1314" 
d="M1227 1481l-62 -387h-28q-22 148 -131.5 238.5t-268.5 90.5q-222 0 -364.5 -187.5t-143.5 -485.5q-1 -198 73 -355.5t207 -245.5t300 -88q159 0 273.5 89.5t158.5 252.5l29 -6q-21 -133 -96 -232t-182 -148.5t-230 -49.5q-139 0 -258 54t-203 149t-131.5 229.5
t-46.5 290.5q1 173 48 321t129 251t195 161t242 58q86 0 161.5 -20.5t114.5 -40.5t74.5 -29.5t59.5 12t51 84.5zM485 1905l21 14l246 -246l245 246l21 -14l-215 -312h-103z" />
    <glyph glyph-name="Ccedilla.ss04" horiz-adv-x="1314" 
d="M1227 1481l-62 -387h-28q-22 148 -131.5 238.5t-268.5 90.5q-222 0 -364.5 -187.5t-143.5 -485.5q-1 -198 73 -355.5t207 -245.5t300 -88q159 0 273.5 89.5t158.5 252.5l29 -6q-21 -133 -96 -232t-182 -148.5t-230 -49.5q-29 0 -41 2l-53 -86q52 -12 84 -53.5t32 -95.5
q0 -91 -70.5 -134t-201.5 -12v17q79 -15 134.5 15t55.5 87q0 39 -32 67.5t-92 37.5l112 159q-253 26 -410.5 225t-156.5 494q1 173 48 321t129 251t195 161t242 58q86 0 161.5 -20.5t114.5 -40.5t74.5 -29.5t59.5 12t51 84.5z" />
    <glyph glyph-name="Ccircumflex.ss04" horiz-adv-x="1314" 
d="M1227 1481l-62 -387h-28q-22 148 -131.5 238.5t-268.5 90.5q-222 0 -364.5 -187.5t-143.5 -485.5q-1 -198 73 -355.5t207 -245.5t300 -88q159 0 273.5 89.5t158.5 252.5l29 -6q-21 -133 -96 -232t-182 -148.5t-230 -49.5q-139 0 -258 54t-203 149t-131.5 229.5
t-46.5 290.5q1 173 48 321t129 251t195 161t242 58q86 0 161.5 -20.5t114.5 -40.5t74.5 -29.5t59.5 12t51 84.5zM485 1608l215 311h103l215 -311l-21 -15l-245 246l-246 -246z" />
    <glyph glyph-name="Cdotaccent.ss04" horiz-adv-x="1314" 
d="M1227 1481l-62 -387h-28q-22 148 -131.5 238.5t-268.5 90.5q-222 0 -364.5 -187.5t-143.5 -485.5q-1 -198 73 -355.5t207 -245.5t300 -88q159 0 273.5 89.5t158.5 252.5l29 -6q-21 -133 -96 -232t-182 -148.5t-230 -49.5q-139 0 -258 54t-203 149t-131.5 229.5
t-46.5 290.5q1 173 48 321t129 251t195 161t242 58q86 0 161.5 -20.5t114.5 -40.5t74.5 -29.5t59.5 12t51 84.5zM668 1749q0 34 24.5 58t59.5 24q32 0 54.5 -24t22.5 -58t-22.5 -57t-54.5 -23q-35 0 -59.5 23t-24.5 57z" />
    <glyph glyph-name="G.ss04" horiz-adv-x="1429" 
d="M743 -31q-128 0 -242 53.5t-198 147.5t-132.5 229t-47.5 291q1 172 47.5 320t128 251.5t195 162t243.5 57.5q86 0 161.5 -20.5t114.5 -40.5t74.5 -29.5t59.5 12t51 84.5l29 -6l-62 -387h-28q-22 148 -131.5 238.5t-268.5 90.5q-223 0 -366.5 -188.5t-143.5 -482.5
q0 -186 72 -350t204 -265.5t292 -101.5q102 0 198.5 34t159.5 107v352q0 167 -195 170v31h463v-31q-91 -3 -134.5 -45t-43.5 -125v-325q-69 -100 -198 -167t-302 -67z" />
    <glyph glyph-name="K.ss08" horiz-adv-x="1394" 
d="M1151 0q-11 37 -82 96l-709 604v-520q0 -77 41.5 -110.5t147.5 -40.5v-29h-467v29q105 7 146.5 40.5t41.5 110.5v1090q0 77 -41.5 110.5t-146.5 40.5v29h467v-29q-106 -7 -147.5 -40.5t-41.5 -110.5v-520l635 548q132 115 -84 121v31h410v-31q-63 -3 -114 -30t-124 -91
l-639 -553l709 -602q2 -2 28.5 -24.5t33.5 -27.5t30.5 -21.5t38 -21.5t36.5 -11t44 -6v-31h-213z" />
    <glyph glyph-name="uni0136.ss08" horiz-adv-x="1394" 
d="M1151 0q-11 37 -82 96l-709 604v-520q0 -77 41.5 -110.5t147.5 -40.5v-29h-467v29q105 7 146.5 40.5t41.5 110.5v1090q0 77 -41.5 110.5t-146.5 40.5v29h467v-29q-106 -7 -147.5 -40.5t-41.5 -110.5v-520l635 548q132 115 -84 121v31h410v-31q-63 -3 -114 -30t-124 -91
l-639 -553l709 -602q2 -2 28.5 -24.5t33.5 -27.5t30.5 -21.5t38 -21.5t36.5 -11t44 -6v-31h-213zM655 -201q0 40 28.5 66t72.5 26q54 0 84 -32.5t30 -81.5q0 -163 -206 -232l-5 17q149 73 160 170q-35 -27 -63 -27q-45 0 -73 26t-28 68z" />
    <glyph glyph-name="R.ss08" horiz-adv-x="1259" 
d="M82 31q53 1 86 8t57.5 26.5t34.5 53.5t10 88v1038q0 103 -42 137.5t-146 36.5v31h516q236 0 372 -106.5t136 -292.5q0 -189 -135.5 -296.5t-372.5 -107.5h-104l520 -457q104 -91 158 -125t104 -34v-31h-229q-13 32 -36.5 63t-86.5 87l-564 497v-440q0 -57 11.5 -92.5
t38 -53.5t57 -23.5t82.5 -6.5v-31h-467v31zM360 705h238q187 0 294 92.5t107 253.5q0 160 -107 251t-294 91h-238v-688z" />
    <glyph glyph-name="Racute.ss08" horiz-adv-x="1259" 
d="M82 31q53 1 86 8t57.5 26.5t34.5 53.5t10 88v1038q0 103 -42 137.5t-146 36.5v31h516q236 0 372 -106.5t136 -292.5q0 -189 -135.5 -296.5t-372.5 -107.5h-104l520 -457q104 -91 158 -125t104 -34v-31h-229q-13 32 -36.5 63t-86.5 87l-564 497v-440q0 -57 11.5 -92.5
t38 -53.5t57 -23.5t82.5 -6.5v-31h-467v31zM360 705h238q187 0 294 92.5t107 253.5q0 160 -107 251t-294 91h-238v-688zM612 1591l142 322h102l-215 -322h-29z" />
    <glyph glyph-name="Rcaron.ss08" horiz-adv-x="1259" 
d="M82 31q53 1 86 8t57.5 26.5t34.5 53.5t10 88v1038q0 103 -42 137.5t-146 36.5v31h516q236 0 372 -106.5t136 -292.5q0 -189 -135.5 -296.5t-372.5 -107.5h-104l520 -457q104 -91 158 -125t104 -34v-31h-229q-13 32 -36.5 63t-86.5 87l-564 497v-440q0 -57 11.5 -92.5
t38 -53.5t57 -23.5t82.5 -6.5v-31h-467v31zM356 1905l21 14l246 -246l245 246l21 -14l-215 -312h-103zM360 705h238q187 0 294 92.5t107 253.5q0 160 -107 251t-294 91h-238v-688z" />
    <glyph glyph-name="uni0156.ss08" horiz-adv-x="1259" 
d="M82 31q53 1 86 8t57.5 26.5t34.5 53.5t10 88v1038q0 103 -42 137.5t-146 36.5v31h516q236 0 372 -106.5t136 -292.5q0 -189 -135.5 -296.5t-372.5 -107.5h-104l520 -457q104 -91 158 -125t104 -34v-31h-229q-13 32 -36.5 63t-86.5 87l-564 497v-440q0 -57 11.5 -92.5
t38 -53.5t57 -23.5t82.5 -6.5v-31h-467v31zM360 705h238q187 0 294 92.5t107 253.5q0 160 -107 251t-294 91h-238v-688zM625 -201q0 40 28 66t72 26q54 0 84.5 -32.5t30.5 -81.5q0 -163 -207 -232l-4 17q148 73 159 170q-34 -27 -63 -27q-45 0 -72.5 26t-27.5 68z" />
    <glyph glyph-name="S.ss10" horiz-adv-x="1032" 
d="M541 -31q-71 0 -136.5 13.5t-105 31t-75.5 32t-58 18t-43 -12.5t-39 -57l-29 6l64 410l28 -7q-15 -87 12.5 -159t85.5 -117.5t134.5 -70.5t161.5 -25q143 0 235 83.5t92 213.5q0 77 -26 137t-70 99t-101 69.5t-120 55t-125.5 49.5t-119.5 57.5t-101 74t-70 105.5t-26 145
q0 164 108.5 262.5t280.5 98.5q66 0 130 -18t103 -36.5t74.5 -30t61.5 1.5t48 58l29 -6l-57 -363l-29 7q16 145 -94.5 237t-265.5 92q-137 0 -225.5 -73.5t-88.5 -196.5q0 -69 26.5 -123t71.5 -90.5t103 -66t122 -55t128 -51.5t122 -61t103 -79t71.5 -110t26.5 -148
q0 -175 -117 -287.5t-300 -112.5z" />
    <glyph glyph-name="Sacute.ss10" horiz-adv-x="1032" 
d="M541 -31q-71 0 -136.5 13.5t-105 31t-75.5 32t-58 18t-43 -12.5t-39 -57l-29 6l64 410l28 -7q-15 -87 12.5 -159t85.5 -117.5t134.5 -70.5t161.5 -25q143 0 235 83.5t92 213.5q0 77 -26 137t-70 99t-101 69.5t-120 55t-125.5 49.5t-119.5 57.5t-101 74t-70 105.5t-26 145
q0 164 108.5 262.5t280.5 98.5q66 0 130 -18t103 -36.5t74.5 -30t61.5 1.5t48 58l29 -6l-57 -363l-29 7q16 145 -94.5 237t-265.5 92q-137 0 -225.5 -73.5t-88.5 -196.5q0 -69 26.5 -123t71.5 -90.5t103 -66t122 -55t128 -51.5t122 -61t103 -79t71.5 -110t26.5 -148
q0 -175 -117 -287.5t-300 -112.5zM496 1591l141 322h102l-215 -322h-28z" />
    <glyph glyph-name="Scaron.ss10" horiz-adv-x="1032" 
d="M541 -31q-71 0 -136.5 13.5t-105 31t-75.5 32t-58 18t-43 -12.5t-39 -57l-29 6l64 410l28 -7q-15 -87 12.5 -159t85.5 -117.5t134.5 -70.5t161.5 -25q143 0 235 83.5t92 213.5q0 77 -26 137t-70 99t-101 69.5t-120 55t-125.5 49.5t-119.5 57.5t-101 74t-70 105.5t-26 145
q0 164 108.5 262.5t280.5 98.5q66 0 130 -18t103 -36.5t74.5 -30t61.5 1.5t48 58l29 -6l-57 -363l-29 7q16 145 -94.5 237t-265.5 92q-137 0 -225.5 -73.5t-88.5 -196.5q0 -69 26.5 -123t71.5 -90.5t103 -66t122 -55t128 -51.5t122 -61t103 -79t71.5 -110t26.5 -148
q0 -175 -117 -287.5t-300 -112.5zM240 1905l20 14l246 -246l246 246l20 -14l-215 -312h-102z" />
    <glyph glyph-name="Scedilla.ss10" horiz-adv-x="1032" 
d="M354 -395q79 -15 135 15t56 87q0 39 -32 67.5t-93 37.5l110 157q-82 1 -155 20t-113 38.5t-75 31t-58 -2.5t-45 -62l-29 6l64 410l28 -7q-15 -87 12.5 -159t85.5 -117.5t134.5 -70.5t161.5 -25q143 0 235 83.5t92 213.5q0 77 -26 137t-70 99t-101 69.5t-120 55
t-125.5 49.5t-119.5 57.5t-101 74t-70 105.5t-26 145q0 164 108.5 262.5t280.5 98.5q66 0 130 -18t103 -36.5t74.5 -30t61.5 1.5t48 58l29 -6l-57 -363l-29 7q16 145 -94.5 237t-265.5 92q-137 0 -225.5 -73.5t-88.5 -196.5q0 -69 26.5 -123t71.5 -90.5t103 -66t122 -55
t128 -51.5t122 -61t103 -79t71.5 -110t26.5 -148q0 -169 -111 -280.5t-284 -119.5l-53 -86q52 -12 84.5 -53.5t32.5 -95.5q0 -91 -71 -134t-202 -12v17z" />
    <glyph glyph-name="Scircumflex.ss10" horiz-adv-x="1032" 
d="M541 -31q-71 0 -136.5 13.5t-105 31t-75.5 32t-58 18t-43 -12.5t-39 -57l-29 6l64 410l28 -7q-15 -87 12.5 -159t85.5 -117.5t134.5 -70.5t161.5 -25q143 0 235 83.5t92 213.5q0 77 -26 137t-70 99t-101 69.5t-120 55t-125.5 49.5t-119.5 57.5t-101 74t-70 105.5t-26 145
q0 164 108.5 262.5t280.5 98.5q66 0 130 -18t103 -36.5t74.5 -30t61.5 1.5t48 58l29 -6l-57 -363l-29 7q16 145 -94.5 237t-265.5 92q-137 0 -225.5 -73.5t-88.5 -196.5q0 -69 26.5 -123t71.5 -90.5t103 -66t122 -55t128 -51.5t122 -61t103 -79t71.5 -110t26.5 -148
q0 -175 -117 -287.5t-300 -112.5zM240 1608l215 311h102l215 -311l-20 -15l-246 246l-246 -246z" />
    <glyph glyph-name="uni0218.ss10" horiz-adv-x="1032" 
d="M541 -31q-71 0 -136.5 13.5t-105 31t-75.5 32t-58 18t-43 -12.5t-39 -57l-29 6l64 410l28 -7q-15 -87 12.5 -159t85.5 -117.5t134.5 -70.5t161.5 -25q143 0 235 83.5t92 213.5q0 77 -26 137t-70 99t-101 69.5t-120 55t-125.5 49.5t-119.5 57.5t-101 74t-70 105.5t-26 145
q0 164 108.5 262.5t280.5 98.5q66 0 130 -18t103 -36.5t74.5 -30t61.5 1.5t48 58l29 -6l-57 -363l-29 7q16 145 -94.5 237t-265.5 92q-137 0 -225.5 -73.5t-88.5 -196.5q0 -69 26.5 -123t71.5 -90.5t103 -66t122 -55t128 -51.5t122 -61t103 -79t71.5 -110t26.5 -148
q0 -175 -117 -287.5t-300 -112.5zM399 -201q0 40 28.5 66t72.5 26q54 0 84 -32.5t30 -81.5q0 -163 -206 -232l-5 17q149 73 160 170q-34 -27 -63 -27q-45 0 -73 26t-28 68z" />
    <glyph glyph-name="M.titl" horiz-adv-x="1943" 
d="M1714 168q4 -68 49.5 -99.5t147.5 -39.5v-29h-457v29q98 8 137 42t33 109l-84 1133l-610 -1313h-21l-559 1305l-86 -1133q-5 -69 35 -102.5t139 -40.5v-29h-405v29q87 8 127.5 41t44.5 102l86 1114q5 65 -39 96.5t-150 38.5v29h287l551 -1280l596 1280h285v-29
q-106 -8 -149.5 -40t-39.5 -101z" />
    <glyph glyph-name="i.loclTRK" horiz-adv-x="524" 
d="M295 160q0 -66 35.5 -94.5t124.5 -36.5v-29h-394v29q89 8 124.5 36.5t35.5 94.5v676q0 86 -34 106.5t-126 -2.5v29l205 78h29v-887zM172 1315q0 34 24.5 58t59.5 24q32 0 55 -24t23 -58t-23 -57t-55 -23q-35 0 -59.5 23t-24.5 57z" />
    <glyph glyph-name="f.calt" horiz-adv-x="708" 
d="M584 1016v-58h-283v-806q0 -35 14.5 -58t46.5 -36t67 -19t91 -10v-29h-452v29q27 4 45 7.5t41.5 12.5t38 21t24.5 33t10 49v806h-174v58h174v131q0 163 74 248.5t209 85.5q43 0 84.5 -9.5t73.5 -34t32 -59.5q0 -21 -13 -36t-34 -15t-35 10t-23.5 24t-21 28t-35.5 24
t-59 10q-85 0 -131.5 -57.5t-46.5 -173.5v-176h283z" />
    <glyph glyph-name="germandbls.calt" horiz-adv-x="1335" 
d="M827 -29q-136 0 -237 86t-129 224l24 6q34 -103 128 -166.5t214 -63.5q129 0 214 97t85 245q0 116 -66.5 198.5t-184 114.5t-263.5 7l-16 35l446 493q-52 81 -154.5 128.5t-205.5 47.5q-152 0 -247 -99.5t-95 -307.5v-1016h-258v29q91 0 129.5 29.5t38.5 115.5v842
q0 115 34 205.5t93.5 147t137 85.5t167.5 27q149 -2 278.5 -65t180.5 -169l-422 -483q230 42 372 -62t142 -303q0 -184 -115.5 -306t-290.5 -122z" />
    <glyph glyph-name="a.ss01" horiz-adv-x="1114" 
d="M506 -31q-190 0 -307 143t-117 375q0 251 124 405.5t326 154.5q98 0 184 -42.5t130 -111.5l35 154h28v-938q0 -34 17.5 -54t44.5 -20q43 0 78 61l24 -10q-29 -62 -63.5 -89.5t-63.5 -27.5q-51 0 -80.5 35t-29.5 98v129q-31 -118 -121 -190t-209 -72zM168 567
q0 -243 103 -391.5t270 -148.5q103 0 184.5 78t110.5 192v401q-13 117 -100.5 204t-233.5 87q-150 0 -242 -116.5t-92 -305.5z" />
    <glyph glyph-name="aacute.ss01" horiz-adv-x="1114" 
d="M506 -31q-190 0 -307 143t-117 375q0 251 124 405.5t326 154.5q98 0 184 -42.5t130 -111.5l35 154h28v-938q0 -34 17.5 -54t44.5 -20q43 0 78 61l24 -10q-29 -62 -63.5 -89.5t-63.5 -27.5q-51 0 -80.5 35t-29.5 98v129q-31 -118 -121 -190t-209 -72zM168 567
q0 -243 103 -391.5t270 -148.5q103 0 184.5 78t110.5 192v401q-13 117 -100.5 204t-233.5 87q-150 0 -242 -116.5t-92 -305.5zM549 1157l141 322h103l-215 -322h-29z" />
    <glyph glyph-name="abreve.ss01" horiz-adv-x="1114" 
d="M506 -31q-190 0 -307 143t-117 375q0 251 124 405.5t326 154.5q98 0 184 -42.5t130 -111.5l35 154h28v-938q0 -34 17.5 -54t44.5 -20q43 0 78 61l24 -10q-29 -62 -63.5 -89.5t-63.5 -27.5q-51 0 -80.5 35t-29.5 98v129q-31 -118 -121 -190t-209 -72zM168 567
q0 -243 103 -391.5t270 -148.5q103 0 184.5 78t110.5 192v401q-13 117 -100.5 204t-233.5 87q-150 0 -242 -116.5t-92 -305.5zM342 1481h31q3 -119 50.5 -181.5t135.5 -62.5q89 0 138.5 63t52.5 181h30q0 -160 -57 -244t-164 -84q-106 0 -161.5 84t-55.5 244z" />
    <glyph glyph-name="acircumflex.ss01" horiz-adv-x="1114" 
d="M506 -31q-190 0 -307 143t-117 375q0 251 124 405.5t326 154.5q98 0 184 -42.5t130 -111.5l35 154h28v-938q0 -34 17.5 -54t44.5 -20q43 0 78 61l24 -10q-29 -62 -63.5 -89.5t-63.5 -27.5q-51 0 -80.5 35t-29.5 98v129q-31 -118 -121 -190t-209 -72zM168 567
q0 -243 103 -391.5t270 -148.5q103 0 184.5 78t110.5 192v401q-13 117 -100.5 204t-233.5 87q-150 0 -242 -116.5t-92 -305.5zM293 1174l215 311h102l215 -311l-20 -15l-246 246l-246 -246z" />
    <glyph glyph-name="adieresis.ss01" horiz-adv-x="1114" 
d="M506 -31q-190 0 -307 143t-117 375q0 251 124 405.5t326 154.5q98 0 184 -42.5t130 -111.5l35 154h28v-938q0 -34 17.5 -54t44.5 -20q43 0 78 61l24 -10q-29 -62 -63.5 -89.5t-63.5 -27.5q-51 0 -80.5 35t-29.5 98v129q-31 -118 -121 -190t-209 -72zM168 567
q0 -243 103 -391.5t270 -148.5q103 0 184.5 78t110.5 192v401q-13 117 -100.5 204t-233.5 87q-150 0 -242 -116.5t-92 -305.5zM328 1315q0 34 24.5 58t59.5 24q32 0 54.5 -24t22.5 -58t-22.5 -57t-54.5 -23q-35 0 -59.5 23t-24.5 57zM627 1315q0 34 24.5 58t59.5 24
q32 0 54.5 -24t22.5 -58t-22.5 -57t-54.5 -23q-35 0 -59.5 23t-24.5 57z" />
    <glyph glyph-name="agrave.ss01" horiz-adv-x="1114" 
d="M506 -31q-190 0 -307 143t-117 375q0 251 124 405.5t326 154.5q98 0 184 -42.5t130 -111.5l35 154h28v-938q0 -34 17.5 -54t44.5 -20q43 0 78 61l24 -10q-29 -62 -63.5 -89.5t-63.5 -27.5q-51 0 -80.5 35t-29.5 98v129q-31 -118 -121 -190t-209 -72zM168 567
q0 -243 103 -391.5t270 -148.5q103 0 184.5 78t110.5 192v401q-13 117 -100.5 204t-233.5 87q-150 0 -242 -116.5t-92 -305.5zM412 1477h102l141 -322h-28z" />
    <glyph glyph-name="amacron.ss01" horiz-adv-x="1114" 
d="M506 -31q-190 0 -307 143t-117 375q0 251 124 405.5t326 154.5q98 0 184 -42.5t130 -111.5l35 154h28v-938q0 -34 17.5 -54t44.5 -20q43 0 78 61l24 -10q-29 -62 -63.5 -89.5t-63.5 -27.5q-51 0 -80.5 35t-29.5 98v129q-31 -118 -121 -190t-209 -72zM168 567
q0 -243 103 -391.5t270 -148.5q103 0 184.5 78t110.5 192v401q-13 117 -100.5 204t-233.5 87q-150 0 -242 -116.5t-92 -305.5zM334 1202v58h448v-58h-448z" />
    <glyph glyph-name="aogonek.ss01" horiz-adv-x="1114" 
d="M506 -31q-190 0 -307 143t-117 375q0 251 124 405.5t326 154.5q98 0 184 -42.5t130 -111.5l35 154h28v-938q0 -34 17.5 -54t44.5 -20q43 0 78 61l24 -10q-42 -88 -96 -111q-133 -141 -133 -233q0 -98 77.5 -115.5t178.5 47.5l8 -12q-84 -96 -178 -96q-69 0 -112.5 39.5
t-43.5 103.5q0 122 148 262q-40 8 -63 42t-23 89v129q-31 -118 -121 -190t-209 -72zM168 567q0 -243 103 -391.5t270 -148.5q103 0 184.5 78t110.5 192v401q-13 117 -100.5 204t-233.5 87q-150 0 -242 -116.5t-92 -305.5z" />
    <glyph glyph-name="aring.ss01" horiz-adv-x="1114" 
d="M506 -31q-190 0 -307 143t-117 375q0 251 124 405.5t326 154.5q98 0 184 -42.5t130 -111.5l35 154h28v-938q0 -34 17.5 -54t44.5 -20q43 0 78 61l24 -10q-29 -62 -63.5 -89.5t-63.5 -27.5q-51 0 -80.5 35t-29.5 98v129q-31 -118 -121 -190t-209 -72zM168 567
q0 -243 103 -391.5t270 -148.5q103 0 184.5 78t110.5 192v401q-13 117 -100.5 204t-233.5 87q-150 0 -242 -116.5t-92 -305.5zM381 1311q0 73 50.5 121.5t127.5 48.5q75 0 125.5 -48.5t50.5 -121.5q0 -72 -50.5 -121t-125.5 -49q-76 0 -127 49t-51 121zM442 1313
q0 -51 33 -86t84 -35t84 35t33 86q0 52 -33 85.5t-84 33.5t-84 -33.5t-33 -85.5z" />
    <glyph glyph-name="aringacute.ss01" horiz-adv-x="1114" 
d="M506 -31q-190 0 -307 143t-117 375q0 251 124 405.5t326 154.5q98 0 184 -42.5t130 -111.5l35 154h28v-938q0 -34 17.5 -54t44.5 -20q43 0 78 61l24 -10q-29 -62 -63.5 -89.5t-63.5 -27.5q-51 0 -80.5 35t-29.5 98v129q-31 -118 -121 -190t-209 -72zM168 567
q0 -243 103 -391.5t270 -148.5q103 0 184.5 78t110.5 192v401q-13 117 -100.5 204t-233.5 87q-150 0 -242 -116.5t-92 -305.5zM381 1311q0 73 50.5 121.5t127.5 48.5q75 0 125.5 -48.5t50.5 -121.5q0 -72 -50.5 -121t-125.5 -49q-76 0 -127 49t-51 121zM442 1313
q0 -51 33 -86t84 -35t84 35t33 86q0 52 -33 85.5t-84 33.5t-84 -33.5t-33 -85.5zM553 1548l141 322h103l-215 -322h-29z" />
    <glyph glyph-name="atilde.ss01" horiz-adv-x="1114" 
d="M506 -31q-190 0 -307 143t-117 375q0 251 124 405.5t326 154.5q98 0 184 -42.5t130 -111.5l35 154h28v-938q0 -34 17.5 -54t44.5 -20q43 0 78 61l24 -10q-29 -62 -63.5 -89.5t-63.5 -27.5q-51 0 -80.5 35t-29.5 98v129q-31 -118 -121 -190t-209 -72zM168 567
q0 -243 103 -391.5t270 -148.5q103 0 184.5 78t110.5 192v401q-13 117 -100.5 204t-233.5 87q-150 0 -242 -116.5t-92 -305.5zM307 1188q0 92 37 145t100 53q37 0 82.5 -30.5t89.5 -61t76 -30.5q39 0 62.5 33t27.5 96l29 -2q1 -92 -35.5 -144.5t-101.5 -52.5
q-38 0 -127 61.5t-121 61.5q-39 0 -62.5 -33.5t-27.5 -97.5z" />
    <glyph glyph-name="ae.ss01" horiz-adv-x="1714" 
d="M838 905q38 -41 63 -114q58 120 157.5 188t225.5 68q108 0 188 -63t114 -161t20 -207h-678q-4 -62 -4 -100q0 -205 107.5 -332t293.5 -127q88 0 160 59t100 154l27 -6q-23 -132 -113 -212.5t-215 -80.5q-124 0 -219.5 55.5t-153.5 155.5v-14l-45 -199h-28v271
q-29 -122 -120 -196.5t-212 -74.5q-190 0 -307 143t-117 375q0 251 124 405.5t326 154.5q93 0 176.5 -39t129.5 -103zM168 567q0 -243 103 -391.5t270 -148.5q106 0 188 80t109 198v357q0 59 -21 115.5t-61 104.5t-106 77.5t-148 29.5q-150 0 -242 -116.5t-92 -305.5z
M934 657h590q6 147 -70.5 239.5t-202.5 92.5q-134 0 -213.5 -85t-103.5 -247z" />
    <glyph glyph-name="aeacute.ss01" horiz-adv-x="1714" 
d="M838 905q38 -41 63 -114q58 120 157.5 188t225.5 68q108 0 188 -63t114 -161t20 -207h-678q-4 -62 -4 -100q0 -205 107.5 -332t293.5 -127q88 0 160 59t100 154l27 -6q-23 -132 -113 -212.5t-215 -80.5q-124 0 -219.5 55.5t-153.5 155.5v-14l-45 -199h-28v271
q-29 -122 -120 -196.5t-212 -74.5q-190 0 -307 143t-117 375q0 251 124 405.5t326 154.5q93 0 176.5 -39t129.5 -103zM168 567q0 -243 103 -391.5t270 -148.5q106 0 188 80t109 198v357q0 59 -21 115.5t-61 104.5t-106 77.5t-148 29.5q-150 0 -242 -116.5t-92 -305.5z
M850 1157l141 322h103l-215 -322h-29zM934 657h590q6 147 -70.5 239.5t-202.5 92.5q-134 0 -213.5 -85t-103.5 -247z" />
    <glyph glyph-name="a.ss02" horiz-adv-x="964" 
d="M365 -31q-115 0 -195 75.5t-80 191.5q0 154 95 239t294 105l207 20v141q0 115 -67.5 181.5t-186.5 66.5q-104 0 -188 -63.5t-113 -173.5h-29l48 295h26q0 -32 5 -48t17 -18.5t27.5 3t40.5 16t51.5 21t64 18.5t75.5 8q139 0 221 -81.5t82 -224.5v-632q0 -34 17 -54t44 -20
q43 0 78 61l25 -10q-29 -62 -63.5 -89.5t-63.5 -27.5q-51 0 -81 35t-30 98v144q-50 -132 -132.5 -204.5t-188.5 -72.5zM176 260q0 -91 65 -152t154 -61t163 65.5t128 184.5v248l-201 -23q-159 -20 -234 -84t-75 -178z" />
    <glyph glyph-name="aacute.ss02" horiz-adv-x="964" 
d="M365 -31q-115 0 -195 75.5t-80 191.5q0 154 95 239t294 105l207 20v141q0 115 -67.5 181.5t-186.5 66.5q-104 0 -188 -63.5t-113 -173.5h-29l48 295h26q0 -32 5 -48t17 -18.5t27.5 3t40.5 16t51.5 21t64 18.5t75.5 8q139 0 221 -81.5t82 -224.5v-632q0 -34 17 -54t44 -20
q43 0 78 61l25 -10q-29 -62 -63.5 -89.5t-63.5 -27.5q-51 0 -81 35t-30 98v144q-50 -132 -132.5 -204.5t-188.5 -72.5zM176 260q0 -91 65 -152t154 -61t163 65.5t128 184.5v248l-201 -23q-159 -20 -234 -84t-75 -178zM467 1157l141 322h103l-215 -322h-29z" />
    <glyph glyph-name="abreve.ss02" horiz-adv-x="964" 
d="M365 -31q-115 0 -195 75.5t-80 191.5q0 154 95 239t294 105l207 20v141q0 115 -67.5 181.5t-186.5 66.5q-104 0 -188 -63.5t-113 -173.5h-29l48 295h26q0 -32 5 -48t17 -18.5t27.5 3t40.5 16t51.5 21t64 18.5t75.5 8q139 0 221 -81.5t82 -224.5v-632q0 -34 17 -54t44 -20
q43 0 78 61l25 -10q-29 -62 -63.5 -89.5t-63.5 -27.5q-51 0 -81 35t-30 98v144q-50 -132 -132.5 -204.5t-188.5 -72.5zM176 260q0 -91 65 -152t154 -61t163 65.5t128 184.5v248l-201 -23q-159 -20 -234 -84t-75 -178zM260 1481h31q3 -119 50.5 -181.5t135.5 -62.5
q89 0 138.5 63t52.5 181h30q0 -160 -57 -244t-164 -84q-106 0 -161.5 84t-55.5 244z" />
    <glyph glyph-name="acircumflex.ss02" horiz-adv-x="964" 
d="M365 -31q-115 0 -195 75.5t-80 191.5q0 154 95 239t294 105l207 20v141q0 115 -67.5 181.5t-186.5 66.5q-104 0 -188 -63.5t-113 -173.5h-29l48 295h26q0 -32 5 -48t17 -18.5t27.5 3t40.5 16t51.5 21t64 18.5t75.5 8q139 0 221 -81.5t82 -224.5v-632q0 -34 17 -54t44 -20
q43 0 78 61l25 -10q-29 -62 -63.5 -89.5t-63.5 -27.5q-51 0 -81 35t-30 98v144q-50 -132 -132.5 -204.5t-188.5 -72.5zM176 260q0 -91 65 -152t154 -61t163 65.5t128 184.5v248l-201 -23q-159 -20 -234 -84t-75 -178zM211 1174l215 311h102l215 -311l-20 -15l-246 246
l-246 -246z" />
    <glyph glyph-name="adieresis.ss02" horiz-adv-x="964" 
d="M365 -31q-115 0 -195 75.5t-80 191.5q0 154 95 239t294 105l207 20v141q0 115 -67.5 181.5t-186.5 66.5q-104 0 -188 -63.5t-113 -173.5h-29l48 295h26q0 -32 5 -48t17 -18.5t27.5 3t40.5 16t51.5 21t64 18.5t75.5 8q139 0 221 -81.5t82 -224.5v-632q0 -34 17 -54t44 -20
q43 0 78 61l25 -10q-29 -62 -63.5 -89.5t-63.5 -27.5q-51 0 -81 35t-30 98v144q-50 -132 -132.5 -204.5t-188.5 -72.5zM176 260q0 -91 65 -152t154 -61t163 65.5t128 184.5v248l-201 -23q-159 -20 -234 -84t-75 -178zM246 1315q0 34 24.5 58t59.5 24q32 0 55 -24t23 -58
t-23 -57t-55 -23q-35 0 -59.5 23t-24.5 57zM545 1315q0 34 24.5 58t59.5 24q32 0 55 -24t23 -58t-23 -57t-55 -23q-35 0 -59.5 23t-24.5 57z" />
    <glyph glyph-name="agrave.ss02" horiz-adv-x="964" 
d="M365 -31q-115 0 -195 75.5t-80 191.5q0 154 95 239t294 105l207 20v141q0 115 -67.5 181.5t-186.5 66.5q-104 0 -188 -63.5t-113 -173.5h-29l48 295h26q0 -32 5 -48t17 -18.5t27.5 3t40.5 16t51.5 21t64 18.5t75.5 8q139 0 221 -81.5t82 -224.5v-632q0 -34 17 -54t44 -20
q43 0 78 61l25 -10q-29 -62 -63.5 -89.5t-63.5 -27.5q-51 0 -81 35t-30 98v144q-50 -132 -132.5 -204.5t-188.5 -72.5zM176 260q0 -91 65 -152t154 -61t163 65.5t128 184.5v248l-201 -23q-159 -20 -234 -84t-75 -178zM330 1477h102l141 -322h-28z" />
    </font>
</defs>
</svg>
