<?xml version="1.0" standalone="no"?>
<!DOCTYPE svg PUBLIC "-//W3C//DTD SVG 1.1//EN" "http://www.w3.org/Graphics/SVG/1.1/DTD/svg11.dtd" >
<svg xmlns="http://www.w3.org/2000/svg" xmlns:xlink="http://www.w3.org/1999/xlink" version="1.1">
<metadata>
Created by FontForge 20201107 at Tue Apr 16 22:13:51 2024
 By 
Copyright (c) 2021 by Martin Va'cha. All rights reserved.
</metadata>
<defs>
<font id="TobiasTRIAL-Regular" horiz-adv-x="1716" >
  <font-face 
    font-family="Tobias TRIAL"
    font-weight="400"
    font-stretch="normal"
    units-per-em="2048"
    panose-1="0 0 0 0 0 0 0 0 0 0"
    ascent="1638"
    descent="-410"
    x-height="1026"
    cap-height="1450"
    bbox="-248 -514 2472 2337"
    underline-thickness="102"
    underline-position="-255"
    unicode-range="U+000D-F8FF"
  />
<missing-glyph horiz-adv-x="2281" 
d="M117 633q0 202 78 388.5t210 323.5t314.5 222t384.5 92v-2048q-202 7 -385 90.5t-315 220t-209.5 322.5t-77.5 389zM1178 -383v2034q83 -28 153 -172t111 -368.5t41 -477.5t-41 -477t-111 -367t-153 -172zM1333 -350q103 134 164.5 398.5t61.5 584.5t-61 584.5
t-165 402.5q146 -62 262 -207.5t181 -349.5t65 -430q0 -344 -142 -617t-366 -366zM1542 -307q172 150 273.5 400t101.5 540q0 289 -101.5 541t-273.5 401q281 -119 452 -376t171 -566q0 -310 -171 -566t-452 -374z" />
    <glyph glyph-name="f_f" unicode="ff" horiz-adv-x="1675" 
d="M731 29q35 6 58.5 13t45.5 20.5t33 36.5t11 55v815h-488v-815q0 -64 45 -89t156 -36v-29h-516v29q35 6 58 13t45.5 20.5t33 36t10.5 55.5v815h-174v57h174v37q0 107 36 192.5t97 137.5t137 79t160 27q94 0 184.5 -38t135.5 -107q61 72 149 108.5t183 36.5
q146 0 254 -64.5t108 -160.5q0 -33 -19.5 -57.5t-50.5 -30.5t-57.5 7.5t-38.5 41.5q-17 47 -31.5 76.5t-39.5 63.5t-62 50.5t-86 16.5q-86 0 -160.5 -88t-74.5 -236v-92h284v-57h-284v-815q0 -64 45 -89t155 -36v-29h-516v29zM391 1026h488v47q0 101 30 174q-28 93 -93 144
t-154 51q-121 0 -196 -88.5t-75 -245.5v-82z" />
    <glyph glyph-name="f_f_i" unicode="ffi" horiz-adv-x="1945" 
d="M756 29q74 12 110.5 37.5t36.5 87.5v815h-512v-815q0 -64 45 -89t156 -36v-29h-516v29q35 6 58 13t45.5 20.5t33 36t10.5 55.5v815h-174v57h174v37q0 107 36 192.5t97 137.5t137 79t160 27q100 0 195.5 -43.5t134.5 -120.5q62 82 161 123t212 41q158 0 265 -64t110 -151
q3 -36 -17 -61t-53 -31q-32 -4 -58.5 10.5t-37.5 42.5q-14 43 -28.5 73t-40.5 61t-67 47t-96 16q-103 0 -181.5 -86.5t-78.5 -237.5v-92h547l96 31h29v-897q0 -63 30.5 -92t108.5 -39v-29h-446v29q77 11 107 39.5t30 91.5v678q0 79 -26.5 105t-88.5 26h-387v-815
q0 -64 45 -89t156 -36v-29h-518v29zM391 1026h512v47q0 65 17 131q-20 111 -90 174.5t-168 63.5q-121 0 -196 -88.5t-75 -245.5v-82z" />
    <glyph glyph-name="f_f_l" unicode="ffl" horiz-adv-x="1945" 
d="M76 29q35 6 58 13t45.5 20.5t33 36t10.5 55.5v815h-174v57h174v37q0 107 36 192.5t97 137.5t137 79t160 27q100 0 195 -43.5t135 -120.5q60 81 152.5 122.5t197.5 41.5q73 0 144.5 -24.5t119.5 -69.5l119 76h29v-1321q0 -63 30.5 -92t108.5 -39v-29h-446v29
q77 11 107 39.5t30 91.5v999q0 133 -62.5 208t-171.5 75q-121 0 -195.5 -88.5t-74.5 -245.5v-82h311v-57h-311v-815q0 -64 45 -89t156 -36v-29h-516v29q72 12 108.5 37.5t36.5 87.5v815h-510v-815q0 -64 45 -89t156 -36v-29h-516v29zM391 1026h510v37q0 76 19 141
q-21 113 -90.5 175.5t-167.5 62.5q-121 0 -196 -88.5t-75 -245.5v-82z" />
    <glyph glyph-name="f_i" unicode="fi" horiz-adv-x="1265" 
d="M76 29q35 6 58 13t45.5 20.5t33 36t10.5 55.5v815h-174v57h174v47q0 107 38 191t103 134t144 75.5t168 25.5q156 0 263 -64t112 -151q1 -36 -18.5 -61t-51.5 -31q-32 -5 -60 10t-38 43q-13 43 -27.5 73t-40 61t-67 47t-97.5 16q-103 0 -181.5 -86.5t-78.5 -237.5v-92h527
l118 31h29v-897q0 -63 30 -91.5t107 -39.5v-29h-446v29q78 10 108.5 39t30.5 92v678q0 78 -27.5 104.5t-89.5 26.5h-387v-815q0 -64 45 -89t156 -36v-29h-516v29z" />
    <glyph glyph-name="f_l" unicode="fl" horiz-adv-x="1265" 
d="M49 969v57h174v64q0 107 36 188.5t97.5 128t134 69.5t154.5 23q173 0 262 -86l129 64h29v-1317q0 -63 30.5 -92t108.5 -39v-29h-446v29q77 11 107 39.5t30 91.5v1034q0 110 -64.5 178t-179.5 68q-126 0 -192 -80t-66 -225v-109h307v-57h-307v-815q0 -64 45 -89t156 -36
v-29h-518v29q74 12 110.5 37.5t36.5 87.5v815h-174z" />
    <glyph glyph-name=".notdef" horiz-adv-x="2281" 
d="M117 633q0 202 78 388.5t210 323.5t314.5 222t384.5 92v-2048q-202 7 -385 90.5t-315 220t-209.5 322.5t-77.5 389zM1178 -383v2034q83 -28 153 -172t111 -368.5t41 -477.5t-41 -477t-111 -367t-153 -172zM1333 -350q103 134 164.5 398.5t61.5 584.5t-61 584.5
t-165 402.5q146 -62 262 -207.5t181 -349.5t65 -430q0 -344 -142 -617t-366 -366zM1542 -307q172 150 273.5 400t101.5 540q0 289 -101.5 541t-273.5 401q281 -119 452 -376t171 -566q0 -310 -171 -566t-452 -374z" />
    <glyph glyph-name=".null" horiz-adv-x="0" 
 />
    <glyph glyph-name="nonmarkingreturn" horiz-adv-x="682" 
 />
    <glyph glyph-name="CR" unicode="&#xd;" horiz-adv-x="1228" 
 />
    <glyph glyph-name="space" unicode=" " horiz-adv-x="446" 
 />
    <glyph glyph-name="exclam" unicode="!" horiz-adv-x="489" 
d="M246 1481q52 0 77.5 -40.5t16.5 -109.5l-80 -969h-29l-79 969q-9 70 15.5 110t78.5 40zM115 104q0 55 39.5 94.5t95.5 39.5q57 0 96 -39t39 -95q0 -57 -39.5 -96t-95.5 -39t-95.5 39t-39.5 96z" />
    <glyph glyph-name="quotedbl" unicode="&#x22;" horiz-adv-x="608" 
d="M88 1452q-14 56 7.5 92.5t70.5 36.5t71 -36.5t7 -92.5l-64 -397h-28zM362 1452q-14 56 7.5 92.5t70.5 36.5t71 -36.5t7 -92.5l-63 -397h-29z" />
    <glyph glyph-name="numbersign" unicode="#" horiz-adv-x="1284" 
d="M1128 535v-58h-305l-133 -477h-57l133 477h-387l-133 -477h-58l134 477h-248v58h264l108 385h-290v57h305l133 473h57l-133 -473h387l133 473h58l-133 -473h247v-57h-262l-108 -385h288zM395 535h387l109 385h-387z" />
    <glyph glyph-name="dollar" unicode="$" horiz-adv-x="1167" 
d="M555 1665h57v-186q59 -5 114 -22.5t83.5 -31.5t53.5 -19.5t38 11.5t23 64h28l66 -418h-29q-48 155 -148.5 246.5t-228.5 109.5v-569q170 -67 232 -102q167 -93 211 -235q18 -58 18 -128q0 -184 -128 -298.5t-333 -117.5v-274h-57v276q-63 4 -119.5 20t-88 32.5t-58.5 29
t-41 10.5t-25.5 -23t-21.5 -71h-29l-74 467h29q67 -185 176 -287.5t252 -117.5v628q-161 63 -221 97q-156 88 -193 230q-14 52 -14 112q0 173 115.5 278t312.5 105v184zM287 1171q0 -58 20 -105t60 -82.5t83 -60t105 -51.5v551q-124 0 -196 -68t-72 -184zM612 29
q126 3 205.5 79.5t79.5 194.5q0 68 -21.5 121.5t-64.5 92.5t-88.5 65t-110.5 53v-606z" />
    <glyph glyph-name="percent" unicode="%" horiz-adv-x="1753" 
d="M530 0h-61l754 1450h61zM70 1026q0 126 37 227.5t114.5 164.5t184.5 63q105 0 181.5 -62.5t113 -164t36.5 -228.5q0 -126 -36.5 -227.5t-113 -164.5t-181.5 -63q-107 0 -184.5 63.5t-114.5 165t-37 226.5zM217 1096q0 -78 11.5 -159t35 -157.5t65.5 -125t95 -48.5
q73 0 120.5 101.5t47.5 253.5q0 77 -12.5 158.5t-36 156.5t-65 123.5t-93.5 48.5q-74 0 -121 -101t-47 -251zM1016 424q0 126 37 227.5t114.5 164.5t184.5 63q105 0 181.5 -62.5t113 -164t36.5 -228.5q0 -126 -36.5 -227.5t-113 -164.5t-181.5 -63q-107 0 -184.5 63.5
t-114.5 165t-37 226.5zM1163 494q0 -78 11.5 -159t35 -157.5t65.5 -125t95 -48.5q73 0 120.5 101t47.5 253q0 77 -12.5 158.5t-36 157t-65 124t-93.5 48.5q-74 0 -121 -101t-47 -251z" />
    <glyph glyph-name="ampersand" unicode="&#x26;" horiz-adv-x="1519" 
d="M1288 -16q-80 0 -143.5 32t-181.5 148q-190 -193 -443 -193q-198 0 -318 105.5t-120 283.5q0 148 90.5 263.5t233.5 158.5q-84 111 -118 191.5t-36 161.5q-3 149 100 247.5t266 98.5q150 0 240 -83.5t90 -211.5q0 -38 -12 -79t-38 -85t-64 -83t-95 -73t-125 -55
q126 -145 187 -215q177 -196 237 -258q88 142 109 350q7 75 -30 104.5t-132 34.5v29h494v-29q-100 -6 -153 -40.5t-77 -122.5q-48 -199 -172 -367q212 -209 283 -209q40 0 68 23.5t49 81.5l22 -9q-51 -200 -211 -200zM270 432q0 -160 100 -267.5t259 -107.5q157 0 299 142
q-66 66 -277 295q-132 145 -213 247q-78 -49 -123 -132.5t-45 -176.5zM403 1208q0 -76 38.5 -153.5t138.5 -200.5q120 49 181.5 134.5t61.5 182.5q0 106 -62 179t-159 73q-88 0 -143.5 -62t-55.5 -153z" />
    <glyph glyph-name="quotesingle" unicode="'" horiz-adv-x="333" 
d="M88 1452q-14 56 7.5 92.5t70.5 36.5t71 -36.5t7 -92.5l-64 -397h-28z" />
    <glyph glyph-name="parenleft" unicode="(" horiz-adv-x="665" 
d="M618 -315q-226 126 -363.5 370t-137.5 529q0 288 137.5 531.5t363.5 369.5l13 -21q-148 -131 -238 -373.5t-90 -506.5q0 -263 90 -505.5t238 -373.5z" />
    <glyph glyph-name="parenright" unicode=")" horiz-adv-x="665" 
d="M35 -295q148 131 237.5 373.5t89.5 505.5q0 264 -89.5 506.5t-237.5 373.5l12 21q227 -126 364.5 -370t137.5 -531q0 -285 -138 -529t-364 -370z" />
    <glyph glyph-name="asterisk" unicode="*" horiz-adv-x="858" 
d="M633 838q-26 -20 -53.5 -9t-42.5 48l-109 223l-106 -223q-17 -37 -44.5 -48t-52.5 9q-26 20 -24.5 49t32.5 55l177 170l-240 39q-40 6 -58 30.5t-6 53.5q13 31 42 35.5t63 -17.5l207 -123l-45 240q-7 39 8.5 64.5t46.5 25.5q33 0 49.5 -25.5t7.5 -64.5l-45 -240l207 121
q34 23 62.5 19t40.5 -35q12 -30 -5.5 -54t-58.5 -30l-237 -39l176 -172q29 -26 31.5 -54.5t-23.5 -47.5z" />
    <glyph glyph-name="plus" unicode="+" horiz-adv-x="1228" 
d="M184 627v53h404v403h53v-403h403v-53h-403v-404h-53v404h-404z" />
    <glyph glyph-name="comma" unicode="," horiz-adv-x="438" 
d="M213 238q69 0 109 -49.5t40 -127.5q0 -135 -73 -222.5t-203 -127.5l-6 23q75 40 130 104t58 148q-27 -19 -59 -19q-58 0 -95.5 38t-37.5 95q0 59 38.5 98.5t98.5 39.5z" />
    <glyph glyph-name="hyphen" unicode="-" horiz-adv-x="716" 
d="M614 573v-55h-512v55h512z" />
    <glyph glyph-name="period" unicode="." horiz-adv-x="421" 
d="M211 -31q-56 0 -95.5 39t-39.5 96q0 55 39.5 94.5t95.5 39.5q57 0 96 -39t39 -95q0 -57 -39.5 -96t-95.5 -39z" />
    <glyph glyph-name="slash" unicode="/" horiz-adv-x="835" 
d="M72 0h-62l754 1450h61z" />
    <glyph glyph-name="zero" unicode="0" horiz-adv-x="1306" 
d="M653 1483q168 0 291.5 -103t184.5 -273t61 -382q0 -211 -61 -381t-184.5 -273.5t-291.5 -103.5q-126 0 -229 60t-169.5 163.5t-102 240.5t-35.5 294q0 158 35.5 295t102 240.5t169.5 163t229 59.5zM317 838q0 -91 11 -193.5t39 -214.5t68.5 -200.5t105.5 -146.5t145 -58
q137 0 221 163t84 424q0 92 -11.5 195t-40 214.5t-69 200t-105 146t-142.5 57.5q-137 0 -221.5 -163t-84.5 -424z" />
    <glyph glyph-name="one" unicode="1" horiz-adv-x="720" 
d="M49 29q132 6 178.5 38.5t46.5 125.5v1042h-223v29q134 36 222 80.5t157 113.5h29v-1265q0 -93 41.5 -125.5t142.5 -38.5v-29h-594v29z" />
    <glyph glyph-name="two" unicode="2" horiz-adv-x="1103" 
d="M483 1423q-88 0 -152.5 -45t-91 -112t-16.5 -140q10 -52 -9.5 -79.5t-61.5 -32.5q-45 -6 -73 21t-30 75q-3 96 55.5 181.5t163.5 137.5t230 52q213 0 341 -109t128 -289q0 -92 -30.5 -176.5t-81 -148t-117 -124t-137 -106.5t-142.5 -93.5t-131.5 -86.5t-106 -83.5
t-65.5 -86.5h559q62 0 100 7t75 30.5t62 71t45 125.5l29 -4l-59 -408h-897l2 49q3 72 29 139.5t67.5 122t94 107.5t110 102.5t114.5 99.5t108 105t90.5 113.5t63 130.5t23.5 151q0 128 -82.5 215.5t-206.5 87.5z" />
    <glyph glyph-name="three" unicode="3" horiz-adv-x="1099" 
d="M502 -31q-171 0 -292 79.5t-153 217.5q-16 45 -1 88t59 54q56 13 88.5 -16.5t19.5 -106.5q0 -49 17.5 -94t52.5 -82.5t94 -59.5t135 -22q134 0 216.5 92.5t82.5 249.5q0 170 -124 263t-351 87l2 43q183 22 294.5 121t111.5 247q0 133 -69 213t-179 80q-128 0 -197 -91
t-55 -206q19 -98 -74 -112q-44 -6 -71.5 21t-30.5 75q-6 148 124.5 259.5t317.5 111.5q190 0 304.5 -90t117.5 -240q3 -134 -98 -239t-266 -142q209 -9 326.5 -107.5t117.5 -261.5q0 -197 -145 -314.5t-375 -117.5z" />
    <glyph glyph-name="four" unicode="4" horiz-adv-x="1216" 
d="M414 29q127 8 183 51t56 149v168h-612v29l668 1055h129v-996h24q100 0 168 77t100 226h29l-53 -391h-268v-168q1 -112 40 -153t144 -47v-29h-608v29zM143 485h510v801z" />
    <glyph glyph-name="five" unicode="5" horiz-adv-x="1122" 
d="M946 1550l37 -266h-688l-70 -506q155 144 338 144q200 0 329.5 -131.5t129.5 -331.5q0 -217 -140.5 -353.5t-363.5 -136.5q-157 0 -277 69.5t-163 186.5q-18 42 -7 75.5t44 47.5q37 16 74.5 -9t50.5 -81q25 -105 102 -168t180 -63q142 -1 223.5 102t81.5 281
q0 167 -97.5 279t-237.5 112q-167 0 -299 -125l-37 18l104 756h547q51 0 77 23.5t34 76.5h28z" />
    <glyph glyph-name="six" unicode="6" horiz-adv-x="1200" 
d="M725 1483q147 0 264.5 -81t116.5 -198q-2 -41 -26 -67.5t-64 -26.5q-46 -2 -75 26t-30 81q-5 99 -60 153.5t-151 54.5q-108 0 -195 -93t-135.5 -250.5t-52.5 -348.5v-49q59 103 156.5 162t220.5 59q189 0 307.5 -127t118.5 -327q0 -209 -126 -345.5t-335 -136.5
q-253 0 -401.5 203.5t-140.5 540.5q4 171 50.5 314.5t126.5 243.5t191 156t240 56zM317 631q6 -120 33 -227.5t71.5 -192t110.5 -134.5t144 -50q111 0 183.5 109.5t72.5 264.5q0 175 -94 281t-242 106q-85 0 -157.5 -40t-121.5 -117z" />
    <glyph glyph-name="seven" unicode="7" horiz-adv-x="1044" 
d="M1022 1421q-78 -110 -142 -214t-133.5 -249t-114 -287.5t-69 -318.5t-14.5 -352h-211q-7 115 5.5 229t38.5 212t70 199t89 182t105.5 169.5t110.5 152.5t113 140h-544q-98 0 -153 -55t-89 -185h-29l60 406h907v-29z" />
    <glyph glyph-name="eight" unicode="8" horiz-adv-x="1210" 
d="M600 -33q-224 0 -368 102t-144 257q0 136 92 241.5t260 165.5q-68 34 -117 67.5t-94 79t-68.5 104t-23.5 128.5q0 153 129 262t334 109q197 0 326 -97t129 -229q0 -122 -91 -211.5t-249 -134.5q56 -25 87.5 -39.5t81.5 -41.5t78.5 -49t63.5 -55.5t53.5 -68t31.5 -80
t13 -96.5q0 -182 -143.5 -298t-380.5 -116zM274 338q0 -136 92.5 -224.5t233.5 -88.5q137 0 230.5 78.5t93.5 203.5q0 32 -7 62t-18 54t-31 48.5t-38 42.5t-48 39t-52 34.5t-58.5 32.5t-60 30.5t-64 30.5t-62.5 30q-96 -48 -153.5 -148.5t-57.5 -224.5zM336 1180
q0 -44 11.5 -82.5t36 -70.5t51.5 -57.5t69 -51t76.5 -43.5t85.5 -41q95 48 151.5 133t56.5 186q0 124 -79 198t-195 74q-113 0 -188.5 -64.5t-75.5 -180.5z" />
    <glyph glyph-name="nine" unicode="9" horiz-adv-x="1200" 
d="M475 -33q-147 0 -264.5 81t-116.5 198q2 41 26 67.5t64 26.5q46 2 75 -26t30 -81q5 -99 60 -153.5t151 -54.5q108 0 195 93t135.5 250.5t52.5 348.5v49q-59 -103 -156.5 -162t-220.5 -59q-189 0 -307.5 127t-118.5 327q0 209 126 345.5t335 136.5q253 0 401.5 -203.5
t140.5 -540.5q-4 -171 -50.5 -314.5t-126.5 -243.5t-191 -156t-240 -56zM268 1049q0 -175 94 -281t242 -106q85 0 157.5 40t121.5 117q-6 120 -33 227.5t-71.5 192t-110.5 134.5t-144 50q-111 0 -183.5 -109.5t-72.5 -264.5z" />
    <glyph glyph-name="colon" unicode=":" horiz-adv-x="421" 
d="M211 791q-56 0 -95.5 39t-39.5 96q0 55 39.5 94t95.5 39q57 0 96 -38.5t39 -94.5q0 -57 -39.5 -96t-95.5 -39zM76 104q0 55 39.5 94.5t95.5 39.5q57 0 96 -39t39 -95q0 -57 -39.5 -96t-95.5 -39t-95.5 39t-39.5 96z" />
    <glyph glyph-name="semicolon" unicode=";" horiz-adv-x="438" 
d="M213 238q69 0 109 -49.5t40 -127.5q0 -135 -73 -222.5t-203 -127.5l-6 23q75 40 130 104t58 148q-27 -19 -59 -19q-58 0 -95.5 38t-37.5 95q0 59 38.5 98.5t98.5 39.5zM84 924q0 55 39.5 94t95.5 39q57 0 96 -38.5t39 -94.5q0 -57 -39.5 -96.5t-95.5 -39.5t-95.5 39.5
t-39.5 96.5z" />
    <glyph glyph-name="less" unicode="&#x3c;" horiz-adv-x="1161" 
d="M233 655l744 -379l-25 -51l-768 393v68l768 395l25 -49z" />
    <glyph glyph-name="equal" unicode="=" horiz-adv-x="1228" 
d="M184 797v53h860v-53h-860zM184 467v53h860v-53h-860z" />
    <glyph glyph-name="greater" unicode="&#x3e;" horiz-adv-x="1161" 
d="M928 655l-744 377l25 49l768 -395v-68l-768 -393l-25 51z" />
    <glyph glyph-name="question" unicode="?" horiz-adv-x="1024" 
d="M461 354q-11 96 -2 162t33.5 124t56 99.5t66 88t63 88.5t47 101t18.5 126q0 123 -77.5 202.5t-194.5 79.5q-84 0 -145 -44t-85.5 -110t-15.5 -138q10 -49 -10 -76.5t-61 -32.5q-43 -7 -70.5 19t-30.5 73q-4 96 53 180.5t157.5 134.5t219.5 50q208 0 326.5 -94t118.5 -265
q0 -70 -24.5 -132.5t-63 -109.5t-85.5 -92l-94 -90t-85.5 -93.5t-62.5 -113t-24 -137.5h-28zM354 104q0 55 39.5 94.5t95.5 39.5q57 0 96.5 -39t39.5 -95q0 -57 -40 -96t-96 -39t-95.5 39t-39.5 96z" />
    <glyph glyph-name="at" unicode="@" horiz-adv-x="1792" 
d="M895 -326q-222 0 -399.5 90.5t-278 255t-100.5 373.5q0 234 109 423.5t302.5 297t432.5 107.5q164 0 299.5 -48t225.5 -131.5t139.5 -197t49.5 -244.5q0 -235 -126.5 -387t-309.5 -152q-103 0 -159.5 51.5t-49.5 145.5q-42 -92 -109.5 -144.5t-148.5 -52.5
q-152 0 -223 116t-31 304q34 168 159 277.5t284 109.5q65 0 117 -26t77 -70l98 96h37l-119 -573q-39 -191 86 -191q70 0 135 65.5t106.5 181t41.5 249.5q0 122 -37.5 224t-109 178t-182.5 118.5t-250 42.5q-151 0 -283 -58.5t-226 -160.5t-148 -245t-54 -306
q0 -191 86 -341.5t236.5 -233t338.5 -82.5q136 0 266.5 40t229.5 109l18 -26q-103 -85 -244.5 -135t-285.5 -50zM674 510q-35 -167 3 -268t146 -101q61 0 117.5 42.5t87.5 109.5l70 323q10 87 -28.5 147t-125.5 60q-94 0 -167 -86.5t-103 -226.5z" />
    <glyph glyph-name="A" unicode="A" horiz-adv-x="1503" 
d="M1264 246q50 -119 100.5 -168t126.5 -49v-29h-588v29q137 0 174 44.5t-8 153.5l-102 254h-580l-102 -254q-44 -109 -8 -153.5t169 -44.5v-29h-434v29q72 0 120.5 49t98.5 168l500 1235h29zM410 539h532l-266 667z" />
    <glyph glyph-name="B" unicode="B" horiz-adv-x="1357" 
d="M78 29q105 10 144.5 43t39.5 108v1090q0 75 -39.5 108t-144.5 43v29h592q232 0 364.5 -94.5t132.5 -263.5q0 -121 -91.5 -212t-241.5 -116q194 -20 312 -122.5t118 -246.5q0 -184 -133.5 -289.5t-362.5 -105.5h-690v29zM449 190q0 -64 39.5 -98.5t136.5 -34.5h94
q156 0 251 92.5t95 245.5q0 146 -107 238t-278 92h-231v-535zM449 782h213q137 0 222 87t85 223q0 137 -93.5 219t-246.5 82h-180v-611z" />
    <glyph glyph-name="C" unicode="C" horiz-adv-x="1409" 
d="M1208 1481l60 -416h-29q-55 173 -171.5 265.5t-276.5 92.5q-208 0 -341 -180t-133 -467q0 -194 70 -352t196 -248t283 -90q152 0 265 97.5t157 265.5l31 -9q-29 -217 -179.5 -345t-357.5 -128q-146 0 -271 54.5t-211 150.5t-134.5 229.5t-48.5 288.5q0 228 84.5 408.5
t237.5 281.5t349 101q67 0 133.5 -15.5t105 -30.5t72.5 -23t52.5 7.5t28.5 61.5h28z" />
    <glyph glyph-name="D" unicode="D" horiz-adv-x="1527" 
d="M666 1450q339 0 542 -185t203 -499q0 -351 -195 -558.5t-520 -207.5h-618v29q105 10 144.5 43t39.5 108v1090q0 75 -39.5 108t-144.5 43v29h588zM449 195q0 -72 32.5 -105t102.5 -33h112q148 0 265 84t183 235t66 343q0 313 -157.5 493.5t-421.5 180.5h-182v-1198z" />
    <glyph glyph-name="E" unicode="E" horiz-adv-x="1265" 
d="M1182 379h28l-55 -379h-1077v29q105 10 144.5 43t39.5 108v1090q0 75 -39.5 108t-144.5 43v29h911q90 0 103 31h28l66 -408h-29q-40 171 -119 245.5t-221 74.5h-368v-621h266q90 0 126 48.5t27 160.5h29l66 -475h-29q-24 111 -73 160t-128 49h-284v-522q0 -74 26 -105
t90 -31h289q132 0 211 77.5t117 244.5z" />
    <glyph glyph-name="F" unicode="F" horiz-adv-x="1230" 
d="M1120 1481l64 -408h-29q-40 171 -119 245.5t-221 74.5h-366v-621h266q90 0 126 48.5t27 160.5h29l66 -475h-29q-24 111 -73 160t-128 49h-284v-535q0 -53 19 -81.5t71.5 -45.5t154.5 -24v-29h-616v29q105 10 144.5 43t39.5 108v1090q0 75 -39.5 108t-144.5 43v29h909
q92 0 105 31h28z" />
    <glyph glyph-name="G" unicode="G" horiz-adv-x="1492" 
d="M768 -31q-185 0 -334 93t-233 258t-84 370q0 173 51 320.5t140.5 250.5t216 161.5t272.5 58.5q66 0 131 -15.5t103 -31t71.5 -23.5t52.5 7.5t29 62.5h28l58 -416h-27q-130 358 -461 358q-203 0 -335.5 -182.5t-131.5 -470.5q1 -201 67.5 -369t185 -267t263.5 -99
q79 0 153.5 25.5t125.5 80.5v377q0 173 -188 182v31h551v-31q-179 -9 -179 -182v-293q-75 -111 -214.5 -183.5t-311.5 -72.5z" />
    <glyph glyph-name="H" unicode="H" horiz-adv-x="1607" 
d="M1532 1421q-106 -10 -146 -43t-40 -108v-1090q0 -75 40 -108t146 -43v-29h-557v29q106 10 146 43t40 108v537h-712v-537q0 -75 39.5 -108t144.5 -43v-29h-555v29q105 10 144.5 43t39.5 108v1090q0 75 -39.5 108t-144.5 43v29h555v-29q-105 -10 -144.5 -43t-39.5 -108
v-496h712v496q0 75 -40 108t-146 43v29h557v-29z" />
    <glyph glyph-name="I" unicode="I" horiz-adv-x="710" 
d="M449 180q0 -75 39.5 -108t144.5 -43v-29h-555v29q105 10 144.5 43t39.5 108v1090q0 75 -39.5 108t-144.5 43v29h555v-29q-105 -10 -144.5 -43t-39.5 -108v-1090z" />
    <glyph glyph-name="J" unicode="J" horiz-adv-x="1052" 
d="M418 -31q-75 0 -141.5 18.5t-119.5 55t-85.5 95.5t-34.5 134q-2 48 21.5 77.5t64.5 29.5q43 0 69.5 -27.5t26.5 -72.5q0 -18 -5 -47t-5 -44q0 -77 60 -118t155 -41q101 0 159 76.5t58 236.5v928q0 75 -40 108t-146 43v29h557v-29q-106 -11 -146.5 -43.5t-40.5 -107.5
v-867q0 -213 -108 -323.5t-299 -110.5z" />
    <glyph glyph-name="K" unicode="K" horiz-adv-x="1474" 
d="M1085 0q-3 60 -59 147l-393 637l-184 -192v-412q0 -75 39.5 -108t144.5 -43v-29h-555v29q105 10 144.5 43t39.5 108v1090q0 75 -39.5 108t-144.5 43v29h555v-29q-105 -10 -144.5 -43t-39.5 -108v-592l587 614q57 58 37 89.5t-135 37.5v31h432v-31q-149 -14 -264 -137
l-340 -356l469 -752q36 -62 99 -101t130 -42v-31h-379z" />
    <glyph glyph-name="L" unicode="L" horiz-adv-x="1236" 
d="M1167 379h29l-55 -379h-1063v29q105 10 144.5 43t39.5 108v1090q0 75 -39.5 108t-144.5 43v29h555v-29q-105 -10 -144.5 -43t-39.5 -108v-1077q0 -74 26 -105t90 -31h275q132 0 210.5 77.5t116.5 244.5z" />
    <glyph glyph-name="M" unicode="M" horiz-adv-x="1894" 
d="M1819 1421q-106 -11 -146.5 -43.5t-40.5 -107.5v-1090q0 -75 42 -109.5t145 -41.5v-29h-557v29q102 7 144 41.5t42 109.5v1047l-557 -1227h-29l-543 1223v-1043q0 -75 41.5 -109.5t143.5 -41.5v-29h-426v29q102 7 143 41.5t41 109.5v1092q0 77 -39.5 110t-142.5 37v31
h342l524 -1188l541 1188h332v-29z" />
    <glyph glyph-name="N" unicode="N" horiz-adv-x="1509" 
d="M1006 1450h426v-29q-106 -11 -146.5 -43.5t-40.5 -107.5v-1270h-45l-881 1239v-1059q0 -75 40 -108t145 -43v-29h-426v29q105 10 144.5 43t39.5 108v1092q0 77 -39.5 110t-142.5 39v29h319l789 -1128v948q0 76 -38.5 108.5t-143.5 42.5v29z" />
    <glyph glyph-name="O" unicode="O" horiz-adv-x="1605" 
d="M799 -31q-205 0 -361 95.5t-238.5 259.5t-82.5 370q0 172 51.5 319t143 249.5t220 160.5t277.5 58q153 0 281.5 -55.5t215 -152.5t135 -230t48.5 -287q0 -228 -88.5 -408t-246 -279.5t-355.5 -99.5zM317 752q3 -206 69 -372t185 -261t267 -92q136 3 239.5 88t158.5 236.5
t52 346.5q-4 208 -69.5 373.5t-182.5 259.5t-266 92q-139 -2 -243.5 -87.5t-159 -237t-50.5 -346.5z" />
    <glyph glyph-name="P" unicode="P" horiz-adv-x="1263" 
d="M78 29q105 6 144.5 40.5t39.5 129.5v1054q0 94 -40 128t-144 40v29h573q250 0 396.5 -110t146.5 -296q0 -188 -146.5 -297.5t-396.5 -109.5h-202v-438q0 -98 40.5 -131t143.5 -39v-29h-555v29zM449 694h169q173 0 274 98.5t101 251.5q0 155 -100 252t-275 97h-169v-699z
" />
    <glyph glyph-name="Q" unicode="Q" horiz-adv-x="1605" 
d="M1325 -338q-82 -30 -170.5 -35t-173.5 17t-158 66t-128 117t-79 165q-231 58 -365 248.5t-134 453.5q0 172 51.5 319t143 249.5t220 160.5t277.5 58q153 0 281.5 -55.5t215 -152.5t135 -230t48.5 -287q0 -226 -87.5 -405.5t-243 -279.5t-351.5 -102q24 -77 66 -133.5
t93 -87t111.5 -48t120.5 -16.5t121 7zM317 752q3 -206 69 -372t185 -261t267 -92q136 3 239.5 88t158.5 236.5t52 346.5q-4 208 -69.5 373.5t-182.5 259.5t-266 92q-139 -2 -243.5 -87.5t-159 -237t-50.5 -346.5z" />
    <glyph glyph-name="R" unicode="R" horiz-adv-x="1394" 
d="M78 29q105 6 144.5 40.5t39.5 129.5v1054q0 94 -40 128t-144 40v29h573q250 0 396.5 -110t146.5 -296q0 -151 -98 -252.5t-269 -134.5l369 -512q33 -46 87.5 -78.5t100.5 -35.5v-31h-335q-9 44 -54 109l-370 528h-176v-438q0 -98 40.5 -131t143.5 -39v-29h-555v29z
M449 694h169q173 0 274 98.5t101 251.5q0 155 -100 252t-275 97h-169v-699z" />
    <glyph glyph-name="S" unicode="S" horiz-adv-x="1167" 
d="M604 -31q-87 0 -161 20.5t-109.5 41t-64 30t-42 -9.5t-26.5 -82h-29l-74 467h29q73 -201 194.5 -304t282.5 -103q129 0 211 77t82 197q0 73 -26.5 130.5t-71 95t-102 68t-121.5 55t-128 50t-121.5 60t-102 77.5t-71 109t-26.5 150q0 173 116 278t314 105
q72 0 137.5 -16.5t99.5 -33t62.5 -24.5t43 8t24.5 66h28l66 -418h-29q-53 172 -170 266t-262 94q-125 0 -197.5 -68t-72.5 -184q0 -66 27 -118t72.5 -87t104.5 -64t124 -54.5t130 -52t124 -63t104.5 -81.5t72.5 -113t27 -153q0 -185 -130.5 -300.5t-338.5 -115.5z" />
    <glyph glyph-name="T" unicode="T" horiz-adv-x="1277" 
d="M362 29q106 8 145.5 43t39.5 121v1200h-170q-136 -3 -213 -78t-115 -242h-29l66 408h29q11 -31 102 -31h846q89 0 102 31h29l63 -408h-28q-38 167 -115 242t-213 78h-170v-1200q0 -86 39 -121.5t145 -42.5v-29h-553v29z" />
    <glyph glyph-name="U" unicode="U" horiz-adv-x="1495" 
d="M1024 1421v29h430v-29q-106 -10 -146 -43t-40 -108v-760q0 -247 -135.5 -394t-362.5 -147q-255 0 -399 143t-144 398v760q0 75 -40 108t-146 43v29h557v-29q-106 -10 -146 -43t-40 -108v-760q0 -214 112 -343.5t297 -129.5q181 0 285 128.5t104 344.5v760q0 75 -40 108
t-146 43z" />
    <glyph glyph-name="V" unicode="V" horiz-adv-x="1503" 
d="M240 1206q-47 117 -99 166t-129 49v29h588v-29q-137 0 -174 -44.5t8 -153.5l395 -979l390 979q45 109 9 153.5t-169 44.5v29h432v-29q-72 0 -121 -49t-96 -168l-500 -1235h-29z" />
    <glyph glyph-name="W" unicode="W" horiz-adv-x="2199" 
d="M219 1206q-42 111 -88.5 162.5t-118.5 52.5v29h541v-29q-122 -1 -153 -46.5t10 -151.5l346 -963l317 899l-43 101q-36 80 -79 120t-107 41v29h542v-29q-123 0 -154 -47t9 -151l346 -963l348 963q41 103 11.5 150t-154.5 48v29h395v-29q-65 -2 -110.5 -51t-87.5 -166
l-453 -1235h-27l-403 1104l-401 -1104h-27z" />
    <glyph glyph-name="X" unicode="X" horiz-adv-x="1429" 
d="M1186 190q27 -44 42.5 -64.5t43 -44.5t62.5 -35.5t87 -16.5v-29h-592v29q107 11 144.5 49.5t-2.5 101.5l-309 477l-338 -477q-44 -62 -10.5 -101t139.5 -50v-29h-445v29q51 5 88 17t66 35t46.5 43.5t45.5 59.5l373 527l-357 549q-28 45 -43.5 66t-43 44.5t-62 34.5
t-86.5 16v29h594v-29q-108 -11 -145.5 -48t1.5 -103l267 -410l288 410q45 65 11.5 102.5t-140.5 48.5v29h445v-29q-68 -7 -114 -28.5t-70.5 -47.5t-61.5 -79l-324 -459z" />
    <glyph glyph-name="Y" unicode="Y" horiz-adv-x="1386" 
d="M938 1450h440v-29q-102 -10 -154.5 -45t-90.5 -110l-328 -643v-428q0 -88 38 -122.5t144 -41.5v-31h-551v31q106 7 144 41.5t38 122.5v403l-374 662q-23 42 -40.5 66t-44.5 46t-63 33t-88 16v29h588v-29q-214 -21 -141 -151l321 -574l293 574q36 67 5 104t-136 47v29z
" />
    <glyph glyph-name="Z" unicode="Z" horiz-adv-x="1189" 
d="M1038 -31q-13 31 -102 31h-889v31l844 1362h-422q-142 0 -221 -74.5t-119 -245.5h-29l64 408h29q13 -31 104 -31h829v-31l-843 -1362h481q142 0 221 74.5t119 245.5h29l-66 -408h-29z" />
    <glyph glyph-name="bracketleft" unicode="[" horiz-adv-x="483" 
d="M78 -322v1799h364v-27h-200v-1745h200v-27h-364z" />
    <glyph glyph-name="backslash" unicode="\" horiz-adv-x="835" 
d="M764 0l-754 1450h62l753 -1450h-61z" />
    <glyph glyph-name="bracketright" unicode="]" horiz-adv-x="477" 
d="M399 -322h-364v27h201v1745h-201v27h364v-1799z" />
    <glyph glyph-name="asciicircum" unicode="^" horiz-adv-x="1116" 
d="M184 903l342 508h68l338 -508h-80l-293 451l-293 -451h-82z" />
    <glyph glyph-name="underscore" unicode="_" horiz-adv-x="888" 
d="M786 -68v-55h-684v55h684z" />
    <glyph glyph-name="grave" unicode="`" horiz-adv-x="751" 
d="M518 1157l-313 338h205l137 -338h-29z" />
    <glyph glyph-name="a" unicode="a" horiz-adv-x="1073" 
d="M387 -31q-119 0 -200 75t-81 192q0 157 102 243.5t320 108.5l172 16v94q0 139 -62.5 220t-170.5 81q-114 0 -165 -66t-32 -142q25 -105 -53 -127q-44 -12 -77.5 12.5t-33.5 83.5q1 49 25.5 99.5t71.5 95.5t127 73.5t180 28.5q167 0 263.5 -99t96.5 -270v-543
q0 -38 17 -60t45 -22q43 0 82 68l24 -10q-19 -45 -43.5 -77t-49 -47t-45.5 -21.5t-40 -6.5q-64 0 -112 46t-48 130v78q-44 -122 -126.5 -188t-186.5 -66zM283 285q0 -86 55 -142.5t135 -56.5q70 0 128 50t99 140v273l-157 -21q-260 -34 -260 -243z" />
    <glyph glyph-name="b" unicode="b" horiz-adv-x="1142" 
d="M637 1057q197 0 313.5 -145.5t116.5 -372.5q0 -256 -133.5 -413t-347.5 -157q-91 0 -171 36t-126 97l-105 -133h-28v1274q0 79 -32.5 102t-111.5 11v28l283 97h29v-676q28 112 113 182t200 70zM324 334q0 -122 72.5 -214.5t199.5 -92.5q130 0 209.5 119.5t79.5 308.5
q0 221 -87.5 361t-236.5 140q-84 0 -148.5 -60.5t-88.5 -152.5v-409z" />
    <glyph glyph-name="c" unicode="c" horiz-adv-x="1013" 
d="M891 719q-49 142 -135 211t-197 69q-133 0 -220 -118.5t-87 -298.5q0 -130 46.5 -239.5t137.5 -177t209 -67.5q97 0 172 58t109 159l24 -6q-25 -152 -130 -245t-257 -93q-208 0 -347.5 150t-139.5 375q0 118 36 222t98 178.5t148 117.5t183 43q65 0 122.5 -13.5t86 -27
t51.5 -19.5t32.5 6.5t14.5 53.5h24l48 -338h-29z" />
    <glyph glyph-name="d" unicode="d" horiz-adv-x="1191" 
d="M506 -31q-197 0 -313.5 145.5t-116.5 372.5q0 256 133.5 413t349.5 157q76 0 146 -28.5t114 -78.5v293q0 79 -32 102t-111 11v28l285 97h28v-1336q0 -38 17 -60t45 -22q43 0 82 68l24 -10q-37 -85 -85.5 -118.5t-92.5 -33.5q-68 0 -114 45.5t-46 114.5v96
q-27 -114 -111.5 -185t-201.5 -71zM258 573q0 -222 87.5 -362.5t236.5 -140.5q84 0 148.5 61.5t88.5 153.5v407q0 78 -29.5 146.5t-92.5 114.5t-148 46q-131 0 -211 -119t-80 -307z" />
    <glyph glyph-name="e" unicode="e" horiz-adv-x="1019" 
d="M555 -29q-149 0 -259.5 70.5t-165 187.5t-54.5 263q0 250 134.5 407.5t348.5 157.5q185 0 283 -126.5t82 -312.5h-670v-43q0 -211 101.5 -344t283.5 -133q89 0 161 56.5t101 148.5l27 -6q-25 -146 -128.5 -236t-244.5 -90zM258 666h496q5 88 -22 164t-82 122.5t-126 46.5
q-116 0 -184 -88t-82 -245z" />
    <glyph glyph-name="f" unicode="f" horiz-adv-x="866" 
d="M676 1026v-57h-285v-815q0 -64 45 -89t156 -36v-29h-516v29q35 6 58 13t45.5 20.5t33 36t10.5 55.5v815h-174v57h174v74q0 189 102 291t263 102q63 0 121.5 -13.5t103.5 -47.5t45 -84q0 -48 -40.5 -70.5t-78.5 -1.5q-25 9 -41.5 29t-26 41.5t-21 42.5t-34.5 34t-59 13
q-81 0 -123.5 -77.5t-42.5 -203.5v-129h285z" />
    <glyph glyph-name="g" unicode="g" horiz-adv-x="1079" 
d="M483 -434q-180 0 -280.5 66.5t-100.5 170.5q0 143 154 220q-64 20 -100.5 68.5t-36.5 115.5q0 66 39 123t114 88q-75 46 -118 118.5t-43 165.5q0 155 113.5 255t297.5 100h23q49 -1 108.5 -4.5t96.5 -5.5t77.5 -3t64 2.5t44 12.5t29 26t8.5 43h24l21 -163q-53 0 -270 41
q86 -45 135 -124.5t49 -179.5q0 -154 -113.5 -253t-296.5 -99q-125 0 -221 51q-82 -42 -82 -118q0 -70 59 -102.5t144 -12.5l199 45q85 22 161 11t133.5 -45t91 -96t33.5 -142q0 -170 -154.5 -272.5t-402.5 -102.5zM219 -160q0 -101 90.5 -161t231.5 -60q173 0 278 70.5
t105 191.5q0 108 -91 161t-219 24l-176 -43q-79 -19 -135 -11q-84 -73 -84 -172zM285 754q0 -151 71 -254t183 -103q99 0 158 71t59 185q0 154 -72 256.5t-178 102.5q-99 0 -160 -71.5t-61 -186.5z" />
    <glyph glyph-name="h" unicode="h" horiz-adv-x="1200" 
d="M1018 160q0 -63 31 -92t110 -39v-29h-452v29q79 10 110 39t31 92v542q0 112 -50.5 173t-144.5 61q-75 0 -143.5 -42.5t-142.5 -127.5v-606q0 -63 31 -92t110 -39v-29h-453v29q80 11 111 39.5t31 91.5v1083q0 79 -31.5 102t-110.5 11v28l283 97h29v-664q175 240 354 240
q141 0 219 -92.5t78 -253.5v-551z" />
    <glyph glyph-name="i" unicode="i" horiz-adv-x="571" 
d="M367 160q0 -63 31 -92t110 -39v-29h-453v29q80 11 111 39.5t31 91.5v659q0 81 -31.5 104t-110.5 9v29l283 96h29v-897zM152 1335q0 53 37 88t92 35q54 0 89.5 -35t35.5 -88t-35.5 -88t-89.5 -35q-55 0 -92 35t-37 88z" />
    <glyph glyph-name="j" unicode="j" horiz-adv-x="546" 
d="M76 961l284 96h29v-957q0 -226 -80 -351t-289 -183l-12 22q74 34 117 80t68.5 136.5t25.5 234.5v780q0 81 -32 104t-111 9v29zM164 1337q0 53 37 88t92 35q54 0 89.5 -35t35.5 -88t-35.5 -88t-89.5 -35q-55 0 -92 35t-37 88z" />
    <glyph glyph-name="k" unicode="k" horiz-adv-x="1150" 
d="M938 170q45 -75 90.5 -105.5t114.5 -35.5v-29h-332q1 26 -10.5 56t-42.5 85l-238 430l-153 -141v-270q0 -63 31 -92t110 -39v-29h-453v29q80 11 111 39.5t31 91.5v1083q0 79 -31.5 102t-110.5 11v28l283 97h29v-973l407 373q49 43 30 77.5t-99 38.5v29h391v-29
q-71 -7 -126.5 -37t-133.5 -100l-185 -168z" />
    <glyph glyph-name="l" unicode="l" horiz-adv-x="571" 
d="M367 160q0 -63 31 -92t110 -39v-29h-453v29q80 11 111 39.5t31 91.5v1083q0 79 -31.5 102t-110.5 11v28l283 97h29v-1321z" />
    <glyph glyph-name="m" unicode="m" horiz-adv-x="1835" 
d="M1655 160q0 -63 31 -92t110 -39v-29h-453v29q80 11 111 39.5t31 91.5v549q0 104 -57 166.5t-154 62.5q-70 0 -130 -40t-136 -126q2 -18 2 -55v-557q0 -63 31.5 -91.5t111.5 -39.5v-29h-455v29q80 11 111 39.5t31 91.5v549q0 104 -57 166.5t-152 62.5q-71 0 -128.5 -38.5
t-135.5 -123.5v-616q0 -63 31 -92t110 -39v-29h-453v29q80 11 111 39.5t31 91.5v659q0 81 -31.5 104t-110.5 9v29l283 96h29v-230q88 118 171 174t177 56q117 0 190.5 -63.5t95.5 -178.5q91 124 176.5 183t180.5 59q143 0 220 -91t77 -249v-557z" />
    <glyph glyph-name="n" unicode="n" horiz-adv-x="1200" 
d="M1018 160q0 -63 31 -92t110 -39v-29h-452v29q79 10 110 39t31 92v542q0 112 -50.5 173t-144.5 61q-75 0 -143.5 -42.5t-142.5 -127.5v-606q0 -63 31 -92t110 -39v-29h-453v29q80 11 111 39.5t31 91.5v659q0 81 -31.5 104t-110.5 9v29l283 96h29v-240q175 240 354 240
q141 0 219 -92.5t78 -253.5v-551z" />
    <glyph glyph-name="o" unicode="o" horiz-adv-x="1118" 
d="M549 -31q-211 0 -342 145t-131 378q0 252 136.5 408.5t354.5 156.5q212 0 343.5 -144t131.5 -376q0 -255 -136.5 -411.5t-356.5 -156.5zM254 616q0 -149 42 -283t121.5 -220t178.5 -86q119 0 193.5 107t74.5 274q0 150 -42.5 284.5t-122.5 220.5t-179 86
q-119 0 -192.5 -107t-73.5 -276z" />
    <glyph glyph-name="p" unicode="p" horiz-adv-x="1191" 
d="M666 1057q196 0 313 -145.5t117 -372.5q0 -255 -134.5 -412.5t-349.5 -157.5q-75 0 -146 29.5t-114 77.5v-326q0 -64 45 -89t156 -36v-28h-518v28q74 12 110.5 37.5t36.5 87.5v1069q0 81 -31.5 104t-109.5 9v29l283 96h28v-252q28 112 113.5 182t200.5 70zM352 334
q0 -57 17.5 -111t50 -98.5t85.5 -71t118 -26.5q130 0 210 119.5t80 308.5q0 145 -38 258t-112.5 178t-174.5 65q-83 0 -148.5 -61t-87.5 -152v-409z" />
    <glyph glyph-name="q" unicode="q" horiz-adv-x="1140" 
d="M989 -250q0 -33 10.5 -55.5t32.5 -36t45 -20.5t58 -13v-28h-517v28q111 11 156 36t45 89v471q-28 -112 -113 -182t-200 -70q-197 0 -313.5 145.5t-116.5 372.5q0 256 133.5 413t349.5 157q89 0 168 -35t125 -94l109 129h28v-1307zM258 573q0 -222 87.5 -362.5
t236.5 -140.5q84 0 148.5 61.5t88.5 153.5v407q0 78 -29.5 146.5t-92.5 114.5t-148 46q-131 0 -211 -119t-80 -307z" />
    <glyph glyph-name="r" unicode="r" horiz-adv-x="804" 
d="M633 1057q74 0 117 -30t43 -81q0 -38 -22 -64t-56 -26q-31 0 -52.5 17t-44 34t-55.5 17q-79 0 -137.5 -84t-58.5 -207v-475q0 -67 44.5 -92.5t155.5 -36.5v-29h-512v29q79 10 110.5 39.5t31.5 89.5v661q0 81 -31.5 104t-110.5 9v29l283 96h29v-269q30 128 103 198.5
t163 70.5z" />
    <glyph glyph-name="s" unicode="s" horiz-adv-x="888" 
d="M465 -29q-56 0 -110.5 15.5t-85.5 31.5t-56.5 23.5t-37.5 -8.5t-15 -64h-29l-53 346h28q51 -135 149 -210.5t208 -75.5q95 0 156 50t61 134q0 47 -20.5 84.5t-54.5 62.5t-78.5 46t-93.5 38.5t-98 36.5t-93.5 44.5t-78.5 57.5t-54.5 80.5t-20.5 108.5q0 127 92 206t232 79
q53 0 106 -15.5t83.5 -31t56 -23.5t36 7.5t11.5 62.5h28l51 -318h-28q-53 123 -140.5 191.5t-195.5 68.5q-84 0 -139.5 -47t-55.5 -123q0 -48 25.5 -84.5t67 -58.5t95 -44t108.5 -40t108.5 -46.5t95 -63.5t67 -92t25.5 -130q0 -128 -95.5 -213.5t-256.5 -85.5z" />
    <glyph glyph-name="t" unicode="t" horiz-adv-x="712" 
d="M666 121q-11 -28 -36.5 -60.5t-74 -62t-102.5 -29.5q-123 0 -190.5 78t-67.5 219v703h-168v28q247 62 309 297h29v-268h290v-57h-290v-699q0 -97 42 -153.5t123 -53.5q15 0 29 4t23 8t21 13t16.5 13t16 16t13.5 14z" />
    <glyph glyph-name="u" unicode="u" horiz-adv-x="1206" 
d="M993 -31q-68 0 -113.5 46t-45.5 116v78q-90 -123 -175.5 -181.5t-179.5 -58.5q-143 0 -220 91t-77 249v510q0 81 -31 104t-110 9v29l283 96h28v-727q0 -112 56 -170t155 -58q75 0 137 37t134 121v559q0 81 -32.5 104t-111.5 9v29l283 96h28v-912q0 -37 17.5 -59.5
t44.5 -22.5q45 0 84 68l24 -10q-37 -85 -85.5 -118.5t-92.5 -33.5z" />
    <glyph glyph-name="v" unicode="v" horiz-adv-x="1060" 
d="M156 864q-52 124 -148 133v29h453v-29q-86 -6 -115 -38.5t-4 -94.5l254 -647l262 647q50 124 -117 133v29h312v-29q-81 -9 -133 -133l-371 -895h-29z" />
    <glyph glyph-name="w" unicode="w" horiz-adv-x="1644" 
d="M754 868q-46 111 -142 129v29h443v-29q-161 -25 -117 -131l252 -649l258 651q45 102 -123 129v29h311v-29q-43 -8 -75 -39t-56 -92l-362 -897h-29l-287 713l-288 -713h-29l-356 893q-47 113 -146 135v29h445v-29q-162 -24 -119 -125l252 -655l213 537z" />
    <glyph glyph-name="x" unicode="x" horiz-adv-x="1062" 
d="M618 29q45 6 68 17t24.5 29.5t-6 35.5t-26.5 45l-195 297l-217 -283q-18 -24 -28.5 -42t-14 -36t4.5 -30t29.5 -20.5t57.5 -12.5v-29h-303v29q94 26 189 149l250 322l-244 372q-43 64 -83.5 91t-88.5 34v29h428v-29q-36 -2 -57 -9.5t-29 -17t-4.5 -27t11.5 -32t24 -39.5
l163 -247l181 233q24 31 35 53t10 41.5t-23 30.5t-65 14v29h305v-29q-47 -6 -92 -38.5t-105 -108.5l-213 -272l281 -426q68 -105 166 -123v-29h-433v29z" />
    <glyph glyph-name="y" unicode="y" horiz-adv-x="1085" 
d="M197 -434q-76 0 -131.5 33t-55.5 86q0 39 25.5 65.5t66.5 26.5q26 0 87.5 -34t109.5 -34q61 0 108 46.5t85 144.5l34 90l-364 870q-52 128 -139 137v29h446v-29q-171 -12 -119 -137l264 -653l258 653q52 125 -106 137v29h311v-29q-88 -9 -143 -137l-389 -979
q-24 -63 -55 -116t-73 -99.5t-98.5 -73t-121.5 -26.5z" />
    <glyph glyph-name="z" unicode="z" horiz-adv-x="960" 
d="M891 1026v-29l-631 -940h363q90 0 148 68t93 215h29l-43 -340h-801v29l631 940h-338q-87 0 -143 -57.5t-95 -192.5h-28l26 307h789z" />
    <glyph glyph-name="braceleft" unicode="{" horiz-adv-x="708" 
d="M96 588q94 20 136 75.5t42 155.5v381q0 141 94 209t285 68v-27q-109 -12 -161 -70.5t-52 -171.5v-379q0 -117 -48.5 -166.5t-184.5 -82.5q70 -18 111.5 -35.5t70.5 -46.5t40 -69t11 -101v-379q0 -113 52 -171.5t161 -70.5v-26q-191 0 -285 68t-94 208v381
q0 100 -42 155.5t-136 75.5v19z" />
    <glyph glyph-name="bar" unicode="|" horiz-adv-x="225" 
d="M82 -438v2056h61v-2056h-61z" />
    <glyph glyph-name="braceright" unicode="}" horiz-adv-x="708" 
d="M612 569q-94 -20 -136 -75.5t-42 -155.5v-381q0 -140 -94 -208t-285 -68v26q109 12 161 70.5t52 171.5v379q0 118 48.5 167.5t185.5 84.5q-136 33 -185 82.5t-49 166.5v379q0 113 -52 171.5t-161 70.5v27q191 0 285 -68t94 -209v-381q0 -100 42 -155.5t136 -75.5v-19z
" />
    <glyph glyph-name="asciitilde" unicode="~" horiz-adv-x="1306" 
d="M184 731q119 125 254 125q56 0 117 -21.5t105 -47t100.5 -47t105.5 -21.5q61 0 110.5 25t104.5 81l41 -34q-119 -125 -254 -125q-56 0 -116.5 21.5t-105 47t-101 47t-105.5 21.5q-60 0 -110 -25t-105 -82z" />
    <glyph glyph-name="uni00A0" unicode="&#xa0;" horiz-adv-x="446" 
 />
    <glyph glyph-name="exclamdown" unicode="&#xa1;" horiz-adv-x="489" 
d="M246 -465q-54 0 -78.5 40t-15.5 110l79 968h29l80 -968q9 -69 -16.5 -109.5t-77.5 -40.5zM115 911q0 57 39.5 96.5t95.5 39.5t95.5 -39.5t39.5 -96.5q0 -56 -39 -94.5t-96 -38.5q-56 0 -95.5 39t-39.5 94z" />
    <glyph glyph-name="cent" unicode="&#xa2;" horiz-adv-x="1013" 
d="M891 719q-49 142 -135 211t-197 69q-133 0 -220 -118.5t-87 -298.5q0 -130 46.5 -239.5t137.5 -177t209 -67.5q97 0 172 58t109 159l24 -6q-25 -149 -127 -242t-250 -96v-276h-57v278q-192 19 -316 165t-124 358q0 231 126 390.5t314 170.5v250h57v-250q42 -2 81 -10.5
t63.5 -18t47 -18.5t35 -13t23 -0.5t16 18t9.5 42.5h24l48 -338h-29z" />
    <glyph glyph-name="sterling" unicode="&#xa3;" horiz-adv-x="1218" 
d="M813 -29q-87 0 -169.5 26.5t-138 54t-116.5 44t-133.5 -5t-159.5 -90.5l-22 29q83 86 137 167t79.5 145.5t31 132.5t-1.5 119t-25 114h-238v57h219q-24 75 -34 108.5t-22.5 98t-12.5 119.5q0 169 123 280t313 111q109 0 198.5 -30t145 -90t55.5 -138q0 -32 -19 -57
t-48 -29q-32 -7 -58 7t-38 42q-10 34 -15.5 49.5t-18 46t-23 46t-29.5 37t-40 32t-51 18.5t-65 8q-125 0 -199.5 -78t-68.5 -196q3 -56 52.5 -182.5t61.5 -202.5h412v-57h-403q7 -129 -57 -270.5t-230 -309.5q87 55 166 80.5t135.5 23.5t113.5 -17t99.5 -35t94 -36t95.5 -16
q71 0 130.5 44t86.5 124l21 -6q-22 -155 -115.5 -236.5t-218.5 -81.5z" />
    <glyph glyph-name="currency" unicode="&#xa4;" horiz-adv-x="1286" 
d="M647 20q-189 0 -330 134l-163 -168l-37 39l166 165q-117 140 -117 322q0 186 117 322l-166 165l37 39l163 -168q141 134 330 134t324 -132l162 166l36 -39l-163 -163q118 -137 118 -324t-118 -324l163 -163l-36 -39l-162 166q-138 -132 -324 -132zM221 512
q0 -180 125.5 -307t300.5 -127q114 0 211 58t154 158t57 218q0 181 -123.5 307.5t-298.5 126.5t-300.5 -127t-125.5 -307z" />
    <glyph glyph-name="yen" unicode="&#xa5;" horiz-adv-x="1386" 
d="M1112 588h-307v-176h307v-58h-307v-159q0 -88 38 -122.5t144 -41.5v-31h-551v31q106 7 144 41.5t38 122.5v159h-303v58h303v176h-303v57h277l-348 615q-23 42 -40.5 66t-44.5 46t-63 33t-88 16v29h588v-29q-214 -21 -141 -151l321 -574l293 574q36 67 5 104t-136 47v29
h440v-29q-102 -10 -154.5 -45t-90.5 -110l-316 -621h295v-57z" />
    <glyph glyph-name="brokenbar" unicode="&#xa6;" horiz-adv-x="225" 
d="M143 369v-807h-61v807h61zM82 811v807h61v-807h-61z" />
    <glyph glyph-name="section" unicode="&#xa7;" horiz-adv-x="1067" 
d="M848 164q153 -88 153 -262q0 -154 -123.5 -247t-330.5 -93q-177 0 -307 97t-174 261l67 21q44 -143 156 -228.5t258 -85.5q169 0 272 75.5t103 199.5q0 32 -7.5 60.5t-18 51t-31.5 43.5t-38.5 36t-49.5 31t-53.5 25.5t-61 22.5t-61.5 19.5l-66 19.5q-58 17 -88 26.5
t-81.5 28.5t-80 35.5t-64.5 43.5t-54.5 56t-32 69t-13.5 87q0 75 45.5 144t128.5 120q-174 85 -174 258q0 140 118.5 231t301.5 91q164 0 279.5 -72.5t146.5 -195.5l-62 -23q-37 107 -133 166t-231 59q-153 0 -247.5 -70.5t-94.5 -185.5q0 -40 11.5 -73.5t28 -58.5t47.5 -47
t58 -36.5t72 -30.5t76 -24.5t83 -22.5q83 -23 126.5 -36.5t110.5 -44.5t101 -65t61 -90t27 -126q0 -153 -153 -260zM199 557q0 -40 11.5 -73.5t28.5 -58.5t49 -47.5t58 -36.5t72.5 -30.5t76 -25t83.5 -23.5q138 -37 198 -63q146 76 146 225q0 36 -8 67t-25.5 56t-36 45
t-51 38.5t-57 31t-67 27t-69 22.5t-73.5 22q-104 30 -162 53q-82 -31 -128 -91t-46 -138z" />
    <glyph glyph-name="dieresis" unicode="&#xa8;" horiz-adv-x="1005" 
d="M326 1210q-52 0 -86.5 33.5t-34.5 83.5q0 48 34.5 81.5t86.5 33.5q49 0 81.5 -33.5t32.5 -81.5q0 -50 -32.5 -83.5t-81.5 -33.5zM565 1327q0 48 34 81.5t85 33.5q50 0 83.5 -33.5t33.5 -81.5q0 -50 -33 -83.5t-84 -33.5t-85 33.5t-34 83.5z" />
    <glyph glyph-name="copyright" unicode="&#xa9;" 
d="M864 322q-169 0 -274 111t-105 292t105 292t274 111q122 0 208.5 -63.5t117.5 -175.5l-70 -12q-23 91 -89.5 139.5t-166.5 48.5q-142 0 -224.5 -91.5t-82.5 -248.5t82.5 -248.5t224.5 -91.5q200 0 256 186l68 -10q-34 -112 -119.5 -175.5t-204.5 -63.5zM102 725
q0 153 60 293t161.5 241.5t241.5 161.5t293 60t293 -60t241.5 -161.5t161.5 -241.5t60 -293t-60 -293t-161.5 -241.5t-241.5 -161.5t-293 -60t-293 60t-241.5 161.5t-161.5 241.5t-60 293zM170 725q0 -187 92.5 -346.5t251 -252.5t344.5 -93q187 0 346.5 93t252.5 252.5
t93 346.5t-93 346.5t-252.5 252.5t-346.5 93q-186 0 -344.5 -93t-251 -252.5t-92.5 -346.5z" />
    <glyph glyph-name="ordfeminine" unicode="&#xaa;" horiz-adv-x="606" 
d="M213 881q-67 0 -111.5 40.5t-44.5 104.5q0 88 57 135.5t181 59.5l88 10v55q0 74 -32.5 119t-88.5 45q-60 0 -85.5 -37.5t-16.5 -77.5q14 -64 -33 -75q-29 -7 -49.5 6.5t-20.5 48.5q2 62 62.5 114t169.5 52q96 0 151.5 -55.5t55.5 -149.5v-291q0 -47 34 -47q23 0 45 37
l15 -4q-36 -90 -113 -90q-36 0 -64 24t-28 68v49q-23 -69 -69 -105t-103 -36zM172 1057q0 -44 28.5 -74.5t69.5 -30.5q70 0 113 97v151l-78 -10q-133 -15 -133 -133z" />
    <glyph glyph-name="guillemotleft" unicode="&#xab;" horiz-adv-x="1060" 
d="M526 109l-473 403v39l475 403l23 -20l-346 -402l346 -403zM496 512v39l475 403l22 -20l-346 -402l346 -403l-24 -20z" />
    <glyph glyph-name="logicalnot" unicode="&#xac;" horiz-adv-x="1228" 
d="M184 657v62h860v-610h-57v548h-803z" />
    <glyph glyph-name="uni00AD" unicode="&#xad;" horiz-adv-x="716" 
d="M614 573v-55h-512v55h512z" />
    <glyph glyph-name="registered" unicode="&#xae;" horiz-adv-x="1060" 
d="M739 836h-55l-143 225h-113v-225h-45v473h160q67 0 106 -34.5t39 -90.5q0 -45 -26.5 -78t-71.5 -43zM102 1053q0 177 125.5 302.5t302.5 125.5t302.5 -125.5t125.5 -302.5q0 -175 -125.5 -300.5t-302.5 -125.5t-302.5 125.5t-125.5 300.5zM141 1053q0 -163 114 -278.5
t275 -115.5t276.5 115.5t115.5 278.5t-115.5 279t-276.5 116t-275 -116t-114 -279zM428 1104h109q104 0 104 80t-104 80h-109v-160z" />
    <glyph glyph-name="macron" unicode="&#xaf;" horiz-adv-x="935" 
d="M205 1210v58h526v-58h-526z" />
    <glyph glyph-name="degree" unicode="&#xb0;" horiz-adv-x="565" 
d="M281 969q-89 0 -152 63t-63 152q0 88 63 152t152 65q91 1 155 -62.5t64 -154.5q0 -89 -64 -152t-155 -63zM131 1184q0 -63 44.5 -108.5t105.5 -45.5q63 0 108 45.5t45 108.5t-45 108t-108 45q-62 0 -106 -45t-44 -108z" />
    <glyph glyph-name="plusminus" unicode="&#xb1;" horiz-adv-x="1228" 
d="M184 741v54h404v403h53v-403h403v-54h-403v-403h-53v403h-404zM184 -4v53h860v-53h-860z" />
    <glyph glyph-name="uni00B2" unicode="&#xb2;" horiz-adv-x="686" 
d="M305 1688q-81 0 -122.5 -57t-30.5 -124q8 -33 -7 -53.5t-41 -23.5q-32 -6 -53.5 12.5t-21.5 50.5q-3 90 80 159.5t200 69.5q136 0 217.5 -65.5t81.5 -173.5q0 -86 -44 -155.5t-111 -116t-136.5 -84.5t-131.5 -79t-85 -81h349q70 0 111.5 27t62.5 114l16 -4l-35 -270h-559
l2 28q2 65 26.5 120.5t61.5 96.5t81.5 79t88.5 75t80.5 76.5t59 91.5t22.5 112q0 72 -47.5 123.5t-114.5 51.5z" />
    <glyph glyph-name="uni00B3" unicode="&#xb3;" horiz-adv-x="684" 
d="M311 815q-102 0 -177.5 48t-98.5 130q-12 32 -2.5 62t41.5 39q38 11 63.5 -11t14.5 -82q-2 -60 41 -105.5t126 -45.5q74 0 122 55t48 148q0 100 -71 156t-203 55v24q107 18 173.5 79t66.5 151q0 75 -39 122.5t-101 47.5q-78 0 -116.5 -56.5t-28.5 -124.5q8 -35 -6 -54.5
t-41 -22.5q-33 -6 -53.5 11.5t-22.5 51.5q-3 91 77.5 160t197.5 69q121 0 194.5 -55t75.5 -143q3 -80 -63 -144t-177 -86q134 -4 209.5 -64t75.5 -159q0 -116 -92.5 -186t-233.5 -70z" />
    <glyph glyph-name="acute" unicode="&#xb4;" horiz-adv-x="751" 
d="M233 1157h-28l137 338h205z" />
    <glyph glyph-name="uni00B5" unicode="&#xb5;" horiz-adv-x="1091" 
d="M893 1026h61v-1026h-61v281q-50 -145 -154 -227.5t-239 -82.5q-104 0 -185 47t-116 129v-550h-62v1429h62v-702q0 -124 86 -208t215 -83q114 1 204.5 65.5t139.5 173.5t49 240v514z" />
    <glyph glyph-name="paragraph" unicode="&#xb6;" horiz-adv-x="1048" 
d="M385 788q-134 2 -226.5 87t-92.5 206q0 122 94 206.5t229 84.5h594v-61h-141v-1749h-74v1749h-311v-1749h-72v1226z" />
    <glyph glyph-name="periodcentered" unicode="&#xb7;" horiz-adv-x="421" 
d="M211 582q-56 0 -95.5 39t-39.5 96q0 55 39.5 94t95.5 39q57 0 96 -38.5t39 -94.5q0 -57 -39.5 -96t-95.5 -39z" />
    <glyph glyph-name="cedilla" unicode="&#xb8;" horiz-adv-x="720" 
d="M205 -403q85 -9 137.5 19t52.5 85q0 37 -34.5 65.5t-98.5 38.5l127 195h37l-72 -119q74 -4 118 -45t44 -102q0 -99 -83.5 -142.5t-227.5 -15.5v21z" />
    <glyph glyph-name="uni00B9" unicode="&#xb9;" horiz-adv-x="456" 
d="M31 850q82 6 107.5 26t25.5 68v623h-133v16q170 49 254 127h18v-766q0 -46 22.5 -66.5t86.5 -27.5v-16h-381v16z" />
    <glyph glyph-name="ordmasculine" unicode="&#xba;" horiz-adv-x="626" 
d="M307 881q-120 0 -194 79t-74 207q0 139 77.5 226.5t200.5 87.5q120 0 195.5 -80t75.5 -209q0 -139 -78 -225t-203 -86zM156 1243q0 -80 22 -155t64.5 -126t95.5 -51q60 0 97.5 57t37.5 146q0 128 -51.5 232t-130.5 104q-61 0 -98 -57.5t-37 -149.5z" />
    <glyph glyph-name="guillemotright" unicode="&#xbb;" horiz-adv-x="1060" 
d="M512 109l-25 20l347 403l-347 402l23 20l475 -403v-39zM47 129l346 403l-346 402l23 20l475 -403v-39l-473 -403z" />
    <glyph glyph-name="onequarter" unicode="&#xbc;" horiz-adv-x="1533" 
d="M31 596q82 6 107.5 26t25.5 68v623h-133v16q170 49 254 127h18v-766q0 -46 22.5 -66.5t86.5 -27.5v-16h-381v16zM317 0l754 1450h62l-754 -1450h-62zM811 238v16l393 635h105v-596h16q53 0 95.5 50t62.5 138h18l-33 -243h-159v-95q0 -63 21 -92t87 -35v-16h-385v16
q75 8 107 35.5t32 91.5v95h-360zM874 293h297v477z" />
    <glyph glyph-name="onehalf" unicode="&#xbd;" horiz-adv-x="1574" 
d="M31 596q82 6 107.5 26t25.5 68v623h-133v16q170 49 254 127h18v-766q0 -46 22.5 -66.5t86.5 -27.5v-16h-381v16zM317 0l754 1450h62l-754 -1450h-62zM918 659q-3 91 80 160.5t200 69.5q136 0 217.5 -66t81.5 -174q0 -86 -44 -155.5t-111 -116t-136.5 -84.5t-131.5 -79
t-85 -81h348q70 0 111.5 27t62.5 114l17 -4l-35 -270h-559l2 29q2 65 26.5 120.5t61.5 96.5t81.5 79t88.5 75t80.5 76.5t59 91.5t22.5 112q0 72 -47.5 123t-114.5 51q-81 0 -123 -56.5t-31 -123.5q8 -33 -6.5 -54t-40.5 -24q-32 -6 -53.5 12.5t-21.5 50.5z" />
    <glyph glyph-name="threequarters" unicode="&#xbe;" horiz-adv-x="1658" 
d="M311 561q-102 0 -177.5 48t-98.5 130q-12 32 -2.5 62t41.5 39q38 11 63.5 -10.5t14.5 -81.5q-2 -60 41 -106t126 -46q74 0 122 55t48 148q0 100 -71 156t-203 55v24q107 18 173.5 79t66.5 151q0 75 -39 122.5t-101 47.5q-78 0 -116.5 -56.5t-28.5 -124.5q8 -35 -6 -54.5
t-41 -22.5q-33 -6 -53.5 11.5t-22.5 51.5q-3 91 77.5 160t197.5 69q121 0 194.5 -55t75.5 -143q3 -80 -63 -144t-177 -86q134 -4 209.5 -64t75.5 -159q0 -116 -92.5 -186t-233.5 -70zM442 0l754 1450h61l-753 -1450h-62zM936 238v16l393 635h105v-596h16q53 0 95.5 50
t62.5 138h18l-33 -243h-159v-95q0 -63 21 -92t87 -35v-16h-385v16q75 8 107 35.5t32 91.5v95h-360zM999 293h297v477z" />
    <glyph glyph-name="questiondown" unicode="&#xbf;" horiz-adv-x="1024" 
d="M563 662q11 -96 2 -162t-33.5 -124t-56 -99.5t-66 -88t-63 -88.5t-47 -101t-18.5 -126q0 -123 77.5 -203t194.5 -80q125 0 192.5 90t53.5 203q-10 49 10 76.5t61 32.5q43 7 70.5 -19t30.5 -73q4 -96 -53 -180.5t-157.5 -134.5t-219.5 -50q-208 0 -326.5 94t-118.5 265
q0 70 24.5 132.5t63 109.5t85.5 92l94 90t85.5 93.5t62.5 113t24 137.5h28zM399 911q0 57 40 96.5t96 39.5t95.5 -39.5t39.5 -96.5q0 -55 -39.5 -94t-95.5 -39q-57 0 -96.5 38.5t-39.5 94.5z" />
    <glyph glyph-name="Agrave" unicode="&#xc0;" horiz-adv-x="1503" 
d="M1264 246q50 -119 100.5 -168t126.5 -49v-29h-588v29q137 0 174 44.5t-8 153.5l-102 254h-580l-102 -254q-44 -109 -8 -153.5t169 -44.5v-29h-434v29q72 0 120.5 49t98.5 168l500 1235h29zM410 539h532l-266 667zM526 1917h205l137 -338h-28z" />
    <glyph glyph-name="Aacute" unicode="&#xc1;" horiz-adv-x="1503" 
d="M1264 246q50 -119 100.5 -168t126.5 -49v-29h-588v29q137 0 174 44.5t-8 153.5l-102 254h-580l-102 -254q-44 -109 -8 -153.5t169 -44.5v-29h-434v29q72 0 120.5 49t98.5 168l500 1235h29zM410 539h532l-266 667zM721 1581l137 338h205l-313 -338h-29z" />
    <glyph glyph-name="Acircumflex" unicode="&#xc2;" horiz-adv-x="1503" 
d="M1264 246q50 -119 100.5 -168t126.5 -49v-29h-588v29q137 0 174 44.5t-8 153.5l-102 254h-580l-102 -254q-44 -109 -8 -153.5t169 -44.5v-29h-434v29q72 0 120.5 49t98.5 168l500 1235h29zM410 539h532l-266 667zM449 1597l206 326h160l211 -326l-20 -14l-271 240
l-266 -240z" />
    <glyph glyph-name="Atilde" unicode="&#xc3;" horiz-adv-x="1503" 
d="M1264 246q50 -119 100.5 -168t126.5 -49v-29h-588v29q137 0 174 44.5t-8 153.5l-102 254h-580l-102 -254q-44 -109 -8 -153.5t169 -44.5v-29h-434v29q72 0 120.5 49t98.5 168l500 1235h29zM410 539h532l-266 667zM451 1602q3 245 159 245q40 0 94 -28.5t105 -57t84 -28.5
q76 0 94 125l29 -3q-6 -249 -156 -249q-44 0 -98.5 28.5t-104 57t-82.5 28.5q-41 0 -64 -30t-32 -93z" />
    <glyph glyph-name="Adieresis" unicode="&#xc4;" horiz-adv-x="1503" 
d="M1264 246q50 -119 100.5 -168t126.5 -49v-29h-588v29q137 0 174 44.5t-8 153.5l-102 254h-580l-102 -254q-44 -109 -8 -153.5t169 -44.5v-29h-434v29q72 0 120.5 49t98.5 168l500 1235h29zM410 539h532l-266 667zM440 1751q0 48 34.5 81.5t86.5 33.5q49 0 82 -33.5
t33 -81.5q0 -50 -33 -83.5t-82 -33.5q-52 0 -86.5 33.5t-34.5 83.5zM801 1751q0 48 34 81.5t85 33.5q50 0 83 -33.5t33 -81.5q0 -50 -32.5 -83.5t-83.5 -33.5t-85 33.5t-34 83.5z" />
    <glyph glyph-name="Aring" unicode="&#xc5;" horiz-adv-x="1503" 
d="M1264 246q50 -119 100.5 -168t126.5 -49v-29h-588v29q137 0 174 44.5t-8 153.5l-102 254h-580l-102 -254q-44 -109 -8 -153.5t169 -44.5v-29h-434v29q72 0 120.5 49t98.5 168l500 1235h29zM410 539h532l-266 667zM537 1749q0 82 57 135t143 53q87 0 144 -53.5t57 -134.5
q0 -80 -57.5 -134t-143.5 -54t-143 54t-57 134zM614 1751q0 -55 35 -91t88 -36q54 0 88.5 35.5t34.5 91.5q0 54 -34.5 89.5t-88.5 35.5q-53 0 -88 -35.5t-35 -89.5z" />
    <glyph glyph-name="AE" unicode="&#xc6;" horiz-adv-x="2035" 
d="M1952 379h28l-55 -379h-1077v29q105 10 144.5 43t39.5 108v301h-526l-160 -254q-68 -103 -45.5 -150.5t152.5 -47.5v-29h-441v29q71 0 136.5 52.5t138.5 164.5l710 1126q-37 37 -149 49v29h911q90 0 103 31h28l66 -408h-29q-40 171 -119 245.5t-221 74.5h-368v-621h266
q90 0 126 48.5t27 160.5h29l66 -475h-29q-24 111 -73 160t-128 49h-284v-522q0 -74 26 -105t90 -31h289q132 0 211 77.5t117 244.5zM543 539h489v731q0 27 -2 37z" />
    <glyph glyph-name="Ccedilla" unicode="&#xc7;" horiz-adv-x="1409" 
d="M1208 1481l60 -416h-29q-55 173 -171.5 265.5t-276.5 92.5q-208 0 -341 -180t-133 -467q0 -194 70 -352t196 -248t283 -90q152 0 265 97.5t157 265.5l31 -9q-29 -214 -174.5 -341t-349.5 -132l-52 -86q74 -4 118 -45t44 -102q0 -99 -83.5 -142.5t-227.5 -15.5v21
q85 -9 137.5 19t52.5 85q0 37 -34.5 65.5t-98.5 38.5l107 162q-189 6 -335.5 101t-226 257t-79.5 365q0 228 84.5 408.5t237.5 281.5t349 101q67 0 133.5 -15.5t105 -30.5t72.5 -23t52.5 7.5t28.5 61.5h28z" />
    <glyph glyph-name="Egrave" unicode="&#xc8;" horiz-adv-x="1265" 
d="M1182 379h28l-55 -379h-1077v29q105 10 144.5 43t39.5 108v1090q0 75 -39.5 108t-144.5 43v29h911q90 0 103 31h28l66 -408h-29q-40 171 -119 245.5t-221 74.5h-368v-621h266q90 0 126 48.5t27 160.5h29l66 -475h-29q-24 111 -73 160t-128 49h-284v-522q0 -74 26 -105
t90 -31h289q132 0 211 77.5t117 244.5zM451 1917h204l138 -338h-29z" />
    <glyph glyph-name="Eacute" unicode="&#xc9;" horiz-adv-x="1265" 
d="M1182 379h28l-55 -379h-1077v29q105 10 144.5 43t39.5 108v1090q0 75 -39.5 108t-144.5 43v29h911q90 0 103 31h28l66 -408h-29q-40 171 -119 245.5t-221 74.5h-368v-621h266q90 0 126 48.5t27 160.5h29l66 -475h-29q-24 111 -73 160t-128 49h-284v-522q0 -74 26 -105
t90 -31h289q132 0 211 77.5t117 244.5zM645 1581l137 338h205l-313 -338h-29z" />
    <glyph glyph-name="Ecircumflex" unicode="&#xca;" horiz-adv-x="1265" 
d="M1182 379h28l-55 -379h-1077v29q105 10 144.5 43t39.5 108v1090q0 75 -39.5 108t-144.5 43v29h911q90 0 103 31h28l66 -408h-29q-40 171 -119 245.5t-221 74.5h-368v-621h266q90 0 126 48.5t27 160.5h29l66 -475h-29q-24 111 -73 160t-128 49h-284v-522q0 -74 26 -105
t90 -31h289q132 0 211 77.5t117 244.5zM373 1597l207 326h159l211 -326l-20 -14l-271 240l-266 -240z" />
    <glyph glyph-name="Edieresis" unicode="&#xcb;" horiz-adv-x="1265" 
d="M1182 379h28l-55 -379h-1077v29q105 10 144.5 43t39.5 108v1090q0 75 -39.5 108t-144.5 43v29h911q90 0 103 31h28l66 -408h-29q-40 171 -119 245.5t-221 74.5h-368v-621h266q90 0 126 48.5t27 160.5h29l66 -475h-29q-24 111 -73 160t-128 49h-284v-522q0 -74 26 -105
t90 -31h289q132 0 211 77.5t117 244.5zM365 1751q0 48 34 81.5t86 33.5q49 0 82 -33.5t33 -81.5q0 -50 -33 -83.5t-82 -33.5q-52 0 -86 33.5t-34 83.5zM725 1751q0 48 34 81.5t85 33.5q50 0 83.5 -33.5t33.5 -81.5q0 -50 -33 -83.5t-84 -33.5t-85 33.5t-34 83.5z" />
    <glyph glyph-name="Igrave" unicode="&#xcc;" horiz-adv-x="710" 
d="M449 180q0 -75 39.5 -108t144.5 -43v-29h-555v29q105 10 144.5 43t39.5 108v1090q0 75 -39.5 108t-144.5 43v29h555v-29q-105 -10 -144.5 -43t-39.5 -108v-1090zM145 1917h205l137 -338h-28z" />
    <glyph glyph-name="Iacute" unicode="&#xcd;" horiz-adv-x="710" 
d="M449 180q0 -75 39.5 -108t144.5 -43v-29h-555v29q105 10 144.5 43t39.5 108v1090q0 75 -39.5 108t-144.5 43v29h555v-29q-105 -10 -144.5 -43t-39.5 -108v-1090zM342 1581l137 338h205l-313 -338h-29z" />
    <glyph glyph-name="Icircumflex" unicode="&#xce;" horiz-adv-x="710" 
d="M449 180q0 -75 39.5 -108t144.5 -43v-29h-555v29q105 10 144.5 43t39.5 108v1090q0 75 -39.5 108t-144.5 43v29h555v-29q-105 -10 -144.5 -43t-39.5 -108v-1090zM70 1597l206 326h160l211 -326l-20 -14l-271 240l-266 -240z" />
    <glyph glyph-name="Idieresis" unicode="&#xcf;" horiz-adv-x="710" 
d="M449 180q0 -75 39.5 -108t144.5 -43v-29h-555v29q105 10 144.5 43t39.5 108v1090q0 75 -39.5 108t-144.5 43v29h555v-29q-105 -10 -144.5 -43t-39.5 -108v-1090zM59 1751q0 48 34.5 81.5t86.5 33.5q49 0 82 -33.5t33 -81.5q0 -50 -33 -83.5t-82 -33.5q-52 0 -86.5 33.5
t-34.5 83.5zM420 1751q0 48 34 81.5t85 33.5q50 0 83 -33.5t33 -81.5q0 -50 -32.5 -83.5t-83.5 -33.5t-85 33.5t-34 83.5z" />
    <glyph glyph-name="Eth" unicode="&#xd0;" horiz-adv-x="1527" 
d="M666 1450q339 0 542 -185t203 -499q0 -351 -195 -558.5t-520 -207.5h-618v29q105 10 144.5 43t39.5 108v514h-217v58h217v518q0 75 -39.5 108t-144.5 43v29h588zM449 195q0 -72 32.5 -105t102.5 -33h112q148 0 265 84t183 235t66 343q0 313 -157.5 493.5t-421.5 180.5
h-182v-641h237v-58h-237v-499z" />
    <glyph glyph-name="Ntilde" unicode="&#xd1;" horiz-adv-x="1509" 
d="M1006 1450h426v-29q-106 -11 -146.5 -43.5t-40.5 -107.5v-1270h-45l-881 1239v-1059q0 -75 40 -108t145 -43v-29h-426v29q105 10 144.5 43t39.5 108v1092q0 77 -39.5 110t-142.5 39v29h319l789 -1128v948q0 76 -38.5 108.5t-143.5 42.5v29zM471 1602q2 115 41 180t119 65
q40 0 93.5 -28.5t104.5 -57t84 -28.5q77 0 95 125l28 -3q-6 -249 -155 -249q-44 0 -98.5 28.5t-104 57t-82.5 28.5q-41 0 -64 -30t-32 -93z" />
    <glyph glyph-name="Ograve" unicode="&#xd2;" horiz-adv-x="1605" 
d="M799 -31q-205 0 -361 95.5t-238.5 259.5t-82.5 370q0 172 51.5 319t143 249.5t220 160.5t277.5 58q153 0 281.5 -55.5t215 -152.5t135 -230t48.5 -287q0 -228 -88.5 -408t-246 -279.5t-355.5 -99.5zM317 752q3 -206 69 -372t185 -261t267 -92q136 3 239.5 88t158.5 236.5
t52 346.5q-4 208 -69.5 373.5t-182.5 259.5t-266 92q-139 -2 -243.5 -87.5t-159 -237t-50.5 -346.5zM586 1917h205l137 -338h-29z" />
    <glyph glyph-name="Oacute" unicode="&#xd3;" horiz-adv-x="1605" 
d="M799 -31q-205 0 -361 95.5t-238.5 259.5t-82.5 370q0 172 51.5 319t143 249.5t220 160.5t277.5 58q153 0 281.5 -55.5t215 -152.5t135 -230t48.5 -287q0 -228 -88.5 -408t-246 -279.5t-355.5 -99.5zM317 752q3 -206 69 -372t185 -261t267 -92q136 3 239.5 88t158.5 236.5
t52 346.5q-4 208 -69.5 373.5t-182.5 259.5t-266 92q-139 -2 -243.5 -87.5t-159 -237t-50.5 -346.5zM780 1581l138 338h204l-313 -338h-29z" />
    <glyph glyph-name="Ocircumflex" unicode="&#xd4;" horiz-adv-x="1605" 
d="M799 -31q-205 0 -361 95.5t-238.5 259.5t-82.5 370q0 172 51.5 319t143 249.5t220 160.5t277.5 58q153 0 281.5 -55.5t215 -152.5t135 -230t48.5 -287q0 -228 -88.5 -408t-246 -279.5t-355.5 -99.5zM317 752q3 -206 69 -372t185 -261t267 -92q136 3 239.5 88t158.5 236.5
t52 346.5q-4 208 -69.5 373.5t-182.5 259.5t-266 92q-139 -2 -243.5 -87.5t-159 -237t-50.5 -346.5zM508 1597l207 326h159l211 -326l-20 -14l-270 240l-267 -240z" />
    <glyph glyph-name="Otilde" unicode="&#xd5;" horiz-adv-x="1605" 
d="M799 -31q-205 0 -361 95.5t-238.5 259.5t-82.5 370q0 172 51.5 319t143 249.5t220 160.5t277.5 58q153 0 281.5 -55.5t215 -152.5t135 -230t48.5 -287q0 -228 -88.5 -408t-246 -279.5t-355.5 -99.5zM317 752q3 -206 69 -372t185 -261t267 -92q136 3 239.5 88t158.5 236.5
t52 346.5q-4 208 -69.5 373.5t-182.5 259.5t-266 92q-139 -2 -243.5 -87.5t-159 -237t-50.5 -346.5zM510 1602q2 115 41 180t119 65q40 0 93.5 -28.5t104.5 -57t84 -28.5q77 0 95 125l28 -3q-6 -249 -155 -249q-44 0 -98.5 28.5t-104 57t-82.5 28.5q-41 0 -64 -30t-32 -93z
" />
    <glyph glyph-name="Odieresis" unicode="&#xd6;" horiz-adv-x="1605" 
d="M799 -31q-205 0 -361 95.5t-238.5 259.5t-82.5 370q0 172 51.5 319t143 249.5t220 160.5t277.5 58q153 0 281.5 -55.5t215 -152.5t135 -230t48.5 -287q0 -228 -88.5 -408t-246 -279.5t-355.5 -99.5zM317 752q3 -206 69 -372t185 -261t267 -92q136 3 239.5 88t158.5 236.5
t52 346.5q-4 208 -69.5 373.5t-182.5 259.5t-266 92q-139 -2 -243.5 -87.5t-159 -237t-50.5 -346.5zM498 1751q0 48 34 81.5t86 33.5q49 0 82 -33.5t33 -81.5q0 -50 -33 -83.5t-82 -33.5q-52 0 -86 33.5t-34 83.5zM858 1751q0 48 34 81.5t85 33.5q50 0 83.5 -33.5
t33.5 -81.5q0 -50 -33 -83.5t-84 -33.5t-85 33.5t-34 83.5z" />
    <glyph glyph-name="multiply" unicode="&#xd7;" horiz-adv-x="1071" 
d="M225 293l-41 37l312 311l-312 309l41 39l310 -309l311 309l41 -37l-314 -313l312 -311l-39 -37l-311 311z" />
    <glyph glyph-name="Oslash" unicode="&#xd8;" horiz-adv-x="1605" 
d="M799 -31q-287 0 -473 183l-166 -185l-43 35l172 191q-172 200 -172 501q0 172 51.5 319t143 249.5t220 160.5t277.5 58q285 0 473 -185l166 185l41 -35l-170 -189q170 -201 170 -501q0 -228 -88.5 -408t-246 -279.5t-355.5 -99.5zM317 752q3 -236 93 -424l759 843
q-69 121 -171.5 187t-227.5 65q-139 -2 -243.5 -87.5t-159 -237t-50.5 -346.5zM438 276q70 -121 173 -186.5t227 -62.5q136 3 239.5 88t158.5 236.5t52 346.5q-6 246 -92 422z" />
    <glyph glyph-name="Ugrave" unicode="&#xd9;" horiz-adv-x="1495" 
d="M1024 1421v29h430v-29q-106 -10 -146 -43t-40 -108v-760q0 -247 -135.5 -394t-362.5 -147q-255 0 -399 143t-144 398v760q0 75 -40 108t-146 43v29h557v-29q-106 -10 -146 -43t-40 -108v-760q0 -214 112 -343.5t297 -129.5q181 0 285 128.5t104 344.5v760q0 75 -40 108
t-146 43zM571 1917h205l137 -338h-28z" />
    <glyph glyph-name="Uacute" unicode="&#xda;" horiz-adv-x="1495" 
d="M1024 1421v29h430v-29q-106 -10 -146 -43t-40 -108v-760q0 -247 -135.5 -394t-362.5 -147q-255 0 -399 143t-144 398v760q0 75 -40 108t-146 43v29h557v-29q-106 -10 -146 -43t-40 -108v-760q0 -214 112 -343.5t297 -129.5q181 0 285 128.5t104 344.5v760q0 75 -40 108
t-146 43zM768 1581l137 338h205l-313 -338h-29z" />
    <glyph glyph-name="Ucircumflex" unicode="&#xdb;" horiz-adv-x="1495" 
d="M1024 1421v29h430v-29q-106 -10 -146 -43t-40 -108v-760q0 -247 -135.5 -394t-362.5 -147q-255 0 -399 143t-144 398v760q0 75 -40 108t-146 43v29h557v-29q-106 -10 -146 -43t-40 -108v-760q0 -214 112 -343.5t297 -129.5q181 0 285 128.5t104 344.5v760q0 75 -40 108
t-146 43zM496 1597l206 326h160l211 -326l-20 -14l-271 240l-266 -240z" />
    <glyph glyph-name="Udieresis" unicode="&#xdc;" horiz-adv-x="1495" 
d="M1024 1421v29h430v-29q-106 -10 -146 -43t-40 -108v-760q0 -247 -135.5 -394t-362.5 -147q-255 0 -399 143t-144 398v760q0 75 -40 108t-146 43v29h557v-29q-106 -10 -146 -43t-40 -108v-760q0 -214 112 -343.5t297 -129.5q181 0 285 128.5t104 344.5v760q0 75 -40 108
t-146 43zM512 1751q0 48 34.5 81.5t86.5 33.5q49 0 82 -33.5t33 -81.5q0 -50 -33 -83.5t-82 -33.5q-52 0 -86.5 33.5t-34.5 83.5zM872 1751q0 48 34 81.5t85 33.5q50 0 83.5 -33.5t33.5 -81.5q0 -50 -33 -83.5t-84 -33.5t-85 33.5t-34 83.5z" />
    <glyph glyph-name="Yacute" unicode="&#xdd;" horiz-adv-x="1386" 
d="M938 1450h440v-29q-102 -10 -154.5 -45t-90.5 -110l-328 -643v-428q0 -88 38 -122.5t144 -41.5v-31h-551v31q106 7 144 41.5t38 122.5v403l-374 662q-23 42 -40.5 66t-44.5 46t-63 33t-88 16v29h588v-29q-214 -21 -141 -151l321 -574l293 574q36 67 5 104t-136 47v29z
M729 1581l137 338h205l-313 -338h-29z" />
    <glyph glyph-name="Thorn" unicode="&#xde;" horiz-adv-x="1310" 
d="M78 29q105 6 144.5 40.5t39.5 129.5v1052q0 95 -39.5 129.5t-144.5 40.5v29h555v-29q-103 -6 -143.5 -39t-40.5 -131v-118h202q250 0 396.5 -110t146.5 -296q0 -188 -146.5 -298t-396.5 -110h-202v-120q0 -98 40.5 -131t143.5 -39v-29h-555v29zM449 377h169q173 0 274 98
t101 252t-100 251t-275 97h-169v-698z" />
    <glyph glyph-name="germandbls" unicode="&#xdf;" horiz-adv-x="1247" 
d="M49 969v57h174v72q0 180 132 290.5t331 110.5q198 0 318 -73t120 -207q0 -68 -24.5 -118t-63.5 -78.5t-86.5 -49t-95 -36.5t-86.5 -33.5t-63.5 -47t-24.5 -70.5q0 -45 29.5 -80t76 -59.5t103 -47.5t113 -50.5t103 -62.5t74.5 -90t27 -126q-2 -133 -88 -216t-233 -83
q-125 0 -224.5 68.5t-146.5 189.5l39 21q41 -98 129 -157.5t188 -59.5q92 0 146.5 48.5t54.5 127.5q0 56 -29 99t-75.5 70t-102.5 50.5t-112 48.5t-102 55t-74.5 78.5t-28.5 112.5q0 59 23 103t59.5 70.5t81 48l89 43t81 48t59.5 70.5t23 104q0 110 -78.5 176t-206.5 64
q-130 0 -208.5 -86t-78.5 -234v-1130h-315v29q35 6 58 13t45.5 20.5t33 36t10.5 55.5v815h-174z" />
    <glyph glyph-name="agrave" unicode="&#xe0;" horiz-adv-x="1073" 
d="M387 -31q-119 0 -200 75t-81 192q0 157 102 243.5t320 108.5l172 16v94q0 139 -62.5 220t-170.5 81q-114 0 -165 -66t-32 -142q25 -105 -53 -127q-44 -12 -77.5 12.5t-33.5 83.5q1 49 25.5 99.5t71.5 95.5t127 73.5t180 28.5q167 0 263.5 -99t96.5 -270v-543
q0 -38 17 -60t45 -22q43 0 82 68l24 -10q-19 -45 -43.5 -77t-49 -47t-45.5 -21.5t-40 -6.5q-64 0 -112 46t-48 130v78q-44 -122 -126.5 -188t-186.5 -66zM283 285q0 -86 55 -142.5t135 -56.5q70 0 128 50t99 140v273l-157 -21q-260 -34 -260 -243zM299 1493h205l137 -338
h-29z" />
    <glyph glyph-name="aacute" unicode="&#xe1;" horiz-adv-x="1073" 
d="M387 -31q-119 0 -200 75t-81 192q0 157 102 243.5t320 108.5l172 16v94q0 139 -62.5 220t-170.5 81q-114 0 -165 -66t-32 -142q25 -105 -53 -127q-44 -12 -77.5 12.5t-33.5 83.5q1 49 25.5 99.5t71.5 95.5t127 73.5t180 28.5q167 0 263.5 -99t96.5 -270v-543
q0 -38 17 -60t45 -22q43 0 82 68l24 -10q-19 -45 -43.5 -77t-49 -47t-45.5 -21.5t-40 -6.5q-64 0 -112 46t-48 130v78q-44 -122 -126.5 -188t-186.5 -66zM283 285q0 -86 55 -142.5t135 -56.5q70 0 128 50t99 140v273l-157 -21q-260 -34 -260 -243zM496 1157l137 338h205
l-314 -338h-28z" />
    <glyph glyph-name="acircumflex" unicode="&#xe2;" horiz-adv-x="1073" 
d="M387 -31q-119 0 -200 75t-81 192q0 157 102 243.5t320 108.5l172 16v94q0 139 -62.5 220t-170.5 81q-114 0 -165 -66t-32 -142q25 -105 -53 -127q-44 -12 -77.5 12.5t-33.5 83.5q1 49 25.5 99.5t71.5 95.5t127 73.5t180 28.5q167 0 263.5 -99t96.5 -270v-543
q0 -38 17 -60t45 -22q43 0 82 68l24 -10q-19 -45 -43.5 -77t-49 -47t-45.5 -21.5t-40 -6.5q-64 0 -112 46t-48 130v78q-44 -122 -126.5 -188t-186.5 -66zM223 1174l207 325h160l211 -325l-21 -15l-270 240l-266 -240zM283 285q0 -86 55 -142.5t135 -56.5q70 0 128 50t99 140
v273l-157 -21q-260 -34 -260 -243z" />
    <glyph glyph-name="atilde" unicode="&#xe3;" horiz-adv-x="1073" 
d="M387 -31q-119 0 -200 75t-81 192q0 157 102 243.5t320 108.5l172 16v94q0 139 -62.5 220t-170.5 81q-114 0 -165 -66t-32 -142q25 -105 -53 -127q-44 -12 -77.5 12.5t-33.5 83.5q1 49 25.5 99.5t71.5 95.5t127 73.5t180 28.5q167 0 263.5 -99t96.5 -270v-543
q0 -38 17 -60t45 -22q43 0 82 68l24 -10q-19 -45 -43.5 -77t-49 -47t-45.5 -21.5t-40 -6.5q-64 0 -112 46t-48 130v78q-44 -122 -126.5 -188t-186.5 -66zM225 1178q2 115 41 180t119 65q40 0 94 -28.5t105 -57t84 -28.5q76 0 94 125l29 -2q-6 -250 -156 -250
q-44 0 -98.5 28.5t-104 57t-82.5 28.5q-41 0 -64 -29.5t-32 -92.5zM283 285q0 -86 55 -142.5t135 -56.5q70 0 128 50t99 140v273l-157 -21q-260 -34 -260 -243z" />
    <glyph glyph-name="adieresis" unicode="&#xe4;" horiz-adv-x="1073" 
d="M387 -31q-119 0 -200 75t-81 192q0 157 102 243.5t320 108.5l172 16v94q0 139 -62.5 220t-170.5 81q-114 0 -165 -66t-32 -142q25 -105 -53 -127q-44 -12 -77.5 12.5t-33.5 83.5q1 49 25.5 99.5t71.5 95.5t127 73.5t180 28.5q167 0 263.5 -99t96.5 -270v-543
q0 -38 17 -60t45 -22q43 0 82 68l24 -10q-19 -45 -43.5 -77t-49 -47t-45.5 -21.5t-40 -6.5q-64 0 -112 46t-48 130v78q-44 -122 -126.5 -188t-186.5 -66zM213 1327q0 48 34.5 81.5t86.5 33.5q49 0 82 -33.5t33 -81.5q0 -50 -33 -83.5t-82 -33.5q-52 0 -86.5 33.5t-34.5 83.5
zM283 285q0 -86 55 -142.5t135 -56.5q70 0 128 50t99 140v273l-157 -21q-260 -34 -260 -243zM573 1327q0 48 34 81.5t85 33.5q50 0 83.5 -33.5t33.5 -81.5q0 -50 -33 -83.5t-84 -33.5t-85 33.5t-34 83.5z" />
    <glyph glyph-name="aring" unicode="&#xe5;" horiz-adv-x="1073" 
d="M387 -31q-119 0 -200 75t-81 192q0 157 102 243.5t320 108.5l172 16v94q0 139 -62.5 220t-170.5 81q-114 0 -165 -66t-32 -142q25 -105 -53 -127q-44 -12 -77.5 12.5t-33.5 83.5q1 49 25.5 99.5t71.5 95.5t127 73.5t180 28.5q167 0 263.5 -99t96.5 -270v-543
q0 -38 17 -60t45 -22q43 0 82 68l24 -10q-19 -45 -43.5 -77t-49 -47t-45.5 -21.5t-40 -6.5q-64 0 -112 46t-48 130v78q-44 -122 -126.5 -188t-186.5 -66zM283 285q0 -86 55 -142.5t135 -56.5q70 0 128 50t99 140v273l-157 -21q-260 -34 -260 -243zM311 1325q0 81 57 134.5
t144 53.5t144 -53.5t57 -134.5q0 -80 -57.5 -134t-143.5 -54t-143.5 54t-57.5 134zM389 1327q0 -55 35 -91t88 -36q54 0 88.5 35.5t34.5 91.5q0 54 -34.5 89.5t-88.5 35.5q-53 0 -88 -35.5t-35 -89.5z" />
    <glyph glyph-name="ae" unicode="&#xe6;" horiz-adv-x="1640" 
d="M510 1057q109 0 189 -44t122 -124q65 80 157.5 124t201.5 44q185 0 282.5 -126.5t81.5 -312.5h-670v-43q0 -211 102 -344t284 -133q89 0 161 56.5t101 148.5l26 -6q-25 -146 -128 -236t-244 -90q-161 0 -274.5 79.5t-166.5 215.5q-37 -152 -125.5 -224.5t-210.5 -72.5
q-127 0 -210 74.5t-83 192.5q0 157 102 243.5t320 108.5l172 16v94q0 139 -62.5 220t-170.5 81q-114 0 -165 -66t-32 -142q25 -105 -53 -127q-44 -12 -77.5 12.5t-33.5 83.5q1 49 25.5 99.5t71.5 95.5t127 73.5t180 28.5zM283 285q0 -86 55 -142.5t135 -56.5
q86 0 150.5 57.5t95.5 173.5q-23 87 -23 175q0 39 2 57l-155 -21q-260 -34 -260 -243zM879 666h495q5 88 -21.5 164t-81.5 122.5t-126 46.5q-116 0 -184 -88t-82 -245z" />
    <glyph glyph-name="ccedilla" unicode="&#xe7;" horiz-adv-x="1013" 
d="M891 719q-49 142 -135 211t-197 69q-133 0 -220 -118.5t-87 -298.5q0 -130 46.5 -239.5t137.5 -177t209 -67.5q97 0 172 58t109 159l24 -6q-25 -152 -130 -245t-257 -93l-55 -90q74 -4 118 -45t44 -102q0 -99 -84 -142.5t-228 -15.5v21q85 -9 138 19t53 85
q0 37 -34.5 65.5t-98.5 38.5l108 168q-193 14 -320.5 161.5t-127.5 361.5q0 118 36 222t98 178.5t148 117.5t183 43q65 0 122.5 -13.5t86 -27t51.5 -19.5t32.5 6.5t14.5 53.5h24l48 -338h-29z" />
    <glyph glyph-name="egrave" unicode="&#xe8;" horiz-adv-x="1019" 
d="M555 -29q-149 0 -259.5 70.5t-165 187.5t-54.5 263q0 250 134.5 407.5t348.5 157.5q185 0 283 -126.5t82 -312.5h-670v-43q0 -211 101.5 -344t283.5 -133q89 0 161 56.5t101 148.5l27 -6q-25 -146 -128.5 -236t-244.5 -90zM258 666h496q5 88 -22 164t-82 122.5t-126 46.5
q-116 0 -184 -88t-82 -245zM328 1495h204l138 -338h-29z" />
    <glyph glyph-name="eacute" unicode="&#xe9;" horiz-adv-x="1019" 
d="M555 -29q-149 0 -259.5 70.5t-165 187.5t-54.5 263q0 250 134.5 407.5t348.5 157.5q185 0 283 -126.5t82 -312.5h-670v-43q0 -211 101.5 -344t283.5 -133q89 0 161 56.5t101 148.5l27 -6q-25 -146 -128.5 -236t-244.5 -90zM258 666h496q5 88 -22 164t-82 122.5t-126 46.5
q-116 0 -184 -88t-82 -245zM524 1159l138 338h204l-313 -338h-29z" />
    <glyph glyph-name="ecircumflex" unicode="&#xea;" horiz-adv-x="1019" 
d="M555 -29q-149 0 -259.5 70.5t-165 187.5t-54.5 263q0 250 134.5 407.5t348.5 157.5q185 0 283 -126.5t82 -312.5h-670v-43q0 -211 101.5 -344t283.5 -133q89 0 161 56.5t101 148.5l27 -6q-25 -146 -128.5 -236t-244.5 -90zM252 1176l207 325h159l211 -325l-20 -15
l-270 240l-267 -240zM258 666h496q5 88 -22 164t-82 122.5t-126 46.5q-116 0 -184 -88t-82 -245z" />
    <glyph glyph-name="edieresis" unicode="&#xeb;" horiz-adv-x="1019" 
d="M555 -29q-149 0 -259.5 70.5t-165 187.5t-54.5 263q0 250 134.5 407.5t348.5 157.5q185 0 283 -126.5t82 -312.5h-670v-43q0 -211 101.5 -344t283.5 -133q89 0 161 56.5t101 148.5l27 -6q-25 -146 -128.5 -236t-244.5 -90zM242 1329q0 48 34 81.5t86 33.5q49 0 82 -33.5
t33 -81.5q0 -50 -33 -83.5t-82 -33.5q-52 0 -86 33.5t-34 83.5zM258 666h496q5 88 -22 164t-82 122.5t-126 46.5q-116 0 -184 -88t-82 -245zM602 1329q0 48 34 81.5t85 33.5q50 0 83.5 -33.5t33.5 -81.5q0 -50 -33 -83.5t-84 -33.5t-85 33.5t-34 83.5z" />
    <glyph glyph-name="igrave" unicode="&#xec;" horiz-adv-x="571" 
d="M367 160q0 -63 31 -92t110 -39v-29h-453v29q80 11 111 39.5t31 91.5v659q0 81 -31.5 104t-110.5 9v29l283 96h29v-897zM88 1493h205l137 -338h-29z" />
    <glyph glyph-name="iacute" unicode="&#xed;" horiz-adv-x="571" 
d="M367 160q0 -63 31 -92t110 -39v-29h-453v29q80 11 111 39.5t31 91.5v659q0 81 -31.5 104t-110.5 9v29l283 96h29v-897zM264 1157l137 338h205l-313 -338h-29z" />
    <glyph glyph-name="icircumflex" unicode="&#xee;" horiz-adv-x="571" 
d="M367 160q0 -63 31 -92t110 -39v-29h-453v29q80 11 111 39.5t31 91.5v659q0 81 -31.5 104t-110.5 9v29l283 96h29v-897zM-8 1174l207 325h159l211 -325l-20 -15l-270 240l-267 -240z" />
    <glyph glyph-name="idieresis" unicode="&#xef;" horiz-adv-x="571" 
d="M367 160q0 -63 31 -92t110 -39v-29h-453v29q80 11 111 39.5t31 91.5v659q0 81 -31.5 104t-110.5 9v29l283 96h29v-897zM-18 1327q0 48 34 81.5t86 33.5q49 0 82 -33.5t33 -81.5q0 -50 -33 -83.5t-82 -33.5q-52 0 -86 33.5t-34 83.5zM342 1327q0 48 34 81.5t85 33.5
q50 0 83.5 -33.5t33.5 -81.5q0 -50 -33 -83.5t-84 -33.5t-85 33.5t-34 83.5z" />
    <glyph glyph-name="eth" unicode="&#xf0;" horiz-adv-x="1118" 
d="M549 -31q-211 0 -342 145t-131 378q0 251 136 408t349 157q166 0 256 -133q-76 219 -256 358l-252 -149l-26 45l233 137q-100 71 -221 117l8 26q148 -26 289 -104l231 131l23 -45l-205 -117q186 -123 293.5 -325.5t107.5 -450.5q0 -265 -135.5 -421.5t-357.5 -156.5z
M254 616q0 -149 42 -283t121.5 -220t178.5 -86q119 0 193.5 107t74.5 274q0 150 -42.5 284.5t-122.5 220.5t-179 86q-119 0 -192.5 -107t-73.5 -276z" />
    <glyph glyph-name="ntilde" unicode="&#xf1;" horiz-adv-x="1200" 
d="M1018 160q0 -63 31 -92t110 -39v-29h-452v29q79 10 110 39t31 92v542q0 112 -50.5 173t-144.5 61q-75 0 -143.5 -42.5t-142.5 -127.5v-606q0 -63 31 -92t110 -39v-29h-453v29q80 11 111 39.5t31 91.5v659q0 81 -31.5 104t-110.5 9v29l283 96h29v-240q175 240 354 240
q141 0 219 -92.5t78 -253.5v-551zM322 1178q3 245 159 245q40 0 94 -28.5t105 -57t84 -28.5q76 0 94 125l29 -2q-6 -250 -156 -250q-44 0 -98.5 28.5t-104 57t-82.5 28.5q-41 0 -64 -29.5t-32 -92.5z" />
    <glyph glyph-name="ograve" unicode="&#xf2;" horiz-adv-x="1118" 
d="M549 -31q-211 0 -342 145t-131 378q0 252 136.5 408.5t354.5 156.5q212 0 343.5 -144t131.5 -376q0 -255 -136.5 -411.5t-356.5 -156.5zM254 616q0 -149 42 -283t121.5 -220t178.5 -86q119 0 193.5 107t74.5 274q0 150 -42.5 284.5t-122.5 220.5t-179 86
q-119 0 -192.5 -107t-73.5 -276zM346 1493h205l137 -338h-29z" />
    <glyph glyph-name="oacute" unicode="&#xf3;" horiz-adv-x="1118" 
d="M549 -31q-211 0 -342 145t-131 378q0 252 136.5 408.5t354.5 156.5q212 0 343.5 -144t131.5 -376q0 -255 -136.5 -411.5t-356.5 -156.5zM254 616q0 -149 42 -283t121.5 -220t178.5 -86q119 0 193.5 107t74.5 274q0 150 -42.5 284.5t-122.5 220.5t-179 86
q-119 0 -192.5 -107t-73.5 -276zM543 1157l137 338h205l-314 -338h-28z" />
    <glyph glyph-name="ocircumflex" unicode="&#xf4;" horiz-adv-x="1118" 
d="M549 -31q-211 0 -342 145t-131 378q0 252 136.5 408.5t354.5 156.5q212 0 343.5 -144t131.5 -376q0 -255 -136.5 -411.5t-356.5 -156.5zM254 616q0 -149 42 -283t121.5 -220t178.5 -86q119 0 193.5 107t74.5 274q0 150 -42.5 284.5t-122.5 220.5t-179 86
q-119 0 -192.5 -107t-73.5 -276zM270 1174l207 325h160l211 -325l-21 -15l-270 240l-266 -240z" />
    <glyph glyph-name="otilde" unicode="&#xf5;" horiz-adv-x="1118" 
d="M549 -31q-211 0 -342 145t-131 378q0 252 136.5 408.5t354.5 156.5q212 0 343.5 -144t131.5 -376q0 -255 -136.5 -411.5t-356.5 -156.5zM254 616q0 -149 42 -283t121.5 -220t178.5 -86q119 0 193.5 107t74.5 274q0 150 -42.5 284.5t-122.5 220.5t-179 86
q-119 0 -192.5 -107t-73.5 -276zM272 1178q2 115 41 180t119 65q40 0 94 -28.5t105 -57t84 -28.5q76 0 94 125l29 -2q-6 -250 -156 -250q-44 0 -98.5 28.5t-104 57t-82.5 28.5q-41 0 -64 -29.5t-32 -92.5z" />
    <glyph glyph-name="odieresis" unicode="&#xf6;" horiz-adv-x="1118" 
d="M549 -31q-211 0 -342 145t-131 378q0 252 136.5 408.5t354.5 156.5q212 0 343.5 -144t131.5 -376q0 -255 -136.5 -411.5t-356.5 -156.5zM254 616q0 -149 42 -283t121.5 -220t178.5 -86q119 0 193.5 107t74.5 274q0 150 -42.5 284.5t-122.5 220.5t-179 86
q-119 0 -192.5 -107t-73.5 -276zM260 1327q0 48 34.5 81.5t86.5 33.5q49 0 82 -33.5t33 -81.5q0 -50 -33 -83.5t-82 -33.5q-52 0 -86.5 33.5t-34.5 83.5zM621 1327q0 48 34 81.5t84 33.5t83.5 -33.5t33.5 -81.5q0 -50 -33 -83.5t-84 -33.5t-84.5 33.5t-33.5 83.5z" />
    <glyph glyph-name="divide" unicode="&#xf7;" horiz-adv-x="1228" 
d="M184 610v54h860v-54h-860zM506 299q0 44 32 75.5t76 31.5q46 0 77.5 -31.5t31.5 -75.5q0 -45 -32 -77t-77 -32q-44 0 -76 32t-32 77zM506 977q0 44 32 75t76 31q46 0 77.5 -31t31.5 -75q0 -45 -32 -77t-77 -32q-44 0 -76 32t-32 77z" />
    <glyph glyph-name="oslash" unicode="&#xf8;" horiz-adv-x="1118" 
d="M549 -31q-199 0 -326 127l-110 -127l-39 33l116 131q-114 142 -114 359q0 252 136.5 408.5t354.5 156.5q195 0 324 -123l110 125l41 -31l-116 -133q116 -141 116 -358q0 -255 -136.5 -411.5t-356.5 -156.5zM254 616q0 -183 63 -337l459 524q-48 91 -113.5 143.5
t-142.5 52.5q-119 0 -192.5 -107t-73.5 -276zM340 227q46 -92 112.5 -146t143.5 -54q119 0 193.5 107t74.5 274q0 193 -65 344z" />
    <glyph glyph-name="ugrave" unicode="&#xf9;" horiz-adv-x="1206" 
d="M993 -31q-68 0 -113.5 46t-45.5 116v78q-90 -123 -175.5 -181.5t-179.5 -58.5q-143 0 -220 91t-77 249v510q0 81 -31 104t-110 9v29l283 96h28v-727q0 -112 56 -170t155 -58q75 0 137 37t134 121v559q0 81 -32.5 104t-111.5 9v29l283 96h28v-912q0 -37 17.5 -59.5
t44.5 -22.5q45 0 84 68l24 -10q-37 -85 -85.5 -118.5t-92.5 -33.5zM387 1493h205l137 -338h-29z" />
    <glyph glyph-name="uacute" unicode="&#xfa;" horiz-adv-x="1206" 
d="M993 -31q-68 0 -113.5 46t-45.5 116v78q-90 -123 -175.5 -181.5t-179.5 -58.5q-143 0 -220 91t-77 249v510q0 81 -31 104t-110 9v29l283 96h28v-727q0 -112 56 -170t155 -58q75 0 137 37t134 121v559q0 81 -32.5 104t-111.5 9v29l283 96h28v-912q0 -37 17.5 -59.5
t44.5 -22.5q45 0 84 68l24 -10q-37 -85 -85.5 -118.5t-92.5 -33.5zM584 1157l137 338h205l-314 -338h-28z" />
    <glyph glyph-name="ucircumflex" unicode="&#xfb;" horiz-adv-x="1206" 
d="M993 -31q-68 0 -113.5 46t-45.5 116v78q-90 -123 -175.5 -181.5t-179.5 -58.5q-143 0 -220 91t-77 249v510q0 81 -31 104t-110 9v29l283 96h28v-727q0 -112 56 -170t155 -58q75 0 137 37t134 121v559q0 81 -32.5 104t-111.5 9v29l283 96h28v-912q0 -37 17.5 -59.5
t44.5 -22.5q45 0 84 68l24 -10q-37 -85 -85.5 -118.5t-92.5 -33.5zM311 1174l207 325h160l211 -325l-21 -15l-270 240l-266 -240z" />
    <glyph glyph-name="udieresis" unicode="&#xfc;" horiz-adv-x="1206" 
d="M993 -31q-68 0 -113.5 46t-45.5 116v78q-90 -123 -175.5 -181.5t-179.5 -58.5q-143 0 -220 91t-77 249v510q0 81 -31 104t-110 9v29l283 96h28v-727q0 -112 56 -170t155 -58q75 0 137 37t134 121v559q0 81 -32.5 104t-111.5 9v29l283 96h28v-912q0 -37 17.5 -59.5
t44.5 -22.5q45 0 84 68l24 -10q-37 -85 -85.5 -118.5t-92.5 -33.5zM301 1327q0 48 34.5 81.5t86.5 33.5q49 0 82 -33.5t33 -81.5q0 -50 -33 -83.5t-82 -33.5q-52 0 -86.5 33.5t-34.5 83.5zM662 1327q0 48 34 81.5t84 33.5t83.5 -33.5t33.5 -81.5q0 -50 -33 -83.5t-84 -33.5
t-84.5 33.5t-33.5 83.5z" />
    <glyph glyph-name="yacute" unicode="&#xfd;" horiz-adv-x="1085" 
d="M197 -434q-76 0 -131.5 33t-55.5 86q0 39 25.5 65.5t66.5 26.5q26 0 87.5 -34t109.5 -34q61 0 108 46.5t85 144.5l34 90l-364 870q-52 128 -139 137v29h446v-29q-171 -12 -119 -137l264 -653l258 653q52 125 -106 137v29h311v-29q-88 -9 -143 -137l-389 -979
q-24 -63 -55 -116t-73 -99.5t-98.5 -73t-121.5 -26.5zM573 1157l138 338h204l-313 -338h-29z" />
    <glyph glyph-name="thorn" unicode="&#xfe;" horiz-adv-x="1189" 
d="M203 1212q0 81 -32 104t-110 9v29l283 96h29v-641q30 110 114 179t197 69q197 0 313.5 -145.5t116.5 -372.5q0 -256 -133.5 -413t-347.5 -157q-153 0 -260 90v-309q0 -64 45 -89t155 -36v-28h-518v28q74 12 111 37.5t37 87.5v1462zM373 334q0 -78 29 -146t92 -114.5
t149 -46.5q129 0 209 119t80 307q0 222 -87 362.5t-237 140.5q-83 0 -147 -59.5t-88 -151.5v-411z" />
    <glyph glyph-name="ydieresis" unicode="&#xff;" horiz-adv-x="1085" 
d="M197 -434q-76 0 -131.5 33t-55.5 86q0 39 25.5 65.5t66.5 26.5q26 0 87.5 -34t109.5 -34q61 0 108 46.5t85 144.5l34 90l-364 870q-52 128 -139 137v29h446v-29q-171 -12 -119 -137l264 -653l258 653q52 125 -106 137v29h311v-29q-88 -9 -143 -137l-389 -979
q-24 -63 -55 -116t-73 -99.5t-98.5 -73t-121.5 -26.5zM291 1327q0 48 34.5 81.5t86.5 33.5q49 0 81.5 -33.5t32.5 -81.5q0 -50 -32.5 -83.5t-81.5 -33.5q-52 0 -86.5 33.5t-34.5 83.5zM651 1327q0 48 34 81.5t85 33.5q50 0 83.5 -33.5t33.5 -81.5q0 -50 -33 -83.5t-84 -33.5
t-85 33.5t-34 83.5z" />
    <glyph glyph-name="Amacron" unicode="&#x100;" horiz-adv-x="1503" 
d="M1264 246q50 -119 100.5 -168t126.5 -49v-29h-588v29q137 0 174 44.5t-8 153.5l-102 254h-580l-102 -254q-44 -109 -8 -153.5t169 -44.5v-29h-434v29q72 0 120.5 49t98.5 168l500 1235h29zM410 539h532l-266 667zM473 1634v58h526v-58h-526z" />
    <glyph glyph-name="amacron" unicode="&#x101;" horiz-adv-x="1073" 
d="M387 -31q-119 0 -200 75t-81 192q0 157 102 243.5t320 108.5l172 16v94q0 139 -62.5 220t-170.5 81q-114 0 -165 -66t-32 -142q25 -105 -53 -127q-44 -12 -77.5 12.5t-33.5 83.5q1 49 25.5 99.5t71.5 95.5t127 73.5t180 28.5q167 0 263.5 -99t96.5 -270v-543
q0 -38 17 -60t45 -22q43 0 82 68l24 -10q-19 -45 -43.5 -77t-49 -47t-45.5 -21.5t-40 -6.5q-64 0 -112 46t-48 130v78q-44 -122 -126.5 -188t-186.5 -66zM248 1210v58h526v-58h-526zM283 285q0 -86 55 -142.5t135 -56.5q70 0 128 50t99 140v273l-157 -21q-260 -34 -260 -243
z" />
    <glyph glyph-name="Abreve" unicode="&#x102;" horiz-adv-x="1503" 
d="M1264 246q50 -119 100.5 -168t126.5 -49v-29h-588v29q137 0 174 44.5t-8 153.5l-102 254h-580l-102 -254q-44 -109 -8 -153.5t169 -44.5v-29h-434v29q72 0 120.5 49t98.5 168l500 1235h29zM410 539h532l-266 667zM496 1931h30q9 -105 64.5 -162t148.5 -57t149.5 57
t65.5 162h31q3 -164 -61.5 -253t-184.5 -89q-118 0 -181.5 89t-61.5 253z" />
    <glyph glyph-name="abreve" unicode="&#x103;" horiz-adv-x="1073" 
d="M387 -31q-119 0 -200 75t-81 192q0 157 102 243.5t320 108.5l172 16v94q0 139 -62.5 220t-170.5 81q-114 0 -165 -66t-32 -142q25 -105 -53 -127q-44 -12 -77.5 12.5t-33.5 83.5q1 49 25.5 99.5t71.5 95.5t127 73.5t180 28.5q167 0 263.5 -99t96.5 -270v-543
q0 -38 17 -60t45 -22q43 0 82 68l24 -10q-19 -45 -43.5 -77t-49 -47t-45.5 -21.5t-40 -6.5q-64 0 -112 46t-48 130v78q-44 -122 -126.5 -188t-186.5 -66zM268 1507h31q9 -105 64.5 -162t148.5 -57t149.5 57t65.5 162h31q3 -164 -61.5 -253t-184.5 -89q-119 0 -182 89
t-62 253zM283 285q0 -86 55 -142.5t135 -56.5q70 0 128 50t99 140v273l-157 -21q-260 -34 -260 -243z" />
    <glyph glyph-name="Aogonek" unicode="&#x104;" horiz-adv-x="1503" 
d="M1264 246q50 -119 100.5 -168t126.5 -49v-29h-227q-170 -159 -170 -276q0 -89 73 -108.5t170 44.5l13 -18q-42 -52 -95.5 -77.5t-105.5 -25.5q-83 0 -133.5 41.5t-50.5 110.5q0 151 229 309h-291v29q137 0 174 44.5t-8 153.5l-102 254h-580l-102 -254q-44 -109 -8 -153.5
t169 -44.5v-29h-434v29q72 0 120.5 49t98.5 168l500 1235h29zM410 539h532l-266 667z" />
    <glyph glyph-name="aogonek" unicode="&#x105;" horiz-adv-x="1073" 
d="M387 -31q-119 0 -200 75t-81 192q0 157 102 243.5t320 108.5l172 16v94q0 139 -62.5 220t-170.5 81q-114 0 -165 -66t-32 -142q25 -105 -53 -127q-44 -12 -77.5 12.5t-33.5 83.5q1 49 25.5 99.5t71.5 95.5t127 73.5t180 28.5q167 0 263.5 -99t96.5 -270v-543
q0 -38 17 -60t45 -22q43 0 82 68l24 -10q-44 -105 -114 -137q-140 -140 -140 -246q0 -89 73.5 -108.5t170.5 44.5l12 -18q-42 -52 -95 -77t-105 -25q-84 0 -134.5 41t-50.5 110q0 128 172 268q-53 10 -90 55t-37 117v78q-44 -122 -126.5 -188t-186.5 -66zM283 285
q0 -86 55 -142.5t135 -56.5q70 0 128 50t99 140v273l-157 -21q-260 -34 -260 -243z" />
    <glyph glyph-name="Cacute" unicode="&#x106;" horiz-adv-x="1409" 
d="M1208 1481l60 -416h-29q-55 173 -171.5 265.5t-276.5 92.5q-208 0 -341 -180t-133 -467q0 -194 70 -352t196 -248t283 -90q152 0 265 97.5t157 265.5l31 -9q-29 -217 -179.5 -345t-357.5 -128q-146 0 -271 54.5t-211 150.5t-134.5 229.5t-48.5 288.5q0 228 84.5 408.5
t237.5 281.5t349 101q67 0 133.5 -15.5t105 -30.5t72.5 -23t52.5 7.5t28.5 61.5h28zM766 1581l137 338h205l-313 -338h-29z" />
    <glyph glyph-name="cacute" unicode="&#x107;" horiz-adv-x="1013" 
d="M891 719q-49 142 -135 211t-197 69q-133 0 -220 -118.5t-87 -298.5q0 -130 46.5 -239.5t137.5 -177t209 -67.5q97 0 172 58t109 159l24 -6q-25 -152 -130 -245t-257 -93q-208 0 -347.5 150t-139.5 375q0 118 36 222t98 178.5t148 117.5t183 43q65 0 122.5 -13.5t86 -27
t51.5 -19.5t32.5 6.5t14.5 53.5h24l48 -338h-29zM524 1157l138 338h204l-313 -338h-29z" />
    <glyph glyph-name="Ccircumflex" unicode="&#x108;" horiz-adv-x="1409" 
d="M1208 1481l60 -416h-29q-55 173 -171.5 265.5t-276.5 92.5q-208 0 -341 -180t-133 -467q0 -194 70 -352t196 -248t283 -90q152 0 265 97.5t157 265.5l31 -9q-29 -217 -179.5 -345t-357.5 -128q-146 0 -271 54.5t-211 150.5t-134.5 229.5t-48.5 288.5q0 228 84.5 408.5
t237.5 281.5t349 101q67 0 133.5 -15.5t105 -30.5t72.5 -23t52.5 7.5t28.5 61.5h28zM494 1597l206 326h160l211 -326l-20 -14l-271 240l-266 -240z" />
    <glyph glyph-name="ccircumflex" unicode="&#x109;" horiz-adv-x="1013" 
d="M891 719q-49 142 -135 211t-197 69q-133 0 -220 -118.5t-87 -298.5q0 -130 46.5 -239.5t137.5 -177t209 -67.5q97 0 172 58t109 159l24 -6q-25 -152 -130 -245t-257 -93q-208 0 -347.5 150t-139.5 375q0 118 36 222t98 178.5t148 117.5t183 43q65 0 122.5 -13.5t86 -27
t51.5 -19.5t32.5 6.5t14.5 53.5h24l48 -338h-29zM252 1174l207 325h159l211 -325l-20 -15l-270 240l-267 -240z" />
    <glyph glyph-name="Cdotaccent" unicode="&#x10a;" horiz-adv-x="1409" 
d="M1208 1481l60 -416h-29q-55 173 -171.5 265.5t-276.5 92.5q-208 0 -341 -180t-133 -467q0 -194 70 -352t196 -248t283 -90q152 0 265 97.5t157 265.5l31 -9q-29 -217 -179.5 -345t-357.5 -128q-146 0 -271 54.5t-211 150.5t-134.5 229.5t-48.5 288.5q0 228 84.5 408.5
t237.5 281.5t349 101q67 0 133.5 -15.5t105 -30.5t72.5 -23t52.5 7.5t28.5 61.5h28zM653 1759q0 53 37 88t92 35q54 0 89.5 -35t35.5 -88t-35.5 -88t-89.5 -35q-55 0 -92 35t-37 88z" />
    <glyph glyph-name="cdotaccent" unicode="&#x10b;" horiz-adv-x="1013" 
d="M891 719q-49 142 -135 211t-197 69q-133 0 -220 -118.5t-87 -298.5q0 -130 46.5 -239.5t137.5 -177t209 -67.5q97 0 172 58t109 159l24 -6q-25 -152 -130 -245t-257 -93q-208 0 -347.5 150t-139.5 375q0 118 36 222t98 178.5t148 117.5t183 43q65 0 122.5 -13.5t86 -27
t51.5 -19.5t32.5 6.5t14.5 53.5h24l48 -338h-29zM412 1335q0 53 37 88t92 35q54 0 89.5 -35t35.5 -88t-35.5 -88t-89.5 -35q-55 0 -92 35t-37 88z" />
    <glyph glyph-name="Ccaron" unicode="&#x10c;" horiz-adv-x="1409" 
d="M1208 1481l60 -416h-29q-55 173 -171.5 265.5t-276.5 92.5q-208 0 -341 -180t-133 -467q0 -194 70 -352t196 -248t283 -90q152 0 265 97.5t157 265.5l31 -9q-29 -217 -179.5 -345t-357.5 -128q-146 0 -271 54.5t-211 150.5t-134.5 229.5t-48.5 288.5q0 228 84.5 408.5
t237.5 281.5t349 101q67 0 133.5 -15.5t105 -30.5t72.5 -23t52.5 7.5t28.5 61.5h28zM494 1907l20 16l266 -242l271 242l20 -16l-211 -324h-160z" />
    <glyph glyph-name="ccaron" unicode="&#x10d;" horiz-adv-x="1013" 
d="M891 719q-49 142 -135 211t-197 69q-133 0 -220 -118.5t-87 -298.5q0 -130 46.5 -239.5t137.5 -177t209 -67.5q97 0 172 58t109 159l24 -6q-25 -152 -130 -245t-257 -93q-208 0 -347.5 150t-139.5 375q0 118 36 222t98 178.5t148 117.5t183 43q65 0 122.5 -13.5t86 -27
t51.5 -19.5t32.5 6.5t14.5 53.5h24l48 -338h-29zM252 1483l20 16l267 -242l270 242l20 -16l-211 -324h-159z" />
    <glyph glyph-name="Dcaron" unicode="&#x10e;" horiz-adv-x="1527" 
d="M666 1450q339 0 542 -185t203 -499q0 -351 -195 -558.5t-520 -207.5h-618v29q105 10 144.5 43t39.5 108v1090q0 75 -39.5 108t-144.5 43v29h588zM436 1907l21 16l266 -242l270 242l21 -16l-211 -324h-160zM449 195q0 -72 32.5 -105t102.5 -33h112q148 0 265 84t183 235
t66 343q0 313 -157.5 493.5t-421.5 180.5h-182v-1198z" />
    <glyph glyph-name="dcaron" unicode="&#x10f;" horiz-adv-x="1191" 
d="M506 -31q-197 0 -313.5 145.5t-116.5 372.5q0 256 133.5 413t349.5 157q76 0 146 -28.5t114 -78.5v293q0 79 -32 102t-111 11v28l285 97h28v-1336q0 -38 17 -60t45 -22q43 0 82 68l24 -10q-37 -85 -85.5 -118.5t-92.5 -33.5q-68 0 -114 45.5t-46 114.5v96
q-27 -114 -111.5 -185t-201.5 -71zM258 573q0 -222 87.5 -362.5t236.5 -140.5q84 0 148.5 61.5t88.5 153.5v407q0 78 -29.5 146.5t-92.5 114.5t-148 46q-131 0 -211 -119t-80 -307zM1094 1159l41 412h163l-176 -412h-28z" />
    <glyph glyph-name="Dcroat" unicode="&#x110;" horiz-adv-x="1527" 
d="M666 1450q339 0 542 -185t203 -499q0 -351 -195 -558.5t-520 -207.5h-618v29q105 10 144.5 43t39.5 108v514h-217v58h217v518q0 75 -39.5 108t-144.5 43v29h588zM449 195q0 -72 32.5 -105t102.5 -33h112q148 0 265 84t183 235t66 343q0 313 -157.5 493.5t-421.5 180.5
h-182v-641h237v-58h-237v-499z" />
    <glyph glyph-name="dcroat" unicode="&#x111;" horiz-adv-x="1191" 
d="M506 -31q-197 0 -313.5 145.5t-116.5 372.5q0 256 133.5 413t349.5 157q76 0 146 -28.5t114 -78.5v205h-239v57h239v31q0 79 -32 102t-111 11v28l285 97h28v-269h232v-57h-232v-1010q0 -38 17 -60t45 -22q43 0 82 68l24 -10q-37 -85 -85.5 -118.5t-92.5 -33.5
q-68 0 -114 45.5t-46 114.5v96q-27 -114 -111.5 -185t-201.5 -71zM258 573q0 -222 87.5 -362.5t236.5 -140.5q84 0 148.5 61.5t88.5 153.5v407q0 78 -29.5 146.5t-92.5 114.5t-148 46q-131 0 -211 -119t-80 -307z" />
    <glyph glyph-name="Emacron" unicode="&#x112;" horiz-adv-x="1265" 
d="M1182 379h28l-55 -379h-1077v29q105 10 144.5 43t39.5 108v1090q0 75 -39.5 108t-144.5 43v29h911q90 0 103 31h28l66 -408h-29q-40 171 -119 245.5t-221 74.5h-368v-621h266q90 0 126 48.5t27 160.5h29l66 -475h-29q-24 111 -73 160t-128 49h-284v-522q0 -74 26 -105
t90 -31h289q132 0 211 77.5t117 244.5zM397 1634v58h527v-58h-527z" />
    <glyph glyph-name="emacron" unicode="&#x113;" horiz-adv-x="1019" 
d="M555 -29q-149 0 -259.5 70.5t-165 187.5t-54.5 263q0 250 134.5 407.5t348.5 157.5q185 0 283 -126.5t82 -312.5h-670v-43q0 -211 101.5 -344t283.5 -133q89 0 161 56.5t101 148.5l27 -6q-25 -146 -128.5 -236t-244.5 -90zM258 666h496q5 88 -22 164t-82 122.5t-126 46.5
q-116 0 -184 -88t-82 -245zM276 1212v58h527v-58h-527z" />
    <glyph glyph-name="Ebreve" unicode="&#x114;" horiz-adv-x="1265" 
d="M1182 379h28l-55 -379h-1077v29q105 10 144.5 43t39.5 108v1090q0 75 -39.5 108t-144.5 43v29h911q90 0 103 31h28l66 -408h-29q-40 171 -119 245.5t-221 74.5h-368v-621h266q90 0 126 48.5t27 160.5h29l66 -475h-29q-24 111 -73 160t-128 49h-284v-522q0 -74 26 -105
t90 -31h289q132 0 211 77.5t117 244.5zM420 1931h31q9 -105 64.5 -162t148.5 -57t149.5 57t65.5 162h30q3 -164 -61 -253t-184 -89q-119 0 -182 89t-62 253z" />
    <glyph glyph-name="ebreve" unicode="&#x115;" horiz-adv-x="1019" 
d="M555 -29q-149 0 -259.5 70.5t-165 187.5t-54.5 263q0 250 134.5 407.5t348.5 157.5q185 0 283 -126.5t82 -312.5h-670v-43q0 -211 101.5 -344t283.5 -133q89 0 161 56.5t101 148.5l27 -6q-25 -146 -128.5 -236t-244.5 -90zM258 666h496q5 88 -22 164t-82 122.5t-126 46.5
q-116 0 -184 -88t-82 -245zM297 1509h31q9 -105 64.5 -162t148.5 -57t149.5 57t65.5 162h30q3 -164 -61 -253t-184 -89q-119 0 -182 89t-62 253z" />
    <glyph glyph-name="Edotaccent" unicode="&#x116;" horiz-adv-x="1265" 
d="M1182 379h28l-55 -379h-1077v29q105 10 144.5 43t39.5 108v1090q0 75 -39.5 108t-144.5 43v29h911q90 0 103 31h28l66 -408h-29q-40 171 -119 245.5t-221 74.5h-368v-621h266q90 0 126 48.5t27 160.5h29l66 -475h-29q-24 111 -73 160t-128 49h-284v-522q0 -74 26 -105
t90 -31h289q132 0 211 77.5t117 244.5zM532 1759q0 53 37.5 88t92.5 35q54 0 89 -35t35 -88t-35 -88t-89 -35q-55 0 -92.5 35t-37.5 88z" />
    <glyph glyph-name="edotaccent" unicode="&#x117;" horiz-adv-x="1019" 
d="M555 -29q-149 0 -259.5 70.5t-165 187.5t-54.5 263q0 250 134.5 407.5t348.5 157.5q185 0 283 -126.5t82 -312.5h-670v-43q0 -211 101.5 -344t283.5 -133q89 0 161 56.5t101 148.5l27 -6q-25 -146 -128.5 -236t-244.5 -90zM258 666h496q5 88 -22 164t-82 122.5t-126 46.5
q-116 0 -184 -88t-82 -245zM412 1337q0 53 37 88t92 35q54 0 89.5 -35t35.5 -88t-35.5 -88t-89.5 -35q-55 0 -92 35t-37 88z" />
    <glyph glyph-name="Eogonek" unicode="&#x118;" horiz-adv-x="1265" 
d="M1182 379h28l-55 -379h-127q-170 -159 -170 -276q0 -89 73.5 -108.5t170.5 44.5l12 -18q-42 -52 -95.5 -77.5t-105.5 -25.5q-83 0 -133.5 41.5t-50.5 110.5q0 151 229 309h-880v29q105 10 144.5 43t39.5 108v1090q0 75 -39.5 108t-144.5 43v29h911q90 0 103 31h28
l66 -408h-29q-40 171 -119 245.5t-221 74.5h-368v-621h266q90 0 126 48.5t27 160.5h29l66 -475h-29q-24 111 -73 160t-128 49h-284v-522q0 -74 26 -105t90 -31h289q132 0 211 77.5t117 244.5z" />
    <glyph glyph-name="eogonek" unicode="&#x119;" horiz-adv-x="1019" 
d="M555 -29q-149 0 -259.5 70.5t-165 187.5t-54.5 263q0 250 134.5 407.5t348.5 157.5q185 0 283 -126.5t82 -312.5h-670v-43q0 -211 101.5 -344t283.5 -133q89 0 161 56.5t101 148.5l27 -6q-27 -167 -158 -258q-195 -176 -195 -301q0 -89 73.5 -108.5t170.5 44.5l12 -18
q-42 -52 -95 -77t-105 -25q-84 0 -134.5 41t-50.5 110q0 129 179 272q-34 -6 -70 -6zM258 666h496q5 88 -22 164t-82 122.5t-126 46.5q-116 0 -184 -88t-82 -245z" />
    <glyph glyph-name="Ecaron" unicode="&#x11a;" horiz-adv-x="1265" 
d="M1182 379h28l-55 -379h-1077v29q105 10 144.5 43t39.5 108v1090q0 75 -39.5 108t-144.5 43v29h911q90 0 103 31h28l66 -408h-29q-40 171 -119 245.5t-221 74.5h-368v-621h266q90 0 126 48.5t27 160.5h29l66 -475h-29q-24 111 -73 160t-128 49h-284v-522q0 -74 26 -105
t90 -31h289q132 0 211 77.5t117 244.5zM373 1907l20 16l266 -242l271 242l20 -16l-211 -324h-159z" />
    <glyph glyph-name="ecaron" unicode="&#x11b;" horiz-adv-x="1019" 
d="M555 -29q-149 0 -259.5 70.5t-165 187.5t-54.5 263q0 250 134.5 407.5t348.5 157.5q185 0 283 -126.5t82 -312.5h-670v-43q0 -211 101.5 -344t283.5 -133q89 0 161 56.5t101 148.5l27 -6q-25 -146 -128.5 -236t-244.5 -90zM252 1485l20 16l267 -241l270 241l20 -16
l-211 -324h-159zM258 666h496q5 88 -22 164t-82 122.5t-126 46.5q-116 0 -184 -88t-82 -245z" />
    <glyph glyph-name="Gcircumflex" unicode="&#x11c;" horiz-adv-x="1492" 
d="M768 -31q-185 0 -334 93t-233 258t-84 370q0 173 51 320.5t140.5 250.5t216 161.5t272.5 58.5q66 0 131 -15.5t103 -31t71.5 -23.5t52.5 7.5t29 62.5h28l58 -416h-27q-130 358 -461 358q-203 0 -335.5 -182.5t-131.5 -470.5q1 -201 67.5 -369t185 -267t263.5 -99
q79 0 153.5 25.5t125.5 80.5v377q0 173 -188 182v31h551v-31q-179 -9 -179 -182v-293q-75 -111 -214.5 -183.5t-311.5 -72.5zM498 1597l207 326h159l211 -326l-20 -14l-271 240l-266 -240z" />
    <glyph glyph-name="gcircumflex" unicode="&#x11d;" horiz-adv-x="1079" 
d="M483 -434q-180 0 -280.5 66.5t-100.5 170.5q0 143 154 220q-64 20 -100.5 68.5t-36.5 115.5q0 66 39 123t114 88q-75 46 -118 118.5t-43 165.5q0 155 113.5 255t297.5 100h23q49 -1 108.5 -4.5t96.5 -5.5t77.5 -3t64 2.5t44 12.5t29 26t8.5 43h24l21 -163q-53 0 -270 41
q86 -45 135 -124.5t49 -179.5q0 -154 -113.5 -253t-296.5 -99q-125 0 -221 51q-82 -42 -82 -118q0 -70 59 -102.5t144 -12.5l199 45q85 22 161 11t133.5 -45t91 -96t33.5 -142q0 -170 -154.5 -272.5t-402.5 -102.5zM219 -160q0 -101 90.5 -161t231.5 -60q173 0 278 70.5
t105 191.5q0 108 -91 161t-219 24l-176 -43q-79 -19 -135 -11q-84 -73 -84 -172zM258 1174l207 325h160l211 -325l-21 -15l-270 240l-266 -240zM285 754q0 -151 71 -254t183 -103q99 0 158 71t59 185q0 154 -72 256.5t-178 102.5q-99 0 -160 -71.5t-61 -186.5z" />
    <glyph glyph-name="Gbreve" unicode="&#x11e;" horiz-adv-x="1492" 
d="M768 -31q-185 0 -334 93t-233 258t-84 370q0 173 51 320.5t140.5 250.5t216 161.5t272.5 58.5q66 0 131 -15.5t103 -31t71.5 -23.5t52.5 7.5t29 62.5h28l58 -416h-27q-130 358 -461 358q-203 0 -335.5 -182.5t-131.5 -470.5q1 -201 67.5 -369t185 -267t263.5 -99
q79 0 153.5 25.5t125.5 80.5v377q0 173 -188 182v31h551v-31q-179 -9 -179 -182v-293q-75 -111 -214.5 -183.5t-311.5 -72.5zM543 1931h30q9 -105 64.5 -162t148.5 -57t149.5 57t65.5 162h31q3 -164 -61.5 -253t-184.5 -89q-118 0 -181.5 89t-61.5 253z" />
    <glyph glyph-name="gbreve" unicode="&#x11f;" horiz-adv-x="1079" 
d="M483 -434q-180 0 -280.5 66.5t-100.5 170.5q0 143 154 220q-64 20 -100.5 68.5t-36.5 115.5q0 66 39 123t114 88q-75 46 -118 118.5t-43 165.5q0 155 113.5 255t297.5 100h23q49 -1 108.5 -4.5t96.5 -5.5t77.5 -3t64 2.5t44 12.5t29 26t8.5 43h24l21 -163q-53 0 -270 41
q86 -45 135 -124.5t49 -179.5q0 -154 -113.5 -253t-296.5 -99q-125 0 -221 51q-82 -42 -82 -118q0 -70 59 -102.5t144 -12.5l199 45q85 22 161 11t133.5 -45t91 -96t33.5 -142q0 -170 -154.5 -272.5t-402.5 -102.5zM219 -160q0 -101 90.5 -161t231.5 -60q173 0 278 70.5
t105 191.5q0 108 -91 161t-219 24l-176 -43q-79 -19 -135 -11q-84 -73 -84 -172zM285 754q0 -151 71 -254t183 -103q99 0 158 71t59 185q0 154 -72 256.5t-178 102.5q-99 0 -160 -71.5t-61 -186.5zM303 1507h31q9 -105 64.5 -162t148.5 -57t149.5 57t65.5 162h31
q3 -164 -61.5 -253t-184.5 -89q-119 0 -182 89t-62 253z" />
    <glyph glyph-name="Gdotaccent" unicode="&#x120;" horiz-adv-x="1492" 
d="M768 -31q-185 0 -334 93t-233 258t-84 370q0 173 51 320.5t140.5 250.5t216 161.5t272.5 58.5q66 0 131 -15.5t103 -31t71.5 -23.5t52.5 7.5t29 62.5h28l58 -416h-27q-130 358 -461 358q-203 0 -335.5 -182.5t-131.5 -470.5q1 -201 67.5 -369t185 -267t263.5 -99
q79 0 153.5 25.5t125.5 80.5v377q0 173 -188 182v31h551v-31q-179 -9 -179 -182v-293q-75 -111 -214.5 -183.5t-311.5 -72.5zM657 1759q0 53 37 88t92 35q54 0 89.5 -35t35.5 -88t-35.5 -88t-89.5 -35q-55 0 -92 35t-37 88z" />
    <glyph glyph-name="gdotaccent" unicode="&#x121;" horiz-adv-x="1079" 
d="M483 -434q-180 0 -280.5 66.5t-100.5 170.5q0 143 154 220q-64 20 -100.5 68.5t-36.5 115.5q0 66 39 123t114 88q-75 46 -118 118.5t-43 165.5q0 155 113.5 255t297.5 100h23q49 -1 108.5 -4.5t96.5 -5.5t77.5 -3t64 2.5t44 12.5t29 26t8.5 43h24l21 -163q-53 0 -270 41
q86 -45 135 -124.5t49 -179.5q0 -154 -113.5 -253t-296.5 -99q-125 0 -221 51q-82 -42 -82 -118q0 -70 59 -102.5t144 -12.5l199 45q85 22 161 11t133.5 -45t91 -96t33.5 -142q0 -170 -154.5 -272.5t-402.5 -102.5zM219 -160q0 -101 90.5 -161t231.5 -60q173 0 278 70.5
t105 191.5q0 108 -91 161t-219 24l-176 -43q-79 -19 -135 -11q-84 -73 -84 -172zM285 754q0 -151 71 -254t183 -103q99 0 158 71t59 185q0 154 -72 256.5t-178 102.5q-99 0 -160 -71.5t-61 -186.5zM418 1335q0 53 37 88t92 35q54 0 89.5 -35t35.5 -88t-35.5 -88t-89.5 -35
q-55 0 -92 35t-37 88z" />
    <glyph glyph-name="uni0122" unicode="&#x122;" horiz-adv-x="1492" 
d="M768 -31q-185 0 -334 93t-233 258t-84 370q0 173 51 320.5t140.5 250.5t216 161.5t272.5 58.5q66 0 131 -15.5t103 -31t71.5 -23.5t52.5 7.5t29 62.5h28l58 -416h-27q-130 358 -461 358q-203 0 -335.5 -182.5t-131.5 -470.5q1 -201 67.5 -369t185 -267t263.5 -99
q79 0 153.5 25.5t125.5 80.5v377q0 173 -188 182v31h551v-31q-179 -9 -179 -182v-293q-75 -111 -214.5 -183.5t-311.5 -72.5zM651 -225q0 50 36 82t91 32q63 0 100 -38.5t37 -98.5q0 -104 -68 -171.5t-188 -94.5l-4 16q146 71 164 166q-24 -12 -49 -12q-51 0 -85 33t-34 86z
" />
    <glyph glyph-name="uni0123" unicode="&#x123;" horiz-adv-x="1079" 
d="M483 -434q-180 0 -280.5 66.5t-100.5 170.5q0 143 154 220q-64 20 -100.5 68.5t-36.5 115.5q0 66 39 123t114 88q-75 46 -118 118.5t-43 165.5q0 155 113.5 255t297.5 100h23q49 -1 108.5 -4.5t96.5 -5.5t77.5 -3t64 2.5t44 12.5t29 26t8.5 43h24l21 -163q-53 0 -270 41
q86 -45 135 -124.5t49 -179.5q0 -154 -113.5 -253t-296.5 -99q-125 0 -221 51q-82 -42 -82 -118q0 -70 59 -102.5t144 -12.5l199 45q85 22 161 11t133.5 -45t91 -96t33.5 -142q0 -170 -154.5 -272.5t-402.5 -102.5zM219 -160q0 -101 90.5 -161t231.5 -60q173 0 278 70.5
t105 191.5q0 108 -91 161t-219 24l-176 -43q-79 -19 -135 -11q-84 -73 -84 -172zM285 754q0 -151 71 -254t183 -103q99 0 158 71t59 185q0 154 -72 256.5t-178 102.5q-99 0 -160 -71.5t-61 -186.5zM412 1323q0 104 68.5 171.5t189.5 94.5l4 -16q-148 -70 -166 -166
q24 12 49 12q52 0 85.5 -32t33.5 -84q0 -51 -35.5 -84t-89.5 -33q-64 0 -101.5 38.5t-37.5 98.5z" />
    <glyph glyph-name="Hcircumflex" unicode="&#x124;" horiz-adv-x="1607" 
d="M1532 1421q-106 -10 -146 -43t-40 -108v-1090q0 -75 40 -108t146 -43v-29h-557v29q106 10 146 43t40 108v537h-712v-537q0 -75 39.5 -108t144.5 -43v-29h-555v29q105 10 144.5 43t39.5 108v1090q0 75 -39.5 108t-144.5 43v29h555v-29q-105 -10 -144.5 -43t-39.5 -108
v-496h712v496q0 75 -40 108t-146 43v29h557v-29zM504 1597l207 326h159l211 -326l-20 -14l-270 240l-267 -240z" />
    <glyph glyph-name="hcircumflex" unicode="&#x125;" horiz-adv-x="1200" 
d="M1018 160q0 -63 31 -92t110 -39v-29h-452v29q79 10 110 39t31 92v542q0 112 -50.5 173t-144.5 61q-75 0 -143.5 -42.5t-142.5 -127.5v-606q0 -63 31 -92t110 -39v-29h-453v29q80 11 111 39.5t31 91.5v1083q0 79 -31.5 102t-110.5 11v28l283 97h29v-664q175 240 354 240
q141 0 219 -92.5t78 -253.5v-551zM6 1520l207 325h160l211 -325l-21 -15l-270 240l-266 -240z" />
    <glyph glyph-name="Hbar" unicode="&#x126;" horiz-adv-x="1607" 
d="M1532 1421q-106 -10 -146 -43t-40 -108v-209h172v-57h-172v-824q0 -75 40 -108t146 -43v-29h-557v29q106 10 146 43t40 108v537h-712v-537q0 -75 39.5 -108t144.5 -43v-29h-555v29q105 10 144.5 43t39.5 108v824h-199v57h199v209q0 75 -39.5 108t-144.5 43v29h555v-29
q-105 -10 -144.5 -43t-39.5 -108v-209h712v209q0 75 -40 108t-146 43v29h557v-29zM449 774h712v230h-712v-230z" />
    <glyph glyph-name="hbar" unicode="&#x127;" horiz-adv-x="1200" 
d="M1018 160q0 -63 31 -92t110 -39v-29h-452v29q79 10 110 39t31 92v542q0 112 -50.5 173t-144.5 61q-75 0 -143.5 -42.5t-142.5 -127.5v-606q0 -63 31 -92t110 -39v-29h-453v29q80 11 111 39.5t31 91.5v995h-238v57h238v31q0 79 -31.5 102t-110.5 11v28l283 97h29v-269h233
v-57h-233v-338q175 240 354 240q141 0 219 -92.5t78 -253.5v-551z" />
    <glyph glyph-name="Itilde" unicode="&#x128;" horiz-adv-x="710" 
d="M449 180q0 -75 39.5 -108t144.5 -43v-29h-555v29q105 10 144.5 43t39.5 108v1090q0 75 -39.5 108t-144.5 43v29h555v-29q-105 -10 -144.5 -43t-39.5 -108v-1090zM72 1602q3 245 159 245q40 0 94 -28.5t105 -57t84 -28.5q76 0 94 125l29 -3q-6 -249 -156 -249
q-44 0 -98 28.5t-103.5 57t-82.5 28.5q-41 0 -64.5 -30t-32.5 -93z" />
    <glyph glyph-name="itilde" unicode="&#x129;" horiz-adv-x="571" 
d="M367 160q0 -63 31 -92t110 -39v-29h-453v29q80 11 111 39.5t31 91.5v659q0 81 -31.5 104t-110.5 9v29l283 96h29v-897zM-6 1178q2 115 41 180t119 65q40 0 93.5 -28.5t104.5 -57t84 -28.5q76 0 94 125l29 -2q-6 -250 -156 -250q-44 0 -98 28.5t-103.5 57t-82.5 28.5
q-41 0 -64 -29.5t-32 -92.5z" />
    <glyph glyph-name="Imacron" unicode="&#x12a;" horiz-adv-x="710" 
d="M449 180q0 -75 39.5 -108t144.5 -43v-29h-555v29q105 10 144.5 43t39.5 108v1090q0 75 -39.5 108t-144.5 43v29h555v-29q-105 -10 -144.5 -43t-39.5 -108v-1090zM94 1634v58h527v-58h-527z" />
    <glyph glyph-name="imacron" unicode="&#x12b;" horiz-adv-x="571" 
d="M367 160q0 -63 31 -92t110 -39v-29h-453v29q80 11 111 39.5t31 91.5v659q0 81 -31.5 104t-110.5 9v29l283 96h29v-897zM16 1210v58h527v-58h-527z" />
    <glyph glyph-name="Ibreve" unicode="&#x12c;" horiz-adv-x="710" 
d="M449 180q0 -75 39.5 -108t144.5 -43v-29h-555v29q105 10 144.5 43t39.5 108v1090q0 75 -39.5 108t-144.5 43v29h555v-29q-105 -10 -144.5 -43t-39.5 -108v-1090zM115 1931h30q9 -105 64.5 -162t148.5 -57t149.5 57t65.5 162h31q3 -164 -61.5 -253t-184.5 -89
q-118 0 -181.5 89t-61.5 253z" />
    <glyph glyph-name="ibreve" unicode="&#x12d;" horiz-adv-x="571" 
d="M367 160q0 -63 31 -92t110 -39v-29h-453v29q80 11 111 39.5t31 91.5v659q0 81 -31.5 104t-110.5 9v29l283 96h29v-897zM37 1507h31q9 -105 64.5 -162t148.5 -57t149.5 57t65.5 162h30q3 -164 -61 -253t-184 -89q-119 0 -182 89t-62 253z" />
    <glyph glyph-name="Iogonek" unicode="&#x12e;" horiz-adv-x="710" 
d="M449 180q0 -75 39.5 -108t144.5 -43v-29h-189q-170 -159 -170 -276q0 -89 73.5 -108.5t170.5 44.5l12 -18q-42 -52 -95.5 -77.5t-104.5 -25.5q-83 0 -134 41.5t-51 110.5q0 151 230 309h-297v29q105 10 144.5 43t39.5 108v1090q0 75 -39.5 108t-144.5 43v29h555v-29
q-105 -10 -144.5 -43t-39.5 -108v-1090z" />
    <glyph glyph-name="iogonek" unicode="&#x12f;" horiz-adv-x="571" 
d="M367 160q0 -54 20 -80h2l8 -12q35 -30 111 -39v-29h-170q-154 -154 -154 -262q0 -89 73.5 -108.5t170.5 44.5l12 -18q-42 -52 -95 -77t-105 -25q-84 0 -134.5 41t-50.5 110q0 142 209 295h-209v29q80 11 111 39.5t31 91.5v659q0 81 -31.5 104t-110.5 9v29l283 96h29v-897
zM152 1335q0 53 37 88t92 35q54 0 89.5 -35t35.5 -88t-35.5 -88t-89.5 -35q-55 0 -92 35t-37 88z" />
    <glyph glyph-name="Idotaccent" unicode="&#x130;" horiz-adv-x="710" 
d="M449 180q0 -75 39.5 -108t144.5 -43v-29h-555v29q105 10 144.5 43t39.5 108v1090q0 75 -39.5 108t-144.5 43v29h555v-29q-105 -10 -144.5 -43t-39.5 -108v-1090zM229 1759q0 53 37 88t92 35q54 0 89.5 -35t35.5 -88t-35.5 -88t-89.5 -35q-55 0 -92 35t-37 88z" />
    <glyph glyph-name="dotlessi" unicode="&#x131;" horiz-adv-x="571" 
d="M367 160q0 -63 31 -92t110 -39v-29h-453v29q80 11 111 39.5t31 91.5v659q0 81 -31.5 104t-110.5 9v29l283 96h29v-897z" />
    <glyph glyph-name="IJ" unicode="&#x132;" horiz-adv-x="1748" 
d="M449 180q0 -75 39.5 -108t144.5 -43v-29h-555v29q105 10 144.5 43t39.5 108v1090q0 75 -39.5 108t-144.5 43v29h555v-29q-105 -10 -144.5 -43t-39.5 -108v-1090zM733 272q-2 48 21.5 77.5t64.5 29.5q43 0 69.5 -27.5t26.5 -72.5q0 -18 -5 -47t-5 -44q0 -77 60 -118
t155 -41q101 0 159 76.5t58 236.5v928q0 75 -40 108t-146 43v29h557v-29q-106 -10 -146 -43t-40 -108v-867q0 -213 -108.5 -323.5t-299.5 -110.5q-75 0 -141.5 18.5t-119.5 55t-85.5 95.5t-34.5 134z" />
    <glyph glyph-name="ij" unicode="&#x133;" horiz-adv-x="1101" 
d="M367 160q0 -63 31 -92t110 -39v-29h-453v29q80 11 111 39.5t31 91.5v659q0 81 -31.5 104t-110.5 9v29l283 96h29v-897zM152 1335q0 53 37 88t92 35q54 0 89.5 -35t35.5 -88t-35.5 -88t-89.5 -35q-55 0 -92 35t-37 88zM563 -412q74 34 117 80t68.5 136.5t25.5 234.5v780
q0 81 -32 104t-111 9v29l284 96h29v-957q0 -226 -80 -351t-289 -183zM719 1337q0 53 37 88t92 35q54 0 89.5 -35t35.5 -88t-35.5 -88t-89.5 -35q-55 0 -92 35t-37 88z" />
    <glyph glyph-name="Jcircumflex" unicode="&#x134;" horiz-adv-x="1052" 
d="M418 -31q-75 0 -141.5 18.5t-119.5 55t-85.5 95.5t-34.5 134q-2 48 21.5 77.5t64.5 29.5q43 0 69.5 -27.5t26.5 -72.5q0 -18 -5 -47t-5 -44q0 -77 60 -118t155 -41q101 0 159 76.5t58 236.5v928q0 75 -40 108t-146 43v29h557v-29q-106 -11 -146.5 -43.5t-40.5 -107.5
v-867q0 -213 -108 -323.5t-299 -110.5zM444 1597l207 326h160l211 -326l-21 -14l-270 240l-266 -240z" />
    <glyph glyph-name="jcircumflex" unicode="&#x135;" horiz-adv-x="546" 
d="M76 961l284 96h29v-957q0 -226 -80 -351t-289 -183l-12 22q74 34 117 80t68.5 136.5t25.5 234.5v780q0 81 -32 104t-111 9v29zM4 1176l207 325h160l211 -325l-21 -15l-270 240l-266 -240z" />
    <glyph glyph-name="uni0136" unicode="&#x136;" horiz-adv-x="1474" 
d="M1085 0q-3 60 -59 147l-393 637l-184 -192v-412q0 -75 39.5 -108t144.5 -43v-29h-555v29q105 10 144.5 43t39.5 108v1090q0 75 -39.5 108t-144.5 43v29h555v-29q-105 -10 -144.5 -43t-39.5 -108v-592l587 614q57 58 37 89.5t-135 37.5v31h432v-31q-149 -14 -264 -137
l-340 -356l469 -752q36 -62 99 -101t130 -42v-31h-379zM629 -225q0 50 36 82t91 32q63 0 100 -38.5t37 -98.5q0 -104 -68 -171.5t-188 -94.5l-4 16q146 71 164 166q-24 -12 -49 -12q-51 0 -85 33t-34 86z" />
    <glyph glyph-name="uni0137" unicode="&#x137;" horiz-adv-x="1150" 
d="M938 170q45 -75 90.5 -105.5t114.5 -35.5v-29h-332q1 26 -10.5 56t-42.5 85l-238 430l-153 -141v-270q0 -63 31 -92t110 -39v-29h-453v29q80 11 111 39.5t31 91.5v1083q0 79 -31.5 102t-110.5 11v28l283 97h29v-973l407 373q49 43 30 77.5t-99 38.5v29h391v-29
q-71 -7 -126.5 -37t-133.5 -100l-185 -168zM473 -225q0 50 36 82t91 32q63 0 100 -38.5t37 -98.5q0 -104 -68 -171.5t-188 -94.5l-4 16q146 71 164 166q-24 -12 -49 -12q-51 0 -85 33t-34 86z" />
    <glyph glyph-name="kgreenlandic" unicode="&#x138;" horiz-adv-x="1163" 
d="M819 0q4 25 -6.5 55t-42.5 86l-238 430l-153 -141v-270q0 -63 30 -91.5t107 -39.5v-29h-444v29q77 11 107 39.5t30 91.5v659q0 81 -31.5 104t-109.5 9v29l282 96h29v-549l407 373q49 43 30 77.5t-99 38.5v29h391v-29q-71 -7 -126.5 -37t-133.5 -100l-184 -168l286 -522
q45 -75 90.5 -105.5t114.5 -35.5v-29h-336z" />
    <glyph glyph-name="Lacute" unicode="&#x139;" horiz-adv-x="1236" 
d="M1167 379h29l-55 -379h-1063v29q105 10 144.5 43t39.5 108v1090q0 75 -39.5 108t-144.5 43v29h555v-29q-105 -10 -144.5 -43t-39.5 -108v-1077q0 -74 26 -105t90 -31h275q132 0 210.5 77.5t116.5 244.5zM340 1581l137 338h205l-313 -338h-29z" />
    <glyph glyph-name="lacute" unicode="&#x13a;" horiz-adv-x="571" 
d="M367 160q0 -63 31 -92t110 -39v-29h-453v29q80 11 111 39.5t31 91.5v1083q0 79 -31.5 102t-110.5 11v28l283 97h29v-1321zM244 1548l137 338h205l-314 -338h-28z" />
    <glyph glyph-name="uni013B" unicode="&#x13b;" horiz-adv-x="1236" 
d="M1167 379h29l-55 -379h-1063v29q105 10 144.5 43t39.5 108v1090q0 75 -39.5 108t-144.5 43v29h555v-29q-105 -10 -144.5 -43t-39.5 -108v-1077q0 -74 26 -105t90 -31h275q132 0 210.5 77.5t116.5 244.5zM459 -225q0 50 36 82t91 32q63 0 100 -38.5t37 -98.5
q0 -104 -68 -171.5t-188 -94.5l-4 16q146 71 164 166q-24 -12 -49 -12q-51 0 -85 33t-34 86z" />
    <glyph glyph-name="uni013C" unicode="&#x13c;" horiz-adv-x="571" 
d="M367 160q0 -63 31 -92t110 -39v-29h-453v29q80 11 111 39.5t31 91.5v1083q0 79 -31.5 102t-110.5 11v28l283 97h29v-1321zM147 -225q0 50 36 82t91 32q63 0 100.5 -38.5t37.5 -98.5q0 -104 -68 -171.5t-188 -94.5l-4 16q62 30 107.5 72.5t55.5 93.5q-24 -12 -49 -12
q-51 0 -85 33t-34 86z" />
    <glyph glyph-name="Lcaron" unicode="&#x13d;" horiz-adv-x="1236" 
d="M1167 379h29l-55 -379h-1063v29q105 10 144.5 43t39.5 108v1090q0 75 -39.5 108t-144.5 43v29h555v-29q-105 -10 -144.5 -43t-39.5 -108v-1077q0 -74 26 -105t90 -31h275q132 0 210.5 77.5t116.5 244.5zM745 1223l41 411h164l-176 -411h-29z" />
    <glyph glyph-name="lcaron" unicode="&#x13e;" horiz-adv-x="571" 
d="M367 160q0 -63 31 -92t110 -39v-29h-453v29q80 11 111 39.5t31 91.5v1083q0 79 -31.5 102t-110.5 11v28l283 97h29v-1321zM473 1159l41 412h164l-176 -412h-29z" />
    <glyph glyph-name="Ldot" unicode="&#x13f;" horiz-adv-x="1236" 
d="M1167 379h29l-55 -379h-1063v29q105 10 144.5 43t39.5 108v1090q0 75 -39.5 108t-144.5 43v29h555v-29q-105 -10 -144.5 -43t-39.5 -108v-1077q0 -74 26 -105t90 -31h275q132 0 210.5 77.5t116.5 244.5zM791 717q0 55 39.5 94t95.5 39q57 0 96 -38.5t39 -94.5
q0 -57 -39.5 -96t-95.5 -39t-95.5 39t-39.5 96z" />
    <glyph glyph-name="ldot" unicode="&#x140;" horiz-adv-x="770" 
d="M367 160q0 -63 31 -92t110 -39v-29h-453v29q80 11 111 39.5t31 91.5v1083q0 79 -31.5 102t-110.5 11v28l283 97h29v-1321zM528 717q0 55 40 94t96 39q57 0 96 -38.5t39 -94.5q0 -57 -39.5 -96t-95.5 -39t-96 39t-40 96z" />
    <glyph glyph-name="Lslash" unicode="&#x141;" horiz-adv-x="1222" 
d="M1167 379h29l-55 -379h-1063v29q105 10 144.5 43t39.5 108v408l-121 -60v54l121 59v629q0 75 -39.5 108t-144.5 43v29h555v-29q-105 -10 -144.5 -43t-39.5 -108v-537l438 215v-55l-438 -215v-485q0 -74 26 -105t90 -31h275q132 0 210.5 77.5t116.5 244.5z" />
    <glyph glyph-name="lslash" unicode="&#x142;" horiz-adv-x="571" 
d="M367 160q0 -63 31 -92t110 -39v-29h-453v29q80 11 111 39.5t31 91.5v510l-148 -74v53l148 74v520q0 79 -31.5 102t-110.5 11v28l283 97h29v-674l145 72v-52l-145 -71v-596z" />
    <glyph glyph-name="Nacute" unicode="&#x143;" horiz-adv-x="1509" 
d="M1006 1450h426v-29q-106 -11 -146.5 -43.5t-40.5 -107.5v-1270h-45l-881 1239v-1059q0 -75 40 -108t145 -43v-29h-426v29q105 10 144.5 43t39.5 108v1092q0 77 -39.5 110t-142.5 39v29h319l789 -1128v948q0 76 -38.5 108.5t-143.5 42.5v29zM739 1581l138 338h204
l-313 -338h-29z" />
    <glyph glyph-name="nacute" unicode="&#x144;" horiz-adv-x="1200" 
d="M1018 160q0 -63 31 -92t110 -39v-29h-452v29q79 10 110 39t31 92v542q0 112 -50.5 173t-144.5 61q-75 0 -143.5 -42.5t-142.5 -127.5v-606q0 -63 31 -92t110 -39v-29h-453v29q80 11 111 39.5t31 91.5v659q0 81 -31.5 104t-110.5 9v29l283 96h29v-240q175 240 354 240
q141 0 219 -92.5t78 -253.5v-551zM592 1157l137 338h205l-313 -338h-29z" />
    <glyph glyph-name="uni0145" unicode="&#x145;" horiz-adv-x="1509" 
d="M1006 1450h426v-29q-106 -11 -146.5 -43.5t-40.5 -107.5v-1270h-45l-881 1239v-1059q0 -75 40 -108t145 -43v-29h-426v29q105 10 144.5 43t39.5 108v1092q0 77 -39.5 110t-142.5 39v29h319l789 -1128v948q0 76 -38.5 108.5t-143.5 42.5v29zM670 -225q0 50 36 82t91 32
q63 0 100 -38.5t37 -98.5q0 -104 -68 -171.5t-188 -94.5l-4 16q146 71 164 166q-24 -12 -50 -12q-50 0 -84 33t-34 86z" />
    <glyph glyph-name="uni0146" unicode="&#x146;" horiz-adv-x="1200" 
d="M1018 160q0 -63 31 -92t110 -39v-29h-452v29q79 10 110 39t31 92v542q0 112 -50.5 173t-144.5 61q-75 0 -143.5 -42.5t-142.5 -127.5v-606q0 -63 31 -92t110 -39v-29h-453v29q80 11 111 39.5t31 91.5v659q0 81 -31.5 104t-110.5 9v29l283 96h29v-240q175 240 354 240
q141 0 219 -92.5t78 -253.5v-551zM473 -225q0 50 36 82t91 32q63 0 100 -38.5t37 -98.5q0 -104 -68 -171.5t-188 -94.5l-4 16q146 71 164 166q-24 -12 -49 -12q-51 0 -85 33t-34 86z" />
    <glyph glyph-name="Ncaron" unicode="&#x147;" horiz-adv-x="1509" 
d="M1006 1450h426v-29q-106 -11 -146.5 -43.5t-40.5 -107.5v-1270h-45l-881 1239v-1059q0 -75 40 -108t145 -43v-29h-426v29q105 10 144.5 43t39.5 108v1092q0 77 -39.5 110t-142.5 39v29h319l789 -1128v948q0 76 -38.5 108.5t-143.5 42.5v29zM469 1907l20 16l267 -242
l270 242l21 -16l-211 -324h-160z" />
    <glyph glyph-name="ncaron" unicode="&#x148;" horiz-adv-x="1200" 
d="M1018 160q0 -63 31 -92t110 -39v-29h-452v29q79 10 110 39t31 92v542q0 112 -50.5 173t-144.5 61q-75 0 -143.5 -42.5t-142.5 -127.5v-606q0 -63 31 -92t110 -39v-29h-453v29q80 11 111 39.5t31 91.5v659q0 81 -31.5 104t-110.5 9v29l283 96h29v-240q175 240 354 240
q141 0 219 -92.5t78 -253.5v-551zM319 1483l21 16l266 -242l271 242l20 -16l-211 -324h-160z" />
    <glyph glyph-name="napostrophe" unicode="&#x149;" horiz-adv-x="1200" 
d="M1018 160q0 -63 31 -92t110 -39v-29h-452v29q79 10 110 39t31 92v542q0 112 -50.5 173t-144.5 61q-75 0 -143.5 -42.5t-142.5 -127.5v-606q0 -63 31 -92t110 -39v-29h-453v29q80 11 111 39.5t31 91.5v659q0 81 -31.5 104t-110.5 9v29l283 96h29v-240q175 240 354 240
q141 0 219 -92.5t78 -253.5v-551zM467 1530q0 53 35 89t88 36q63 0 99 -44.5t36 -115.5q0 -121 -66 -199.5t-184 -115.5l-4 20q68 37 117.5 94t50.5 133q-24 -16 -53 -16q-52 0 -85.5 34t-33.5 85z" />
    <glyph glyph-name="Eng" unicode="&#x14a;" horiz-adv-x="1509" 
d="M1006 1452h426v-29q-106 -11 -146.5 -43.5t-40.5 -107.5v-1278q0 -127 -50 -230t-130.5 -158t-173.5 -55q-94 0 -153.5 31.5t-59.5 87.5q0 39 25.5 65.5t66.5 26.5q24 0 55.5 -19t69 -38.5t74.5 -19.5q40 1 77.5 19t70 53t52 96.5t19.5 140.5v20l-869 1225v-1059
q0 -75 40 -108t145 -43v-29h-426v29q105 10 144.5 43t39.5 108v1092q0 77 -39.5 110t-142.5 39v29h319l789 -1137v959q0 76 -38.5 108.5t-143.5 42.5v29z" />
    <glyph glyph-name="eng" unicode="&#x14b;" horiz-adv-x="1177" 
d="M1018 154q0 -122 -36 -224t-123.5 -191.5t-223.5 -146.5l-10 17q63 48 101 89t67.5 98t42 130.5t12.5 177.5v594q0 111 -56 169.5t-155 58.5q-74 0 -135 -37.5t-135 -120.5v-608q0 -63 31 -92t110 -39v-29h-453v29q80 11 111 39.5t31 91.5v659q0 81 -32 104t-110 9v29
l283 96h29v-238q91 120 175.5 179t178.5 59q143 0 220 -91t77 -249v-563z" />
    <glyph glyph-name="Omacron" unicode="&#x14c;" horiz-adv-x="1605" 
d="M799 -31q-205 0 -361 95.5t-238.5 259.5t-82.5 370q0 172 51.5 319t143 249.5t220 160.5t277.5 58q153 0 281.5 -55.5t215 -152.5t135 -230t48.5 -287q0 -228 -88.5 -408t-246 -279.5t-355.5 -99.5zM317 752q3 -206 69 -372t185 -261t267 -92q136 3 239.5 88t158.5 236.5
t52 346.5q-4 208 -69.5 373.5t-182.5 259.5t-266 92q-139 -2 -243.5 -87.5t-159 -237t-50.5 -346.5zM532 1634v58h527v-58h-527z" />
    <glyph glyph-name="omacron" unicode="&#x14d;" horiz-adv-x="1118" 
d="M549 -31q-211 0 -342 145t-131 378q0 252 136.5 408.5t354.5 156.5q212 0 343.5 -144t131.5 -376q0 -255 -136.5 -411.5t-356.5 -156.5zM254 616q0 -149 42 -283t121.5 -220t178.5 -86q119 0 193.5 107t74.5 274q0 150 -42.5 284.5t-122.5 220.5t-179 86
q-119 0 -192.5 -107t-73.5 -276zM295 1210v58h526v-58h-526z" />
    <glyph glyph-name="Obreve" unicode="&#x14e;" horiz-adv-x="1605" 
d="M799 -31q-205 0 -361 95.5t-238.5 259.5t-82.5 370q0 172 51.5 319t143 249.5t220 160.5t277.5 58q153 0 281.5 -55.5t215 -152.5t135 -230t48.5 -287q0 -228 -88.5 -408t-246 -279.5t-355.5 -99.5zM317 752q3 -206 69 -372t185 -261t267 -92q136 3 239.5 88t158.5 236.5
t52 346.5q-4 208 -69.5 373.5t-182.5 259.5t-266 92q-139 -2 -243.5 -87.5t-159 -237t-50.5 -346.5zM553 1931h31q9 -105 64.5 -162t148.5 -57t149.5 57t65.5 162h30q3 -164 -61 -253t-184 -89q-119 0 -182 89t-62 253z" />
    <glyph glyph-name="obreve" unicode="&#x14f;" horiz-adv-x="1118" 
d="M549 -31q-211 0 -342 145t-131 378q0 252 136.5 408.5t354.5 156.5q212 0 343.5 -144t131.5 -376q0 -255 -136.5 -411.5t-356.5 -156.5zM254 616q0 -149 42 -283t121.5 -220t178.5 -86q119 0 193.5 107t74.5 274q0 150 -42.5 284.5t-122.5 220.5t-179 86
q-119 0 -192.5 -107t-73.5 -276zM315 1507h31q9 -105 64.5 -162t148.5 -57t149.5 57t65.5 162h31q3 -164 -61.5 -253t-184.5 -89q-119 0 -182 89t-62 253z" />
    <glyph glyph-name="Ohungarumlaut" unicode="&#x150;" horiz-adv-x="1605" 
d="M799 -31q-205 0 -361 95.5t-238.5 259.5t-82.5 370q0 172 51.5 319t143 249.5t220 160.5t277.5 58q153 0 281.5 -55.5t215 -152.5t135 -230t48.5 -287q0 -228 -88.5 -408t-246 -279.5t-355.5 -99.5zM317 752q3 -206 69 -372t185 -261t267 -92q136 3 239.5 88t158.5 236.5
t52 346.5q-4 208 -69.5 373.5t-182.5 259.5t-266 92q-139 -2 -243.5 -87.5t-159 -237t-50.5 -346.5zM629 1579l133 330h162l-267 -330h-28zM879 1579l133 330h162l-267 -330h-28z" />
    <glyph glyph-name="ohungarumlaut" unicode="&#x151;" horiz-adv-x="1118" 
d="M549 -31q-211 0 -342 145t-131 378q0 252 136.5 408.5t354.5 156.5q212 0 343.5 -144t131.5 -376q0 -255 -136.5 -411.5t-356.5 -156.5zM254 616q0 -149 42 -283t121.5 -220t178.5 -86q119 0 193.5 107t74.5 274q0 150 -42.5 284.5t-122.5 220.5t-179 86
q-119 0 -192.5 -107t-73.5 -276zM391 1155l133 330h162l-266 -330h-29zM641 1155l133 330h162l-266 -330h-29z" />
    <glyph glyph-name="OE" unicode="&#x152;" horiz-adv-x="2064" 
d="M1980 379h29l-55 -379h-953q-98 -31 -202 -31q-205 0 -361 95.5t-238.5 259.5t-82.5 370q0 172 51.5 319t143 249.5t220 160.5t277.5 58q113 0 215 -31h764q89 0 102 31h29l66 -408h-29q-40 171 -119 245.5t-221 74.5h-369v-621h266q90 0 126.5 48.5t27.5 160.5h29
l65 -475h-28q-24 111 -73 160t-128 49h-285v-522q0 -74 26.5 -105t90.5 -31h289q132 0 210.5 77.5t116.5 244.5zM317 752q3 -206 69 -371.5t184.5 -260t267.5 -91.5q129 0 221 114q2 12 2 37v1090v6q-123 148 -285 145q-141 -1 -247 -86t-161 -236.5t-51 -346.5z" />
    <glyph glyph-name="oe" unicode="&#x153;" horiz-adv-x="1808" 
d="M76 492q0 251 135.5 408t351.5 157q282 0 395 -266q120 266 390 266q124 0 211 -60.5t124 -159t27 -219.5h-670v-43q0 -138 43.5 -244.5t132 -169.5t211.5 -63q88 0 160 56.5t101 148.5l26 -6q-23 -146 -126 -236t-245 -90q-286 0 -397 269q-121 -269 -397 -269
q-211 0 -342 144t-131 377zM254 616q0 -149 42 -282.5t121.5 -219t178.5 -85.5q119 0 193.5 106.5t74.5 274.5q0 149 -42.5 283t-122.5 220t-179 86q-119 0 -192.5 -107t-73.5 -276zM1044 666h496q8 136 -56.5 234.5t-170.5 98.5q-118 0 -186.5 -88t-82.5 -245z" />
    <glyph glyph-name="Racute" unicode="&#x154;" horiz-adv-x="1394" 
d="M78 29q105 6 144.5 40.5t39.5 129.5v1054q0 94 -40 128t-144 40v29h573q250 0 396.5 -110t146.5 -296q0 -151 -98 -252.5t-269 -134.5l369 -512q33 -46 87.5 -78.5t100.5 -35.5v-31h-335q-9 44 -54 109l-370 528h-176v-438q0 -98 40.5 -131t143.5 -39v-29h-555v29z
M449 694h169q173 0 274 98.5t101 251.5q0 155 -100 252t-275 97h-169v-699zM651 1581l137 338h205l-313 -338h-29z" />
    <glyph glyph-name="racute" unicode="&#x155;" horiz-adv-x="804" 
d="M633 1057q74 0 117 -30t43 -81q0 -38 -22 -64t-56 -26q-31 0 -52.5 17t-44 34t-55.5 17q-79 0 -137.5 -84t-58.5 -207v-475q0 -67 44.5 -92.5t155.5 -36.5v-29h-512v29q79 10 110.5 39.5t31.5 89.5v661q0 81 -31.5 104t-110.5 9v29l283 96h29v-269q30 128 103 198.5
t163 70.5zM432 1157l137 338h205l-313 -338h-29z" />
    <glyph glyph-name="uni0156" unicode="&#x156;" horiz-adv-x="1394" 
d="M78 29q105 6 144.5 40.5t39.5 129.5v1054q0 94 -40 128t-144 40v29h573q250 0 396.5 -110t146.5 -296q0 -151 -98 -252.5t-269 -134.5l369 -512q33 -46 87.5 -78.5t100.5 -35.5v-31h-335q-9 44 -54 109l-370 528h-176v-438q0 -98 40.5 -131t143.5 -39v-29h-555v29z
M449 694h169q173 0 274 98.5t101 251.5q0 155 -100 252t-275 97h-169v-699zM647 -225q0 50 36 82t91 32q63 0 100 -38.5t37 -98.5q0 -104 -68 -171.5t-188 -94.5l-4 16q146 71 164 166q-24 -12 -49 -12q-51 0 -85 33t-34 86z" />
    <glyph glyph-name="uni0157" unicode="&#x157;" horiz-adv-x="804" 
d="M633 1057q74 0 117 -30t43 -81q0 -38 -22 -64t-56 -26q-31 0 -52.5 17t-44 34t-55.5 17q-79 0 -137.5 -84t-58.5 -207v-475q0 -67 44.5 -92.5t155.5 -36.5v-29h-512v29q79 10 110.5 39.5t31.5 89.5v661q0 81 -31.5 104t-110.5 9v29l283 96h29v-269q30 128 103 198.5
t163 70.5zM158 -225q0 50 36 82t91 32q63 0 100 -38.5t37 -98.5q0 -104 -68 -171.5t-188 -94.5l-4 16q146 71 164 166q-24 -12 -50 -12q-50 0 -84 33t-34 86z" />
    <glyph glyph-name="Rcaron" unicode="&#x158;" horiz-adv-x="1394" 
d="M78 29q105 6 144.5 40.5t39.5 129.5v1054q0 94 -40 128t-144 40v29h573q250 0 396.5 -110t146.5 -296q0 -151 -98 -252.5t-269 -134.5l369 -512q33 -46 87.5 -78.5t100.5 -35.5v-31h-335q-9 44 -54 109l-370 528h-176v-438q0 -98 40.5 -131t143.5 -39v-29h-555v29z
M381 1907l20 16l267 -242l270 242l20 -16l-210 -324h-160zM449 694h169q173 0 274 98.5t101 251.5q0 155 -100 252t-275 97h-169v-699z" />
    <glyph glyph-name="rcaron" unicode="&#x159;" horiz-adv-x="804" 
d="M633 1057q74 0 117 -30t43 -81q0 -38 -22 -64t-56 -26q-31 0 -52.5 17t-44 34t-55.5 17q-79 0 -137.5 -84t-58.5 -207v-475q0 -67 44.5 -92.5t155.5 -36.5v-29h-512v29q79 10 110.5 39.5t31.5 89.5v661q0 81 -31.5 104t-110.5 9v29l283 96h29v-269q30 128 103 198.5
t163 70.5zM160 1483l20 16l266 -242l271 242l20 -16l-211 -324h-159z" />
    <glyph glyph-name="Sacute" unicode="&#x15a;" horiz-adv-x="1167" 
d="M604 -31q-87 0 -161 20.5t-109.5 41t-64 30t-42 -9.5t-26.5 -82h-29l-74 467h29q73 -201 194.5 -304t282.5 -103q129 0 211 77t82 197q0 73 -26.5 130.5t-71 95t-102 68t-121.5 55t-128 50t-121.5 60t-102 77.5t-71 109t-26.5 150q0 173 116 278t314 105
q72 0 137.5 -16.5t99.5 -33t62.5 -24.5t43 8t24.5 66h28l66 -418h-29q-53 172 -170 266t-262 94q-125 0 -197.5 -68t-72.5 -184q0 -66 27 -118t72.5 -87t104.5 -64t124 -54.5t130 -52t124 -63t104.5 -81.5t72.5 -113t27 -153q0 -185 -130.5 -300.5t-338.5 -115.5zM561 1581
l137 338h205l-313 -338h-29z" />
    <glyph glyph-name="sacute" unicode="&#x15b;" horiz-adv-x="888" 
d="M465 -29q-56 0 -110.5 15.5t-85.5 31.5t-56.5 23.5t-37.5 -8.5t-15 -64h-29l-53 346h28q51 -135 149 -210.5t208 -75.5q95 0 156 50t61 134q0 47 -20.5 84.5t-54.5 62.5t-78.5 46t-93.5 38.5t-98 36.5t-93.5 44.5t-78.5 57.5t-54.5 80.5t-20.5 108.5q0 127 92 206t232 79
q53 0 106 -15.5t83.5 -31t56 -23.5t36 7.5t11.5 62.5h28l51 -318h-28q-53 123 -140.5 191.5t-195.5 68.5q-84 0 -139.5 -47t-55.5 -123q0 -48 25.5 -84.5t67 -58.5t95 -44t108.5 -40t108.5 -46.5t95 -63.5t67 -92t25.5 -130q0 -128 -95.5 -213.5t-256.5 -85.5zM434 1157
l137 338h205l-313 -338h-29z" />
    <glyph glyph-name="Scircumflex" unicode="&#x15c;" horiz-adv-x="1167" 
d="M604 -31q-87 0 -161 20.5t-109.5 41t-64 30t-42 -9.5t-26.5 -82h-29l-74 467h29q73 -201 194.5 -304t282.5 -103q129 0 211 77t82 197q0 73 -26.5 130.5t-71 95t-102 68t-121.5 55t-128 50t-121.5 60t-102 77.5t-71 109t-26.5 150q0 173 116 278t314 105
q72 0 137.5 -16.5t99.5 -33t62.5 -24.5t43 8t24.5 66h28l66 -418h-29q-53 172 -170 266t-262 94q-125 0 -197.5 -68t-72.5 -184q0 -66 27 -118t72.5 -87t104.5 -64t124 -54.5t130 -52t124 -63t104.5 -81.5t72.5 -113t27 -153q0 -185 -130.5 -300.5t-338.5 -115.5zM289 1597
l207 326h159l211 -326l-20 -14l-271 240l-266 -240z" />
    <glyph glyph-name="scircumflex" unicode="&#x15d;" horiz-adv-x="888" 
d="M465 -29q-56 0 -110.5 15.5t-85.5 31.5t-56.5 23.5t-37.5 -8.5t-15 -64h-29l-53 346h28q51 -135 149 -210.5t208 -75.5q95 0 156 50t61 134q0 47 -20.5 84.5t-54.5 62.5t-78.5 46t-93.5 38.5t-98 36.5t-93.5 44.5t-78.5 57.5t-54.5 80.5t-20.5 108.5q0 127 92 206t232 79
q53 0 106 -15.5t83.5 -31t56 -23.5t36 7.5t11.5 62.5h28l51 -318h-28q-53 123 -140.5 191.5t-195.5 68.5q-84 0 -139.5 -47t-55.5 -123q0 -48 25.5 -84.5t67 -58.5t95 -44t108.5 -40t108.5 -46.5t95 -63.5t67 -92t25.5 -130q0 -128 -95.5 -213.5t-256.5 -85.5zM162 1174
l207 325h159l211 -325l-20 -15l-270 240l-267 -240z" />
    <glyph glyph-name="Scedilla" unicode="&#x15e;" horiz-adv-x="1167" 
d="M422 -403q85 -9 137.5 19t52.5 85q0 37 -34.5 65.5t-98.5 38.5l107 164q-61 2 -115.5 13.5t-88 26.5t-63 29t-46 21.5t-30.5 2.5t-23.5 -26.5t-18.5 -66.5h-29l-74 467h29q73 -201 194.5 -304t282.5 -103q129 0 211 77t82 197q0 73 -26.5 130.5t-71 95t-102 68t-121.5 55
t-128 50t-121.5 60t-102 77.5t-71 109t-26.5 150q0 173 116 278t314 105q72 0 137.5 -16.5t99.5 -33t62.5 -24.5t43 8t24.5 66h28l66 -418h-29q-53 172 -170 266t-262 94q-125 0 -197.5 -68t-72.5 -184q0 -66 27 -118t72.5 -87t104.5 -64t124 -54.5t130 -52t124 -63
t104.5 -81.5t72.5 -113t27 -153q0 -181 -124 -295.5t-324 -120.5l-54 -88q74 -4 118 -45t44 -102q0 -99 -83.5 -142.5t-227.5 -15.5v21z" />
    <glyph glyph-name="scedilla" unicode="&#x15f;" horiz-adv-x="888" 
d="M270 -403q85 -9 138 19t53 85q0 37 -34.5 65.5t-98.5 38.5l108 166q-37 3 -74 12.5t-62 20.5t-48.5 21.5t-38 15t-26.5 0.5t-18 -21.5t-9 -50.5h-29l-53 346h28q51 -135 149 -210.5t208 -75.5q95 0 156 50t61 134q0 47 -20.5 84.5t-54.5 62.5t-78.5 46t-93.5 38.5
t-98 36.5t-93.5 44.5t-78.5 57.5t-54.5 80.5t-20.5 108.5q0 127 92 206t232 79q53 0 106 -15.5t83.5 -31t56 -23.5t36 7.5t11.5 62.5h28l51 -318h-28q-53 123 -140.5 191.5t-195.5 68.5q-84 0 -139.5 -47t-55.5 -123q0 -48 25.5 -84.5t67 -58.5t95 -44t108.5 -40
t108.5 -46.5t95 -63.5t67 -92t25.5 -130q0 -127 -92.5 -211.5t-249.5 -87.5l-55 -90q74 -4 118 -45t44 -102q0 -99 -84 -142.5t-228 -15.5v21z" />
    <glyph glyph-name="Scaron" unicode="&#x160;" horiz-adv-x="1167" 
d="M604 -31q-87 0 -161 20.5t-109.5 41t-64 30t-42 -9.5t-26.5 -82h-29l-74 467h29q73 -201 194.5 -304t282.5 -103q129 0 211 77t82 197q0 73 -26.5 130.5t-71 95t-102 68t-121.5 55t-128 50t-121.5 60t-102 77.5t-71 109t-26.5 150q0 173 116 278t314 105
q72 0 137.5 -16.5t99.5 -33t62.5 -24.5t43 8t24.5 66h28l66 -418h-29q-53 172 -170 266t-262 94q-125 0 -197.5 -68t-72.5 -184q0 -66 27 -118t72.5 -87t104.5 -64t124 -54.5t130 -52t124 -63t104.5 -81.5t72.5 -113t27 -153q0 -185 -130.5 -300.5t-338.5 -115.5zM289 1907
l20 16l266 -242l271 242l20 -16l-211 -324h-159z" />
    <glyph glyph-name="scaron" unicode="&#x161;" horiz-adv-x="888" 
d="M465 -29q-56 0 -110.5 15.5t-85.5 31.5t-56.5 23.5t-37.5 -8.5t-15 -64h-29l-53 346h28q51 -135 149 -210.5t208 -75.5q95 0 156 50t61 134q0 47 -20.5 84.5t-54.5 62.5t-78.5 46t-93.5 38.5t-98 36.5t-93.5 44.5t-78.5 57.5t-54.5 80.5t-20.5 108.5q0 127 92 206t232 79
q53 0 106 -15.5t83.5 -31t56 -23.5t36 7.5t11.5 62.5h28l51 -318h-28q-53 123 -140.5 191.5t-195.5 68.5q-84 0 -139.5 -47t-55.5 -123q0 -48 25.5 -84.5t67 -58.5t95 -44t108.5 -40t108.5 -46.5t95 -63.5t67 -92t25.5 -130q0 -128 -95.5 -213.5t-256.5 -85.5zM162 1483
l20 16l267 -242l270 242l20 -16l-211 -324h-159z" />
    <glyph glyph-name="uni0162" unicode="&#x162;" horiz-adv-x="1277" 
d="M362 29q106 8 145.5 43t39.5 121v1200h-170q-136 -3 -213 -78t-115 -242h-29l66 408h29q11 -31 102 -31h846q89 0 102 31h29l63 -408h-28q-38 167 -115 242t-213 78h-170v-1200q0 -86 39 -121.5t145 -42.5v-29h-217l-71 -119q74 -4 117.5 -45t43.5 -102
q0 -99 -83.5 -142.5t-227.5 -15.5v21q85 -9 138 19t53 85q0 37 -34.5 65.5t-98.5 38.5l127 195h-300v29z" />
    <glyph glyph-name="uni0163" unicode="&#x163;" horiz-adv-x="712" 
d="M666 121q-16 -42 -66.5 -90.5t-116.5 -59.5l-55 -90q74 -4 118 -45t44 -102q0 -99 -83.5 -142.5t-227.5 -15.5v21q85 -9 137.5 19t52.5 85q0 37 -34.5 65.5t-98.5 38.5l106 164q-118 3 -182.5 81t-64.5 216v703h-168v28q247 62 309 297h29v-268h290v-57h-290v-699
q0 -97 42 -153.5t123 -53.5q15 0 29 4t23 8t21 13t16.5 13t16 16t13.5 14z" />
    <glyph glyph-name="Tcaron" unicode="&#x164;" horiz-adv-x="1277" 
d="M362 29q106 8 145.5 43t39.5 121v1200h-170q-136 -3 -213 -78t-115 -242h-29l66 408h29q11 -31 102 -31h846q89 0 102 31h29l63 -408h-28q-38 167 -115 242t-213 78h-170v-1200q0 -86 39 -121.5t145 -42.5v-29h-553v29zM352 1907l21 16l266 -242l270 242l21 -16
l-211 -324h-160z" />
    <glyph glyph-name="tcaron" unicode="&#x165;" horiz-adv-x="712" 
d="M666 121q-11 -28 -36.5 -60.5t-74 -62t-102.5 -29.5q-123 0 -190.5 78t-67.5 219v703h-168v28q247 62 309 297h29v-268h290v-57h-290v-699q0 -97 42 -153.5t123 -53.5q15 0 29 4t23 8t21 13t16.5 13t16 16t13.5 14zM469 1159l41 412h164l-176 -412h-29z" />
    <glyph glyph-name="Tbar" unicode="&#x166;" horiz-adv-x="1277" 
d="M362 29q106 8 145.5 43t39.5 121v501h-230v58h230v641h-170q-136 -3 -213 -78t-115 -242h-29l66 408h29q11 -31 102 -31h846q89 0 102 31h29l63 -408h-28q-38 167 -115 242t-213 78h-170v-641h227v-58h-227v-501q0 -86 39 -121.5t145 -42.5v-29h-553v29z" />
    <glyph glyph-name="tbar" unicode="&#x167;" horiz-adv-x="712" 
d="M666 121q-11 -28 -36.5 -60.5t-74 -62t-102.5 -29.5q-123 0 -190.5 78t-67.5 219v309h-172v58h172v336h-168v28q247 62 309 297h29v-268h290v-57h-290v-336h299v-58h-299v-305q0 -97 42 -153.5t123 -53.5q15 0 29 4t23 8t21 13t16.5 13t16 16t13.5 14z" />
    <glyph glyph-name="Utilde" unicode="&#x168;" horiz-adv-x="1495" 
d="M1024 1421v29h430v-29q-106 -10 -146 -43t-40 -108v-760q0 -247 -135.5 -394t-362.5 -147q-255 0 -399 143t-144 398v760q0 75 -40 108t-146 43v29h557v-29q-106 -10 -146 -43t-40 -108v-760q0 -214 112 -343.5t297 -129.5q181 0 285 128.5t104 344.5v760q0 75 -40 108
t-146 43zM498 1602q3 245 159 245q40 0 94 -28.5t105 -57t84 -28.5q76 0 94 125l29 -3q-6 -249 -156 -249q-44 0 -98 28.5t-103.5 57t-82.5 28.5q-41 0 -64.5 -30t-32.5 -93z" />
    <glyph glyph-name="utilde" unicode="&#x169;" horiz-adv-x="1206" 
d="M993 -31q-68 0 -113.5 46t-45.5 116v78q-90 -123 -175.5 -181.5t-179.5 -58.5q-143 0 -220 91t-77 249v510q0 81 -31 104t-110 9v29l283 96h28v-727q0 -112 56 -170t155 -58q75 0 137 37t134 121v559q0 81 -32.5 104t-111.5 9v29l283 96h28v-912q0 -37 17.5 -59.5
t44.5 -22.5q45 0 84 68l24 -10q-37 -85 -85.5 -118.5t-92.5 -33.5zM313 1178q2 115 41 180t119 65q40 0 94 -28.5t105 -57t84 -28.5q76 0 94 125l29 -2q-6 -250 -156 -250q-44 0 -98.5 28.5t-104 57t-82.5 28.5q-41 0 -64 -29.5t-32 -92.5z" />
    <glyph glyph-name="Umacron" unicode="&#x16a;" horiz-adv-x="1495" 
d="M1024 1421v29h430v-29q-106 -10 -146 -43t-40 -108v-760q0 -247 -135.5 -394t-362.5 -147q-255 0 -399 143t-144 398v760q0 75 -40 108t-146 43v29h557v-29q-106 -10 -146 -43t-40 -108v-760q0 -214 112 -343.5t297 -129.5q181 0 285 128.5t104 344.5v760q0 75 -40 108
t-146 43zM520 1634v58h527v-58h-527z" />
    <glyph glyph-name="umacron" unicode="&#x16b;" horiz-adv-x="1206" 
d="M993 -31q-68 0 -113.5 46t-45.5 116v78q-90 -123 -175.5 -181.5t-179.5 -58.5q-143 0 -220 91t-77 249v510q0 81 -31 104t-110 9v29l283 96h28v-727q0 -112 56 -170t155 -58q75 0 137 37t134 121v559q0 81 -32.5 104t-111.5 9v29l283 96h28v-912q0 -37 17.5 -59.5
t44.5 -22.5q45 0 84 68l24 -10q-37 -85 -85.5 -118.5t-92.5 -33.5zM336 1210v58h526v-58h-526z" />
    <glyph glyph-name="Ubreve" unicode="&#x16c;" horiz-adv-x="1495" 
d="M1024 1421v29h430v-29q-106 -10 -146 -43t-40 -108v-760q0 -247 -135.5 -394t-362.5 -147q-255 0 -399 143t-144 398v760q0 75 -40 108t-146 43v29h557v-29q-106 -10 -146 -43t-40 -108v-760q0 -214 112 -343.5t297 -129.5q181 0 285 128.5t104 344.5v760q0 75 -40 108
t-146 43zM541 1931h30q9 -105 64.5 -162t148.5 -57t149.5 57t65.5 162h31q3 -164 -61.5 -253t-184.5 -89q-118 0 -181.5 89t-61.5 253z" />
    <glyph glyph-name="ubreve" unicode="&#x16d;" horiz-adv-x="1206" 
d="M993 -31q-68 0 -113.5 46t-45.5 116v78q-90 -123 -175.5 -181.5t-179.5 -58.5q-143 0 -220 91t-77 249v510q0 81 -31 104t-110 9v29l283 96h28v-727q0 -112 56 -170t155 -58q75 0 137 37t134 121v559q0 81 -32.5 104t-111.5 9v29l283 96h28v-912q0 -37 17.5 -59.5
t44.5 -22.5q45 0 84 68l24 -10q-37 -85 -85.5 -118.5t-92.5 -33.5zM356 1507h31q9 -105 64.5 -162t148.5 -57t149.5 57t65.5 162h31q3 -164 -61.5 -253t-184.5 -89q-119 0 -182 89t-62 253z" />
    <glyph glyph-name="Uring" unicode="&#x16e;" horiz-adv-x="1495" 
d="M1024 1421v29h430v-29q-106 -10 -146 -43t-40 -108v-760q0 -247 -135.5 -394t-362.5 -147q-255 0 -399 143t-144 398v760q0 75 -40 108t-146 43v29h557v-29q-106 -10 -146 -43t-40 -108v-760q0 -214 112 -343.5t297 -129.5q181 0 285 128.5t104 344.5v760q0 75 -40 108
t-146 43zM584 1749q0 82 57 135t143 53q87 0 144 -53.5t57 -134.5q0 -80 -57.5 -134t-143.5 -54t-143 54t-57 134zM662 1751q0 -55 34.5 -91t87.5 -36q54 0 88.5 35.5t34.5 91.5q0 54 -34.5 89.5t-88.5 35.5q-53 0 -87.5 -35.5t-34.5 -89.5z" />
    <glyph glyph-name="uring" unicode="&#x16f;" horiz-adv-x="1206" 
d="M993 -31q-68 0 -113.5 46t-45.5 116v78q-90 -123 -175.5 -181.5t-179.5 -58.5q-143 0 -220 91t-77 249v510q0 81 -31 104t-110 9v29l283 96h28v-727q0 -112 56 -170t155 -58q75 0 137 37t134 121v559q0 81 -32.5 104t-111.5 9v29l283 96h28v-912q0 -37 17.5 -59.5
t44.5 -22.5q45 0 84 68l24 -10q-37 -85 -85.5 -118.5t-92.5 -33.5zM399 1325q0 81 57 134.5t144 53.5t144 -53.5t57 -134.5q0 -80 -57.5 -134t-143.5 -54t-143.5 54t-57.5 134zM477 1327q0 -55 35 -91t88 -36q54 0 88.5 35.5t34.5 91.5q0 54 -34.5 89.5t-88.5 35.5
q-53 0 -88 -35.5t-35 -89.5z" />
    <glyph glyph-name="Uhungarumlaut" unicode="&#x170;" horiz-adv-x="1495" 
d="M1024 1421v29h430v-29q-106 -10 -146 -43t-40 -108v-760q0 -247 -135.5 -394t-362.5 -147q-255 0 -399 143t-144 398v760q0 75 -40 108t-146 43v29h557v-29q-106 -10 -146 -43t-40 -108v-760q0 -214 112 -343.5t297 -129.5q181 0 285 128.5t104 344.5v760q0 75 -40 108
t-146 43zM614 1579l134 330h161l-266 -330h-29zM864 1579l133 330h162l-266 -330h-29z" />
    <glyph glyph-name="uhungarumlaut" unicode="&#x171;" horiz-adv-x="1206" 
d="M993 -31q-68 0 -113.5 46t-45.5 116v78q-90 -123 -175.5 -181.5t-179.5 -58.5q-143 0 -220 91t-77 249v510q0 81 -31 104t-110 9v29l283 96h28v-727q0 -112 56 -170t155 -58q75 0 137 37t134 121v559q0 81 -32.5 104t-111.5 9v29l283 96h28v-912q0 -37 17.5 -59.5
t44.5 -22.5q45 0 84 68l24 -10q-37 -85 -85.5 -118.5t-92.5 -33.5zM432 1155l133 330h162l-266 -330h-29zM682 1155l133 330h162l-266 -330h-29z" />
    <glyph glyph-name="Uogonek" unicode="&#x172;" horiz-adv-x="1495" 
d="M1024 1421v29h430v-29q-106 -10 -146 -43t-40 -108v-760q0 -204 -94.5 -341.5t-260.5 -180.5q-172 -165 -172 -281q0 -89 73.5 -108t170.5 45l12 -19q-42 -52 -95 -77t-105 -25q-84 0 -134.5 41t-50.5 110q0 146 211 297q-16 -2 -53 -2q-255 0 -399 143t-144 398v760
q0 75 -40 108t-146 43v29h557v-29q-106 -10 -146 -43t-40 -108v-760q0 -214 112 -343.5t297 -129.5q181 0 285 128.5t104 344.5v760q0 75 -40 108t-146 43z" />
    <glyph glyph-name="uogonek" unicode="&#x173;" horiz-adv-x="1206" 
d="M975 -446q-83 0 -133.5 41t-50.5 110q0 129 172 266q-58 11 -93.5 54.5t-35.5 105.5v78q-90 -123 -175.5 -181.5t-179.5 -58.5q-143 0 -220 91t-77 249v510q0 81 -31 104t-110 9v29l283 96h28v-727q0 -112 56 -170t155 -58q75 0 137 37t134 121v559q0 81 -32.5 104
t-111.5 9v29l283 96h28v-912q0 -37 17.5 -59.5t44.5 -22.5q45 0 84 68l24 -10q-14 -35 -32 -62l-2 -2q-35 -49 -76 -69q-141 -148 -141 -250q0 -89 73 -108.5t170 44.5l13 -18q-42 -52 -95.5 -77t-105.5 -25z" />
    <glyph glyph-name="Wcircumflex" unicode="&#x174;" horiz-adv-x="2199" 
d="M219 1206q-42 111 -88.5 162.5t-118.5 52.5v29h541v-29q-122 -1 -153 -46.5t10 -151.5l346 -963l317 899l-43 101q-36 80 -79 120t-107 41v29h542v-29q-123 0 -154 -47t9 -151l346 -963l348 963q41 103 11.5 150t-154.5 48v29h395v-29q-65 -2 -110.5 -51t-87.5 -166
l-453 -1235h-27l-403 1104l-401 -1104h-27zM827 1597l207 326h160l211 -326l-21 -14l-270 240l-266 -240z" />
    <glyph glyph-name="wcircumflex" unicode="&#x175;" horiz-adv-x="1644" 
d="M754 868q-46 111 -142 129v29h443v-29q-161 -25 -117 -131l252 -649l258 651q45 102 -123 129v29h311v-29q-43 -8 -75 -39t-56 -92l-362 -897h-29l-287 713l-288 -713h-29l-356 893q-47 113 -146 135v29h445v-29q-162 -24 -119 -125l252 -655l213 537zM551 1174l207 325
h160l210 -325l-20 -15l-270 240l-267 -240z" />
    <glyph glyph-name="Ycircumflex" unicode="&#x176;" horiz-adv-x="1386" 
d="M938 1450h440v-29q-102 -10 -154.5 -45t-90.5 -110l-328 -643v-428q0 -88 38 -122.5t144 -41.5v-31h-551v31q106 7 144 41.5t38 122.5v403l-374 662q-23 42 -40.5 66t-44.5 46t-63 33t-88 16v29h588v-29q-214 -21 -141 -151l321 -574l293 574q36 67 5 104t-136 47v29z
M457 1597l207 326h159l211 -326l-20 -14l-271 240l-266 -240z" />
    <glyph glyph-name="ycircumflex" unicode="&#x177;" horiz-adv-x="1085" 
d="M197 -434q-76 0 -131.5 33t-55.5 86q0 39 25.5 65.5t66.5 26.5q26 0 87.5 -34t109.5 -34q61 0 108 46.5t85 144.5l34 90l-364 870q-52 128 -139 137v29h446v-29q-171 -12 -119 -137l264 -653l258 653q52 125 -106 137v29h311v-29q-88 -9 -143 -137l-389 -979
q-24 -63 -55 -116t-73 -99.5t-98.5 -73t-121.5 -26.5zM301 1174l207 325h160l211 -325l-21 -15l-270 240l-266 -240z" />
    <glyph glyph-name="Ydieresis" unicode="&#x178;" horiz-adv-x="1386" 
d="M938 1450h440v-29q-102 -10 -154.5 -45t-90.5 -110l-328 -643v-428q0 -88 38 -122.5t144 -41.5v-31h-551v31q106 7 144 41.5t38 122.5v403l-374 662q-23 42 -40.5 66t-44.5 46t-63 33t-88 16v29h588v-29q-214 -21 -141 -151l321 -574l293 574q36 67 5 104t-136 47v29z
M446 1751q0 48 34.5 81.5t86.5 33.5q49 0 82 -33.5t33 -81.5q0 -50 -33 -83.5t-82 -33.5q-52 0 -86.5 33.5t-34.5 83.5zM807 1751q0 48 34 81.5t85 33.5q50 0 83 -33.5t33 -81.5q0 -50 -32.5 -83.5t-83.5 -33.5t-85 33.5t-34 83.5z" />
    <glyph glyph-name="Zacute" unicode="&#x179;" horiz-adv-x="1189" 
d="M1038 -31q-13 31 -102 31h-889v31l844 1362h-422q-142 0 -221 -74.5t-119 -245.5h-29l64 408h29q13 -31 104 -31h829v-31l-843 -1362h481q142 0 221 74.5t119 245.5h29l-66 -408h-29zM606 1581l137 338h205l-313 -338h-29z" />
    <glyph glyph-name="zacute" unicode="&#x17a;" horiz-adv-x="960" 
d="M891 1026v-29l-631 -940h363q90 0 148 68t93 215h29l-43 -340h-801v29l631 940h-338q-87 0 -143 -57.5t-95 -192.5h-28l26 307h789zM479 1157l137 338h205l-313 -338h-29z" />
    <glyph glyph-name="Zdotaccent" unicode="&#x17b;" horiz-adv-x="1189" 
d="M1038 -31q-13 31 -102 31h-889v31l844 1362h-422q-142 0 -221 -74.5t-119 -245.5h-29l64 408h29q13 -31 104 -31h829v-31l-843 -1362h481q142 0 221 74.5t119 245.5h29l-66 -408h-29zM494 1759q0 53 37 88t92 35q54 0 89.5 -35t35.5 -88t-35.5 -88t-89.5 -35
q-55 0 -92 35t-37 88z" />
    <glyph glyph-name="zdotaccent" unicode="&#x17c;" horiz-adv-x="960" 
d="M891 1026v-29l-631 -940h363q90 0 148 68t93 215h29l-43 -340h-801v29l631 940h-338q-87 0 -143 -57.5t-95 -192.5h-28l26 307h789zM367 1335q0 53 37 88t92 35q54 0 89.5 -35t35.5 -88t-35.5 -88t-89.5 -35q-55 0 -92 35t-37 88z" />
    <glyph glyph-name="Zcaron" unicode="&#x17d;" horiz-adv-x="1189" 
d="M1038 -31q-13 31 -102 31h-889v31l844 1362h-422q-142 0 -221 -74.5t-119 -245.5h-29l64 408h29q13 -31 104 -31h829v-31l-843 -1362h481q142 0 221 74.5t119 245.5h29l-66 -408h-29zM334 1907l20 16l267 -242l270 242l20 -16l-211 -324h-159z" />
    <glyph glyph-name="zcaron" unicode="&#x17e;" horiz-adv-x="960" 
d="M891 1026v-29l-631 -940h363q90 0 148 68t93 215h29l-43 -340h-801v29l631 940h-338q-87 0 -143 -57.5t-95 -192.5h-28l26 307h789zM207 1483l20 16l267 -242l270 242l20 -16l-211 -324h-159z" />
    <glyph glyph-name="longs" unicode="&#x17f;" horiz-adv-x="817" 
d="M588 1493q63 0 121.5 -13.5t103.5 -47.5t45 -84q0 -48 -40.5 -70.5t-78.5 -1.5q-25 9 -41.5 29t-26 41.5t-21 42.5t-34.5 34t-59 13q-81 0 -123.5 -77.5t-42.5 -203.5v-1001q0 -64 45 -89t156 -36v-29h-516v29q35 6 58 13t45.5 20.5t33 36t10.5 55.5v815h-174v57h174v74
q0 189 102 291t263 102z" />
    <glyph glyph-name="florin" unicode="&#x192;" horiz-adv-x="1130" 
d="M264 715v57h250v299q0 200 95.5 305t246.5 105q61 0 118.5 -13.5t102.5 -48t45 -84.5q0 -48 -40 -70t-78 -1q-25 9 -41.5 29t-26 41.5t-21 42t-34.5 33.5t-58 13q-137 0 -137 -305v-346h250v-57h-250v-344q0 -195 -96.5 -297.5t-245.5 -102.5q-61 0 -118.5 13.5
t-102.5 48t-45 84.5q0 48 40.5 70t78.5 1q30 -11 49 -38.5t28 -53.5t34.5 -46.5t68.5 -20.5q137 0 137 305v381h-250z" />
    <glyph glyph-name="Aringacute" unicode="&#x1fa;" horiz-adv-x="1503" 
d="M1264 246q50 -119 100.5 -168t126.5 -49v-29h-588v29q137 0 174 44.5t-8 153.5l-102 254h-580l-102 -254q-44 -109 -8 -153.5t169 -44.5v-29h-434v29q72 0 120.5 49t98.5 168l500 1235h29zM410 539h532l-266 667zM537 1749q0 82 57 135t143 53q87 0 144 -53.5t57 -134.5
q0 -80 -57.5 -134t-143.5 -54t-143 54t-57 134zM614 1751q0 -55 35 -91t88 -36q54 0 88.5 35.5t34.5 91.5q0 54 -34.5 89.5t-88.5 35.5q-53 0 -88 -35.5t-35 -89.5zM725 1999l137 338h205l-313 -338h-29z" />
    <glyph glyph-name="aringacute" unicode="&#x1fb;" horiz-adv-x="1073" 
d="M387 -31q-119 0 -200 75t-81 192q0 157 102 243.5t320 108.5l172 16v94q0 139 -62.5 220t-170.5 81q-114 0 -165 -66t-32 -142q25 -105 -53 -127q-44 -12 -77.5 12.5t-33.5 83.5q1 49 25.5 99.5t71.5 95.5t127 73.5t180 28.5q167 0 263.5 -99t96.5 -270v-543
q0 -38 17 -60t45 -22q43 0 82 68l24 -10q-19 -45 -43.5 -77t-49 -47t-45.5 -21.5t-40 -6.5q-64 0 -112 46t-48 130v78q-44 -122 -126.5 -188t-186.5 -66zM283 285q0 -86 55 -142.5t135 -56.5q70 0 128 50t99 140v273l-157 -21q-260 -34 -260 -243zM330 1325q0 82 57 135
t143 53q87 0 144 -53.5t57 -134.5q0 -80 -57.5 -134t-143.5 -54t-143 54t-57 134zM408 1327q0 -55 34.5 -91t87.5 -36q54 0 88.5 35.5t34.5 91.5q0 54 -34.5 89.5t-88.5 35.5q-53 0 -87.5 -35.5t-34.5 -89.5zM537 1577l137 338h205l-314 -338h-28z" />
    <glyph glyph-name="AEacute" unicode="&#x1fc;" horiz-adv-x="2035" 
d="M1952 379h28l-55 -379h-1077v29q105 10 144.5 43t39.5 108v301h-526l-160 -254q-68 -103 -45.5 -150.5t152.5 -47.5v-29h-441v29q71 0 136.5 52.5t138.5 164.5l710 1126q-37 37 -149 49v29h911q90 0 103 31h28l66 -408h-29q-40 171 -119 245.5t-221 74.5h-368v-621h266
q90 0 126 48.5t27 160.5h29l66 -475h-29q-24 111 -73 160t-128 49h-284v-522q0 -74 26 -105t90 -31h289q132 0 211 77.5t117 244.5zM543 539h489v731q0 27 -2 37zM1286 1581l137 338h205l-313 -338h-29z" />
    <glyph glyph-name="aeacute" unicode="&#x1fd;" horiz-adv-x="1640" 
d="M510 1057q109 0 189 -44t122 -124q65 80 157.5 124t201.5 44q185 0 282.5 -126.5t81.5 -312.5h-670v-43q0 -211 102 -344t284 -133q89 0 161 56.5t101 148.5l26 -6q-25 -146 -128 -236t-244 -90q-161 0 -274.5 79.5t-166.5 215.5q-37 -152 -125.5 -224.5t-210.5 -72.5
q-127 0 -210 74.5t-83 192.5q0 157 102 243.5t320 108.5l172 16v94q0 139 -62.5 220t-170.5 81q-114 0 -165 -66t-32 -142q25 -105 -53 -127q-44 -12 -77.5 12.5t-33.5 83.5q1 49 25.5 99.5t71.5 95.5t127 73.5t180 28.5zM283 285q0 -86 55 -142.5t135 -56.5
q86 0 150.5 57.5t95.5 173.5q-23 87 -23 175q0 39 2 57l-155 -21q-260 -34 -260 -243zM829 1157l138 338h204l-313 -338h-29zM879 666h495q5 88 -21.5 164t-81.5 122.5t-126 46.5q-116 0 -184 -88t-82 -245z" />
    <glyph glyph-name="uni0218" unicode="&#x218;" horiz-adv-x="1167" 
d="M604 -31q-87 0 -161 20.5t-109.5 41t-64 30t-42 -9.5t-26.5 -82h-29l-74 467h29q73 -201 194.5 -304t282.5 -103q129 0 211 77t82 197q0 73 -26.5 130.5t-71 95t-102 68t-121.5 55t-128 50t-121.5 60t-102 77.5t-71 109t-26.5 150q0 173 116 278t314 105
q72 0 137.5 -16.5t99.5 -33t62.5 -24.5t43 8t24.5 66h28l66 -418h-29q-53 172 -170 266t-262 94q-125 0 -197.5 -68t-72.5 -184q0 -66 27 -118t72.5 -87t104.5 -64t124 -54.5t130 -52t124 -63t104.5 -81.5t72.5 -113t27 -153q0 -185 -130.5 -300.5t-338.5 -115.5zM451 -225
q0 50 36 82t91 32q63 0 100 -38.5t37 -98.5q0 -104 -68 -171.5t-188 -94.5l-4 16q62 30 107.5 72.5t55.5 93.5q-24 -12 -49 -12q-50 0 -84 33t-34 86z" />
    <glyph glyph-name="uni0219" unicode="&#x219;" horiz-adv-x="888" 
d="M465 -29q-56 0 -110.5 15.5t-85.5 31.5t-56.5 23.5t-37.5 -8.5t-15 -64h-29l-53 346h28q51 -135 149 -210.5t208 -75.5q95 0 156 50t61 134q0 47 -20.5 84.5t-54.5 62.5t-78.5 46t-93.5 38.5t-98 36.5t-93.5 44.5t-78.5 57.5t-54.5 80.5t-20.5 108.5q0 127 92 206t232 79
q53 0 106 -15.5t83.5 -31t56 -23.5t36 7.5t11.5 62.5h28l51 -318h-28q-53 123 -140.5 191.5t-195.5 68.5q-84 0 -139.5 -47t-55.5 -123q0 -48 25.5 -84.5t67 -58.5t95 -44t108.5 -40t108.5 -46.5t95 -63.5t67 -92t25.5 -130q0 -128 -95.5 -213.5t-256.5 -85.5zM297 -225
q0 50 36 82t91 32q63 0 100 -38.5t37 -98.5q0 -104 -68 -171.5t-188 -94.5l-4 16q146 71 164 166q-24 -12 -49 -12q-51 0 -85 33t-34 86z" />
    <glyph glyph-name="uni021A" unicode="&#x21a;" horiz-adv-x="1277" 
d="M362 29q106 8 145.5 43t39.5 121v1200h-170q-136 -3 -213 -78t-115 -242h-29l66 408h29q11 -31 102 -31h846q89 0 102 31h29l63 -408h-28q-38 167 -115 242t-213 78h-170v-1200q0 -86 39 -121.5t145 -42.5v-29h-553v29zM506 -225q0 50 36 82t91 32q63 0 100 -38.5
t37 -98.5q0 -104 -68 -171.5t-188 -94.5l-4 16q146 71 164 166q-24 -12 -49 -12q-51 0 -85 33t-34 86z" />
    <glyph glyph-name="uni021B" unicode="&#x21b;" horiz-adv-x="712" 
d="M666 121q-11 -28 -36.5 -60.5t-74 -62t-102.5 -29.5q-123 0 -190.5 78t-67.5 219v703h-168v28q247 62 309 297h29v-268h290v-57h-290v-699q0 -97 42 -153.5t123 -53.5q15 0 29 4t23 8t21 13t16.5 13t16 16t13.5 14zM307 -225q0 50 36 82t91 32q63 0 100 -38.5t37 -98.5
q0 -104 -68 -171.5t-188 -94.5l-4 16q146 71 164 166q-24 -12 -49 -12q-51 0 -85 33t-34 86z" />
    <glyph glyph-name="uni0237" unicode="&#x237;" horiz-adv-x="546" 
d="M76 961l284 96h29v-957q0 -226 -80 -351t-289 -183l-12 22q74 34 117 80t68.5 136.5t25.5 234.5v780q0 81 -32 104t-111 9v29z" />
    <glyph glyph-name="uni02B9" unicode="&#x2b9;" horiz-adv-x="333" 
d="M88 1452q-14 56 7.5 92.5t70.5 36.5t71 -36.5t7 -92.5l-64 -397h-28z" />
    <glyph glyph-name="uni02BA" unicode="&#x2ba;" horiz-adv-x="608" 
d="M88 1452q-14 56 7.5 92.5t70.5 36.5t71 -36.5t7 -92.5l-64 -397h-28zM362 1452q-14 56 7.5 92.5t70.5 36.5t71 -36.5t7 -92.5l-63 -397h-29z" />
    <glyph glyph-name="circumflex" unicode="&#x2c6;" horiz-adv-x="987" 
d="M762 1159l-270 240l-267 -240l-20 15l207 325h159l211 -325z" />
    <glyph glyph-name="caron" unicode="&#x2c7;" horiz-adv-x="987" 
d="M762 1499l20 -16l-211 -324h-159l-207 324l20 16l267 -242z" />
    <glyph glyph-name="breve" unicode="&#x2d8;" horiz-adv-x="899" 
d="M449 1165q-119 0 -182 89t-62 253h31q9 -105 64.5 -162t148.5 -57t149.5 57t65.5 162h30q3 -164 -61 -253t-184 -89z" />
    <glyph glyph-name="dotaccent" unicode="&#x2d9;" horiz-adv-x="663" 
d="M334 1212q-55 0 -92 35t-37 88t37 88t92 35q54 0 89.5 -35t35.5 -88t-35.5 -88t-89.5 -35z" />
    <glyph glyph-name="ring" unicode="&#x2da;" horiz-adv-x="811" 
d="M406 1139q-86 0 -143.5 54t-57.5 134q0 82 57.5 135.5t143.5 53.5t143 -53.5t57 -135.5q0 -80 -57 -134t-143 -54zM283 1329q0 -55 35 -91t88 -36q54 0 88 35.5t34 91.5q0 54 -34 89.5t-88 35.5q-53 0 -88 -35.5t-35 -89.5z" />
    <glyph glyph-name="ogonek" unicode="&#x2db;" horiz-adv-x="796" 
d="M389 -434q-83 0 -133.5 41t-50.5 110q0 100 96 197.5t238 177.5l14 -20q-96 -81 -157.5 -166.5t-61.5 -155.5q0 -89 73.5 -108t170.5 45l12 -19q-42 -52 -95.5 -77t-105.5 -25z" />
    <glyph glyph-name="tilde" unicode="&#x2dc;" horiz-adv-x="974" 
d="M205 1178q2 115 41 180t119 65q40 0 93.5 -28.5t104.5 -57t84 -28.5q76 0 94 125l29 -2q-6 -250 -156 -250q-44 0 -98 28.5t-103.5 57t-82.5 28.5q-80 0 -97 -122z" />
    <glyph glyph-name="hungarumlaut" unicode="&#x2dd;" horiz-adv-x="954" 
d="M233 1157h-28l133 330h162zM455 1157l133 330h162l-267 -330h-28z" />
    <glyph glyph-name="uni0394" unicode="&#x394;" horiz-adv-x="1503" 
d="M780 1450l652 -1450h-1360l647 1450h61zM160 57h1183l-593 1323z" />
    <glyph glyph-name="uni03A9" unicode="&#x3a9;" horiz-adv-x="1546" 
d="M121 0v57h389q-185 100 -306.5 304.5t-121.5 418.5q0 148 52.5 278.5t144 223t219.5 146t274 53.5q147 0 275.5 -53.5t220 -146t144 -223t52.5 -278.5q0 -212 -121 -416t-307 -307h389v-57h-471v59q195 100 324 304.5t129 416.5q0 183 -82 331t-227.5 232t-325.5 84
q-178 0 -322 -84t-225.5 -232t-81.5 -331q0 -210 128.5 -414.5t322.5 -306.5v-59h-473z" />
    <glyph glyph-name="uni03BC" unicode="&#x3bc;" horiz-adv-x="1091" 
d="M893 1026h61v-1026h-61v281q-50 -145 -154 -227.5t-239 -82.5q-104 0 -185 47t-116 129v-550h-62v1429h62v-702q0 -124 86 -208t215 -83q114 1 204.5 65.5t139.5 173.5t49 240v514z" />
    <glyph glyph-name="pi" unicode="&#x3c0;" horiz-adv-x="1198" 
d="M1116 973h-215v-725q0 -104 43.5 -161t118.5 -52l-8 -45q-98 0 -156.5 66t-58.5 186v731h-480v-973h-61v973h-217v53h1034v-53z" />
    <glyph glyph-name="Wgrave" unicode="&#x1e80;" horiz-adv-x="2199" 
d="M219 1206q-42 111 -88.5 162.5t-118.5 52.5v29h541v-29q-122 -1 -153 -46.5t10 -151.5l346 -963l317 899l-43 101q-36 80 -79 120t-107 41v29h542v-29q-123 0 -154 -47t9 -151l346 -963l348 963q41 103 11.5 150t-154.5 48v29h395v-29q-65 -2 -110.5 -51t-87.5 -166
l-453 -1235h-27l-403 1104l-401 -1104h-27zM903 1917h205l137 -338h-28z" />
    <glyph glyph-name="wgrave" unicode="&#x1e81;" horiz-adv-x="1644" 
d="M754 868q-46 111 -142 129v29h443v-29q-161 -25 -117 -131l252 -649l258 651q45 102 -123 129v29h311v-29q-43 -8 -75 -39t-56 -92l-362 -897h-29l-287 713l-288 -713h-29l-356 893q-47 113 -146 135v29h445v-29q-162 -24 -119 -125l252 -655l213 537zM629 1493h205
l137 -338h-29z" />
    <glyph glyph-name="Wacute" unicode="&#x1e82;" horiz-adv-x="2199" 
d="M219 1206q-42 111 -88.5 162.5t-118.5 52.5v29h541v-29q-122 -1 -153 -46.5t10 -151.5l346 -963l317 899l-43 101q-36 80 -79 120t-107 41v29h542v-29q-123 0 -154 -47t9 -151l346 -963l348 963q41 103 11.5 150t-154.5 48v29h395v-29q-65 -2 -110.5 -51t-87.5 -166
l-453 -1235h-27l-403 1104l-401 -1104h-27zM1100 1581l137 338h205l-314 -338h-28z" />
    <glyph glyph-name="wacute" unicode="&#x1e83;" horiz-adv-x="1644" 
d="M754 868q-46 111 -142 129v29h443v-29q-161 -25 -117 -131l252 -649l258 651q45 102 -123 129v29h311v-29q-43 -8 -75 -39t-56 -92l-362 -897h-29l-287 713l-288 -713h-29l-356 893q-47 113 -146 135v29h445v-29q-162 -24 -119 -125l252 -655l213 537zM823 1157l138 338
h204l-313 -338h-29z" />
    <glyph glyph-name="Wdieresis" unicode="&#x1e84;" horiz-adv-x="2199" 
d="M219 1206q-42 111 -88.5 162.5t-118.5 52.5v29h541v-29q-122 -1 -153 -46.5t10 -151.5l346 -963l317 899l-43 101q-36 80 -79 120t-107 41v29h542v-29q-123 0 -154 -47t9 -151l346 -963l348 963q41 103 11.5 150t-154.5 48v29h395v-29q-65 -2 -110.5 -51t-87.5 -166
l-453 -1235h-27l-403 1104l-401 -1104h-27zM817 1751q0 48 34.5 81.5t86.5 33.5q49 0 82 -33.5t33 -81.5q0 -50 -33 -83.5t-82 -33.5q-52 0 -86.5 33.5t-34.5 83.5zM1178 1751q0 48 34 81.5t84 33.5t83.5 -33.5t33.5 -81.5q0 -50 -33 -83.5t-84 -33.5t-84.5 33.5t-33.5 83.5
z" />
    <glyph glyph-name="wdieresis" unicode="&#x1e85;" horiz-adv-x="1644" 
d="M754 868q-46 111 -142 129v29h443v-29q-161 -25 -117 -131l252 -649l258 651q45 102 -123 129v29h311v-29q-43 -8 -75 -39t-56 -92l-362 -897h-29l-287 713l-288 -713h-29l-356 893q-47 113 -146 135v29h445v-29q-162 -24 -119 -125l252 -655l213 537zM543 1327
q0 48 34.5 81.5t86.5 33.5q49 0 81.5 -33.5t32.5 -81.5q0 -50 -32.5 -83.5t-81.5 -33.5q-52 0 -86.5 33.5t-34.5 83.5zM903 1327q0 48 34 81.5t85 33.5q50 0 83.5 -33.5t33.5 -81.5q0 -50 -33 -83.5t-84 -33.5t-85 33.5t-34 83.5z" />
    <glyph glyph-name="uni1E9E" unicode="&#x1e9e;" horiz-adv-x="1454" 
d="M936 -29q-145 0 -245 79t-136 212l27 10q32 -85 115.5 -136.5t187.5 -51.5q120 0 198 92t78 234q0 166 -135 256.5t-338 54.5l-20 39l411 520q-53 66 -145 104.5t-184 38.5q-143 0 -229.5 -92.5t-86.5 -277.5v-1053h-356v29q94 5 132 35t38 112v823q0 117 39 210.5
t107.5 152.5t157 89.5t191.5 29.5q157 -2 315.5 -66t219.5 -158l-391 -477q220 23 347.5 -80.5t127.5 -293.5q0 -191 -121 -313t-305 -122z" />
    <glyph glyph-name="Ygrave" unicode="&#x1ef2;" horiz-adv-x="1386" 
d="M938 1450h440v-29q-102 -10 -154.5 -45t-90.5 -110l-328 -643v-428q0 -88 38 -122.5t144 -41.5v-31h-551v31q106 7 144 41.5t38 122.5v403l-374 662q-23 42 -40.5 66t-44.5 46t-63 33t-88 16v29h588v-29q-214 -21 -141 -151l321 -574l293 574q36 67 5 104t-136 47v29z
M535 1917h204l138 -338h-29z" />
    <glyph glyph-name="ygrave" unicode="&#x1ef3;" horiz-adv-x="1085" 
d="M197 -434q-76 0 -131.5 33t-55.5 86q0 39 25.5 65.5t66.5 26.5q26 0 87.5 -34t109.5 -34q61 0 108 46.5t85 144.5l34 90l-364 870q-52 128 -139 137v29h446v-29q-171 -12 -119 -137l264 -653l258 653q52 125 -106 137v29h311v-29q-88 -9 -143 -137l-389 -979
q-24 -63 -55 -116t-73 -99.5t-98.5 -73t-121.5 -26.5zM379 1493h205l137 -338h-29z" />
    <glyph glyph-name="endash" unicode="&#x2013;" horiz-adv-x="888" 
d="M786 573v-55h-684v55h684z" />
    <glyph glyph-name="emdash" unicode="&#x2014;" horiz-adv-x="1638" 
d="M1536 573v-55h-1434v55h1434z" />
    <glyph glyph-name="quoteleft" unicode="&#x2018;" horiz-adv-x="438" 
d="M221 1051q-69 0 -109 49t-40 127q0 135 73 222.5t203 127.5l6 -23q-75 -40 -130 -103.5t-58 -147.5q26 18 59 18q58 0 95.5 -38t37.5 -95q0 -59 -38.5 -98t-98.5 -39z" />
    <glyph glyph-name="quoteright" unicode="&#x2019;" horiz-adv-x="438" 
d="M219 1569q69 0 109.5 -49t40.5 -127q0 -135 -73.5 -223t-203.5 -128l-6 23q75 40 130 104t58 148q-27 -19 -59 -19q-58 0 -95.5 38.5t-37.5 95.5q0 59 38.5 98t98.5 39z" />
    <glyph glyph-name="quotesinglbase" unicode="&#x201a;" horiz-adv-x="438" 
d="M213 238q69 0 109 -49.5t40 -127.5q0 -135 -73 -222.5t-203 -127.5l-6 23q75 40 130 104t58 148q-27 -19 -59 -19q-58 0 -95.5 38t-37.5 95q0 59 38.5 98.5t98.5 39.5z" />
    <glyph glyph-name="quotedblleft" unicode="&#x201c;" horiz-adv-x="819" 
d="M221 1051q-69 0 -109 49t-40 127q0 135 73 222.5t203 127.5l6 -23q-75 -40 -130 -103.5t-58 -147.5q26 18 59 18q58 0 95.5 -38t37.5 -95q0 -59 -38.5 -98t-98.5 -39zM453 1227q0 135 73 222.5t203 127.5l6 -23q-75 -40 -130 -103.5t-58 -147.5q26 18 59 18
q58 0 95.5 -38t37.5 -95q0 -59 -38.5 -98t-98.5 -39q-69 0 -109 49t-40 127z" />
    <glyph glyph-name="quotedblright" unicode="&#x201d;" horiz-adv-x="819" 
d="M598 1569q69 0 109.5 -49t40.5 -127q0 -135 -73.5 -223t-203.5 -128l-6 23q75 40 130 104t58 148q-27 -19 -59 -19q-58 0 -95.5 38.5t-37.5 95.5q0 59 38.5 98t98.5 39zM82 1432q0 59 38.5 98t98.5 39q69 0 109.5 -49t40.5 -127q0 -135 -73.5 -223t-203.5 -128l-6 23
q75 40 130 104t58 148q-27 -19 -59 -19q-58 0 -95.5 38.5t-37.5 95.5z" />
    <glyph glyph-name="quotedblbase" unicode="&#x201e;" horiz-adv-x="819" 
d="M594 238q69 0 109 -49.5t40 -127.5q0 -135 -73 -222.5t-203 -127.5l-6 23q75 40 130 104t58 148q-27 -19 -59 -19q-58 0 -95.5 38t-37.5 95q0 59 38.5 98.5t98.5 39.5zM76 100q0 59 38.5 98.5t98.5 39.5q69 0 109 -49.5t40 -127.5q0 -135 -73 -222.5t-203 -127.5l-6 23
q75 40 130 104t58 148q-27 -19 -59 -19q-58 0 -95.5 38t-37.5 95z" />
    <glyph glyph-name="dagger" unicode="&#x2020;" horiz-adv-x="712" 
d="M326 467v592h-260v53h260v285h61v-285h260v-53h-260v-592h-61z" />
    <glyph glyph-name="daggerdbl" unicode="&#x2021;" horiz-adv-x="712" 
d="M326 1059h-260v53h260v285h61v-285h260v-53h-260v-684h260v-53h-260v-285h-61v285h-260v53h260v684z" />
    <glyph glyph-name="bullet" unicode="&#x2022;" horiz-adv-x="1052" 
d="M530 147q-173 0 -293 119.5t-120 290.5q0 169 120.5 289.5t292.5 120.5q167 0 286.5 -120.5t119.5 -289.5q0 -170 -119 -290t-287 -120z" />
    <glyph glyph-name="ellipsis" unicode="&#x2026;" horiz-adv-x="1120" 
d="M909 -31q-56 0 -95.5 39t-39.5 96q0 55 39.5 94.5t95.5 39.5q57 0 96 -39t39 -95q0 -57 -39.5 -96t-95.5 -39zM76 104q0 55 39.5 94.5t95.5 39.5q57 0 96 -39t39 -95q0 -57 -39.5 -96t-95.5 -39t-95.5 39t-39.5 96zM424 104q0 55 39.5 94.5t95.5 39.5q57 0 96 -39t39 -95
q0 -57 -39.5 -96t-95.5 -39t-95.5 39t-39.5 96z" />
    <glyph glyph-name="perthousand" unicode="&#x2030;" horiz-adv-x="2541" 
d="M530 0h-61l754 1450h61zM70 1026q0 126 37 227.5t114.5 164.5t184.5 63q105 0 181.5 -62.5t113 -164t36.5 -228.5q0 -126 -36.5 -227.5t-113 -164.5t-181.5 -63q-107 0 -184.5 63.5t-114.5 165t-37 226.5zM217 1096q0 -78 11.5 -159t35 -157.5t65.5 -125t95 -48.5
q73 0 120.5 101.5t47.5 253.5q0 77 -12.5 158.5t-36 156.5t-65 123.5t-93.5 48.5q-74 0 -121 -101t-47 -251zM1016 424q0 126 37 227.5t114.5 164.5t184.5 63q105 0 181.5 -62.5t113 -164t36.5 -228.5q0 -126 -36.5 -227.5t-113 -164.5t-181.5 -63q-107 0 -184.5 63.5
t-114.5 165t-37 226.5zM1163 494q0 -78 11.5 -159t35 -157.5t65.5 -125t95 -48.5q73 0 120.5 101t47.5 253q0 77 -12.5 158.5t-36 157t-65 124t-93.5 48.5q-74 0 -121 -101t-47 -251zM1804 424q0 126 37 227.5t114.5 164.5t184.5 63q105 0 181.5 -62t113.5 -164t37 -229
q0 -126 -37 -227.5t-113.5 -164.5t-181.5 -63q-107 0 -184.5 63.5t-114.5 165t-37 226.5zM1952 494q0 -78 11.5 -159t35 -157.5t65.5 -125t95 -48.5q73 0 120.5 101t47.5 253q0 77 -12.5 158.5t-36 157t-65 124t-93.5 48.5q-74 0 -121 -101t-47 -251z" />
    <glyph glyph-name="guilsinglleft" unicode="&#x2039;" horiz-adv-x="595" 
d="M518 109l-473 403v39l475 403l23 -20l-346 -402l346 -403z" />
    <glyph glyph-name="guilsinglright" unicode="&#x203a;" horiz-adv-x="595" 
d="M63 109l-24 20l346 403l-346 402l22 20l476 -403v-39z" />
    <glyph glyph-name="fraction" unicode="&#x2044;" horiz-adv-x="323" 
d="M-186 0h-62l754 1450h61z" />
    <glyph glyph-name="uni2070" unicode="&#x2070;" horiz-adv-x="806" 
d="M406 1722q105 0 181.5 -62t113 -163.5t36.5 -228.5q0 -126 -36.5 -227.5t-113 -164.5t-181.5 -63q-107 0 -184.5 63.5t-114.5 165t-37 226.5q0 126 37 227t114.5 164t184.5 63zM217 1337q0 -78 11.5 -159t35 -157t65.5 -124.5t95 -48.5q73 0 120.5 101t47.5 253
q0 77 -12.5 158.5t-36 157t-65 124t-93.5 48.5q-74 0 -121 -101.5t-47 -251.5z" />
    <glyph glyph-name="uni2074" unicode="&#x2074;" horiz-adv-x="747" 
d="M246 850q75 8 107 35.5t32 91.5v94h-360v16l393 635h104v-596h17q53 0 95 50t62 139h19l-33 -244h-160v-94q0 -63 21.5 -92t87.5 -35v-16h-385v16zM88 1126h297v478z" />
    <glyph glyph-name="uni2075" unicode="&#x2075;" horiz-adv-x="684" 
d="M575 1763l25 -182h-426l-39 -293q98 94 211 94q122 0 200.5 -78.5t78.5 -197.5q0 -129 -87.5 -210t-226.5 -81q-88 0 -160.5 34.5t-99.5 94.5q-15 29 -10 52t27 34q22 16 51 3t43 -56q17 -59 59.5 -93t97.5 -34q74 -1 118 58.5t44 156.5q0 102 -54 170t-136 68
q-89 0 -172 -76l-23 16l60 461h327q64 0 76 59h16z" />
    <glyph glyph-name="uni2076" unicode="&#x2076;" horiz-adv-x="741" 
d="M410 813q-158 0 -251.5 122t-88.5 322q2 121 33 213t82.5 145.5t115 80t137.5 26.5q54 0 106.5 -17.5t80.5 -47.5q29 -23 39.5 -50t2.5 -47.5t-30 -29.5q-33 -13 -58 4.5t-36 58.5q-9 40 -44 68.5t-77 28.5q-96 0 -149 -115.5t-56 -308.5q37 58 93 91.5t124 33.5
q114 0 186 -80t72 -203q0 -127 -76.5 -211t-205.5 -84zM217 1231q8 -171 61 -277t138 -106q60 0 99.5 67t39.5 160q0 104 -54 171t-136 67q-41 0 -80.5 -20.5t-67.5 -61.5z" />
    <glyph glyph-name="uni2077" unicode="&#x2077;" horiz-adv-x="645" 
d="M201 834q-5 94 11.5 185t45 163.5t75 148t90 130.5t101.5 120h-325q-58 0 -92 -31.5t-56 -103.5h-16l35 258h563v-18q-174 -245 -239.5 -441t-45.5 -411h-147z" />
    <glyph glyph-name="uni2078" unicode="&#x2078;" horiz-adv-x="747" 
d="M371 813q-139 0 -229.5 65t-90.5 162q0 74 50.5 128.5t158.5 99.5q-85 43 -132.5 96t-47.5 133q0 92 81.5 158.5t211.5 66.5q120 0 200 -59.5t80 -140.5q0 -68 -51 -120t-139 -81q43 -19 70 -33.5t61.5 -38t54 -48t33.5 -60t14 -76.5q0 -109 -88 -180.5t-237 -71.5z
M182 1044q0 -85 54.5 -140.5t134.5 -55.5q75 0 127.5 46t52.5 118q0 42 -16.5 75t-56.5 62t-66 43t-86 42q-16 7 -23 11q-66 -40 -93.5 -88t-27.5 -113zM223 1546q0 -37 14 -67.5t43 -54.5t56.5 -40.5t71.5 -37.5q66 35 93 74t27 96q0 79 -45.5 126.5t-109.5 47.5
q-63 0 -106.5 -39t-43.5 -105z" />
    <glyph glyph-name="uni2079" unicode="&#x2079;" horiz-adv-x="741" 
d="M332 1722q158 0 251.5 -122t88.5 -322q-2 -121 -33 -213t-83 -145.5t-115.5 -80t-137.5 -26.5q-54 0 -105.5 18t-80.5 48q-29 23 -39.5 50t-3 47.5t29.5 29.5q33 13 58.5 -5t36.5 -59q9 -40 43.5 -68t76.5 -28q96 0 149 115.5t56 308.5q-37 -58 -93 -91.5t-124 -33.5
q-114 0 -186 79.5t-72 202.5q0 127 77 211t206 84zM186 1460q0 -104 54.5 -170.5t136.5 -66.5q91 0 147 82q-8 171 -60.5 277t-137.5 106q-60 0 -100 -67.5t-40 -160.5z" />
    <glyph glyph-name="Euro" unicode="&#x20ac;" horiz-adv-x="1579" 
d="M55 842v57h252q53 264 228 423t423 159q67 0 133.5 -15.5t105 -30.5t72.5 -23t52.5 7.5t28.5 61.5h28l60 -416h-29q-55 173 -171.5 265.5t-276.5 92.5q-184 0 -311 -143t-156 -381h487v-57h-492q-2 -20 -2 -66q0 -45 7 -110h487v-58h-479q42 -233 187 -377.5t347 -144.5
q152 0 265 97.5t157 265.5l31 -9q-29 -217 -179.5 -345t-357.5 -128q-275 0 -455.5 179t-205.5 462h-236v58h232v24q0 70 10 152h-242z" />
    <glyph glyph-name="uni2116" unicode="&#x2116;" horiz-adv-x="2314" 
d="M1006 1450h426v-29q-106 -11 -146.5 -43.5t-40.5 -107.5v-1270h-45l-881 1239v-1059q0 -75 40 -108t145 -43v-29h-426v29q105 10 144.5 43t39.5 108v1092q0 77 -39.5 110t-142.5 39v29h319l789 -1128v948q0 76 -38.5 108.5t-143.5 42.5v29zM1528 1055q0 184 99.5 298.5
t258.5 114.5q155 0 251.5 -105.5t96.5 -275.5q0 -185 -100 -299t-260 -114q-154 0 -250 105.5t-96 275.5zM1659 1147q0 -110 30.5 -208t89 -161t130.5 -63q87 0 140.5 77.5t53.5 200.5q0 110 -30.5 208.5t-89 162t-130.5 63.5q-87 0 -140.5 -78t-53.5 -202z" />
    <glyph glyph-name="uni2117" unicode="&#x2117;" 
d="M909 676h-200v-346h-68v788h268q112 0 180 -61t68 -160t-68 -160t-180 -61zM102 725q0 153 60 293t161.5 241.5t241.5 161.5t293 60t293 -60t241.5 -161.5t161.5 -241.5t60 -293t-60 -293t-161.5 -241.5t-241.5 -161.5t-293 -60t-293 60t-241.5 161.5t-161.5 241.5
t-60 293zM170 725q0 -187 92.5 -346.5t251 -252.5t344.5 -93q187 0 346.5 93t252.5 252.5t93 346.5t-93 346.5t-252.5 252.5t-346.5 93q-186 0 -344.5 -93t-251 -252.5t-92.5 -346.5zM711 739h202q82 0 129.5 42.5t47.5 115.5t-47.5 115.5t-129.5 42.5h-202v-316z" />
    <glyph glyph-name="trademark" unicode="&#x2122;" horiz-adv-x="1011" 
d="M176 975v432h-156v43h359v-43h-156v-432h-47zM440 975v475h76l168 -426l174 426h76v-475h-41v444l-184 -444h-45l-179 444v-444h-45z" />
    <glyph glyph-name="uni2126" unicode="&#x2126;" horiz-adv-x="1546" 
d="M121 0v57h389q-185 100 -306.5 304.5t-121.5 418.5q0 148 52.5 278.5t144 223t219.5 146t274 53.5q147 0 275.5 -53.5t220 -146t144 -223t52.5 -278.5q0 -212 -121 -416t-307 -307h389v-57h-471v59q195 100 324 304.5t129 416.5q0 183 -82 331t-227.5 232t-325.5 84
q-178 0 -322 -84t-225.5 -232t-81.5 -331q0 -210 128.5 -414.5t322.5 -306.5v-59h-473z" />
    <glyph glyph-name="estimated" unicode="&#x212e;" horiz-adv-x="1564" 
d="M801 -29q-152 0 -288 55t-233.5 150t-154.5 227t-57 281q0 198 94.5 362t258 257.5t361.5 93.5q150 0 283 -55.5t227.5 -151t149 -229t53.5 -283.5h-1165v-430q81 -88 202.5 -147.5t268.5 -59.5q318 0 510 272l57 -41q-94 -143 -242.5 -222t-324.5 -79zM330 762h905v362
q-72 81 -193 142t-260 61q-142 0 -262.5 -61t-189.5 -144v-360z" />
    <glyph glyph-name="oneeighth" unicode="&#x215b;" horiz-adv-x="1630" 
d="M31 596q82 6 107.5 26t25.5 68v623h-133v16q170 49 254 127h18v-766q0 -46 22.5 -66.5t86.5 -27.5v-16h-381v16zM317 0l754 1450h62l-754 -1450h-62zM934 207q0 74 50.5 128t158.5 99q-84 43 -132 96.5t-48 133.5q0 93 81.5 159t210.5 66q120 0 200.5 -60t80.5 -141
q0 -68 -51 -120t-139 -81q43 -19 70 -33.5t61.5 -38t54 -48t33.5 -60t14 -76.5q0 -109 -88.5 -180t-237.5 -71q-139 0 -229 65t-90 162zM1065 211q0 -86 54 -141.5t134 -55.5q75 0 128 46t53 118q0 42 -18 76.5t-54.5 61t-70 45t-85.5 42.5q-13 6 -20 9q-66 -40 -93.5 -88
t-27.5 -113zM1106 713q0 -37 14 -67.5t42.5 -55t56.5 -41t71 -37.5q66 35 93.5 74t27.5 96q0 79 -46 126.5t-110 47.5q-63 0 -106 -38.5t-43 -104.5z" />
    <glyph glyph-name="threeeighths" unicode="&#x215c;" horiz-adv-x="1755" 
d="M311 561q-102 0 -177.5 48t-98.5 130q-12 32 -2.5 62t41.5 39q38 11 63.5 -10.5t14.5 -81.5q-2 -60 41 -106t126 -46q74 0 122 55t48 148q0 100 -71 156t-203 55v24q107 18 173.5 79t66.5 151q0 75 -39 122.5t-101 47.5q-78 0 -116.5 -56.5t-28.5 -124.5q8 -35 -6 -54.5
t-41 -22.5q-33 -6 -53.5 11.5t-22.5 51.5q-3 91 77.5 160t197.5 69q121 0 194.5 -55t75.5 -143q3 -80 -63 -144t-177 -86q134 -4 209.5 -64t75.5 -159q0 -116 -92.5 -186t-233.5 -70zM442 0l754 1450h61l-753 -1450h-62zM1059 207q0 74 50.5 128t158.5 99q-85 43 -133 96.5
t-48 133.5q0 92 81.5 158.5t211.5 66.5q120 0 200.5 -60t80.5 -141q0 -68 -51.5 -120t-139.5 -81q54 -25 87.5 -43.5t71.5 -49.5t56.5 -71.5t18.5 -91.5q0 -109 -88.5 -180t-237.5 -71q-139 0 -229 65t-90 162zM1190 211q0 -86 54 -141.5t134 -55.5q75 0 128 46t53 118
q0 42 -18 76.5t-54.5 61t-70 45t-85.5 42.5q-13 6 -20 9q-66 -40 -93.5 -88t-27.5 -113zM1231 713q0 -37 14 -67.5t42.5 -55t56.5 -41t71 -37.5q66 35 93.5 74t27.5 96q0 79 -46 126.5t-110 47.5q-63 0 -106 -38.5t-43 -104.5z" />
    <glyph glyph-name="fiveeighths" unicode="&#x215d;" horiz-adv-x="1748" 
d="M575 1509l25 -182h-426l-39 -293q98 94 211 94q122 0 200.5 -78.5t78.5 -197.5q0 -129 -87.5 -210t-226.5 -81q-88 0 -160.5 34.5t-99.5 94.5q-15 29 -10 52t27 34q22 16 51 3t43 -56q17 -59 59.5 -93t97.5 -34q74 -1 118 58.5t44 156.5q0 102 -54 170t-136 68
q-89 0 -172 -76l-23 16l60 461h327q64 0 76 59h16zM436 0l754 1450h61l-753 -1450h-62zM1053 207q0 74 50.5 128t158.5 99q-85 43 -133 96.5t-48 133.5q0 92 81.5 158.5t211.5 66.5q120 0 200.5 -60t80.5 -141q0 -68 -51.5 -120t-139.5 -81q54 -25 87.5 -43.5t71.5 -49.5
t56.5 -71.5t18.5 -91.5q0 -109 -88.5 -180t-237.5 -71q-139 0 -229 65t-90 162zM1184 211q0 -86 54 -141.5t134 -55.5q75 0 127.5 46t52.5 118q0 25 -7.5 47.5t-16.5 39t-30.5 35.5t-34.5 29t-44.5 27t-44.5 23.5t-50 23.5q-13 6 -19 9q-66 -40 -93.5 -88t-27.5 -113z
M1225 713q0 -37 14 -67.5t42.5 -55t56.5 -41t71 -37.5q66 35 93.5 74t27.5 96q0 79 -46 126.5t-110 47.5q-63 0 -106 -38.5t-43 -104.5z" />
    <glyph glyph-name="seveneighths" unicode="&#x215e;" horiz-adv-x="1607" 
d="M201 580q-5 94 11.5 185t45 163.5t75 148t90 130.5t101.5 120h-325q-58 0 -92 -31.5t-56 -103.5h-16l35 258h563v-18q-174 -245 -239.5 -441t-45.5 -411h-147zM295 0l754 1450h61l-754 -1450h-61zM911 207q0 74 50.5 128t158.5 99q-84 43 -132 96.5t-48 133.5
q0 92 81.5 158.5t211.5 66.5q120 0 200 -59.5t80 -141.5q0 -68 -51 -120t-139 -81q43 -19 70 -33.5t61.5 -38t54 -48t33.5 -60t14 -76.5q0 -109 -88 -180t-237 -71q-139 0 -229.5 65t-90.5 162zM1042 211q0 -85 54.5 -141t134.5 -56q75 0 127.5 46t52.5 118q0 42 -18 76.5
t-54.5 61t-70 45t-85.5 42.5q-13 6 -20 9q-66 -40 -93.5 -88t-27.5 -113zM1083 713q0 -70 47 -114t138 -87q66 35 93.5 74t27.5 96q0 79 -46 126.5t-110 47.5q-63 0 -106.5 -38.5t-43.5 -104.5z" />
    <glyph glyph-name="arrowleft" unicode="&#x2190;" horiz-adv-x="1447" 
d="M621 0l-519 518l521 518l41 -41l-457 -450h1139v-53h-1139l455 -453z" />
    <glyph glyph-name="arrowup" unicode="&#x2191;" horiz-adv-x="1241" 
d="M1139 793l-39 -41l-453 454v-1138h-53v1138l-451 -456l-41 41l519 520z" />
    <glyph glyph-name="arrowright" unicode="&#x2192;" horiz-adv-x="1447" 
d="M827 0l-41 39l455 453h-1139v53h1139l-457 450l41 41l521 -518z" />
    <glyph glyph-name="arrowdown" unicode="&#x2193;" horiz-adv-x="1241" 
d="M102 522l39 41l453 -454v1138h53v-1138l451 456l41 -41l-518 -520z" />
    <glyph glyph-name="uni2196" unicode="&#x2196;" horiz-adv-x="1103" 
d="M102 264v731h736v-59l-643 6l806 -807l-38 -37l-805 807l2 -643z" />
    <glyph glyph-name="uni2197" unicode="&#x2197;" horiz-adv-x="1103" 
d="M1001 264l-57 -2l2 643l-805 -807l-39 37l807 807l-643 -6v59h735v-731z" />
    <glyph glyph-name="uni2198" unicode="&#x2198;" horiz-adv-x="1101" 
d="M268 20l-2 58l643 -2l-807 805l37 39l807 -807l-6 643h59v-736h-731z" />
    <glyph glyph-name="uni2199" unicode="&#x2199;" horiz-adv-x="1101" 
d="M834 20h-732v736h60l-6 -643l807 807l36 -39l-806 -805l643 2z" />
    <glyph glyph-name="partialdiff" unicode="&#x2202;" horiz-adv-x="1136" 
d="M393 1450q199 -11 353 -120t236.5 -285t82.5 -388q0 -318 -136.5 -503t-391.5 -185q-200 0 -332.5 139t-132.5 349q0 207 132.5 344t332.5 137q199 0 328 -135t132 -352q21 163 3 304t-73.5 257t-135.5 199.5t-183 130.5t-215 51v57zM135 457q0 -184 114.5 -306
t287.5 -122q178 0 292.5 120t114.5 308q0 179 -120 300.5t-287 121.5q-173 0 -287.5 -120t-114.5 -302z" />
    <glyph glyph-name="uni2206" unicode="&#x2206;" horiz-adv-x="1503" 
d="M780 1450l652 -1450h-1360l647 1450h61zM160 57h1183l-593 1323z" />
    <glyph glyph-name="product" unicode="&#x220f;" horiz-adv-x="1232" 
d="M123 0v1450h987v-1450h-61v1393h-865v-1393h-61z" />
    <glyph glyph-name="summation" unicode="&#x2211;" horiz-adv-x="1087" 
d="M72 0v55l583 672l-583 666v57h944v-57h-871l560 -637v-56l-560 -645h871v-55h-944z" />
    <glyph glyph-name="minus" unicode="&#x2212;" horiz-adv-x="1228" 
d="M184 627v53h860v-53h-860z" />
    <glyph glyph-name="radical" unicode="&#x221a;" horiz-adv-x="1110" 
d="M498 0l-256 723h-222v55h265l256 -731l485 1403h64l-504 -1450h-88z" />
    <glyph glyph-name="infinity" unicode="&#x221e;" horiz-adv-x="1970" 
d="M1411 1018q170 0 272.5 -97.5t102.5 -258.5t-102.5 -259t-272.5 -98q-124 0 -234 77t-190 218q-87 -144 -195.5 -219.5t-230.5 -75.5q-171 0 -274 97.5t-103 259.5q0 161 102.5 258.5t274.5 97.5q123 0 232 -75.5t194 -217.5q82 143 191 218t233 75zM248 662
q0 -139 84.5 -221.5t228.5 -82.5q113 0 213.5 77.5t179.5 226.5q-79 149 -179.5 226t-213.5 77q-144 0 -228.5 -82t-84.5 -221zM1016 662q81 -149 182.5 -226.5t212.5 -77.5q144 0 227.5 82t83.5 222t-83.5 221.5t-227.5 81.5q-111 0 -212.5 -77.5t-182.5 -225.5z" />
    <glyph glyph-name="integral" unicode="&#x222b;" horiz-adv-x="538" 
d="M61 -406v52h25q72 0 114 55t42 147v1346q0 114 59.5 184t155.5 70h20v-51h-20q-73 0 -117.5 -56t-44.5 -147v-1346q0 -114 -58 -184t-151 -70h-25z" />
    <glyph glyph-name="approxequal" unicode="&#x2248;" horiz-adv-x="1306" 
d="M184 604q119 125 254 125q56 0 117 -21.5t105 -47t100.5 -47t105.5 -21.5q61 0 110.5 25t104.5 81l41 -34q-119 -125 -254 -125q-56 0 -116.5 21.5t-105 47t-101 47t-105.5 21.5q-60 0 -110 -25t-105 -82zM184 895q119 125 254 125q56 0 117 -21.5t105 -47t100.5 -47
t105.5 -21.5q61 0 110.5 25t104.5 81l41 -35q-119 -125 -254 -125q-56 0 -116.5 21.5t-105 47.5t-101 47.5t-105.5 21.5q-60 0 -110 -25t-105 -82z" />
    <glyph glyph-name="notequal" unicode="&#x2260;" horiz-adv-x="1228" 
d="M418 215l96 252h-330v53h351l104 277h-455v53h475l97 252h55l-96 -252h329v-53h-350l-104 -277h454v-53h-475l-96 -252h-55z" />
    <glyph glyph-name="lessequal" unicode="&#x2264;" horiz-adv-x="1228" 
d="M266 655l744 -379l-25 -51l-768 393v68l768 395l25 -49zM184 0v53h860v-53h-860z" />
    <glyph glyph-name="greaterequal" unicode="&#x2265;" horiz-adv-x="1228" 
d="M963 655l-744 377l25 49l768 -395v-68l-768 -393l-25 51zM184 0v53h860v-53h-860z" />
    <glyph glyph-name="uni2460" unicode="&#x2460;" 
d="M858 -31q-153 0 -293 60t-241.5 161.5t-161.5 241.5t-60 293t60 293t161.5 241.5t241.5 161.5t293 60t293 -60t241.5 -161.5t161.5 -241.5t60 -293t-60 -293t-161.5 -241.5t-241.5 -161.5t-293 -60zM170 725q0 -187 92.5 -346.5t251 -252.5t344.5 -93q187 0 346.5 93
t252.5 252.5t93 346.5t-93 346.5t-252.5 252.5t-346.5 93q-186 0 -344.5 -93t-251 -252.5t-92.5 -346.5zM651 291v16q82 6 107.5 26t25.5 68v623h-133v16q170 49 254 127h19v-766q0 -46 22 -66.5t86 -27.5v-16h-381z" />
    <glyph glyph-name="uni2461" unicode="&#x2461;" 
d="M858 -31q-153 0 -293 60t-241.5 161.5t-161.5 241.5t-60 293t60 293t161.5 241.5t241.5 161.5t293 60t293 -60t241.5 -161.5t161.5 -241.5t60 -293t-60 -293t-161.5 -241.5t-241.5 -161.5t-293 -60zM170 725q0 -187 92.5 -346.5t251 -252.5t344.5 -93q187 0 346.5 93
t252.5 252.5t93 346.5t-93 346.5t-252.5 252.5t-346.5 93q-186 0 -344.5 -93t-251 -252.5t-92.5 -346.5zM553 950q-3 90 80.5 160t200.5 70q136 0 217.5 -66t81.5 -174q0 -86 -44 -155.5t-111 -116t-136.5 -84.5t-131.5 -79t-85 -81h348q70 0 111.5 27t62.5 114l16 -4
l-35 -270h-559l2 28q2 65 26.5 120.5t61.5 96.5t81.5 79.5t88.5 75.5t80.5 76t59 91.5t22.5 112.5q0 72 -47.5 123t-114.5 51q-81 0 -122.5 -56.5t-30.5 -123.5q8 -33 -6.5 -54t-40.5 -24q-32 -6 -54 12.5t-22 50.5z" />
    <glyph glyph-name="uni2462" unicode="&#x2462;" 
d="M858 -31q-153 0 -293 60t-241.5 161.5t-161.5 241.5t-60 293t60 293t161.5 241.5t241.5 161.5t293 60t293 -60t241.5 -161.5t161.5 -241.5t60 -293t-60 -293t-161.5 -241.5t-241.5 -161.5t-293 -60zM170 725q0 -187 92.5 -346.5t251 -252.5t344.5 -93q187 0 346.5 93
t252.5 252.5t93 346.5t-93 346.5t-252.5 252.5t-346.5 93q-186 0 -344.5 -93t-251 -252.5t-92.5 -346.5zM559 451q-12 32 -2.5 61.5t41.5 38.5q38 11 63.5 -10.5t14.5 -81.5q-2 -60 41.5 -106t126.5 -46q74 0 122 55t48 148q0 100 -71.5 156t-203.5 55v24q107 18 173.5 79
t66.5 151q0 75 -39 122.5t-100 47.5q-78 0 -117 -56t-29 -124q8 -35 -6 -55t-41 -23q-33 -6 -53.5 11.5t-22.5 51.5q-3 91 77.5 160.5t197.5 69.5q121 0 194.5 -55.5t75.5 -143.5q3 -80 -62.5 -143.5t-176.5 -85.5q134 -4 209 -64.5t75 -159.5q0 -116 -92 -186t-233 -70
q-102 0 -178 48.5t-99 130.5z" />
    <glyph glyph-name="uni2463" unicode="&#x2463;" 
d="M858 -31q-153 0 -293 60t-241.5 161.5t-161.5 241.5t-60 293t60 293t161.5 241.5t241.5 161.5t293 60t293 -60t241.5 -161.5t161.5 -241.5t60 -293t-60 -293t-161.5 -241.5t-241.5 -161.5t-293 -60zM170 725q0 -187 92.5 -346.5t251 -252.5t344.5 -93q187 0 346.5 93
t252.5 252.5t93 346.5t-93 346.5t-252.5 252.5t-346.5 93q-186 0 -344.5 -93t-251 -252.5t-92.5 -346.5zM485 528v17l394 635h104v-596h16q53 0 95.5 50t62.5 138h19l-33 -244h-160v-94q0 -63 21.5 -92t87.5 -35v-16h-385v16q75 8 107 35.5t32 91.5v94h-361zM549 584h297
v477z" />
    <glyph glyph-name="uni2464" unicode="&#x2464;" 
d="M858 -31q-153 0 -293 60t-241.5 161.5t-161.5 241.5t-60 293t60 293t161.5 241.5t241.5 161.5t293 60t293 -60t241.5 -161.5t161.5 -241.5t60 -293t-60 -293t-161.5 -241.5t-241.5 -161.5t-293 -60zM170 725q0 -187 92.5 -346.5t251 -252.5t344.5 -93q187 0 346.5 93
t252.5 252.5t93 346.5t-93 346.5t-252.5 252.5t-346.5 93q-186 0 -344.5 -93t-251 -252.5t-92.5 -346.5zM555 401q-15 29 -10.5 52t26.5 34q22 16 51.5 3t43.5 -56q17 -59 59.5 -93t97.5 -34q74 -1 118 58.5t44 156.5q0 102 -54 170t-136 68q-89 0 -172 -76l-23 16l59 461
h328q64 0 76 60h16l25 -183h-426l-39 -293q99 95 211 95q122 0 200 -79t78 -198q0 -129 -87 -210t-226 -81q-88 0 -160.5 34.5t-99.5 94.5z" />
    <glyph glyph-name="uni2465" unicode="&#x2465;" 
d="M858 -31q-153 0 -293 60t-241.5 161.5t-161.5 241.5t-60 293t60 293t161.5 241.5t241.5 161.5t293 60t293 -60t241.5 -161.5t161.5 -241.5t60 -293t-60 -293t-161.5 -241.5t-241.5 -161.5t-293 -60zM170 725q0 -187 92.5 -346.5t251 -252.5t344.5 -93q187 0 346.5 93
t252.5 252.5t93 346.5t-93 346.5t-252.5 252.5t-346.5 93q-186 0 -344.5 -93t-251 -252.5t-92.5 -346.5zM528 715q2 121 33 213t83 145.5t115.5 80t137.5 26.5q54 0 105.5 -18t80.5 -48q29 -23 39.5 -50t3 -47.5t-29.5 -29.5q-33 -13 -58.5 5t-36.5 59q-9 40 -43.5 68
t-76.5 28q-96 0 -149 -115.5t-56 -308.5q37 58 93 91.5t124 33.5q114 0 186 -80t72 -203q0 -127 -77 -211t-206 -84q-158 0 -251.5 122.5t-88.5 322.5zM676 688q8 -171 60.5 -277t137.5 -106q60 0 100 67t40 160q0 104 -54.5 171t-136.5 67q-91 0 -147 -82z" />
    <glyph glyph-name="uni2466" unicode="&#x2466;" 
d="M858 -31q-153 0 -293 60t-241.5 161.5t-161.5 241.5t-60 293t60 293t161.5 241.5t241.5 161.5t293 60t293 -60t241.5 -161.5t161.5 -241.5t60 -293t-60 -293t-161.5 -241.5t-241.5 -161.5t-293 -60zM170 725q0 -187 92.5 -346.5t251 -252.5t344.5 -93q187 0 346.5 93
t252.5 252.5t93 346.5t-93 346.5t-252.5 252.5t-346.5 93q-186 0 -344.5 -93t-251 -252.5t-92.5 -346.5zM561 903l35 258h563v-18q-174 -245 -239.5 -441t-45.5 -411h-147q-5 94 11.5 185t45 163.5t75.5 148t90.5 130.5t101.5 120h-326q-58 0 -91.5 -31t-55.5 -104h-17z" />
    <glyph glyph-name="uni2467" unicode="&#x2467;" 
d="M858 -31q-153 0 -293 60t-241.5 161.5t-161.5 241.5t-60 293t60 293t161.5 241.5t241.5 161.5t293 60t293 -60t241.5 -161.5t161.5 -241.5t60 -293t-60 -293t-161.5 -241.5t-241.5 -161.5t-293 -60zM170 725q0 -187 92.5 -346.5t251 -252.5t344.5 -93q187 0 346.5 93
t252.5 252.5t93 346.5t-93 346.5t-252.5 252.5t-346.5 93q-186 0 -344.5 -93t-251 -252.5t-92.5 -346.5zM537 498q0 74 50 128t158 99q-85 43 -132.5 96t-47.5 133q0 93 82 159.5t211 66.5q120 0 200.5 -60t80.5 -141q0 -68 -51.5 -120t-139.5 -81q54 -25 87.5 -43.5
t71.5 -49.5t56.5 -71.5t18.5 -91.5q0 -109 -88.5 -180.5t-237.5 -71.5q-139 0 -229 65.5t-90 162.5zM668 502q0 -86 54 -141.5t134 -55.5q75 0 127.5 46t52.5 118q0 42 -16.5 75t-56.5 62t-66 43t-86 42q-16 7 -23 11q-66 -40 -93 -87.5t-27 -112.5zM709 1004
q0 -37 14 -67.5t42.5 -55t56.5 -41t71 -37.5q66 35 93.5 74t27.5 96q0 79 -46 126.5t-110 47.5q-63 0 -106 -38.5t-43 -104.5z" />
    <glyph glyph-name="uni2468" unicode="&#x2468;" 
d="M858 -31q-153 0 -293 60t-241.5 161.5t-161.5 241.5t-60 293t60 293t161.5 241.5t241.5 161.5t293 60t293 -60t241.5 -161.5t161.5 -241.5t60 -293t-60 -293t-161.5 -241.5t-241.5 -161.5t-293 -60zM170 725q0 -187 92.5 -346.5t251 -252.5t344.5 -93q187 0 346.5 93
t252.5 252.5t93 346.5t-93 346.5t-252.5 252.5t-346.5 93q-186 0 -344.5 -93t-251 -252.5t-92.5 -346.5zM565 885q0 127 77 211t206 84q158 0 251.5 -122.5t88.5 -322.5q-2 -121 -33 -213t-83 -145.5t-115.5 -80t-137.5 -26.5q-54 0 -105.5 18t-80.5 48q-29 23 -39.5 50
t-2.5 47.5t30 29.5q33 13 58 -5t36 -59q9 -40 44 -68t77 -28q96 0 148.5 115.5t55.5 308.5q-37 -58 -93 -91.5t-124 -33.5q-114 0 -186 80t-72 203zM702 918q0 -104 54.5 -171t136.5 -67q91 0 147 82q-8 171 -60.5 277t-137.5 106q-60 0 -100 -67t-40 -160z" />
    <glyph glyph-name="lozenge" unicode="&#x25ca;" horiz-adv-x="1075" 
d="M993 725l-420 -725h-65l-426 725l426 725h65zM150 725l391 -668l387 668l-387 668z" />
    <glyph glyph-name="circle" unicode="&#x25cb;" 
d="M858 -31q-153 0 -293 60t-241.5 161.5t-161.5 241.5t-60 293t60 293t161.5 241.5t241.5 161.5t293 60t293 -60t241.5 -161.5t161.5 -241.5t60 -293t-60 -293t-161.5 -241.5t-241.5 -161.5t-293 -60zM170 725q0 -187 92.5 -346.5t251 -252.5t344.5 -93q187 0 346.5 93
t252.5 252.5t93 346.5t-93 346.5t-252.5 252.5t-346.5 93q-186 0 -344.5 -93t-251 -252.5t-92.5 -346.5z" />
    <glyph glyph-name="uni25CF" unicode="&#x25cf;" 
d="M856 -31q154 0 294.5 60t242 161.5t161.5 241.5t60 293t-60 293t-161.5 241.5t-242 161.5t-294.5 60q-153 0 -293 -60t-240.5 -161.5t-160.5 -241.5t-60 -293t60 -293t160.5 -241.5t240.5 -161.5t293 -60z" />
    <glyph glyph-name="uni2776" unicode="&#x2776;" 
d="M856 -31q154 0 294.5 60t242 161.5t161.5 241.5t60 293t-60 293t-161.5 241.5t-242 161.5t-294.5 60q-153 0 -293 -60t-240.5 -161.5t-160.5 -241.5t-60 -293t60 -293t160.5 -241.5t240.5 -161.5t293 -60zM651 291v16q82 6 107.5 26t25.5 68v623h-133v16q170 49 254 127
h19v-766q0 -46 22 -66.5t86 -27.5v-16h-381z" />
    <glyph glyph-name="uni2777" unicode="&#x2777;" 
d="M856 -31q154 0 294.5 60t242 161.5t161.5 241.5t60 293t-60 293t-161.5 241.5t-242 161.5t-294.5 60q-153 0 -293 -60t-240.5 -161.5t-160.5 -241.5t-60 -293t60 -293t160.5 -241.5t240.5 -161.5t293 -60zM553 950q-3 90 80.5 160t200.5 70q136 0 217.5 -66t81.5 -174
q0 -86 -44 -155.5t-111 -116t-136.5 -84.5t-131.5 -79t-85 -81h348q70 0 111.5 27t62.5 114l16 -4l-35 -270h-559l2 28q2 65 26.5 120.5t61.5 96.5t81.5 79.5t88.5 75.5t80.5 76t59 91.5t22.5 112.5q0 72 -47.5 123t-114.5 51q-81 0 -122.5 -56.5t-30.5 -123.5
q8 -33 -6.5 -54t-40.5 -24q-32 -6 -54 12.5t-22 50.5z" />
    <glyph glyph-name="uni2778" unicode="&#x2778;" 
d="M856 -31q154 0 294.5 60t242 161.5t161.5 241.5t60 293t-60 293t-161.5 241.5t-242 161.5t-294.5 60q-153 0 -293 -60t-240.5 -161.5t-160.5 -241.5t-60 -293t60 -293t160.5 -241.5t240.5 -161.5t293 -60zM559 451q-12 32 -2.5 61.5t41.5 38.5q38 11 63.5 -10.5
t14.5 -81.5q-2 -60 41.5 -106t126.5 -46q74 0 122 55t48 148q0 100 -71.5 156t-203.5 55v24q107 18 173.5 79t66.5 151q0 75 -39 122.5t-100 47.5q-78 0 -117 -56t-29 -124q8 -35 -6 -55t-41 -23q-33 -6 -53.5 11.5t-22.5 51.5q-3 91 77.5 160.5t197.5 69.5
q121 0 194.5 -55.5t75.5 -143.5q3 -80 -62.5 -143.5t-176.5 -85.5q134 -4 209 -64.5t75 -159.5q0 -116 -92 -186t-233 -70q-102 0 -178 48.5t-99 130.5z" />
    <glyph glyph-name="uni2779" unicode="&#x2779;" 
d="M856 -31q154 0 294.5 60t242 161.5t161.5 241.5t60 293t-60 293t-161.5 241.5t-242 161.5t-294.5 60q-153 0 -293 -60t-240.5 -161.5t-160.5 -241.5t-60 -293t60 -293t160.5 -241.5t240.5 -161.5t293 -60zM485 528v17l394 635h104v-596h16q53 0 95.5 50t62.5 138h19
l-33 -244h-160v-94q0 -63 21.5 -92t87.5 -35v-16h-385v16q75 8 107 35.5t32 91.5v94h-361zM549 584h297v477z" />
    <glyph glyph-name="uni277A" unicode="&#x277a;" 
d="M856 -31q154 0 294.5 60t242 161.5t161.5 241.5t60 293t-60 293t-161.5 241.5t-242 161.5t-294.5 60q-153 0 -293 -60t-240.5 -161.5t-160.5 -241.5t-60 -293t60 -293t160.5 -241.5t240.5 -161.5t293 -60zM555 401q-15 29 -10.5 52t26.5 34q22 16 51.5 3t43.5 -56
q17 -59 59.5 -93t97.5 -34q74 -1 118 58.5t44 156.5q0 102 -54 170t-136 68q-89 0 -172 -76l-23 16l59 461h328q64 0 76 60h16l25 -183h-426l-39 -293q99 95 211 95q122 0 200 -79t78 -198q0 -129 -87 -210t-226 -81q-88 0 -160.5 34.5t-99.5 94.5z" />
    <glyph glyph-name="uni277B" unicode="&#x277b;" 
d="M856 -31q154 0 294.5 60t242 161.5t161.5 241.5t60 293t-60 293t-161.5 241.5t-242 161.5t-294.5 60q-153 0 -293 -60t-240.5 -161.5t-160.5 -241.5t-60 -293t60 -293t160.5 -241.5t240.5 -161.5t293 -60zM528 715q2 121 33 213t83 145.5t115.5 80t137.5 26.5
q54 0 105.5 -18t80.5 -48q29 -23 39.5 -50t3 -47.5t-29.5 -29.5q-33 -13 -58.5 5t-36.5 59q-9 40 -43.5 68t-76.5 28q-96 0 -149 -115.5t-56 -308.5q37 58 93 91.5t124 33.5q114 0 186 -80t72 -203q0 -127 -77 -211t-206 -84q-158 0 -251.5 122.5t-88.5 322.5zM676 688
q8 -171 60.5 -277t137.5 -106q60 0 100 67t40 160q0 104 -54.5 171t-136.5 67q-91 0 -147 -82z" />
    <glyph glyph-name="uni277C" unicode="&#x277c;" 
d="M856 -31q154 0 294.5 60t242 161.5t161.5 241.5t60 293t-60 293t-161.5 241.5t-242 161.5t-294.5 60q-153 0 -293 -60t-240.5 -161.5t-160.5 -241.5t-60 -293t60 -293t160.5 -241.5t240.5 -161.5t293 -60zM567 903l35 258h563v-18q-173 -245 -238.5 -441t-45.5 -411h-148
q-5 94 11.5 185t45 163.5t75.5 148t90.5 130.5t101.5 120h-326q-58 0 -91.5 -31t-55.5 -104h-17z" />
    <glyph glyph-name="uni277D" unicode="&#x277d;" 
d="M856 -31q154 0 294.5 60t242 161.5t161.5 241.5t60 293t-60 293t-161.5 241.5t-242 161.5t-294.5 60q-153 0 -293 -60t-240.5 -161.5t-160.5 -241.5t-60 -293t60 -293t160.5 -241.5t240.5 -161.5t293 -60zM537 498q0 74 50 128t158 99q-85 43 -132.5 96t-47.5 133
q0 93 82 159.5t211 66.5q120 0 200.5 -60t80.5 -141q0 -68 -51.5 -120t-139.5 -81q54 -25 87.5 -43.5t71.5 -49.5t56.5 -71.5t18.5 -91.5q0 -109 -88.5 -180.5t-237.5 -71.5q-139 0 -229 65.5t-90 162.5zM668 502q0 -86 54 -141.5t134 -55.5q75 0 127.5 46t52.5 118
q0 42 -16.5 75t-56.5 62t-66 43t-86 42q-16 7 -23 11q-66 -40 -93 -87.5t-27 -112.5zM709 1004q0 -37 14 -67.5t42.5 -55t56.5 -41t71 -37.5q66 35 93.5 74t27.5 96q0 79 -46 126.5t-110 47.5q-63 0 -106 -38.5t-43 -104.5z" />
    <glyph glyph-name="uni277E" unicode="&#x277e;" 
d="M856 -31q154 0 294.5 60t242 161.5t161.5 241.5t60 293t-60 293t-161.5 241.5t-242 161.5t-294.5 60q-153 0 -293 -60t-240.5 -161.5t-160.5 -241.5t-60 -293t60 -293t160.5 -241.5t240.5 -161.5t293 -60zM565 885q0 127 77 211t206 84q158 0 251.5 -122.5t88.5 -322.5
q-2 -121 -33 -213t-83 -145.5t-115.5 -80t-137.5 -26.5q-54 0 -105.5 18t-80.5 48q-29 23 -39.5 50t-2.5 47.5t30 29.5q33 13 58 -5t36 -59q9 -40 44 -68t77 -28q96 0 148.5 115.5t55.5 308.5q-37 -58 -93 -91.5t-124 -33.5q-114 0 -186 80t-72 203zM702 918
q0 -104 54.5 -171t136.5 -67q91 0 147 82q-8 171 -60.5 277t-137.5 106q-60 0 -100 -67t-40 -160z" />
    <glyph glyph-name="uniF8FF" unicode="&#xf8ff;" horiz-adv-x="1597" 
d="M1260 485q104 0 180 -77.5t76 -184.5q0 -105 -75.5 -180.5t-180.5 -75.5q-106 0 -184.5 76t-78.5 180v203h-395v-203q0 -105 -78 -180.5t-186 -75.5q-106 0 -181 75t-75 181t76 184t180 78h205v396h-205q-104 0 -180 78t-76 184t76 182t180 76q109 0 186.5 -76t77.5 -182
v-203h395v203q0 104 78 181t185 77q106 0 181 -76t75 -182t-76 -184t-180 -78h-205v-396h205zM141 223q0 -83 57.5 -140.5t139.5 -57.5q85 0 145 57.5t60 140.5v203h-205q-82 0 -139.5 -60t-57.5 -143zM141 1143q0 -83 57.5 -143t139.5 -60h205v203q0 83 -59.5 141.5
t-145.5 58.5q-82 0 -139.5 -58.5t-57.5 -141.5zM602 485h395v396h-395v-396zM1055 223q0 -83 60 -140.5t145 -57.5q82 0 140 57.5t58 140.5q0 85 -58 144t-140 59h-205v-203zM1055 940h205q82 0 140 59t58 144q0 83 -58 141.5t-140 58.5q-86 0 -145.5 -58.5t-59.5 -141.5
v-203z" />
    <glyph glyph-name="C.ss04" horiz-adv-x="1349" 
d="M1272 1470l-84 -409l-31 2q-14 162 -114 261t-252 99q-208 0 -341 -180t-133 -467q0 -192 70 -346.5t196 -242t283 -87.5q154 0 266 91.5t156 257.5l31 -9q-29 -217 -179.5 -345t-357.5 -128q-146 0 -271 54.5t-211 150.5t-134.5 229.5t-48.5 288.5q0 228 84 408.5
t235 281.5t342 101q84 0 160.5 -19.5t116.5 -38.5t76.5 -29t61 9t48.5 76z" />
    <glyph glyph-name="Cacute.ss04" horiz-adv-x="1349" 
d="M1272 1470l-84 -409l-31 2q-14 162 -114 261t-252 99q-208 0 -341 -180t-133 -467q0 -192 70 -346.5t196 -242t283 -87.5q154 0 266 91.5t156 257.5l31 -9q-29 -217 -179.5 -345t-357.5 -128q-146 0 -271 54.5t-211 150.5t-134.5 229.5t-48.5 288.5q0 228 84 408.5
t235 281.5t342 101q84 0 160.5 -19.5t116.5 -38.5t76.5 -29t61 9t48.5 76zM758 1581l137 338h205l-314 -338h-28z" />
    <glyph glyph-name="Ccaron.ss04" horiz-adv-x="1349" 
d="M1272 1470l-84 -409l-31 2q-14 162 -114 261t-252 99q-208 0 -341 -180t-133 -467q0 -192 70 -346.5t196 -242t283 -87.5q154 0 266 91.5t156 257.5l31 -9q-29 -217 -179.5 -345t-357.5 -128q-146 0 -271 54.5t-211 150.5t-134.5 229.5t-48.5 288.5q0 228 84 408.5
t235 281.5t342 101q84 0 160.5 -19.5t116.5 -38.5t76.5 -29t61 9t48.5 76zM485 1907l21 16l266 -242l270 242l21 -16l-211 -324h-160z" />
    <glyph glyph-name="Ccedilla.ss04" horiz-adv-x="1349" 
d="M1272 1470l-84 -409l-31 2q-14 162 -114 261t-252 99q-208 0 -341 -180t-133 -467q0 -192 70 -346.5t196 -242t283 -87.5q154 0 266 91.5t156 257.5l31 -9q-29 -217 -179.5 -345t-357.5 -128h-28l-52 -86q74 -4 118 -45t44 -102q0 -99 -83.5 -142.5t-227.5 -15.5v21
q85 -9 137.5 19t52.5 85q0 37 -34.5 65.5t-98.5 38.5l107 164q-269 25 -434.5 225t-165.5 496q0 228 84 408.5t235 281.5t342 101q84 0 160.5 -19.5t116.5 -38.5t76.5 -29t61 9t48.5 76z" />
    <glyph glyph-name="Ccircumflex.ss04" horiz-adv-x="1349" 
d="M1272 1470l-84 -409l-31 2q-14 162 -114 261t-252 99q-208 0 -341 -180t-133 -467q0 -192 70 -346.5t196 -242t283 -87.5q154 0 266 91.5t156 257.5l31 -9q-29 -217 -179.5 -345t-357.5 -128q-146 0 -271 54.5t-211 150.5t-134.5 229.5t-48.5 288.5q0 228 84 408.5
t235 281.5t342 101q84 0 160.5 -19.5t116.5 -38.5t76.5 -29t61 9t48.5 76zM485 1597l207 326h160l211 -326l-21 -14l-270 240l-266 -240z" />
    <glyph glyph-name="Cdotaccent.ss04" horiz-adv-x="1349" 
d="M1272 1470l-84 -409l-31 2q-14 162 -114 261t-252 99q-208 0 -341 -180t-133 -467q0 -192 70 -346.5t196 -242t283 -87.5q154 0 266 91.5t156 257.5l31 -9q-29 -217 -179.5 -345t-357.5 -128q-146 0 -271 54.5t-211 150.5t-134.5 229.5t-48.5 288.5q0 228 84 408.5
t235 281.5t342 101q84 0 160.5 -19.5t116.5 -38.5t76.5 -29t61 9t48.5 76zM645 1759q0 53 37 88t92 35q54 0 89.5 -35t35.5 -88t-35.5 -88t-89.5 -35q-55 0 -92 35t-37 88z" />
    <glyph glyph-name="G.ss04" horiz-adv-x="1484" 
d="M768 -31q-185 0 -334 93t-233 258t-84 370q0 230 86.5 411.5t237 281t337.5 98.5q84 0 162 -19.5t120 -38.5t80.5 -29t64.5 9t50 76l29 -9l-84 -409l-29 2q-15 161 -121 260.5t-259 99.5q-206 0 -341.5 -183t-134.5 -470q1 -201 67.5 -369t185 -267t263.5 -99
q79 0 153.5 25.5t125.5 80.5v377q0 173 -188 182v31h551v-31q-179 -9 -179 -182v-293q-75 -111 -214.5 -183.5t-311.5 -72.5z" />
    <glyph glyph-name="K.ss08" horiz-adv-x="1507" 
d="M1133 0q-8 44 -89 129l-595 563v-512q0 -75 39.5 -108t144.5 -43v-29h-555v29q105 10 144.5 43t39.5 108v1090q0 75 -39.5 108t-144.5 43v29h555v-29q-105 -10 -144.5 -43t-39.5 -108v-529l624 553q69 62 46.5 92.5t-132.5 32.5v31h424v-31q-63 -3 -125 -36.5t-137 -98.5
l-549 -483l645 -625l41.5 -41.5t39.5 -35t48.5 -36t46 -20.5t56.5 -12v-31h-344z" />
    <glyph glyph-name="uni0136.ss08" horiz-adv-x="1507" 
d="M1133 0q-8 44 -89 129l-595 563v-512q0 -75 39.5 -108t144.5 -43v-29h-555v29q105 10 144.5 43t39.5 108v1090q0 75 -39.5 108t-144.5 43v29h555v-29q-105 -10 -144.5 -43t-39.5 -108v-529l624 553q69 62 46.5 92.5t-132.5 32.5v31h424v-31q-63 -3 -125 -36.5t-137 -98.5
l-549 -483l645 -625l41.5 -41.5t39.5 -35t48.5 -36t46 -20.5t56.5 -12v-31h-344zM664 -225q0 50 36 82t91 32q63 0 100 -38.5t37 -98.5q0 -104 -68 -171.5t-188 -94.5l-4 16q62 30 107.5 72.5t55.5 93.5q-24 -12 -49 -12q-50 0 -84 33t-34 86z" />
    <glyph glyph-name="R.ss08" horiz-adv-x="1390" 
d="M78 31q105 6 144.5 39.5t39.5 128.5v1054q0 94 -40.5 127.5t-143.5 38.5v31h573q256 0 399.5 -107.5t143.5 -298.5q0 -184 -133 -291t-373 -116l453 -440q91 -85 146 -124t97 -42v-31h-344q-8 32 -28.5 63t-71.5 82l-491 490v-436q0 -98 40 -130t144 -38v-31h-555v31z
M449 694h169q178 0 276.5 96t98.5 254q0 159 -98 254t-277 95h-169v-699z" />
    <glyph glyph-name="Racute.ss08" horiz-adv-x="1390" 
d="M78 31q105 6 144.5 39.5t39.5 128.5v1054q0 94 -40.5 127.5t-143.5 38.5v31h573q256 0 399.5 -107.5t143.5 -298.5q0 -184 -133 -291t-373 -116l453 -440q91 -85 146 -124t97 -42v-31h-344q-8 32 -28.5 63t-71.5 82l-491 490v-436q0 -98 40 -130t144 -38v-31h-555v31z
M449 694h169q178 0 276.5 96t98.5 254q0 159 -98 254t-277 95h-169v-699zM659 1581l138 338h204l-313 -338h-29z" />
    <glyph glyph-name="Rcaron.ss08" horiz-adv-x="1390" 
d="M78 31q105 6 144.5 39.5t39.5 128.5v1054q0 94 -40.5 127.5t-143.5 38.5v31h573q256 0 399.5 -107.5t143.5 -298.5q0 -184 -133 -291t-373 -116l453 -440q91 -85 146 -124t97 -42v-31h-344q-8 32 -28.5 63t-71.5 82l-491 490v-436q0 -98 40 -130t144 -38v-31h-555v31z
M387 1907l21 16l266 -242l270 242l21 -16l-211 -324h-160zM449 694h169q178 0 276.5 96t98.5 254q0 159 -98 254t-277 95h-169v-699z" />
    <glyph glyph-name="uni0156.ss08" horiz-adv-x="1390" 
d="M78 31q105 6 144.5 39.5t39.5 128.5v1054q0 94 -40.5 127.5t-143.5 38.5v31h573q256 0 399.5 -107.5t143.5 -298.5q0 -184 -133 -291t-373 -116l453 -440q91 -85 146 -124t97 -42v-31h-344q-8 32 -28.5 63t-71.5 82l-491 490v-436q0 -98 40 -130t144 -38v-31h-555v31z
M449 694h169q178 0 276.5 96t98.5 254q0 159 -98 254t-277 95h-169v-699zM641 -225q0 50 36 82t91 32q63 0 100 -38.5t37 -98.5q0 -104 -68 -171.5t-188 -94.5l-4 16q146 71 164 166q-24 -12 -49 -12q-51 0 -85 33t-34 86z" />
    <glyph glyph-name="S.ss10" horiz-adv-x="1112" 
d="M571 -31q-84 0 -160 20.5t-119 41.5t-81.5 33.5t-68.5 -3.5t-60 -69l-29 8l92 442l29 -6q-10 -78 8 -145t57 -114.5t93 -81.5t115 -50t124 -16q132 0 216.5 76.5t84.5 197.5q0 74 -26 131.5t-70.5 95t-101.5 67.5t-120 55t-126.5 50.5t-120.5 59.5t-101.5 77t-70.5 109
t-26 150q0 173 120 278t324 105q70 0 137.5 -19t109 -39t80 -32.5t67.5 2t54 63.5l29 -6l-84 -393l-28 6q2 86 -29 156t-84 113.5t-118 67t-134 23.5q-126 0 -205.5 -69t-79.5 -183q0 -59 22 -107.5t59.5 -81.5t87.5 -62.5t106 -50.5t115.5 -46.5t115.5 -50.5t106 -61.5
t87.5 -79.5t59.5 -106t22 -140q0 -186 -132 -301t-346 -115z" />
    <glyph glyph-name="Sacute.ss10" horiz-adv-x="1112" 
d="M571 -31q-84 0 -160 20.5t-119 41.5t-81.5 33.5t-68.5 -3.5t-60 -69l-29 8l92 442l29 -6q-10 -78 8 -145t57 -114.5t93 -81.5t115 -50t124 -16q132 0 216.5 76.5t84.5 197.5q0 74 -26 131.5t-70.5 95t-101.5 67.5t-120 55t-126.5 50.5t-120.5 59.5t-101.5 77t-70.5 109
t-26 150q0 173 120 278t324 105q70 0 137.5 -19t109 -39t80 -32.5t67.5 2t54 63.5l29 -6l-84 -393l-28 6q2 86 -29 156t-84 113.5t-118 67t-134 23.5q-126 0 -205.5 -69t-79.5 -183q0 -59 22 -107.5t59.5 -81.5t87.5 -62.5t106 -50.5t115.5 -46.5t115.5 -50.5t106 -61.5
t87.5 -79.5t59.5 -106t22 -140q0 -186 -132 -301t-346 -115zM537 1581l137 338h205l-314 -338h-28z" />
    <glyph glyph-name="Scaron.ss10" horiz-adv-x="1112" 
d="M571 -31q-84 0 -160 20.5t-119 41.5t-81.5 33.5t-68.5 -3.5t-60 -69l-29 8l92 442l29 -6q-10 -78 8 -145t57 -114.5t93 -81.5t115 -50t124 -16q132 0 216.5 76.5t84.5 197.5q0 74 -26 131.5t-70.5 95t-101.5 67.5t-120 55t-126.5 50.5t-120.5 59.5t-101.5 77t-70.5 109
t-26 150q0 173 120 278t324 105q70 0 137.5 -19t109 -39t80 -32.5t67.5 2t54 63.5l29 -6l-84 -393l-28 6q2 86 -29 156t-84 113.5t-118 67t-134 23.5q-126 0 -205.5 -69t-79.5 -183q0 -59 22 -107.5t59.5 -81.5t87.5 -62.5t106 -50.5t115.5 -46.5t115.5 -50.5t106 -61.5
t87.5 -79.5t59.5 -106t22 -140q0 -186 -132 -301t-346 -115zM264 1907l21 16l266 -242l270 242l21 -16l-211 -324h-160z" />
    <glyph glyph-name="Scedilla.ss10" horiz-adv-x="1112" 
d="M387 -403q85 -9 138 19t53 85q0 37 -35 65.5t-99 38.5l107 164q-79 2 -151.5 23t-113 41t-78.5 31.5t-67 -4.5t-59 -68l-29 8l92 442l29 -6q-10 -78 8 -145t57 -114.5t93 -81.5t115 -50t124 -16q132 0 216.5 76.5t84.5 197.5q0 74 -26 131.5t-70.5 95t-101.5 67.5
t-120 55t-126.5 50.5t-120.5 59.5t-101.5 77t-70.5 109t-26 150q0 173 120 278t324 105q70 0 137.5 -19t109 -39t80 -32.5t67.5 2t54 63.5l29 -6l-84 -393l-28 6q2 86 -29 156t-84 113.5t-118 67t-134 23.5q-126 0 -205.5 -69t-79.5 -183q0 -59 22 -107.5t59.5 -81.5
t87.5 -62.5t106 -50.5t115.5 -46.5t115.5 -50.5t106 -61.5t87.5 -79.5t59.5 -106t22 -140q0 -181 -126.5 -295.5t-332.5 -120.5l-53 -88q74 -4 117.5 -45t43.5 -102q0 -99 -83.5 -142.5t-227.5 -15.5v21z" />
    <glyph glyph-name="Scircumflex.ss10" horiz-adv-x="1112" 
d="M571 -31q-84 0 -160 20.5t-119 41.5t-81.5 33.5t-68.5 -3.5t-60 -69l-29 8l92 442l29 -6q-10 -78 8 -145t57 -114.5t93 -81.5t115 -50t124 -16q132 0 216.5 76.5t84.5 197.5q0 74 -26 131.5t-70.5 95t-101.5 67.5t-120 55t-126.5 50.5t-120.5 59.5t-101.5 77t-70.5 109
t-26 150q0 173 120 278t324 105q70 0 137.5 -19t109 -39t80 -32.5t67.5 2t54 63.5l29 -6l-84 -393l-28 6q2 86 -29 156t-84 113.5t-118 67t-134 23.5q-126 0 -205.5 -69t-79.5 -183q0 -59 22 -107.5t59.5 -81.5t87.5 -62.5t106 -50.5t115.5 -46.5t115.5 -50.5t106 -61.5
t87.5 -79.5t59.5 -106t22 -140q0 -186 -132 -301t-346 -115zM264 1597l207 326h160l211 -326l-21 -14l-270 240l-266 -240z" />
    <glyph glyph-name="uni0218.ss10" horiz-adv-x="1112" 
d="M571 -31q-84 0 -160 20.5t-119 41.5t-81.5 33.5t-68.5 -3.5t-60 -69l-29 8l92 442l29 -6q-10 -78 8 -145t57 -114.5t93 -81.5t115 -50t124 -16q132 0 216.5 76.5t84.5 197.5q0 74 -26 131.5t-70.5 95t-101.5 67.5t-120 55t-126.5 50.5t-120.5 59.5t-101.5 77t-70.5 109
t-26 150q0 173 120 278t324 105q70 0 137.5 -19t109 -39t80 -32.5t67.5 2t54 63.5l29 -6l-84 -393l-28 6q2 86 -29 156t-84 113.5t-118 67t-134 23.5q-126 0 -205.5 -69t-79.5 -183q0 -59 22 -107.5t59.5 -81.5t87.5 -62.5t106 -50.5t115.5 -46.5t115.5 -50.5t106 -61.5
t87.5 -79.5t59.5 -106t22 -140q0 -186 -132 -301t-346 -115zM416 -225q0 50 36 82t91 32q63 0 100 -38.5t37 -98.5q0 -104 -68 -171.5t-188 -94.5l-4 16q146 71 164 166q-24 -12 -49 -12q-51 0 -85 33t-34 86z" />
    <glyph glyph-name="M.titl" horiz-adv-x="2013" 
d="M1790 172q6 -70 49.5 -102.5t140.5 -40.5v-29h-544v29q98 9 137 43.5t33 107.5l-84 1061l-588 -1241h-25l-557 1235l-86 -1061q-5 -69 35 -102.5t139 -42.5v-29h-407v29q88 7 128 40.5t46 104.5l90 1086q7 83 -34 117.5t-148 43.5v29h350l528 -1188l563 1188h330v-29
q-107 -11 -148 -46.5t-34 -119.5z" />
    <glyph glyph-name="i.loclTRK" horiz-adv-x="571" 
d="M367 160q0 -63 31 -92t110 -39v-29h-453v29q80 11 111 39.5t31 91.5v659q0 81 -31.5 104t-110.5 9v29l283 96h29v-897zM152 1335q0 53 37 88t92 35q54 0 89.5 -35t35.5 -88t-35.5 -88t-89.5 -35q-55 0 -92 35t-37 88z" />
    <glyph glyph-name="f.calt" horiz-adv-x="866" 
d="M676 1026v-57h-285v-815q0 -64 45 -89t156 -36v-29h-516v29q35 6 58 13t45.5 20.5t33 36t10.5 55.5v815h-174v57h174v86q0 191 102 290.5t263 96.5q103 -2 171 -34.5t68 -96.5q0 -42 -36.5 -62.5t-71.5 -2.5q-23 8 -36.5 25.5t-20 36.5t-15.5 37t-30.5 29.5t-57.5 10.5
q-82 0 -125 -74t-43 -201v-141h285z" />
    <glyph glyph-name="germandbls.calt" horiz-adv-x="1449" 
d="M936 -29q-145 0 -245 79t-136 212l27 10q32 -85 115.5 -136.5t187.5 -51.5q120 0 198 92t78 234q0 166 -135 256.5t-338 54.5l-20 39l411 520q-53 66 -145 104.5t-184 38.5q-143 0 -229.5 -92.5t-86.5 -277.5v-1053h-356v29q94 5 132 35t38 112v823q0 117 39 210.5
t107.5 152.5t157 89.5t191.5 29.5q157 -2 315.5 -66t219.5 -158l-391 -477q220 23 347.5 -80.5t127.5 -293.5q0 -191 -121 -313t-305 -122z" />
    <glyph glyph-name="a.ss01" horiz-adv-x="1189" 
d="M506 -31q-197 0 -313.5 145.5t-116.5 372.5q0 256 133.5 413t349.5 157q89 0 168 -35t125 -94l106 129h29v-912q0 -38 17 -60t45 -22q42 0 81 68l25 -10q-19 -45 -43.5 -77t-49 -47t-45.5 -21.5t-40 -6.5q-68 0 -113 45t-45 115v90q-30 -111 -115 -180.5t-198 -69.5z
M258 573q0 -222 87.5 -362.5t236.5 -140.5q83 0 147 59.5t88 149.5v438q-10 116 -80.5 199t-187.5 83q-131 0 -211 -119t-80 -307z" />
    <glyph glyph-name="aacute.ss01" horiz-adv-x="1189" 
d="M506 -31q-197 0 -313.5 145.5t-116.5 372.5q0 256 133.5 413t349.5 157q89 0 168 -35t125 -94l106 129h29v-912q0 -38 17 -60t45 -22q42 0 81 68l25 -10q-19 -45 -43.5 -77t-49 -47t-45.5 -21.5t-40 -6.5q-68 0 -113 45t-45 115v90q-30 -111 -115 -180.5t-198 -69.5z
M258 573q0 -222 87.5 -362.5t236.5 -140.5q83 0 147 59.5t88 149.5v438q-10 116 -80.5 199t-187.5 83q-131 0 -211 -119t-80 -307zM582 1157l137 338h205l-314 -338h-28z" />
    <glyph glyph-name="abreve.ss01" horiz-adv-x="1189" 
d="M506 -31q-197 0 -313.5 145.5t-116.5 372.5q0 256 133.5 413t349.5 157q89 0 168 -35t125 -94l106 129h29v-912q0 -38 17 -60t45 -22q42 0 81 68l25 -10q-19 -45 -43.5 -77t-49 -47t-45.5 -21.5t-40 -6.5q-68 0 -113 45t-45 115v90q-30 -111 -115 -180.5t-198 -69.5z
M258 573q0 -222 87.5 -362.5t236.5 -140.5q83 0 147 59.5t88 149.5v438q-10 116 -80.5 199t-187.5 83q-131 0 -211 -119t-80 -307zM354 1507h31q9 -105 64.5 -162t148.5 -57t149.5 57t65.5 162h31q3 -164 -61.5 -253t-184.5 -89q-119 0 -182 89t-62 253z" />
    <glyph glyph-name="acircumflex.ss01" horiz-adv-x="1189" 
d="M506 -31q-197 0 -313.5 145.5t-116.5 372.5q0 256 133.5 413t349.5 157q89 0 168 -35t125 -94l106 129h29v-912q0 -38 17 -60t45 -22q42 0 81 68l25 -10q-19 -45 -43.5 -77t-49 -47t-45.5 -21.5t-40 -6.5q-68 0 -113 45t-45 115v90q-30 -111 -115 -180.5t-198 -69.5z
M258 573q0 -222 87.5 -362.5t236.5 -140.5q83 0 147 59.5t88 149.5v438q-10 116 -80.5 199t-187.5 83q-131 0 -211 -119t-80 -307zM309 1174l207 325h160l211 -325l-21 -15l-270 240l-266 -240z" />
    <glyph glyph-name="adieresis.ss01" horiz-adv-x="1189" 
d="M506 -31q-197 0 -313.5 145.5t-116.5 372.5q0 256 133.5 413t349.5 157q89 0 168 -35t125 -94l106 129h29v-912q0 -38 17 -60t45 -22q42 0 81 68l25 -10q-19 -45 -43.5 -77t-49 -47t-45.5 -21.5t-40 -6.5q-68 0 -113 45t-45 115v90q-30 -111 -115 -180.5t-198 -69.5z
M258 573q0 -222 87.5 -362.5t236.5 -140.5q83 0 147 59.5t88 149.5v438q-10 116 -80.5 199t-187.5 83q-131 0 -211 -119t-80 -307zM299 1327q0 48 34.5 81.5t86.5 33.5q49 0 82 -33.5t33 -81.5q0 -50 -33 -83.5t-82 -33.5q-52 0 -86.5 33.5t-34.5 83.5zM659 1327
q0 48 34 81.5t85 33.5q50 0 83.5 -33.5t33.5 -81.5q0 -50 -33 -83.5t-84 -33.5t-85 33.5t-34 83.5z" />
    <glyph glyph-name="agrave.ss01" horiz-adv-x="1189" 
d="M506 -31q-197 0 -313.5 145.5t-116.5 372.5q0 256 133.5 413t349.5 157q89 0 168 -35t125 -94l106 129h29v-912q0 -38 17 -60t45 -22q42 0 81 68l25 -10q-19 -45 -43.5 -77t-49 -47t-45.5 -21.5t-40 -6.5q-68 0 -113 45t-45 115v90q-30 -111 -115 -180.5t-198 -69.5z
M258 573q0 -222 87.5 -362.5t236.5 -140.5q83 0 147 59.5t88 149.5v438q-10 116 -80.5 199t-187.5 83q-131 0 -211 -119t-80 -307zM385 1493h205l137 -338h-29z" />
    <glyph glyph-name="amacron.ss01" horiz-adv-x="1189" 
d="M506 -31q-197 0 -313.5 145.5t-116.5 372.5q0 256 133.5 413t349.5 157q89 0 168 -35t125 -94l106 129h29v-912q0 -38 17 -60t45 -22q42 0 81 68l25 -10q-19 -45 -43.5 -77t-49 -47t-45.5 -21.5t-40 -6.5q-68 0 -113 45t-45 115v90q-30 -111 -115 -180.5t-198 -69.5z
M258 573q0 -222 87.5 -362.5t236.5 -140.5q83 0 147 59.5t88 149.5v438q-10 116 -80.5 199t-187.5 83q-131 0 -211 -119t-80 -307zM334 1210v58h526v-58h-526z" />
    <glyph glyph-name="aogonek.ss01" horiz-adv-x="1189" 
d="M506 -31q-197 0 -313.5 145.5t-116.5 372.5q0 256 133.5 413t349.5 157q89 0 168 -35t125 -94l106 129h29v-912q0 -38 17 -60t45 -22q42 0 81 68l25 -10q-44 -104 -115 -137q-139 -139 -139 -246q0 -89 73.5 -108.5t170.5 44.5l12 -18q-42 -52 -95.5 -77t-105.5 -25
q-83 0 -133.5 41t-50.5 110q0 129 172 266q-56 11 -90.5 54t-34.5 104v90q-30 -111 -115 -180.5t-198 -69.5zM258 573q0 -222 87.5 -362.5t236.5 -140.5q83 0 147 59.5t88 149.5v438q-10 116 -80.5 199t-187.5 83q-131 0 -211 -119t-80 -307z" />
    <glyph glyph-name="aring.ss01" horiz-adv-x="1189" 
d="M506 -31q-197 0 -313.5 145.5t-116.5 372.5q0 256 133.5 413t349.5 157q89 0 168 -35t125 -94l106 129h29v-912q0 -38 17 -60t45 -22q42 0 81 68l25 -10q-19 -45 -43.5 -77t-49 -47t-45.5 -21.5t-40 -6.5q-68 0 -113 45t-45 115v90q-30 -111 -115 -180.5t-198 -69.5z
M258 573q0 -222 87.5 -362.5t236.5 -140.5q83 0 147 59.5t88 149.5v438q-10 116 -80.5 199t-187.5 83q-131 0 -211 -119t-80 -307zM397 1325q0 81 57 134.5t144 53.5t144 -53.5t57 -134.5q0 -80 -57.5 -134t-143.5 -54t-143.5 54t-57.5 134zM475 1327q0 -55 35 -91t88 -36
q54 0 88.5 35.5t34.5 91.5q0 54 -34.5 89.5t-88.5 35.5q-53 0 -88 -35.5t-35 -89.5z" />
    <glyph glyph-name="aringacute.ss01" horiz-adv-x="1189" 
d="M506 -31q-197 0 -313.5 145.5t-116.5 372.5q0 256 133.5 413t349.5 157q89 0 168 -35t125 -94l106 129h29v-912q0 -38 17 -60t45 -22q42 0 81 68l25 -10q-19 -45 -43.5 -77t-49 -47t-45.5 -21.5t-40 -6.5q-68 0 -113 45t-45 115v90q-30 -111 -115 -180.5t-198 -69.5z
M258 573q0 -222 87.5 -362.5t236.5 -140.5q83 0 147 59.5t88 149.5v438q-10 116 -80.5 199t-187.5 83q-131 0 -211 -119t-80 -307zM397 1325q0 81 57 134.5t144 53.5t144 -53.5t57 -134.5q0 -80 -57.5 -134t-143.5 -54t-143.5 54t-57.5 134zM475 1327q0 -55 35 -91t88 -36
q54 0 88.5 35.5t34.5 91.5q0 54 -34.5 89.5t-88.5 35.5q-53 0 -88 -35.5t-35 -89.5zM584 1577l137 338h205l-314 -338h-28z" />
    <glyph glyph-name="atilde.ss01" horiz-adv-x="1189" 
d="M506 -31q-197 0 -313.5 145.5t-116.5 372.5q0 256 133.5 413t349.5 157q89 0 168 -35t125 -94l106 129h29v-912q0 -38 17 -60t45 -22q42 0 81 68l25 -10q-19 -45 -43.5 -77t-49 -47t-45.5 -21.5t-40 -6.5q-68 0 -113 45t-45 115v90q-30 -111 -115 -180.5t-198 -69.5z
M258 573q0 -222 87.5 -362.5t236.5 -140.5q83 0 147 59.5t88 149.5v438q-10 116 -80.5 199t-187.5 83q-131 0 -211 -119t-80 -307zM311 1178q2 115 41 180t119 65q40 0 94 -28.5t105 -57t84 -28.5q76 0 94 125l29 -2q-6 -250 -156 -250q-44 0 -98.5 28.5t-104 57t-82.5 28.5
q-41 0 -64 -29.5t-32 -92.5z" />
    <glyph glyph-name="ae.ss01" horiz-adv-x="1763" 
d="M819 -31v256q-27 -112 -112.5 -184t-200.5 -72q-197 0 -313.5 145.5t-116.5 372.5q0 256 133.5 413t347.5 157q108 0 201.5 -50.5t132.5 -132.5q11 -13 20 -32q65 102 166 158.5t226 56.5q185 0 282.5 -126.5t81.5 -312.5h-670v-43q0 -211 101.5 -344t283.5 -133
q89 0 161.5 56.5t101.5 148.5l26 -6q-25 -146 -128.5 -236t-244.5 -90q-222 0 -356 154l-94 -156h-29zM258 573q0 -222 87 -362.5t237 -140.5q86 0 151 62t86 157v407l-2 -4q0 78 -29 146t-92 114.5t-149 46.5q-129 0 -209 -119t-80 -307zM1001 666h496q5 88 -21.5 164
t-81.5 122.5t-126 46.5q-116 0 -184.5 -88t-82.5 -245z" />
    <glyph glyph-name="aeacute.ss01" horiz-adv-x="1763" 
d="M819 -31v256q-27 -112 -112.5 -184t-200.5 -72q-197 0 -313.5 145.5t-116.5 372.5q0 256 133.5 413t347.5 157q108 0 201.5 -50.5t132.5 -132.5q11 -13 20 -32q65 102 166 158.5t226 56.5q185 0 282.5 -126.5t81.5 -312.5h-670v-43q0 -211 101.5 -344t283.5 -133
q89 0 161.5 56.5t101.5 148.5l26 -6q-25 -146 -128.5 -236t-244.5 -90q-222 0 -356 154l-94 -156h-29zM258 573q0 -222 87 -362.5t237 -140.5q86 0 151 62t86 157v407l-2 -4q0 78 -29 146t-92 114.5t-149 46.5q-129 0 -209 -119t-80 -307zM870 1157l138 338h204l-313 -338
h-29zM1001 666h496q5 88 -21.5 164t-81.5 122.5t-126 46.5q-116 0 -184.5 -88t-82.5 -245z" />
    <glyph glyph-name="a.ss02" horiz-adv-x="1056" 
d="M369 -31q-119 0 -199 75t-80 192q0 157 102 243.5t318 108.5l174 16v146q0 118 -62 180.5t-171 62.5q-107 0 -192.5 -67.5t-121.5 -186.5l-28 2l49 316h26q0 -43 11.5 -57.5t39 -7.5t60 21.5t88 29t109.5 14.5q97 0 177.5 -34t132.5 -108.5t52 -177.5v-592
q0 -38 16.5 -60t44.5 -22q43 0 82 68l25 -10q-19 -45 -43.5 -77t-49 -47t-45.5 -21.5t-40 -6.5q-64 0 -112 46t-48 130v78q-45 -123 -127.5 -188.5t-187.5 -65.5zM266 285q0 -85 55 -142t134 -57q72 0 131 52t98 145v266l-160 -21q-258 -34 -258 -243z" />
    <glyph glyph-name="aacute.ss02" horiz-adv-x="1056" 
d="M369 -31q-119 0 -199 75t-80 192q0 157 102 243.5t318 108.5l174 16v146q0 118 -62 180.5t-171 62.5q-107 0 -192.5 -67.5t-121.5 -186.5l-28 2l49 316h26q0 -43 11.5 -57.5t39 -7.5t60 21.5t88 29t109.5 14.5q97 0 177.5 -34t132.5 -108.5t52 -177.5v-592
q0 -38 16.5 -60t44.5 -22q43 0 82 68l25 -10q-19 -45 -43.5 -77t-49 -47t-45.5 -21.5t-40 -6.5q-64 0 -112 46t-48 130v78q-45 -123 -127.5 -188.5t-187.5 -65.5zM266 285q0 -85 55 -142t134 -57q72 0 131 52t98 145v266l-160 -21q-258 -34 -258 -243zM510 1157l137 338h205
l-313 -338h-29z" />
    <glyph glyph-name="abreve.ss02" horiz-adv-x="1056" 
d="M369 -31q-119 0 -199 75t-80 192q0 157 102 243.5t318 108.5l174 16v146q0 118 -62 180.5t-171 62.5q-107 0 -192.5 -67.5t-121.5 -186.5l-28 2l49 316h26q0 -43 11.5 -57.5t39 -7.5t60 21.5t88 29t109.5 14.5q97 0 177.5 -34t132.5 -108.5t52 -177.5v-592
q0 -38 16.5 -60t44.5 -22q43 0 82 68l25 -10q-19 -45 -43.5 -77t-49 -47t-45.5 -21.5t-40 -6.5q-64 0 -112 46t-48 130v78q-45 -123 -127.5 -188.5t-187.5 -65.5zM266 285q0 -85 55 -142t134 -57q72 0 131 52t98 145v266l-160 -21q-258 -34 -258 -243zM283 1507h30
q9 -105 64.5 -162t148.5 -57t149.5 57t65.5 162h31q3 -164 -61.5 -253t-184.5 -89q-118 0 -181.5 89t-61.5 253z" />
    <glyph glyph-name="acircumflex.ss02" horiz-adv-x="1056" 
d="M369 -31q-119 0 -199 75t-80 192q0 157 102 243.5t318 108.5l174 16v146q0 118 -62 180.5t-171 62.5q-107 0 -192.5 -67.5t-121.5 -186.5l-28 2l49 316h26q0 -43 11.5 -57.5t39 -7.5t60 21.5t88 29t109.5 14.5q97 0 177.5 -34t132.5 -108.5t52 -177.5v-592
q0 -38 16.5 -60t44.5 -22q43 0 82 68l25 -10q-19 -45 -43.5 -77t-49 -47t-45.5 -21.5t-40 -6.5q-64 0 -112 46t-48 130v78q-45 -123 -127.5 -188.5t-187.5 -65.5zM238 1174l206 325h160l211 -325l-20 -15l-271 240l-266 -240zM266 285q0 -85 55 -142t134 -57q72 0 131 52
t98 145v266l-160 -21q-258 -34 -258 -243z" />
    <glyph glyph-name="adieresis.ss02" horiz-adv-x="1056" 
d="M369 -31q-119 0 -199 75t-80 192q0 157 102 243.5t318 108.5l174 16v146q0 118 -62 180.5t-171 62.5q-107 0 -192.5 -67.5t-121.5 -186.5l-28 2l49 316h26q0 -43 11.5 -57.5t39 -7.5t60 21.5t88 29t109.5 14.5q97 0 177.5 -34t132.5 -108.5t52 -177.5v-592
q0 -38 16.5 -60t44.5 -22q43 0 82 68l25 -10q-19 -45 -43.5 -77t-49 -47t-45.5 -21.5t-40 -6.5q-64 0 -112 46t-48 130v78q-45 -123 -127.5 -188.5t-187.5 -65.5zM227 1327q0 48 34.5 81.5t86.5 33.5q49 0 82 -33.5t33 -81.5q0 -50 -33 -83.5t-82 -33.5q-52 0 -86.5 33.5
t-34.5 83.5zM266 285q0 -85 55 -142t134 -57q72 0 131 52t98 145v266l-160 -21q-258 -34 -258 -243zM588 1327q0 48 34 81.5t85 33.5q50 0 83 -33.5t33 -81.5q0 -50 -32.5 -83.5t-83.5 -33.5t-85 33.5t-34 83.5z" />
    <glyph glyph-name="agrave.ss02" horiz-adv-x="1056" 
d="M369 -31q-119 0 -199 75t-80 192q0 157 102 243.5t318 108.5l174 16v146q0 118 -62 180.5t-171 62.5q-107 0 -192.5 -67.5t-121.5 -186.5l-28 2l49 316h26q0 -43 11.5 -57.5t39 -7.5t60 21.5t88 29t109.5 14.5q97 0 177.5 -34t132.5 -108.5t52 -177.5v-592
q0 -38 16.5 -60t44.5 -22q43 0 82 68l25 -10q-19 -45 -43.5 -77t-49 -47t-45.5 -21.5t-40 -6.5q-64 0 -112 46t-48 130v78q-45 -123 -127.5 -188.5t-187.5 -65.5zM266 285q0 -85 55 -142t134 -57q72 0 131 52t98 145v266l-160 -21q-258 -34 -258 -243zM313 1493h205
l137 -338h-28z" />
    <glyph glyph-name="amacron.ss02" horiz-adv-x="1056" 
d="M369 -31q-119 0 -199 75t-80 192q0 157 102 243.5t318 108.5l174 16v146q0 118 -62 180.5t-171 62.5q-107 0 -192.5 -67.5t-121.5 -186.5l-28 2l49 316h26q0 -43 11.5 -57.5t39 -7.5t60 21.5t88 29t109.5 14.5q97 0 177.5 -34t132.5 -108.5t52 -177.5v-592
q0 -38 16.5 -60t44.5 -22q43 0 82 68l25 -10q-19 -45 -43.5 -77t-49 -47t-45.5 -21.5t-40 -6.5q-64 0 -112 46t-48 130v78q-45 -123 -127.5 -188.5t-187.5 -65.5zM262 1210v58h526v-58h-526zM266 285q0 -85 55 -142t134 -57q72 0 131 52t98 145v266l-160 -21
q-258 -34 -258 -243z" />
    <glyph glyph-name="aogonek.ss02" horiz-adv-x="1056" 
d="M369 -31q-119 0 -199 75t-80 192q0 157 102 243.5t318 108.5l174 16v146q0 118 -62 180.5t-171 62.5q-107 0 -192.5 -67.5t-121.5 -186.5l-28 2l49 316h26q0 -43 11.5 -57.5t39 -7.5t60 21.5t88 29t109.5 14.5q97 0 177.5 -34t132.5 -108.5t52 -177.5v-592
q0 -38 16.5 -60t44.5 -22q43 0 82 68l25 -10q-44 -104 -115 -137q-139 -139 -139 -246q0 -89 73.5 -108.5t170.5 44.5l12 -18q-42 -52 -95.5 -77t-105.5 -25q-83 0 -133.5 41t-50.5 110q0 128 172 268q-53 10 -90 55t-37 117v78q-45 -123 -127.5 -188.5t-187.5 -65.5z
M266 285q0 -85 55 -142t134 -57q72 0 131 52t98 145v266l-160 -21q-258 -34 -258 -243z" />
    <glyph glyph-name="aring.ss02" horiz-adv-x="1056" 
d="M369 -31q-119 0 -199 75t-80 192q0 157 102 243.5t318 108.5l174 16v146q0 118 -62 180.5t-171 62.5q-107 0 -192.5 -67.5t-121.5 -186.5l-28 2l49 316h26q0 -43 11.5 -57.5t39 -7.5t60 21.5t88 29t109.5 14.5q97 0 177.5 -34t132.5 -108.5t52 -177.5v-592
q0 -38 16.5 -60t44.5 -22q43 0 82 68l25 -10q-19 -45 -43.5 -77t-49 -47t-45.5 -21.5t-40 -6.5q-64 0 -112 46t-48 130v78q-45 -123 -127.5 -188.5t-187.5 -65.5zM266 285q0 -85 55 -142t134 -57q72 0 131 52t98 145v266l-160 -21q-258 -34 -258 -243zM326 1325q0 82 57 135
t143 53q87 0 144 -53.5t57 -134.5q0 -80 -57.5 -134t-143.5 -54t-143 54t-57 134zM403 1327q0 -55 35 -91t88 -36q54 0 88.5 35.5t34.5 91.5q0 54 -34.5 89.5t-88.5 35.5q-53 0 -88 -35.5t-35 -89.5z" />
    <glyph glyph-name="aringacute.ss02" horiz-adv-x="1056" 
d="M369 -31q-119 0 -199 75t-80 192q0 157 102 243.5t318 108.5l174 16v146q0 118 -62 180.5t-171 62.5q-107 0 -192.5 -67.5t-121.5 -186.5l-28 2l49 316h26q0 -43 11.5 -57.5t39 -7.5t60 21.5t88 29t109.5 14.5q97 0 177.5 -34t132.5 -108.5t52 -177.5v-592
q0 -38 16.5 -60t44.5 -22q43 0 82 68l25 -10q-19 -45 -43.5 -77t-49 -47t-45.5 -21.5t-40 -6.5q-64 0 -112 46t-48 130v78q-45 -123 -127.5 -188.5t-187.5 -65.5zM266 285q0 -85 55 -142t134 -57q72 0 131 52t98 145v266l-160 -21q-258 -34 -258 -243zM326 1325q0 82 57 135
t143 53q87 0 144 -53.5t57 -134.5q0 -80 -57.5 -134t-143.5 -54t-143 54t-57 134zM403 1327q0 -55 35 -91t88 -36q54 0 88.5 35.5t34.5 91.5q0 54 -34.5 89.5t-88.5 35.5q-53 0 -88 -35.5t-35 -89.5zM512 1577l137 338h205l-313 -338h-29z" />
    </font>
</defs>
</svg>
